<?xml version="1.0" encoding="utf-8"?>
<!-- Generator: Adobe Illustrator 27.2.0, SVG Export Plug-In . SVG Version: 6.00 Build 0)  -->
<svg version="1.1" xmlns="http://www.w3.org/2000/svg" xmlns:xlink="http://www.w3.org/1999/xlink" x="0px" y="0px"
	 viewBox="0 0 576 576" style="enable-background:new 0 0 576 576;" xml:space="preserve">
<style type="text/css">
	.st0{fill:#FFCF48;stroke:#000000;stroke-width:2;stroke-linecap:round;stroke-linejoin:round;stroke-miterlimit:10;}
	.st1{fill:#FFFFFF;stroke:#231F20;stroke-width:2;stroke-linecap:round;stroke-linejoin:round;stroke-miterlimit:10;}
	.st2{fill:#FFCF48;stroke:#231F20;stroke-width:2;stroke-linecap:round;stroke-linejoin:round;stroke-miterlimit:10;}
	.st3{fill:#B3B3B3;}
	.st4{fill:none;}
	.st5{fill:#FFCF48;}
	.st6{fill:#D85035;}
	.st7{fill:#F46E4E;}
	.st8{fill:#808080;}
	.st9{fill:#CBCBCB;}
	.st10{fill:none;stroke:#231F20;stroke-width:2;stroke-linecap:round;stroke-linejoin:round;stroke-miterlimit:10;}
	.st11{fill:#FFCF48;stroke:#0D0D1E;stroke-width:2;stroke-linecap:round;stroke-linejoin:round;stroke-miterlimit:10;}
	.st12{fill:#FFFFFF;stroke:#0D0D1E;stroke-width:2;stroke-linecap:round;stroke-linejoin:round;stroke-miterlimit:10;}
	.st13{stroke:#0D0D1E;stroke-width:2;stroke-linecap:round;stroke-linejoin:round;stroke-miterlimit:10;}
	.st14{enable-background:new    ;}
	.st15{fill:#E6E6E6;}
	.st16{fill:#EEEEEE;}
	.st17{fill:#DBDBDB;}
	.st18{fill:#C8C8C8;}
	.st19{clip-path:url(#SVGID_00000098911571876267230050000014677024814256884138_);}
	.st20{fill:#FFFFFF;}
	.st21{clip-path:url(#SVGID_00000021828127396965971440000007936959977184749198_);}
	.st22{fill:#1A1A1A;}
	.st23{clip-path:url(#SVGID_00000147940039828843485150000016975900426050338714_);}
	.st24{clip-path:url(#SVGID_00000142866325950688477800000010707140871100826016_);fill:#1A1A1A;}
	.st25{clip-path:url(#SVGID_00000093874335704520069740000017614739081261796499_);}
	.st26{fill:#DD9F17;}
	.st27{fill:#A5452F;}
	.st28{fill:#3D2B28;}
	.st29{fill:#E7633F;}
	.st30{fill:#15161E;}
	.st31{fill:#0D0E10;}
	.st32{fill:#04121F;}
	.st33{clip-path:url(#SVGID_00000043432109632659307390000007252196669819514258_);}
	.st34{clip-path:url(#SVGID_00000039832352799604762290000003450696596092693668_);}
	.st35{clip-path:url(#SVGID_00000075850922497031651970000002574428151114121123_);}
	.st36{clip-path:url(#SVGID_00000016041571025100878560000017252913106124320701_);}
	.st37{fill:none;stroke:#0D0E10;stroke-width:2;}
	.st38{fill:#1E1D24;}
	.st39{fill:none;stroke:#000000;stroke-width:2;}
	.st40{fill:none;stroke:#1E1D24;stroke-width:2;}
	.st41{fill:#40454F;}
	.st42{fill:#F6F6F6;}
	.st43{fill:#0D0D1E;}
	.st44{clip-path:url(#SVGID_00000091720655655007293160000011237975919260849068_);}
	.st45{fill:#FFFFFF;fill-opacity:0.2;}
	.st46{clip-path:url(#SVGID_00000065067874296065392430000016838884999324398518_);}
	.st47{fill:#979797;}
	.st48{fill:none;stroke:#979797;stroke-width:2;stroke-linecap:round;stroke-linejoin:round;}
	.st49{fill:none;stroke:#FFCF48;stroke-width:2;}
	.st50{clip-path:url(#SVGID_00000128479890947413685750000000698878678128868267_);}
	.st51{clip-path:url(#SVGID_00000140701767985299075900000014647315492330495148_);}
	.st52{clip-path:url(#SVGID_00000067933146710665924380000000874819948461161872_);}
	.st53{fill:none;stroke:#D4D2E3;stroke-width:2;stroke-linecap:round;stroke-linejoin:round;}
	.st54{clip-path:url(#SVGID_00000132805953263154025570000003056687594844259260_);}
	.st55{fill:none;stroke:#FFFFFF;stroke-width:1.5;stroke-linecap:round;stroke-linejoin:round;stroke-opacity:0.8;}
	.st56{clip-path:url(#SVGID_00000071519587339571255920000004748474082947254914_);}
	.st57{clip-path:url(#SVGID_00000061443048658244396540000001155562683821976246_);}
	.st58{fill:none;stroke:#FFFFFF;stroke-width:1.5;stroke-miterlimit:10;stroke-opacity:0.8;}
	.st59{fill:#FFFFFF;fill-opacity:0.8;}
	.st60{clip-path:url(#SVGID_00000129168908627336103840000002114807636168933043_);}
	.st61{fill:#F2F2F2;}
	.st62{fill:none;stroke:#F46E4E;stroke-width:4;stroke-linecap:round;stroke-linejoin:round;stroke-miterlimit:10;}
	.st63{fill:#F46E4E;stroke:#000000;stroke-width:2;stroke-linecap:round;stroke-linejoin:round;stroke-miterlimit:10;}
	.st64{stroke:#000000;stroke-width:2;stroke-linecap:round;stroke-linejoin:round;stroke-miterlimit:10;}
	.st65{fill:#FFFFFF;stroke:#000000;stroke-width:2;stroke-linecap:round;stroke-linejoin:round;stroke-miterlimit:10;}
	.st66{fill:#F46E4E;stroke:#231F20;stroke-width:2;stroke-linecap:round;stroke-linejoin:round;stroke-miterlimit:10;}
	.st67{fill:#98D150;stroke:#231F20;stroke-width:2;stroke-linecap:round;stroke-linejoin:round;stroke-miterlimit:10;}
	.st68{fill:#97D050;stroke:#000000;stroke-width:3;stroke-linecap:round;stroke-linejoin:round;stroke-miterlimit:10;}
	.st69{fill:#FFCE48;stroke:#000000;stroke-width:3;stroke-linecap:round;stroke-linejoin:round;stroke-miterlimit:10;}
	.st70{fill:#FFFFFF;stroke:#000000;stroke-width:3;stroke-linecap:round;stroke-linejoin:round;stroke-miterlimit:10;}
	.st71{fill:none;stroke:#000000;stroke-width:3;stroke-linecap:round;stroke-linejoin:round;stroke-miterlimit:10;}
	.st72{fill:#FFD254;stroke:#000000;stroke-width:3;stroke-linecap:round;stroke-linejoin:round;stroke-miterlimit:10;}
	.st73{fill:#AFA2FC;stroke:#000000;stroke-width:3;stroke-linecap:round;stroke-linejoin:round;stroke-miterlimit:10;}
	.st74{stroke:#000000;stroke-width:3;stroke-linecap:round;stroke-linejoin:round;stroke-miterlimit:10;}
	.st75{fill:#CCCCCC;}
	.st76{fill:#AFA2FC;}
	.st77{fill:#98D150;}
	.st78{fill:#FFFFFF;stroke:#0F0F1C;stroke-width:2;stroke-linecap:round;stroke-linejoin:round;stroke-miterlimit:10;}
	.st79{fill:#FBC83D;stroke:#000000;stroke-width:2;stroke-linecap:round;stroke-linejoin:round;stroke-miterlimit:10;}
	.st80{fill:#6A58E8;stroke:#0F0F1C;stroke-width:2;stroke-linecap:round;stroke-linejoin:round;stroke-miterlimit:10;}
	.st81{fill:#F2F2F2;stroke:#231F20;stroke-width:2;stroke-linecap:round;stroke-linejoin:round;stroke-miterlimit:10;}
	.st82{fill:#231F20;}
</style>
<g id="Layer_1">
	<g>
		<circle class="st1" cx="77" cy="538.9" r="7.6"/>
		<circle class="st1" cx="77" cy="512.5" r="7.6"/>
		<circle class="st1" cx="107.2" cy="538.9" r="7.6"/>
		<circle class="st1" cx="107.2" cy="512.5" r="7.6"/>
		<circle class="st1" cx="137.5" cy="538.9" r="7.6"/>
		<circle class="st1" cx="137.5" cy="512.5" r="7.6"/>
	</g>
	<path class="st10" d="M474,307.2l-6.1,6.8l-4.2-9.4l-2.6,12.9l-4.5-9.2l-5.8,6.1l-4.2-3.4"/>
	<g>
		<circle class="st2" cx="416.6" cy="525.7" r="5.2"/>
		<circle class="st2" cx="438.5" cy="525.7" r="5.2"/>
		<circle class="st2" cx="460.4" cy="525.7" r="5.2"/>
		<circle class="st2" cx="482.4" cy="525.7" r="5.2"/>
		<circle class="st2" cx="504.3" cy="525.7" r="5.2"/>
		<polyline class="st1" points="400,520.6 391.1,525.7 400,530.8 		"/>
		<polyline class="st1" points="520.9,520.6 529.8,525.7 520.9,530.8 		"/>
	</g>
	<g>
		<g>
			<g>
				<circle class="st1" cx="447.4" cy="80.7" r="6"/>
				<circle class="st1" cx="469.5" cy="80.7" r="6"/>
				<circle class="st1" cx="491.6" cy="80.7" r="6"/>
			</g>
			<g>
				<circle class="st1" cx="444.4" cy="77.7" r="6"/>
				<circle class="st1" cx="466.5" cy="77.7" r="6"/>
				<circle class="st1" cx="488.6" cy="77.7" r="6"/>
			</g>
		</g>
		<g>
			<path class="st1" d="M502.7,91h-84.5c-5.2,0-9.4-4.2-9.4-9.4V55.7c0-5.2,4.2-9.4,9.4-9.4h84.5c5.2,0,9.4,4.2,9.4,9.4v25.8
				C512.1,86.8,507.9,91,502.7,91z"/>
			<g>
				<circle class="st2" cx="438.3" cy="68.6" r="6"/>
				<circle class="st2" cx="460.4" cy="68.6" r="6"/>
				<circle class="st2" cx="482.5" cy="68.6" r="6"/>
			</g>
		</g>
	</g>
	<path class="st1" d="M478.7,486.9H72.4c-16.3,0-29.5-13.2-29.5-29.5v-74.6c0-16.3,13.2-29.5,29.5-29.5h406.3
		c16.3,0,29.5,13.2,29.5,29.5v74.6C508.2,473.7,495,486.9,478.7,486.9z"/>
	<g>
		<path class="st2" d="M507.6,486.9h-99.7c-14.1,0-25.5-11.4-25.5-25.5v-82.6c0-14.1,11.4-25.5,25.5-25.5h99.7
			c14.1,0,25.5,11.4,25.5,25.5v82.6C533.2,475.5,521.7,486.9,507.6,486.9z"/>
		<g>
			<path d="M419.9,443.7c-2.6-1.2-4.7-2.8-6.1-4.9c-1.5-2.1-2.3-4.4-2.5-7l0-0.5h10.5l0.1,0.2c0.3,0.9,0.7,1.8,1.4,2.6
				c0.7,0.8,1.5,1.4,2.5,1.8c1,0.5,2.1,0.7,3.4,0.7c1.4,0,2.7-0.3,3.8-0.9s2-1.4,2.6-2.5c0.6-1.1,0.9-2.3,0.9-3.7v-0.1
				c0-1.4-0.3-2.6-0.9-3.7c-0.6-1.1-1.5-1.9-2.6-2.5s-2.4-0.9-3.8-0.9c-0.9,0-1.8,0.1-2.6,0.4c-0.8,0.3-1.6,0.6-2.2,1.1
				c-0.5,0.3-0.9,0.7-1.3,1.1c-0.4,0.4-0.7,0.9-0.9,1.3h-10l2-27.1h30.6v8.9h-21.5l-0.9,11.5h0.2c0.6-1,1.4-1.9,2.4-2.7
				c1-0.7,2.1-1.3,3.5-1.7c1.3-0.4,2.8-0.6,4.3-0.6c2.9,0,5.4,0.6,7.6,1.9c2.2,1.3,4,3,5.2,5.2s1.9,4.7,1.9,7.6v0.1
				c0,3.2-0.8,6.1-2.3,8.5c-1.5,2.4-3.7,4.3-6.4,5.7c-2.8,1.4-5.9,2-9.6,2C425.6,445.5,422.5,444.9,419.9,443.7z"/>
			<path d="M457.2,421.6c-1.7-1-3-2.4-3.9-4.2c-0.9-1.8-1.4-4-1.4-6.5v0c0-2.5,0.5-4.7,1.4-6.5c0.9-1.8,2.2-3.2,3.9-4.2
				c1.7-1,3.7-1.5,6-1.5c2.3,0,4.3,0.5,6,1.5c1.7,1,3,2.4,3.9,4.2c0.9,1.8,1.4,4,1.4,6.5v0c0,2.5-0.5,4.7-1.4,6.5
				c-0.9,1.8-2.2,3.2-3.9,4.2c-1.7,1-3.7,1.5-6,1.5C460.9,423.1,458.9,422.6,457.2,421.6z M465.7,415.6c0.6-1,0.9-2.6,0.9-4.6v0
				c0-2-0.3-3.6-0.9-4.6c-0.6-1-1.5-1.5-2.6-1.5s-2,0.5-2.6,1.5c-0.6,1-0.9,2.6-0.9,4.6v0c0,2,0.3,3.5,0.9,4.6
				c0.6,1,1.5,1.6,2.6,1.6S465.1,416.6,465.7,415.6z M461.3,444.7l28.5-45.5h8l-28.5,45.5H461.3z M489.9,443.6c-1.7-1-3-2.4-3.9-4.2
				c-0.9-1.8-1.4-4-1.4-6.5v0c0-2.5,0.5-4.7,1.4-6.5c0.9-1.8,2.2-3.2,3.9-4.2c1.7-1,3.7-1.5,6-1.5c2.3,0,4.3,0.5,6,1.5
				c1.7,1,3,2.4,3.9,4.2c0.9,1.8,1.4,4,1.4,6.5v0c0,2.5-0.5,4.7-1.4,6.5c-0.9,1.8-2.2,3.2-3.9,4.2c-1.7,1-3.7,1.5-6,1.5
				C493.6,445.1,491.6,444.6,489.9,443.6z M498.5,437.5c0.6-1,0.9-2.6,0.9-4.6v0c0-2-0.3-3.6-0.9-4.6c-0.6-1-1.4-1.5-2.6-1.5
				c-1.1,0-2,0.5-2.6,1.5c-0.6,1-0.9,2.6-0.9,4.6v0c0,2,0.3,3.5,0.9,4.6c0.6,1,1.5,1.6,2.6,1.6C497,439.1,497.9,438.6,498.5,437.5z"
				/>
		</g>
	</g>
	<path class="st1" d="M426.6,269.1H72.4c-16.3,0-29.5-13.2-29.5-29.5V165c0-16.3,13.2-29.5,29.5-29.5h354.2
		c16.3,0,29.5,13.2,29.5,29.5v74.6C456.2,255.9,442.9,269.1,426.6,269.1z"/>
	<path class="st81" d="M507.6,269.1h-99.7c-14.1,0-25.5-11.4-25.5-25.5V161c0-14.1,11.4-25.5,25.5-25.5h99.7
		c14.1,0,25.5,11.4,25.5,25.5v82.6C533.2,257.7,521.7,269.1,507.6,269.1z"/>
	<path class="st2" d="M169.3,249.3h-62.1c-7.7,0-13.9-6.2-13.9-13.9v-62.1c0-7.7,6.2-13.9,13.9-13.9h62.1c7.7,0,13.9,6.2,13.9,13.9
		v62.1C183.2,243.1,176.9,249.3,169.3,249.3z"/>
	<g>
		<path d="M260.6,190.5h-0.2l-10.7,7.3v-6.8l10.8-7.6h7.3v41.4h-7.3V190.5z"/>
	</g>
	<g>
		<path d="M425.9,216.3c-1.7-0.9-3-2.1-4-3.6s-1.4-3.3-1.4-5.4v-18h5v17.6c0,1.3,0.3,2.4,0.8,3.4c0.5,1,1.2,1.7,2.2,2.2
			c1,0.5,2.1,0.8,3.5,0.8s2.5-0.3,3.5-0.8c1-0.5,1.7-1.3,2.2-2.2c0.5-1,0.8-2.1,0.8-3.4v-17.6h4.9v18c0,2-0.5,3.8-1.4,5.4
			c-0.9,1.5-2.2,2.7-3.9,3.6c-1.7,0.9-3.7,1.3-6.1,1.3C429.6,217.6,427.6,217.2,425.9,216.3z"/>
		<path d="M452.5,216.6c-1.6-0.6-2.8-1.6-3.8-2.8c-0.9-1.2-1.4-2.6-1.5-4.3l0-0.3h4.7l0,0.2c0.1,0.8,0.5,1.5,1,2.1s1.3,1,2.2,1.3
			s1.9,0.5,3.1,0.5c1.2,0,2.2-0.2,3-0.5c0.9-0.3,1.5-0.8,2-1.4s0.7-1.3,0.7-2.1v0c0-1-0.4-1.9-1.2-2.5c-0.8-0.6-2.1-1.1-3.9-1.5
			l-3-0.6c-2.7-0.6-4.8-1.5-6.1-2.8c-1.4-1.3-2-3-2-5v0c0-1.6,0.5-3.1,1.3-4.3s2.1-2.2,3.6-2.9c1.6-0.7,3.3-1,5.3-1
			c2,0,3.8,0.3,5.3,1c1.5,0.7,2.7,1.6,3.6,2.8s1.3,2.6,1.4,4.2l0,0.3h-4.7l0-0.3c-0.1-0.8-0.4-1.5-0.9-2.1c-0.5-0.6-1.1-1-1.9-1.3
			c-0.8-0.3-1.7-0.5-2.8-0.5c-1.1,0-2,0.2-2.8,0.5s-1.4,0.8-1.8,1.3c-0.4,0.6-0.6,1.2-0.6,2v0c0,1,0.4,1.8,1.2,2.4s2,1.1,3.7,1.4
			l3,0.6c1.9,0.4,3.5,0.9,4.7,1.6c1.2,0.7,2.1,1.5,2.7,2.6c0.6,1,0.9,2.3,0.9,3.7v0c0,1.7-0.4,3.2-1.3,4.5c-0.9,1.3-2.1,2.3-3.7,2.9
			s-3.6,1-5.8,1C455.9,217.6,454.1,217.3,452.5,216.6z"/>
		<path d="M472.6,189.3h10.1c2.8,0,5.1,0.5,7.1,1.6c2,1.1,3.5,2.6,4.5,4.7c1.1,2.1,1.6,4.5,1.6,7.5v0c0,2.9-0.5,5.4-1.6,7.5
			c-1,2.1-2.6,3.7-4.5,4.8s-4.3,1.7-7.1,1.7h-10.1V189.3z M482.2,212.9c1.9,0,3.5-0.4,4.7-1.1c1.3-0.8,2.3-1.8,2.9-3.3
			c0.7-1.4,1-3.2,1-5.3v0c0-2.1-0.3-3.8-1-5.3c-0.7-1.4-1.7-2.5-2.9-3.3c-1.3-0.7-2.9-1.1-4.7-1.1h-4.7v19.4H482.2z"/>
	</g>
	<g>
		<path class="st3" d="M76.7,318.4l-6.9-11.8h3.8l4.7,8.5h0.1l4.7-8.5H87l-6.9,11.8v7.7h-3.5V318.4z"/>
		<path class="st3" d="M88.6,325.5c-1-0.6-1.8-1.5-2.4-2.6s-0.9-2.4-0.9-4v0c0-1.5,0.3-2.9,0.9-4c0.6-1.1,1.4-2,2.4-2.6
			c1-0.6,2.3-0.9,3.6-0.9c1.4,0,2.6,0.3,3.7,0.9c1,0.6,1.9,1.5,2.4,2.6s0.9,2.4,0.9,4v0c0,1.6-0.3,2.9-0.9,4c-0.6,1.1-1.4,2-2.4,2.6
			s-2.3,0.9-3.7,0.9S89.7,326.1,88.6,325.5z M94.2,323.2c0.5-0.4,0.9-0.9,1.2-1.6c0.3-0.7,0.4-1.6,0.4-2.6v0c0-1-0.1-1.8-0.4-2.5
			c-0.3-0.7-0.7-1.2-1.2-1.6c-0.5-0.4-1.1-0.6-1.9-0.6c-0.7,0-1.3,0.2-1.8,0.6c-0.5,0.4-0.9,0.9-1.2,1.6c-0.3,0.7-0.4,1.6-0.4,2.5v0
			c0,1,0.1,1.9,0.4,2.6c0.3,0.7,0.7,1.2,1.2,1.6c0.5,0.4,1.1,0.6,1.9,0.6S93.6,323.5,94.2,323.2z"/>
		<path class="st3" d="M103.6,325.8c-0.7-0.4-1.3-1-1.7-1.8s-0.6-1.8-0.6-2.9v-9.3h3.4v8.6c0,1,0.2,1.8,0.7,2.4
			c0.5,0.6,1.2,0.8,2.2,0.8c0.5,0,0.9-0.1,1.3-0.3c0.4-0.2,0.7-0.4,1-0.7c0.3-0.3,0.5-0.7,0.6-1.1c0.1-0.4,0.2-0.9,0.2-1.4v-8.3h3.4
			v14.4h-3.4v-2.2h-0.1c-0.3,0.5-0.6,1-1,1.3c-0.4,0.4-0.9,0.7-1.5,0.9c-0.6,0.2-1.2,0.3-1.9,0.3
			C105.2,326.4,104.3,326.2,103.6,325.8z"/>
		<path class="st3" d="M116.9,311.8h3.4v2.5h0.1c0.2-0.9,0.6-1.5,1.2-2c0.6-0.5,1.3-0.7,2.1-0.7c0.2,0,0.4,0,0.6,0
			c0.2,0,0.3,0.1,0.5,0.1v3c-0.1-0.1-0.3-0.1-0.6-0.1c-0.2,0-0.5-0.1-0.8-0.1c-0.6,0-1.2,0.1-1.6,0.4c-0.5,0.3-0.8,0.6-1.1,1.1
			c-0.2,0.5-0.4,1.1-0.4,1.8v8.3h-3.4V311.8z"/>
		<path class="st3" d="M132,311.8h3.4v2.5h0.1c0.3-0.6,0.6-1.1,1.1-1.5c0.4-0.4,0.9-0.7,1.5-1c0.6-0.2,1.2-0.3,1.9-0.3
			c1.2,0,2.3,0.3,3.2,0.9c0.9,0.6,1.6,1.5,2.1,2.6c0.5,1.1,0.7,2.5,0.7,4v0c0,1.5-0.2,2.9-0.7,4s-1.2,2-2,2.6
			c-0.9,0.6-1.9,0.9-3.1,0.9c-0.7,0-1.3-0.1-1.9-0.3s-1.1-0.5-1.5-0.9c-0.4-0.4-0.8-0.9-1.1-1.5h-0.1v7.2H132V311.8z M140.7,323
			c0.5-0.4,0.9-0.9,1.2-1.6c0.3-0.7,0.4-1.5,0.4-2.4v0c0-1-0.1-1.8-0.4-2.5c-0.3-0.7-0.7-1.2-1.2-1.6c-0.5-0.4-1.1-0.6-1.9-0.6
			c-0.7,0-1.3,0.2-1.8,0.6s-1,0.9-1.3,1.6c-0.3,0.7-0.5,1.5-0.5,2.5v0c0,0.9,0.2,1.8,0.5,2.4c0.3,0.7,0.7,1.2,1.3,1.6
			s1.1,0.6,1.8,0.6C139.6,323.6,140.2,323.4,140.7,323z"/>
		<path class="st3" d="M148.1,306.6h3.4v19.6h-3.4V306.6z"/>
		<path class="st3" d="M156.1,325.8c-0.7-0.4-1.3-0.9-1.7-1.5c-0.4-0.7-0.6-1.4-0.6-2.3v0c0-0.9,0.2-1.6,0.6-2.2
			c0.4-0.6,1-1.1,1.9-1.5c0.8-0.4,1.8-0.6,3-0.6l5.5-0.3v2.2l-5,0.3c-0.8,0.1-1.5,0.3-1.9,0.6c-0.4,0.3-0.7,0.8-0.7,1.4v0
			c0,0.6,0.2,1.1,0.7,1.4s1,0.5,1.8,0.5c0.7,0,1.2-0.1,1.7-0.4c0.5-0.3,0.9-0.6,1.2-1.1c0.3-0.5,0.4-1,0.4-1.5v-4.3
			c0-0.7-0.2-1.3-0.7-1.7c-0.5-0.4-1.1-0.6-2-0.6c-0.8,0-1.4,0.2-1.9,0.5c-0.5,0.3-0.8,0.8-0.9,1.3l0,0.1h-3.1l0-0.2
			c0.1-0.8,0.4-1.6,0.9-2.3c0.5-0.7,1.2-1.2,2.1-1.6c0.9-0.4,1.9-0.6,3.1-0.6c1.2,0,2.2,0.2,3.1,0.6c0.9,0.4,1.6,1,2,1.7
			c0.5,0.7,0.7,1.6,0.7,2.5v9.9H163v-2.2h-0.1c-0.3,0.5-0.6,0.9-1.1,1.3c-0.4,0.4-0.9,0.7-1.5,0.9s-1.1,0.3-1.8,0.3
			C157.6,326.4,156.8,326.2,156.1,325.8z"/>
		<path class="st3" d="M170,330.9c-0.3,0-0.6-0.1-0.8-0.1v-2.6c0.1,0,0.3,0,0.5,0.1c0.2,0,0.4,0,0.7,0c0.7,0,1.2-0.1,1.5-0.3
			c0.4-0.2,0.7-0.6,0.9-1.2l0.2-0.6l-5.2-14.4h3.7l3.6,12.2l-0.5-0.7h0.7l-0.5,0.7l3.6-12.2h3.6l-5.2,14.9c-0.4,1-0.8,1.9-1.3,2.5
			c-0.5,0.6-1.1,1.1-1.9,1.4c-0.7,0.3-1.6,0.4-2.6,0.4C170.6,330.9,170.3,330.9,170,330.9z"/>
		<path class="st3" d="M185.5,325.5c-1-0.6-1.8-1.5-2.4-2.6c-0.6-1.1-0.8-2.4-0.8-3.9v0c0-1.5,0.3-2.8,0.8-4c0.6-1.1,1.3-2,2.3-2.6
			s2.2-0.9,3.6-0.9c1.4,0,2.5,0.3,3.5,0.9c1,0.6,1.8,1.4,2.3,2.5s0.8,2.3,0.8,3.8v1.1H184v-2.2h10.1l-1.6,2.1v-1.3
			c0-0.9-0.1-1.7-0.4-2.3c-0.3-0.6-0.7-1.1-1.2-1.4c-0.5-0.3-1.1-0.5-1.7-0.5c-0.7,0-1.3,0.2-1.8,0.5c-0.5,0.3-0.9,0.8-1.2,1.4
			c-0.3,0.6-0.4,1.4-0.4,2.3v1.3c0,0.9,0.1,1.6,0.4,2.2c0.3,0.6,0.7,1.1,1.3,1.4c0.5,0.3,1.2,0.5,1.9,0.5c0.6,0,1.1-0.1,1.5-0.3
			c0.4-0.2,0.8-0.4,1-0.7c0.3-0.3,0.5-0.6,0.6-0.9l0-0.1h3.1l0,0.1c-0.1,0.6-0.3,1.1-0.7,1.6c-0.3,0.5-0.7,1-1.3,1.4s-1.2,0.8-1.9,1
			c-0.7,0.2-1.6,0.4-2.5,0.4C187.8,326.4,186.6,326.1,185.5,325.5z"/>
		<path class="st3" d="M197.9,311.8h3.4v2.5h0.1c0.2-0.9,0.6-1.5,1.2-2c0.6-0.5,1.3-0.7,2.1-0.7c0.2,0,0.4,0,0.6,0
			c0.2,0,0.3,0.1,0.5,0.1v3c-0.1-0.1-0.3-0.1-0.6-0.1c-0.2,0-0.5-0.1-0.8-0.1c-0.6,0-1.2,0.1-1.6,0.4c-0.5,0.3-0.8,0.6-1.1,1.1
			c-0.2,0.5-0.4,1.1-0.4,1.8v8.3h-3.4V311.8z"/>
		<path class="st3" d="M211.9,311.8h3.4l2.4,11h0.1l2.8-11h3.2l2.8,11h0.1l2.4-11h3.3l-3.9,14.4H225l-2.8-10.5h-0.1l-2.8,10.5h-3.5
			L211.9,311.8z"/>
		<path class="st3" d="M234.6,309.2c-0.4-0.4-0.5-0.8-0.5-1.3c0-0.5,0.2-1,0.5-1.3s0.8-0.5,1.3-0.5c0.5,0,1,0.2,1.3,0.5
			s0.5,0.8,0.5,1.3c0,0.5-0.2,0.9-0.5,1.3c-0.4,0.4-0.8,0.5-1.3,0.5C235.4,309.7,235,309.5,234.6,309.2z M234.2,311.8h3.4v14.4h-3.4
			V311.8z"/>
		<path class="st3" d="M240.6,306.6h3.4v19.6h-3.4V306.6z"/>
		<path class="st3" d="M246.9,306.6h3.4v19.6h-3.4V306.6z"/>
		<path class="st3" d="M261.9,330.7c-0.9-0.3-1.7-0.8-2.3-1.4c-0.6-0.6-0.9-1.3-1-2l0-0.1h3.3l0.1,0.1c0.2,0.4,0.6,0.8,1.1,1
			c0.6,0.3,1.3,0.4,2.1,0.4c1.1,0,1.9-0.3,2.5-0.8c0.6-0.5,0.9-1.3,0.9-2.2v-2.1h-0.1c-0.3,0.5-0.6,1-1.1,1.3
			c-0.4,0.4-0.9,0.7-1.5,0.9c-0.6,0.2-1.2,0.3-1.9,0.3c-1.2,0-2.2-0.3-3.1-0.9c-0.9-0.6-1.6-1.4-2.1-2.5s-0.7-2.4-0.7-3.9v0
			c0-1.5,0.2-2.8,0.7-3.9c0.5-1.1,1.2-1.9,2.1-2.5c0.9-0.6,1.9-0.9,3.2-0.9c0.7,0,1.3,0.1,1.9,0.3c0.6,0.2,1.1,0.5,1.5,1
			c0.4,0.4,0.8,0.9,1,1.4h0.1v-2.4h3.4v14c0,1.1-0.3,2-0.8,2.9c-0.6,0.8-1.3,1.5-2.3,1.9s-2.2,0.7-3.6,0.7
			C263.9,331.2,262.8,331,261.9,330.7z M266.9,322.9c0.5-0.4,0.9-0.9,1.2-1.6c0.3-0.7,0.4-1.5,0.4-2.4v0c0-0.9-0.1-1.7-0.4-2.4
			c-0.3-0.7-0.7-1.2-1.2-1.6c-0.5-0.4-1.1-0.6-1.8-0.6c-0.7,0-1.4,0.2-1.9,0.6c-0.5,0.4-0.9,0.9-1.2,1.6s-0.4,1.5-0.4,2.4v0
			c0,0.9,0.1,1.8,0.4,2.4s0.7,1.2,1.2,1.6c0.5,0.4,1.2,0.6,1.9,0.6C265.8,323.5,266.4,323.3,266.9,322.9z"/>
		<path class="st3" d="M277.3,325.5c-1-0.6-1.8-1.5-2.4-2.6c-0.6-1.1-0.8-2.4-0.8-3.9v0c0-1.5,0.3-2.8,0.8-4c0.6-1.1,1.3-2,2.3-2.6
			s2.2-0.9,3.6-0.9c1.4,0,2.5,0.3,3.5,0.9c1,0.6,1.8,1.4,2.3,2.5s0.8,2.3,0.8,3.8v1.1h-11.7v-2.2h10.1l-1.6,2.1v-1.3
			c0-0.9-0.1-1.7-0.4-2.3c-0.3-0.6-0.7-1.1-1.2-1.4c-0.5-0.3-1.1-0.5-1.7-0.5c-0.7,0-1.3,0.2-1.8,0.5c-0.5,0.3-0.9,0.8-1.2,1.4
			c-0.3,0.6-0.4,1.4-0.4,2.3v1.3c0,0.9,0.1,1.6,0.4,2.2c0.3,0.6,0.7,1.1,1.3,1.4c0.5,0.3,1.2,0.5,1.9,0.5c0.6,0,1.1-0.1,1.5-0.3
			c0.4-0.2,0.8-0.4,1-0.7c0.3-0.3,0.5-0.6,0.6-0.9l0-0.1h3.1l0,0.1c-0.1,0.6-0.3,1.1-0.7,1.6c-0.3,0.5-0.7,1-1.3,1.4s-1.2,0.8-1.9,1
			c-0.7,0.2-1.6,0.4-2.5,0.4C279.6,326.4,278.4,326.1,277.3,325.5z"/>
		<path class="st3" d="M291.7,325.5c-0.7-0.7-1.1-1.7-1.1-3.2v-7.9h-2v-2.6h2v-3.6h3.4v3.6h2.7v2.6H294v7.6c0,0.7,0.2,1.2,0.5,1.4
			c0.3,0.3,0.8,0.4,1.4,0.4c0.2,0,0.3,0,0.5,0c0.1,0,0.3,0,0.4,0v2.5c-0.2,0-0.4,0.1-0.7,0.1c-0.3,0-0.6,0-1,0
			C293.5,326.4,292.4,326.1,291.7,325.5z"/>
	</g>
	<g>
		<path class="st3" d="M71.2,93.2h12.5v2.9h-9v5.8h8.2v2.8h-8.2v8h-3.5V93.2z"/>
		<path class="st3" d="M88.1,112.1c-1-0.6-1.8-1.5-2.4-2.6s-0.9-2.4-0.9-4v0c0-1.5,0.3-2.9,0.9-4c0.6-1.1,1.4-2,2.4-2.6
			c1-0.6,2.3-0.9,3.6-0.9c1.4,0,2.6,0.3,3.7,0.9c1,0.6,1.9,1.5,2.4,2.6s0.9,2.4,0.9,4v0c0,1.6-0.3,2.9-0.9,4c-0.6,1.1-1.4,2-2.4,2.6
			s-2.3,0.9-3.7,0.9S89.1,112.7,88.1,112.1z M93.6,109.8c0.5-0.4,0.9-0.9,1.2-1.6c0.3-0.7,0.4-1.6,0.4-2.6v0c0-1-0.1-1.8-0.4-2.5
			c-0.3-0.7-0.7-1.2-1.2-1.6c-0.5-0.4-1.1-0.6-1.9-0.6c-0.7,0-1.3,0.2-1.8,0.6c-0.5,0.4-0.9,0.9-1.2,1.6c-0.3,0.7-0.4,1.6-0.4,2.5v0
			c0,1,0.1,1.9,0.4,2.6c0.3,0.7,0.7,1.2,1.2,1.6c0.5,0.4,1.1,0.6,1.9,0.6S93.1,110.1,93.6,109.8z"/>
		<path class="st3" d="M100.9,98.4h3.4v2.5h0.1c0.2-0.9,0.6-1.5,1.2-2c0.6-0.5,1.3-0.7,2.1-0.7c0.2,0,0.4,0,0.6,0
			c0.2,0,0.3,0.1,0.5,0.1v3c-0.1-0.1-0.3-0.1-0.6-0.1c-0.2,0-0.5-0.1-0.8-0.1c-0.6,0-1.2,0.1-1.6,0.4c-0.5,0.3-0.8,0.6-1.1,1.1
			c-0.2,0.5-0.4,1.1-0.4,1.8v8.3h-3.4V98.4z"/>
		<path class="st3" d="M118.6,112.1c-1-0.6-1.8-1.5-2.4-2.6c-0.6-1.1-0.8-2.4-0.8-3.9v0c0-1.5,0.3-2.8,0.8-4c0.6-1.1,1.3-2,2.3-2.6
			s2.2-0.9,3.6-0.9c1.4,0,2.5,0.3,3.5,0.9c1,0.6,1.8,1.4,2.3,2.5s0.8,2.3,0.8,3.8v1.1H117v-2.2h10.1l-1.6,2.1v-1.3
			c0-0.9-0.1-1.7-0.4-2.3c-0.3-0.6-0.7-1.1-1.2-1.4c-0.5-0.3-1.1-0.5-1.7-0.5c-0.7,0-1.3,0.2-1.8,0.5c-0.5,0.3-0.9,0.8-1.2,1.4
			c-0.3,0.6-0.4,1.4-0.4,2.3v1.3c0,0.9,0.1,1.6,0.4,2.2c0.3,0.6,0.7,1.1,1.3,1.4c0.5,0.3,1.2,0.5,1.9,0.5c0.6,0,1.1-0.1,1.5-0.3
			c0.4-0.2,0.8-0.4,1-0.7c0.3-0.3,0.5-0.6,0.6-0.9l0-0.1h3.1l0,0.1c-0.1,0.6-0.3,1.1-0.7,1.6c-0.3,0.5-0.7,1-1.3,1.4s-1.2,0.8-1.9,1
			c-0.7,0.2-1.6,0.4-2.5,0.4C120.8,113,119.6,112.7,118.6,112.1z"/>
		<path class="st3" d="M129.2,98.4h3.6l3.3,11.2h0.1l3.3-11.2h3.5l-5.1,14.4h-3.7L129.2,98.4z"/>
		<path class="st3" d="M146.7,112.1c-1-0.6-1.8-1.5-2.4-2.6c-0.6-1.1-0.8-2.4-0.8-3.9v0c0-1.5,0.3-2.8,0.8-4c0.6-1.1,1.3-2,2.3-2.6
			s2.2-0.9,3.6-0.9c1.4,0,2.5,0.3,3.5,0.9c1,0.6,1.8,1.4,2.3,2.5s0.8,2.3,0.8,3.8v1.1h-11.7v-2.2h10.1l-1.6,2.1v-1.3
			c0-0.9-0.1-1.7-0.4-2.3c-0.3-0.6-0.7-1.1-1.2-1.4c-0.5-0.3-1.1-0.5-1.7-0.5c-0.7,0-1.3,0.2-1.8,0.5c-0.5,0.3-0.9,0.8-1.2,1.4
			c-0.3,0.6-0.4,1.4-0.4,2.3v1.3c0,0.9,0.1,1.6,0.4,2.2c0.3,0.6,0.7,1.1,1.3,1.4c0.5,0.3,1.2,0.5,1.9,0.5c0.6,0,1.1-0.1,1.5-0.3
			c0.4-0.2,0.8-0.4,1-0.7c0.3-0.3,0.5-0.6,0.6-0.9l0-0.1h3.1l0,0.1c-0.1,0.6-0.3,1.1-0.7,1.6c-0.3,0.5-0.7,1-1.3,1.4s-1.2,0.8-1.9,1
			c-0.7,0.2-1.6,0.4-2.5,0.4C148.9,113,147.7,112.7,146.7,112.1z"/>
		<path class="st3" d="M159,98.4h3.4v2.5h0.1c0.2-0.9,0.6-1.5,1.2-2c0.6-0.5,1.3-0.7,2.1-0.7c0.2,0,0.4,0,0.6,0
			c0.2,0,0.3,0.1,0.5,0.1v3c-0.1-0.1-0.3-0.1-0.6-0.1c-0.2,0-0.5-0.1-0.8-0.1c-0.6,0-1.2,0.1-1.6,0.4c-0.5,0.3-0.8,0.6-1.1,1.1
			c-0.2,0.5-0.4,1.1-0.4,1.8v8.3H159V98.4z"/>
		<path class="st3" d="M170,117.5c-0.3,0-0.6-0.1-0.8-0.1v-2.6c0.1,0,0.3,0,0.5,0.1c0.2,0,0.4,0,0.7,0c0.7,0,1.2-0.1,1.5-0.3
			c0.4-0.2,0.7-0.6,0.9-1.2l0.2-0.6l-5.2-14.4h3.7l3.6,12.2l-0.5-0.7h0.7l-0.5,0.7l3.6-12.2h3.6l-5.2,14.9c-0.4,1-0.8,1.9-1.3,2.5
			c-0.5,0.6-1.1,1.1-1.9,1.4c-0.7,0.3-1.6,0.4-2.6,0.4C170.6,117.5,170.3,117.5,170,117.5z"/>
		<path class="st3" d="M191.4,112.5c-0.9-0.4-1.6-0.9-2.1-1.6c-0.5-0.7-0.8-1.5-0.9-2.3l0-0.1h3.3l0,0.1c0.1,0.6,0.4,1.1,0.9,1.5
			c0.5,0.3,1.1,0.5,2,0.5c0.6,0,1-0.1,1.4-0.2c0.4-0.1,0.7-0.3,0.9-0.6c0.2-0.3,0.3-0.6,0.3-0.9v0c0-0.4-0.1-0.8-0.4-1
			s-0.8-0.5-1.6-0.7l-2.4-0.5c-0.9-0.2-1.7-0.5-2.3-0.9s-1.1-0.8-1.4-1.3c-0.3-0.5-0.5-1.2-0.5-1.9v0c0-0.9,0.2-1.6,0.7-2.3
			c0.5-0.7,1.2-1.2,2-1.5s1.9-0.6,3-0.6c1.2,0,2.2,0.2,3.1,0.6c0.8,0.4,1.5,0.9,2,1.6c0.5,0.7,0.7,1.4,0.8,2.2l0,0.1h-3.1l0-0.1
			c-0.1-0.6-0.3-1.1-0.8-1.4s-1.1-0.6-1.9-0.6c-0.5,0-0.9,0.1-1.3,0.2c-0.4,0.1-0.6,0.3-0.8,0.6s-0.3,0.6-0.3,0.9v0
			c0,0.3,0.1,0.5,0.2,0.7s0.4,0.4,0.7,0.6s0.7,0.3,1.2,0.4l2.4,0.5c1.5,0.3,2.6,0.8,3.2,1.4c0.6,0.6,0.9,1.4,0.9,2.5v0
			c0,0.9-0.3,1.7-0.8,2.4c-0.5,0.7-1.2,1.2-2.1,1.6c-0.9,0.4-2,0.6-3.1,0.6C193.3,113,192.3,112.9,191.4,112.5z"/>
		<path class="st3" d="M202.8,98.4h3.4v2.5h0.1c0.3-0.6,0.6-1.1,1.1-1.5c0.4-0.4,0.9-0.7,1.5-1c0.6-0.2,1.2-0.3,1.9-0.3
			c1.2,0,2.3,0.3,3.2,0.9c0.9,0.6,1.6,1.5,2.1,2.6c0.5,1.1,0.7,2.5,0.7,4v0c0,1.5-0.2,2.9-0.7,4s-1.2,2-2,2.6
			c-0.9,0.6-1.9,0.9-3.1,0.9c-0.7,0-1.3-0.1-1.9-0.3s-1.1-0.5-1.5-0.9c-0.4-0.4-0.8-0.9-1.1-1.5h-0.1v7.2h-3.4V98.4z M211.5,109.6
			c0.5-0.4,0.9-0.9,1.2-1.6c0.3-0.7,0.4-1.5,0.4-2.4v0c0-1-0.1-1.8-0.4-2.5c-0.3-0.7-0.7-1.2-1.2-1.6c-0.5-0.4-1.1-0.6-1.9-0.6
			c-0.7,0-1.3,0.2-1.8,0.6s-1,0.9-1.3,1.6c-0.3,0.7-0.5,1.5-0.5,2.5v0c0,0.9,0.2,1.8,0.5,2.4c0.3,0.7,0.7,1.2,1.3,1.6
			s1.1,0.6,1.8,0.6C210.4,110.2,211,110,211.5,109.6z"/>
		<path class="st3" d="M221.4,112.1c-1-0.6-1.8-1.5-2.4-2.6c-0.6-1.1-0.8-2.4-0.8-3.9v0c0-1.5,0.3-2.8,0.8-4c0.6-1.1,1.3-2,2.3-2.6
			s2.2-0.9,3.6-0.9c1.4,0,2.5,0.3,3.5,0.9c1,0.6,1.8,1.4,2.3,2.5s0.8,2.3,0.8,3.8v1.1h-11.7v-2.2H230l-1.6,2.1v-1.3
			c0-0.9-0.1-1.7-0.4-2.3c-0.3-0.6-0.7-1.1-1.2-1.4c-0.5-0.3-1.1-0.5-1.7-0.5c-0.7,0-1.3,0.2-1.8,0.5c-0.5,0.3-0.9,0.8-1.2,1.4
			c-0.3,0.6-0.4,1.4-0.4,2.3v1.3c0,0.9,0.1,1.6,0.4,2.2c0.3,0.6,0.7,1.1,1.3,1.4c0.5,0.3,1.2,0.5,1.9,0.5c0.6,0,1.1-0.1,1.5-0.3
			c0.4-0.2,0.8-0.4,1-0.7c0.3-0.3,0.5-0.6,0.6-0.9l0-0.1h3.1l0,0.1c-0.1,0.6-0.3,1.1-0.7,1.6c-0.3,0.5-0.7,1-1.3,1.4s-1.2,0.8-1.9,1
			c-0.7,0.2-1.6,0.4-2.5,0.4C223.7,113,222.4,112.7,221.4,112.1z"/>
		<path class="st3" d="M233.7,98.4h3.4v2.2h0.1c0.4-0.8,0.9-1.4,1.7-1.9c0.7-0.5,1.6-0.7,2.7-0.7c1.6,0,2.8,0.5,3.7,1.4
			c0.9,1,1.3,2.3,1.3,3.9v9.3h-3.4v-8.6c0-1-0.2-1.8-0.7-2.4c-0.5-0.6-1.2-0.8-2.2-0.8c-0.6,0-1.2,0.1-1.7,0.4
			c-0.5,0.3-0.8,0.7-1.1,1.2c-0.3,0.5-0.4,1.1-0.4,1.8v8.3h-3.4V98.4z"/>
		<path class="st3" d="M251.2,112.1c-0.7-0.7-1.1-1.7-1.1-3.2V101h-2v-2.6h2v-3.6h3.4v3.6h2.7v2.6h-2.7v7.6c0,0.7,0.2,1.2,0.5,1.4
			c0.3,0.3,0.8,0.4,1.4,0.4c0.2,0,0.3,0,0.5,0c0.1,0,0.3,0,0.4,0v2.5c-0.2,0-0.4,0.1-0.7,0.1c-0.3,0-0.6,0-1,0
			C253.1,113,252,112.7,251.2,112.1z"/>
	</g>
	<g>
		<g>
			<path d="M107.4,433.6c-2-1.2-3.5-2.8-4.5-5c-1.1-2.1-1.6-4.7-1.6-7.7v0c0-3,0.5-5.5,1.6-7.6c1.1-2.1,2.6-3.8,4.5-5
				s4.3-1.7,6.9-1.7c2.1,0,4,0.4,5.7,1.2c1.7,0.8,3.1,2,4.1,3.4c1.1,1.5,1.7,3.1,2,5l0,0.2h-4.9l-0.1-0.4c-0.3-1.1-0.7-2-1.3-2.8
				c-0.6-0.8-1.4-1.4-2.3-1.8c-0.9-0.4-2-0.6-3.2-0.6c-1.6,0-3,0.4-4.2,1.2s-2.1,2-2.8,3.5c-0.7,1.5-1,3.3-1,5.3v0
				c0,2.1,0.3,3.8,1,5.3s1.6,2.7,2.8,3.5s2.6,1.2,4.2,1.2c1.2,0,2.2-0.2,3.2-0.6s1.7-1,2.4-1.8c0.6-0.8,1.1-1.8,1.4-2.9l0.1-0.2h4.9
				l0,0.2c-0.2,1.9-0.9,3.6-1.9,5c-1.1,1.5-2.4,2.6-4.1,3.4c-1.7,0.8-3.6,1.2-5.7,1.2C111.6,435.4,109.3,434.8,107.4,433.6z"/>
			<path d="M131.8,434.5c-1-0.5-1.8-1.2-2.4-2.2c-0.6-0.9-0.9-2-0.9-3.2v0c0-1.2,0.3-2.3,0.9-3.1s1.5-1.6,2.6-2.1
				c1.2-0.5,2.6-0.8,4.2-0.9l7.8-0.5v3.2l-7.1,0.4c-1.2,0.1-2.1,0.4-2.7,0.8c-0.6,0.5-0.9,1.1-0.9,1.9v0c0,0.8,0.3,1.5,1,2
				c0.6,0.5,1.5,0.7,2.5,0.7c0.9,0,1.7-0.2,2.5-0.6c0.7-0.4,1.3-0.9,1.7-1.5c0.4-0.6,0.6-1.4,0.6-2.2v-6.1c0-1-0.3-1.8-1-2.4
				c-0.6-0.6-1.6-0.9-2.8-0.9c-1.1,0-2,0.2-2.7,0.7c-0.7,0.5-1.1,1.1-1.3,1.9l0,0.2h-4.4l0-0.2c0.1-1.2,0.5-2.3,1.2-3.2
				c0.7-1,1.7-1.7,2.9-2.3c1.3-0.6,2.7-0.8,4.5-0.8c1.7,0,3.2,0.3,4.4,0.8c1.3,0.6,2.2,1.4,2.9,2.4c0.7,1,1,2.2,1,3.6v14h-4.8v-3.1
				h-0.1c-0.4,0.7-0.9,1.3-1.5,1.8c-0.6,0.5-1.3,0.9-2.1,1.2c-0.8,0.3-1.6,0.4-2.5,0.4C134,435.3,132.9,435,131.8,434.5z"/>
			<path d="M153.7,434.5c-1.3-0.5-2.3-1.3-3-2.2s-1.1-2.1-1.3-3.3l0-0.2h4.7l0,0.2c0.2,0.9,0.6,1.6,1.3,2.1s1.6,0.7,2.8,0.7
				c0.8,0,1.5-0.1,2-0.3c0.6-0.2,1-0.5,1.3-0.8c0.3-0.4,0.5-0.8,0.5-1.3v0c0-0.6-0.2-1.1-0.6-1.5c-0.4-0.4-1.1-0.7-2.2-0.9l-3.4-0.8
				c-1.3-0.3-2.4-0.7-3.3-1.2c-0.9-0.5-1.5-1.2-2-1.9c-0.4-0.8-0.7-1.7-0.7-2.7v0c0-1.2,0.3-2.3,1-3.3c0.7-0.9,1.6-1.7,2.9-2.2
				c1.2-0.5,2.7-0.8,4.3-0.8c1.7,0,3.1,0.3,4.3,0.8c1.2,0.6,2.1,1.3,2.8,2.3c0.7,0.9,1,2,1.1,3.2l0,0.2h-4.5l0-0.2
				c-0.1-0.8-0.5-1.5-1.1-2c-0.6-0.5-1.5-0.8-2.6-0.8c-0.7,0-1.3,0.1-1.8,0.3c-0.5,0.2-0.9,0.5-1.2,0.9c-0.3,0.4-0.4,0.8-0.4,1.3v0
				c0,0.4,0.1,0.7,0.3,1c0.2,0.3,0.5,0.6,0.9,0.8c0.4,0.2,1,0.4,1.7,0.6l3.4,0.8c2.1,0.5,3.6,1.2,4.5,2s1.3,2.1,1.3,3.5v0
				c0,1.3-0.4,2.4-1.1,3.4s-1.7,1.7-3,2.3c-1.3,0.5-2.8,0.8-4.4,0.8C156.5,435.3,155,435,153.7,434.5z"/>
			<path d="M170,407.1h4.8v10.8h0.1c0.5-1.2,1.3-2.2,2.4-2.8c1.1-0.7,2.4-1,3.9-1c1.5,0,2.8,0.3,3.8,1c1.1,0.7,1.9,1.6,2.5,2.8
				c0.6,1.2,0.9,2.6,0.9,4.3v12.7h-4.8v-11.8c0-1.6-0.4-2.8-1.1-3.7c-0.8-0.9-1.8-1.3-3.2-1.3c-0.9,0-1.7,0.2-2.4,0.6
				c-0.7,0.4-1.2,1-1.6,1.8c-0.4,0.8-0.6,1.6-0.6,2.6v11.8H170V407.1z"/>
			<path d="M200.9,434.8c-0.8-0.3-1.5-0.8-2.1-1.3c-0.6-0.6-1.1-1.3-1.5-2.1h-0.1v3.5h-4.8v-27.8h4.8V418h0.1
				c0.4-0.8,0.9-1.5,1.5-2.1c0.6-0.6,1.4-1,2.2-1.3c0.8-0.3,1.7-0.5,2.7-0.5c1.7,0,3.2,0.4,4.4,1.3s2.2,2.1,2.9,3.7
				c0.7,1.6,1,3.5,1,5.7v0c0,2.2-0.3,4.1-1,5.7c-0.7,1.6-1.7,2.8-2.9,3.7c-1.3,0.9-2.8,1.3-4.5,1.3
				C202.7,435.3,201.8,435.2,200.9,434.8z M204.9,430.5c0.8-0.5,1.3-1.3,1.7-2.3c0.4-1,0.6-2.2,0.6-3.5v0c0-1.4-0.2-2.5-0.6-3.5
				s-1-1.7-1.7-2.3c-0.7-0.5-1.6-0.8-2.7-0.8c-1,0-1.9,0.3-2.6,0.8c-0.8,0.5-1.3,1.3-1.8,2.3c-0.4,1-0.7,2.1-0.7,3.5v0
				c0,1.3,0.2,2.5,0.6,3.5c0.4,1,1,1.8,1.8,2.3c0.8,0.5,1.6,0.8,2.6,0.8C203.2,431.3,204.1,431,204.9,430.5z"/>
			<path d="M217.6,434.5c-1-0.5-1.8-1.2-2.4-2.2c-0.6-0.9-0.9-2-0.9-3.2v0c0-1.2,0.3-2.3,0.9-3.1s1.5-1.6,2.6-2.1
				c1.2-0.5,2.6-0.8,4.2-0.9l7.8-0.5v3.2l-7.1,0.4c-1.2,0.1-2.1,0.4-2.7,0.8c-0.6,0.5-0.9,1.1-0.9,1.9v0c0,0.8,0.3,1.5,1,2
				c0.6,0.5,1.5,0.7,2.5,0.7c0.9,0,1.7-0.2,2.5-0.6c0.7-0.4,1.3-0.9,1.7-1.5c0.4-0.6,0.6-1.4,0.6-2.2v-6.1c0-1-0.3-1.8-1-2.4
				c-0.6-0.6-1.6-0.9-2.8-0.9c-1.1,0-2,0.2-2.7,0.7c-0.7,0.5-1.1,1.1-1.3,1.9l0,0.2h-4.4l0-0.2c0.1-1.2,0.5-2.3,1.2-3.2
				c0.7-1,1.7-1.7,2.9-2.3c1.3-0.6,2.7-0.8,4.5-0.8c1.7,0,3.2,0.3,4.4,0.8c1.3,0.6,2.2,1.4,2.9,2.4c0.7,1,1,2.2,1,3.6v14h-4.8v-3.1
				h-0.1c-0.4,0.7-0.9,1.3-1.5,1.8c-0.6,0.5-1.3,0.9-2.1,1.2c-0.8,0.3-1.6,0.4-2.5,0.4C219.8,435.3,218.6,435,217.6,434.5z"/>
			<path d="M239.9,434c-1.5-0.9-2.6-2.1-3.4-3.7c-0.8-1.6-1.2-3.5-1.2-5.7v0c0-2.2,0.4-4,1.2-5.6s1.9-2.8,3.4-3.7
				c1.5-0.9,3.2-1.3,5.2-1.3c1.8,0,3.3,0.3,4.7,1c1.3,0.7,2.3,1.6,3.1,2.7c0.7,1.1,1.2,2.4,1.3,3.7v0.1h-4.5l0-0.2
				c-0.2-1-0.7-1.8-1.4-2.5c-0.7-0.7-1.7-1-3-1c-1,0-1.9,0.3-2.6,0.8c-0.8,0.5-1.3,1.3-1.7,2.3c-0.4,1-0.6,2.2-0.6,3.6v0
				c0,1.4,0.2,2.6,0.6,3.6s1,1.8,1.8,2.3c0.8,0.5,1.6,0.8,2.6,0.8c1.2,0,2.2-0.3,3-1c0.8-0.7,1.2-1.5,1.5-2.6l0-0.2h4.5l0,0.1
				c-0.1,1.4-0.6,2.7-1.3,3.8c-0.8,1.1-1.8,2-3.1,2.7s-2.8,1-4.5,1C243.1,435.3,241.3,434.9,239.9,434z"/>
			<path d="M257.1,407.1h4.8v27.8h-4.8V407.1z M261.2,423h0.8l7.6-8.5h5.5l-9.5,10.3h-0.9l-3.6,3.7V423z M263.2,425.6l3.1-3.5
				l9.3,12.8H270L263.2,425.6z"/>
		</g>
	</g>
	<g>
		<path class="st82" d="M135.6,196.5c0.2-0.1,0.5-0.2,0.7-0.2v5.7c-2.1-0.7-3-1.8-3-2.7C133.1,198.2,134,197.1,135.6,196.5z"/>
		<path class="st82" d="M143.1,209.4c0.1,1.1-0.8,2.2-2.3,2.8c-0.2,0.1-0.5,0.2-0.7,0.2v-5.8C142.1,207.4,143,208.6,143.1,209.4z"/>
		<path class="st82" d="M138.2,179.6c-13.7,0-24.8,11.1-24.8,24.8c0,13.7,11.1,24.8,24.8,24.8c13.7,0,24.8-11.1,24.8-24.8
			C163,190.7,151.9,179.6,138.2,179.6z M142.2,215.7c-0.7,0.3-1.4,0.5-2.1,0.6v1.6c0,1.1-0.9,1.9-1.9,1.9c-1,0-1.9-0.8-1.9-1.9v-1.6
			c-3.3-0.5-5.6-2.2-5.7-2.3c-0.8-0.6-1-1.8-0.4-2.6c0.6-0.8,1.8-1,2.6-0.4c0,0,1.5,1.1,3.5,1.5v-6.6c-4-1-6.5-3.2-6.8-6.2
			c-0.3-2.8,1.5-5.5,4.7-6.7c0.7-0.3,1.4-0.5,2.1-0.6v-1.6c0-1,0.9-1.9,1.9-1.9c1,0,1.9,0.9,1.9,1.9v1.6c3.3,0.5,5.6,2.2,5.7,2.3
			c0.8,0.6,1,1.8,0.4,2.6c-0.6,0.8-1.8,1-2.6,0.4c0,0-1.4-1-3.5-1.5v6.6c4,1,6.5,3.2,6.8,6.2C147.2,211.9,145.3,214.5,142.2,215.7z"
			/>
	</g>
	<g>
		<g>
			<path class="st3" d="M352,184.7l-5.9,10.2c-1.4,2.3,0.3,5.3,3,5.3H361c2.7,0,4.4-2.9,3-5.3l-5.9-10.2
				C356.8,182.4,353.4,182.4,352,184.7z"/>
			<path class="st3" d="M358.1,219.8l5.9-10.2c1.4-2.3-0.3-5.3-3-5.3h-11.8c-2.7,0-4.4,2.9-3,5.3l5.9,10.2
				C353.4,222.2,356.8,222.2,358.1,219.8z"/>
		</g>
	</g>
	<g>
		<g>
			<path class="st3" d="M352,402.5l-5.9,10.2c-1.4,2.3,0.3,5.3,3,5.3H361c2.7,0,4.4-2.9,3-5.3l-5.9-10.2
				C356.8,400.2,353.4,400.2,352,402.5z"/>
			<path class="st3" d="M358.1,437.6l5.9-10.2c1.4-2.3-0.3-5.3-3-5.3h-11.8c-2.7,0-4.4,2.9-3,5.3l5.9,10.2
				C353.4,440,356.8,440,358.1,437.6z"/>
		</g>
	</g>
</g>
<g id="Layer_2">
</g>
</svg>
