<?xml version="1.0" encoding="utf-8"?>
<!-- Generator: Adobe Illustrator 27.2.0, SVG Export Plug-In . SVG Version: 6.00 Build 0)  -->
<svg version="1.1" id="Layer_1" xmlns="http://www.w3.org/2000/svg" xmlns:xlink="http://www.w3.org/1999/xlink" x="0px" y="0px"
	 viewBox="0 0 576 576" style="enable-background:new 0 0 576 576;" xml:space="preserve">
<style type="text/css">
	.st0{clip-path:url(#SVGID_00000142165900279649814500000012983281828079786174_);}
	.st1{fill:#FFFFFF;}
	.st2{clip-path:url(#SVGID_00000103258577005932343050000012827026236788010135_);}
	.st3{fill:#FFCF48;}
	.st4{enable-background:new    ;}
	.st5{fill:#1A1A1A;}
	.st6{clip-path:url(#SVGID_00000054959524974745516610000006693479990859638698_);}
	.st7{clip-path:url(#SVGID_00000036953203316301543540000008307375255933848709_);fill:#1A1A1A;}
	.st8{clip-path:url(#SVGID_00000057107811074270798400000016818507521091277490_);}
	.st9{fill:#E6E6E6;}
	.st10{fill:#DD9F17;}
	.st11{fill:#A5452F;}
	.st12{fill:#3D2B28;}
	.st13{fill:#E7633F;}
	.st14{fill:#15161E;}
	.st15{fill:#0D0E10;}
	.st16{fill:#04121F;}
	.st17{clip-path:url(#SVGID_00000174577594000417799530000009091951656176475274_);}
	.st18{clip-path:url(#SVGID_00000036957708576912829890000002757041327443005312_);}
	.st19{clip-path:url(#SVGID_00000078748833145997346860000005947241781065173420_);}
	.st20{clip-path:url(#SVGID_00000044891428034214413950000017940466422638808450_);}
	.st21{fill:none;stroke:#0D0E10;stroke-width:2;}
	.st22{clip-path:url(#SVGID_00000168109206726700402720000010156990133625617833_);}
	.st23{fill:#1E1D24;}
	.st24{fill:none;stroke:#000000;stroke-width:2;}
	.st25{fill:none;stroke:#1E1D24;stroke-width:2;}
	.st26{fill:#F6F6F6;}
	.st27{fill:#FFFFFF;filter:url(#Adobe_OpacityMaskFilter);}
	.st28{mask:url(#mask0_5164_28189_00000059993796757043808690000007265301846132682385_);}
	.st29{fill:#FAFAFA;}
	.st30{fill:#D9D9D9;}
	.st31{fill:#EAEAEA;}
	.st32{fill:none;stroke:#EFEFEF;}
	.st33{fill:#6A54F4;}
	.st34{fill:#F4F4F4;}
	.st35{fill:#C6B9FF;}
	.st36{fill:#FFF2CF;}
	.st37{fill:none;stroke:#FFFFFF;}
	.st38{fill:#F8F8F8;}
	.st39{fill:#ECECEC;}
	.st40{fill:#0E0D12;}
	.st41{fill:none;stroke:#0E0D12;stroke-width:0.4;}
	.st42{clip-path:url(#SVGID_00000011031401510931008150000012457587563781433790_);}
	.st43{fill:#40454F;}
	.st44{fill:url(#SVGID_00000047054674004270081910000006306720420004653246_);}
	.st45{clip-path:url(#SVGID_00000100385059742948169670000005612002499521177278_);}
	
		.st46{opacity:0.4;fill:none;stroke:#000000;stroke-width:3;stroke-linecap:round;stroke-linejoin:round;enable-background:new    ;}
	.st47{fill:none;stroke:#000000;stroke-width:3;stroke-linecap:round;stroke-linejoin:round;}
	.st48{clip-path:url(#SVGID_00000018929261823718610260000018180084890790095531_);}
	.st49{fill:#0D0D1E;}
	.st50{fill:#FFFFFF;fill-opacity:0.2;}
	.st51{fill:#979797;}
	.st52{fill:none;stroke:#979797;}
	.st53{fill:none;stroke:#FFCF48;stroke-width:2;}
	.st54{clip-path:url(#SVGID_00000041976271608344892220000012026683016211517065_);}
	.st55{clip-path:url(#SVGID_00000108998640090674615750000001029655536390149783_);}
	.st56{clip-path:url(#SVGID_00000070819139791612612510000002674398010166460070_);}
	.st57{fill:none;stroke:#D4D2E3;}
	.st58{clip-path:url(#SVGID_00000155124800201808662240000003198880377843995311_);}
	.st59{fill:none;stroke:#FFFFFF;stroke-width:1.5;stroke-linecap:round;stroke-linejoin:round;stroke-opacity:0.8;}
	.st60{clip-path:url(#SVGID_00000042696560677582376520000010561759531224903056_);}
	.st61{clip-path:url(#SVGID_00000097466016236015606390000004112173319501495432_);}
	.st62{fill:none;stroke:#FFFFFF;stroke-width:1.5;stroke-miterlimit:10;stroke-opacity:0.8;}
	.st63{fill:#FFFFFF;fill-opacity:0.8;}
	.st64{clip-path:url(#SVGID_00000098216475801451567580000006453837500919527612_);}
	.st65{fill:#D7D7D7;}
	.st66{fill:#838383;}
	.st67{fill:#7361E7;}
	.st68{clip-path:url(#SVGID_00000108304989443518682260000001264311086895991478_);}
	.st69{fill:#282828;}
	
		.st70{fill-rule:evenodd;clip-rule:evenodd;fill:#FFFFFF;filter:url(#Adobe_OpacityMaskFilter_00000162320439105661074370000011771364543458319783_);}
	.st71{mask:url(#mask0_2551_10383_00000109742816935730833610000014940150770638578575_);}
	.st72{fill-rule:evenodd;clip-rule:evenodd;fill:#FFFFFF;}
	.st73{fill:#7BB041;}
	.st74{clip-path:url(#SVGID_00000142176039588288820360000001769731742501193358_);}
	.st75{clip-path:url(#SVGID_00000152257098859598832450000007619316615156974774_);}
	.st76{fill:#E4623E;}
	
		.st77{fill-rule:evenodd;clip-rule:evenodd;fill:#FFFFFF;filter:url(#Adobe_OpacityMaskFilter_00000042730351246465874390000010161789069170723479_);}
	.st78{mask:url(#mask1_2551_10383_00000006701315857725824050000010770634629260012457_);}
	.st79{clip-path:url(#SVGID_00000043429133668957994550000016780206996894057617_);}
	.st80{clip-path:url(#SVGID_00000015345151386708533860000007060530821793805466_);}
	.st81{fill:#424242;}
	.st82{fill:none;stroke:#E9E9E9;}
	.st83{fill:none;stroke:#000000;stroke-width:1.5;}
	.st84{clip-path:url(#SVGID_00000004518893633144272840000016386007702045078927_);}
	.st85{fill:#CE4F2B;}
	.st86{clip-path:url(#SVGID_00000077324296675958939940000001720446644480203403_);}
	.st87{fill:#E7E7E7;}
	.st88{clip-path:url(#SVGID_00000092434524810460972970000004720820904234686597_);}
	.st89{clip-path:url(#SVGID_00000147216592330241411300000012232059725786991752_);}
	.st90{clip-path:url(#SVGID_00000137848486235653372490000001061673567017665924_);}
	.st91{clip-path:url(#SVGID_00000093884381059028614090000000979666452342052763_);}
	.st92{clip-path:url(#SVGID_00000063632258855722613260000016860793796519946882_);}
	.st93{fill:#FFFFFF;stroke:#CBCBCB;stroke-linecap:round;stroke-linejoin:round;stroke-miterlimit:10;}
	.st94{fill:none;}
	.st95{fill:none;stroke:#E4623E;stroke-width:2;stroke-linecap:round;stroke-linejoin:round;stroke-miterlimit:10;}
	.st96{fill:none;stroke:#FFFFFF;stroke-width:2;stroke-linecap:square;stroke-miterlimit:10;}
	.st97{fill:#9AD05D;}
	.st98{fill:#FFCD54;}
	.st99{fill:#CBCBCB;}
	.st100{fill:none;stroke:#0D0D1E;stroke-width:2;stroke-linecap:round;stroke-linejoin:round;stroke-miterlimit:10;}
	.st101{fill:none;stroke:#CBCBCB;stroke-linecap:round;stroke-linejoin:round;stroke-miterlimit:10;}
	.st102{fill:#98D150;}
	.st103{fill:#F46E4E;}
	.st104{fill:none;stroke:#FFFFFF;stroke-width:2;stroke-linecap:round;stroke-linejoin:round;stroke-miterlimit:10;}
	.st105{fill:#CCCCCC;}
	.st106{fill:#F2F2F2;}
	.st107{fill:#96CF50;}
	.st108{fill:none;stroke:#333333;stroke-linecap:round;stroke-linejoin:round;stroke-miterlimit:10;}
	.st109{fill:none;stroke:#000000;stroke-linecap:round;stroke-linejoin:round;stroke-miterlimit:10;}
	.st110{fill:#FFCE48;stroke:#000000;stroke-linecap:round;stroke-linejoin:round;stroke-miterlimit:10;}
	.st111{fill:#F46E4E;stroke:#000000;stroke-linecap:round;stroke-linejoin:round;stroke-miterlimit:10;}
	.st112{fill:#98D150;stroke:#000000;stroke-linecap:round;stroke-linejoin:round;stroke-miterlimit:10;}
	.st113{fill:#AFA2FC;stroke:#000000;stroke-linecap:round;stroke-linejoin:round;stroke-miterlimit:10;}
	.st114{fill:#AFA2FC;}
	.st115{fill:#FFCF48;stroke:#000000;stroke-linecap:round;stroke-linejoin:round;stroke-miterlimit:10;}
	.st116{fill:#FFCF48;stroke:#0D0D1E;stroke-linecap:round;stroke-linejoin:round;stroke-miterlimit:10;}
	.st117{clip-path:url(#SVGID_00000023984281604030796710000002017656538333611657_);}
	
		.st118{fill-rule:evenodd;clip-rule:evenodd;fill:#FFFFFF;filter:url(#Adobe_OpacityMaskFilter_00000031915146026635760610000016109797641296161454_);}
	.st119{mask:url(#mask0_2551_10383_00000054263426197543881940000011811566814788702908_);}
	.st120{clip-path:url(#SVGID_00000106862896332868213860000007146404410008924067_);}
	.st121{clip-path:url(#SVGID_00000088106351510286395440000010701209472079527814_);}
	.st122{fill:none;stroke:#E4623E;stroke-linecap:round;stroke-linejoin:round;stroke-miterlimit:10;}
</style>
<g>
	<path class="st93" d="M490,130.8H86c-10,0-18.1-8.1-18.1-18.1v-32c0-10,8.1-18.1,18.1-18.1h404c10,0,18.1,8.1,18.1,18.1v32
		C508.1,122.6,500,130.8,490,130.8z"/>
	<path class="st93" d="M400.4,241H175.6c-7.6,0-13.7-6.1-13.7-13.7v-40.8c0-7.6,6.1-13.7,13.7-13.7h224.7c7.6,0,13.7,6.1,13.7,13.7
		v40.8C414.1,234.9,407.9,241,400.4,241z"/>
	<path class="st103" d="M226.9,195.2v23.5c0,2.4-1.9,4.3-4.3,4.3h-23.5c-2.4,0-4.3-1.9-4.3-4.3v-23.5c0-2.4,1.9-4.3,4.3-4.3h23.5
		C225,190.9,226.9,192.8,226.9,195.2z"/>
	<path class="st1" d="M201.5,212.8l3.6,3.6c0.2,0.2,0.6,0.2,0.8,0l3.6-3.6c0.2-0.2,0.2-0.4,0.1-0.7c-0.1-0.2-0.3-0.4-0.6-0.4h-1.8
		v-1.7c0-0.6,0.3-1.2,0.8-1.5l2.2-1.5c0.2-0.1,0.4-0.3,0.6-0.5c0.2,0.2,0.4,0.3,0.6,0.5l2.2,1.5c0.5,0.3,0.8,0.9,0.8,1.5v1.7h-1.8
		c-0.2,0-0.5,0.1-0.6,0.4c-0.1,0.2,0,0.5,0.1,0.7l3.6,3.6c0.2,0.2,0.6,0.2,0.8,0l3.6-3.6c0.2-0.2,0.2-0.4,0.1-0.7
		c-0.1-0.2-0.3-0.4-0.6-0.4h-1.8v-1.7c0-1.8-0.9-3.5-2.4-4.5l-2.2-1.5c-0.5-0.3-0.8-0.9-0.8-1.5v-4.7c0-0.3-0.3-0.6-0.6-0.6h-2.4
		c-0.3,0-0.6,0.3-0.6,0.6v4.7c0,0.6-0.3,1.2-0.8,1.5l-2.2,1.5c-1.5,1-2.4,2.7-2.4,4.5v1.7h-1.8c-0.2,0-0.5,0.1-0.6,0.4
		C201.3,212.3,201.3,212.6,201.5,212.8z"/>
	<g>
		<rect x="245.5" y="199.9" class="st94" width="135.5" height="19.5"/>
		<path d="M246.9,199.9h2l8.7,12.5l-2.3-2.1h0.9v-10.4h2.2V214h-2l-8.7-12.5l2.3,2h-0.9V214h-2.2V199.9z"/>
		<path d="M262.5,213.5c-0.7-0.4-1.3-1-1.7-1.8s-0.6-1.7-0.6-2.8v0c0-1.1,0.2-2,0.6-2.8s0.9-1.4,1.7-1.9s1.5-0.7,2.5-0.7
			c1,0,1.8,0.2,2.5,0.6s1.2,1,1.6,1.8s0.6,1.7,0.6,2.7v0.7h-8.3v-1.5h7.3l-1,1.4v-0.8c0-0.7-0.1-1.3-0.3-1.8s-0.5-0.8-0.9-1.1
			s-0.8-0.4-1.3-0.4c-0.5,0-1,0.1-1.3,0.4s-0.7,0.6-0.9,1.1s-0.3,1.1-0.3,1.8v0.8c0,0.7,0.1,1.2,0.3,1.7s0.5,0.8,1,1.1
			s0.9,0.4,1.5,0.4c0.4,0,0.8-0.1,1.1-0.2s0.6-0.3,0.8-0.5s0.4-0.4,0.4-0.7l0-0.1h2l0,0.1c-0.1,0.4-0.2,0.8-0.5,1.2s-0.5,0.7-0.9,1
			s-0.8,0.5-1.3,0.7s-1.1,0.3-1.7,0.3C264.1,214.2,263.3,214,262.5,213.5z"/>
		<path d="M270.5,203.7h2.1l1.9,8.1h0l2.1-8.1h2l2.1,8.1h0l1.9-8.1h2.1L282,214h-2.2l-2.1-7.7h0l-2.1,7.7h-2.2L270.5,203.7z"/>
		<path d="M292,213.5c-0.7-0.4-1.3-1.1-1.7-1.9s-0.6-1.7-0.6-2.8v0c0-1.1,0.2-2,0.6-2.8s1-1.4,1.7-1.8s1.6-0.6,2.6-0.6
			c0.9,0,1.6,0.2,2.3,0.5s1.1,0.8,1.5,1.3s0.6,1.2,0.6,1.8l0,0.1h-2l0-0.1c-0.1-0.5-0.4-0.9-0.8-1.3s-0.9-0.6-1.6-0.6
			c-0.5,0-1,0.1-1.4,0.4s-0.7,0.7-0.9,1.2s-0.3,1.2-0.3,1.9v0c0,0.7,0.1,1.4,0.3,1.9s0.5,0.9,1,1.2s0.9,0.4,1.4,0.4
			c0.7,0,1.2-0.2,1.6-0.5s0.7-0.8,0.8-1.3l0-0.1h2v0.1c-0.1,0.7-0.3,1.3-0.7,1.9s-0.9,1-1.5,1.3s-1.4,0.5-2.2,0.5
			C293.6,214.2,292.7,214,292,213.5z"/>
		<path d="M302.1,213.7c-0.5-0.3-0.9-0.8-1.2-1.3s-0.4-1.3-0.4-2v-6.7h2.1v6.2c0,0.8,0.2,1.4,0.5,1.8s0.9,0.6,1.6,0.6
			c0.4,0,0.7-0.1,1-0.2s0.6-0.3,0.8-0.5s0.4-0.5,0.5-0.8s0.2-0.7,0.2-1.1v-6h2.1V214h-2.1v-1.5h0c-0.2,0.3-0.4,0.6-0.7,0.9
			s-0.6,0.5-1,0.6s-0.9,0.2-1.4,0.2C303.3,214.2,302.6,214,302.1,213.7z"/>
		<path d="M313.1,213.8c-0.6-0.3-1.1-0.6-1.5-1.1s-0.6-1-0.6-1.6l0-0.1h2.1l0,0.1c0.1,0.5,0.3,0.8,0.7,1.1s0.9,0.4,1.5,0.4
			c0.4,0,0.8-0.1,1.1-0.2s0.5-0.3,0.7-0.5s0.2-0.4,0.2-0.7v0c0-0.3-0.1-0.6-0.3-0.8s-0.6-0.4-1.2-0.5l-1.7-0.4
			c-0.7-0.1-1.2-0.4-1.6-0.6s-0.8-0.6-1-1s-0.3-0.8-0.3-1.3v0c0-0.6,0.2-1.2,0.5-1.6s0.8-0.8,1.4-1.1s1.3-0.4,2.1-0.4
			c0.8,0,1.5,0.1,2.1,0.4s1,0.6,1.4,1.1s0.5,1,0.5,1.6v0.1h-2l0-0.1c-0.1-0.4-0.3-0.8-0.6-1.1s-0.8-0.4-1.4-0.4
			c-0.4,0-0.7,0.1-1,0.2s-0.5,0.3-0.6,0.5s-0.2,0.4-0.2,0.7v0c0,0.2,0.1,0.4,0.2,0.6s0.3,0.3,0.5,0.4s0.5,0.2,0.9,0.3l1.7,0.4
			c1,0.2,1.8,0.6,2.2,1s0.7,1,0.7,1.8v0c0,0.6-0.2,1.2-0.5,1.7s-0.9,0.8-1.5,1.1s-1.3,0.4-2.2,0.4
			C314.4,214.2,313.7,214,313.1,213.8z"/>
		<path d="M322.4,213.5c-0.5-0.5-0.7-1.2-0.7-2.2v-5.9h-1.5v-1.7h1.5V201h2.2v2.7h1.9v1.7h-1.9v5.8c0,0.5,0.1,0.9,0.3,1.1
			s0.6,0.3,1,0.3c0.1,0,0.2,0,0.3,0s0.2,0,0.3,0v1.6c-0.1,0-0.3,0-0.5,0.1s-0.4,0-0.6,0C323.7,214.2,322.9,213.9,322.4,213.5z"/>
		<path d="M329.1,213.5c-0.7-0.4-1.3-1-1.7-1.8s-0.6-1.7-0.6-2.8v0c0-1.1,0.2-2,0.6-2.8s1-1.4,1.7-1.8s1.6-0.6,2.6-0.6
			c1,0,1.8,0.2,2.6,0.6s1.3,1,1.7,1.8s0.6,1.7,0.6,2.8v0c0,1.1-0.2,2.1-0.6,2.9s-1,1.4-1.7,1.8s-1.6,0.6-2.6,0.6
			C330.7,214.2,329.9,214,329.1,213.5z M333.1,212c0.4-0.3,0.7-0.7,0.9-1.2s0.3-1.2,0.3-1.9v0c0-0.7-0.1-1.4-0.3-1.9
			s-0.5-0.9-0.9-1.2s-0.9-0.4-1.4-0.4c-0.5,0-1,0.1-1.4,0.4s-0.7,0.7-1,1.2s-0.3,1.2-0.3,1.9v0c0,0.8,0.1,1.4,0.3,1.9s0.5,0.9,1,1.2
			s0.9,0.4,1.4,0.4C332.3,212.4,332.7,212.3,333.1,212z"/>
		<path d="M338.2,203.7h2.1v1.6h0c0.2-0.5,0.6-1,1.1-1.3s1.1-0.5,1.8-0.5c0.5,0,0.9,0.1,1.3,0.2s0.7,0.4,1,0.7s0.5,0.7,0.6,1.1h0
			c0.2-0.4,0.4-0.8,0.7-1.1s0.7-0.5,1.1-0.7s0.9-0.2,1.4-0.2c0.7,0,1.3,0.1,1.8,0.4s0.9,0.7,1.2,1.2s0.4,1.1,0.4,1.8v7.1h-2.1v-6.6
			c0-0.4-0.1-0.8-0.2-1.1s-0.4-0.6-0.7-0.7s-0.6-0.2-1.1-0.2c-0.4,0-0.8,0.1-1.1,0.3s-0.6,0.5-0.7,0.8s-0.3,0.7-0.3,1.2v6.4h-2.1
			v-6.7c0-0.4-0.1-0.7-0.2-1s-0.4-0.5-0.7-0.7s-0.6-0.2-1-0.2c-0.4,0-0.8,0.1-1.1,0.3s-0.6,0.5-0.8,0.8s-0.3,0.7-0.3,1.2v6.3h-2.1
			V203.7z"/>
		<path d="M356.5,213.5c-0.7-0.4-1.3-1-1.7-1.8s-0.6-1.7-0.6-2.8v0c0-1.1,0.2-2,0.6-2.8s0.9-1.4,1.7-1.9s1.5-0.7,2.5-0.7
			c1,0,1.8,0.2,2.5,0.6s1.2,1,1.6,1.8s0.6,1.7,0.6,2.7v0.7h-8.3v-1.5h7.3l-1,1.4v-0.8c0-0.7-0.1-1.3-0.3-1.8s-0.5-0.8-0.9-1.1
			s-0.8-0.4-1.3-0.4c-0.5,0-1,0.1-1.3,0.4s-0.7,0.6-0.9,1.1s-0.3,1.1-0.3,1.8v0.8c0,0.7,0.1,1.2,0.3,1.7s0.5,0.8,1,1.1
			s0.9,0.4,1.5,0.4c0.4,0,0.8-0.1,1.1-0.2s0.6-0.3,0.8-0.5s0.4-0.4,0.4-0.7l0-0.1h2l0,0.1c-0.1,0.4-0.2,0.8-0.5,1.2s-0.5,0.7-0.9,1
			s-0.8,0.5-1.3,0.7s-1.1,0.3-1.7,0.3C358.1,214.2,357.2,214,356.5,213.5z"/>
		<path d="M365.3,203.7h2.1v1.8h0c0.2-0.6,0.5-1.1,0.9-1.4s0.9-0.5,1.5-0.5c0.2,0,0.3,0,0.4,0s0.2,0,0.3,0.1v2
			c-0.1,0-0.2-0.1-0.4-0.1s-0.4,0-0.6,0c-0.4,0-0.8,0.1-1.2,0.3s-0.6,0.5-0.8,0.8s-0.3,0.8-0.3,1.3v6.1h-2.1V203.7z"/>
		<path d="M374.4,208.8c0-0.4,0-0.8,0.2-1.2s0.3-0.7,0.6-1s0.6-0.6,1.1-0.8c0.4-0.2,0.7-0.5,0.9-0.7s0.4-0.5,0.5-0.7
			s0.2-0.5,0.2-0.9v0c0-0.4-0.1-0.7-0.3-1s-0.4-0.5-0.8-0.7s-0.7-0.2-1.1-0.2c-0.4,0-0.8,0.1-1.2,0.3s-0.6,0.4-0.8,0.7
			s-0.3,0.6-0.3,1l0,0.1h-2l0-0.1c0-0.7,0.2-1.3,0.6-1.9s0.8-1,1.5-1.4s1.4-0.5,2.4-0.5c0.9,0,1.6,0.2,2.3,0.5s1.2,0.7,1.5,1.3
			s0.5,1.2,0.5,1.9v0c0,0.5-0.1,1-0.2,1.4s-0.4,0.8-0.7,1.1s-0.7,0.6-1.1,0.9c-0.4,0.2-0.7,0.5-1,0.7s-0.4,0.4-0.5,0.7
			s-0.1,0.5-0.1,0.9v0.5h-2L374.4,208.8z M374.5,213.7c-0.2-0.2-0.4-0.5-0.4-0.9s0.1-0.7,0.4-0.9s0.6-0.4,0.9-0.4s0.7,0.1,0.9,0.4
			s0.4,0.5,0.4,0.9s-0.1,0.7-0.4,0.9s-0.6,0.4-0.9,0.4S374.8,214,374.5,213.7z"/>
	</g>
	<g>
		<line class="st93" x1="288" y1="136.4" x2="288" y2="163.2"/>
		<polygon class="st93" points="288,167.5 292.2,160.2 283.8,160.2 		"/>
	</g>
	<g>
		<path class="st101" d="M288,246.8l0,14.3c0,5.6,4.5,10.1,10.1,10.1h106.1c5.6,0,10.1,4.5,10.1,10.1V302"/>
	</g>
	<g>
		<path class="st101" d="M161.8,302v-20.8c0-5.6,4.5-10.1,10.1-10.1h106c5.6,0,10.1-4.5,10.1-10.1v-14.3"/>
	</g>
	<polygon class="st93" points="161.8,306.3 166,299 157.6,299 	"/>
	<polygon class="st93" points="414.5,306.3 418.7,299 410.3,299 	"/>
	<g>
		<path class="st93" d="M544.8,477.8H342.4c-9,0-16.3-7.3-16.3-16.3V332.7c0-9,7.3-16.3,16.3-16.3h202.3c9,0,16.3,7.3,16.3,16.3
			v128.7C561.1,470.5,553.8,477.8,544.8,477.8z"/>
		<g>
			<g>
				<rect x="357" y="399.1" class="st94" width="173.3" height="41.1"/>
				<path d="M361.3,399.8h2.3l2.6,11.2h0.1l3-11.2h2.1l3,11.2h0.1l2.6-11.2h2.3l-3.9,14.4h-2.1l-3.1-10.8h-0.1l-3.1,10.8h-2.1
					L361.3,399.8z"/>
				<path d="M381,403.3h2.2v1.6h0.2c0.4-1.1,1.4-1.8,2.8-1.8c0.3,0,0.7,0,0.9,0.1v2c-0.4-0.1-0.8-0.1-1.2-0.1c-1.7,0-2.8,1-2.8,2.6
					v6.5H381V403.3z"/>
				<path d="M388.6,400c0-0.7,0.6-1.4,1.4-1.4c0.7,0,1.4,0.6,1.4,1.4c0,0.7-0.6,1.3-1.4,1.3C389.2,401.4,388.6,400.8,388.6,400z
					 M388.9,403.3h2.2v10.9h-2.2V403.3z"/>
				<path d="M394.5,411.3V405h-1.7v-1.7h1.7v-2.7h2.2v2.7h2.3v1.7h-2.3v5.8c0,1.2,0.4,1.6,1.5,1.6c0.3,0,0.5,0,0.8,0v1.7
					c-0.3,0.1-0.7,0.1-1.2,0.1C395.5,414.3,394.5,413.4,394.5,411.3z"/>
				<path d="M400.5,408.8L400.5,408.8c0-3.4,2-5.7,5-5.7s4.9,2.2,4.9,5.4v0.8h-7.7c0,2.1,1.2,3.3,3,3.3c1.4,0,2.2-0.7,2.5-1.2l0-0.1
					l2.1,0l0,0.1c-0.4,1.4-1.9,3-4.6,3C402.4,414.4,400.5,412.2,400.5,408.8z M402.7,407.8h5.5c-0.2-1.9-1.3-2.9-2.7-2.9
					C404,404.9,402.9,405.9,402.7,407.8z"/>
				<path d="M417.1,411.1L417.1,411.1c0-2,1.5-3.1,4-3.2l2.9-0.2v-1c0-1.2-0.8-1.8-2.2-1.8c-1.2,0-2,0.4-2.2,1.2l0,0h-2.1l0-0.1
					c0.3-1.8,2-3,4.4-3c2.7,0,4.3,1.4,4.3,3.6v7.4h-2.1v-1.5h-0.2c-0.6,1.1-1.8,1.7-3.2,1.7C418.6,414.4,417.1,413.1,417.1,411.1z
					 M421.3,412.6c1.6,0,2.8-1.1,2.8-2.5v-0.9l-2.6,0.2c-1.5,0.1-2.2,0.6-2.2,1.6v0C419.3,412,420.1,412.6,421.3,412.6z"/>
				<path d="M434.1,403.3h2.2v1.6h0.2c0.4-1.1,1.4-1.8,2.8-1.8c0.3,0,0.7,0,0.9,0.1v2c-0.4-0.1-0.8-0.1-1.2-0.1
					c-1.7,0-2.8,1-2.8,2.6v6.5h-2.2V403.3z"/>
				<path d="M441,408.8L441,408.8c0-3.4,2-5.7,5-5.7s4.9,2.2,4.9,5.4v0.8h-7.7c0,2.1,1.2,3.3,3,3.3c1.4,0,2.2-0.7,2.5-1.2l0-0.1
					l2.1,0l0,0.1c-0.4,1.4-1.9,3-4.6,3C443,414.4,441,412.2,441,408.8z M443.2,407.8h5.5c-0.2-1.9-1.3-2.9-2.7-2.9
					C444.6,404.9,443.4,405.9,443.2,407.8z"/>
				<path d="M451.9,403.3h2.3l2.7,8.7h0.2l2.7-8.7h2.3l-3.9,10.9h-2.3L451.9,403.3z"/>
				<path d="M463.6,400c0-0.7,0.6-1.4,1.4-1.4c0.7,0,1.4,0.6,1.4,1.4c0,0.7-0.6,1.3-1.4,1.3C464.2,401.4,463.6,400.8,463.6,400z
					 M463.9,403.3h2.2v10.9h-2.2V403.3z"/>
				<path d="M468.2,408.8L468.2,408.8c0-3.4,2-5.7,5-5.7s4.9,2.2,4.9,5.4v0.8h-7.7c0,2.1,1.2,3.3,3,3.3c1.4,0,2.2-0.7,2.5-1.2l0-0.1
					l2.1,0l0,0.1c-0.4,1.4-1.9,3-4.6,3C470.2,414.4,468.2,412.2,468.2,408.8z M470.5,407.8h5.5c-0.2-1.9-1.3-2.9-2.7-2.9
					C471.8,404.9,470.6,405.9,470.5,407.8z"/>
				<path d="M479.3,403.3h2.2l1.9,8.4h0.2l2.2-8.4h2.1l2.2,8.4h0.2l1.9-8.4h2.1l-3,10.9h-2.2l-2.2-8.1h-0.2l-2.2,8.1h-2.2
					L479.3,403.3z"/>
				<path d="M502.2,405h-1.8v-1.7h1.8v-1.1c0-2.2,1.1-3.2,3.4-3.2c0.5,0,0.9,0,1.3,0.1v1.6c-0.2,0-0.5-0.1-0.8-0.1
					c-1.2,0-1.7,0.6-1.7,1.7v1h2.4v1.7h-2.4v9.1h-2.2V405z"/>
				<path d="M507.8,408.8L507.8,408.8c0-3.5,2-5.6,5.1-5.6c3.2,0,5.1,2.1,5.1,5.6v0c0,3.5-1.9,5.6-5.1,5.6
					C509.7,414.4,507.8,412.3,507.8,408.8z M515.8,408.8L515.8,408.8c0-2.4-1.1-3.8-2.9-3.8c-1.9,0-2.9,1.4-2.9,3.8v0
					c0,2.4,1,3.8,2.9,3.8C514.8,412.6,515.8,411.2,515.8,408.8z"/>
				<path d="M520.2,403.3h2.2v1.6h0.2c0.4-1.1,1.4-1.8,2.8-1.8c0.3,0,0.7,0,0.9,0.1v2c-0.4-0.1-0.8-0.1-1.2-0.1
					c-1.7,0-2.8,1-2.8,2.6v6.5h-2.2V403.3z"/>
				<path d="M392.9,434.9l0-0.1h2.7l0,0.1c0.2,1.1,1.2,1.9,2.6,1.9c1.5,0,2.6-1.1,2.6-2.6v0c0-1.5-1.1-2.6-2.6-2.6
					c-0.7,0-1.3,0.2-1.8,0.6c-0.3,0.2-0.5,0.5-0.7,0.8h-2.6l0.7-8.5h9v2.4h-6.7l-0.4,4.1h0.2c0.6-1,1.7-1.6,3.1-1.6
					c2.7,0,4.6,2,4.6,4.7v0c0,3-2.2,5.1-5.5,5.1C395.2,439.1,393.1,437.3,392.9,434.9z"/>
				<path d="M405.8,431.6L405.8,431.6c0-4.7,2.2-7.6,5.7-7.6c3.6,0,5.7,2.9,5.7,7.6v0c0,4.7-2.2,7.6-5.7,7.6
					C407.9,439.1,405.8,436.2,405.8,431.6z M414.2,431.6L414.2,431.6c0-3.3-1-5.2-2.7-5.2c-1.7,0-2.7,1.9-2.7,5.2v0
					c0,3.3,1,5.2,2.7,5.2C413.2,436.7,414.2,434.8,414.2,431.6z"/>
				<path d="M419.4,431.6L419.4,431.6c0-4.7,2.2-7.6,5.7-7.6c3.6,0,5.7,2.9,5.7,7.6v0c0,4.7-2.2,7.6-5.7,7.6
					C421.6,439.1,419.4,436.2,419.4,431.6z M427.8,431.6L427.8,431.6c0-3.3-1-5.2-2.7-5.2c-1.7,0-2.7,1.9-2.7,5.2v0
					c0,3.3,1,5.2,2.7,5.2C426.8,436.7,427.8,434.8,427.8,431.6z"/>
				<path d="M438.1,427.9h2.2v1.7h0.2c0.6-1.2,1.8-1.9,3.3-1.9c2.7,0,4.5,2.2,4.5,5.6v0c0,3.4-1.7,5.6-4.5,5.6
					c-1.5,0-2.8-0.7-3.3-1.9h-0.2v5.3h-2.2V427.9z M446.1,433.3L446.1,433.3c0-2.4-1.1-3.8-2.9-3.8c-1.8,0-2.9,1.4-2.9,3.7v0
					c0,2.3,1.1,3.7,2.9,3.7C445,437.1,446.1,435.7,446.1,433.3z"/>
				<path d="M450,433.3L450,433.3c0-3.5,2-5.6,5.1-5.6c3.2,0,5.1,2.1,5.1,5.6v0c0,3.5-1.9,5.6-5.1,5.6
					C451.9,439,450,436.8,450,433.3z M458,433.3L458,433.3c0-2.4-1.1-3.8-2.9-3.8c-1.9,0-2.9,1.4-2.9,3.8v0c0,2.4,1,3.8,2.9,3.8
					C457,437.2,458,435.7,458,433.3z"/>
				<path d="M462.2,424.6c0-0.7,0.6-1.4,1.4-1.4c0.7,0,1.4,0.6,1.4,1.4c0,0.7-0.6,1.3-1.4,1.3C462.8,426,462.2,425.4,462.2,424.6z
					 M462.4,427.9h2.2v10.9h-2.2V427.9z"/>
				<path d="M467.3,427.9h2.2v1.6h0.2c0.5-1.2,1.6-1.9,3.1-1.9c2.4,0,3.8,1.4,3.8,4v7h-2.2v-6.5c0-1.8-0.8-2.7-2.3-2.7
					s-2.6,1.1-2.6,2.8v6.4h-2.2V427.9z"/>
				<path d="M479.9,435.9v-6.3h-1.7v-1.7h1.7v-2.7h2.2v2.7h2.3v1.7h-2.3v5.8c0,1.2,0.4,1.6,1.5,1.6c0.3,0,0.5,0,0.8,0v1.7
					c-0.3,0.1-0.8,0.1-1.2,0.1C480.9,438.8,479.9,438,479.9,435.9z"/>
				<path d="M485.9,435.9L485.9,435.9l2.2,0l0,0c0.3,0.8,1.1,1.4,2.3,1.4c1.3,0,2.3-0.6,2.3-1.5v0c0-0.7-0.5-1.1-1.8-1.4l-1.7-0.4
					c-2-0.5-3-1.4-3-3v0c0-1.9,1.8-3.2,4.2-3.2c2.5,0,4.1,1.2,4.3,3v0h-2.1v0c-0.2-0.8-1-1.3-2.2-1.3c-1.2,0-2,0.6-2,1.5v0
					c0,0.7,0.5,1.1,1.7,1.4l1.7,0.4c2.1,0.5,3.1,1.4,3.1,2.9v0c0,2-1.9,3.4-4.5,3.4C487.8,439,486.1,437.7,485.9,435.9z"/>
			</g>
			<g>
				<g>
					<polygon class="st116" points="442.9,354 446.4,364.9 457.8,364.9 448.6,371.6 452.1,382.5 442.9,375.7 433.6,382.5 
						437.2,371.6 427.9,364.9 439.4,364.9 					"/>
					<polygon class="st116" points="416.2,359.3 419.1,368.1 428.4,368.1 420.8,373.6 423.7,382.5 416.2,377 408.6,382.5 
						411.5,373.6 404,368.1 413.3,368.1 					"/>
					<polygon class="st116" points="396.1,366.2 398.2,372.4 404.7,372.4 399.4,376.2 401.4,382.5 396.1,378.6 390.8,382.5 
						392.9,376.2 387.6,372.4 394.1,372.4 					"/>
					<polygon class="st116" points="469.6,359.3 466.7,368.1 457.4,368.1 464.9,373.6 462.1,382.5 469.6,377 477.1,382.5 
						474.2,373.6 481.8,368.1 472.5,368.1 					"/>
					<polygon class="st116" points="489.6,366.2 487.6,372.4 481.1,372.4 486.4,376.2 484.3,382.5 489.6,378.6 494.9,382.5 
						492.9,376.2 498.2,372.4 491.7,372.4 					"/>
				</g>
			</g>
		</g>
	</g>
	<path class="st102" d="M243.1,281.1h-36.5c-2.7,0-4.9-2.2-4.9-4.9v-10.7c0-2.7,2.2-4.9,4.9-4.9h36.5c2.7,0,4.9,2.2,4.9,4.9v10.7
		C248,278.9,245.8,281.1,243.1,281.1z"/>
	<g>
		<rect x="208.9" y="264.9" class="st94" width="32.2" height="14.8"/>
		<path class="st1" d="M215.8,272.1l-3.7-6.6h2.4l2.3,4.4h0.1l2.3-4.4h2.4l-3.7,6.6v3.9h-2.2V272.1z"/>
		<path class="st1" d="M221.5,272.1L221.5,272.1c0-2.6,1.5-4.2,3.9-4.2s3.8,1.6,3.8,4.1v0.7h-5.6c0,1.3,0.7,2.1,1.9,2.1
			c0.9,0,1.5-0.5,1.6-0.8l0,0h2l0,0.1c-0.2,1-1.3,2.4-3.6,2.4C223,276.3,221.5,274.6,221.5,272.1z M223.6,271.2h3.5
			c-0.1-1.2-0.8-1.8-1.7-1.8C224.5,269.4,223.8,270.1,223.6,271.2z"/>
		<path class="st1" d="M230.5,273.9L230.5,273.9l2.1,0l0,0c0.2,0.5,0.7,0.9,1.5,0.9c0.8,0,1.4-0.4,1.4-0.9v0c0-0.4-0.3-0.7-1.1-0.9
			l-1.3-0.3c-1.5-0.3-2.3-1.1-2.3-2.3v0c0-1.5,1.3-2.5,3.4-2.5c2.1,0,3.3,1.1,3.4,2.4v0h-2l0,0c-0.1-0.4-0.6-0.8-1.4-0.8
			c-0.7,0-1.3,0.3-1.3,0.9v0c0,0.4,0.3,0.7,1.1,0.9l1.3,0.3c1.6,0.3,2.4,1,2.4,2.2v0c0,1.6-1.5,2.6-3.5,2.6
			C231.9,276.3,230.7,275.3,230.5,273.9z"/>
	</g>
	<path class="st103" d="M369.4,281.1h-36.5c-2.7,0-4.9-2.2-4.9-4.9v-10.7c0-2.7,2.2-4.9,4.9-4.9h36.5c2.7,0,4.9,2.2,4.9,4.9v10.7
		C374.2,278.9,372.1,281.1,369.4,281.1z"/>
	<g>
		<rect x="334.7" y="264.9" class="st94" width="32.2" height="14.8"/>
		<path class="st1" d="M341.7,265.5h1.8l4.9,6.7h0.1v-6.7h2.1v10.6h-1.8l-4.9-6.8h-0.1v6.8h-2.1V265.5z"/>
		<path class="st1" d="M352.6,272.1L352.6,272.1c0-2.6,1.5-4.2,4-4.2s4,1.6,4,4.2v0c0,2.6-1.5,4.2-4,4.2
			C354.1,276.3,352.6,274.7,352.6,272.1z M358.4,272.1L358.4,272.1c0-1.6-0.7-2.5-1.8-2.5c-1.1,0-1.8,0.9-1.8,2.5v0
			c0,1.6,0.6,2.5,1.8,2.5C357.7,274.6,358.4,273.6,358.4,272.1z"/>
	</g>
	<g>
		<rect x="181.8" y="89.6" class="st94" width="267.7" height="19"/>
		<path d="M186.9,103c-1-0.6-1.7-1.4-2.3-2.5c-0.5-1.1-0.8-2.4-0.8-3.9v0c0-1.5,0.3-2.8,0.8-3.9c0.5-1.1,1.3-1.9,2.3-2.5
			s2.1-0.9,3.5-0.9c1,0,2,0.2,2.8,0.6c0.8,0.4,1.5,0.9,2.1,1.7c0.5,0.7,0.9,1.5,1,2.5l0,0.1h-2.2L194,94c-0.2-0.6-0.4-1-0.7-1.4
			c-0.3-0.4-0.7-0.7-1.2-0.9c-0.5-0.2-1.1-0.3-1.7-0.3c-0.9,0-1.6,0.2-2.3,0.7c-0.6,0.4-1.1,1.1-1.5,1.8s-0.5,1.7-0.5,2.8v0
			c0,1.1,0.2,2,0.5,2.8s0.8,1.4,1.5,1.9s1.4,0.7,2.3,0.7c0.6,0,1.2-0.1,1.7-0.3c0.5-0.2,0.9-0.5,1.3-0.9c0.3-0.4,0.6-0.9,0.8-1.5
			l0-0.1h2.2l0,0.1c-0.1,0.9-0.5,1.8-1,2.5s-1.2,1.3-2.1,1.6c-0.8,0.4-1.8,0.6-2.8,0.6C189.1,103.9,187.9,103.6,186.9,103z"/>
		<path d="M199.6,103.4c-0.5-0.3-0.9-0.8-1.2-1.3c-0.3-0.6-0.4-1.3-0.4-2v-6.7h2.1v6.2c0,0.8,0.2,1.4,0.5,1.8s0.9,0.6,1.6,0.6
			c0.4,0,0.7-0.1,1-0.2c0.3-0.1,0.6-0.3,0.8-0.5s0.4-0.5,0.5-0.8c0.1-0.3,0.2-0.7,0.2-1.1v-6h2.1v10.3h-2.1v-1.5h0
			c-0.2,0.3-0.4,0.6-0.7,0.9s-0.6,0.5-1.1,0.6c-0.4,0.1-0.9,0.2-1.4,0.2C200.8,103.9,200.1,103.7,199.6,103.4z"/>
		<path d="M210.6,103.5c-0.6-0.3-1.1-0.6-1.4-1.1s-0.6-1-0.6-1.6l0-0.1h2.1l0,0.1c0.1,0.5,0.3,0.8,0.7,1.1c0.4,0.3,0.9,0.4,1.5,0.4
			c0.4,0,0.8-0.1,1.1-0.2c0.3-0.1,0.5-0.3,0.7-0.5c0.2-0.2,0.2-0.4,0.2-0.7v0c0-0.3-0.1-0.6-0.3-0.8s-0.6-0.4-1.2-0.5l-1.7-0.4
			c-0.7-0.1-1.2-0.4-1.6-0.6c-0.4-0.3-0.8-0.6-1-1s-0.3-0.8-0.3-1.3v0c0-0.6,0.2-1.2,0.5-1.6s0.8-0.8,1.4-1.1
			c0.6-0.3,1.3-0.4,2.1-0.4c0.8,0,1.5,0.1,2.1,0.4s1,0.6,1.4,1.1c0.3,0.5,0.5,1,0.5,1.6v0.1h-2l0-0.1c-0.1-0.4-0.3-0.8-0.6-1.1
			c-0.3-0.3-0.8-0.4-1.4-0.4c-0.4,0-0.7,0.1-1,0.2c-0.3,0.1-0.5,0.3-0.6,0.5c-0.2,0.2-0.2,0.4-0.2,0.7v0c0,0.2,0.1,0.4,0.2,0.6
			c0.1,0.2,0.3,0.3,0.5,0.4c0.2,0.1,0.5,0.2,0.9,0.3l1.7,0.4c1,0.2,1.8,0.6,2.2,1s0.7,1,0.7,1.8v0c0,0.6-0.2,1.2-0.5,1.7
			c-0.4,0.5-0.9,0.8-1.5,1.1c-0.6,0.3-1.3,0.4-2.2,0.4C211.9,103.9,211.2,103.8,210.6,103.5z"/>
		<path d="M219.9,103.2c-0.5-0.5-0.7-1.2-0.7-2.2v-5.9h-1.5v-1.7h1.5v-2.7h2.2v2.7h1.9v1.7h-1.9v5.8c0,0.5,0.1,0.9,0.3,1.1
			c0.2,0.2,0.6,0.3,1,0.3c0.1,0,0.2,0,0.3,0c0.1,0,0.2,0,0.3,0v1.6c-0.1,0-0.3,0-0.5,0.1c-0.2,0-0.4,0-0.6,0
			C221.2,103.9,220.4,103.7,219.9,103.2z"/>
		<path d="M226.6,103.2c-0.7-0.4-1.3-1-1.7-1.8c-0.4-0.8-0.6-1.7-0.6-2.8v0c0-1.1,0.2-2,0.6-2.8c0.4-0.8,1-1.4,1.7-1.8
			s1.6-0.6,2.6-0.6c1,0,1.8,0.2,2.6,0.6s1.3,1,1.7,1.8c0.4,0.8,0.6,1.7,0.6,2.8v0c0,1.1-0.2,2.1-0.6,2.9c-0.4,0.8-1,1.4-1.7,1.8
			c-0.7,0.4-1.6,0.6-2.6,0.6C228.2,103.9,227.4,103.7,226.6,103.2z M230.6,101.7c0.4-0.3,0.7-0.7,0.9-1.2c0.2-0.5,0.3-1.2,0.3-1.9v0
			c0-0.7-0.1-1.4-0.3-1.9c-0.2-0.5-0.5-0.9-0.9-1.2s-0.9-0.4-1.4-0.4c-0.5,0-1,0.1-1.4,0.4c-0.4,0.3-0.7,0.7-1,1.2
			c-0.2,0.5-0.3,1.2-0.3,1.9v0c0,0.8,0.1,1.4,0.3,1.9s0.5,0.9,1,1.2s0.9,0.4,1.4,0.4C229.8,102.1,230.2,102,230.6,101.7z"/>
		<path d="M235.7,93.4h2.1V95h0c0.2-0.5,0.6-1,1.1-1.3c0.5-0.3,1.1-0.5,1.8-0.5c0.5,0,0.9,0.1,1.3,0.2s0.7,0.4,1,0.7
			s0.5,0.7,0.6,1.1h0c0.2-0.4,0.4-0.8,0.7-1.1c0.3-0.3,0.7-0.5,1.1-0.7s0.9-0.2,1.4-0.2c0.7,0,1.3,0.1,1.8,0.4
			c0.5,0.3,0.9,0.7,1.2,1.2c0.3,0.5,0.4,1.1,0.4,1.8v7.1H248v-6.6c0-0.4-0.1-0.8-0.2-1.1c-0.2-0.3-0.4-0.6-0.7-0.7
			c-0.3-0.2-0.6-0.2-1.1-0.2c-0.4,0-0.8,0.1-1.1,0.3c-0.3,0.2-0.6,0.5-0.7,0.8c-0.2,0.3-0.3,0.7-0.3,1.2v6.4h-2.1V97
			c0-0.4-0.1-0.7-0.2-1c-0.2-0.3-0.4-0.5-0.7-0.7c-0.3-0.2-0.6-0.2-1-0.2c-0.4,0-0.8,0.1-1.1,0.3s-0.6,0.5-0.8,0.8
			c-0.2,0.3-0.3,0.7-0.3,1.2v6.3h-2.1V93.4z"/>
		<path d="M254,103.2c-0.7-0.4-1.3-1-1.7-1.8c-0.4-0.8-0.6-1.7-0.6-2.8v0c0-1.1,0.2-2,0.6-2.8s0.9-1.4,1.7-1.9
			c0.7-0.4,1.5-0.7,2.5-0.7c1,0,1.8,0.2,2.5,0.6s1.2,1,1.6,1.8c0.4,0.8,0.6,1.7,0.6,2.7v0.7h-8.3v-1.5h7.3l-1,1.4v-0.8
			c0-0.7-0.1-1.3-0.3-1.8c-0.2-0.5-0.5-0.8-0.9-1.1c-0.4-0.2-0.8-0.4-1.3-0.4c-0.5,0-1,0.1-1.3,0.4c-0.4,0.2-0.7,0.6-0.9,1.1
			c-0.2,0.5-0.3,1.1-0.3,1.8V99c0,0.7,0.1,1.2,0.3,1.7s0.5,0.8,1,1.1c0.4,0.3,0.9,0.4,1.5,0.4c0.4,0,0.8-0.1,1.1-0.2
			c0.3-0.1,0.6-0.3,0.8-0.5c0.2-0.2,0.4-0.4,0.4-0.7l0-0.1h2l0,0.1c-0.1,0.4-0.2,0.8-0.5,1.2s-0.5,0.7-0.9,1
			c-0.4,0.3-0.8,0.5-1.3,0.7s-1.1,0.3-1.7,0.3C255.6,103.9,254.7,103.7,254,103.2z"/>
		<path d="M262.8,93.4h2.1v1.8h0c0.2-0.6,0.5-1.1,0.9-1.4c0.4-0.3,0.9-0.5,1.5-0.5c0.2,0,0.3,0,0.4,0s0.2,0,0.3,0.1v2
			c-0.1,0-0.2-0.1-0.4-0.1c-0.2,0-0.4,0-0.6,0c-0.4,0-0.8,0.1-1.2,0.3s-0.6,0.5-0.8,0.8s-0.3,0.8-0.3,1.3v6.1h-2.1V93.4z"/>
		<path d="M273.4,93.4h2.1v1.8h0c0.2-0.4,0.5-0.8,0.8-1c0.3-0.3,0.7-0.5,1.1-0.7s0.9-0.2,1.3-0.2c0.9,0,1.6,0.2,2.3,0.6
			s1.1,1,1.5,1.8s0.5,1.7,0.5,2.8v0c0,1.1-0.2,2-0.5,2.8c-0.4,0.8-0.9,1.4-1.5,1.8c-0.6,0.4-1.4,0.7-2.2,0.7c-0.5,0-0.9-0.1-1.4-0.2
			s-0.8-0.4-1.1-0.7c-0.3-0.3-0.6-0.6-0.8-1h0v5.1h-2.1V93.4z M279.6,101.6c0.4-0.3,0.7-0.7,0.9-1.2s0.3-1.1,0.3-1.9v0
			c0-0.7-0.1-1.4-0.3-1.9s-0.5-0.9-0.9-1.2c-0.4-0.3-0.9-0.4-1.4-0.4c-0.5,0-1,0.1-1.4,0.4s-0.7,0.7-1,1.2c-0.2,0.5-0.3,1.1-0.3,1.9
			v0c0,0.7,0.1,1.3,0.4,1.9s0.6,0.9,1,1.2c0.4,0.3,0.9,0.4,1.4,0.4C278.8,102.1,279.2,101.9,279.6,101.6z"/>
		<path d="M286.3,103.4c-0.5-0.3-0.9-0.8-1.2-1.3c-0.3-0.6-0.4-1.3-0.4-2v-6.7h2.1v6.2c0,0.8,0.2,1.4,0.5,1.8s0.9,0.6,1.6,0.6
			c0.4,0,0.7-0.1,1-0.2c0.3-0.1,0.6-0.3,0.8-0.5s0.4-0.5,0.5-0.8c0.1-0.3,0.2-0.7,0.2-1.1v-6h2.1v10.3h-2.1v-1.5h0
			c-0.2,0.3-0.4,0.6-0.7,0.9s-0.6,0.5-1.1,0.6c-0.4,0.1-0.9,0.2-1.4,0.2C287.4,103.9,286.8,103.7,286.3,103.4z"/>
		<path d="M295.6,93.4h2.1v1.8h0c0.2-0.6,0.5-1.1,0.9-1.4c0.4-0.3,0.9-0.5,1.5-0.5c0.2,0,0.3,0,0.4,0s0.2,0,0.3,0.1v2
			c-0.1,0-0.2-0.1-0.4-0.1c-0.2,0-0.4,0-0.6,0c-0.4,0-0.8,0.1-1.2,0.3s-0.6,0.5-0.8,0.8s-0.3,0.8-0.3,1.3v6.1h-2.1V93.4z"/>
		<path d="M303.5,103.2c-0.7-0.4-1.3-1.1-1.7-1.9c-0.4-0.8-0.6-1.7-0.6-2.8v0c0-1.1,0.2-2,0.6-2.8s1-1.4,1.7-1.8
			c0.7-0.4,1.6-0.6,2.6-0.6c0.9,0,1.6,0.2,2.3,0.5c0.6,0.3,1.1,0.8,1.5,1.3c0.4,0.6,0.6,1.2,0.6,1.8l0,0.1h-2l0-0.1
			c-0.1-0.5-0.4-0.9-0.8-1.3c-0.4-0.4-0.9-0.6-1.6-0.6c-0.5,0-1,0.1-1.4,0.4c-0.4,0.3-0.7,0.7-0.9,1.2s-0.3,1.2-0.3,1.9v0
			c0,0.7,0.1,1.4,0.3,1.9c0.2,0.5,0.5,0.9,1,1.2c0.4,0.3,0.9,0.4,1.4,0.4c0.7,0,1.2-0.2,1.6-0.5s0.7-0.8,0.8-1.3l0-0.1h2v0.1
			c-0.1,0.7-0.3,1.3-0.7,1.9c-0.4,0.6-0.9,1-1.5,1.3s-1.4,0.5-2.2,0.5C305.1,103.9,304.3,103.7,303.5,103.2z"/>
		<path d="M312.1,89.6h2.1v5.5h0c0.3-0.6,0.7-1.1,1.2-1.4c0.5-0.3,1.2-0.5,2-0.5c0.7,0,1.4,0.2,1.9,0.5c0.5,0.3,1,0.8,1.3,1.4
			s0.5,1.3,0.5,2.2v6.3H319v-5.9c0-0.9-0.2-1.5-0.6-2s-1-0.7-1.7-0.7c-0.5,0-0.9,0.1-1.3,0.3s-0.6,0.5-0.8,0.9
			c-0.2,0.4-0.3,0.9-0.3,1.4v5.9h-2.1V89.6z"/>
		<path d="M324.4,103.5c-0.5-0.3-0.9-0.6-1.2-1.1c-0.3-0.5-0.4-1-0.4-1.6v0c0-0.6,0.1-1.1,0.4-1.5c0.3-0.4,0.7-0.8,1.3-1
			c0.6-0.3,1.3-0.4,2.1-0.4l3.9-0.2V99l-3.6,0.2c-0.6,0-1.1,0.2-1.5,0.5s-0.5,0.6-0.5,1v0c0,0.4,0.2,0.8,0.5,1.1s0.8,0.4,1.4,0.4
			c0.5,0,0.9-0.1,1.3-0.3c0.4-0.2,0.7-0.5,0.9-0.8c0.2-0.4,0.3-0.8,0.3-1.2v-3.1c0-0.6-0.2-1-0.5-1.3S328,95,327.3,95
			c-0.6,0-1.1,0.1-1.5,0.4c-0.4,0.3-0.6,0.6-0.7,1l0,0.1h-2l0-0.1c0.1-0.6,0.2-1.1,0.6-1.6c0.3-0.5,0.8-0.8,1.4-1.1
			c0.6-0.3,1.3-0.4,2.2-0.4s1.6,0.1,2.2,0.4c0.6,0.3,1.1,0.7,1.4,1.2c0.3,0.5,0.5,1.1,0.5,1.8v7.1h-2.1v-1.6h0
			c-0.2,0.4-0.5,0.7-0.8,1c-0.3,0.3-0.7,0.5-1.1,0.6s-0.8,0.2-1.3,0.2C325.5,103.9,324.9,103.7,324.4,103.5z"/>
		<path d="M335.2,103.5c-0.6-0.3-1.1-0.6-1.4-1.1s-0.6-1-0.6-1.6l0-0.1h2.1l0,0.1c0.1,0.5,0.3,0.8,0.7,1.1c0.4,0.3,0.9,0.4,1.5,0.4
			c0.4,0,0.8-0.1,1.1-0.2c0.3-0.1,0.5-0.3,0.7-0.5c0.2-0.2,0.2-0.4,0.2-0.7v0c0-0.3-0.1-0.6-0.3-0.8s-0.6-0.4-1.2-0.5l-1.7-0.4
			c-0.7-0.1-1.2-0.4-1.6-0.6c-0.4-0.3-0.8-0.6-1-1s-0.3-0.8-0.3-1.3v0c0-0.6,0.2-1.2,0.5-1.6s0.8-0.8,1.4-1.1
			c0.6-0.3,1.3-0.4,2.1-0.4c0.8,0,1.5,0.1,2.1,0.4s1,0.6,1.4,1.1c0.3,0.5,0.5,1,0.5,1.6v0.1h-2l0-0.1c-0.1-0.4-0.3-0.8-0.6-1.1
			c-0.3-0.3-0.8-0.4-1.4-0.4c-0.4,0-0.7,0.1-1,0.2c-0.3,0.1-0.5,0.3-0.6,0.5c-0.2,0.2-0.2,0.4-0.2,0.7v0c0,0.2,0.1,0.4,0.2,0.6
			c0.1,0.2,0.3,0.3,0.5,0.4c0.2,0.1,0.5,0.2,0.9,0.3l1.7,0.4c1,0.2,1.8,0.6,2.2,1s0.7,1,0.7,1.8v0c0,0.6-0.2,1.2-0.5,1.7
			c-0.4,0.5-0.9,0.8-1.5,1.1c-0.6,0.3-1.3,0.4-2.2,0.4C336.6,103.9,335.8,103.8,335.2,103.5z"/>
		<path d="M345,103.2c-0.7-0.4-1.3-1-1.7-1.8c-0.4-0.8-0.6-1.7-0.6-2.8v0c0-1.1,0.2-2,0.6-2.8s0.9-1.4,1.7-1.9
			c0.7-0.4,1.5-0.7,2.5-0.7c1,0,1.8,0.2,2.5,0.6s1.2,1,1.6,1.8c0.4,0.8,0.6,1.7,0.6,2.7v0.7h-8.3v-1.5h7.3l-1,1.4v-0.8
			c0-0.7-0.1-1.3-0.3-1.8c-0.2-0.5-0.5-0.8-0.9-1.1c-0.4-0.2-0.8-0.4-1.3-0.4c-0.5,0-1,0.1-1.3,0.4c-0.4,0.2-0.7,0.6-0.9,1.1
			c-0.2,0.5-0.3,1.1-0.3,1.8V99c0,0.7,0.1,1.2,0.3,1.7s0.5,0.8,1,1.1c0.4,0.3,0.9,0.4,1.5,0.4c0.4,0,0.8-0.1,1.1-0.2
			c0.3-0.1,0.6-0.3,0.8-0.5c0.2-0.2,0.4-0.4,0.4-0.7l0-0.1h2l0,0.1c-0.1,0.4-0.2,0.8-0.5,1.2s-0.5,0.7-0.9,1
			c-0.4,0.3-0.8,0.5-1.3,0.7s-1.1,0.3-1.7,0.3C346.6,103.9,345.7,103.7,345,103.2z"/>
		<path d="M355.4,103.5c-0.6-0.3-1.1-0.6-1.4-1.1s-0.6-1-0.6-1.6l0-0.1h2.1l0,0.1c0.1,0.5,0.3,0.8,0.7,1.1c0.4,0.3,0.9,0.4,1.5,0.4
			c0.4,0,0.8-0.1,1.1-0.2c0.3-0.1,0.5-0.3,0.7-0.5c0.2-0.2,0.2-0.4,0.2-0.7v0c0-0.3-0.1-0.6-0.3-0.8s-0.6-0.4-1.2-0.5l-1.7-0.4
			c-0.7-0.1-1.2-0.4-1.6-0.6c-0.4-0.3-0.8-0.6-1-1s-0.3-0.8-0.3-1.3v0c0-0.6,0.2-1.2,0.5-1.6s0.8-0.8,1.4-1.1
			c0.6-0.3,1.3-0.4,2.1-0.4c0.8,0,1.5,0.1,2.1,0.4s1,0.6,1.4,1.1c0.3,0.5,0.5,1,0.5,1.6v0.1h-2l0-0.1c-0.1-0.4-0.3-0.8-0.6-1.1
			c-0.3-0.3-0.8-0.4-1.4-0.4c-0.4,0-0.7,0.1-1,0.2c-0.3,0.1-0.5,0.3-0.6,0.5c-0.2,0.2-0.2,0.4-0.2,0.7v0c0,0.2,0.1,0.4,0.2,0.6
			c0.1,0.2,0.3,0.3,0.5,0.4c0.2,0.1,0.5,0.2,0.9,0.3l1.7,0.4c1,0.2,1.8,0.6,2.2,1s0.7,1,0.7,1.8v0c0,0.6-0.2,1.2-0.5,1.7
			c-0.4,0.5-0.9,0.8-1.5,1.1c-0.6,0.3-1.3,0.4-2.2,0.4C356.8,103.9,356,103.8,355.4,103.5z"/>
		<path d="M368.7,103.5c-0.5-0.3-0.9-0.6-1.2-1.1c-0.3-0.5-0.4-1-0.4-1.6v0c0-0.6,0.1-1.1,0.4-1.5c0.3-0.4,0.7-0.8,1.3-1
			c0.6-0.3,1.3-0.4,2.1-0.4l3.9-0.2V99l-3.6,0.2c-0.6,0-1.1,0.2-1.5,0.5s-0.5,0.6-0.5,1v0c0,0.4,0.2,0.8,0.5,1.1s0.8,0.4,1.4,0.4
			c0.5,0,0.9-0.1,1.3-0.3c0.4-0.2,0.7-0.5,0.9-0.8c0.2-0.4,0.3-0.8,0.3-1.2v-3.1c0-0.6-0.2-1-0.5-1.3s-0.9-0.5-1.5-0.5
			c-0.6,0-1.1,0.1-1.5,0.4c-0.4,0.3-0.6,0.6-0.7,1l0,0.1h-2l0-0.1c0.1-0.6,0.2-1.1,0.6-1.6c0.3-0.5,0.8-0.8,1.4-1.1
			c0.6-0.3,1.3-0.4,2.2-0.4s1.6,0.1,2.2,0.4c0.6,0.3,1.1,0.7,1.4,1.2c0.3,0.5,0.5,1.1,0.5,1.8v7.1h-2.1v-1.6h0
			c-0.2,0.4-0.5,0.7-0.8,1c-0.3,0.3-0.7,0.5-1.1,0.6s-0.8,0.2-1.3,0.2C369.8,103.9,369.2,103.7,368.7,103.5z"/>
		<path d="M381.9,93.4h2.1v1.8h0c0.2-0.4,0.5-0.8,0.8-1c0.3-0.3,0.7-0.5,1.1-0.7s0.9-0.2,1.3-0.2c0.9,0,1.6,0.2,2.3,0.6
			s1.1,1,1.5,1.8s0.5,1.7,0.5,2.8v0c0,1.1-0.2,2-0.5,2.8c-0.4,0.8-0.9,1.4-1.5,1.8c-0.6,0.4-1.4,0.7-2.2,0.7c-0.5,0-0.9-0.1-1.4-0.2
			s-0.8-0.4-1.1-0.7c-0.3-0.3-0.6-0.6-0.8-1h0v5.1h-2.1V93.4z M388.2,101.6c0.4-0.3,0.7-0.7,0.9-1.2s0.3-1.1,0.3-1.9v0
			c0-0.7-0.1-1.4-0.3-1.9s-0.5-0.9-0.9-1.2c-0.4-0.3-0.9-0.4-1.4-0.4c-0.5,0-1,0.1-1.4,0.4s-0.7,0.7-1,1.2c-0.2,0.5-0.3,1.1-0.3,1.9
			v0c0,0.7,0.1,1.3,0.4,1.9s0.6,0.9,1,1.2c0.4,0.3,0.9,0.4,1.4,0.4C387.3,102.1,387.8,101.9,388.2,101.6z"/>
		<path d="M393.2,93.4h2.1v1.8h0c0.2-0.6,0.5-1.1,0.9-1.4c0.4-0.3,0.9-0.5,1.5-0.5c0.2,0,0.3,0,0.4,0s0.2,0,0.3,0.1v2
			c-0.1,0-0.2-0.1-0.4-0.1c-0.2,0-0.4,0-0.6,0c-0.4,0-0.8,0.1-1.2,0.3s-0.6,0.5-0.8,0.8s-0.3,0.8-0.3,1.3v6.1h-2.1V93.4z"/>
		<path d="M401.2,103.2c-0.7-0.4-1.3-1-1.7-1.8c-0.4-0.8-0.6-1.7-0.6-2.8v0c0-1.1,0.2-2,0.6-2.8c0.4-0.8,1-1.4,1.7-1.8
			s1.6-0.6,2.6-0.6c1,0,1.8,0.2,2.6,0.6s1.3,1,1.7,1.8c0.4,0.8,0.6,1.7,0.6,2.8v0c0,1.1-0.2,2.1-0.6,2.9c-0.4,0.8-1,1.4-1.7,1.8
			c-0.7,0.4-1.6,0.6-2.6,0.6C402.8,103.9,401.9,103.7,401.2,103.2z M405.2,101.7c0.4-0.3,0.7-0.7,0.9-1.2c0.2-0.5,0.3-1.2,0.3-1.9v0
			c0-0.7-0.1-1.4-0.3-1.9c-0.2-0.5-0.5-0.9-0.9-1.2s-0.9-0.4-1.4-0.4c-0.5,0-1,0.1-1.4,0.4c-0.4,0.3-0.7,0.7-1,1.2
			c-0.2,0.5-0.3,1.2-0.3,1.9v0c0,0.8,0.1,1.4,0.3,1.9s0.5,0.9,1,1.2s0.9,0.4,1.4,0.4C404.3,102.1,404.8,102,405.2,101.7z"/>
		<path d="M411.8,103.2c-0.6-0.4-1.1-1.1-1.5-1.9s-0.5-1.7-0.5-2.8v0c0-1.1,0.2-2,0.5-2.8c0.4-0.8,0.9-1.4,1.5-1.8
			c0.6-0.4,1.4-0.6,2.3-0.6c0.5,0,0.9,0.1,1.3,0.2c0.4,0.2,0.8,0.4,1.1,0.7s0.6,0.6,0.8,1h0v-5.6h2.1v14.1h-2.1v-1.7h0
			c-0.2,0.4-0.5,0.7-0.8,1c-0.3,0.3-0.7,0.5-1.1,0.7s-0.9,0.2-1.4,0.2C413.2,103.9,412.5,103.7,411.8,103.2z M416.1,101.6
			c0.4-0.3,0.7-0.7,1-1.2c0.2-0.5,0.3-1.1,0.3-1.9v0c0-0.7-0.1-1.3-0.4-1.9s-0.6-0.9-1-1.2c-0.4-0.3-0.9-0.4-1.4-0.4
			c-0.6,0-1,0.1-1.4,0.4c-0.4,0.3-0.7,0.7-0.9,1.2c-0.2,0.5-0.3,1.1-0.3,1.9v0c0,0.7,0.1,1.3,0.3,1.9c0.2,0.5,0.5,0.9,0.9,1.2
			c0.4,0.3,0.9,0.4,1.4,0.4C415.2,102.1,415.7,101.9,416.1,101.6z"/>
		<path d="M423.2,103.4c-0.5-0.3-0.9-0.8-1.2-1.3c-0.3-0.6-0.4-1.3-0.4-2v-6.7h2.1v6.2c0,0.8,0.2,1.4,0.5,1.8s0.9,0.6,1.6,0.6
			c0.4,0,0.7-0.1,1-0.2c0.3-0.1,0.6-0.3,0.8-0.5s0.4-0.5,0.5-0.8c0.1-0.3,0.2-0.7,0.2-1.1v-6h2.1v10.3h-2.1v-1.5h0
			c-0.2,0.3-0.4,0.6-0.7,0.9s-0.6,0.5-1.1,0.6c-0.4,0.1-0.9,0.2-1.4,0.2C424.4,103.9,423.8,103.7,423.2,103.4z"/>
		<path d="M434.4,103.2c-0.7-0.4-1.3-1.1-1.7-1.9c-0.4-0.8-0.6-1.7-0.6-2.8v0c0-1.1,0.2-2,0.6-2.8s1-1.4,1.7-1.8
			c0.7-0.4,1.6-0.6,2.6-0.6c0.9,0,1.6,0.2,2.3,0.5c0.6,0.3,1.1,0.8,1.5,1.3c0.4,0.6,0.6,1.2,0.6,1.8l0,0.1h-2l0-0.1
			c-0.1-0.5-0.4-0.9-0.8-1.3c-0.4-0.4-0.9-0.6-1.6-0.6c-0.5,0-1,0.1-1.4,0.4c-0.4,0.3-0.7,0.7-0.9,1.2s-0.3,1.2-0.3,1.9v0
			c0,0.7,0.1,1.4,0.3,1.9c0.2,0.5,0.5,0.9,1,1.2c0.4,0.3,0.9,0.4,1.4,0.4c0.7,0,1.2-0.2,1.6-0.5s0.7-0.8,0.8-1.3l0-0.1h2v0.1
			c-0.1,0.7-0.3,1.3-0.7,1.9c-0.4,0.6-0.9,1-1.5,1.3s-1.4,0.5-2.2,0.5C436,103.9,435.1,103.7,434.4,103.2z"/>
		<path d="M444.2,103.2c-0.5-0.5-0.7-1.2-0.7-2.2v-5.9H442v-1.7h1.5v-2.7h2.2v2.7h1.9v1.7h-1.9v5.8c0,0.5,0.1,0.9,0.3,1.1
			c0.2,0.2,0.6,0.3,1,0.3c0.1,0,0.2,0,0.3,0c0.1,0,0.2,0,0.3,0v1.6c-0.1,0-0.3,0-0.5,0.1c-0.2,0-0.4,0-0.6,0
			C445.5,103.9,444.7,103.7,444.2,103.2z"/>
	</g>
	<g>
		<g>
			<path class="st67" d="M134.6,75.3h29.7c3,0,5.4,2.4,5.4,5.4v29.7c0,3-2.4,5.4-5.4,5.4h-29.7c-3,0-5.4-2.4-5.4-5.4V80.7
				C129.2,77.7,131.7,75.3,134.6,75.3z"/>
		</g>
		<g>
			<path class="st1" d="M162,89c-0.1,0.6-0.3,1.3-0.4,1.9c-0.5,2.4-1,4.8-1.5,7.1c-0.2,0.9-0.9,1.4-1.8,1.4c-5,0-10,0-15,0
				c-0.1,0-0.2,0-0.3,0c0.1,0.5,0.1,0.9,0.2,1.4c0,0.1,0.2,0.2,0.2,0.2c0,0,0.1,0,0.2,0c5.1,0,10.1,0,15.2,0c0.1,0,0.2,0,0.3,0
				c0.4,0.1,0.6,0.4,0.6,0.8c0,0.4-0.4,0.7-0.8,0.7c-0.5,0-1,0-1.4,0c-0.1,0-0.2,0-0.3,0c0.3,1.1,0,2.1-1,2.7
				c-0.8,0.5-1.7,0.5-2.5,0c-0.9-0.5-1.2-1.3-1-2.8c-1.4,0-2.7,0-4.1,0c0.3,0.9,0.1,1.8-0.6,2.5c-0.5,0.5-1.1,0.7-1.7,0.6
				c-1.1,0-2.6-1.2-2.1-3.1c-0.3,0-0.5,0-0.8,0c-0.9,0-1.6-0.6-1.7-1.5c-0.3-2.1-0.6-4.2-0.9-6.3c-0.3-2.2-0.6-4.3-0.9-6.5
				c-0.1-0.8-0.2-1.5-0.3-2.3c0-0.2-0.1-0.3-0.4-0.3c-0.4,0-0.9,0-1.3,0c-0.5,0-0.8-0.3-0.8-0.8c0-0.4,0.3-0.8,0.8-0.8
				c0.5,0,1,0,1.5,0c0.9,0,1.6,0.6,1.7,1.5c0.1,0.4,0.1,0.8,0.2,1.3c0.1,0,0.2,0,0.3,0c6.1,0,12.2,0,18.4,0c1.3,0,1.7,0.3,2.2,1.5
				C162,88.7,162,88.9,162,89z"/>
		</g>
	</g>
	<g>
		<path class="st93" d="M288.9,540.6h-254c-11.9,0-21.6-9.7-21.6-21.6V338c0-11.9,9.7-21.6,21.6-21.6h254c11.9,0,21.6,9.7,21.6,21.6
			V519C310.5,530.9,300.8,540.6,288.9,540.6z"/>
		<path class="st106" d="M172.3,360H93.1c-2.5,0-4.5-2-4.5-4.5v-14.1c0-2.5,2-4.5,4.5-4.5h79.1c2.5,0,4.5,2,4.5,4.5v14.1
			C176.8,358,174.8,360,172.3,360z"/>
		<g>
			<rect x="98.9" y="343.6" class="st94" width="87.8" height="14.6"/>
			<path d="M99.8,343.6h1.5v8.4h4.5v1.3h-6.1V343.6z"/>
			<path d="M108.1,353.1c-0.5-0.3-0.9-0.7-1.2-1.3c-0.3-0.6-0.4-1.2-0.4-1.9v0c0-0.7,0.1-1.4,0.4-1.9c0.3-0.6,0.7-1,1.1-1.3
				c0.5-0.3,1.1-0.5,1.7-0.5c0.7,0,1.2,0.1,1.7,0.4s0.9,0.7,1.1,1.2s0.4,1.2,0.4,1.9v0.5h-5.8v-1h5.1l-0.7,1v-0.6
				c0-0.5-0.1-0.9-0.2-1.2c-0.2-0.3-0.4-0.6-0.6-0.7s-0.6-0.2-0.9-0.2c-0.3,0-0.7,0.1-0.9,0.3c-0.3,0.2-0.5,0.4-0.6,0.8
				c-0.2,0.3-0.2,0.7-0.2,1.2v0.6c0,0.5,0.1,0.9,0.2,1.2c0.2,0.3,0.4,0.6,0.7,0.7c0.3,0.2,0.6,0.3,1,0.3c0.3,0,0.5,0,0.8-0.1
				c0.2-0.1,0.4-0.2,0.6-0.4c0.1-0.1,0.2-0.3,0.3-0.5l0-0.1h1.4l0,0.1c-0.1,0.3-0.2,0.5-0.3,0.8s-0.4,0.5-0.6,0.7s-0.6,0.4-0.9,0.5
				c-0.4,0.1-0.7,0.2-1.2,0.2C109.2,353.5,108.6,353.4,108.1,353.1z"/>
			<path d="M114.3,344.9c-0.2-0.2-0.2-0.4-0.2-0.6c0-0.2,0.1-0.4,0.2-0.6c0.2-0.2,0.4-0.2,0.6-0.2c0.2,0,0.4,0.1,0.6,0.2
				s0.2,0.4,0.2,0.6c0,0.2-0.1,0.4-0.2,0.6c-0.2,0.2-0.4,0.2-0.6,0.2C114.7,345.2,114.5,345.1,114.3,344.9z M114.2,346.3h1.5v7.1
				h-1.5V346.3z"/>
			<path d="M118,353.2c-0.4-0.2-0.6-0.4-0.8-0.8s-0.3-0.7-0.3-1.1v0c0-0.4,0.1-0.8,0.3-1.1c0.2-0.3,0.5-0.5,0.9-0.7
				c0.4-0.2,0.9-0.3,1.4-0.3l2.7-0.2v1l-2.5,0.2c-0.4,0-0.8,0.1-1,0.3c-0.2,0.2-0.4,0.4-0.4,0.7v0c0,0.3,0.1,0.6,0.4,0.7
				s0.6,0.3,0.9,0.3c0.3,0,0.6-0.1,0.9-0.2c0.3-0.1,0.5-0.3,0.6-0.6c0.2-0.2,0.2-0.5,0.2-0.8v-2.1c0-0.4-0.1-0.7-0.4-0.9
				c-0.2-0.2-0.6-0.3-1-0.3c-0.4,0-0.8,0.1-1,0.3c-0.3,0.2-0.4,0.4-0.5,0.7l0,0.1h-1.4l0-0.1c0-0.4,0.2-0.8,0.4-1.1
				c0.2-0.3,0.6-0.6,1-0.8c0.4-0.2,0.9-0.3,1.5-0.3c0.6,0,1.1,0.1,1.5,0.3c0.4,0.2,0.8,0.5,1,0.8c0.2,0.4,0.4,0.8,0.4,1.2v4.9h-1.5
				v-1.1h0c-0.1,0.3-0.3,0.5-0.5,0.7c-0.2,0.2-0.5,0.3-0.7,0.4c-0.3,0.1-0.6,0.2-0.9,0.2C118.8,353.5,118.3,353.4,118,353.2z"/>
			<path d="M129.1,352.9c-0.7-0.4-1.2-1-1.6-1.7c-0.4-0.8-0.6-1.6-0.6-2.7v0c0-1,0.2-1.9,0.6-2.7c0.4-0.8,0.9-1.3,1.6-1.7
				c0.7-0.4,1.5-0.6,2.4-0.6c0.9,0,1.7,0.2,2.4,0.6s1.2,1,1.6,1.7s0.6,1.6,0.6,2.7v0c0,1-0.2,1.9-0.6,2.7s-0.9,1.3-1.6,1.7
				c-0.7,0.4-1.5,0.6-2.4,0.6C130.6,353.6,129.8,353.3,129.1,352.9z M133.1,351.8c0.5-0.3,0.8-0.7,1-1.3c0.2-0.6,0.4-1.2,0.4-2v0
				c0-0.8-0.1-1.4-0.4-2c-0.2-0.6-0.6-1-1-1.3s-1-0.4-1.6-0.4c-0.6,0-1.2,0.1-1.6,0.4c-0.5,0.3-0.8,0.7-1.1,1.3
				c-0.2,0.6-0.4,1.2-0.4,2v0c0,0.8,0.1,1.4,0.4,2c0.2,0.6,0.6,1,1,1.3c0.5,0.3,1,0.4,1.6,0.4C132.1,352.2,132.7,352.1,133.1,351.8z
				"/>
			<path d="M137.3,346.3h1.5v1.2h0c0.1-0.4,0.3-0.7,0.6-1c0.3-0.2,0.6-0.4,1-0.4c0.1,0,0.2,0,0.3,0s0.2,0,0.2,0v1.4
				c-0.1,0-0.1,0-0.3-0.1c-0.1,0-0.2,0-0.4,0c-0.3,0-0.6,0.1-0.8,0.2s-0.4,0.3-0.5,0.6c-0.1,0.2-0.2,0.6-0.2,0.9v4.2h-1.5V346.3z"/>
			<path d="M143.1,355.6c-0.5-0.2-0.8-0.4-1.1-0.7c-0.3-0.3-0.4-0.6-0.5-1l0-0.1h1.5l0,0.1c0.1,0.2,0.3,0.4,0.6,0.6
				c0.3,0.1,0.7,0.2,1.1,0.2c0.6,0,1-0.1,1.3-0.4s0.5-0.7,0.5-1.2v-1h0c-0.1,0.3-0.3,0.5-0.5,0.7c-0.2,0.2-0.5,0.3-0.8,0.4
				s-0.6,0.2-0.9,0.2c-0.6,0-1.1-0.1-1.6-0.4c-0.4-0.3-0.8-0.7-1-1.3s-0.4-1.2-0.4-1.9v0c0-0.7,0.1-1.4,0.4-1.9c0.2-0.5,0.6-1,1-1.3
				s1-0.4,1.6-0.4c0.3,0,0.6,0.1,0.9,0.2c0.3,0.1,0.5,0.3,0.7,0.5c0.2,0.2,0.4,0.4,0.5,0.7h0v-1.2h1.5v6.9c0,0.5-0.1,1-0.4,1.4
				c-0.3,0.4-0.6,0.7-1.1,0.9s-1.1,0.3-1.7,0.3C144.1,355.9,143.6,355.8,143.1,355.6z M145.6,351.9c0.3-0.2,0.5-0.5,0.6-0.8
				c0.2-0.4,0.2-0.8,0.2-1.3v0c0-0.5-0.1-0.9-0.2-1.3s-0.4-0.6-0.7-0.8c-0.3-0.2-0.6-0.3-1-0.3c-0.4,0-0.7,0.1-1,0.3
				c-0.3,0.2-0.5,0.5-0.7,0.8c-0.2,0.4-0.2,0.8-0.2,1.3v0c0,0.5,0.1,0.9,0.2,1.3c0.2,0.4,0.4,0.6,0.7,0.8s0.6,0.3,1,0.3
				C145,352.2,145.3,352.1,145.6,351.9z"/>
			<path d="M150.2,353.2c-0.4-0.2-0.6-0.4-0.8-0.8s-0.3-0.7-0.3-1.1v0c0-0.4,0.1-0.8,0.3-1.1c0.2-0.3,0.5-0.5,0.9-0.7
				c0.4-0.2,0.9-0.3,1.4-0.3l2.7-0.2v1l-2.5,0.2c-0.4,0-0.8,0.1-1,0.3c-0.2,0.2-0.4,0.4-0.4,0.7v0c0,0.3,0.1,0.6,0.4,0.7
				s0.6,0.3,0.9,0.3c0.3,0,0.6-0.1,0.9-0.2c0.3-0.1,0.5-0.3,0.6-0.6c0.2-0.2,0.2-0.5,0.2-0.8v-2.1c0-0.4-0.1-0.7-0.4-0.9
				c-0.2-0.2-0.6-0.3-1-0.3c-0.4,0-0.8,0.1-1,0.3c-0.3,0.2-0.4,0.4-0.5,0.7l0,0.1h-1.4l0-0.1c0-0.4,0.2-0.8,0.4-1.1
				c0.2-0.3,0.6-0.6,1-0.8c0.4-0.2,0.9-0.3,1.5-0.3c0.6,0,1.1,0.1,1.5,0.3c0.4,0.2,0.8,0.5,1,0.8c0.2,0.4,0.4,0.8,0.4,1.2v4.9h-1.5
				v-1.1h0c-0.1,0.3-0.3,0.5-0.5,0.7c-0.2,0.2-0.5,0.3-0.7,0.4c-0.3,0.1-0.6,0.2-0.9,0.2C151,353.5,150.6,353.4,150.2,353.2z"/>
			<path d="M156.6,346.3h1.5v1.1h0c0.2-0.4,0.5-0.7,0.8-0.9c0.4-0.2,0.8-0.3,1.4-0.3c0.8,0,1.4,0.2,1.8,0.7c0.4,0.5,0.6,1.1,0.6,1.9
				v4.6h-1.5v-4.3c0-0.5-0.1-0.9-0.4-1.2s-0.6-0.4-1.1-0.4c-0.3,0-0.6,0.1-0.9,0.2c-0.3,0.2-0.5,0.4-0.6,0.6c-0.1,0.3-0.2,0.6-0.2,1
				v4.1h-1.5V346.3z"/>
			<path d="M165,353.2c-0.4-0.2-0.6-0.4-0.8-0.8s-0.3-0.7-0.3-1.1v0c0-0.4,0.1-0.8,0.3-1.1c0.2-0.3,0.5-0.5,0.9-0.7
				c0.4-0.2,0.9-0.3,1.4-0.3l2.7-0.2v1l-2.5,0.2c-0.4,0-0.8,0.1-1,0.3c-0.2,0.2-0.4,0.4-0.4,0.7v0c0,0.3,0.1,0.6,0.4,0.7
				s0.6,0.3,0.9,0.3c0.3,0,0.6-0.1,0.9-0.2c0.3-0.1,0.5-0.3,0.6-0.6c0.2-0.2,0.2-0.5,0.2-0.8v-2.1c0-0.4-0.1-0.7-0.4-0.9
				c-0.2-0.2-0.6-0.3-1-0.3c-0.4,0-0.8,0.1-1,0.3c-0.3,0.2-0.4,0.4-0.5,0.7l0,0.1h-1.4l0-0.1c0-0.4,0.2-0.8,0.4-1.1
				c0.2-0.3,0.6-0.6,1-0.8c0.4-0.2,0.9-0.3,1.5-0.3c0.6,0,1.1,0.1,1.5,0.3c0.4,0.2,0.8,0.5,1,0.8c0.2,0.4,0.4,0.8,0.4,1.2v4.9h-1.5
				v-1.1h0c-0.1,0.3-0.3,0.5-0.5,0.7c-0.2,0.2-0.5,0.3-0.7,0.4c-0.3,0.1-0.6,0.2-0.9,0.2C165.7,353.5,165.3,353.4,165,353.2z"/>
		</g>
		<path class="st105" d="M77.9,359.7h-33c-2.8,0-5.1-2.3-5.1-5.1v-12.9c0-2.8,2.3-5.1,5.1-5.1h33c2.8,0,5.1,2.3,5.1,5.1v12.9
			C83,357.4,80.7,359.7,77.9,359.7z"/>
		<path class="st105" d="M107.6,388.7H46.5c-3.7,0-6.7-3-6.7-6.7v-9.7c0-3.7,3-6.7,6.7-6.7h61.1c3.7,0,6.7,3,6.7,6.7v9.7
			C114.3,385.7,111.3,388.7,107.6,388.7z"/>
		<g>
			<rect x="52.6" y="343.2" class="st94" width="20.8" height="14.6"/>
			<path d="M55.7,344.8h-2.8v-1.7h7.7v1.7h-2.8v8.1h-2V344.8z"/>
			<path d="M61.4,352.6c-0.5-0.3-1-0.7-1.2-1.3s-0.4-1.2-0.4-2v0c0-0.8,0.2-1.4,0.4-2c0.3-0.6,0.7-1,1.3-1.3s1.2-0.5,1.9-0.5
				c0.7,0,1.4,0.1,1.9,0.4s1,0.7,1.3,1.3c0.3,0.6,0.4,1.2,0.4,2v0c0,0.8-0.1,1.5-0.4,2c-0.3,0.6-0.7,1-1.2,1.3
				c-0.5,0.3-1.2,0.4-1.9,0.4C62.5,353,61.9,352.9,61.4,352.6z M64.1,351.2c0.2-0.2,0.4-0.4,0.5-0.8s0.2-0.7,0.2-1.2v0
				c0-0.5-0.1-0.9-0.2-1.2c-0.1-0.3-0.3-0.6-0.6-0.8s-0.5-0.3-0.8-0.3c-0.3,0-0.6,0.1-0.8,0.3c-0.2,0.2-0.4,0.4-0.6,0.8
				s-0.2,0.7-0.2,1.2v0c0,0.5,0.1,0.9,0.2,1.2c0.1,0.3,0.3,0.6,0.6,0.8s0.5,0.3,0.8,0.3C63.6,351.5,63.9,351.4,64.1,351.2z"/>
		</g>
		<g>
			<rect x="52.4" y="372.5" class="st94" width="49.4" height="14.6"/>
			<path d="M54.8,382.1c-0.6-0.2-1-0.6-1.4-1c-0.3-0.4-0.5-0.9-0.6-1.5l0-0.1h1.9l0,0.1c0,0.3,0.2,0.5,0.3,0.7
				c0.2,0.2,0.4,0.3,0.7,0.4c0.3,0.1,0.6,0.2,1,0.2c0.4,0,0.7-0.1,1-0.2c0.3-0.1,0.5-0.2,0.6-0.4c0.1-0.2,0.2-0.4,0.2-0.7v0
				c0-0.3-0.1-0.6-0.4-0.8c-0.3-0.2-0.7-0.3-1.3-0.5l-1-0.2c-1-0.2-1.7-0.5-2.2-1c-0.5-0.5-0.7-1.1-0.7-1.8v0c0-0.6,0.2-1.1,0.5-1.6
				s0.8-0.8,1.3-1c0.6-0.2,1.2-0.4,1.9-0.4c0.8,0,1.4,0.1,1.9,0.4s1,0.6,1.3,1c0.3,0.4,0.5,0.9,0.5,1.5l0,0.1h-1.9l0-0.1
				c0-0.3-0.1-0.5-0.3-0.7c-0.2-0.2-0.4-0.3-0.6-0.4c-0.3-0.1-0.6-0.1-0.9-0.1c-0.3,0-0.6,0-0.9,0.1s-0.4,0.2-0.6,0.4
				c-0.1,0.2-0.2,0.4-0.2,0.6v0c0,0.3,0.1,0.6,0.4,0.7c0.3,0.2,0.7,0.3,1.2,0.4l1,0.2c0.7,0.1,1.2,0.3,1.7,0.6
				c0.4,0.2,0.8,0.5,1,0.9c0.2,0.4,0.3,0.8,0.3,1.3v0c0,0.6-0.2,1.2-0.5,1.6s-0.8,0.8-1.4,1.1s-1.3,0.4-2.1,0.4
				C56,382.4,55.4,382.3,54.8,382.1z"/>
			<path d="M62.9,382.1c-0.4-0.2-0.7-0.5-0.9-0.9s-0.3-0.9-0.3-1.5V375h2v4.3c0,0.5,0.1,0.8,0.3,1.1s0.6,0.4,1,0.4
				c0.2,0,0.4,0,0.6-0.1s0.3-0.2,0.5-0.3s0.2-0.3,0.3-0.5c0.1-0.2,0.1-0.4,0.1-0.6V375h2v7.2h-2V381h0c-0.1,0.3-0.3,0.5-0.5,0.7
				c-0.2,0.2-0.5,0.4-0.7,0.5c-0.3,0.1-0.6,0.2-1,0.2C63.8,382.4,63.3,382.3,62.9,382.1z"/>
			<path d="M73.1,382.2c-0.3-0.1-0.5-0.3-0.8-0.5c-0.2-0.2-0.4-0.5-0.5-0.7h0v1.2h-2v-9.7h2v3.8h0c0.1-0.3,0.3-0.5,0.5-0.8
				c0.2-0.2,0.5-0.4,0.8-0.5c0.3-0.1,0.6-0.2,0.9-0.2c0.6,0,1.1,0.1,1.6,0.4c0.4,0.3,0.8,0.7,1,1.3c0.2,0.6,0.4,1.2,0.4,2v0
				c0,0.8-0.1,1.5-0.4,2c-0.2,0.6-0.6,1-1,1.3c-0.4,0.3-1,0.5-1.6,0.5C73.7,382.4,73.4,382.3,73.1,382.2z M74.3,380.5
				c0.2-0.2,0.4-0.4,0.6-0.7c0.1-0.3,0.2-0.7,0.2-1.1v0c0-0.4-0.1-0.8-0.2-1.1c-0.1-0.3-0.3-0.6-0.6-0.7c-0.2-0.2-0.5-0.3-0.8-0.3
				c-0.3,0-0.6,0.1-0.8,0.3c-0.2,0.2-0.4,0.4-0.6,0.7c-0.1,0.3-0.2,0.7-0.2,1.1v0c0,0.4,0.1,0.8,0.2,1.1c0.1,0.3,0.3,0.6,0.6,0.7
				c0.2,0.2,0.5,0.3,0.8,0.3C73.8,380.8,74,380.7,74.3,380.5z"/>
			<path d="M77.2,384.6c-0.1,0-0.2,0-0.2,0v-1.5c0,0,0.1,0,0.1,0c0,0,0.1,0,0.1,0c0.3,0,0.6-0.1,0.7-0.2s0.2-0.3,0.2-0.6V375h2v7.4
				c0,0.7-0.2,1.3-0.7,1.7c-0.4,0.4-1.1,0.6-1.9,0.6C77.4,384.6,77.3,384.6,77.2,384.6z M78.3,373.8c-0.2-0.2-0.3-0.4-0.3-0.7
				c0-0.3,0.1-0.5,0.3-0.7s0.5-0.3,0.8-0.3c0.3,0,0.5,0.1,0.8,0.3s0.3,0.4,0.3,0.7c0,0.3-0.1,0.5-0.3,0.7s-0.5,0.3-0.8,0.3
				C78.8,374.1,78.5,374,78.3,373.8z"/>
			<path d="M82.8,381.9c-0.5-0.3-0.9-0.7-1.2-1.3s-0.4-1.2-0.4-2v0c0-0.8,0.1-1.4,0.4-2s0.7-1,1.2-1.3c0.5-0.3,1.1-0.5,1.8-0.5
				s1.3,0.1,1.8,0.4s0.9,0.7,1.2,1.3c0.3,0.5,0.4,1.2,0.4,1.9v0.6h-6v-1.2h5l-0.9,1.2v-0.8c0-0.4-0.1-0.8-0.2-1.1
				c-0.1-0.3-0.3-0.5-0.5-0.6s-0.5-0.2-0.8-0.2c-0.3,0-0.6,0.1-0.8,0.2c-0.2,0.1-0.4,0.4-0.6,0.7c-0.1,0.3-0.2,0.6-0.2,1.1v0.8
				c0,0.4,0.1,0.7,0.2,1s0.3,0.5,0.6,0.7c0.2,0.2,0.5,0.2,0.9,0.2c0.3,0,0.5,0,0.7-0.1s0.4-0.2,0.5-0.3c0.1-0.1,0.2-0.3,0.3-0.4l0,0
				H88l0,0.1c-0.1,0.3-0.2,0.5-0.3,0.8c-0.2,0.3-0.4,0.5-0.6,0.7c-0.3,0.2-0.6,0.4-1,0.5c-0.4,0.1-0.8,0.2-1.4,0.2
				C83.9,382.4,83.3,382.2,82.8,381.9z"/>
			<path d="M90.4,381.9c-0.5-0.3-0.9-0.7-1.2-1.3c-0.3-0.6-0.4-1.2-0.4-2v0c0-0.8,0.1-1.4,0.4-2s0.7-1,1.2-1.3
				c0.5-0.3,1.2-0.5,1.9-0.5c0.7,0,1.2,0.1,1.7,0.4c0.5,0.2,0.9,0.6,1.1,1s0.4,0.9,0.4,1.4v0h-1.8l0-0.1c-0.1-0.3-0.2-0.6-0.4-0.9
				c-0.2-0.2-0.6-0.4-1-0.4c-0.3,0-0.6,0.1-0.8,0.3s-0.4,0.4-0.5,0.8c-0.1,0.3-0.2,0.7-0.2,1.2v0c0,0.5,0.1,0.9,0.2,1.2
				c0.1,0.3,0.3,0.6,0.5,0.8s0.5,0.3,0.8,0.3c0.4,0,0.7-0.1,1-0.3c0.2-0.2,0.4-0.5,0.5-0.9l0-0.1h1.8v0c0,0.5-0.2,1-0.5,1.4
				c-0.3,0.4-0.7,0.8-1.1,1c-0.5,0.2-1,0.4-1.7,0.4C91.6,382.4,91,382.2,90.4,381.9z"/>
			<path d="M97.7,381.9c-0.4-0.3-0.6-0.9-0.6-1.7v-3.7h-1V375h1v-1.8h2v1.8h1.3v1.5h-1.3v3.5c0,0.3,0.1,0.6,0.2,0.7
				c0.2,0.1,0.4,0.2,0.7,0.2c0.1,0,0.2,0,0.2,0c0.1,0,0.1,0,0.2,0v1.4c-0.1,0-0.2,0-0.4,0.1c-0.2,0-0.3,0-0.6,0
				C98.7,382.4,98.1,382.2,97.7,381.9z"/>
		</g>
		<g>
			<rect x="47.2" y="401.7" class="st94" width="147.2" height="12.5"/>
		</g>
		<g>
			<g>
				<path d="M104.1,506.7L104.1,506.7l-2.5,1.7v-1.8l2.5-1.7h2v9.7h-2V506.7z"/>
				<path d="M110.1,514.2c-0.6-0.4-1.1-1-1.4-1.7c-0.3-0.8-0.5-1.6-0.5-2.7v0c0-1,0.2-1.9,0.5-2.7s0.8-1.3,1.4-1.7
					c0.6-0.4,1.3-0.6,2.1-0.6c0.8,0,1.5,0.2,2.1,0.6c0.6,0.4,1,1,1.4,1.7s0.5,1.6,0.5,2.7v0c0,1-0.2,1.9-0.5,2.7
					c-0.3,0.8-0.8,1.3-1.4,1.7c-0.6,0.4-1.3,0.6-2.1,0.6C111.4,514.8,110.7,514.6,110.1,514.2z M113.2,512.7
					c0.3-0.3,0.5-0.7,0.6-1.2c0.1-0.5,0.2-1.1,0.2-1.8v0c0-0.7-0.1-1.3-0.2-1.8c-0.1-0.5-0.4-0.9-0.6-1.2c-0.3-0.3-0.6-0.4-1-0.4
					c-0.4,0-0.8,0.1-1,0.4s-0.5,0.7-0.7,1.2c-0.1,0.5-0.2,1.1-0.2,1.8v0c0,0.7,0.1,1.3,0.2,1.8c0.1,0.5,0.4,0.9,0.7,1.2
					c0.3,0.3,0.6,0.4,1,0.4C112.6,513.1,113,513,113.2,512.7z"/>
				<path d="M119.1,514.2c-0.6-0.4-1.1-1-1.4-1.7c-0.3-0.8-0.5-1.6-0.5-2.7v0c0-1,0.2-1.9,0.5-2.7s0.8-1.3,1.4-1.7
					c0.6-0.4,1.3-0.6,2.1-0.6c0.8,0,1.5,0.2,2.1,0.6c0.6,0.4,1,1,1.4,1.7s0.5,1.6,0.5,2.7v0c0,1-0.2,1.9-0.5,2.7
					c-0.3,0.8-0.8,1.3-1.4,1.7c-0.6,0.4-1.3,0.6-2.1,0.6C120.5,514.8,119.7,514.6,119.1,514.2z M122.3,512.7
					c0.3-0.3,0.5-0.7,0.6-1.2c0.1-0.5,0.2-1.1,0.2-1.8v0c0-0.7-0.1-1.3-0.2-1.8c-0.1-0.5-0.4-0.9-0.6-1.2c-0.3-0.3-0.6-0.4-1-0.4
					c-0.4,0-0.8,0.1-1,0.4s-0.5,0.7-0.7,1.2c-0.1,0.5-0.2,1.1-0.2,1.8v0c0,0.7,0.1,1.3,0.2,1.8c0.1,0.5,0.4,0.9,0.7,1.2
					c0.3,0.3,0.6,0.4,1,0.4C121.7,513.1,122,513,122.3,512.7z"/>
				<path d="M128.2,514.2c-0.6-0.4-1.1-1-1.4-1.7c-0.3-0.8-0.5-1.6-0.5-2.7v0c0-1,0.2-1.9,0.5-2.7s0.8-1.3,1.4-1.7
					c0.6-0.4,1.3-0.6,2.1-0.6c0.8,0,1.5,0.2,2.1,0.6c0.6,0.4,1,1,1.4,1.7s0.5,1.6,0.5,2.7v0c0,1-0.2,1.9-0.5,2.7
					c-0.3,0.8-0.8,1.3-1.4,1.7c-0.6,0.4-1.3,0.6-2.1,0.6C129.5,514.8,128.8,514.6,128.2,514.2z M131.4,512.7
					c0.3-0.3,0.5-0.7,0.6-1.2c0.1-0.5,0.2-1.1,0.2-1.8v0c0-0.7-0.1-1.3-0.2-1.8c-0.1-0.5-0.4-0.9-0.6-1.2c-0.3-0.3-0.6-0.4-1-0.4
					c-0.4,0-0.8,0.1-1,0.4s-0.5,0.7-0.7,1.2c-0.1,0.5-0.2,1.1-0.2,1.8v0c0,0.7,0.1,1.3,0.2,1.8c0.1,0.5,0.4,0.9,0.7,1.2
					c0.3,0.3,0.6,0.4,1,0.4C130.8,513.1,131.1,513,131.4,512.7z"/>
				<path d="M138.3,507.5h1.5v1.2h0c0.1-0.3,0.3-0.5,0.5-0.7s0.5-0.4,0.8-0.5c0.3-0.1,0.6-0.2,0.9-0.2c0.6,0,1.1,0.1,1.6,0.4
					c0.4,0.3,0.8,0.7,1,1.3c0.2,0.6,0.4,1.2,0.4,2v0c0,0.8-0.1,1.4-0.4,2c-0.2,0.5-0.6,1-1,1.3s-1,0.5-1.6,0.5
					c-0.3,0-0.6-0.1-0.9-0.2c-0.3-0.1-0.5-0.3-0.8-0.5c-0.2-0.2-0.4-0.4-0.5-0.7h0v3.6h-1.5V507.5z M142.7,513.2
					c0.3-0.2,0.5-0.5,0.6-0.8s0.2-0.8,0.2-1.3v0c0-0.5-0.1-0.9-0.2-1.3s-0.4-0.6-0.6-0.8c-0.3-0.2-0.6-0.3-1-0.3
					c-0.4,0-0.7,0.1-1,0.3c-0.3,0.2-0.5,0.5-0.7,0.8c-0.2,0.4-0.2,0.8-0.2,1.3v0c0,0.5,0.1,0.9,0.2,1.3c0.2,0.4,0.4,0.6,0.7,0.8
					c0.3,0.2,0.6,0.3,1,0.3C142.1,513.5,142.4,513.4,142.7,513.2z"/>
				<path d="M147.4,514.3c-0.5-0.3-0.9-0.7-1.2-1.3c-0.3-0.6-0.4-1.2-0.4-2v0c0-0.8,0.1-1.4,0.4-2c0.3-0.5,0.7-1,1.2-1.3
					c0.5-0.3,1.1-0.4,1.8-0.4c0.7,0,1.3,0.1,1.8,0.4c0.5,0.3,0.9,0.7,1.2,1.3s0.4,1.2,0.4,2v0c0,0.8-0.1,1.4-0.4,2s-0.7,1-1.2,1.3
					c-0.5,0.3-1.1,0.4-1.8,0.4C148.5,514.8,147.9,514.6,147.4,514.3z M150.2,513.2c0.3-0.2,0.5-0.5,0.6-0.8c0.2-0.4,0.2-0.8,0.2-1.3
					v0c0-0.5-0.1-1-0.2-1.3c-0.2-0.4-0.4-0.6-0.7-0.8c-0.3-0.2-0.6-0.3-1-0.3c-0.4,0-0.7,0.1-1,0.3c-0.3,0.2-0.5,0.5-0.7,0.8
					c-0.2,0.4-0.2,0.8-0.2,1.3v0c0,0.5,0.1,1,0.2,1.3c0.2,0.4,0.4,0.6,0.7,0.8c0.3,0.2,0.6,0.3,1,0.3
					C149.6,513.5,149.9,513.4,150.2,513.2z"/>
				<path d="M153.9,506.2c-0.2-0.2-0.2-0.4-0.2-0.6c0-0.2,0.1-0.4,0.2-0.6c0.2-0.2,0.4-0.2,0.6-0.2c0.2,0,0.4,0.1,0.6,0.2
					s0.2,0.4,0.2,0.6c0,0.2-0.1,0.4-0.2,0.6c-0.2,0.2-0.4,0.2-0.6,0.2C154.3,506.4,154.1,506.3,153.9,506.2z M153.8,507.5h1.5v7.1
					h-1.5V507.5z"/>
				<path d="M156.7,507.5h1.5v1.1h0c0.2-0.4,0.5-0.7,0.8-0.9c0.4-0.2,0.8-0.3,1.4-0.3c0.8,0,1.4,0.2,1.8,0.7
					c0.4,0.5,0.6,1.1,0.6,1.9v4.6h-1.5v-4.3c0-0.5-0.1-0.9-0.4-1.2s-0.6-0.4-1.1-0.4c-0.3,0-0.6,0.1-0.9,0.2
					c-0.3,0.2-0.5,0.4-0.6,0.6c-0.1,0.3-0.2,0.6-0.2,1v4.1h-1.5V507.5z"/>
				<path d="M165.2,514.3c-0.3-0.3-0.5-0.8-0.5-1.5v-4.1h-1v-1.2h1v-1.9h1.5v1.9h1.3v1.2h-1.3v4c0,0.4,0.1,0.6,0.2,0.7
					c0.2,0.1,0.4,0.2,0.7,0.2c0.1,0,0.1,0,0.2,0c0.1,0,0.1,0,0.2,0v1.1c-0.1,0-0.2,0-0.3,0c-0.1,0-0.3,0-0.4,0
					C166.1,514.8,165.6,514.6,165.2,514.3z"/>
				<path d="M169.9,514.5c-0.4-0.2-0.8-0.4-1-0.8c-0.2-0.3-0.4-0.7-0.4-1.1l0-0.1h1.4l0,0.1c0.1,0.3,0.2,0.6,0.5,0.8
					c0.2,0.2,0.6,0.3,1,0.3c0.3,0,0.5,0,0.8-0.1c0.2-0.1,0.4-0.2,0.5-0.3c0.1-0.1,0.2-0.3,0.2-0.5v0c0-0.2-0.1-0.4-0.2-0.6
					s-0.4-0.3-0.8-0.4l-1.2-0.3c-0.5-0.1-0.8-0.2-1.1-0.4s-0.5-0.4-0.7-0.7c-0.1-0.3-0.2-0.6-0.2-0.9v0c0-0.4,0.1-0.8,0.3-1.1
					s0.6-0.6,1-0.7c0.4-0.2,0.9-0.3,1.4-0.3c0.6,0,1,0.1,1.4,0.3s0.7,0.4,0.9,0.8s0.4,0.7,0.4,1.1v0.1h-1.4l0,0
					c0-0.3-0.2-0.6-0.4-0.8c-0.2-0.2-0.6-0.3-1-0.3c-0.3,0-0.5,0-0.7,0.1c-0.2,0.1-0.3,0.2-0.4,0.3c-0.1,0.1-0.2,0.3-0.2,0.5v0
					c0,0.1,0,0.3,0.1,0.4c0.1,0.1,0.2,0.2,0.3,0.3c0.2,0.1,0.4,0.2,0.6,0.2l1.2,0.3c0.7,0.2,1.2,0.4,1.5,0.7
					c0.3,0.3,0.5,0.7,0.5,1.2v0c0,0.4-0.1,0.8-0.4,1.1c-0.2,0.3-0.6,0.6-1,0.8s-0.9,0.3-1.5,0.3
					C170.8,514.8,170.3,514.7,169.9,514.5z"/>
				<path d="M179.4,514.3c-0.5-0.3-0.9-0.7-1.2-1.3c-0.3-0.6-0.4-1.2-0.4-1.9v0c0-0.7,0.1-1.4,0.4-1.9c0.3-0.6,0.7-1,1.1-1.3
					c0.5-0.3,1.1-0.5,1.7-0.5c0.7,0,1.2,0.1,1.7,0.4s0.9,0.7,1.1,1.2s0.4,1.2,0.4,1.9v0.5h-5.8v-1h5.1l-0.7,1v-0.6
					c0-0.5-0.1-0.9-0.2-1.2c-0.2-0.3-0.4-0.6-0.6-0.7s-0.6-0.2-0.9-0.2c-0.3,0-0.7,0.1-0.9,0.3c-0.3,0.2-0.5,0.4-0.6,0.8
					c-0.2,0.3-0.2,0.7-0.2,1.2v0.6c0,0.5,0.1,0.9,0.2,1.2c0.2,0.3,0.4,0.6,0.7,0.7c0.3,0.2,0.6,0.3,1,0.3c0.3,0,0.5,0,0.8-0.1
					c0.2-0.1,0.4-0.2,0.6-0.4c0.1-0.1,0.2-0.3,0.3-0.5l0-0.1h1.4l0,0.1c-0.1,0.3-0.2,0.5-0.3,0.8s-0.4,0.5-0.6,0.7s-0.6,0.4-0.9,0.5
					c-0.4,0.1-0.7,0.2-1.2,0.2C180.5,514.8,179.9,514.6,179.4,514.3z"/>
				<path d="M186.3,514.5c-0.4-0.2-0.6-0.4-0.8-0.8s-0.3-0.7-0.3-1.1v0c0-0.4,0.1-0.8,0.3-1.1c0.2-0.3,0.5-0.5,0.9-0.7
					c0.4-0.2,0.9-0.3,1.4-0.3l2.7-0.2v1l-2.5,0.2c-0.4,0-0.8,0.1-1,0.3c-0.2,0.2-0.4,0.4-0.4,0.7v0c0,0.3,0.1,0.6,0.4,0.7
					s0.6,0.3,0.9,0.3c0.3,0,0.6-0.1,0.9-0.2c0.3-0.1,0.5-0.3,0.6-0.6c0.2-0.2,0.2-0.5,0.2-0.8v-2.1c0-0.4-0.1-0.7-0.4-0.9
					c-0.2-0.2-0.6-0.3-1-0.3c-0.4,0-0.8,0.1-1,0.3c-0.3,0.2-0.4,0.4-0.5,0.7l0,0.1h-1.4l0-0.1c0-0.4,0.2-0.8,0.4-1.1
					c0.2-0.3,0.6-0.6,1-0.8c0.4-0.2,0.9-0.3,1.5-0.3c0.6,0,1.1,0.1,1.5,0.3c0.4,0.2,0.8,0.5,1,0.8c0.2,0.4,0.4,0.8,0.4,1.2v4.9h-1.5
					v-1.1h0c-0.1,0.3-0.3,0.5-0.5,0.7c-0.2,0.2-0.5,0.3-0.7,0.4c-0.3,0.1-0.6,0.2-0.9,0.2C187.1,514.7,186.7,514.6,186.3,514.5z"/>
				<path d="M192.7,507.5h1.5v1.2h0c0.1-0.4,0.3-0.7,0.6-1c0.3-0.2,0.6-0.4,1-0.4c0.1,0,0.2,0,0.3,0s0.2,0,0.2,0v1.4
					c-0.1,0-0.1,0-0.3-0.1c-0.1,0-0.2,0-0.4,0c-0.3,0-0.6,0.1-0.8,0.2s-0.4,0.3-0.5,0.6c-0.1,0.2-0.2,0.6-0.2,0.9v4.2h-1.5V507.5z"
					/>
				<path d="M197.2,507.5h1.5v1.1h0c0.2-0.4,0.5-0.7,0.8-0.9c0.4-0.2,0.8-0.3,1.4-0.3c0.8,0,1.4,0.2,1.8,0.7
					c0.4,0.5,0.6,1.1,0.6,1.9v4.6h-1.5v-4.3c0-0.5-0.1-0.9-0.4-1.2s-0.6-0.4-1.1-0.4c-0.3,0-0.6,0.1-0.9,0.2
					c-0.3,0.2-0.5,0.4-0.6,0.6c-0.1,0.3-0.2,0.6-0.2,1v4.1h-1.5V507.5z"/>
				<path d="M206,514.3c-0.5-0.3-0.9-0.7-1.2-1.3c-0.3-0.6-0.4-1.2-0.4-1.9v0c0-0.7,0.1-1.4,0.4-1.9c0.3-0.6,0.7-1,1.1-1.3
					c0.5-0.3,1.1-0.5,1.7-0.5c0.7,0,1.2,0.1,1.7,0.4s0.9,0.7,1.1,1.2s0.4,1.2,0.4,1.9v0.5h-5.8v-1h5.1l-0.7,1v-0.6
					c0-0.5-0.1-0.9-0.2-1.2c-0.2-0.3-0.4-0.6-0.6-0.7s-0.6-0.2-0.9-0.2c-0.3,0-0.7,0.1-0.9,0.3c-0.3,0.2-0.5,0.4-0.6,0.8
					c-0.2,0.3-0.2,0.7-0.2,1.2v0.6c0,0.5,0.1,0.9,0.2,1.2c0.2,0.3,0.4,0.6,0.7,0.7c0.3,0.2,0.6,0.3,1,0.3c0.3,0,0.5,0,0.8-0.1
					c0.2-0.1,0.4-0.2,0.6-0.4c0.1-0.1,0.2-0.3,0.3-0.5l0-0.1h1.4l0,0.1c-0.1,0.3-0.2,0.5-0.3,0.8s-0.4,0.5-0.6,0.7s-0.6,0.4-0.9,0.5
					c-0.4,0.1-0.7,0.2-1.2,0.2C207.1,514.8,206.5,514.6,206,514.3z"/>
				<path d="M213.1,514.3c-0.4-0.3-0.8-0.7-1-1.3c-0.2-0.6-0.4-1.2-0.4-2v0c0-0.8,0.1-1.4,0.4-2s0.6-1,1-1.3s1-0.4,1.6-0.4
					c0.3,0,0.6,0.1,0.9,0.2c0.3,0.1,0.5,0.3,0.8,0.5c0.2,0.2,0.4,0.4,0.5,0.7h0v-3.8h1.5v9.7H217v-1.2h0c-0.1,0.3-0.3,0.5-0.5,0.7
					c-0.2,0.2-0.5,0.4-0.8,0.5c-0.3,0.1-0.6,0.2-0.9,0.2C214.1,514.8,213.6,514.6,213.1,514.3z M216.1,513.2
					c0.3-0.2,0.5-0.5,0.7-0.8c0.2-0.4,0.2-0.8,0.2-1.3v0c0-0.5-0.1-0.9-0.2-1.3c-0.2-0.4-0.4-0.6-0.7-0.8c-0.3-0.2-0.6-0.3-1-0.3
					c-0.4,0-0.7,0.1-1,0.3c-0.3,0.2-0.5,0.5-0.6,0.8s-0.2,0.8-0.2,1.3v0c0,0.5,0.1,0.9,0.2,1.3c0.2,0.4,0.4,0.6,0.6,0.8
					c0.3,0.2,0.6,0.3,1,0.3C215.5,513.5,215.8,513.4,216.1,513.2z"/>
				<path d="M220.5,514.4c-0.2-0.2-0.3-0.4-0.3-0.6s0.1-0.5,0.3-0.6c0.2-0.2,0.4-0.3,0.6-0.3c0.3,0,0.5,0.1,0.6,0.3
					c0.2,0.2,0.3,0.4,0.3,0.6s-0.1,0.5-0.3,0.6c-0.2,0.2-0.4,0.3-0.6,0.3C220.9,514.7,220.7,514.6,220.5,514.4z M220.4,504.9h1.5
					l-0.1,6.5h-1.3L220.4,504.9z"/>
			</g>
		</g>
		<path class="st1" d="M207.8,497.9h-92c-9,0-16.2-7.3-16.2-16.2v-66.5c0-9,7.3-16.2,16.2-16.2h92c9,0,16.2,7.3,16.2,16.2v66.5
			C224.1,490.6,216.8,497.9,207.8,497.9z"/>
		<g>
			<path d="M124.9,414.5c1-1,1.9-2.1,2.9-3c2.7,2.7,5.2,5.2,7.7,7.7c-0.9,0.9-1.9,1.9-3,3c-0.1-0.1-0.3-0.2-0.4-0.4
				c-2.2-2.2-4.4-4.4-6.6-6.6c-0.2-0.2-0.4-0.3-0.6-0.5C124.9,414.6,124.9,414.5,124.9,414.5z"/>
			<path d="M124.9,482.1c0.2-0.2,0.4-0.3,0.6-0.5c2.4-2.4,4.7-4.7,7-7c1,1,2,2,3,3c-0.1,0.1-0.2,0.3-0.4,0.4
				c-2.2,2.2-4.4,4.4-6.6,6.6c-0.2,0.2-0.3,0.4-0.5,0.6c0,0-0.1,0-0.1,0c-1-1-2-2-3-3C124.9,482.2,124.9,482.2,124.9,482.1z"/>
			<path d="M195.6,485.3c-0.2-0.2-0.3-0.4-0.5-0.6c-2.4-2.4-4.7-4.7-7-7c1-1,2-2,2.9-2.9c2.5,2.5,5,5,7.8,7.8c-1,0.9-2,1.8-3,2.8
				C195.7,485.3,195.6,485.3,195.6,485.3z"/>
			<path d="M124.9,452.3c0.1-0.2,0.2-0.3,0.3-0.5c0.5-0.9,1.5-1.4,2.4-1.2c1,0.2,1.7,1.1,1.7,2.1c0,1-0.7,1.8-1.7,2.1
				c-0.9,0.2-1.9-0.3-2.4-1.2c-0.1-0.2-0.2-0.3-0.3-0.5C124.9,452.8,124.9,452.6,124.9,452.3z"/>
			<path d="M152.8,485.3c-0.2-0.1-0.3-0.2-0.5-0.3c-0.9-0.5-1.4-1.4-1.2-2.4c0.2-1,1.1-1.7,2.1-1.7c1,0,1.9,0.7,2.1,1.7
				c0.2,0.9-0.3,1.9-1.2,2.4c-0.2,0.1-0.3,0.2-0.5,0.3C153.3,485.3,153,485.3,152.8,485.3z"/>
			<path d="M151.1,438.9c0-4.7,0-9.4,0-14.2c1.4,0,2.8,0,4.2,0c0,7.2,0,14.3,0,21.6c-1.8,0-3.6,0-5.4,0c-0.2,0-0.4-0.3-0.5-0.5
				c-0.9-1.7-1.8-3.5-2.7-5.4c-0.1,0.3-0.3,0.4-0.4,0.6c-0.8,1.6-1.6,3.2-2.4,4.8c-0.2,0.4-0.4,0.6-0.9,0.6c-1.7,0-3.3,0-5,0
				c0-7.2,0-14.4,0-21.6c1.4,0,2.8,0,4.2,0c0,4.7,0,9.5,0,14.2c0.1,0,0.1,0,0.2,0.1c1.4-2.7,2.7-5.4,4.2-8.3
				c1.4,2.8,2.8,5.6,4.2,8.3C150.9,438.9,151,438.9,151.1,438.9z"/>
			<path d="M174.7,457.8c-1.4,2.7-2.7,5.5-4.2,8.4c-1.4-2.9-2.8-5.6-4.2-8.3c0,0-0.1,0-0.1,0c0,4.7,0,9.5,0,14.2c-1.5,0-2.9,0-4.3,0
				c0-7.2,0-14.3,0-21.6c1.2,0,2.5,0,3.6,0c1.6,0,2.4,0.3,3,1.8c0.5,1.4,1.3,2.7,2,4.1c0.1-0.2,0.2-0.4,0.3-0.5
				c0.8-1.6,1.6-3.3,2.5-4.9c0.1-0.2,0.3-0.5,0.5-0.5c1.8,0,3.5,0,5.3,0c0,7.2,0,14.4,0,21.6c-1.4,0-2.8,0-4.2,0c0-4.7,0-9.5,0-14.3
				C174.8,457.8,174.7,457.8,174.7,457.8z"/>
			<path d="M159.6,461.4c0,1.8,0.2,3.6,0,5.4c-0.4,3.3-3.5,5.6-6.7,5.4c-3.3-0.2-6-2.9-6.1-6.2c-0.1-3.1-0.1-6.2,0-9.2
				c0.1-3.5,3-6.2,6.5-6.2c3.5,0,6.3,2.8,6.4,6.3c0,1.5,0,3,0,4.5C159.6,461.4,159.6,461.4,159.6,461.4z M155.4,461.3
				c0-1.4,0-2.8,0-4.2c0-1.3-0.9-2.3-2.2-2.3c-1.2,0-2.1,1-2.1,2.3c0,2.8,0,5.6,0,8.4c0,1.3,1,2.3,2.2,2.3c1.2,0,2.1-1,2.1-2.3
				C155.4,464.1,155.4,462.7,155.4,461.3z"/>
			<path d="M157.6,424.6c3.6,0,7.1,0,10.7,0c0,1.4,0,2.8,0,4.3c-2.1,0-4.2,0-6.4,0c0,1.5,0,2.9,0,4.3c1.4,0,2.8,0,4.2,0
				c0,1.5,0,2.8,0,4.3c-1.4,0-2.8,0-4.2,0c0,1.5,0,2.8,0,4.3c2.1,0,4.2,0,6.4,0c0,1.5,0,2.8,0,4.3c-3.5,0-7.1,0-10.7,0
				C157.6,439,157.6,431.8,157.6,424.6z"/>
			<path d="M189.9,459.1c0,1.5,0,2.9,0,4.3c-1.4,0-2.8,0-4.2,0c0,1.5,0,2.9,0,4.4c1,0,2.1,0,3.1,0c1.1,0,2.1,0,3.2,0
				c0,1.4,0,2.8,0,4.3c-3.5,0-7.1,0-10.7,0c0-7.2,0-14.3,0-21.5c3.5,0,7.1,0,10.7,0c0,1.4,0,2.8,0,4.3c-2.1,0-4.2,0-6.4,0
				c0,1.5,0,2.9,0,4.3C187.1,459.1,188.4,459.1,189.9,459.1z"/>
			<path d="M144.5,457c-1.4,0-2.8,0-4.2,0c0-0.1-0.1-0.3-0.1-0.4c-0.3-1.1-1.3-1.8-2.4-1.7c-1.1,0.1-1.9,1-1.9,2.2
				c0,2.3,0,4.6,0,6.8c0,0.5,0,1.1,0,1.6c0,1.3,0.8,2.2,2,2.3c1.1,0.1,2-0.6,2.3-1.8c0-0.1,0-0.2,0.1-0.3c1.4,0,2.8,0,4.3,0
				c0,1.4-0.4,2.6-1.2,3.7c-1.5,2.2-4.2,3.2-6.8,2.6c-2.6-0.6-4.7-2.7-4.8-5.4c-0.2-3.6-0.2-7.2,0-10.7c0.2-3.2,3.4-5.5,6.7-5.3
				c3.1,0.2,5.9,2.8,6.1,5.9C144.5,456.6,144.5,456.8,144.5,457z"/>
			<path d="M174.8,441.9c2.2,0,4.3,0,6.5,0c0,1.4,0,2.8,0,4.3c-3.5,0-7.1,0-10.7,0c0-7.1,0-14.3,0-21.5c1.4,0,2.8,0,4.2,0
				C174.8,430.3,174.8,436.1,174.8,441.9z"/>
			<path d="M188.1,419.1c2.5-2.5,5-5,7.5-7.5c1,1,2,2,2.9,2.9c-2.5,2.5-5,5-7.5,7.5C190.1,421.1,189.1,420.1,188.1,419.1z"/>
			<path d="M181.3,433.3c2.8,0,5.7,0,8.5,0c0,1.4,0,2.8,0,4.2c-2.8,0-5.7,0-8.5,0C181.3,436.1,181.3,434.7,181.3,433.3z"/>
			<path d="M170.5,415.8c-1.2,0-2.1-1-2.1-2.2c0-1.2,1-2.2,2.2-2.1c1.2,0,2.1,1,2.1,2.2C172.6,414.9,171.6,415.8,170.5,415.8z"/>
			<path d="M198.7,444.1c0,1.2-1,2.2-2.2,2.2c-1.2,0-2.1-1-2.1-2.2c0-1.2,1-2.2,2.2-2.2C197.7,441.9,198.7,442.9,198.7,444.1z"/>
		</g>
		<path class="st106" d="M279.6,388.8H125c-3.4,0-6.2-2.8-6.2-6.2v-10.7c0-3.4,2.8-6.2,6.2-6.2h154.6c3.4,0,6.2,2.8,6.2,6.2v10.7
			C285.8,386,283,388.8,279.6,388.8z"/>
		<g>
			<rect x="129" y="372.4" class="st94" width="157.5" height="14.6"/>
			<path d="M129.3,372.4h1.4l1.6,6.7h0l1.8-6.7h1.3l1.8,6.7h0l1.6-6.7h1.4l-2.3,8.5h-1.3l-1.8-6.4h0l-1.8,6.4h-1.3L129.3,372.4z"/>
			<path d="M141.4,380.7c-0.4-0.3-0.8-0.6-1-1.1s-0.4-1.1-0.4-1.7v0c0-0.6,0.1-1.2,0.4-1.7c0.2-0.5,0.6-0.9,1-1.1
				c0.4-0.3,0.9-0.4,1.5-0.4c0.6,0,1.1,0.1,1.5,0.4c0.4,0.3,0.7,0.6,1,1.1c0.2,0.5,0.3,1,0.3,1.6v0.4h-5.1v-0.9h4.4l-0.6,0.8v-0.5
				c0-0.4-0.1-0.8-0.2-1.1s-0.3-0.5-0.5-0.6c-0.2-0.1-0.5-0.2-0.8-0.2c-0.3,0-0.6,0.1-0.8,0.2s-0.4,0.4-0.6,0.7s-0.2,0.6-0.2,1.1
				v0.5c0,0.4,0.1,0.7,0.2,1c0.1,0.3,0.3,0.5,0.6,0.7s0.5,0.2,0.9,0.2c0.3,0,0.5,0,0.7-0.1c0.2-0.1,0.4-0.2,0.5-0.3
				c0.1-0.1,0.2-0.3,0.3-0.4l0,0h1.2l0,0.1c-0.1,0.2-0.1,0.5-0.3,0.7c-0.1,0.2-0.3,0.4-0.6,0.6c-0.2,0.2-0.5,0.3-0.8,0.4
				c-0.3,0.1-0.7,0.2-1,0.2C142.4,381.1,141.9,380.9,141.4,380.7z"/>
			<path d="M146.8,372.4h1.3v8.5h-1.3V372.4z"/>
			<path d="M150.5,380.7c-0.4-0.3-0.8-0.6-1-1.1c-0.2-0.5-0.4-1.1-0.4-1.7v0c0-0.7,0.1-1.2,0.4-1.7s0.6-0.9,1-1.1
				c0.4-0.3,1-0.4,1.5-0.4c0.5,0,1,0.1,1.4,0.3c0.4,0.2,0.7,0.5,0.9,0.8s0.3,0.7,0.4,1.1l0,0h-1.2l0-0.1c-0.1-0.3-0.2-0.6-0.5-0.8
				s-0.6-0.3-1-0.3c-0.3,0-0.6,0.1-0.9,0.3s-0.4,0.4-0.6,0.7s-0.2,0.7-0.2,1.1v0c0,0.5,0.1,0.8,0.2,1.2c0.1,0.3,0.3,0.6,0.6,0.7
				s0.5,0.3,0.9,0.3c0.4,0,0.7-0.1,1-0.3s0.4-0.5,0.5-0.8l0,0h1.2v0c0,0.4-0.2,0.8-0.4,1.1c-0.2,0.3-0.5,0.6-0.9,0.8
				c-0.4,0.2-0.8,0.3-1.3,0.3C151.5,381.1,150.9,380.9,150.5,380.7z"/>
			<path d="M156.8,380.7c-0.4-0.3-0.8-0.6-1-1.1s-0.4-1.1-0.4-1.7v0c0-0.7,0.1-1.2,0.4-1.7c0.2-0.5,0.6-0.9,1-1.1
				c0.4-0.3,1-0.4,1.5-0.4c0.6,0,1.1,0.1,1.6,0.4c0.4,0.3,0.8,0.6,1,1.1c0.2,0.5,0.4,1.1,0.4,1.7v0c0,0.7-0.1,1.2-0.4,1.7
				s-0.6,0.9-1,1.1c-0.4,0.3-1,0.4-1.5,0.4C157.7,381.1,157.2,380.9,156.8,380.7z M159.2,379.7c0.2-0.2,0.4-0.4,0.6-0.7
				c0.1-0.3,0.2-0.7,0.2-1.2v0c0-0.5-0.1-0.8-0.2-1.2c-0.1-0.3-0.3-0.6-0.6-0.7s-0.5-0.3-0.9-0.3c-0.3,0-0.6,0.1-0.9,0.3
				s-0.4,0.4-0.6,0.7c-0.1,0.3-0.2,0.7-0.2,1.2v0c0,0.5,0.1,0.8,0.2,1.2c0.1,0.3,0.3,0.6,0.6,0.7s0.5,0.3,0.9,0.3
				C158.7,380,159,379.9,159.2,379.7z"/>
			<path d="M162.3,374.7h1.3v1h0c0.1-0.3,0.4-0.6,0.7-0.8c0.3-0.2,0.7-0.3,1.1-0.3c0.3,0,0.5,0,0.8,0.1s0.4,0.2,0.6,0.4
				c0.2,0.2,0.3,0.4,0.4,0.7h0c0.1-0.3,0.3-0.5,0.4-0.7c0.2-0.2,0.4-0.3,0.7-0.4c0.3-0.1,0.5-0.1,0.8-0.1c0.4,0,0.8,0.1,1.1,0.3
				c0.3,0.2,0.5,0.4,0.7,0.7c0.2,0.3,0.3,0.7,0.3,1.1v4.3h-1.3v-4c0-0.3,0-0.5-0.1-0.7c-0.1-0.2-0.2-0.3-0.4-0.4
				c-0.2-0.1-0.4-0.1-0.6-0.1c-0.3,0-0.5,0.1-0.7,0.2c-0.2,0.1-0.3,0.3-0.4,0.5c-0.1,0.2-0.2,0.4-0.2,0.7v3.9H166v-4.1
				c0-0.2,0-0.4-0.1-0.6c-0.1-0.2-0.2-0.3-0.4-0.4c-0.2-0.1-0.4-0.1-0.6-0.1c-0.2,0-0.5,0.1-0.7,0.2s-0.3,0.3-0.5,0.5
				c-0.1,0.2-0.2,0.4-0.2,0.7v3.8h-1.3V374.7z"/>
			<path d="M173.3,380.7c-0.4-0.3-0.8-0.6-1-1.1s-0.4-1.1-0.4-1.7v0c0-0.6,0.1-1.2,0.4-1.7c0.2-0.5,0.6-0.9,1-1.1
				c0.4-0.3,0.9-0.4,1.5-0.4c0.6,0,1.1,0.1,1.5,0.4c0.4,0.3,0.7,0.6,1,1.1c0.2,0.5,0.3,1,0.3,1.6v0.4h-5.1v-0.9h4.4l-0.6,0.8v-0.5
				c0-0.4-0.1-0.8-0.2-1.1s-0.3-0.5-0.5-0.6c-0.2-0.1-0.5-0.2-0.8-0.2c-0.3,0-0.6,0.1-0.8,0.2s-0.4,0.4-0.6,0.7s-0.2,0.6-0.2,1.1
				v0.5c0,0.4,0.1,0.7,0.2,1c0.1,0.3,0.3,0.5,0.6,0.7s0.5,0.2,0.9,0.2c0.3,0,0.5,0,0.7-0.1c0.2-0.1,0.4-0.2,0.5-0.3
				c0.1-0.1,0.2-0.3,0.3-0.4l0,0h1.2l0,0.1c-0.1,0.2-0.1,0.5-0.3,0.7c-0.1,0.2-0.3,0.4-0.6,0.6c-0.2,0.2-0.5,0.3-0.8,0.4
				c-0.3,0.1-0.7,0.2-1,0.2C174.3,381.1,173.8,380.9,173.3,380.7z"/>
			<path d="M181.2,372.4h1.3v8.5h-1.3V372.4z M181.9,379.9h2.5c0.6,0,1-0.1,1.4-0.4s0.5-0.6,0.5-1v0c0-0.3-0.1-0.6-0.2-0.8
				c-0.1-0.2-0.4-0.4-0.6-0.5c-0.3-0.1-0.6-0.2-1.1-0.2h-2.4v-1h2.1c0.6,0,1-0.1,1.3-0.3c0.3-0.2,0.5-0.6,0.5-1v0
				c0-0.4-0.1-0.7-0.4-0.9c-0.3-0.2-0.6-0.3-1.1-0.3h-2.4v-1.1h2.7c0.5,0,1,0.1,1.3,0.3s0.7,0.4,0.9,0.7c0.2,0.3,0.3,0.7,0.3,1.1v0
				c0,0.3-0.1,0.6-0.2,0.9c-0.1,0.3-0.3,0.5-0.6,0.7c-0.2,0.2-0.5,0.3-0.8,0.3v0c0.4,0,0.8,0.2,1.1,0.3c0.3,0.2,0.5,0.4,0.7,0.7
				c0.2,0.3,0.2,0.6,0.2,1v0c0,0.5-0.1,0.9-0.4,1.3c-0.2,0.4-0.6,0.6-1,0.8s-1,0.3-1.6,0.3h-2.8V379.9z"/>
			<path d="M189.3,380.8c-0.3-0.2-0.6-0.4-0.7-0.7c-0.2-0.3-0.3-0.6-0.3-1v0c0-0.4,0.1-0.7,0.3-0.9c0.2-0.3,0.4-0.5,0.8-0.6
				s0.8-0.2,1.2-0.3l2.4-0.1v0.9l-2.2,0.1c-0.4,0-0.7,0.1-0.9,0.3c-0.2,0.2-0.3,0.4-0.3,0.6v0c0,0.3,0.1,0.5,0.3,0.6
				s0.5,0.2,0.8,0.2c0.3,0,0.6-0.1,0.8-0.2c0.2-0.1,0.4-0.3,0.6-0.5c0.1-0.2,0.2-0.5,0.2-0.7v-1.8c0-0.3-0.1-0.6-0.3-0.8
				c-0.2-0.2-0.5-0.3-0.9-0.3c-0.4,0-0.7,0.1-0.9,0.2c-0.2,0.2-0.4,0.4-0.4,0.6l0,0.1h-1.2l0-0.1c0-0.4,0.2-0.7,0.4-1
				c0.2-0.3,0.5-0.5,0.9-0.7s0.8-0.2,1.3-0.2c0.5,0,0.9,0.1,1.3,0.3s0.7,0.4,0.9,0.7c0.2,0.3,0.3,0.7,0.3,1.1v4.3h-1.3v-1h0
				c-0.1,0.2-0.3,0.4-0.5,0.6c-0.2,0.2-0.4,0.3-0.7,0.4c-0.2,0.1-0.5,0.1-0.8,0.1C190,381,189.6,381,189.3,380.8z"/>
			<path d="M195.8,380.7c-0.4-0.3-0.7-0.6-0.9-1.1c-0.2-0.5-0.3-1.1-0.3-1.7v0c0-0.7,0.1-1.2,0.3-1.7s0.5-0.9,0.9-1.1
				c0.4-0.3,0.8-0.4,1.4-0.4c0.3,0,0.6,0,0.8,0.1s0.5,0.2,0.7,0.4c0.2,0.2,0.4,0.4,0.5,0.6h0v-3.4h1.3v8.5h-1.3v-1.1h0
				c-0.1,0.2-0.3,0.5-0.5,0.6c-0.2,0.2-0.4,0.3-0.7,0.4c-0.2,0.1-0.5,0.1-0.8,0.1C196.6,381.1,196.2,380.9,195.8,380.7z
				 M198.3,379.7c0.2-0.2,0.4-0.4,0.6-0.7c0.1-0.3,0.2-0.7,0.2-1.1v0c0-0.4-0.1-0.8-0.2-1.1c-0.1-0.3-0.3-0.6-0.6-0.7
				c-0.2-0.2-0.5-0.3-0.9-0.3c-0.3,0-0.6,0.1-0.9,0.3s-0.4,0.4-0.6,0.7c-0.1,0.3-0.2,0.7-0.2,1.1v0c0,0.4,0.1,0.8,0.2,1.1
				c0.1,0.3,0.3,0.6,0.6,0.7c0.2,0.2,0.5,0.3,0.9,0.3C197.8,380,198.1,379.9,198.3,379.7z"/>
			<path d="M203.1,382.9c-0.4-0.1-0.7-0.4-1-0.6c-0.2-0.3-0.4-0.5-0.5-0.9l0-0.1h1.3l0,0c0.1,0.2,0.3,0.4,0.5,0.5
				c0.3,0.1,0.6,0.2,1,0.2c0.5,0,0.9-0.1,1.2-0.4c0.3-0.3,0.4-0.6,0.4-1v-0.9h0c-0.1,0.2-0.3,0.4-0.5,0.6c-0.2,0.2-0.4,0.3-0.7,0.4
				c-0.3,0.1-0.5,0.1-0.8,0.1c-0.5,0-1-0.1-1.4-0.4c-0.4-0.3-0.7-0.6-0.9-1.1c-0.2-0.5-0.3-1-0.3-1.7v0c0-0.6,0.1-1.2,0.3-1.7
				c0.2-0.5,0.5-0.8,0.9-1.1c0.4-0.3,0.8-0.4,1.4-0.4c0.3,0,0.6,0,0.8,0.1c0.2,0.1,0.5,0.2,0.7,0.4c0.2,0.2,0.3,0.4,0.5,0.6h0v-1.1
				h1.3v6c0,0.5-0.1,0.9-0.3,1.2c-0.2,0.4-0.6,0.6-1,0.8c-0.4,0.2-0.9,0.3-1.5,0.3C203.9,383.1,203.4,383.1,203.1,382.9z
				 M205.2,379.6c0.2-0.2,0.4-0.4,0.6-0.7c0.1-0.3,0.2-0.7,0.2-1.1v0c0-0.4-0.1-0.8-0.2-1.1c-0.1-0.3-0.3-0.6-0.6-0.7
				s-0.5-0.3-0.9-0.3c-0.3,0-0.6,0.1-0.9,0.3s-0.4,0.4-0.6,0.7c-0.1,0.3-0.2,0.7-0.2,1.1v0c0,0.4,0.1,0.8,0.2,1.1
				c0.1,0.3,0.3,0.6,0.6,0.7c0.2,0.2,0.5,0.3,0.9,0.3C204.7,379.9,205,379.8,205.2,379.6z"/>
			<path d="M209.6,380.7c-0.4-0.3-0.8-0.6-1-1.1s-0.4-1.1-0.4-1.7v0c0-0.6,0.1-1.2,0.4-1.7c0.2-0.5,0.6-0.9,1-1.1
				c0.4-0.3,0.9-0.4,1.5-0.4c0.6,0,1.1,0.1,1.5,0.4c0.4,0.3,0.7,0.6,1,1.1c0.2,0.5,0.3,1,0.3,1.6v0.4h-5.1v-0.9h4.4l-0.6,0.8v-0.5
				c0-0.4-0.1-0.8-0.2-1.1s-0.3-0.5-0.5-0.6c-0.2-0.1-0.5-0.2-0.8-0.2c-0.3,0-0.6,0.1-0.8,0.2s-0.4,0.4-0.6,0.7s-0.2,0.6-0.2,1.1
				v0.5c0,0.4,0.1,0.7,0.2,1c0.1,0.3,0.3,0.5,0.6,0.7s0.5,0.2,0.9,0.2c0.3,0,0.5,0,0.7-0.1c0.2-0.1,0.4-0.2,0.5-0.3
				c0.1-0.1,0.2-0.3,0.3-0.4l0,0h1.2l0,0.1c-0.1,0.2-0.1,0.5-0.3,0.7c-0.1,0.2-0.3,0.4-0.6,0.6c-0.2,0.2-0.5,0.3-0.8,0.4
				c-0.3,0.1-0.7,0.2-1,0.2C210.6,381.1,210.1,380.9,209.6,380.7z"/>
			<path d="M219.2,380.7c-0.5-0.3-0.9-0.6-1.2-1.1c-0.3-0.5-0.4-1-0.4-1.6v-5.5h1.3v5.4c0,0.4,0.1,0.8,0.3,1.1
				c0.2,0.3,0.4,0.6,0.7,0.7c0.3,0.2,0.7,0.3,1.2,0.3s0.8-0.1,1.2-0.3c0.3-0.2,0.6-0.4,0.7-0.7c0.2-0.3,0.2-0.7,0.2-1.1v-5.4h1.3
				v5.5c0,0.6-0.1,1.2-0.4,1.6c-0.3,0.5-0.7,0.8-1.2,1.1c-0.5,0.3-1.1,0.4-1.8,0.4S219.7,380.9,219.2,380.7z"/>
			<path d="M225.9,374.7h1.3v0.9h0c0.2-0.3,0.4-0.6,0.7-0.8c0.3-0.2,0.7-0.3,1.2-0.3c0.7,0,1.2,0.2,1.6,0.6c0.4,0.4,0.6,1,0.6,1.7v4
				h-1.3v-3.8c0-0.5-0.1-0.8-0.3-1.1c-0.2-0.3-0.5-0.4-1-0.4c-0.3,0-0.6,0.1-0.8,0.2c-0.2,0.1-0.4,0.3-0.5,0.6s-0.2,0.5-0.2,0.9v3.6
				h-1.3V374.7z"/>
			<path d="M232.5,372.4h1.3v8.5h-1.3V372.4z"/>
			<path d="M236.2,380.7c-0.4-0.3-0.8-0.6-1-1.1s-0.4-1.1-0.4-1.7v0c0-0.7,0.1-1.2,0.4-1.7c0.2-0.5,0.6-0.9,1-1.1
				c0.4-0.3,1-0.4,1.5-0.4c0.6,0,1.1,0.1,1.6,0.4c0.4,0.3,0.8,0.6,1,1.1c0.2,0.5,0.4,1.1,0.4,1.7v0c0,0.7-0.1,1.2-0.4,1.7
				s-0.6,0.9-1,1.1c-0.4,0.3-1,0.4-1.5,0.4C237.2,381.1,236.7,380.9,236.2,380.7z M238.6,379.7c0.2-0.2,0.4-0.4,0.6-0.7
				c0.1-0.3,0.2-0.7,0.2-1.2v0c0-0.5-0.1-0.8-0.2-1.2c-0.1-0.3-0.3-0.6-0.6-0.7s-0.5-0.3-0.9-0.3c-0.3,0-0.6,0.1-0.9,0.3
				s-0.4,0.4-0.6,0.7c-0.1,0.3-0.2,0.7-0.2,1.2v0c0,0.5,0.1,0.8,0.2,1.2c0.1,0.3,0.3,0.6,0.6,0.7s0.5,0.3,0.9,0.3
				C238.1,380,238.4,379.9,238.6,379.7z"/>
			<path d="M242.8,380.7c-0.4-0.3-0.8-0.6-1-1.1c-0.2-0.5-0.4-1.1-0.4-1.7v0c0-0.7,0.1-1.2,0.4-1.7s0.6-0.9,1-1.1
				c0.4-0.3,1-0.4,1.5-0.4c0.5,0,1,0.1,1.4,0.3c0.4,0.2,0.7,0.5,0.9,0.8s0.3,0.7,0.4,1.1l0,0h-1.2l0-0.1c-0.1-0.3-0.2-0.6-0.5-0.8
				s-0.6-0.3-1-0.3c-0.3,0-0.6,0.1-0.9,0.3s-0.4,0.4-0.6,0.7s-0.2,0.7-0.2,1.1v0c0,0.5,0.1,0.8,0.2,1.2c0.1,0.3,0.3,0.6,0.6,0.7
				s0.5,0.3,0.9,0.3c0.4,0,0.7-0.1,1-0.3s0.4-0.5,0.5-0.8l0,0h1.2v0c0,0.4-0.2,0.8-0.4,1.1c-0.2,0.3-0.5,0.6-0.9,0.8
				c-0.4,0.2-0.8,0.3-1.3,0.3C243.8,381.1,243.3,380.9,242.8,380.7z"/>
			<path d="M248,372.4h1.3v8.5H248V372.4z M249.1,377.4h0.3l2.5-2.6h1.5l-2.9,3.1h-0.2l-1.1,1.1V377.4z M249.8,378.1l0.8-0.9
				l2.8,3.8H252L249.8,378.1z"/>
			<path d="M254.9,380.7c-0.4-0.3-0.8-0.6-1-1.1s-0.4-1.1-0.4-1.7v0c0-0.6,0.1-1.2,0.4-1.7c0.2-0.5,0.6-0.9,1-1.1
				c0.4-0.3,0.9-0.4,1.5-0.4c0.6,0,1.1,0.1,1.5,0.4c0.4,0.3,0.7,0.6,1,1.1c0.2,0.5,0.3,1,0.3,1.6v0.4h-5.1v-0.9h4.4l-0.6,0.8v-0.5
				c0-0.4-0.1-0.8-0.2-1.1s-0.3-0.5-0.5-0.6c-0.2-0.1-0.5-0.2-0.8-0.2c-0.3,0-0.6,0.1-0.8,0.2s-0.4,0.4-0.6,0.7s-0.2,0.6-0.2,1.1
				v0.5c0,0.4,0.1,0.7,0.2,1c0.1,0.3,0.3,0.5,0.6,0.7s0.5,0.2,0.9,0.2c0.3,0,0.5,0,0.7-0.1c0.2-0.1,0.4-0.2,0.5-0.3
				c0.1-0.1,0.2-0.3,0.3-0.4l0,0h1.2l0,0.1c-0.1,0.2-0.1,0.5-0.3,0.7c-0.1,0.2-0.3,0.4-0.6,0.6c-0.2,0.2-0.5,0.3-0.8,0.4
				c-0.3,0.1-0.7,0.2-1,0.2C255.8,381.1,255.3,380.9,254.9,380.7z"/>
			<path d="M261.1,380.7c-0.4-0.3-0.7-0.6-0.9-1.1c-0.2-0.5-0.3-1.1-0.3-1.7v0c0-0.7,0.1-1.2,0.3-1.7s0.5-0.9,0.9-1.1
				c0.4-0.3,0.8-0.4,1.4-0.4c0.3,0,0.6,0,0.8,0.1s0.5,0.2,0.7,0.4c0.2,0.2,0.4,0.4,0.5,0.6h0v-3.4h1.3v8.5h-1.3v-1.1h0
				c-0.1,0.2-0.3,0.5-0.5,0.6c-0.2,0.2-0.4,0.3-0.7,0.4c-0.2,0.1-0.5,0.1-0.8,0.1C262,381.1,261.5,380.9,261.1,380.7z M263.7,379.7
				c0.2-0.2,0.4-0.4,0.6-0.7c0.1-0.3,0.2-0.7,0.2-1.1v0c0-0.4-0.1-0.8-0.2-1.1c-0.1-0.3-0.3-0.6-0.6-0.7c-0.2-0.2-0.5-0.3-0.9-0.3
				c-0.3,0-0.6,0.1-0.9,0.3s-0.4,0.4-0.6,0.7c-0.1,0.3-0.2,0.7-0.2,1.1v0c0,0.4,0.1,0.8,0.2,1.1c0.1,0.3,0.3,0.6,0.6,0.7
				c0.2,0.2,0.5,0.3,0.9,0.3C263.1,380,263.4,379.9,263.7,379.7z"/>
			<path d="M267.6,380.8c-0.1-0.1-0.2-0.3-0.2-0.5s0.1-0.4,0.2-0.5c0.1-0.1,0.3-0.2,0.6-0.2s0.4,0.1,0.6,0.2
				c0.1,0.1,0.2,0.3,0.2,0.5s-0.1,0.4-0.2,0.5c-0.2,0.1-0.3,0.2-0.6,0.2S267.7,380.9,267.6,380.8z M267.5,372.4h1.3l-0.1,5.7h-1.1
				L267.5,372.4z"/>
		</g>
	</g>
</g>
</svg>
