<svg width="482" height="404" viewBox="0 0 482 404" fill="none" xmlns="http://www.w3.org/2000/svg">
<path d="M357.6 176.2H50.1C39 176.2 30 167.2 30 156.1V21.1C30 10 39 1 50.1 1H357.5C368.6 1 377.6 10 377.6 21.1V156.1C377.7 167.1 368.7 176.2 357.6 176.2Z" fill="white" stroke="#C5C5C5" stroke-miterlimit="10"/>
<path fill-rule="evenodd" clip-rule="evenodd" d="M69.3 29.6001V44.2001H83.9C83.6 50.1001 78.8 56.1001 71.4 56.7001C63.5 57.3001 56.6999 51.2001 56.6999 43.2001C56.5999 35.6001 62.7 30.1001 69.3 29.6001Z" fill="#FBC83D"/>
<path fill-rule="evenodd" clip-rule="evenodd" d="M68.6 30.3998C62.9 31.0998 57.4 35.9998 57.4 43.2998C57.4 46.9998 58.9 50.2998 61.6 52.7998C64.3 55.1998 67.8 56.3999 71.4 56.0999C75.5 55.7999 78.2 53.6999 79.8 52.0999C81.6 50.0999 82.8 47.5998 83.2 44.9998H69.4C69 44.9998 68.7 44.6998 68.7 44.2998V30.3998H68.6ZM70.3 57.4998C66.7 57.4998 63.3 56.1998 60.6 53.6998C57.6 50.9998 56 47.2998 56 43.1998C56 39.3998 57.4 35.7999 60 33.0999C62.4 30.5999 65.8 28.9998 69.2 28.7998C69.4 28.7998 69.6 28.8998 69.7 28.9998C69.8 29.0998 69.9 29.2998 69.9 29.4998V43.3998H83.9C84.1 43.3998 84.3 43.4999 84.4 43.5999C84.5 43.6999 84.6 43.8999 84.6 44.0999C84.4 47.1999 83 50.3998 80.8 52.7998C78.4 55.3998 75.1 56.9998 71.5 57.2998C71.1 57.4998 70.7 57.4998 70.3 57.4998Z" fill="black"/>
<path fill-rule="evenodd" clip-rule="evenodd" d="M72.2 41.3V26.7C75.4 26.4 79.7 27.4001 82.9 30.6001C86.1 33.8001 87.1 38 86.8 41.3H72.2Z" fill="#FBC83D"/>
<path fill-rule="evenodd" clip-rule="evenodd" d="M72.9 40.6H86.2C86.3 37.8 85.4 34.1 82.4 31.1C79.5 28.2 75.7 27.1999 72.9 27.2999V40.6ZM86.8 41.9999H72.2C71.8 41.9999 71.5 41.6999 71.5 41.2999V26.6999C71.5 26.2999 71.8 25.9999 72.1 25.9999C76.2 25.5999 80.4 27.2 83.4 30.1C86.4 33.1 87.9 37.2999 87.5 41.2999C87.5 41.6999 87.2 41.9999 86.8 41.9999Z" fill="black"/>
<path d="M96.8 44.2999V44.1999H98.6V44.2999C98.7 45.1999 99.6 45.6999 100.9 45.6999C102.2 45.6999 103 45.0999 103 44.1999C103 43.4999 102.5 42.9999 101.1 42.6999L100 42.4999C97.9 42.0999 97 41.0999 97 39.4999C97 37.5999 98.6 36.3999 100.8 36.3999C103.1 36.3999 104.5 37.6999 104.7 39.2999V39.3999H102.9V39.2999C102.8 38.4999 102 37.8999 100.8 37.8999C99.6 37.8999 98.8 38.3999 98.8 39.2999C98.8 39.9999 99.3 40.4999 100.6 40.7999L101.7 40.9999C103.9 41.4999 104.8 42.2999 104.8 43.8999C104.8 45.8999 103.2 47.1999 100.7 47.1999C98.5 47.1999 97 45.9999 96.8 44.2999Z" fill="#242424"/>
<path d="M106.2 43.1C106.2 40.6 107.6 39 109.9 39C112.2 39 113.5 40.6 113.5 42.9V43.5H108C108 44.9 108.8 45.7 110 45.7C111 45.7 111.5 45.2 111.7 44.9V44.8H113.4V44.9C113.1 45.9 112.1 47.1 110 47.1C107.6 47.1 106.2 45.6 106.2 43.1ZM108 42.3H111.7C111.6 41 110.8 40.4 109.8 40.4C108.8 40.4 108.1 41 108 42.3Z" fill="#242424"/>
<path d="M114.9 47.5H116.7C116.8 48 117.4 48.4 118.4 48.4C119.6 48.4 120.3 47.8 120.3 46.8V45.3H120.2C119.7 46.1 118.9 46.6 117.8 46.6C115.8 46.6 114.6 45.1 114.6 42.8C114.6 40.5 115.8 39 117.9 39C119 39 119.8 39.5 120.3 40.4H120.4V39.1H122.2V46.8C122.2 48.6 120.7 49.8 118.4 49.8C116.3 49.7 115.1 48.9 114.9 47.5ZM120.4 42.8C120.4 41.4 119.6 40.4 118.4 40.4C117.2 40.4 116.4 41.4 116.4 42.8C116.4 44.2 117.1 45.1 118.4 45.1C119.6 45.2 120.4 44.2 120.4 42.8Z" fill="#242424"/>
<path d="M124 39.0999H125.8V40.2999H125.9C126.2 39.3999 127 38.8999 128.1 38.8999C129.2 38.8999 129.9 39.3999 130.3 40.2999H130.4C130.8 39.3999 131.7 38.8999 132.8 38.8999C134.4 38.8999 135.3 39.8999 135.3 41.4999V46.8999H133.5V41.8999C133.5 40.8999 133 40.3999 132.1 40.3999C131.2 40.3999 130.6 41.0999 130.6 41.9999V46.8999H128.8V41.7999C128.8 40.8999 128.3 40.3999 127.4 40.3999C126.5 40.3999 125.9 41.0999 125.9 42.0999V46.8999H124.1V39.0999H124Z" fill="#242424"/>
<path d="M136.8 43.1C136.8 40.6 138.2 39 140.5 39C142.8 39 144.1 40.6 144.1 42.9V43.5H138.6C138.6 44.9 139.4 45.7 140.6 45.7C141.6 45.7 142.1 45.2 142.3 44.9V44.8H144V44.9C143.7 45.9 142.7 47.1 140.6 47.1C138.2 47.1 136.8 45.6 136.8 43.1ZM138.6 42.3H142.3C142.2 41 141.4 40.4 140.4 40.4C139.4 40.4 138.7 41 138.6 42.3Z" fill="#242424"/>
<path d="M145.6 39.0999H147.4V40.2999H147.5C147.9 39.4999 148.6 38.8999 149.8 38.8999C151.6 38.8999 152.5 39.9999 152.5 41.7999V46.8999H150.7V42.1999C150.7 40.9999 150.2 40.3999 149.1 40.3999C148 40.3999 147.4 41.0999 147.4 42.2999V46.8999H145.6V39.0999Z" fill="#242424"/>
<path d="M154.8 44.9V40.4999H153.6V39.1H154.8V37.2H156.6V39.1H158.3V40.4999H156.6V44.4999C156.6 45.2999 156.9 45.6 157.7 45.6C158 45.6 158.1 45.6 158.3 45.6V46.9999C158 47.0999 157.7 47.1 157.4 47.1C155.6 47 154.8 46.4 154.8 44.9Z" fill="#242424"/>
<path d="M159.3 44.8999H161.1C161.3 45.3999 161.8 45.7999 162.7 45.7999C163.6 45.7999 164.2 45.3999 164.2 44.7999C164.2 44.2999 163.9 43.9999 163 43.7999L161.7 43.4999C160.2 43.1999 159.5 42.4999 159.5 41.2999C159.5 39.8999 160.8 38.8999 162.7 38.8999C164.6 38.8999 165.8 39.8999 165.9 41.0999H164.2C164.1 40.5999 163.6 40.1999 162.7 40.1999C161.9 40.1999 161.3 40.5999 161.3 41.1999C161.3 41.6999 161.6 41.8999 162.5 42.0999L163.8 42.3999C165.3 42.6999 166.1 43.3999 166.1 44.4999C166.1 45.9999 164.7 46.9999 162.8 46.9999C160.7 47.0999 159.5 46.1999 159.3 44.8999Z" fill="#242424"/>
<path d="M60.2 82.7998H125.5C127.8 82.7998 129.7 84.6998 129.7 86.9998V109.2C129.7 111.5 127.8 113.4 125.5 113.4H60.2C57.9 113.4 56 111.5 56 109.2V87.0999C56 84.6999 57.9 82.7998 60.2 82.7998Z" fill="#72A736"/>
<path fill-rule="evenodd" clip-rule="evenodd" d="M70.7 98.1H75.9C76 96.9 75.6 95.3999 74.5 94.2999C73.3 93.0999 71.8 92.8 70.7 92.9V98.1ZM70 93.6C67.7 93.8 65.5 95.6999 65.5 98.4999C65.5 101.4 68 103.6 70.8 103.3C73.4 103.1 75.1 100.9 75.3 98.7999H70.1V93.6H70Z" fill="white"/>
<path fill-rule="evenodd" clip-rule="evenodd" d="M70 93.6001V98.9001H75.3C75.2 101 73.5 103.2 70.8 103.4C68 103.6 65.5 101.4 65.5 98.5001C65.4 95.7001 67.6 93.8001 70 93.6001Z" fill="white"/>
<path fill-rule="evenodd" clip-rule="evenodd" d="M70.7 98.1001V92.9001C71.9 92.8001 73.3999 93.2 74.4999 94.3C75.5999 95.5 76 97.0001 75.9 98.1001H70.7Z" fill="white"/>
<path d="M85.3 93.5999H87.1L90.3 102.5H88.6L87.9 100.2H84.6L83.9 102.5H82.2L85.3 93.5999ZM84.9999 98.9998H87.4999L86.3 95.2998H86.2L84.9999 98.9998Z" fill="white"/>
<path d="M90.7 99.0999C90.7 96.8999 91.9 95.5999 93.9 95.5999C95.6 95.5999 96.7 96.5998 96.8 97.9998H95.3C95.2 97.2998 94.7 96.8998 93.8 96.8998C92.7 96.8998 92.1 97.6999 92.1 99.0999C92.1 100.5 92.7 101.4 93.8 101.4C94.6 101.4 95.1 101 95.3 100.3H96.8C96.6 101.7 95.6 102.6 93.9 102.6C91.9 102.7 90.7 101.3 90.7 99.0999Z" fill="white"/>
<path d="M98.6 100.7V96.8998H97.5V95.6998H98.6V93.9998H100.2V95.6998H101.6V96.8998H100.2V100.3C100.2 101 100.5 101.3 101.1 101.3C101.3 101.3 101.4 101.3 101.6 101.3V102.5C101.4 102.5 101.1 102.6 100.8 102.6C99.2 102.6 98.6 102 98.6 100.7Z" fill="white"/>
<path d="M102.7 93.6998C102.7 93.1998 103.1 92.7998 103.6 92.7998C104.1 92.7998 104.5 93.1998 104.5 93.6998C104.5 94.1998 104.1 94.5999 103.6 94.5999C103.2 94.5999 102.7 94.1998 102.7 93.6998ZM102.9 95.7998H104.4V102.6H102.9V95.7998Z" fill="white"/>
<path d="M105.5 95.7998H107.1L108.7 101.1H108.8L110.4 95.7998H112L109.6 102.6H107.9L105.5 95.7998Z" fill="white"/>
<path d="M112.4 99.1997C112.4 97.0997 113.6 95.6997 115.6 95.6997C117.6 95.6997 118.7 96.9997 118.7 99.0997V99.5997H113.9C113.9 100.8 114.6 101.5 115.6 101.5C116.4 101.5 116.9 101.1 117.1 100.8H118.6V100.9C118.4 101.8 117.5 102.8 115.6 102.8C113.6 102.7 112.4 101.3 112.4 99.1997ZM113.9 98.4997H117.1C117 97.3997 116.4 96.7997 115.5 96.7997C114.6 96.7997 114.1 97.3997 113.9 98.4997Z" fill="white"/>
<path d="M142.4 82.7998H265.7C268 82.7998 269.9 84.6998 269.9 86.9998V109.2C269.9 111.5 268 113.4 265.7 113.4H142.4C140.1 113.4 138.2 111.5 138.2 109.2V87.0999C138.2 84.6999 140.1 82.7998 142.4 82.7998Z" fill="#FBC83D"/>
<path fill-rule="evenodd" clip-rule="evenodd" d="M152.9 98.1H158.2C158.3 96.9 157.9 95.3999 156.8 94.2999C155.6 93.0999 154.1 92.8 153 92.9V98.1H152.9ZM152.2 93.6C149.9 93.8 147.7 95.6999 147.7 98.4999C147.7 101.4 150.2 103.6 153 103.3C155.6 103.1 157.3 100.9 157.5 98.7999H152.3V93.6H152.2Z" fill="#242424"/>
<path fill-rule="evenodd" clip-rule="evenodd" d="M152.2 93.6001V98.9001H157.5C157.4 101 155.7 103.2 153 103.4C150.2 103.6 147.7 101.4 147.7 98.5001C147.6 95.7001 149.8 93.8001 152.2 93.6001Z" fill="#242424"/>
<path fill-rule="evenodd" clip-rule="evenodd" d="M152.9 98.1001V92.9001C154.1 92.8001 155.6 93.2 156.7 94.3C157.8 95.5 158.2 97.0001 158.1 98.1001H152.9Z" fill="#242424"/>
<path d="M167.4 93.6001H169.2L172.4 102.5H170.7L170 100.2H166.7L166 102.5H164.3L167.4 93.6001ZM167.1 99.0001H169.6L168.4 95.3H168.3L167.1 99.0001Z" fill="#242424"/>
<path d="M175.2 101.5H175.1V102.6H173.6V93.2H175.1V96.9H175.2C175.6 96.2 176.3 95.7 177.3 95.7C179 95.7 180.1 97 180.1 99.2C180.1 101.3 179 102.7 177.3 102.7C176.3 102.6 175.6 102.2 175.2 101.5ZM178.4 99.2C178.4 97.8 177.8 96.9999 176.7 96.9999C175.7 96.9999 175 97.8 175 99.2C175 100.6 175.6 101.4 176.7 101.4C177.8 101.3 178.4 100.5 178.4 99.2Z" fill="#242424"/>
<path d="M181 99.2C181 97 182.2 95.7 184.3 95.7C186.3 95.7 187.6 97 187.6 99.2C187.6 101.4 186.4 102.7 184.3 102.7C182.2 102.7 181 101.3 181 99.2ZM185.9 99.2C185.9 97.8 185.3 96.9 184.2 96.9C183.1 96.9 182.5 97.7 182.5 99.2C182.5 100.6 183.1 101.5 184.2 101.5C185.3 101.4 185.9 100.6 185.9 99.2Z" fill="#242424"/>
<path d="M188.7 100.1V95.7H190.2V99.7C190.2 100.7 190.6 101.3 191.5 101.3C192.5 101.3 193 100.7 193 99.6V95.7H194.5V102.5H193V101.5H192.9C192.6 102.2 191.9 102.7 190.9 102.7C189.5 102.7 188.7 101.7 188.7 100.1Z" fill="#242424"/>
<path d="M196.7 100.7V96.9H195.6V95.7H196.7V94H198.3V95.7H199.7V96.9H198.3V100.3C198.3 101 198.6 101.3 199.2 101.3C199.4 101.3 199.5 101.3 199.7 101.3V102.5C199.5 102.5 199.2 102.6 198.9 102.6C197.3 102.6 196.7 102 196.7 100.7Z" fill="#242424"/>
<path d="M207.7 100.7V96.9H206.6V95.7H207.7V94H209.3V95.7H210.7V96.9H209.3V100.3C209.3 101 209.6 101.3 210.2 101.3C210.4 101.3 210.5 101.3 210.7 101.3V102.5C210.5 102.5 210.2 102.6 209.9 102.6C208.3 102.6 207.7 102 207.7 100.7Z" fill="#242424"/>
<path d="M211.5 99.2C211.5 97 212.7 95.7 214.8 95.7C216.8 95.7 218.1 97 218.1 99.2C218.1 101.4 216.9 102.7 214.8 102.7C212.7 102.7 211.5 101.3 211.5 99.2ZM216.5 99.2C216.5 97.8 215.9 96.9 214.8 96.9C213.7 96.9 213.1 97.7 213.1 99.2C213.1 100.6 213.7 101.5 214.8 101.5C215.8 101.4 216.5 100.6 216.5 99.2Z" fill="#242424"/>
<path d="M222.2 98.0999C222.2 95.1999 223.8 93.3999 226.3 93.3999C228.3 93.3999 229.9 94.6999 230.1 96.4999H228.5C228.3 95.3999 227.4 94.6999 226.3 94.6999C224.8 94.6999 223.8 95.9999 223.8 97.9999C223.8 99.9999 224.7 101.3 226.3 101.3C227.4 101.3 228.3 100.7 228.5 99.6999H230.1C229.9 101.5 228.4 102.7 226.3 102.7C223.8 102.7 222.2 101 222.2 98.0999Z" fill="#242424"/>
<path d="M231.5 93.2H233V96.7999H233.1C233.4 96.0999 234.1 95.6 235 95.6C236.5 95.6 237.3 96.5 237.3 98.1V102.5H235.8V98.4999C235.8 97.3999 235.4 96.9 234.4 96.9C233.5 96.9 232.9 97.5 232.9 98.6V102.5H231.4V93.2H231.5Z" fill="#242424"/>
<path d="M238.9 100.1V95.7H240.4V99.7C240.4 100.7 240.8 101.3 241.7 101.3C242.7 101.3 243.2 100.7 243.2 99.6V95.7H244.7V102.5H243.2V101.5H243.1C242.8 102.2 242.1 102.7 241.1 102.7C239.7 102.7 238.9 101.7 238.9 100.1Z" fill="#242424"/>
<path d="M246.4 95.7999H247.9V96.7999H248C248.2 96.0999 248.8 95.7 249.7 95.7C249.9 95.7 250.2 95.6999 250.3 95.7999V97.2C250.1 97.2 249.8 97.1 249.5 97.1C248.5 97.1 247.8 97.7 247.8 98.7V102.6H246.3V95.7999H246.4Z" fill="#242424"/>
<path d="M251.5 95.8H253V96.8H253.1C253.4 96.1 254.1 95.6001 255 95.6001C256.5 95.6001 257.3 96.5001 257.3 98.1001V102.5H255.8V98.5001C255.8 97.4001 255.4 96.9001 254.4 96.9001C253.5 96.9001 252.9 97.5001 252.9 98.6001V102.5H251.4V95.8H251.5Z" fill="#242424"/>
<path d="M282.5 82.7998H347.8C350.1 82.7998 352 84.6998 352 86.9998V109.2C352 111.5 350.1 113.4 347.8 113.4H282.5C280.2 113.4 278.3 111.5 278.3 109.2V87.0999C278.3 84.6999 280.2 82.7998 282.5 82.7998Z" fill="#6856E6"/>
<path fill-rule="evenodd" clip-rule="evenodd" d="M293.1 98.1H298.4C298.5 96.9 298.1 95.3999 297 94.2999C295.8 93.0999 294.3 92.8 293.2 92.9V98.1H293.1ZM292.3 93.6C290 93.8 287.8 95.6999 287.8 98.4999C287.8 101.4 290.3 103.6 293.1 103.3C295.7 103.1 297.4 100.9 297.6 98.7999H292.4V93.6H292.3Z" fill="white"/>
<path fill-rule="evenodd" clip-rule="evenodd" d="M292.3 93.6001V98.9001H297.6C297.5 101 295.8 103.2 293.1 103.4C290.3 103.6 287.8 101.4 287.8 98.5001C287.8 95.7001 290 93.8001 292.3 93.6001Z" fill="white"/>
<path fill-rule="evenodd" clip-rule="evenodd" d="M293.1 98.1001V92.9001C294.3 92.8001 295.8 93.2 296.9 94.3C298 95.5 298.4 97.0001 298.3 98.1001H293.1Z" fill="white"/>
<path d="M307.6 93.5999H309.4L312.6 102.5H310.9L310.2 100.2H306.9L306.2 102.5H304.5L307.6 93.5999ZM307.3 98.9998H309.8L308.6 95.2998H308.5L307.3 98.9998Z" fill="white"/>
<path d="M313 99.0999C313 96.8999 314.2 95.5999 316.2 95.5999C317.9 95.5999 319 96.5998 319.1 97.9998H317.6C317.5 97.2998 317 96.8998 316.1 96.8998C315 96.8998 314.4 97.6999 314.4 99.0999C314.4 100.5 315 101.4 316.1 101.4C316.9 101.4 317.4 101 317.6 100.3H319.1C318.9 101.7 317.9 102.6 316.2 102.6C314.2 102.7 313 101.3 313 99.0999Z" fill="white"/>
<path d="M320.9 100.7V96.8998H319.8V95.6998H320.9V93.9998H322.5V95.6998H323.9V96.8998H322.5V100.3C322.5 101 322.8 101.3 323.4 101.3C323.6 101.3 323.7 101.3 323.9 101.3V102.5C323.7 102.5 323.4 102.6 323.1 102.6C321.6 102.6 320.9 102 320.9 100.7Z" fill="white"/>
<path d="M325.1 93.6998C325.1 93.1998 325.5 92.7998 326 92.7998C326.5 92.7998 326.9 93.1998 326.9 93.6998C326.9 94.1998 326.5 94.5999 326 94.5999C325.5 94.5999 325.1 94.1998 325.1 93.6998ZM325.2 95.7998H326.7V102.6H325.2V95.7998Z" fill="white"/>
<path d="M327.8 95.7998H329.4L331 101.1H331.1L332.7 95.7998H334.3L331.9 102.6H330.2L327.8 95.7998Z" fill="white"/>
<path d="M334.7 99.1997C334.7 97.0997 335.9 95.6997 337.9 95.6997C339.9 95.6997 341 96.9997 341 99.0997V99.5997H336.3C336.3 100.8 337 101.5 338 101.5C338.8 101.5 339.3 101.1 339.5 100.8H341V100.9C340.8 101.8 339.9 102.8 338 102.8C335.9 102.7 334.7 101.3 334.7 99.1997ZM336.3 98.4997H339.5C339.4 97.3997 338.8 96.7997 337.9 96.7997C337 96.7997 336.4 97.3997 336.3 98.4997Z" fill="white"/>
<path d="M60.2 121.8H140.3C142.6 121.8 144.5 123.7 144.5 126V148.2C144.5 150.5 142.6 152.4 140.3 152.4H60.2C57.9 152.4 56 150.5 56 148.2V126.1C56 123.7 57.9 121.8 60.2 121.8Z" fill="#DD5A38"/>
<path fill-rule="evenodd" clip-rule="evenodd" d="M70.7 137.1H75.9C76 135.9 75.6 134.4 74.5 133.3C73.3 132.1 71.8 131.8 70.7 131.9V137.1ZM70 132.6C67.7 132.8 65.5 134.7 65.5 137.5C65.5 140.4 68 142.6 70.8 142.3C73.4 142.1 75.1 139.9 75.3 137.8H70.1V132.6H70Z" fill="white"/>
<path fill-rule="evenodd" clip-rule="evenodd" d="M70 132.6V137.9H75.3C75.2 140 73.5 142.2 70.8 142.4C68 142.6 65.5 140.4 65.5 137.5C65.4 134.7 67.6 132.7 70 132.6Z" fill="white"/>
<path fill-rule="evenodd" clip-rule="evenodd" d="M70.7 137.1V131.9C71.9 131.8 73.3999 132.2 74.4999 133.3C75.5999 134.5 76 136 75.9 137.1C76 137.1 70.7 137.1 70.7 137.1Z" fill="white"/>
<path d="M82 137.1C82 134.2 83.6 132.4 86.1 132.4C88.1 132.4 89.7 133.7 89.9 135.5H88.3C88.1 134.4 87.2 133.7 86.1 133.7C84.6 133.7 83.6 135 83.6 137C83.6 139 84.5 140.3 86.1 140.3C87.2 140.3 88.1 139.7 88.3 138.7H89.9C89.7 140.5 88.2 141.7 86.1 141.7C83.6 141.7 82 139.9 82 137.1Z" fill="white"/>
<path d="M91.3 132.1H92.8V135.7H92.9C93.2 135 93.9 134.5 94.8 134.5C96.3 134.5 97.1 135.4 97.1 137V141.4H95.6V137.4C95.6 136.3 95.2 135.8 94.2 135.8C93.3 135.8 92.7 136.4 92.7 137.5V141.4H91.2V132.1H91.3Z" fill="white"/>
<path d="M98.7 139.1V134.7H100.2V138.7C100.2 139.7 100.6 140.3 101.5 140.3C102.5 140.3 103 139.7 103 138.6V134.7H104.5V141.5H103V140.5H102.9C102.6 141.2 101.9 141.7 100.9 141.7C99.5 141.7 98.7 140.7 98.7 139.1Z" fill="white"/>
<path d="M106.3 134.8H107.8V135.8H107.9C108.1 135.1 108.7 134.7 109.6 134.7C109.8 134.7 110.1 134.7 110.2 134.8V136.2C110 136.2 109.7 136.1 109.4 136.1C108.4 136.1 107.7 136.7 107.7 137.7V141.6H106.2V134.8H106.3Z" fill="white"/>
<path d="M111.3 134.8H112.8V135.8H112.9C113.2 135.1 113.9 134.6 114.8 134.6C116.3 134.6 117.1 135.5 117.1 137.1V141.5H115.6V137.5C115.6 136.4 115.2 135.9 114.2 135.9C113.3 135.9 112.7 136.5 112.7 137.6V141.5H111.2V134.8H111.3Z" fill="white"/>
<path d="M118.5 138.2C118.5 136.1 119.7 134.7 121.7 134.7C123.7 134.7 124.8 136 124.8 138.1V138.6H120.1C120.1 139.8 120.8 140.5 121.8 140.5C122.6 140.5 123.1 140.1 123.3 139.8H124.8V139.9C124.6 140.8 123.7 141.8 121.8 141.8C119.7 141.7 118.5 140.3 118.5 138.2ZM120 137.5H123.2C123.1 136.4 122.5 135.8 121.6 135.8C120.7 135.8 120.2 136.4 120 137.5Z" fill="white"/>
<path d="M125.7 138.1C125.7 135.9 126.8 134.6 128.5 134.6C129.4 134.6 130.2 135.1 130.6 135.8H130.7V132.1H132.2V141.5H130.7V140.4H130.6C130.2 141.1 129.5 141.6 128.5 141.6C126.8 141.6 125.7 140.3 125.7 138.1ZM130.6 138.1C130.6 136.7 129.9 135.9 128.9 135.9C127.9 135.9 127.2 136.7 127.2 138.1C127.2 139.5 127.8 140.3 128.9 140.3C130 140.3 130.6 139.5 130.6 138.1Z" fill="white"/>
<path d="M157.1 121.8H321.5C323.8 121.8 325.7 123.7 325.7 126V148.2C325.7 150.5 323.8 152.4 321.5 152.4H157.1C154.8 152.4 152.9 150.5 152.9 148.2V126.1C152.9 123.7 154.8 121.8 157.1 121.8Z" fill="#F1F0F9"/>
<path fill-rule="evenodd" clip-rule="evenodd" d="M167.7 137.1H173C173.1 135.9 172.7 134.4 171.6 133.3C170.4 132.1 168.9 131.8 167.8 131.9V137.1H167.7ZM166.9 132.6C164.6 132.8 162.4 134.7 162.4 137.5C162.4 140.4 164.9 142.6 167.7 142.3C170.3 142.1 172 139.9 172.2 137.8H166.9V132.6Z" fill="#242424"/>
<path fill-rule="evenodd" clip-rule="evenodd" d="M166.9 132.6V137.9H172.2C172.1 140 170.4 142.2 167.7 142.4C164.9 142.6 162.4 140.4 162.4 137.5C162.4 134.7 164.6 132.7 166.9 132.6Z" fill="#242424"/>
<path fill-rule="evenodd" clip-rule="evenodd" d="M167.7 137.1V131.9C168.9 131.8 170.4 132.2 171.5 133.3C172.6 134.5 173 136 172.9 137.1H167.7Z" fill="#242424"/>
<path d="M179.5 132.6H185.2V133.9H181.1V136.5H184.8V137.8H181.1V141.4H179.5V132.6Z" fill="#242424"/>
<path d="M185.8 139.6C185.8 138.4 186.7 137.7 188.4 137.6L190.1 137.5V136.9C190.1 136.2 189.7 135.9 188.8 135.9C188.1 135.9 187.6 136.2 187.5 136.6H186V136.5C186.1 135.4 187.2 134.6 188.8 134.6C190.5 134.6 191.5 135.4 191.5 136.9V141.5H190V140.6H189.9C189.5 141.3 188.8 141.6 187.9 141.6C186.8 141.6 185.8 140.8 185.8 139.6ZM188.5 140.4C189.4 140.4 190.1 139.8 190.1 139V138.5L188.6 138.6C187.7 138.7 187.3 139 187.3 139.5C187.3 140.1 187.8 140.4 188.5 140.4Z" fill="#242424"/>
<path d="M192.9 138.1C192.9 135.9 194.1 134.6 196.1 134.6C197.8 134.6 198.9 135.6 199 137H197.5C197.4 136.3 196.9 135.9 196 135.9C194.9 135.9 194.3 136.7 194.3 138.1C194.3 139.5 194.9 140.4 196 140.4C196.8 140.4 197.3 140 197.5 139.3H199C198.8 140.7 197.8 141.6 196.1 141.6C194.1 141.7 192.9 140.3 192.9 138.1Z" fill="#242424"/>
<path d="M199.9 138.2C199.9 136.1 201.1 134.7 203.1 134.7C205.1 134.7 206.2 136 206.2 138.1V138.6H201.5C201.5 139.8 202.2 140.5 203.2 140.5C204 140.5 204.5 140.1 204.7 139.8H206.2V139.9C206 140.8 205.1 141.8 203.2 141.8C201.2 141.7 199.9 140.3 199.9 138.2ZM201.5 137.5H204.7C204.6 136.4 204 135.8 203.1 135.8C202.2 135.8 201.6 136.4 201.5 137.5Z" fill="#242424"/>
<path d="M209.2 140.5H209.1V141.6H207.6V132.2H209.1V135.9H209.2C209.6 135.2 210.3 134.7 211.3 134.7C213 134.7 214.1 136 214.1 138.2C214.1 140.3 213 141.7 211.3 141.7C210.3 141.6 209.6 141.2 209.2 140.5ZM212.4 138.1C212.4 136.7 211.8 135.9 210.7 135.9C209.7 135.9 209 136.7 209 138.1C209 139.5 209.6 140.3 210.7 140.3C211.8 140.3 212.4 139.5 212.4 138.1Z" fill="#242424"/>
<path d="M215 138.1C215 135.9 216.2 134.6 218.3 134.6C220.3 134.6 221.6 135.9 221.6 138.1C221.6 140.3 220.4 141.6 218.3 141.6C216.2 141.7 215 140.3 215 138.1ZM219.9 138.1C219.9 136.7 219.3 135.8 218.2 135.8C217.1 135.8 216.5 136.6 216.5 138.1C216.5 139.5 217.1 140.4 218.2 140.4C219.3 140.4 219.9 139.6 219.9 138.1Z" fill="#242424"/>
<path d="M222.4 138.1C222.4 135.9 223.6 134.6 225.7 134.6C227.7 134.6 229 135.9 229 138.1C229 140.3 227.8 141.6 225.7 141.6C223.6 141.7 222.4 140.3 222.4 138.1ZM227.3 138.1C227.3 136.7 226.7 135.8 225.6 135.8C224.5 135.8 223.9 136.6 223.9 138.1C223.9 139.5 224.5 140.4 225.6 140.4C226.7 140.4 227.3 139.6 227.3 138.1Z" fill="#242424"/>
<path d="M230.3 132.1H231.8V137.5H231.9L234.4 134.7H236.2L233.5 137.6L236.4 141.5H234.5L232.3 138.6L231.8 139.1V141.5H230.3V132.1Z" fill="#242424"/>
<path d="M243.1 132.6H244.9L248.1 141.5H246.4L245.7 139.2H242.4L241.7 141.5H240L243.1 132.6ZM242.7 138H245.2L244 134.3H243.9L242.7 138Z" fill="#242424"/>
<path d="M248.4 138.1C248.4 135.9 249.5 134.6 251.2 134.6C252.1 134.6 252.9 135.1 253.3 135.8H253.4V132.1H254.9V141.5H253.4V140.4H253.3C252.9 141.1 252.2 141.6 251.2 141.6C249.5 141.6 248.4 140.3 248.4 138.1ZM253.4 138.1C253.4 136.7 252.7 135.9 251.7 135.9C250.7 135.9 250 136.7 250 138.1C250 139.5 250.6 140.3 251.7 140.3C252.7 140.3 253.4 139.5 253.4 138.1Z" fill="#242424"/>
<path d="M259.8 132.6H261.6L264.3 139.5H264.4L267.1 132.6H268.9V141.5H267.5V135.2H267.4L264.9 141.5H263.8L261.3 135.2H261.2V141.5H259.8V132.6Z" fill="#242424"/>
<path d="M270.4 139.6C270.4 138.4 271.3 137.7 273 137.6L274.7 137.5V136.9C274.7 136.2 274.3 135.9 273.4 135.9C272.7 135.9 272.2 136.2 272.1 136.6H270.6V136.5C270.7 135.4 271.8 134.6 273.4 134.6C275.1 134.6 276.1 135.4 276.1 136.9V141.5H274.6V140.6H274.5C274.1 141.3 273.4 141.6 272.5 141.6C271.3 141.6 270.4 140.8 270.4 139.6ZM273 140.4C273.9 140.4 274.6 139.8 274.6 139V138.5L273.1 138.6C272.2 138.7 271.8 139 271.8 139.5C271.9 140.1 272.4 140.4 273 140.4Z" fill="#242424"/>
<path d="M277.7 143.9V142.7C277.8 142.7 278 142.7 278.2 142.7C278.8 142.7 279.2 142.4 279.4 141.8L279.5 141.5L277.1 134.7H278.8L280.4 140H280.5L282.1 134.7H283.7L281.3 141.6C280.7 143.3 279.9 143.8 278.5 143.8C278.1 143.9 277.9 143.9 277.7 143.9Z" fill="#242424"/>
<path d="M284.6 140.4L287.5 137.4C288.7 136.2 289.1 135.7 289.1 135C289.1 134.2 288.5 133.6 287.6 133.6C286.7 133.6 286 134.2 286 135.1H284.5C284.5 133.4 285.8 132.3 287.7 132.3C289.4 132.3 290.7 133.4 290.7 134.9C290.7 135.9 290.2 136.7 288.6 138.3L286.8 140V140.1H290.8V141.4H284.6V140.4Z" fill="#242424"/>
<path d="M294.5 134.2H294.4L292.2 135.8V134.2L294.5 132.6H296.1V141.5H294.5V134.2Z" fill="#242424"/>
<path d="M120.101 188H384.801C395.901 188 404.901 197 404.901 208.1V382.7C404.901 393.8 395.901 402.8 384.801 402.8H120.101C109.001 402.8 100.001 393.8 100.001 382.7V208.1C99.9008 197 109.001 188 120.101 188Z" fill="white" stroke="#C5C5C5" stroke-miterlimit="10" stroke-linecap="round" stroke-linejoin="round"/>
<path d="M125.601 214.7H126.501L127.501 219.1L128.701 214.7H129.501L130.701 219.1L131.701 214.7H132.601L131.101 220.3H130.301L129.101 216.1L127.901 220.3H127.101L125.601 214.7Z" fill="#121724"/>
<path d="M133.301 215.5C133.201 215.4 133.201 215.3 133.201 215.2C133.201 215.1 133.201 214.9 133.301 214.9C133.401 214.8 133.501 214.8 133.601 214.8C133.701 214.8 133.901 214.8 133.901 214.9C134.001 215 134.001 215.1 134.001 215.2C134.001 215.3 134.001 215.4 133.901 215.5C133.801 215.6 133.701 215.6 133.601 215.6C133.501 215.6 133.401 215.6 133.301 215.5ZM133.201 216.3H134.001V220.4H133.201V216.3Z" fill="#121724"/>
<path d="M134.801 216.3H135.601V216.9C135.701 216.7 135.901 216.5 136.101 216.4C136.301 216.3 136.601 216.2 136.901 216.2C137.301 216.2 137.701 216.3 137.901 216.6C138.101 216.9 138.301 217.2 138.301 217.7V220.4H137.501V217.9C137.501 217.6 137.401 217.4 137.301 217.2C137.201 217 136.901 217 136.601 217C136.401 217 136.201 217 136.101 217.1C136.001 217.2 135.801 217.3 135.801 217.5C135.701 217.7 135.701 217.8 135.701 218.1V220.5H134.901V216.3H134.801Z" fill="#121724"/>
<path d="M139.601 220.2C139.301 220 139.101 219.8 139.001 219.5C138.901 219.2 138.801 218.8 138.801 218.4C138.801 218 138.901 217.6 139.001 217.3C139.101 217 139.301 216.7 139.601 216.6C139.901 216.5 140.201 216.3 140.501 216.3C140.701 216.3 140.901 216.3 141.001 216.4C141.201 216.5 141.301 216.6 141.401 216.7C141.501 216.8 141.601 217 141.701 217.1V214.9H142.501V220.5H141.701V219.8C141.601 220 141.501 220.1 141.401 220.2C141.301 220.3 141.101 220.4 141.001 220.5C140.801 220.6 140.701 220.6 140.501 220.6C140.201 220.4 139.901 220.3 139.601 220.2ZM141.301 219.5C141.501 219.4 141.601 219.2 141.701 219C141.801 218.8 141.801 218.5 141.801 218.3C141.801 218 141.801 217.8 141.701 217.6C141.601 217.4 141.501 217.2 141.301 217.1C141.101 217 141.001 216.9 140.701 216.9C140.501 216.9 140.301 217 140.101 217.1C139.901 217.2 139.801 217.4 139.701 217.6C139.601 217.8 139.601 218.1 139.601 218.3C139.601 218.6 139.601 218.8 139.701 219.1C139.801 219.3 139.901 219.5 140.101 219.6C140.301 219.7 140.501 219.8 140.701 219.8C140.901 219.7 141.101 219.6 141.301 219.5Z" fill="#121724"/>
<path d="M144.101 220.2C143.801 220 143.601 219.8 143.401 219.5C143.201 219.2 143.201 218.8 143.201 218.4C143.201 218 143.301 217.6 143.401 217.3C143.601 217 143.801 216.7 144.101 216.6C144.401 216.4 144.701 216.3 145.101 216.3C145.501 216.3 145.801 216.4 146.101 216.6C146.401 216.8 146.601 217 146.801 217.3C147.001 217.6 147.001 218 147.001 218.4C147.001 218.8 146.901 219.2 146.801 219.5C146.701 219.8 146.401 220.1 146.101 220.2C145.801 220.4 145.501 220.5 145.101 220.5C144.701 220.4 144.401 220.3 144.101 220.2ZM145.701 219.6C145.901 219.5 146.001 219.3 146.101 219.1C146.201 218.9 146.201 218.6 146.201 218.3C146.201 218 146.201 217.7 146.101 217.5C146.001 217.3 145.901 217.1 145.701 217C145.501 216.9 145.301 216.8 145.101 216.8C144.901 216.8 144.701 216.9 144.501 217C144.301 217.1 144.201 217.3 144.101 217.5C144.001 217.7 144.001 218 144.001 218.3C144.001 218.6 144.001 218.9 144.101 219.1C144.201 219.3 144.301 219.5 144.501 219.6C144.701 219.7 144.901 219.8 145.101 219.8C145.301 219.7 145.501 219.7 145.701 219.6Z" fill="#121724"/>
<path d="M147.201 216.3H148.001L148.701 219.5L149.501 216.3H150.301L151.201 219.5L151.901 216.3H152.701L151.601 220.4H150.701L149.801 217.3L148.901 220.4H148.001L147.201 216.3Z" fill="#121724"/>
<path d="M155.701 220.3C155.401 220.2 155.101 220 154.901 219.8C154.701 219.6 154.601 219.3 154.601 218.9V218.8H155.501V218.9C155.501 219.1 155.601 219.2 155.701 219.3C155.801 219.4 156.001 219.5 156.201 219.6C156.401 219.7 156.601 219.7 156.901 219.7C157.201 219.7 157.401 219.7 157.601 219.6C157.801 219.5 157.901 219.4 158.001 219.3C158.101 219.2 158.101 219 158.101 218.8C158.101 218.6 158.001 218.4 157.901 218.3C157.701 218.2 157.501 218.1 157.101 218L156.501 217.9C155.901 217.8 155.501 217.6 155.301 217.3C155.001 217 154.901 216.7 154.901 216.3C154.901 216 155.001 215.7 155.201 215.5C155.401 215.3 155.601 215.1 155.901 214.9C156.201 214.8 156.601 214.7 157.001 214.7C157.401 214.7 157.701 214.8 158.001 214.9C158.301 215 158.501 215.2 158.701 215.5C158.901 215.7 159.001 216 159.001 216.3V216.4H158.101V216.3C158.101 216.1 158.001 216 157.901 215.8C157.801 215.7 157.701 215.6 157.501 215.5C157.301 215.4 157.101 215.4 156.901 215.4C156.701 215.4 156.501 215.4 156.301 215.5C156.101 215.6 156.001 215.7 155.901 215.8C155.801 215.9 155.801 216.1 155.801 216.2C155.801 216.4 155.901 216.6 156.001 216.7C156.201 216.8 156.401 216.9 156.801 217L157.401 217.1C157.801 217.2 158.101 217.3 158.301 217.4C158.501 217.5 158.701 217.7 158.801 217.9C158.901 218.1 159.001 218.4 159.001 218.6C159.001 218.9 158.901 219.2 158.701 219.5C158.501 219.8 158.301 219.9 158.001 220.1C157.701 220.2 157.301 220.3 156.901 220.3C156.401 220.4 156.001 220.4 155.701 220.3Z" fill="#121724"/>
<path d="M159.501 214.7H160.301V216.9C160.401 216.7 160.601 216.5 160.801 216.3C161.001 216.2 161.301 216.1 161.601 216.1C161.901 216.1 162.101 216.2 162.401 216.3C162.601 216.4 162.801 216.6 162.901 216.9C163.001 217.1 163.101 217.4 163.101 217.8V220.3H162.201V218C162.201 217.7 162.101 217.4 162.001 217.2C161.901 217 161.601 216.9 161.301 216.9C161.101 216.9 160.901 216.9 160.801 217C160.701 217.1 160.501 217.2 160.501 217.4C160.501 217.6 160.401 217.7 160.401 218V220.4H159.601V214.7H159.501Z" fill="#121724"/>
<path d="M164.501 220.2C164.201 220 164.001 219.8 163.801 219.5C163.601 219.2 163.601 218.8 163.601 218.4C163.601 218 163.701 217.6 163.801 217.3C164.001 217 164.201 216.7 164.501 216.6C164.801 216.4 165.101 216.3 165.501 216.3C165.901 216.3 166.201 216.4 166.501 216.6C166.801 216.8 167.001 217 167.201 217.3C167.401 217.6 167.401 218 167.401 218.4C167.401 218.8 167.301 219.2 167.201 219.5C167.101 219.8 166.801 220.1 166.501 220.2C166.201 220.4 165.901 220.5 165.501 220.5C165.101 220.4 164.801 220.3 164.501 220.2ZM166.101 219.6C166.301 219.5 166.401 219.3 166.501 219.1C166.601 218.9 166.601 218.6 166.601 218.3C166.601 218 166.601 217.7 166.501 217.5C166.401 217.3 166.301 217.1 166.101 217C165.901 216.9 165.701 216.8 165.501 216.8C165.301 216.8 165.101 216.9 164.901 217C164.701 217.1 164.601 217.3 164.501 217.5C164.401 217.7 164.401 218 164.401 218.3C164.401 218.6 164.401 218.9 164.501 219.1C164.601 219.3 164.701 219.5 164.901 219.6C165.101 219.7 165.301 219.8 165.501 219.8C165.701 219.7 165.901 219.7 166.101 219.6Z" fill="#121724"/>
<path d="M167.901 216.3H168.701V217C168.801 216.8 168.901 216.7 169.001 216.6C169.101 216.5 169.301 216.4 169.401 216.3C169.501 216.2 169.701 216.2 169.901 216.2C170.201 216.2 170.601 216.3 170.801 216.5C171.101 216.7 171.301 216.9 171.401 217.2C171.501 217.5 171.601 217.9 171.601 218.3C171.601 218.7 171.501 219.1 171.401 219.4C171.301 219.7 171.101 220 170.801 220.1C170.501 220.3 170.201 220.4 169.901 220.4C169.701 220.4 169.501 220.4 169.401 220.3C169.301 220.2 169.101 220.1 169.001 220C168.901 219.9 168.801 219.7 168.701 219.6V221.7H167.901V216.3ZM170.401 219.5C170.601 219.4 170.701 219.2 170.801 219C170.901 218.8 170.901 218.5 170.901 218.3C170.901 218 170.901 217.8 170.801 217.5C170.701 217.3 170.601 217.1 170.401 217C170.201 216.9 170.001 216.8 169.801 216.8C169.601 216.8 169.401 216.9 169.201 217C169.001 217.1 168.901 217.3 168.801 217.5C168.701 217.7 168.701 218 168.701 218.2C168.701 218.5 168.701 218.7 168.801 218.9C168.901 219.1 169.001 219.3 169.201 219.4C169.401 219.5 169.601 219.6 169.801 219.6C170.101 219.7 170.301 219.6 170.401 219.5Z" fill="#121724"/>
<path d="M172.301 216.3H173.101V217C173.201 216.8 173.301 216.7 173.401 216.6C173.501 216.5 173.701 216.4 173.801 216.3C173.901 216.2 174.101 216.2 174.301 216.2C174.601 216.2 175.001 216.3 175.201 216.5C175.501 216.7 175.701 216.9 175.801 217.2C175.901 217.5 176.001 217.9 176.001 218.3C176.001 218.7 175.901 219.1 175.801 219.4C175.701 219.7 175.501 220 175.201 220.1C174.901 220.3 174.601 220.4 174.301 220.4C174.101 220.4 173.901 220.4 173.801 220.3C173.701 220.2 173.501 220.1 173.401 220C173.301 219.9 173.201 219.7 173.101 219.6V221.7H172.301V216.3ZM174.801 219.5C175.001 219.4 175.101 219.2 175.201 219C175.301 218.8 175.301 218.5 175.301 218.3C175.301 218 175.301 217.8 175.201 217.5C175.101 217.3 175.001 217.1 174.801 217C174.601 216.9 174.401 216.8 174.201 216.8C174.001 216.8 173.801 216.9 173.601 217C173.401 217.1 173.301 217.3 173.201 217.5C173.101 217.7 173.101 218 173.101 218.2C173.101 218.5 173.101 218.7 173.201 218.9C173.301 219.1 173.401 219.3 173.601 219.4C173.801 219.5 174.001 219.6 174.201 219.6C174.401 219.7 174.601 219.6 174.801 219.5Z" fill="#121724"/>
<path d="M177.301 220.2C177.001 220 176.801 219.8 176.601 219.5C176.401 219.2 176.401 218.8 176.401 218.4C176.401 218 176.501 217.6 176.601 217.3C176.801 217 177.001 216.7 177.301 216.6C177.601 216.5 177.901 216.3 178.301 216.3C178.701 216.3 179.001 216.4 179.301 216.6C179.601 216.8 179.801 217 179.901 217.3C180.101 217.6 180.101 218 180.101 218.4V218.7H176.801V218.1H179.701L179.301 218.7V218.4C179.301 218.1 179.301 217.9 179.201 217.7C179.101 217.5 179.001 217.4 178.801 217.3C178.601 217.2 178.501 217.2 178.301 217.2C178.101 217.2 177.901 217.2 177.801 217.3C177.601 217.4 177.501 217.5 177.401 217.7C177.301 217.9 177.301 218.1 177.301 218.4V218.7C177.301 219 177.301 219.2 177.401 219.4C177.501 219.6 177.601 219.7 177.801 219.8C178.001 219.9 178.201 219.9 178.401 219.9C178.601 219.9 178.701 219.9 178.801 219.8C178.901 219.7 179.001 219.7 179.101 219.6C179.201 219.5 179.201 219.4 179.301 219.3H180.101C180.101 219.5 180.001 219.6 179.901 219.8C179.801 219.9 179.701 220.1 179.501 220.2C179.301 220.3 179.201 220.4 179.001 220.5C178.801 220.6 178.601 220.6 178.301 220.6C178.001 220.4 177.601 220.3 177.301 220.2Z" fill="#121724"/>
<path d="M180.701 216.3H181.501V217C181.601 216.8 181.701 216.6 181.801 216.4C182.001 216.3 182.201 216.2 182.401 216.2C182.501 216.2 182.501 216.2 182.601 216.2C182.701 216.2 182.701 216.2 182.701 216.2V217C182.701 217 182.601 217 182.501 217C182.401 217 182.401 217 182.301 217C182.101 217 182.001 217 181.801 217.1C181.601 217.2 181.601 217.3 181.501 217.4C181.401 217.5 181.401 217.7 181.401 217.9V220.3H180.601V216.3H180.701Z" fill="#121724"/>
<path d="M183.801 220.3C183.601 220.2 183.401 220 183.201 219.9C183.101 219.7 183.001 219.5 182.901 219.2H183.701C183.701 219.4 183.801 219.5 184.001 219.6C184.101 219.7 184.301 219.8 184.601 219.8C184.801 219.8 184.901 219.8 185.001 219.7C185.101 219.7 185.201 219.6 185.301 219.5C185.401 219.4 185.401 219.3 185.401 219.2C185.401 219.1 185.401 219 185.301 218.9C185.201 218.8 185.101 218.8 184.801 218.7L184.101 218.5C183.801 218.4 183.601 218.4 183.501 218.3C183.301 218.2 183.201 218.1 183.101 217.9C183.001 217.7 183.001 217.6 183.001 217.4C183.001 217.2 183.101 216.9 183.201 216.8C183.301 216.6 183.501 216.5 183.801 216.4C184.101 216.3 184.301 216.2 184.601 216.2C184.901 216.2 185.201 216.3 185.401 216.4C185.601 216.5 185.801 216.7 185.901 216.8C186.001 217 186.101 217.2 186.101 217.4H185.301C185.301 217.2 185.201 217.1 185.101 217C185.001 216.9 184.801 216.8 184.501 216.8C184.301 216.8 184.201 216.8 184.101 216.9C184.001 216.9 183.901 217 183.801 217.1C183.701 217.2 183.701 217.3 183.701 217.4C183.701 217.5 183.701 217.6 183.801 217.6C183.801 217.7 183.901 217.7 184.001 217.8C184.101 217.9 184.201 217.9 184.401 217.9L185.101 218.1C185.501 218.2 185.801 218.3 186.001 218.5C186.201 218.7 186.301 218.9 186.301 219.2C186.301 219.4 186.201 219.7 186.101 219.9C186.001 220.1 185.801 220.2 185.501 220.3C185.201 220.4 185.001 220.5 184.601 220.5C184.301 220.4 184.001 220.4 183.801 220.3Z" fill="#121724"/>
<path fill-rule="evenodd" clip-rule="evenodd" d="M205.801 216.5H205.101V215.8H205.801V216.5ZM205.801 219.3H205.101V217.2H205.801V219.3ZM205.501 214.1C203.601 214.1 202.101 215.6 202.101 217.5C202.101 219.4 203.601 220.9 205.501 220.9C207.401 220.9 208.901 219.4 208.901 217.5C208.901 215.7 207.401 214.1 205.501 214.1Z" fill="#242424"/>
<path d="M127.801 242.1C127.301 241.9 126.901 241.6 126.601 241.2C126.301 240.8 126.101 240.4 126.101 239.8V239.7H127.301V239.8C127.301 240.1 127.501 240.4 127.601 240.6C127.801 240.8 128.101 241 128.401 241.2C128.701 241.3 129.101 241.4 129.501 241.4C129.901 241.4 130.301 241.3 130.601 241.2C130.901 241.1 131.201 240.8 131.301 240.6C131.501 240.3 131.601 240 131.601 239.7C131.601 239.1 131.401 238.7 131.001 238.3C130.601 237.9 130.101 237.8 129.401 237.8H128.201V236.8H129.401C129.801 236.8 130.101 236.7 130.401 236.6C130.701 236.5 130.901 236.3 131.101 236C131.301 235.7 131.301 235.5 131.301 235.1C131.301 234.8 131.201 234.5 131.101 234.2C131.001 234 130.701 233.8 130.501 233.7C130.201 233.6 129.901 233.5 129.501 233.5C129.101 233.5 128.801 233.6 128.501 233.7C128.201 233.8 128.001 234 127.801 234.2C127.601 234.4 127.501 234.7 127.501 235V235.1H126.301V235C126.401 234.5 126.501 234 126.801 233.6C127.101 233.2 127.401 232.9 127.901 232.7C128.401 232.5 128.901 232.4 129.501 232.4C130.101 232.4 130.601 232.5 131.101 232.7C131.601 232.9 131.901 233.2 132.201 233.6C132.501 234 132.601 234.4 132.601 234.9C132.601 235.3 132.501 235.6 132.301 236C132.101 236.3 131.901 236.6 131.601 236.8C131.301 237 130.901 237.1 130.501 237.2C131.201 237.3 131.801 237.5 132.201 237.9C132.601 238.3 132.901 238.9 132.901 239.6C132.901 240.1 132.801 240.6 132.501 241C132.201 241.4 131.801 241.8 131.301 242C130.801 242.2 130.201 242.4 129.601 242.4C128.801 242.5 128.201 242.3 127.801 242.1Z" fill="#121724"/>
<path d="M134.101 241.5L137.501 238C137.901 237.5 138.301 237.2 138.501 236.9C138.701 236.6 138.901 236.3 139.001 236.1C139.101 235.9 139.101 235.6 139.101 235.3C139.101 235 139.001 234.7 138.901 234.4C138.701 234.1 138.501 233.9 138.301 233.8C138.001 233.7 137.701 233.6 137.401 233.6C137.001 233.6 136.601 233.7 136.301 233.9C136.001 234.1 135.701 234.3 135.601 234.6C135.501 234.9 135.301 235.2 135.301 235.5H134.101C134.101 234.9 134.201 234.4 134.501 234C134.801 233.6 135.201 233.2 135.701 233C136.201 232.7 136.701 232.6 137.301 232.6C137.901 232.6 138.401 232.7 138.901 233C139.401 233.3 139.701 233.6 140.001 234C140.301 234.4 140.401 234.9 140.401 235.4C140.401 235.8 140.301 236.1 140.201 236.4C140.101 236.7 139.801 237.1 139.501 237.5C139.201 237.9 138.701 238.4 138.101 239L135.501 241.7L135.901 241V241.7L135.501 241.4H140.601V242.5H134.201V241.5H134.101Z" fill="#121724"/>
<path d="M141.601 240.9H142.801L141.801 244.2H141.001L141.601 240.9Z" fill="#121724"/>
<path d="M148.701 233.8H143.501V232.7H149.901V233.8L145.601 242.3H144.301L148.701 233.8Z" fill="#121724"/>
<path d="M153.001 242.2C152.601 242 152.201 241.8 151.801 241.4C151.401 241 151.201 240.5 151.001 239.9C150.801 239.3 150.701 238.5 150.701 237.6C150.701 236.5 150.801 235.6 151.101 234.8C151.401 234 151.801 233.4 152.401 233C153.001 232.6 153.601 232.4 154.401 232.4C154.901 232.4 155.401 232.5 155.901 232.7C156.401 232.9 156.701 233.2 157.001 233.5C157.301 233.9 157.501 234.3 157.601 234.7V234.8H156.401V234.7C156.301 234.4 156.201 234.2 156.001 234C155.801 233.8 155.601 233.7 155.301 233.6C155.001 233.5 154.701 233.4 154.401 233.4C153.801 233.4 153.301 233.6 153.001 233.9C152.601 234.2 152.401 234.7 152.201 235.3C152.001 235.9 151.901 236.5 151.901 237.2V237.3V237.4L152.201 239C152.201 239.4 152.301 239.8 152.501 240.1C152.701 240.4 153.001 240.7 153.301 240.9C153.601 241.1 154.001 241.2 154.401 241.2C154.801 241.2 155.201 241.1 155.501 240.9C155.801 240.7 156.101 240.4 156.301 240.1C156.501 239.8 156.601 239.4 156.601 239C156.601 238.6 156.501 238.2 156.301 237.9C156.101 237.6 155.901 237.3 155.501 237.1C155.201 236.9 154.801 236.8 154.401 236.8C154.001 236.8 153.601 236.9 153.301 237.1C153.001 237.3 152.701 237.5 152.501 237.9C152.301 238.2 152.201 238.6 152.201 239H151.801V237.4H151.901C152.001 237.1 152.201 236.9 152.501 236.6C152.801 236.4 153.101 236.2 153.401 236C153.801 235.9 154.201 235.8 154.601 235.8C155.201 235.8 155.801 235.9 156.201 236.2C156.701 236.5 157.101 236.9 157.301 237.3C157.601 237.8 157.701 238.3 157.701 238.9C157.701 239.5 157.601 240.1 157.301 240.6C157.001 241.1 156.601 241.5 156.101 241.8C155.601 242.1 155.001 242.2 154.301 242.2C153.901 242.5 153.501 242.4 153.001 242.2Z" fill="#121724"/>
<path d="M163.601 240.3H158.801V239.2C159.101 238.8 159.401 238.3 159.601 237.9C159.801 237.5 160.201 237 160.401 236.6C160.601 236.2 161.001 235.7 161.201 235.3C161.501 234.9 161.801 234.4 162.001 234C162.301 233.6 162.601 233.1 162.801 232.7H164.601V239.3H166.001V240.4H164.601V242.4H163.401V240.3H163.601ZM163.601 239.2V233.7C163.401 234.1 163.101 234.4 162.901 234.8C162.701 235.2 162.401 235.5 162.201 235.9C162.001 236.3 161.701 236.6 161.501 237C161.301 237.4 161.001 237.7 160.801 238.1C160.601 238.5 160.301 238.8 160.101 239.2H163.601Z" fill="#121724"/>
<path d="M173.101 241.7C172.701 241.5 172.401 241.1 172.201 240.7C172.001 240.3 171.901 239.7 171.901 239.2C171.901 238.6 172.001 238.1 172.201 237.7C172.401 237.3 172.701 236.9 173.101 236.7C173.501 236.5 174.001 236.3 174.501 236.3C174.901 236.3 175.301 236.4 175.601 236.5C175.901 236.7 176.201 236.9 176.401 237.2C176.601 237.5 176.801 237.8 176.801 238.2H175.901V238.1C175.801 237.9 175.701 237.7 175.601 237.5C175.501 237.3 175.301 237.2 175.101 237.1C174.901 237 174.701 237 174.401 237C174.101 237 173.801 237.1 173.501 237.3C173.201 237.5 173.001 237.7 172.901 238C172.801 238.3 172.701 238.7 172.701 239.1C172.701 239.5 172.801 239.9 172.901 240.2C173.001 240.5 173.201 240.8 173.501 240.9C173.801 241.1 174.101 241.2 174.401 241.2C174.601 241.2 174.901 241.2 175.101 241.1C175.301 241 175.501 240.9 175.601 240.7C175.701 240.5 175.801 240.3 175.901 240.1H176.801C176.701 240.5 176.601 240.8 176.401 241.1C176.201 241.4 175.901 241.6 175.601 241.8C175.301 242 174.901 242 174.501 242C174.001 242.1 173.501 242 173.101 241.7Z" fill="#121724"/>
<path d="M178.001 241.9C177.801 241.8 177.601 241.6 177.501 241.4C177.401 241.2 177.301 240.9 177.301 240.6V237.9H178.101V240.4C178.101 240.7 178.201 240.9 178.301 241.1C178.401 241.3 178.701 241.3 179.001 241.3C179.201 241.3 179.301 241.3 179.401 241.2C179.501 241.1 179.601 241.1 179.701 241C179.801 240.9 179.901 240.8 179.901 240.7C179.901 240.6 180.001 240.4 180.001 240.3V237.9H180.801V242H180.001V241.4C179.901 241.5 179.801 241.7 179.701 241.8C179.601 241.9 179.401 242 179.301 242C179.101 242.1 179.001 242.1 178.701 242.1C178.501 242.1 178.201 242 178.001 241.9Z" fill="#121724"/>
<path d="M182.201 241.9C182.001 241.8 181.801 241.6 181.601 241.5C181.501 241.3 181.401 241.1 181.301 240.8H182.101C182.101 241 182.201 241.1 182.401 241.2C182.501 241.3 182.701 241.4 183.001 241.4C183.201 241.4 183.301 241.4 183.401 241.3C183.501 241.3 183.601 241.2 183.701 241.1C183.801 241 183.801 240.9 183.801 240.8C183.801 240.7 183.801 240.6 183.701 240.5C183.601 240.4 183.501 240.4 183.201 240.3L182.501 240.1C182.201 240 182.001 240 181.901 239.9C181.701 239.8 181.601 239.7 181.501 239.5C181.401 239.3 181.401 239.2 181.401 239C181.401 238.8 181.501 238.5 181.601 238.4C181.701 238.2 181.901 238.1 182.201 238C182.501 237.9 182.701 237.8 183.001 237.8C183.301 237.8 183.601 237.9 183.801 238C184.001 238.1 184.201 238.3 184.301 238.4C184.401 238.6 184.501 238.8 184.501 239H183.701C183.701 238.8 183.601 238.7 183.501 238.6C183.401 238.5 183.201 238.4 182.901 238.4C182.701 238.4 182.601 238.4 182.501 238.5C182.401 238.5 182.301 238.6 182.201 238.7C182.101 238.8 182.101 238.9 182.101 239C182.101 239.1 182.101 239.2 182.201 239.2C182.201 239.3 182.301 239.3 182.401 239.4C182.501 239.5 182.601 239.5 182.801 239.5L183.501 239.7C183.901 239.8 184.201 239.9 184.401 240.1C184.601 240.3 184.701 240.5 184.701 240.8C184.701 241 184.601 241.3 184.501 241.5C184.401 241.7 184.201 241.8 183.901 241.9C183.601 242 183.401 242.1 183.001 242.1C182.801 242.1 182.501 242 182.201 241.9Z" fill="#121724"/>
<path d="M185.801 241.8C185.601 241.6 185.501 241.3 185.501 240.9V238.6H184.901V237.9H185.501V236.8H186.401V237.9H187.201V238.6H186.401V240.9C186.401 241.1 186.401 241.3 186.501 241.3C186.601 241.3 186.701 241.4 186.901 241.4H187.001H187.101V242.1C187.101 242.1 187.001 242.1 186.901 242.1C186.801 242.1 186.701 242.1 186.701 242.1C186.301 242.1 186.001 242 185.801 241.8Z" fill="#121724"/>
<path d="M188.301 241.8C188.001 241.6 187.801 241.4 187.601 241.1C187.401 240.8 187.401 240.4 187.401 240C187.401 239.6 187.501 239.2 187.601 238.9C187.801 238.6 188.001 238.3 188.301 238.2C188.601 238 188.901 237.9 189.301 237.9C189.701 237.9 190.001 238 190.301 238.2C190.601 238.4 190.801 238.6 191.001 238.9C191.201 239.2 191.201 239.6 191.201 240C191.201 240.4 191.101 240.8 191.001 241.1C190.901 241.4 190.601 241.7 190.301 241.8C190.001 242 189.701 242.1 189.301 242.1C188.901 242.1 188.601 242 188.301 241.8ZM189.901 241.2C190.101 241.1 190.201 240.9 190.301 240.7C190.401 240.5 190.401 240.2 190.401 239.9C190.401 239.6 190.401 239.3 190.301 239.1C190.201 238.9 190.101 238.7 189.901 238.6C189.701 238.5 189.501 238.4 189.301 238.4C189.101 238.4 188.901 238.5 188.701 238.6C188.501 238.7 188.401 238.9 188.301 239.1C188.201 239.3 188.201 239.6 188.201 239.9C188.201 240.2 188.201 240.5 188.301 240.7C188.401 240.9 188.501 241.1 188.701 241.2C188.901 241.3 189.101 241.4 189.301 241.4C189.601 241.4 189.701 241.3 189.901 241.2Z" fill="#121724"/>
<path d="M191.801 237.9H192.601V238.5C192.701 238.3 192.801 238.1 193.001 238C193.201 237.9 193.401 237.8 193.701 237.8C193.901 237.8 194.101 237.8 194.201 237.9C194.301 238 194.501 238.1 194.601 238.2C194.701 238.3 194.801 238.5 194.801 238.6C194.901 238.4 195.001 238.3 195.101 238.2C195.201 238.1 195.401 238 195.501 237.9C195.601 237.8 195.801 237.8 196.001 237.8C196.301 237.8 196.501 237.9 196.701 238C196.901 238.1 197.101 238.3 197.201 238.5C197.301 238.7 197.401 238.9 197.401 239.2V242H196.601V239.4C196.601 239.2 196.601 239.1 196.501 238.9C196.401 238.8 196.401 238.7 196.201 238.6C196.001 238.5 195.901 238.5 195.801 238.5C195.601 238.5 195.501 238.5 195.401 238.6C195.301 238.7 195.201 238.8 195.101 238.9C195.001 239 195.001 239.2 195.001 239.4V242H194.201V239.3C194.201 239.1 194.201 239 194.101 238.9C194.001 238.8 193.901 238.7 193.801 238.6C193.701 238.5 193.501 238.5 193.401 238.5C193.201 238.5 193.101 238.5 193.001 238.6C192.901 238.7 192.801 238.8 192.701 238.9C192.601 239 192.601 239.2 192.601 239.4V241.9H191.801V237.9Z" fill="#121724"/>
<path d="M198.901 241.8C198.601 241.6 198.401 241.4 198.201 241.1C198.001 240.8 198.001 240.4 198.001 240C198.001 239.6 198.101 239.2 198.201 238.9C198.401 238.6 198.601 238.3 198.901 238.2C199.201 238.1 199.501 237.9 199.901 237.9C200.301 237.9 200.601 238 200.901 238.2C201.201 238.4 201.401 238.6 201.501 238.9C201.701 239.2 201.701 239.6 201.701 240V240.3H198.401V239.7H201.301L200.901 240.3V240C200.901 239.7 200.901 239.5 200.801 239.3C200.701 239.1 200.601 239 200.401 238.9C200.201 238.8 200.101 238.8 199.901 238.8C199.701 238.8 199.501 238.8 199.401 238.9C199.201 239 199.101 239.1 199.001 239.3C198.901 239.5 198.901 239.7 198.901 240V240.3C198.901 240.6 198.901 240.8 199.001 241C199.101 241.2 199.201 241.3 199.401 241.4C199.601 241.5 199.801 241.5 200.001 241.5C200.201 241.5 200.301 241.5 200.401 241.4C200.501 241.3 200.601 241.3 200.701 241.2C200.801 241.1 200.801 241 200.901 240.9H201.701C201.701 241.1 201.601 241.2 201.501 241.4C201.401 241.5 201.301 241.7 201.101 241.8C200.901 241.9 200.801 242 200.601 242.1C200.401 242.2 200.201 242.2 199.901 242.2C199.501 242.1 199.201 242 198.901 241.8Z" fill="#121724"/>
<path d="M202.201 237.9H203.001V238.6C203.101 238.4 203.201 238.2 203.301 238C203.501 237.9 203.701 237.8 203.901 237.8C204.001 237.8 204.001 237.8 204.101 237.8C204.201 237.8 204.201 237.8 204.201 237.8V238.6C204.201 238.6 204.101 238.6 204.001 238.6C203.901 238.6 203.901 238.6 203.801 238.6C203.601 238.6 203.501 238.6 203.301 238.7C203.101 238.8 203.101 238.9 203.001 239C202.901 239.1 202.901 239.3 202.901 239.5V241.9H202.201V237.9Z" fill="#121724"/>
<path d="M205.401 241.9C205.201 241.8 205.001 241.6 204.801 241.5C204.701 241.3 204.601 241.1 204.501 240.8H205.301C205.301 241 205.401 241.1 205.601 241.2C205.701 241.3 205.901 241.4 206.201 241.4C206.401 241.4 206.501 241.4 206.601 241.3C206.701 241.3 206.801 241.2 206.901 241.1C207.001 241 207.001 240.9 207.001 240.8C207.001 240.7 207.001 240.6 206.901 240.5C206.801 240.4 206.701 240.4 206.401 240.3L205.701 240.1C205.401 240 205.201 240 205.101 239.9C204.901 239.8 204.801 239.7 204.701 239.5C204.601 239.3 204.601 239.2 204.601 239C204.601 238.8 204.701 238.5 204.801 238.4C204.901 238.2 205.101 238.1 205.401 238C205.701 237.9 205.901 237.8 206.201 237.8C206.501 237.8 206.801 237.9 207.001 238C207.201 238.1 207.401 238.3 207.501 238.4C207.601 238.6 207.701 238.8 207.701 239H206.901C206.901 238.8 206.801 238.7 206.701 238.6C206.601 238.5 206.401 238.4 206.101 238.4C205.901 238.4 205.801 238.4 205.701 238.5C205.601 238.5 205.501 238.6 205.401 238.7C205.301 238.8 205.301 238.9 205.301 239C205.301 239.1 205.301 239.2 205.401 239.2C205.401 239.3 205.501 239.3 205.601 239.4C205.701 239.5 205.801 239.5 206.001 239.5L206.701 239.7C207.101 239.8 207.401 239.9 207.601 240.1C207.801 240.3 207.901 240.5 207.901 240.8C207.901 241 207.801 241.3 207.701 241.5C207.601 241.7 207.401 241.8 207.101 241.9C206.801 242 206.601 242.1 206.201 242.1C205.901 242.1 205.601 242 205.401 241.9Z" fill="#121724"/>
<path d="M137.101 365.6L172.901 308.3V295.4L190.801 276.1L222.301 295.4H261.801L290.301 272.6C290.301 272.6 341.901 249 341.901 249.2C341.901 249.4 367.601 249.2 367.601 249.2" stroke="#6A58E5"/>
<path d="M127.901 373.7L126.601 374.6V373.9L127.801 373H128.501V377.7H127.801V373.7H127.901Z" fill="black"/>
<path d="M132.001 373.6H129.501V373H132.701V373.6L130.601 377.7H129.801L132.001 373.6Z" fill="black"/>
<path d="M135.901 373H136.501V373.8H136.301L135.001 377.7H134.201L135.901 373ZM135.201 375.8H137.301L137.501 376.4H134.901L135.201 375.8ZM136.301 373.7V373H136.701L138.401 377.7H137.601L136.301 373.7Z" fill="black"/>
<path d="M139.601 377.5C139.301 377.4 139.101 377.2 138.901 376.9C138.701 376.6 138.701 376.3 138.701 376V373H139.401V376C139.401 376.2 139.401 376.4 139.501 376.6C139.601 376.8 139.701 376.9 139.901 377C140.101 377.1 140.301 377.1 140.501 377.1C140.701 377.1 141.001 377.1 141.101 377C141.201 376.9 141.401 376.8 141.501 376.6C141.601 376.4 141.601 376.2 141.601 376V373H142.301V376.1C142.301 376.4 142.201 376.7 142.101 377C141.901 377.3 141.701 377.5 141.401 377.6C141.101 377.7 140.801 377.8 140.401 377.8C140.201 377.8 139.901 377.7 139.601 377.5Z" fill="black"/>
<path d="M144.401 377.6C144.101 377.5 143.901 377.3 143.701 377.1C143.501 376.9 143.401 376.6 143.301 376.3C143.201 376 143.101 375.7 143.101 375.3C143.101 374.8 143.201 374.4 143.401 374C143.601 373.6 143.801 373.4 144.201 373.2C144.601 373 144.901 372.9 145.401 372.9C145.801 372.9 146.101 373 146.401 373.1C146.701 373.2 146.901 373.4 147.101 373.6C147.301 373.8 147.401 374.1 147.501 374.4V374.5H146.701C146.601 374.2 146.401 374 146.201 373.9C146.001 373.8 145.701 373.7 145.401 373.7C145.101 373.7 144.801 373.8 144.601 373.9C144.401 374 144.201 374.2 144.101 374.5C144.001 374.8 143.901 375.1 143.901 375.4C143.901 375.7 143.901 375.9 144.001 376.2C144.101 376.4 144.201 376.6 144.301 376.8C144.401 377 144.601 377.1 144.801 377.2C145.001 377.3 145.201 377.3 145.401 377.3C145.701 377.3 145.901 377.2 146.101 377.1C146.301 377 146.401 376.9 146.601 376.7C146.701 376.5 146.801 376.3 146.801 376.1V376H145.601V375.4H147.601V375.9C147.601 376.2 147.601 376.5 147.501 376.8C147.401 377.1 147.301 377.3 147.101 377.4C146.901 377.6 146.701 377.7 146.501 377.8C146.201 377.9 146.001 377.9 145.601 377.9C145.001 377.8 144.701 377.7 144.401 377.6Z" fill="black"/>
<path d="M160.801 373.7L159.501 374.6V373.9L160.701 373H161.401V377.7H160.701V373.7H160.801Z" fill="black"/>
<path d="M163.301 377.6C163.001 377.5 162.801 377.3 162.701 377.1C162.501 376.9 162.501 376.7 162.501 376.4C162.501 376.2 162.501 376 162.601 375.9C162.701 375.7 162.801 375.6 163.001 375.5C163.201 375.4 163.301 375.3 163.501 375.3C163.201 375.2 163.001 375.1 162.901 374.9C162.701 374.7 162.701 374.5 162.701 374.2C162.701 374 162.801 373.7 162.901 373.6C163.001 373.5 163.201 373.3 163.501 373.2C163.701 373.1 164.001 373 164.301 373C164.601 373 164.901 373.1 165.101 373.2C165.301 373.3 165.501 373.5 165.701 373.6C165.901 373.7 165.901 374 165.901 374.2C165.901 374.5 165.801 374.7 165.701 374.9C165.501 375.1 165.301 375.2 165.101 375.3C165.301 375.3 165.501 375.4 165.601 375.5C165.701 375.6 165.901 375.8 166.001 375.9C166.101 376.1 166.101 376.2 166.101 376.4C166.101 376.7 166.001 376.9 165.901 377.1C165.701 377.3 165.501 377.5 165.301 377.6C165.001 377.7 164.701 377.8 164.401 377.8C163.901 377.8 163.601 377.7 163.301 377.6ZM164.801 377.1C165.001 377 165.101 376.9 165.201 376.8C165.301 376.7 165.301 376.5 165.301 376.4C165.301 376.2 165.301 376.1 165.201 376C165.101 375.9 165.001 375.8 164.801 375.7C164.601 375.6 164.501 375.6 164.301 375.6C164.101 375.6 163.901 375.6 163.801 375.7C163.601 375.8 163.501 375.9 163.401 376C163.301 376.1 163.301 376.3 163.301 376.4C163.301 376.6 163.301 376.7 163.401 376.8C163.501 376.9 163.601 377 163.801 377.1C164.001 377.2 164.101 377.2 164.301 377.2C164.501 377.2 164.601 377.1 164.801 377.1ZM164.701 374.8C164.801 374.7 164.901 374.7 165.001 374.5C165.101 374.4 165.101 374.3 165.101 374.1C165.101 374 165.101 373.8 165.001 373.7C164.901 373.6 164.801 373.5 164.701 373.4C164.601 373.3 164.401 373.3 164.201 373.3C164.001 373.3 163.901 373.3 163.701 373.4C163.601 373.5 163.501 373.5 163.401 373.7C163.301 373.8 163.301 373.9 163.301 374.1C163.301 374.2 163.301 374.4 163.401 374.5C163.501 374.6 163.601 374.7 163.701 374.8C163.801 374.9 164.001 374.9 164.201 374.9C164.401 374.9 164.601 374.9 164.701 374.8Z" fill="black"/>
<path d="M169.201 373H169.801V373.8H169.601L168.301 377.7H167.501L169.201 373ZM168.501 375.8H170.601L170.801 376.4H168.201L168.501 375.8ZM169.601 373.7V373H170.001L171.701 377.7H170.901L169.601 373.7Z" fill="black"/>
<path d="M172.901 377.5C172.601 377.4 172.401 377.2 172.201 376.9C172.001 376.6 172.001 376.3 172.001 376V373H172.701V376C172.701 376.2 172.701 376.4 172.801 376.6C172.901 376.8 173.001 376.9 173.201 377C173.401 377.1 173.601 377.1 173.801 377.1C174.001 377.1 174.301 377.1 174.401 377C174.501 376.9 174.701 376.8 174.801 376.6C174.901 376.4 174.901 376.2 174.901 376V373H175.601V376.1C175.601 376.4 175.501 376.7 175.401 377C175.201 377.3 175.001 377.5 174.701 377.6C174.401 377.7 174.101 377.8 173.701 377.8C173.601 377.8 173.201 377.7 172.901 377.5Z" fill="black"/>
<path d="M177.701 377.6C177.401 377.5 177.201 377.3 177.001 377.1C176.801 376.9 176.701 376.6 176.601 376.3C176.501 376 176.401 375.7 176.401 375.3C176.401 374.8 176.501 374.4 176.701 374C176.901 373.6 177.101 373.4 177.501 373.2C177.901 373 178.201 372.9 178.701 372.9C179.101 372.9 179.401 373 179.701 373.1C180.001 373.2 180.201 373.4 180.401 373.6C180.601 373.8 180.701 374.1 180.801 374.4V374.5H180.001C179.901 374.2 179.701 374 179.501 373.9C179.301 373.8 179.001 373.7 178.701 373.7C178.401 373.7 178.101 373.8 177.901 373.9C177.701 374 177.501 374.2 177.401 374.5C177.301 374.8 177.201 375.1 177.201 375.4C177.201 375.7 177.201 375.9 177.301 376.2C177.401 376.4 177.501 376.6 177.601 376.8C177.701 377 177.901 377.1 178.101 377.2C178.301 377.3 178.501 377.3 178.701 377.3C179.001 377.3 179.201 377.2 179.401 377.1C179.601 377 179.701 376.9 179.901 376.7C180.001 376.5 180.101 376.3 180.101 376.1V376H178.901V375.4H180.901V375.9C180.901 376.2 180.901 376.5 180.801 376.8C180.701 377.1 180.601 377.3 180.401 377.4C180.201 377.6 180.001 377.7 179.801 377.8C179.501 377.9 179.301 377.9 178.901 377.9C178.301 377.8 178.001 377.7 177.701 377.6Z" fill="black"/>
<path d="M193.001 373.7L191.701 374.6V373.9L192.901 373H193.601V377.7H192.901V373.7H193.001Z" fill="black"/>
<path d="M197.201 373C197.401 373.1 197.601 373.2 197.801 373.4C198.001 373.6 198.101 373.8 198.201 374.1C198.301 374.4 198.401 374.8 198.401 375.2C198.401 375.7 198.301 376.2 198.201 376.6C198.101 377 197.801 377.3 197.601 377.5C197.301 377.7 197.001 377.8 196.601 377.8C196.301 377.8 196.101 377.7 195.801 377.6C195.601 377.5 195.401 377.4 195.201 377.2C195.001 377 194.901 376.8 194.901 376.6H195.601C195.601 376.7 195.701 376.8 195.801 376.9C195.901 377 196.001 377.1 196.101 377.1C196.201 377.1 196.401 377.2 196.501 377.2C196.801 377.2 197.001 377.1 197.201 377C197.401 376.8 197.501 376.6 197.601 376.4C197.701 376.2 197.701 375.9 197.701 375.5C197.701 375.5 197.701 375.5 197.701 375.4V375.3L197.601 374.5C197.601 374.3 197.601 374.1 197.501 374C197.401 373.8 197.301 373.7 197.101 373.6C196.901 373.5 196.801 373.5 196.601 373.5C196.401 373.5 196.201 373.5 196.101 373.6C196.001 373.7 195.801 373.8 195.701 374C195.601 374.1 195.601 374.3 195.601 374.5C195.601 374.7 195.601 374.9 195.701 375C195.801 375.1 195.901 375.3 196.101 375.3C196.201 375.4 196.401 375.4 196.601 375.4C196.801 375.4 197.001 375.4 197.101 375.3C197.301 375.2 197.401 375.1 197.501 375C197.601 374.9 197.601 374.7 197.601 374.5H197.801V375.3H197.701C197.601 375.4 197.501 375.6 197.401 375.7C197.301 375.8 197.101 375.9 197.001 376C196.901 376.1 196.601 376.1 196.401 376.1C196.101 376.1 195.801 376 195.601 375.9C195.401 375.8 195.201 375.6 195.001 375.3C194.901 375.1 194.801 374.8 194.801 374.5C194.801 374.2 194.901 373.9 195.001 373.7C195.101 373.5 195.401 373.3 195.601 373.1C195.901 373 196.201 372.9 196.501 372.9C196.701 372.9 197.001 372.9 197.201 373Z" fill="black"/>
<path d="M201.501 373H202.101V373.8H201.901L200.601 377.7H199.801L201.501 373ZM200.901 375.8H203.001L203.201 376.4H200.601L200.901 375.8ZM201.901 373.7V373H202.301L204.001 377.7H203.201L201.901 373.7Z" fill="black"/>
<path d="M205.301 377.5C205.001 377.4 204.801 377.2 204.601 376.9C204.401 376.6 204.401 376.3 204.401 376V373H205.101V376C205.101 376.2 205.101 376.4 205.201 376.6C205.301 376.8 205.401 376.9 205.601 377C205.801 377.1 206.001 377.1 206.201 377.1C206.401 377.1 206.701 377.1 206.801 377C206.901 376.9 207.101 376.8 207.201 376.6C207.301 376.4 207.301 376.2 207.301 376V373H208.001V376.1C208.001 376.4 207.901 376.7 207.801 377C207.601 377.3 207.401 377.5 207.101 377.6C206.801 377.7 206.501 377.8 206.101 377.8C205.901 377.8 205.501 377.7 205.301 377.5Z" fill="black"/>
<path d="M210.101 377.6C209.801 377.5 209.601 377.3 209.401 377.1C209.201 376.9 209.101 376.6 209.001 376.3C208.901 376 208.801 375.7 208.801 375.3C208.801 374.8 208.901 374.4 209.101 374C209.301 373.6 209.501 373.4 209.901 373.2C210.301 373 210.601 372.9 211.101 372.9C211.501 372.9 211.801 373 212.101 373.1C212.401 373.2 212.601 373.4 212.801 373.6C213.001 373.8 213.101 374.1 213.201 374.4V374.5H212.201C212.101 374.2 211.901 374 211.701 373.9C211.501 373.8 211.201 373.7 210.901 373.7C210.601 373.7 210.301 373.8 210.101 373.9C209.901 374 209.701 374.2 209.601 374.5C209.501 374.8 209.401 375.1 209.401 375.4C209.401 375.7 209.401 375.9 209.501 376.2C209.601 376.4 209.701 376.6 209.801 376.8C209.901 377 210.101 377.1 210.301 377.2C210.501 377.3 210.701 377.3 210.901 377.3C211.201 377.3 211.401 377.2 211.601 377.1C211.801 377 211.901 376.9 212.101 376.7C212.201 376.5 212.301 376.3 212.301 376.1V376H211.101V375.4H213.101V375.9C213.101 376.2 213.101 376.5 213.001 376.8C212.901 377.1 212.801 377.3 212.601 377.4C212.401 377.6 212.201 377.7 212.001 377.8C211.701 377.9 211.501 377.9 211.101 377.9C210.601 377.8 210.301 377.7 210.101 377.6Z" fill="black"/>
<path d="M225.901 373.7L224.601 374.6V373.9L225.801 373H226.501V377.7H225.801V373.7H225.901Z" fill="black"/>
<path d="M230.101 373C230.301 373.1 230.501 373.2 230.701 373.4C230.901 373.6 231.001 373.8 231.101 374.1C231.201 374.4 231.301 374.8 231.301 375.2C231.301 375.7 231.201 376.2 231.101 376.6C231.001 377 230.701 377.3 230.501 377.5C230.201 377.7 229.901 377.8 229.501 377.8C229.201 377.8 229.001 377.7 228.701 377.6C228.501 377.5 228.301 377.4 228.101 377.2C227.901 377 227.801 376.8 227.801 376.6H228.501C228.501 376.7 228.601 376.8 228.701 376.9C228.801 377 228.901 377.1 229.001 377.1C229.101 377.1 229.301 377.2 229.401 377.2C229.701 377.2 229.901 377.1 230.101 377C230.301 376.8 230.401 376.6 230.501 376.4C230.601 376.2 230.601 375.9 230.601 375.5C230.601 375.5 230.601 375.5 230.601 375.4V375.3L230.501 374.5C230.501 374.3 230.501 374.1 230.401 374C230.301 373.8 230.201 373.7 230.001 373.6C229.801 373.5 229.701 373.5 229.501 373.5C229.301 373.5 229.101 373.5 229.001 373.6C228.901 373.7 228.701 373.8 228.601 374C228.501 374.1 228.501 374.3 228.501 374.5C228.501 374.7 228.501 374.9 228.601 375C228.701 375.1 228.801 375.3 229.001 375.3C229.101 375.4 229.301 375.4 229.501 375.4C229.701 375.4 229.901 375.4 230.001 375.3C230.201 375.2 230.301 375.1 230.401 375C230.501 374.9 230.501 374.7 230.501 374.5H230.701V375.3H230.601C230.501 375.4 230.401 375.6 230.301 375.7C230.201 375.8 230.001 375.9 229.901 376C229.801 376.1 229.501 376.1 229.301 376.1C229.001 376.1 228.701 376 228.501 375.9C228.301 375.8 228.101 375.6 227.901 375.3C227.801 375.1 227.701 374.8 227.701 374.5C227.701 374.2 227.801 373.9 227.901 373.7C228.001 373.5 228.301 373.3 228.501 373.1C228.801 373 229.101 372.9 229.401 372.9C229.601 372.9 229.901 372.9 230.101 373Z" fill="black"/>
<path d="M234.501 373H235.101V373.8H234.901L233.601 377.7H232.801L234.501 373ZM233.801 375.8H235.901L236.101 376.4H233.501L233.801 375.8ZM234.901 373.7V373H235.301L237.001 377.7H236.201L234.901 373.7Z" fill="black"/>
<path d="M238.201 377.5C237.901 377.4 237.701 377.2 237.501 376.9C237.301 376.6 237.301 376.3 237.301 376V373H238.001V376C238.001 376.2 238.001 376.4 238.101 376.6C238.201 376.8 238.301 376.9 238.501 377C238.701 377.1 238.901 377.1 239.101 377.1C239.301 377.1 239.601 377.1 239.701 377C239.801 376.9 240.001 376.8 240.101 376.6C240.201 376.4 240.201 376.2 240.201 376V373H240.901V376.1C240.901 376.4 240.801 376.7 240.701 377C240.501 377.3 240.301 377.5 240.001 377.6C239.701 377.7 239.401 377.8 239.001 377.8C238.801 377.8 238.501 377.7 238.201 377.5Z" fill="black"/>
<path d="M243.001 377.6C242.701 377.5 242.501 377.3 242.301 377.1C242.101 376.9 242.001 376.6 241.901 376.3C241.801 376 241.701 375.7 241.701 375.3C241.701 374.8 241.801 374.4 242.001 374C242.201 373.6 242.401 373.4 242.801 373.2C243.201 373 243.501 372.9 244.001 372.9C244.401 372.9 244.701 373 245.001 373.1C245.301 373.2 245.501 373.4 245.701 373.6C245.901 373.8 246.001 374.1 246.101 374.4V374.5H245.301C245.201 374.2 245.001 374 244.801 373.9C244.601 373.8 244.301 373.7 244.001 373.7C243.701 373.7 243.401 373.8 243.201 373.9C243.001 374 242.801 374.2 242.701 374.5C242.601 374.8 242.501 375.1 242.501 375.4C242.501 375.7 242.501 375.9 242.601 376.2C242.701 376.4 242.801 376.6 242.901 376.8C243.001 377 243.201 377.1 243.401 377.2C243.601 377.3 243.801 377.3 244.001 377.3C244.301 377.3 244.501 377.2 244.701 377.1C244.901 377 245.001 376.9 245.201 376.7C245.301 376.5 245.401 376.3 245.401 376.1V376H244.201V375.4H246.201V375.9C246.201 376.2 246.201 376.5 246.101 376.8C246.001 377.1 245.901 377.3 245.701 377.4C245.501 377.6 245.301 377.7 245.101 377.8C244.801 377.9 244.601 377.9 244.201 377.9C243.601 377.8 243.201 377.7 243.001 377.6Z" fill="black"/>
<path d="M258.301 377.2L260.001 375.5C260.201 375.3 260.401 375.1 260.501 375C260.601 374.9 260.701 374.7 260.701 374.6C260.701 374.5 260.801 374.4 260.801 374.3C260.801 374.1 260.801 374 260.701 373.9C260.601 373.8 260.501 373.7 260.401 373.6C260.301 373.5 260.101 373.5 260.001 373.5C259.801 373.5 259.701 373.5 259.501 373.6C259.401 373.7 259.201 373.8 259.201 373.9C259.201 374 259.101 374.2 259.101 374.3H258.401C258.401 374 258.501 373.8 258.601 373.5C258.701 373.3 258.901 373.1 259.201 373C259.401 372.9 259.701 372.8 260.001 372.8C260.301 372.8 260.601 372.9 260.801 373C261.001 373.1 261.201 373.3 261.301 373.5C261.401 373.7 261.501 373.9 261.501 374.2C261.501 374.4 261.501 374.5 261.401 374.7C261.301 374.9 261.201 375 261.101 375.2C260.901 375.4 260.701 375.6 260.401 375.9L259.101 377.2L259.301 376.7V377.2L259.101 377H261.601V377.6H258.401V377.2H258.301Z" fill="black"/>
<path d="M262.901 377.5C262.601 377.3 262.401 377 262.301 376.7C262.201 376.3 262.101 375.9 262.101 375.4C262.101 374.9 262.201 374.5 262.301 374.1C262.401 373.7 262.701 373.5 262.901 373.3C263.201 373.1 263.501 373 263.901 373C264.301 373 264.601 373.1 264.901 373.3C265.201 373.5 265.401 373.8 265.501 374.1C265.601 374.4 265.701 374.9 265.701 375.4C265.701 375.9 265.601 376.3 265.501 376.7C265.401 377.1 265.101 377.3 264.901 377.5C264.601 377.7 264.301 377.8 263.901 377.8C263.401 377.8 263.101 377.7 262.901 377.5ZM264.401 376.9C264.601 376.8 264.701 376.5 264.801 376.3C264.901 376 264.901 375.7 264.901 375.3C264.901 374.9 264.901 374.6 264.801 374.3C264.701 374 264.601 373.8 264.401 373.7C264.201 373.6 264.001 373.5 263.801 373.5C263.601 373.5 263.401 373.6 263.201 373.7C263.001 373.8 262.901 374.1 262.801 374.3C262.701 374.6 262.701 374.9 262.701 375.3C262.701 375.7 262.701 376 262.801 376.3C262.901 376.6 263.001 376.8 263.201 376.9C263.401 377 263.601 377.1 263.801 377.1C264.001 377.2 264.201 377.1 264.401 376.9Z" fill="black"/>
<path d="M268.801 373H269.401V373.8H269.201L267.901 377.7H267.101L268.801 373ZM268.201 375.8H270.301L270.501 376.4H267.901L268.201 375.8ZM269.201 373.7V373H269.601L271.301 377.7H270.501L269.201 373.7Z" fill="black"/>
<path d="M272.501 377.5C272.201 377.4 272.001 377.2 271.801 376.9C271.601 376.6 271.601 376.3 271.601 376V373H272.301V376C272.301 376.2 272.301 376.4 272.401 376.6C272.501 376.8 272.601 376.9 272.801 377C273.001 377.1 273.201 377.1 273.401 377.1C273.601 377.1 273.901 377.1 274.001 377C274.101 376.9 274.301 376.8 274.401 376.6C274.501 376.4 274.501 376.2 274.501 376V373H275.201V376.1C275.201 376.4 275.101 376.7 275.001 377C274.801 377.3 274.601 377.5 274.301 377.6C274.001 377.7 273.701 377.8 273.301 377.8C273.201 377.8 272.801 377.7 272.501 377.5Z" fill="black"/>
<path d="M277.301 377.6C277.001 377.5 276.801 377.3 276.601 377.1C276.401 376.9 276.301 376.6 276.201 376.3C276.101 376 276.001 375.7 276.001 375.3C276.001 374.8 276.101 374.4 276.301 374C276.501 373.6 276.701 373.4 277.101 373.2C277.501 373 277.801 372.9 278.301 372.9C278.701 372.9 279.001 373 279.301 373.1C279.601 373.2 279.801 373.4 280.001 373.6C280.201 373.8 280.301 374.1 280.401 374.4V374.5H279.601C279.501 374.2 279.301 374 279.101 373.9C278.901 373.8 278.601 373.7 278.301 373.7C278.001 373.7 277.701 373.8 277.501 373.9C277.301 374 277.101 374.2 277.001 374.5C276.901 374.8 276.801 375.1 276.801 375.4C276.801 375.7 276.801 375.9 276.901 376.2C277.001 376.4 277.101 376.6 277.201 376.8C277.301 377 277.501 377.1 277.701 377.2C277.901 377.3 278.101 377.3 278.301 377.3C278.601 377.3 278.801 377.2 279.001 377.1C279.201 377 279.301 376.9 279.501 376.7C279.601 376.5 279.701 376.3 279.701 376.1V376H278.501V375.4H280.501V375.9C280.501 376.2 280.501 376.5 280.401 376.8C280.301 377.1 280.201 377.3 280.001 377.4C279.801 377.6 279.601 377.7 279.401 377.8C279.101 377.9 278.901 377.9 278.501 377.9C277.901 377.8 277.601 377.7 277.301 377.6Z" fill="black"/>
<path d="M289.901 377.2L291.601 375.5C291.801 375.3 292.001 375.1 292.101 375C292.201 374.9 292.301 374.7 292.301 374.6C292.301 374.5 292.401 374.4 292.401 374.3C292.401 374.1 292.401 374 292.301 373.9C292.201 373.8 292.101 373.7 292.001 373.6C291.901 373.5 291.701 373.5 291.601 373.5C291.401 373.5 291.301 373.5 291.101 373.6C291.001 373.7 290.801 373.8 290.801 373.9C290.801 374 290.701 374.2 290.701 374.3H290.001C290.001 374 290.101 373.8 290.201 373.5C290.301 373.3 290.501 373.1 290.801 373C291.001 372.9 291.301 372.8 291.601 372.8C291.901 372.8 292.201 372.9 292.401 373C292.601 373.1 292.801 373.3 292.901 373.5C293.001 373.7 293.101 373.9 293.101 374.2C293.101 374.4 293.101 374.5 293.001 374.7C292.901 374.9 292.801 375 292.701 375.2C292.501 375.4 292.301 375.6 292.001 375.9L290.701 377.2L290.901 376.7V377.2L290.701 377H293.201V377.6H290.001V377.2H289.901Z" fill="black"/>
<path d="M294.901 373.7L293.601 374.6V373.9L294.801 373H295.501V377.7H294.801V373.7H294.901Z" fill="black"/>
<path d="M299.301 373H299.901V373.8H299.701L298.401 377.7H297.601L299.301 373ZM298.601 375.8H300.701L300.901 376.4H298.301L298.601 375.8ZM299.701 373.7V373H300.101L301.801 377.7H301.001L299.701 373.7Z" fill="black"/>
<path d="M303.001 377.5C302.701 377.4 302.501 377.2 302.301 376.9C302.101 376.6 302.101 376.3 302.101 376V373H302.801V376C302.801 376.2 302.801 376.4 302.901 376.6C303.001 376.8 303.101 376.9 303.301 377C303.501 377.1 303.701 377.1 303.901 377.1C304.101 377.1 304.401 377.1 304.501 377C304.601 376.9 304.801 376.8 304.901 376.6C305.001 376.4 305.001 376.2 305.001 376V373H305.701V376.1C305.701 376.4 305.601 376.7 305.501 377C305.301 377.3 305.101 377.5 304.801 377.6C304.501 377.7 304.201 377.8 303.801 377.8C303.601 377.8 303.301 377.7 303.001 377.5Z" fill="black"/>
<path d="M307.801 377.6C307.501 377.5 307.301 377.3 307.101 377.1C306.901 376.9 306.801 376.6 306.701 376.3C306.601 376 306.501 375.7 306.501 375.3C306.501 374.8 306.601 374.4 306.801 374C307.001 373.6 307.201 373.4 307.601 373.2C308.001 373 308.301 372.9 308.801 372.9C309.201 372.9 309.501 373 309.801 373.1C310.101 373.2 310.301 373.4 310.501 373.6C310.701 373.8 310.801 374.1 310.901 374.4V374.5H310.101C310.001 374.2 309.801 374 309.601 373.9C309.401 373.8 309.101 373.7 308.801 373.7C308.501 373.7 308.201 373.8 308.001 373.9C307.801 374 307.601 374.2 307.501 374.5C307.401 374.8 307.301 375.1 307.301 375.4C307.301 375.7 307.301 375.9 307.401 376.2C307.501 376.4 307.601 376.6 307.701 376.8C307.801 377 308.001 377.1 308.201 377.2C308.401 377.3 308.601 377.3 308.801 377.3C309.101 377.3 309.301 377.2 309.501 377.1C309.701 377 309.801 376.9 310.001 376.7C310.101 376.5 310.201 376.3 310.201 376.1V376H309.001V375.4H311.001V375.9C311.001 376.2 311.001 376.5 310.901 376.8C310.801 377.1 310.701 377.3 310.501 377.4C310.301 377.6 310.101 377.7 309.901 377.8C309.601 377.9 309.401 377.9 309.001 377.9C308.401 377.8 308.101 377.7 307.801 377.6Z" fill="black"/>
<path d="M322.801 377.2L324.501 375.5C324.701 375.3 324.901 375.1 325.001 375C325.101 374.9 325.201 374.7 325.201 374.6C325.201 374.5 325.301 374.4 325.301 374.3C325.301 374.1 325.301 374 325.201 373.9C325.101 373.8 325.001 373.7 324.901 373.6C324.801 373.5 324.601 373.5 324.501 373.5C324.301 373.5 324.201 373.5 324.001 373.6C323.901 373.7 323.701 373.8 323.701 373.9C323.701 374 323.601 374.2 323.601 374.3H322.901C322.901 374 323.001 373.8 323.101 373.5C323.201 373.3 323.401 373.1 323.701 373C323.901 372.9 324.201 372.8 324.501 372.8C324.801 372.8 325.101 372.9 325.301 373C325.501 373.1 325.701 373.3 325.801 373.5C325.901 373.7 326.001 373.9 326.001 374.2C326.001 374.4 326.001 374.5 325.901 374.7C325.801 374.9 325.701 375 325.601 375.2C325.401 375.4 325.201 375.6 324.901 375.9L323.601 377.2L323.801 376.7V377.2L323.601 377H326.101V377.6H322.901V377.2H322.801Z" fill="black"/>
<path d="M326.601 377.2L328.301 375.5C328.501 375.3 328.701 375.1 328.801 375C328.901 374.9 329.001 374.7 329.001 374.6C329.001 374.5 329.101 374.4 329.101 374.3C329.101 374.1 329.101 374 329.001 373.9C328.901 373.8 328.801 373.7 328.701 373.6C328.601 373.5 328.401 373.5 328.301 373.5C328.101 373.5 328.001 373.5 327.801 373.6C327.701 373.7 327.501 373.8 327.501 373.9C327.501 374 327.401 374.2 327.401 374.3H326.701C326.701 374 326.801 373.8 326.901 373.5C327.001 373.3 327.201 373.1 327.501 373C327.701 372.9 328.001 372.8 328.301 372.8C328.601 372.8 328.901 372.9 329.101 373C329.301 373.1 329.501 373.3 329.601 373.5C329.701 373.7 329.801 373.9 329.801 374.2C329.801 374.4 329.801 374.5 329.701 374.7C329.601 374.9 329.501 375 329.401 375.2C329.201 375.4 329.001 375.6 328.701 375.9L327.401 377.2L327.601 376.7V377.2L327.401 377H329.901V377.6H326.701V377.2H326.601Z" fill="black"/>
<path d="M333.001 373H333.601V373.8H333.401L332.101 377.7H331.301L333.001 373ZM332.401 375.8H334.501L334.701 376.4H332.101L332.401 375.8ZM333.401 373.7V373H333.801L335.501 377.7H334.701L333.401 373.7Z" fill="black"/>
<path d="M336.701 377.5C336.401 377.4 336.201 377.2 336.001 376.9C335.801 376.6 335.801 376.3 335.801 376V373H336.501V376C336.501 376.2 336.501 376.4 336.601 376.6C336.701 376.8 336.801 376.9 337.001 377C337.201 377.1 337.401 377.1 337.601 377.1C337.801 377.1 338.101 377.1 338.201 377C338.301 376.9 338.501 376.8 338.601 376.6C338.701 376.4 338.701 376.2 338.701 376V373H339.401V376.1C339.401 376.4 339.301 376.7 339.201 377C339.001 377.3 338.801 377.5 338.501 377.6C338.201 377.7 337.901 377.8 337.501 377.8C337.401 377.8 337.001 377.7 336.701 377.5Z" fill="black"/>
<path d="M341.501 377.6C341.201 377.5 341.001 377.3 340.801 377.1C340.601 376.9 340.501 376.6 340.401 376.3C340.301 376 340.201 375.7 340.201 375.3C340.201 374.8 340.301 374.4 340.501 374C340.701 373.6 340.901 373.4 341.301 373.2C341.701 373 342.001 372.9 342.501 372.9C342.901 372.9 343.201 373 343.501 373.1C343.801 373.2 344.001 373.4 344.201 373.6C344.401 373.8 344.501 374.1 344.601 374.4V374.5H343.801C343.701 374.2 343.501 374 343.301 373.9C343.101 373.8 342.801 373.7 342.501 373.7C342.201 373.7 341.901 373.8 341.701 373.9C341.501 374 341.301 374.2 341.201 374.5C341.101 374.8 341.001 375.1 341.001 375.4C341.001 375.7 341.001 375.9 341.101 376.2C341.201 376.4 341.301 376.6 341.401 376.8C341.501 377 341.701 377.1 341.901 377.2C342.101 377.3 342.301 377.3 342.501 377.3C342.801 377.3 343.001 377.2 343.201 377.1C343.401 377 343.501 376.9 343.701 376.7C343.801 376.5 343.901 376.3 343.901 376.1V376H342.701V375.4H344.701V375.9C344.701 376.2 344.701 376.5 344.601 376.8C344.501 377.1 344.401 377.3 344.201 377.4C344.001 377.6 343.801 377.7 343.601 377.8C343.301 377.9 343.101 377.9 342.701 377.9C342.101 377.8 341.801 377.7 341.501 377.6Z" fill="black"/>
<path d="M355.701 377.2L357.401 375.5C357.601 375.3 357.801 375.1 357.901 375C358.001 374.9 358.101 374.7 358.101 374.6C358.101 374.5 358.201 374.4 358.201 374.3C358.201 374.1 358.201 374 358.101 373.9C358.001 373.8 357.901 373.7 357.801 373.6C357.701 373.5 357.501 373.5 357.401 373.5C357.201 373.5 357.101 373.5 356.901 373.6C356.801 373.7 356.601 373.8 356.601 373.9C356.601 374 356.501 374.2 356.501 374.3H355.801C355.801 374 355.901 373.8 356.001 373.5C356.101 373.3 356.301 373.1 356.601 373C356.801 372.9 357.101 372.8 357.401 372.8C357.701 372.8 358.001 372.9 358.201 373C358.401 373.1 358.601 373.3 358.701 373.5C358.801 373.7 358.901 373.9 358.901 374.2C358.901 374.4 358.901 374.5 358.801 374.7C358.701 374.9 358.601 375 358.501 375.2C358.301 375.4 358.101 375.6 357.801 375.9L356.501 377.2L356.701 376.7V377.2L356.501 377H359.001V377.6H355.801V377.2H355.701Z" fill="black"/>
<path d="M360.301 377.6C360.001 377.5 359.801 377.3 359.701 377.1C359.601 376.9 359.501 376.7 359.401 376.4H360.101C360.101 376.5 360.201 376.7 360.301 376.8C360.401 376.9 360.501 377 360.701 377.1C360.901 377.2 361.001 377.2 361.201 377.2C361.401 377.2 361.601 377.2 361.701 377.1C361.801 377 362.001 376.9 362.001 376.8C362.101 376.7 362.101 376.5 362.101 376.4C362.101 376.1 362.001 375.9 361.801 375.8C361.601 375.7 361.401 375.6 361.101 375.6H360.501V375H361.101C361.301 375 361.401 375 361.601 374.9C361.801 374.8 361.801 374.7 361.901 374.6C362.001 374.5 362.001 374.4 362.001 374.2C362.001 374 362.001 373.9 361.901 373.8C361.801 373.7 361.701 373.6 361.601 373.6C361.501 373.5 361.301 373.5 361.101 373.5C360.901 373.5 360.801 373.5 360.601 373.6C360.501 373.7 360.401 373.7 360.301 373.8C360.201 373.9 360.201 374 360.201 374.2H359.501C359.501 373.9 359.601 373.7 359.801 373.5C360.001 373.3 360.101 373.2 360.401 373C360.601 372.9 360.901 372.8 361.201 372.8C361.501 372.8 361.801 372.9 362.001 373C362.201 373.1 362.401 373.2 362.501 373.4C362.601 373.6 362.701 373.8 362.701 374C362.701 374.2 362.701 374.4 362.601 374.5C362.501 374.6 362.401 374.8 362.201 374.9C362.001 375 361.901 375.1 361.701 375.1C362.001 375.1 362.301 375.2 362.501 375.4C362.701 375.6 362.801 375.9 362.801 376.2C362.801 376.5 362.701 376.7 362.601 376.9C362.501 377.1 362.301 377.3 362.001 377.4C361.701 377.5 361.401 377.6 361.101 377.6C360.801 377.6 360.501 377.7 360.301 377.6Z" fill="black"/>
<path d="M366.101 373H366.701V373.8H366.501L365.201 377.7H364.401L366.101 373ZM365.401 375.8H367.501L367.701 376.4H365.201L365.401 375.8ZM366.501 373.7V373H366.901L368.601 377.7H367.801L366.501 373.7Z" fill="black"/>
<path d="M369.801 377.5C369.501 377.4 369.301 377.2 369.101 376.9C368.901 376.6 368.901 376.3 368.901 376V373H369.601V376C369.601 376.2 369.601 376.4 369.701 376.6C369.801 376.8 369.901 376.9 370.101 377C370.301 377.1 370.501 377.1 370.701 377.1C370.901 377.1 371.201 377.1 371.301 377C371.401 376.9 371.601 376.8 371.701 376.6C371.801 376.4 371.801 376.2 371.801 376V373H372.501V376.1C372.501 376.4 372.401 376.7 372.301 377C372.101 377.3 371.901 377.5 371.601 377.6C371.301 377.7 371.001 377.8 370.601 377.8C370.501 377.8 370.101 377.7 369.801 377.5Z" fill="black"/>
<path d="M374.601 377.6C374.301 377.5 374.101 377.3 373.901 377.1C373.701 376.9 373.601 376.6 373.501 376.3C373.401 376 373.301 375.7 373.301 375.3C373.301 374.8 373.401 374.4 373.601 374C373.801 373.6 374.001 373.4 374.401 373.2C374.801 373 375.101 372.9 375.601 372.9C376.001 372.9 376.301 373 376.601 373.1C376.901 373.2 377.101 373.4 377.301 373.6C377.501 373.8 377.601 374.1 377.701 374.4V374.5H376.901C376.801 374.2 376.601 374 376.401 373.9C376.201 373.8 375.901 373.7 375.601 373.7C375.301 373.7 375.001 373.8 374.801 373.9C374.601 374 374.401 374.2 374.301 374.5C374.201 374.8 374.101 375.1 374.101 375.4C374.101 375.7 374.101 375.9 374.201 376.2C374.301 376.4 374.401 376.6 374.501 376.8C374.601 377 374.801 377.1 375.001 377.2C375.201 377.3 375.401 377.3 375.601 377.3C375.901 377.3 376.101 377.2 376.301 377.1C376.501 377 376.601 376.9 376.801 376.7C376.901 376.5 377.001 376.3 377.001 376.1V376H375.801V375.4H377.801V375.9C377.801 376.2 377.801 376.5 377.701 376.8C377.601 377.1 377.501 377.3 377.301 377.4C377.101 377.6 376.901 377.7 376.701 377.8C376.401 377.9 376.201 377.9 375.801 377.9C375.201 377.8 374.901 377.7 374.601 377.6Z" fill="black"/>
<path d="M136.701 367.3C137.64 367.3 138.401 366.539 138.401 365.6C138.401 364.661 137.64 363.9 136.701 363.9C135.762 363.9 135.001 364.661 135.001 365.6C135.001 366.539 135.762 367.3 136.701 367.3Z" fill="black"/>
<path d="M169.601 367.3C170.54 367.3 171.301 366.539 171.301 365.6C171.301 364.661 170.54 363.9 169.601 363.9C168.662 363.9 167.901 364.661 167.901 365.6C167.901 366.539 168.662 367.3 169.601 367.3Z" fill="black"/>
<path d="M202.501 367.3C203.44 367.3 204.201 366.539 204.201 365.6C204.201 364.661 203.44 363.9 202.501 363.9C201.562 363.9 200.801 364.661 200.801 365.6C200.801 366.539 201.562 367.3 202.501 367.3Z" fill="black"/>
<path d="M235.501 367.3C236.44 367.3 237.201 366.539 237.201 365.6C237.201 364.661 236.44 363.9 235.501 363.9C234.562 363.9 233.801 364.661 233.801 365.6C233.801 366.539 234.562 367.3 235.501 367.3Z" fill="black"/>
<path d="M268.401 367.3C269.34 367.3 270.101 366.539 270.101 365.6C270.101 364.661 269.34 363.9 268.401 363.9C267.462 363.9 266.701 364.661 266.701 365.6C266.701 366.539 267.462 367.3 268.401 367.3Z" fill="black"/>
<path d="M301.301 367.3C302.24 367.3 303.001 366.539 303.001 365.6C303.001 364.661 302.24 363.9 301.301 363.9C300.362 363.9 299.601 364.661 299.601 365.6C299.601 366.539 300.362 367.3 301.301 367.3Z" fill="black"/>
<path d="M334.201 367.3C335.14 367.3 335.901 366.539 335.901 365.6C335.901 364.661 335.14 363.9 334.201 363.9C333.262 363.9 332.501 364.661 332.501 365.6C332.501 366.539 333.262 367.3 334.201 367.3Z" fill="black"/>
<path d="M367.101 367.3C368.04 367.3 368.801 366.539 368.801 365.6C368.801 364.661 368.04 363.9 367.101 363.9C366.162 363.9 365.401 364.661 365.401 365.6C365.401 366.539 366.162 367.3 367.101 367.3Z" fill="black"/>
<path d="M320.901 215H466.601C474.301 215 480.501 221.2 480.501 228.9V272.8C480.501 280.5 474.301 286.7 466.601 286.7H320.901C313.201 286.7 307.001 280.5 307.001 272.8V228.9C306.901 221.3 313.201 215 320.901 215Z" fill="white" stroke="#C5C5C5" stroke-miterlimit="10" stroke-linecap="round" stroke-linejoin="round"/>
<path d="M332.101 234.9H333.001L335.801 242.5H334.801L334.001 240.3H331.001L330.201 242.5H329.201L332.101 234.9ZM331.301 239.6H333.801L332.601 236.2H332.501L331.301 239.6Z" fill="#121724"/>
<path d="M335.601 236.9H336.601L338.201 241.6H338.301L339.901 236.9H340.901L338.801 242.6H337.901L335.601 236.9Z" fill="#121724"/>
<path d="M341.201 239.7C341.201 237.9 342.201 236.7 343.701 236.7C345.201 236.7 346.201 237.9 346.201 239.6V240H342.101C342.101 241.2 342.801 241.9 343.801 241.9C344.601 241.9 345.001 241.5 345.201 241.2H346.101C345.901 242 345.101 242.7 343.801 242.7C342.201 242.7 341.201 241.5 341.201 239.7ZM342.201 239.2H345.301C345.201 238.1 344.601 237.5 343.701 237.5C342.901 237.6 342.301 238.2 342.201 239.2Z" fill="#121724"/>
<path d="M347.501 236.9H348.401V237.7H348.501C348.701 237.1 349.201 236.8 350.001 236.8C350.201 236.8 350.401 236.8 350.501 236.8V237.7C350.301 237.7 350.101 237.6 349.901 237.6C349.001 237.6 348.401 238.2 348.401 239V242.5H347.501V236.9Z" fill="#121724"/>
<path d="M351.101 241C351.101 240 351.801 239.4 353.201 239.3L354.801 239.2V238.7C354.801 238 354.401 237.6 353.501 237.6C352.801 237.6 352.401 237.9 352.201 238.3H351.301C351.401 237.4 352.301 236.8 353.501 236.8C354.901 236.8 355.701 237.5 355.701 238.7V242.6H354.801V241.8H354.701C354.301 242.4 353.701 242.7 353.001 242.7C351.901 242.7 351.101 242 351.101 241ZM353.101 241.9C354.001 241.9 354.701 241.3 354.701 240.5V240L353.201 240.1C352.301 240.2 352.001 240.5 352.001 241C352.001 241.5 352.501 241.9 353.101 241.9Z" fill="#121724"/>
<path d="M357.101 243H358.101C358.201 243.4 358.701 243.7 359.501 243.7C360.501 243.7 361.101 243.2 361.101 242.4V241.2H361.001C360.601 241.8 360.001 242.2 359.201 242.2C357.701 242.2 356.801 241.1 356.801 239.5C356.801 237.9 357.701 236.7 359.201 236.7C360.001 236.7 360.601 237.1 361.001 237.7H361.101V236.8H362.001V242.4C362.001 243.7 361.001 244.5 359.501 244.5C358.101 244.6 357.201 243.9 357.101 243ZM361.101 239.5C361.101 238.4 360.501 237.6 359.401 237.6C358.301 237.6 357.801 238.4 357.801 239.5C357.801 240.6 358.401 241.4 359.401 241.4C360.501 241.4 361.101 240.7 361.101 239.5Z" fill="#121724"/>
<path d="M363.201 239.7C363.201 237.9 364.201 236.7 365.701 236.7C367.201 236.7 368.201 237.9 368.201 239.6V240H364.101C364.101 241.2 364.801 241.9 365.801 241.9C366.601 241.9 367.001 241.5 367.201 241.2H368.101C367.901 242 367.101 242.7 365.801 242.7C364.201 242.7 363.201 241.5 363.201 239.7ZM364.201 239.2H367.301C367.201 238.1 366.601 237.5 365.701 237.5C364.901 237.6 364.301 238.2 364.201 239.2Z" fill="#121724"/>
<path d="M372.401 234.9H375.301C376.701 234.9 377.601 235.6 377.601 236.8C377.601 237.6 377.001 238.3 376.301 238.4V238.5C377.301 238.6 378.001 239.3 378.001 240.3C378.001 241.6 377.001 242.4 375.401 242.4H372.401V234.9ZM373.401 235.8V238.2H374.901C376.101 238.2 376.601 237.8 376.601 237C376.601 236.2 376.101 235.8 375.101 235.8H373.401ZM373.401 239V241.7H375.301C376.401 241.7 377.001 241.2 377.001 240.4C377.001 239.5 376.401 239.1 375.201 239.1H373.401V239Z" fill="#121724"/>
<path d="M378.801 241C378.801 240 379.501 239.4 380.901 239.3L382.501 239.2V238.7C382.501 238 382.101 237.6 381.201 237.6C380.501 237.6 380.101 237.9 379.901 238.3H379.001C379.101 237.4 380.001 236.8 381.201 236.8C382.601 236.8 383.401 237.5 383.401 238.7V242.6H382.501V241.8H382.401C382.001 242.4 381.401 242.7 380.701 242.7C379.701 242.7 378.801 242 378.801 241ZM380.901 241.9C381.801 241.9 382.501 241.3 382.501 240.5V240L381.001 240.1C380.101 240.2 379.801 240.5 379.801 241C379.801 241.5 380.301 241.9 380.901 241.9Z" fill="#121724"/>
<path d="M384.601 241.1H385.501C385.701 241.6 386.101 241.9 386.801 241.9C387.601 241.9 388.101 241.5 388.101 241C388.101 240.6 387.801 240.3 387.101 240.2L386.201 240C385.101 239.7 384.701 239.3 384.701 238.5C384.701 237.6 385.601 236.8 386.801 236.8C388.001 236.8 388.801 237.4 388.901 238.3H388.001C387.901 237.9 387.401 237.5 386.701 237.5C386.001 237.5 385.501 237.8 385.501 238.3C385.501 238.7 385.801 238.9 386.501 239.1L387.401 239.3C388.501 239.6 389.001 240 389.001 240.8C389.001 241.8 388.001 242.5 386.701 242.5C385.601 242.7 384.701 242 384.601 241.1Z" fill="#121724"/>
<path d="M390.401 234.6H391.301V239.3H391.401L393.901 236.8H395.001L392.501 239.2L395.101 242.5H393.901L391.801 239.8L391.301 240.3V242.5H390.401V234.6Z" fill="#121724"/>
<path d="M395.501 239.7C395.501 237.9 396.501 236.7 398.001 236.7C399.501 236.7 400.501 237.9 400.501 239.6V240H396.401C396.401 241.2 397.101 241.9 398.101 241.9C398.901 241.9 399.301 241.5 399.501 241.2H400.401C400.201 242 399.401 242.7 398.101 242.7C396.401 242.7 395.501 241.5 395.501 239.7ZM396.401 239.2H399.501C399.401 238.1 398.801 237.5 397.901 237.5C397.201 237.6 396.501 238.2 396.401 239.2Z" fill="#121724"/>
<path d="M402.101 241.1V237.6H401.201V236.8H402.101V235.3H403.101V236.8H404.301V237.6H403.101V240.8C403.101 241.5 403.301 241.7 403.901 241.7C404.101 241.7 404.201 241.7 404.301 241.7V242.5C404.101 242.5 403.901 242.6 403.801 242.6C402.601 242.6 402.101 242.2 402.101 241.1Z" fill="#121724"/>
<path d="M408.001 240.6L408.901 240.5V240.6C409.001 241.4 409.801 241.8 410.901 241.8C411.901 241.8 412.701 241.3 412.701 240.5C412.701 239.9 412.301 239.4 411.201 239.2L410.401 239C408.901 238.7 408.201 238 408.201 236.9C408.201 235.6 409.301 234.7 410.901 234.7C412.401 234.7 413.501 235.6 413.601 236.7V236.8H412.601V236.7C412.501 236 411.901 235.5 410.901 235.5C409.901 235.5 409.201 236 409.201 236.8C409.201 237.4 409.601 237.8 410.701 238L411.501 238.2C413.101 238.6 413.701 239.2 413.701 240.3C413.701 241.7 412.601 242.6 410.901 242.6C409.201 242.7 408.101 241.9 408.001 240.6Z" fill="#121724"/>
<path d="M414.801 235.1C414.801 234.8 415.101 234.5 415.401 234.5C415.701 234.5 416.001 234.8 416.001 235.1C416.001 235.4 415.701 235.7 415.401 235.7C415.001 235.8 414.801 235.5 414.801 235.1ZM414.901 236.9H415.801V242.6H414.901V236.9Z" fill="#121724"/>
<path d="M417.201 241.9L420.501 237.7V237.6H417.201V236.8H421.601V237.5L418.301 241.7V241.8H421.601V242.6H417.201V241.9Z" fill="#121724"/>
<path d="M422.501 239.7C422.501 237.9 423.501 236.7 425.001 236.7C426.501 236.7 427.501 237.9 427.501 239.6V240H423.401C423.401 241.2 424.101 241.9 425.101 241.9C425.901 241.9 426.301 241.5 426.501 241.2H427.401C427.201 242 426.401 242.7 425.101 242.7C423.501 242.7 422.501 241.5 422.501 239.7ZM423.501 239.2H426.601C426.501 238.1 425.901 237.5 425.001 237.5C424.201 237.6 423.601 238.2 423.501 239.2Z" fill="#121724"/>
<path fill-rule="evenodd" clip-rule="evenodd" d="M436.701 237.3H435.801V236.4H436.701V237.3ZM436.701 241H435.801V238.2H436.701V241ZM436.201 234.1C433.601 234.1 431.601 236.2 431.601 238.7C431.601 241.3 433.701 243.3 436.201 243.3C438.701 243.3 440.801 241.2 440.801 238.7C440.901 236.2 438.801 234.1 436.201 234.1Z" fill="#242424"/>
<path d="M334.901 265.1H329.501V263.4L334.001 256.3H336.801V263.5H338.301V265.1H336.801V267.2H334.901V265.1ZM334.901 263.6V257.8L331.201 263.5V263.6H334.901Z" fill="#121724"/>
<path d="M343.001 260.4C343.001 260 343.301 259.7 343.701 259.7C344.101 259.7 344.401 260 344.401 260.4C344.401 260.8 344.101 261.1 343.701 261.1C343.301 261.1 343.001 260.8 343.001 260.4ZM343.101 262.2H344.201V267.9H343.101V262.2Z" fill="#121724"/>
<path d="M346.101 266.4V263.1H345.201V262.2H346.101V260.8H347.301V262.2H348.501V263.1H347.301V266.1C347.301 266.7 347.501 267 348.101 267C348.301 267 348.401 267 348.501 267V267.9C348.301 267.9 348.101 268 347.901 268C346.601 267.9 346.101 267.5 346.101 266.4Z" fill="#121724"/>
<path d="M349.301 265C349.301 263.2 350.301 262 351.901 262C353.501 262 354.501 263.2 354.501 264.9V265.3H350.401C350.401 266.4 351.001 267 352.001 267C352.701 267 353.201 266.6 353.301 266.3H354.401C354.201 267.1 353.401 267.9 352.001 267.9C350.301 268 349.301 266.9 349.301 265ZM350.401 264.5H353.301C353.201 263.5 352.601 263 351.901 263C351.101 263 350.501 263.5 350.401 264.5Z" fill="#121724"/>
<path d="M355.601 262.2H356.701V263.1H356.801C357.101 262.5 357.601 262.1 358.401 262.1C359.201 262.1 359.701 262.5 360.001 263.1H360.101C360.401 262.5 361.101 262.1 361.801 262.1C363.001 262.1 363.601 262.8 363.601 264V268H362.501V264.2C362.501 263.4 362.101 263 361.401 263C360.701 263 360.201 263.5 360.201 264.2V267.8H359.101V264C359.101 263.3 358.701 262.9 358.001 262.9C357.301 262.9 356.801 263.5 356.801 264.2V267.7H355.701V262.2H355.601Z" fill="#121724"/>
<path d="M364.801 266.4H365.901C366.001 266.8 366.501 267.1 367.101 267.1C367.801 267.1 368.301 266.8 368.301 266.3C368.301 265.9 368.001 265.7 367.401 265.5L366.501 265.3C365.401 265.1 364.901 264.6 364.901 263.7C364.901 262.7 365.801 262 367.101 262C368.401 262 369.201 262.7 369.301 263.6H368.201C368.101 263.2 367.701 262.9 367.001 262.9C366.401 262.9 365.901 263.2 365.901 263.7C365.901 264.1 366.201 264.3 366.801 264.4L367.701 264.6C368.801 264.9 369.301 265.3 369.301 266.2C369.301 267.3 368.301 268 366.901 268C365.801 268 364.901 267.4 364.801 266.4Z" fill="#121724"/>
<path d="M14.9012 274H148.601C156.301 274 162.501 280.2 162.501 287.9V314.3C162.501 322 156.301 328.2 148.601 328.2H14.9012C7.20117 328.2 1.00117 322 1.00117 314.3V287.9C0.901174 280.2 7.20117 274 14.9012 274Z" fill="white" stroke="#C5C5C5" stroke-miterlimit="10" stroke-linecap="round" stroke-linejoin="round"/>
<path d="M18.4012 289H19.1012L21.2012 294.8H20.4012L19.8012 293.1H17.5012L16.9012 294.8H16.1012L18.4012 289ZM17.8012 292.5H19.7012L18.8012 289.9H18.7012L17.8012 292.5Z" fill="#121724"/>
<path d="M21.1012 290.5H21.8012L23.0012 294H23.1012L24.3012 290.5H25.0012L23.4012 294.8H22.7012L21.1012 290.5Z" fill="#121724"/>
<path d="M25.3011 292.7C25.3011 291.4 26.1011 290.5 27.2011 290.5C28.3011 290.5 29.1011 291.4 29.1011 292.7V293H26.0011C26.0011 293.9 26.5011 294.4 27.3011 294.4C27.9011 294.4 28.2011 294.1 28.4011 293.9H29.1011C29.0011 294.5 28.3011 295.1 27.3011 295.1C26.1011 294.9 25.3011 294 25.3011 292.7ZM26.1011 292.3H28.5011C28.4011 291.4 28.0011 291 27.3011 291C26.6011 291 26.1011 291.5 26.1011 292.3Z" fill="#121724"/>
<path d="M30.1012 290.5H30.8012V291.1H30.9012C31.1012 290.6 31.5012 290.4 32.1012 290.4C32.2012 290.4 32.4012 290.4 32.4012 290.4V291.1C32.3012 291.1 32.1012 291.1 32.0012 291.1C31.3012 291.1 30.9012 291.5 30.9012 292.2V294.9H30.1012V290.5Z" fill="#121724"/>
<path d="M32.7012 293.6C32.7012 292.8 33.3012 292.4 34.3012 292.3L35.5012 292.2V291.9C35.5012 291.4 35.2012 291.1 34.5012 291.1C34.0012 291.1 33.6012 291.3 33.5012 291.6H32.8012C32.9012 290.9 33.6012 290.5 34.5012 290.5C35.6012 290.5 36.1012 291 36.1012 291.9V294.9H35.4012V294.3H35.3012C35.0012 294.8 34.6012 295 34.0012 295C33.4012 294.9 32.7012 294.4 32.7012 293.6ZM34.3012 294.3C35.0012 294.3 35.5012 293.8 35.5012 293.2V292.8L34.3012 292.9C33.6012 292.9 33.4012 293.2 33.4012 293.6C33.5012 294 33.8012 294.3 34.3012 294.3Z" fill="#121724"/>
<path d="M37.3012 295.1H38.0012C38.1012 295.4 38.5012 295.7 39.1012 295.7C39.9012 295.7 40.3012 295.3 40.3012 294.7V293.8H40.2012C39.9012 294.3 39.4012 294.5 38.8012 294.5C37.7012 294.5 37.0012 293.6 37.0012 292.4C37.0012 291.2 37.7012 290.3 38.8012 290.3C39.4012 290.3 39.9012 290.6 40.1012 291.1V290.4H40.8012V294.6C40.8012 295.6 40.1012 296.2 38.9012 296.2C38.1012 296.3 37.4012 295.9 37.3012 295.1ZM40.4012 292.5C40.4012 291.6 39.9012 291 39.1012 291C38.3012 291 37.9012 291.6 37.9012 292.5C37.9012 293.4 38.3012 294 39.1012 294C39.9012 294 40.4012 293.4 40.4012 292.5Z" fill="#121724"/>
<path d="M42.0012 292.7C42.0012 291.4 42.8012 290.5 43.9012 290.5C45.0012 290.5 45.8012 291.4 45.8012 292.7V293H42.7012C42.7012 293.9 43.2012 294.4 44.0012 294.4C44.6012 294.4 44.9012 294.1 45.1012 293.9H45.8012C45.7012 294.5 45.0012 295.1 44.0012 295.1C42.7012 294.9 42.0012 294 42.0012 292.7ZM42.7012 292.3H45.1012C45.0012 291.4 44.6012 291 43.9012 291C43.2012 291 42.8012 291.5 42.7012 292.3Z" fill="#121724"/>
<path d="M48.6012 293.3H49.3012C49.4012 293.9 50.0012 294.2 50.8012 294.2C51.6012 294.2 52.2012 293.8 52.2012 293.2C52.2012 292.7 51.9012 292.4 51.1012 292.2L50.5012 292.1C49.3012 291.8 48.8012 291.3 48.8012 290.5C48.8012 289.5 49.6012 288.9 50.8012 288.9C52.0012 288.9 52.8012 289.6 52.8012 290.4V290.5H52.1012V290.4C52.0012 289.9 51.5012 289.5 50.8012 289.5C50.1012 289.5 49.5012 289.8 49.5012 290.4C49.5012 290.9 49.8012 291.2 50.6012 291.3L51.2012 291.4C52.4012 291.7 52.9012 292.2 52.9012 293C52.9012 294.1 52.1012 294.8 50.8012 294.8C49.5012 294.9 48.7012 294.3 48.6012 293.3Z" fill="#121724"/>
<path d="M53.9012 290.5H54.6012V291.2H54.7012C55.0012 290.7 55.4012 290.4 56.0012 290.4C57.1012 290.4 57.8012 291.3 57.8012 292.6C57.8012 294 57.1012 294.8 56.0012 294.8C55.4012 294.8 54.9012 294.5 54.7012 294H54.6012V296.1H53.9012V290.5ZM57.1012 292.7C57.1012 291.7 56.6012 291.1 55.8012 291.1C55.0012 291.1 54.5012 291.7 54.5012 292.7C54.5012 293.7 55.0012 294.3 55.8012 294.3C56.6012 294.3 57.1012 293.7 57.1012 292.7Z" fill="#121724"/>
<path d="M58.5012 292.7C58.5012 291.4 59.3012 290.5 60.4012 290.5C61.5012 290.5 62.3012 291.4 62.3012 292.7V293H59.2012C59.2012 293.9 59.7012 294.4 60.5012 294.4C61.1012 294.4 61.4012 294.1 61.6012 293.9H62.3012C62.2012 294.5 61.5012 295.1 60.5012 295.1C59.2012 294.9 58.5012 294 58.5012 292.7ZM59.2012 292.3H61.6012C61.5012 291.4 61.1012 291 60.4012 291C59.8012 291 59.3012 291.5 59.2012 292.3Z" fill="#121724"/>
<path d="M63.2012 290.5H63.9012V291.1H64.0012C64.2012 290.6 64.6012 290.4 65.3012 290.4C66.3012 290.4 66.8012 291 66.8012 292V294.8H66.1012V292.2C66.1012 291.4 65.8012 291.1 65.1012 291.1C64.4012 291.1 64.0012 291.6 64.0012 292.3V294.9H63.3012V290.5H63.2012Z" fill="#121724"/>
<path d="M67.6012 292.7C67.6012 291.3 68.3012 290.5 69.4012 290.5C70.0012 290.5 70.5012 290.8 70.7012 291.3H70.8012V288.9H71.5012V294.9H70.8012V294.2H70.7012C70.4012 294.7 70.0012 295 69.4012 295C68.3012 294.9 67.6012 294 67.6012 292.7ZM70.8012 292.7C70.8012 291.7 70.3012 291.1 69.5012 291.1C68.7012 291.1 68.2012 291.7 68.2012 292.7C68.2012 293.7 68.7012 294.3 69.5012 294.3C70.3012 294.3 70.8012 293.6 70.8012 292.7Z" fill="#121724"/>
<path d="M74.9012 289H77.1012C78.2012 289 79.0012 289.7 79.0012 290.8C79.0012 291.9 78.2012 292.7 77.1012 292.7H75.6012V294.8H74.9012V289ZM75.6012 289.7V292.1H76.9012C77.7012 292.1 78.2012 291.6 78.2012 290.9C78.2012 290.1 77.7012 289.7 76.9012 289.7H75.6012Z" fill="#121724"/>
<path d="M79.5012 292.7C79.5012 291.4 80.3012 290.5 81.4012 290.5C82.5012 290.5 83.3012 291.4 83.3012 292.7V293H80.2012C80.2012 293.9 80.7012 294.4 81.5012 294.4C82.1012 294.4 82.4012 294.1 82.6012 293.9H83.3012C83.2012 294.5 82.5012 295.1 81.5012 295.1C80.2012 294.9 79.5012 294 79.5012 292.7ZM80.2012 292.3H82.6012C82.5012 291.4 82.1012 291 81.4012 291C80.8012 291 80.3012 291.5 80.2012 292.3Z" fill="#121724"/>
<path d="M84.2012 290.5H84.9012V291.1H85.0012C85.2012 290.6 85.6012 290.4 86.2012 290.4C86.3012 290.4 86.5012 290.4 86.5012 290.4V291.1C86.4012 291.1 86.2012 291.1 86.1012 291.1C85.4012 291.1 85.0012 291.5 85.0012 292.2V294.9H84.3012V290.5H84.2012Z" fill="#121724"/>
<path d="M89.2012 291.9C89.2012 290 90.2012 288.9 91.7012 288.9C92.9012 288.9 93.9012 289.7 94.0012 290.8H93.3012C93.1012 290.1 92.5012 289.6 91.7012 289.6C90.6012 289.6 89.9012 290.5 89.9012 292C89.9012 293.4 90.6012 294.4 91.7012 294.4C92.5012 294.4 93.1012 294 93.3012 293.3H94.0012C93.8012 294.4 92.9012 295 91.7012 295C90.2012 294.9 89.2012 293.8 89.2012 291.9Z" fill="#121724"/>
<path d="M95.0012 293.3V290.5H95.7012V293.1C95.7012 293.9 96.0012 294.2 96.7012 294.2C97.5012 294.2 97.9012 293.7 97.9012 293V290.4H98.6012V294.7H97.9012V294.1H97.8012C97.6012 294.6 97.2012 294.8 96.5012 294.8C95.5012 294.9 95.0012 294.3 95.0012 293.3Z" fill="#121724"/>
<path d="M99.4012 293.7H100.101C100.201 294.1 100.601 294.3 101.101 294.3C101.701 294.3 102.101 294 102.101 293.6C102.101 293.3 101.901 293.1 101.301 293L100.601 292.8C99.8012 292.6 99.4012 292.3 99.4012 291.6C99.4012 290.9 100.101 290.3 101.001 290.3C101.901 290.3 102.501 290.8 102.601 291.5H102.101C102.001 291.2 101.701 290.9 101.201 290.9C100.701 290.9 100.301 291.2 100.301 291.5C100.301 291.8 100.501 292 101.001 292.1L101.701 292.3C102.501 292.5 102.901 292.8 102.901 293.5C102.901 294.3 102.201 294.8 101.201 294.8C100.101 294.9 99.5012 294.4 99.4012 293.7Z" fill="#121724"/>
<path d="M104.001 293.7V291.1H103.301V290.5H104.001V289.4H104.701V290.5H105.601V291.1H104.701V293.5C104.701 294 104.901 294.2 105.301 294.2C105.401 294.2 105.501 294.2 105.601 294.2V294.8C105.501 294.8 105.301 294.8 105.201 294.8C104.301 294.8 104.001 294.5 104.001 293.7Z" fill="#121724"/>
<path d="M106.201 292.7C106.201 291.3 107.001 290.5 108.201 290.5C109.401 290.5 110.201 291.3 110.201 292.7C110.201 294.1 109.401 294.9 108.201 294.9C107.001 294.9 106.201 294 106.201 292.7ZM109.501 292.7C109.501 291.7 109.001 291.1 108.201 291.1C107.401 291.1 106.901 291.7 106.901 292.7C106.901 293.7 107.401 294.3 108.201 294.3C109.001 294.3 109.501 293.7 109.501 292.7Z" fill="#121724"/>
<path d="M111.101 290.5H111.801V291.2H111.901C112.101 290.7 112.501 290.5 113.101 290.5C113.701 290.5 114.101 290.8 114.301 291.3H114.401C114.601 290.8 115.101 290.5 115.701 290.5C116.601 290.5 117.101 291 117.101 291.9V294.9H116.401V292.1C116.401 291.5 116.101 291.1 115.501 291.1C114.901 291.1 114.501 291.6 114.501 292.1V294.9H113.801V291.9C113.801 291.4 113.401 291.1 112.901 291.1C112.301 291.1 111.901 291.6 111.901 292.2V294.9H111.101V290.5Z" fill="#121724"/>
<path d="M117.801 292.7C117.801 291.4 118.601 290.5 119.701 290.5C120.801 290.5 121.601 291.4 121.601 292.7V293H118.501C118.501 293.9 119.001 294.4 119.801 294.4C120.401 294.4 120.701 294.1 120.901 293.9H121.601C121.501 294.5 120.801 295.1 119.801 295.1C118.601 294.9 117.801 294 117.801 292.7ZM118.601 292.3H121.001C120.901 291.4 120.501 291 119.801 291C119.101 291 118.601 291.5 118.601 292.3Z" fill="#121724"/>
<path d="M122.601 290.5H123.301V291.1H123.401C123.601 290.6 124.001 290.4 124.601 290.4C124.701 290.4 124.901 290.4 124.901 290.4V291.1C124.801 291.1 124.601 291.1 124.501 291.1C123.801 291.1 123.401 291.5 123.401 292.2V294.9H122.701V290.5H122.601Z" fill="#121724"/>
<path fill-rule="evenodd" clip-rule="evenodd" d="M133.801 290.8H133.101V290.1H133.801V290.8ZM133.801 293.6H133.101V291.5H133.801V293.6ZM133.401 288.4C131.501 288.4 129.901 290 129.901 291.9C129.901 293.8 131.501 295.4 133.401 295.4C135.301 295.4 136.901 293.8 136.901 291.9C136.901 290 135.301 288.4 133.401 288.4Z" fill="#242424"/>
<path d="M16.6011 312.5L19.5011 309.7C20.6011 308.6 20.8011 308.2 20.8011 307.6C20.8011 306.9 20.2011 306.3 19.4011 306.3C18.5011 306.3 17.8011 306.9 17.8011 307.7H16.4011C16.4011 306.2 17.7011 305.1 19.3011 305.1C20.9011 305.1 22.1011 306.1 22.1011 307.5C22.1011 308.5 21.6011 309.1 20.2011 310.5L18.4011 312.2V312.3H22.2011V313.5H16.4011V312.5H16.6011Z" fill="#121724"/>
<path d="M27.2011 311.9H23.1011V310.6L26.5011 305.2H28.6011V310.6H29.7011V311.8H28.6011V313.4H27.2011V311.9ZM27.2011 310.7V306.3L24.4011 310.6H27.2011V310.7Z" fill="#121724"/>
<path d="M34.6011 306.5H30.3011V305.3H36.1011V306.5L32.6011 313.5H31.1011L34.6011 306.5Z" fill="#121724"/>
<path d="M39.5012 312V308.2H40.4012V311.9C40.4012 312.7 40.9012 313.3 41.8012 313.3C42.7012 313.3 43.2012 312.7 43.2012 311.9V308.2H44.1012V312C44.1012 313.3 43.2012 314.1 41.8012 314.1C40.4012 314.1 39.5012 313.3 39.5012 312Z" fill="#121724"/>
<path d="M45.2012 312.5L46.1012 312.4C46.1012 312.9 46.7012 313.3 47.5012 313.3C48.2012 313.3 48.8012 312.9 48.8012 312.4C48.8012 312 48.5012 311.7 47.7012 311.5L47.1012 311.4C45.9012 311.2 45.4012 310.6 45.4012 309.8C45.4012 308.8 46.3012 308.1 47.5012 308.1C48.7012 308.1 49.5012 308.8 49.6012 309.7V309.8H48.7012V309.7C48.6012 309.2 48.2012 308.9 47.5012 308.9C46.8012 308.9 46.3012 309.2 46.3012 309.8C46.3012 310.2 46.6012 310.5 47.4012 310.7L48.0012 310.8C49.2012 311.1 49.7012 311.5 49.7012 312.4C49.7012 313.5 48.8012 314.2 47.5012 314.2C46.1012 314.1 45.3012 313.5 45.2012 312.5Z" fill="#121724"/>
<path d="M50.6012 308.2H52.7012C54.4012 308.2 55.4012 309.3 55.4012 311.1C55.4012 312.9 54.4012 314 52.7012 314H50.6012V308.2ZM52.6012 313.2C53.8012 313.2 54.5012 312.4 54.5012 311.1C54.5012 309.8 53.8012 309 52.6012 309H51.5012V313.2H52.6012Z" fill="#121724"/>
</svg>
