<svg width="400" height="450" viewBox="0 0 400 450" fill="none" xmlns="http://www.w3.org/2000/svg">
<path d="M237.371 271.011C234.109 270.021 241.235 261.389 241.235 261.389L243.581 265.797L246.047 269.463L237.371 271.011Z" fill="#1E1D25"/>
<path d="M237.372 271.574C237.316 271.582 237.26 271.582 237.204 271.574C236.928 271.5 236.674 271.356 236.47 271.156C236.266 270.956 236.116 270.708 236.034 270.434C235.27 267.908 239.866 262.184 240.796 261.048C240.856 260.974 240.932 260.918 241.02 260.882C241.106 260.846 241.202 260.832 241.296 260.842C241.39 260.85 241.482 260.88 241.562 260.932C241.642 260.984 241.708 261.056 241.754 261.14L244.086 265.526L246.537 269.192C246.589 269.27 246.622 269.362 246.63 269.456C246.638 269.552 246.624 269.646 246.586 269.734C246.55 269.822 246.492 269.898 246.418 269.958C246.344 270.018 246.256 270.058 246.162 270.076L237.463 271.574H237.372ZM241.14 262.41C239.182 264.902 236.712 268.692 237.13 270.066C237.15 270.14 237.186 270.21 237.236 270.266C237.288 270.324 237.352 270.368 237.424 270.396L245.08 269.022L243.106 266.084L243.074 266.034L241.14 262.41ZM364.01 315.42C367.676 315.3 370.232 317.948 370.232 317.948C370.814 319.694 365.117 321.212 363.289 321.5C361.461 321.788 361.865 313.77 361.865 313.77L364.01 315.42Z" fill="#1E1D25"/>
<path d="M363.194 322.078C362.902 322.076 362.62 321.966 362.406 321.766C361.03 320.52 361.238 314.86 361.296 313.738C361.302 313.634 361.334 313.532 361.392 313.446C361.452 313.36 361.532 313.292 361.626 313.248C361.722 313.204 361.828 313.188 361.932 313.2C362.036 313.212 362.134 313.252 362.218 313.316L364.198 314.842C367.988 314.842 370.536 317.44 370.644 317.554C370.706 317.616 370.75 317.69 370.778 317.77C370.844 317.972 370.864 318.184 370.834 318.394C370.806 318.604 370.73 318.804 370.612 318.98C369.536 320.754 364.554 321.88 363.378 322.064C363.316 322.074 363.256 322.078 363.194 322.078ZM362.402 314.902C362.342 317.982 362.69 320.722 363.204 320.936C365.036 320.648 368.968 319.488 369.618 318.384C369.648 318.338 369.67 318.288 369.682 318.234C369.152 317.748 366.934 315.896 364.01 315.992C363.876 315.998 363.744 315.956 363.638 315.874L362.402 314.902ZM208.434 151.476C208.288 152.873 201.91 153.941 193.693 153.075C185.476 152.209 178.8 149.409 178.951 148.034C179.102 146.659 185.875 146.201 194.073 147.081C202.272 147.961 208.582 150.083 208.434 151.476Z" fill="#1E1D25"/>
<path d="M199.512 153.96C197.548 153.956 195.585 153.851 193.632 153.644C186.383 152.879 178.139 150.23 178.377 147.962C178.455 147.252 179.097 146.399 183.459 146.129C187.027 145.968 190.602 146.092 194.15 146.5C200.033 147.123 209.271 149.039 209.007 151.541C208.827 153.195 204.583 153.96 199.512 153.96ZM179.527 148.09C179.88 149.007 185.585 151.642 193.733 152.503C202.289 153.42 207.449 152.169 207.843 151.422C207.549 150.588 202.489 148.53 194.013 147.636C185.242 146.706 180.091 147.417 179.527 148.09ZM348.621 249.848C348.547 245 341.445 203.776 339.075 195.62C337.861 191.569 336.357 187.467 333.925 183.971C330.409 178.825 324.145 176.712 318.311 178.93C316.787 179.494 315.339 180.25 314.005 181.18C312.725 182.061 311.549 183.083 310.499 184.228C310.417 184.326 310.371 184.449 310.365 184.577C310.361 184.705 310.399 184.831 310.473 184.935C310.547 185.04 310.653 185.117 310.775 185.154C310.899 185.192 311.029 185.189 311.149 185.144C316.223 183.517 324.159 182.253 325.695 188.718C325.753 188.989 325.851 189.401 325.915 189.672C326.029 190.281 326.181 191.198 326.239 191.821C326.487 194.391 326.557 196.976 326.445 199.556C326.079 209.028 318.101 239.978 318.009 240.44L348.621 249.848Z" fill="#1E1D25"/>
<path d="M348.622 250.422C348.564 250.42 348.506 250.412 348.452 250.394L317.84 241C317.706 240.958 317.59 240.866 317.518 240.744C317.446 240.624 317.42 240.478 317.446 240.34C317.446 240.294 317.548 239.936 317.704 239.318C322.744 219.132 325.664 205.004 325.874 199.546C325.984 196.995 325.916 194.44 325.672 191.898C325.612 191.302 325.47 190.418 325.352 189.785C325.292 189.543 325.196 189.126 325.136 188.869C324.994 188.135 324.696 187.441 324.262 186.833C323.826 186.226 323.266 185.72 322.616 185.35C319.408 183.544 314.17 184.804 311.324 185.716C311.088 185.808 310.826 185.816 310.584 185.74C310.342 185.663 310.132 185.506 309.992 185.295C309.838 185.082 309.762 184.823 309.778 184.562C309.794 184.3 309.9 184.052 310.078 183.86C311.154 182.682 312.364 181.632 313.68 180.73C315.054 179.769 316.546 178.99 318.12 178.412C324.142 176.12 330.686 178.224 334.398 183.663C337.024 187.435 338.572 191.953 339.622 195.468C341.996 203.634 349.126 245.124 349.194 249.854C349.194 249.942 349.174 250.03 349.134 250.11C349.094 250.19 349.036 250.258 348.966 250.312C348.866 250.384 348.744 250.422 348.622 250.422ZM318.698 240.064L348.002 249.056C347.38 241.688 340.786 203.556 338.526 195.779C337.436 192.113 335.978 187.92 333.454 184.296C330.044 179.301 324.046 177.362 318.52 179.47C317.034 180.016 315.626 180.752 314.33 181.661C313.088 182.513 311.944 183.505 310.926 184.616H310.976C314.642 183.434 319.78 182.426 323.18 184.341C323.966 184.791 324.648 185.404 325.178 186.139C325.708 186.874 326.074 187.714 326.25 188.603C326.314 188.883 326.41 189.286 326.474 189.552C326.598 190.239 326.75 191.16 326.808 191.783C327.06 194.372 327.13 196.975 327.02 199.574C326.804 205.114 323.89 219.32 318.812 239.58C318.766 239.776 318.73 239.954 318.698 240.064Z" fill="#1E1D25"/>
<path d="M310.816 190.449C313.132 190.449 315.01 188.572 315.01 186.256C315.01 183.941 313.132 182.063 310.816 182.063C308.5 182.063 306.624 183.941 306.624 186.256C306.624 188.572 308.5 190.449 310.816 190.449Z" fill="#FFCB3D"/>
<path d="M310.806 191.022C309.578 191.021 308.398 190.545 307.51 189.695C306.624 188.844 306.1 187.685 306.046 186.457C305.994 185.229 306.416 184.029 307.226 183.105C308.038 182.182 309.172 181.607 310.396 181.5C311.62 181.393 312.838 181.762 313.798 182.531C314.756 183.3 315.38 184.409 315.542 185.627C315.702 186.845 315.388 188.078 314.662 189.07C313.936 190.061 312.856 190.734 311.646 190.949C311.368 190.998 311.088 191.023 310.806 191.022ZM310.806 182.636C310.224 182.636 309.65 182.776 309.134 183.045C308.616 183.314 308.172 183.703 307.838 184.181C307.374 184.844 307.146 185.643 307.19 186.451C307.236 187.259 307.55 188.028 308.084 188.636C308.616 189.244 309.338 189.656 310.134 189.805C310.93 189.955 311.752 189.833 312.47 189.46C313.186 189.086 313.758 188.483 314.094 187.746C314.428 187.01 314.506 186.182 314.314 185.396C314.122 184.61 313.672 183.911 313.036 183.411C312.402 182.91 311.616 182.638 310.806 182.636Z" fill="#1E1D25"/>
<path d="M287.372 240.711L286.194 276.941L309.612 244.983L309.758 212.657L287.862 211.842L287.372 240.711Z" fill="white"/>
<path d="M286.196 277.532C286.132 277.53 286.07 277.518 286.012 277.5C285.896 277.46 285.796 277.384 285.728 277.282C285.658 277.182 285.624 277.062 285.626 276.94L286.8 240.738L287.29 211.869C287.292 211.792 287.308 211.717 287.338 211.647C287.37 211.577 287.414 211.514 287.47 211.461C287.524 211.409 287.59 211.368 287.662 211.341C287.734 211.314 287.81 211.302 287.886 211.305L309.776 212.084C309.924 212.089 310.066 212.152 310.168 212.259C310.27 212.366 310.328 212.509 310.326 212.657L310.184 244.996C310.182 245.116 310.142 245.234 310.07 245.33L286.658 277.288C286.606 277.362 286.536 277.422 286.456 277.464C286.374 277.506 286.286 277.53 286.196 277.532ZM288.426 212.46L287.968 240.748L286.85 275.116L309.062 244.804L309.208 213.216L288.426 212.46Z" fill="#1E1D25"/>
<path d="M309.61 216.479L309.18 227.412C309.18 227.412 305.514 224.53 294.842 220.891L309.61 216.479Z" fill="#1E1D25"/>
<path d="M309.18 227.986C309.056 227.986 308.936 227.946 308.836 227.87C308.796 227.844 304.74 224.865 294.296 221.304C294.176 221.264 294.074 221.185 294.004 221.08C293.934 220.975 293.9 220.85 293.91 220.724C293.918 220.598 293.968 220.478 294.05 220.384C294.134 220.289 294.246 220.224 294.37 220.2L309.446 217.208C309.532 217.191 309.62 217.194 309.704 217.217C309.788 217.239 309.866 217.28 309.932 217.336C309.998 217.392 310.05 217.463 310.084 217.542C310.118 217.621 310.134 217.708 310.128 217.794L309.754 227.418C309.748 227.522 309.716 227.622 309.658 227.71C309.602 227.796 309.522 227.866 309.428 227.912C309.352 227.954 309.268 227.98 309.18 227.986ZM296.648 220.915C303.398 223.348 307.1 225.406 308.648 226.372L308.956 218.472L296.648 220.915Z" fill="#1E1D25"/>
<path d="M285.352 200.546C283.148 210.068 284.376 218.248 295.69 221.103C303.566 223.092 311.806 216.704 314.02 207.186C316.232 197.668 311.596 188.462 303.682 186.629C295.768 184.796 287.556 191.019 285.352 200.546Z" fill="white"/>
<path d="M298.554 222.009C297.542 222.01 296.534 221.89 295.552 221.652C285.572 219.196 282.052 212.244 284.792 200.408C285.788 195.836 288.344 191.755 292.024 188.864C295.626 186.115 299.814 185.134 303.804 186.06C307.796 186.985 311.136 189.726 313.148 193.758C315.184 197.971 315.686 202.761 314.57 207.304C313.328 212.666 310.184 217.235 305.944 219.837C303.73 221.232 301.17 221.984 298.554 222.009ZM300.844 186.871C297.884 186.918 295.022 187.939 292.702 189.776C289.232 192.504 286.824 196.356 285.892 200.669C283.284 211.919 286.438 218.233 295.808 220.538C297.428 220.912 299.108 220.958 300.744 220.672C302.382 220.386 303.946 219.775 305.344 218.875C309.326 216.428 312.282 212.12 313.456 207.057C314.512 202.775 314.042 198.258 312.126 194.285C310.252 190.555 307.206 188.039 303.544 187.192C302.666 186.982 301.766 186.875 300.862 186.871H300.844Z" fill="#1E1D25"/>
<path d="M286.918 196.087C286.918 196.087 288.752 189.759 292.62 186.578C297.174 182.825 303.108 181.996 308.562 184.869C315.024 188.297 320.536 195.537 316.81 207.108C314.816 213.194 309.354 217.501 309.354 217.501L311.732 212.955C311.732 212.955 309.442 212.218 309.634 211.063C309.634 211.063 315.838 206.086 313.122 203.103C310.628 200.353 308.512 204.638 308.512 204.638C305.908 202.809 303.41 200.836 301.028 198.727C298.502 196.363 296.166 193.806 294.04 191.078L286.918 196.087Z" fill="#1E1D25"/>
<path d="M309.354 218.092C309.222 218.093 309.094 218.046 308.992 217.959C308.89 217.876 308.82 217.76 308.794 217.632C308.768 217.503 308.788 217.369 308.85 217.253L310.932 213.276C310.116 212.909 308.86 212.139 309.07 210.984C309.094 210.849 309.166 210.726 309.272 210.641C309.314 210.609 313.034 207.593 313.228 205.077C313.258 204.794 313.226 204.507 313.136 204.236C313.044 203.966 312.896 203.718 312.7 203.51C312.196 202.96 311.724 202.727 311.238 202.795C310.222 202.933 309.296 204.372 309.026 204.912C308.99 204.987 308.938 205.053 308.874 205.105C308.81 205.158 308.734 205.195 308.654 205.215C308.576 205.234 308.494 205.236 308.416 205.221C308.336 205.206 308.262 205.174 308.196 205.128C305.57 203.286 303.052 201.298 300.652 199.171C298.234 196.911 295.988 194.473 293.934 191.875L287.258 196.554C287.158 196.624 287.038 196.661 286.916 196.658C286.794 196.655 286.676 196.614 286.578 196.539C286.482 196.464 286.412 196.36 286.378 196.243C286.344 196.125 286.35 196 286.392 195.885C286.492 195.61 288.94 189.158 292.244 186.156C296.786 182.032 303.146 181.34 308.842 184.36C317.346 188.878 320.532 197.448 317.352 207.272C315.358 213.454 309.95 217.78 309.722 217.959C309.618 218.045 309.488 218.092 309.354 218.092ZM310.234 211.342C310.39 211.731 311.256 212.212 311.926 212.428C312.006 212.454 312.078 212.497 312.14 212.554C312.202 212.611 312.25 212.68 312.284 212.758C312.318 212.833 312.336 212.915 312.336 212.998C312.336 213.081 312.318 213.164 312.284 213.239L311.528 214.682C313.19 212.849 315.262 210.141 316.298 206.933C320.61 193.58 312.174 187.407 308.334 185.373C303.076 182.582 297.22 183.21 293.046 187.004C290.98 188.883 289.21 192.352 288.258 194.478L293.756 190.629C293.876 190.543 294.026 190.507 294.172 190.529C294.318 190.551 294.45 190.63 294.54 190.748C296.646 193.447 298.96 195.978 301.46 198.318C303.664 200.273 305.974 202.109 308.374 203.817C308.832 203.061 309.822 201.833 311.124 201.65C311.994 201.526 312.824 201.893 313.59 202.731C313.892 203.054 314.124 203.437 314.266 203.856C314.41 204.275 314.462 204.719 314.418 205.16C314.166 207.799 311.092 210.595 310.234 211.342Z" fill="#1E1D25"/>
<path d="M291.213 206.887C291.151 206.886 291.087 206.875 291.027 206.855C288.799 206.081 288.661 205.668 288.593 205.48C288.525 205.293 288.401 204.917 290.885 199.523C290.955 199.404 291.069 199.314 291.201 199.272C291.335 199.23 291.479 199.237 291.607 199.294C291.733 199.35 291.837 199.451 291.895 199.577C291.953 199.704 291.965 199.848 291.925 199.982C291.007 202.002 289.995 204.28 289.747 205.045C290.279 205.317 290.827 205.55 291.393 205.742C291.521 205.786 291.629 205.875 291.697 205.991C291.765 206.107 291.791 206.244 291.769 206.378C291.747 206.511 291.677 206.632 291.573 206.72C291.471 206.807 291.339 206.855 291.205 206.855L291.213 206.887ZM298.623 203.963C298.491 203.963 298.363 203.917 298.261 203.834C298.157 203.751 298.087 203.635 298.059 203.505C298.033 203.368 297.413 200.412 294.311 199.912C294.161 199.888 294.027 199.805 293.937 199.682C293.849 199.559 293.813 199.405 293.837 199.255C293.861 199.105 293.945 198.971 294.067 198.882C294.191 198.793 294.345 198.756 294.495 198.781C298.407 199.413 299.177 203.249 299.187 203.29C299.201 203.364 299.201 203.44 299.185 203.514C299.169 203.587 299.139 203.657 299.097 203.719C299.055 203.782 298.999 203.835 298.937 203.876C298.873 203.917 298.803 203.945 298.729 203.959L298.623 203.963ZM290.805 198.038C290.665 198.039 290.529 197.987 290.425 197.892C290.357 197.828 288.739 196.439 286.971 197.53C286.841 197.609 286.685 197.634 286.537 197.599C286.389 197.564 286.261 197.471 286.183 197.342C286.103 197.212 286.077 197.057 286.113 196.909C286.147 196.761 286.241 196.633 286.369 196.554C288.373 195.321 290.397 196.329 291.191 197.039C291.277 197.117 291.337 197.219 291.365 197.332C291.393 197.445 291.385 197.563 291.343 197.672C291.301 197.78 291.227 197.873 291.131 197.938C291.035 198.004 290.921 198.039 290.805 198.038ZM310.927 207.836C310.861 207.837 310.797 207.826 310.735 207.804L309.883 207.502C309.795 207.471 309.715 207.419 309.651 207.35C309.589 207.281 309.543 207.198 309.521 207.107C309.495 207.017 309.493 206.922 309.515 206.83C309.537 206.739 309.581 206.655 309.643 206.585L311.019 204.986C311.121 204.883 311.259 204.822 311.405 204.817C311.551 204.812 311.693 204.862 311.801 204.958C311.911 205.053 311.981 205.187 311.995 205.332C312.009 205.477 311.969 205.622 311.881 205.737L311.041 206.704H311.097C311.225 206.749 311.331 206.837 311.401 206.954C311.469 207.07 311.495 207.207 311.473 207.34C311.449 207.474 311.381 207.595 311.277 207.682C311.175 207.769 311.043 207.818 310.909 207.818L310.927 207.836ZM294.073 204.202C294.415 204.202 294.691 203.925 294.691 203.583C294.691 203.242 294.415 202.965 294.073 202.965C293.731 202.965 293.455 203.242 293.455 203.583C293.455 203.925 293.731 204.202 294.073 204.202ZM287.887 201.306C288.229 201.306 288.505 201.029 288.505 200.687C288.505 200.345 288.229 200.068 287.887 200.068C287.545 200.068 287.267 200.345 287.267 200.687C287.267 201.029 287.545 201.306 287.887 201.306Z" fill="#1E1D25"/>
<path d="M307.73 210.788L308.632 212.166C309.044 212.798 309.892 212.974 310.524 212.561L311.902 211.659C312.532 211.245 312.71 210.398 312.296 209.767L311.394 208.389C310.98 207.757 310.134 207.581 309.502 207.994L308.124 208.896C307.492 209.31 307.316 210.157 307.73 210.788Z" fill="#FFCB3D"/>
<path d="M309.896 214.87C309.742 214.872 309.588 214.856 309.436 214.824C309.164 214.768 308.906 214.658 308.676 214.501C308.446 214.343 308.25 214.142 308.098 213.907L307.406 212.849C307.252 212.617 307.146 212.356 307.094 212.082C307.042 211.808 307.046 211.527 307.104 211.254C307.16 210.981 307.27 210.722 307.428 210.491C307.586 210.261 307.786 210.064 308.02 209.912L309.08 209.22C309.312 209.067 309.574 208.962 309.848 208.91C310.122 208.858 310.402 208.861 310.676 208.918C310.948 208.975 311.206 209.086 311.438 209.243C311.668 209.4 311.864 209.601 312.016 209.834L312.708 210.888C312.862 211.121 312.966 211.382 313.018 211.656C313.07 211.93 313.068 212.211 313.01 212.483C312.954 212.756 312.842 213.015 312.686 213.245C312.528 213.476 312.328 213.672 312.094 213.825L311.04 214.517C310.7 214.742 310.302 214.865 309.896 214.87ZM308.382 212.226L309.074 213.284C309.216 213.5 309.436 213.651 309.688 213.706C309.816 213.732 309.946 213.733 310.072 213.709C310.198 213.684 310.32 213.635 310.426 213.564L311.48 212.872C311.588 212.802 311.68 212.711 311.754 212.606C311.826 212.5 311.876 212.38 311.902 212.255C311.93 212.129 311.93 212 311.908 211.874C311.884 211.748 311.834 211.628 311.764 211.52L311.072 210.466C311.002 210.356 310.912 210.26 310.804 210.185C310.696 210.111 310.574 210.059 310.446 210.032C310.318 210.006 310.186 210.006 310.056 210.031C309.928 210.057 309.806 210.108 309.698 210.182L308.64 210.874C308.532 210.944 308.44 211.035 308.366 211.141C308.294 211.247 308.244 211.366 308.218 211.492C308.192 211.617 308.192 211.747 308.216 211.873C308.24 211.999 308.288 212.119 308.36 212.226H308.382ZM292.606 210.626C292.102 210.625 291.606 210.511 291.154 210.292C291.016 210.223 290.914 210.103 290.866 209.958C290.818 209.814 290.83 209.656 290.898 209.519C290.968 209.383 291.088 209.28 291.232 209.232C291.376 209.185 291.534 209.197 291.67 209.265C291.854 209.357 293.504 210.09 294.508 208.124C294.538 208.053 294.584 207.989 294.642 207.935C294.7 207.882 294.766 207.841 294.84 207.815C294.914 207.789 294.992 207.778 295.07 207.783C295.148 207.789 295.224 207.81 295.294 207.845C295.362 207.881 295.424 207.931 295.474 207.991C295.524 208.051 295.56 208.121 295.582 208.196C295.604 208.271 295.61 208.35 295.6 208.427C295.59 208.505 295.564 208.579 295.524 208.646C294.742 210.168 293.59 210.626 292.606 210.626Z" fill="#1E1D25"/>
<path d="M127.228 241.522L121.834 263.284L98.4957 248.006L97.4785 208.849L126.215 208.193L127.228 241.522Z" fill="white"/>
<path d="M121.834 263.858C121.722 263.856 121.613 263.824 121.518 263.766L98.184 248.482C98.1062 248.434 98.0416 248.366 97.996 248.286C97.9504 248.206 97.9254 248.116 97.9228 248.024L96.9056 208.867C96.9032 208.792 96.9156 208.717 96.9424 208.647C96.9692 208.577 97.0096 208.513 97.0614 208.459C97.1674 208.349 97.312 208.285 97.4646 208.28L126.201 207.625C126.353 207.623 126.499 207.68 126.608 207.785C126.717 207.889 126.78 208.033 126.783 208.184L127.801 241.508C127.808 241.56 127.808 241.612 127.801 241.664L122.407 263.426C122.384 263.514 122.341 263.596 122.28 263.666C122.22 263.734 122.144 263.786 122.059 263.82C121.988 263.848 121.911 263.862 121.834 263.858ZM99.0594 247.69L121.472 262.354L126.651 241.454L125.656 208.794L98.065 209.408L99.0594 247.69Z" fill="#1E1D25"/>
<path d="M126.559 223.361C126.559 223.361 122.481 220.268 112.353 220.708C106.763 220.951 114.851 214.801 114.851 214.801L126.357 214.54L126.559 223.361Z" fill="#1E1D25"/>
<path d="M126.558 223.916C126.455 223.915 126.355 223.888 126.265 223.838C126.214 223.806 120.908 220.768 111.097 221.189C110.606 221.212 109.094 221.276 108.773 220.273C108.26 218.66 112.165 215.837 114.538 214.316C114.627 214.256 114.73 214.223 114.836 214.219L126.343 213.958C126.495 213.956 126.641 214.013 126.751 214.117C126.861 214.222 126.925 214.366 126.929 214.517L127.131 223.338C127.133 223.415 127.119 223.491 127.091 223.562C127.063 223.633 127.022 223.698 126.968 223.752C126.915 223.807 126.851 223.85 126.781 223.88C126.71 223.91 126.635 223.925 126.558 223.925V223.916ZM113.003 220.021C119.831 220.021 124.198 221.62 125.962 222.422L125.797 215.127L115.024 215.374C112.21 217.207 109.818 219.338 109.869 219.957C110.156 220.052 110.46 220.093 110.762 220.076H111.051C111.72 220.039 112.371 220.021 113.003 220.021Z" fill="#1E1D25"/>
<path d="M125.771 189.686L129.501 201.233C130.057 202.952 130.268 204.763 130.124 206.563C129.979 208.363 129.482 210.117 128.659 211.725C127.836 213.333 126.705 214.763 125.33 215.933C123.954 217.104 122.362 217.991 120.643 218.546L114.645 220.485C112.926 221.041 111.115 221.253 109.314 221.109C107.513 220.965 105.759 220.467 104.15 219.645C102.542 218.822 101.112 217.69 99.941 216.315C98.7702 214.939 97.8822 213.346 97.3274 211.627L93.5972 200.088C92.4056 196.396 92.7284 192.382 94.4952 188.929C96.262 185.475 99.3278 182.865 103.019 181.671L107.354 180.273C111.044 179.08 115.058 179.401 118.511 181.166C121.965 182.931 124.576 185.996 125.771 189.686Z" fill="white"/>
<path d="M111.67 221.221C110.37 221.224 109.075 221.07 107.812 220.763C107.664 220.726 107.537 220.633 107.458 220.502C107.38 220.372 107.356 220.216 107.392 220.068C107.429 219.921 107.523 219.794 107.653 219.715C107.783 219.636 107.939 219.613 108.087 219.649C110.811 220.315 113.667 220.21 116.335 219.347L120.501 217.999C123.813 216.924 126.564 214.58 128.152 211.48C129.739 208.38 130.033 204.777 128.969 201.461L125.761 191.526C125.125 189.553 124.106 187.725 122.763 186.145C121.419 184.566 119.778 183.267 117.932 182.323C116.086 181.379 114.072 180.807 112.005 180.642C109.939 180.476 107.86 180.719 105.887 181.358L104.847 181.692C100.866 182.984 97.5598 185.801 95.6536 189.527C93.7472 193.253 93.3966 197.583 94.6782 201.567L97.272 209.6C98.3884 213.061 100.715 216.004 103.825 217.889C103.955 217.968 104.048 218.096 104.084 218.244C104.121 218.391 104.096 218.548 104.017 218.678C103.938 218.808 103.811 218.901 103.663 218.937C103.515 218.973 103.359 218.949 103.229 218.87C99.8874 216.838 97.3864 213.673 96.1814 209.953L93.583 201.919C92.2028 197.645 92.575 192.997 94.6182 188.997C96.6612 184.997 100.208 181.971 104.48 180.583L105.525 180.249C107.641 179.565 109.87 179.304 112.086 179.482C114.303 179.66 116.462 180.273 118.442 181.286C120.421 182.298 122.181 183.691 123.622 185.385C125.063 187.078 126.156 189.039 126.838 191.155L130.046 201.09C131.205 204.697 130.887 208.616 129.161 211.988C127.436 215.361 124.443 217.911 120.84 219.081L116.674 220.428C115.058 220.951 113.369 221.218 111.67 221.221Z" fill="#1E1D25"/>
<path d="M126.303 191.33C126.303 191.33 124.676 187.206 122.238 186.005C119.8 184.804 102.685 190.775 101.443 191.999C100.37 193.062 99.6968 194.836 99.4814 198.24C99.2432 201.984 94.844 203.932 94.844 203.932L94.129 201.728L89.3312 187.022C89.2976 186.921 89.2844 186.815 89.2922 186.708C89.3002 186.602 89.329 186.499 89.3772 186.404C89.4252 186.309 89.4918 186.224 89.5728 186.155C89.6538 186.086 89.7476 186.033 89.849 186.001L118.994 174.425C119.186 174.361 119.395 174.373 119.579 174.459C119.763 174.544 119.908 174.696 119.983 174.883L126.303 191.33Z" fill="#1E1D25"/>
<path d="M94.8578 204.505C94.7364 204.507 94.6176 204.47 94.5192 204.399C94.4208 204.328 94.3482 204.227 94.3124 204.111L93.5838 201.92L88.786 187.215C88.7288 187.043 88.7062 186.861 88.7196 186.68C88.733 186.499 88.782 186.323 88.8638 186.161C88.9466 185.998 89.061 185.854 89.2002 185.736C89.3396 185.618 89.5008 185.529 89.675 185.474L118.783 173.912C119.121 173.795 119.492 173.814 119.816 173.965C120.14 174.117 120.393 174.389 120.52 174.723L126.839 191.142C126.866 191.212 126.88 191.287 126.878 191.362C126.877 191.438 126.86 191.512 126.83 191.581C126.8 191.65 126.756 191.712 126.702 191.764C126.648 191.816 126.584 191.857 126.514 191.885C126.444 191.912 126.369 191.925 126.293 191.924C126.218 191.922 126.144 191.906 126.075 191.876C126.006 191.846 125.944 191.802 125.892 191.748C125.84 191.693 125.799 191.629 125.771 191.559C125.771 191.523 124.195 187.641 121.986 186.519C119.906 185.478 102.983 191.28 101.846 192.407C100.797 193.447 100.242 195.257 100.05 198.277C99.7976 202.319 95.2656 204.372 95.0732 204.459C95.005 204.488 94.9318 204.504 94.8578 204.505ZM119.25 174.966C119.228 174.962 119.204 174.962 119.182 174.966L90.0736 186.523C90.001 186.541 89.9384 186.587 89.8994 186.651C89.8768 186.709 89.8768 186.773 89.8994 186.83L95.1786 203.112C96.3104 202.466 98.7438 200.779 98.9086 198.204C99.1194 194.882 99.7748 192.842 101.04 191.591C102.226 190.423 119.745 184.122 122.495 185.497C122.973 185.738 123.415 186.046 123.805 186.413L119.452 175.094C119.432 175.055 119.401 175.022 119.363 174.999C119.325 174.976 119.281 174.965 119.237 174.966H119.25Z" fill="#1E1D25"/>
<path d="M116.344 200.774C116.223 200.775 116.105 200.738 116.007 200.667C115.909 200.596 115.836 200.495 115.799 200.38C115.753 200.236 115.765 200.079 115.834 199.943C115.902 199.807 116.022 199.704 116.166 199.656L120.267 198.332C119.548 196.553 118.738 194.812 117.838 193.117C117.804 193.05 117.783 192.977 117.776 192.902C117.77 192.827 117.778 192.752 117.801 192.68C117.824 192.608 117.86 192.542 117.909 192.484C117.957 192.427 118.017 192.379 118.083 192.345C118.15 192.31 118.223 192.289 118.298 192.283C118.373 192.276 118.449 192.285 118.52 192.308C118.592 192.33 118.659 192.367 118.716 192.415C118.774 192.464 118.821 192.523 118.856 192.59C121.665 198.025 121.527 198.644 121.486 198.845C121.464 198.943 121.417 199.033 121.349 199.107C121.282 199.181 121.196 199.236 121.101 199.267L116.519 200.747C116.462 200.765 116.404 200.774 116.344 200.774ZM109.782 196.343H109.69C109.544 196.315 109.414 196.231 109.328 196.109C109.242 195.986 109.208 195.835 109.232 195.688C109.713 192.581 112.628 191.284 114.099 191.032C114.174 191.015 114.253 191.014 114.329 191.028C114.405 191.042 114.477 191.072 114.542 191.115C114.606 191.158 114.661 191.213 114.703 191.278C114.746 191.343 114.774 191.416 114.788 191.492C114.801 191.569 114.799 191.647 114.781 191.722C114.763 191.798 114.73 191.869 114.684 191.931C114.638 191.993 114.58 192.046 114.514 192.085C114.447 192.124 114.373 192.149 114.296 192.159C114.145 192.187 110.836 192.805 110.364 195.862C110.342 195.999 110.271 196.123 110.164 196.212C110.056 196.3 109.921 196.347 109.782 196.343ZM123.488 192.031C123.409 192.031 123.33 192.015 123.257 191.982C123.185 191.95 123.12 191.902 123.067 191.843C121.481 190.12 118.663 190.812 118.635 190.821C118.488 190.859 118.331 190.836 118.2 190.759C118.069 190.681 117.974 190.554 117.937 190.407C117.899 190.259 117.921 190.102 117.999 189.971C118.077 189.84 118.204 189.745 118.351 189.708C118.498 189.671 121.871 188.846 123.91 191.083C123.984 191.164 124.033 191.266 124.051 191.376C124.069 191.485 124.055 191.597 124.01 191.698C123.965 191.8 123.892 191.886 123.8 191.946C123.707 192.007 123.599 192.04 123.488 192.04V192.031ZM113.989 197.09C114.396 197.09 114.727 196.76 114.727 196.352C114.727 195.945 114.396 195.615 113.989 195.615C113.581 195.615 113.251 195.945 113.251 196.352C113.251 196.76 113.581 197.09 113.989 197.09ZM121.505 195C121.912 195 122.242 194.67 122.242 194.262C122.242 193.855 121.912 193.525 121.505 193.525C121.097 193.525 120.767 193.855 120.767 194.262C120.767 194.67 121.097 195 121.505 195Z" fill="#1E1D25"/>
<path d="M100.449 211.495C102.441 210.318 102.598 206.9 100.802 203.86C99.0049 200.821 95.9341 199.312 93.9429 200.489C91.9517 201.666 91.7939 205.084 93.5905 208.123C95.3871 211.162 98.4579 212.672 100.449 211.495Z" fill="white"/>
<path d="M98.9222 212.46C96.8692 212.46 94.546 210.874 93.0886 208.409C91.132 205.105 91.384 201.329 93.6432 199.995C95.2882 199.019 97.607 199.565 99.55 201.37C99.6088 201.42 99.6568 201.482 99.6912 201.552C99.7254 201.621 99.7454 201.697 99.7496 201.774C99.7538 201.851 99.7422 201.929 99.7156 202.002C99.6892 202.074 99.648 202.141 99.595 202.197C99.542 202.254 99.478 202.299 99.407 202.33C99.3362 202.361 99.2596 202.377 99.1822 202.378C99.1046 202.379 99.0278 202.364 98.9564 202.334C98.885 202.304 98.8204 202.26 98.7664 202.204C97.2038 200.742 95.4212 200.252 94.2252 200.962C92.5388 201.957 92.47 205.086 94.074 207.808C95.4166 210.1 97.6254 211.539 99.3392 211.264C99.4864 211.241 99.6368 211.276 99.759 211.361C99.8812 211.446 99.9656 211.576 99.9944 211.722C100.019 211.869 99.9842 212.02 99.8986 212.143C99.813 212.265 99.683 212.349 99.5362 212.377C99.3342 212.422 99.1288 212.45 98.9222 212.46Z" fill="#1E1D25"/>
<path d="M96.1032 207.061C95.9914 207.061 95.8822 207.028 95.7886 206.967C95.6952 206.906 95.6214 206.82 95.5762 206.717C95.5458 206.649 95.5296 206.574 95.5282 206.499C95.5268 206.424 95.5404 206.349 95.568 206.28C95.5958 206.21 95.6372 206.146 95.6896 206.092C95.7422 206.038 95.8048 205.995 95.874 205.966L96.259 205.796L94.4854 204.38C94.4228 204.335 94.37 204.277 94.3302 204.211C94.2904 204.144 94.2646 204.07 94.2542 203.993C94.2438 203.917 94.2492 203.839 94.2698 203.764C94.2904 203.689 94.3262 203.619 94.3746 203.559C94.423 203.498 94.4832 203.448 94.5514 203.412C94.6198 203.375 94.6948 203.353 94.772 203.346C94.8492 203.339 94.927 203.348 95.0006 203.373C95.0742 203.397 95.1422 203.436 95.2004 203.487L97.7162 205.489C97.7944 205.55 97.8554 205.63 97.8932 205.721C97.9312 205.813 97.9444 205.912 97.932 206.01C97.9194 206.109 97.8816 206.202 97.822 206.281C97.7624 206.36 97.6834 206.422 97.5924 206.461L96.3322 207.015C96.2598 207.046 96.1818 207.062 96.1032 207.061ZM113.994 207.066C113.693 207.065 113.394 207.024 113.105 206.942C112.735 206.857 112.389 206.692 112.09 206.459C111.792 206.225 111.548 205.928 111.377 205.59C110.63 204.101 111.414 202.075 111.446 201.988C111.489 201.879 111.564 201.786 111.662 201.722C111.759 201.657 111.874 201.624 111.991 201.626C112.108 201.628 112.221 201.667 112.316 201.735C112.41 201.804 112.481 201.901 112.518 202.011C112.644 202.31 112.831 202.579 113.068 202.8C113.305 203.021 113.586 203.19 113.893 203.294C114.436 203.484 115.014 203.556 115.588 203.503C116.161 203.45 116.716 203.274 117.215 202.987C117.32 202.931 117.439 202.909 117.556 202.923C117.674 202.938 117.784 202.989 117.871 203.07C117.957 203.15 118.017 203.255 118.042 203.371C118.068 203.486 118.058 203.606 118.013 203.716C117.967 203.867 116.578 207.066 113.994 207.066ZM112.23 203.578C112.144 204.086 112.204 204.607 112.404 205.081C112.505 205.273 112.646 205.44 112.819 205.571C112.992 205.701 113.191 205.792 113.403 205.837C114.613 206.167 115.566 205.379 116.184 204.573C115.286 204.758 114.353 204.684 113.494 204.362C113.026 204.185 112.597 203.919 112.23 203.578Z" fill="#1E1D25"/>
<path d="M203.828 156.095C203.828 156.095 204.254 147.43 205.392 143.594C206.528 139.759 207.92 138.714 207.494 128.93C207.068 119.146 206.506 107.722 204.622 107.457C203.068 107.232 203.246 109.399 203.246 109.399C203.246 109.399 202.166 101.476 199.549 101.609C197.716 101.701 197.537 103.612 197.537 103.612C197.537 103.612 195.929 99.0018 193.468 99.6708C191.878 100.102 192.162 103.699 192.162 103.699C192.162 103.699 190.627 99.9824 188.038 101.284C185.669 102.485 189.458 122.166 189.458 122.166C189.458 122.166 181.641 113.826 178.524 117.584C176.801 119.669 183.849 124.526 183.648 129.356C183.412 134.098 183.838 138.85 184.912 143.475C185.71 147.251 183.804 154.06 183.804 154.06L203.828 156.095Z" fill="white"/>
<path d="M203.829 156.659H203.769L183.757 154.597C183.674 154.589 183.593 154.562 183.521 154.519C183.449 154.477 183.387 154.419 183.34 154.349C183.295 154.283 183.265 154.208 183.252 154.129C183.238 154.05 183.242 153.969 183.262 153.891C183.262 153.822 185.118 147.173 184.362 143.581C183.279 138.907 182.848 134.107 183.084 129.315C183.18 127.024 181.438 124.646 179.903 122.547C178.368 120.448 176.975 118.556 178.093 117.204C178.387 116.839 178.758 116.544 179.18 116.34C179.601 116.137 180.063 116.029 180.531 116.026C183.235 115.943 186.722 118.775 188.578 120.476C188.243 118.578 187.712 115.435 187.3 112.227C186.103 102.92 186.878 101.229 187.794 100.771C188.144 100.586 188.53 100.477 188.925 100.453C189.32 100.428 189.716 100.488 190.086 100.629C190.685 100.88 191.214 101.275 191.625 101.779C191.777 100.684 192.194 99.4878 193.284 99.1258C195.356 98.452 196.854 100.771 197.583 102.265C197.787 101.924 198.069 101.635 198.404 101.422C198.74 101.209 199.121 101.077 199.516 101.037H199.603C201.725 101.037 202.879 104.666 203.429 107.191C203.609 107.057 203.813 106.961 204.031 106.911C204.249 106.86 204.475 106.856 204.695 106.898C206.765 107.196 207.403 113.927 208.057 128.894C208.401 136.826 207.577 139.094 206.623 141.725C206.395 142.362 206.165 143.017 205.931 143.773C204.827 147.499 204.397 156.054 204.391 156.146C204.385 156.293 204.323 156.433 204.215 156.534C204.109 156.636 203.967 156.692 203.819 156.691L203.829 156.659ZM184.55 153.525L203.287 155.454C203.411 153.401 203.861 146.747 204.841 143.42C205.079 142.627 205.323 141.958 205.555 141.308C206.473 138.796 207.255 136.633 206.931 128.935C206.715 124.059 206.473 118.959 206.073 114.967C205.441 108.712 204.699 108.066 204.533 108.002C204.259 107.961 204.159 108.057 204.121 108.094C203.883 108.461 203.781 108.901 203.833 109.336C203.849 109.487 203.805 109.638 203.709 109.757C203.613 109.876 203.475 109.952 203.325 109.968C203.173 109.984 203.021 109.94 202.903 109.845C202.783 109.749 202.709 109.611 202.691 109.459C202.283 106.471 200.997 102.086 199.59 102.155C198.637 102.201 198.1 103.745 198.096 103.763C198.058 103.877 197.985 103.976 197.887 104.046C197.79 104.116 197.673 104.154 197.553 104.154C197.433 104.154 197.316 104.116 197.218 104.046C197.121 103.976 197.048 103.877 197.01 103.763C197.01 103.722 195.498 99.584 193.66 100.18C192.743 100.473 192.652 102.618 192.743 103.612C192.756 103.748 192.719 103.885 192.639 103.996C192.56 104.108 192.443 104.187 192.31 104.22C192.177 104.252 192.036 104.236 191.914 104.174C191.792 104.113 191.696 104.009 191.644 103.882C191.644 103.882 190.897 102.118 189.687 101.664C189.464 101.581 189.226 101.547 188.989 101.564C188.751 101.581 188.52 101.65 188.312 101.765C187.267 102.402 188.06 111.682 190.049 122.024C190.072 122.146 190.055 122.272 190 122.384C189.946 122.495 189.857 122.586 189.747 122.643C189.636 122.699 189.51 122.718 189.388 122.697C189.265 122.675 189.153 122.615 189.068 122.524C189.018 122.469 183.899 117.025 180.586 117.153C180.28 117.153 179.978 117.222 179.702 117.354C179.426 117.487 179.183 117.68 178.991 117.919C178.446 118.578 179.61 120.169 180.847 121.85C182.41 123.99 184.358 126.648 184.248 129.347C184.009 134.042 184.43 138.747 185.499 143.324C186.172 146.536 185.013 151.701 184.55 153.525Z" fill="#1E1D25"/>
<path d="M198.17 131.657C198.038 131.657 197.91 131.611 197.808 131.528C197.706 131.444 197.636 131.328 197.611 131.198C197.01 128.096 193.995 126.061 191.571 124.425C190.687 123.873 189.853 123.244 189.078 122.547C189.02 122.495 188.973 122.432 188.94 122.361C188.907 122.291 188.888 122.214 188.886 122.136C188.884 122.058 188.897 121.981 188.926 121.908C188.954 121.836 188.997 121.77 189.052 121.715C189.107 121.659 189.173 121.616 189.245 121.587C189.318 121.558 189.395 121.544 189.473 121.546C189.551 121.548 189.628 121.566 189.698 121.598C189.769 121.631 189.832 121.678 189.885 121.736C190.61 122.379 191.389 122.96 192.212 123.472C194.673 125.136 198.046 127.413 198.733 130.983C198.748 131.057 198.748 131.133 198.732 131.207C198.717 131.281 198.687 131.351 198.645 131.414C198.602 131.476 198.547 131.529 198.484 131.57C198.42 131.611 198.349 131.639 198.275 131.652C198.24 131.658 198.205 131.659 198.17 131.657ZM196.877 123.152C196.745 123.152 196.617 123.107 196.515 123.023C196.413 122.94 196.344 122.823 196.318 122.694C196.226 122.277 196.135 121.818 196.029 121.319C195.315 117.868 194.123 112.09 191.621 103.828C191.582 103.684 191.6 103.53 191.672 103.4C191.743 103.269 191.863 103.171 192.006 103.128C192.149 103.084 192.303 103.098 192.435 103.166C192.568 103.234 192.669 103.352 192.716 103.493C195.232 111.81 196.437 117.616 197.152 121.09C197.258 121.585 197.349 122.043 197.436 122.465C197.452 122.539 197.452 122.616 197.437 122.691C197.422 122.766 197.392 122.837 197.35 122.9C197.307 122.963 197.252 123.017 197.188 123.059C197.124 123.101 197.053 123.129 196.978 123.143L196.877 123.152ZM200.68 122.703C200.542 122.703 200.406 122.652 200.302 122.56C200.198 122.468 200.13 122.341 200.112 122.203C200.112 122.075 198.532 109.547 196.992 103.722C196.966 103.648 196.956 103.569 196.963 103.49C196.969 103.412 196.991 103.336 197.028 103.266C197.065 103.197 197.116 103.136 197.178 103.087C197.239 103.038 197.31 103.002 197.387 102.982C197.463 102.962 197.542 102.958 197.62 102.969C197.698 102.981 197.772 103.009 197.839 103.051C197.905 103.093 197.963 103.148 198.007 103.213C198.051 103.278 198.082 103.352 198.096 103.429C199.659 109.327 201.236 121.933 201.248 122.061C201.258 122.136 201.254 122.211 201.234 122.284C201.214 122.356 201.18 122.424 201.134 122.483C201.088 122.542 201.03 122.592 200.966 122.629C200.9 122.666 200.828 122.689 200.754 122.698L200.68 122.703ZM204.332 123.152C204.18 123.152 204.034 123.091 203.928 122.984C203.82 122.877 203.76 122.731 203.76 122.579C203.76 120.402 203.22 112.548 202.688 109.468C202.672 109.323 202.712 109.177 202.8 109.061C202.888 108.944 203.016 108.866 203.16 108.841C203.304 108.816 203.452 108.848 203.574 108.929C203.696 109.009 203.782 109.134 203.814 109.276C204.356 112.401 204.906 120.37 204.906 122.565C204.908 122.641 204.894 122.717 204.866 122.789C204.838 122.86 204.796 122.924 204.742 122.979C204.69 123.034 204.626 123.077 204.554 123.107C204.484 123.136 204.408 123.152 204.332 123.152Z" fill="#1E1D25"/>
<path d="M238.07 145.556C239.388 141.672 240.16 137.623 240.36 133.526C240.59 129.356 247.766 123.963 246.716 122.483C244.718 119.66 236.176 126.607 236.176 126.607C236.176 126.607 240.658 107.622 238.738 106.705C237.488 106.105 235.192 110.742 235.192 110.742C235.192 110.742 236.686 104.089 235.426 103.672C233.744 103.117 230.576 110.211 230.576 110.211C230.576 110.211 231.58 105.28 230.576 105.097C228.744 104.762 225.184 114.72 225.184 114.72C225.184 114.72 225.88 110.137 224.528 110.215C222.888 110.289 221.086 122.767 219.9 131.157C218.712 139.548 219.822 140.561 220.476 143.956C221.132 147.352 213.36 194.739 217.828 210.091C223.626 230.07 247.698 273.408 247.698 273.408L268.744 240.116C268.744 240.116 248.38 212.501 243.21 194.565C239.37 181.221 237.07 148.763 238.07 145.556Z" fill="white"/>
<path d="M247.696 273.962C247.598 273.958 247.5 273.928 247.416 273.876C247.33 273.824 247.26 273.75 247.212 273.664C246.972 273.232 223.048 230.062 217.292 210.27C214.084 199.272 217.082 172.262 218.868 156.127C219.556 149.9 220.102 144.983 219.928 144.085C219.798 143.411 219.648 142.829 219.506 142.252C218.906 139.91 218.382 137.884 219.346 131.079C221.636 114.729 222.868 109.725 224.514 109.652C224.678 109.642 224.844 109.671 224.994 109.735C225.146 109.8 225.282 109.898 225.39 110.023C225.676 110.404 225.846 110.859 225.884 111.333C227.31 107.874 229.188 104.267 230.692 104.542C230.814 104.566 230.93 104.614 231.034 104.684C231.136 104.754 231.224 104.845 231.292 104.95C231.558 105.34 231.626 106.091 231.598 106.921C232.8 104.794 234.348 102.714 235.618 103.14C236.612 103.465 236.654 105.431 236.35 107.722C237.19 106.604 238.142 105.807 239 106.215C239.558 106.485 240.594 106.98 238.752 117.13C238.184 120.274 237.51 123.395 237.102 125.2C239.192 123.651 243.23 120.952 245.654 121.277C245.956 121.308 246.25 121.403 246.514 121.557C246.778 121.71 247.006 121.918 247.184 122.166C247.916 123.202 246.726 124.65 244.892 126.85C243.174 128.916 241.044 131.492 240.924 133.568C240.726 137.713 239.956 141.81 238.632 145.743C237.716 148.667 239.848 180.758 243.774 194.396C248.828 212.002 268.992 239.496 269.202 239.754C269.268 239.848 269.304 239.96 269.304 240.076C269.304 240.192 269.268 240.304 269.202 240.4L248.156 273.692C248.106 273.77 248.04 273.836 247.96 273.884C247.88 273.93 247.79 273.958 247.696 273.962ZM224.542 110.843C223.166 112.122 221.26 125.507 220.444 131.254C219.528 137.834 219.986 139.759 220.578 141.981C220.724 142.563 220.88 143.163 221.036 143.865C221.234 144.886 220.812 148.814 219.986 156.237C218.208 172.276 215.234 199.152 218.374 209.935C223.648 228.072 244.348 266.094 247.73 272.256L268.076 240.12C265.784 236.986 247.522 211.502 242.684 194.707C238.93 181.684 236.47 148.818 237.546 145.395C238.848 141.556 239.604 137.553 239.792 133.504C239.93 131.047 242.194 128.312 244.018 126.112C244.962 124.971 246.39 123.248 246.254 122.817C246.166 122.7 246.054 122.602 245.924 122.532C245.796 122.461 245.654 122.42 245.506 122.409C243.216 122.102 238.276 125.672 236.556 127.074C236.464 127.149 236.35 127.193 236.23 127.2C236.112 127.207 235.994 127.176 235.892 127.112C235.792 127.049 235.714 126.955 235.668 126.845C235.622 126.735 235.614 126.613 235.64 126.497C237.63 118.079 239.266 108.401 238.49 107.25C238.06 107.283 236.776 108.9 235.742 111.022C235.68 111.148 235.574 111.246 235.444 111.299C235.314 111.352 235.168 111.355 235.036 111.308C234.904 111.261 234.794 111.168 234.726 111.045C234.658 110.922 234.638 110.778 234.668 110.641C235.328 107.704 235.586 104.753 235.242 104.226C234.624 104.176 232.762 106.82 231.118 110.463C231.06 110.592 230.958 110.696 230.83 110.755C230.7 110.813 230.554 110.822 230.42 110.779C230.286 110.736 230.17 110.645 230.1 110.524C230.028 110.402 230.004 110.258 230.032 110.119C230.416 108.222 230.572 106.265 230.394 105.706C229.542 106.077 227.414 110.257 225.742 114.931C225.698 115.07 225.602 115.187 225.476 115.259C225.348 115.33 225.198 115.35 225.056 115.314C224.914 115.278 224.792 115.19 224.714 115.066C224.634 114.943 224.606 114.795 224.634 114.651C224.866 112.974 224.84 111.228 224.542 110.843Z" fill="#1E1D25"/>
<path d="M227.748 134.402C227.694 134.403 227.64 134.396 227.588 134.38C227.442 134.337 227.32 134.238 227.246 134.105C227.174 133.972 227.156 133.815 227.2 133.669C228.116 130.613 231.324 128.812 233.698 127.501C234.442 127.12 235.154 126.68 235.828 126.186C235.946 126.089 236.096 126.043 236.248 126.058C236.322 126.065 236.395 126.087 236.463 126.122C236.529 126.158 236.587 126.206 236.635 126.264C236.683 126.322 236.718 126.389 236.74 126.461C236.762 126.533 236.771 126.608 236.763 126.683C236.757 126.758 236.734 126.831 236.698 126.897C236.662 126.964 236.614 127.023 236.556 127.07C235.834 127.61 235.068 128.088 234.266 128.5C231.974 129.788 229.083 131.387 228.309 133.999C228.273 134.118 228.196 134.222 228.096 134.294C227.996 134.367 227.874 134.405 227.748 134.402ZM231.416 126.498H231.333C231.185 126.475 231.049 126.394 230.959 126.274C230.869 126.153 230.828 126.001 230.848 125.851C231.434 121.782 232.571 117.223 234.637 110.596C234.683 110.451 234.784 110.33 234.918 110.259C235.054 110.189 235.212 110.175 235.356 110.22C235.502 110.266 235.622 110.367 235.694 110.502C235.764 110.637 235.779 110.795 235.733 110.94C233.681 117.502 232.561 122.011 231.985 126.012C231.963 126.147 231.892 126.27 231.788 126.359C231.684 126.448 231.552 126.497 231.416 126.498ZM227.224 126.113H227.126C226.98 126.084 226.85 125.999 226.764 125.875C226.678 125.752 226.644 125.601 226.668 125.453C226.668 125.352 228.374 115.321 230.042 110.074C230.06 109.998 230.094 109.927 230.142 109.865C230.19 109.803 230.248 109.751 230.318 109.713C230.386 109.675 230.46 109.651 230.538 109.643C230.616 109.635 230.694 109.643 230.77 109.666C230.844 109.69 230.912 109.728 230.972 109.779C231.03 109.83 231.079 109.893 231.113 109.963C231.147 110.034 231.166 110.11 231.17 110.189C231.172 110.267 231.161 110.345 231.133 110.418C229.487 115.587 227.814 125.54 227.8 125.645C227.776 125.779 227.704 125.9 227.598 125.985C227.492 126.071 227.36 126.116 227.224 126.113ZM223.676 126.112H223.624C223.55 126.106 223.479 126.084 223.411 126.049C223.345 126.014 223.287 125.966 223.237 125.908C223.189 125.85 223.152 125.783 223.13 125.712C223.108 125.64 223.101 125.564 223.109 125.489C223.315 123.4 224.024 117.699 224.62 114.638C224.648 114.488 224.735 114.356 224.861 114.271C224.987 114.185 225.142 114.153 225.29 114.182C225.44 114.21 225.573 114.297 225.659 114.423C225.745 114.549 225.776 114.704 225.746 114.853C225.16 117.864 224.45 123.532 224.248 125.599C224.234 125.741 224.169 125.872 224.063 125.967C223.957 126.062 223.818 126.114 223.676 126.112Z" fill="#1E1D25"/>
<path d="M98.4961 248.007C98.4961 248.007 62.6747 258.423 54.5317 265.339C47.4333 271.365 28.1181 325.781 29.6167 345.485C31.1151 365.191 62.8351 362.629 62.8351 362.629L60.3423 374.773H158.706C158.706 374.773 156.813 296.747 161.913 277.023C167.014 257.301 185.857 238.073 195.366 219.655C204.874 201.238 208.444 151.477 208.444 151.477C208.444 151.477 202.358 154.441 192.932 153.41C183.011 152.329 178.873 148.021 178.873 148.021C178.873 148.021 173.246 190.923 166.377 201.394C159.508 211.865 140.174 234.847 127.228 241.523L121.835 263.285L98.4961 248.007Z" fill="white"/>
<path d="M60.342 375.344C60.3024 375.35 60.2624 375.35 60.2228 375.344C60.148 375.332 60.0766 375.304 60.0128 375.262C59.949 375.222 59.8942 375.168 59.8514 375.104C59.8086 375.042 59.779 374.972 59.764 374.896C59.7492 374.822 59.7494 374.746 59.7646 374.672L62.1154 363.214C56.925 363.174 51.76 362.486 46.7412 361.162C35.9494 358.16 29.9096 352.176 29.2818 343.854C27.8062 324.438 46.7366 271.184 54.1464 264.902C62.2896 257.986 96.8552 247.882 98.3216 247.456C98.3986 247.434 98.4792 247.43 98.5582 247.442C98.637 247.454 98.7126 247.482 98.78 247.526L121.445 262.364L126.641 241.384C126.662 241.306 126.699 241.23 126.75 241.166C126.802 241.102 126.866 241.05 126.939 241.014C139.587 234.492 159.017 211.548 165.868 201.077C172.59 190.821 178.213 148.378 178.268 147.947C178.285 147.843 178.331 147.745 178.399 147.665C178.468 147.584 178.557 147.523 178.657 147.489C178.76 147.455 178.87 147.451 178.974 147.477C179.079 147.503 179.174 147.558 179.249 147.636C179.29 147.677 183.373 151.806 192.959 152.851C202.088 153.85 208.082 151.018 208.16 150.972C208.25 150.928 208.35 150.908 208.448 150.915C208.548 150.923 208.644 150.956 208.728 151.013C208.81 151.069 208.878 151.146 208.922 151.236C208.966 151.326 208.986 151.426 208.98 151.526C208.942 152.026 205.314 201.599 195.837 219.925C192.171 227.032 187.245 234.08 182.026 241.54C173.919 253.134 165.529 265.122 162.426 277.174C157.418 296.6 159.218 373.988 159.251 374.78C159.253 374.932 159.196 375.08 159.091 375.188C158.987 375.298 158.843 375.362 158.691 375.368C158.616 375.37 158.541 375.358 158.47 375.332C158.399 375.306 158.334 375.264 158.28 375.212C158.225 375.16 158.181 375.098 158.151 375.028C158.121 374.958 158.105 374.884 158.105 374.808C158.105 374.03 156.272 296.48 161.313 276.904C164.475 264.65 172.916 252.576 181.082 240.898C186.278 233.47 191.163 226.45 194.829 219.412C203.466 202.681 207.224 159.312 207.774 152.393C205.736 153.176 200.356 154.826 192.845 154.006C185.22 153.172 180.953 150.486 179.271 149.176C178.355 155.981 173.177 192.049 166.835 201.728C159.764 212.524 140.714 235.084 127.705 241.934L122.371 263.444C122.348 263.534 122.305 263.616 122.244 263.684C122.184 263.752 122.108 263.806 122.023 263.84C121.938 263.872 121.846 263.886 121.755 263.876C121.664 263.868 121.577 263.838 121.5 263.788L98.3858 248.666C95.178 249.614 62.4866 259.358 54.8796 265.81C51.5664 268.622 45.096 282.86 39.5008 299.66C33.1586 318.692 29.763 335.192 30.4182 343.804C31.8572 362.738 62.4958 362.102 62.7982 362.092C62.8852 362.09 62.9718 362.106 63.0512 362.142C63.1306 362.178 63.2008 362.232 63.2564 362.298C63.3128 362.364 63.3532 362.44 63.3746 362.524C63.3962 362.608 63.398 362.696 63.3802 362.78L60.8872 374.924C60.8544 375.044 60.7834 375.148 60.6852 375.226C60.5868 375.302 60.4662 375.344 60.342 375.344Z" fill="#1E1D25"/>
<path d="M178.332 369.654L137.392 368.796L155.937 306.356L195.356 313.756L178.332 369.654Z" fill="#FFCB3D"/>
<path d="M178.332 370.226L137.397 369.368C137.308 369.368 137.22 369.346 137.141 369.304C137.061 369.264 136.992 369.206 136.938 369.136C136.887 369.064 136.852 368.982 136.837 368.896C136.822 368.808 136.827 368.72 136.851 368.636L155.397 306.194C155.437 306.058 155.527 305.944 155.648 305.87C155.769 305.796 155.913 305.77 156.052 305.796L195.462 313.192C195.542 313.206 195.619 313.236 195.687 313.282C195.755 313.326 195.812 313.386 195.856 313.456C195.899 313.524 195.927 313.602 195.938 313.684C195.949 313.764 195.943 313.846 195.92 313.926L178.891 369.832C178.853 369.948 178.778 370.05 178.677 370.122C178.576 370.192 178.455 370.228 178.332 370.226ZM138.157 368.264L177.911 369.094L194.623 314.192L156.341 307.006L138.157 368.264Z" fill="#1E1D25"/>
<path d="M185.623 311.928L167.385 308.504L168.26 305.59L186.462 309.16L185.623 311.928Z" fill="#FFCB3D"/>
<path d="M185.622 312.5C185.587 312.504 185.551 312.504 185.516 312.5L167.26 309.068C167.18 309.054 167.105 309.022 167.038 308.976C166.972 308.932 166.916 308.872 166.875 308.802C166.834 308.734 166.808 308.658 166.798 308.58C166.788 308.5 166.793 308.42 166.815 308.344L167.69 305.43C167.731 305.292 167.821 305.176 167.943 305.102C168.065 305.028 168.21 305.004 168.35 305.03L186.552 308.6C186.63 308.618 186.705 308.65 186.77 308.696C186.836 308.742 186.891 308.802 186.932 308.87C186.973 308.94 186.998 309.016 187.008 309.094C187.017 309.174 187.01 309.254 186.987 309.33L186.149 312.078C186.117 312.196 186.049 312.3 185.955 312.376C185.86 312.452 185.743 312.496 185.622 312.5ZM168.117 308.06L185.223 311.268L185.727 309.594L168.657 306.246L168.117 308.06Z" fill="#1E1D25"/>
<path d="M183.207 309.097H183.097L171.682 306.861C171.604 306.845 171.53 306.813 171.464 306.767C171.399 306.721 171.343 306.663 171.302 306.595C171.26 306.527 171.234 306.451 171.223 306.371C171.213 306.293 171.22 306.213 171.242 306.137L172.2 302.929C172.242 302.791 172.333 302.675 172.456 302.601C172.578 302.527 172.724 302.501 172.865 302.529L184.257 304.875C184.337 304.889 184.414 304.917 184.482 304.963C184.549 305.007 184.607 305.065 184.651 305.133C184.694 305.203 184.722 305.279 184.733 305.359C184.744 305.441 184.738 305.523 184.715 305.601L183.757 308.693C183.721 308.811 183.648 308.913 183.549 308.985C183.45 309.059 183.33 309.097 183.207 309.097ZM172.521 305.843L182.809 307.859L183.414 305.861L173.149 303.749L172.521 305.843Z" fill="#1E1D25"/>
<path d="M125.926 334.285C125.926 334.285 141.759 333.597 149.411 328.327C149.411 328.327 144.98 338.133 148.591 338.757C152.202 339.379 177.241 334.705 177.97 338.959C178.629 342.825 158.554 345.483 158.554 345.483C158.554 345.483 180.646 342.175 180.646 346.277C180.646 350.511 159.053 351.211 159.053 351.211C159.053 351.211 177.97 349.795 177.97 353.375C177.97 356.953 158.182 356.807 158.182 356.807C158.182 356.807 172.984 356.399 172.984 360.015C172.984 364.657 124.309 361.665 124.309 361.665L125.926 334.285Z" fill="white"/>
<path d="M152.899 363.224C140.59 363.224 126.833 362.418 124.272 362.258C124.197 362.252 124.123 362.234 124.055 362.202C123.988 362.168 123.927 362.122 123.877 362.066C123.828 362.01 123.789 361.944 123.765 361.874C123.741 361.802 123.731 361.728 123.736 361.652L125.353 334.254C125.362 334.112 125.423 333.978 125.525 333.88C125.627 333.78 125.761 333.722 125.903 333.718C126.059 333.718 141.658 332.98 149.086 327.87C149.189 327.8 149.312 327.764 149.437 327.77C149.562 327.776 149.681 327.822 149.777 327.902C149.873 327.982 149.941 328.09 149.969 328.212C149.997 328.334 149.985 328.462 149.934 328.576C149.063 330.5 147.028 335.908 147.995 337.708C148.062 337.842 148.16 337.958 148.282 338.044C148.403 338.132 148.544 338.188 148.692 338.208C149.787 338.396 153.242 338.038 157.247 337.622C169.368 336.366 177.992 335.72 178.533 338.878C178.572 339.13 178.558 339.386 178.491 339.632C178.425 339.878 178.308 340.108 178.148 340.306C177.149 341.658 174.161 342.804 170.816 343.712C175.096 343.542 179.17 343.752 180.586 344.976C180.783 345.134 180.943 345.334 181.054 345.562C181.165 345.79 181.224 346.038 181.228 346.292C181.228 347.534 180.238 349.28 172.251 350.576C174.84 350.814 177.039 351.286 177.969 352.152C178.149 352.306 178.294 352.494 178.394 352.708C178.495 352.922 178.548 353.154 178.551 353.39C178.546 353.626 178.493 353.858 178.396 354.072C178.298 354.286 178.158 354.478 177.983 354.636C176.691 355.914 172.92 356.606 169.001 356.978C170.702 357.33 172.145 357.84 172.91 358.582C173.114 358.766 173.277 358.99 173.389 359.24C173.502 359.49 173.562 359.76 173.566 360.034C173.564 360.224 173.523 360.412 173.444 360.586C173.365 360.758 173.25 360.912 173.107 361.038C171.288 362.724 162.536 363.224 152.899 363.224ZM124.913 361.148C142.652 362.216 169.506 362.83 172.301 360.204C172.333 360.172 172.411 360.09 172.411 360.034C172.408 359.914 172.378 359.794 172.324 359.686C172.27 359.578 172.194 359.482 172.099 359.406C170.537 357.886 164.63 357.46 160.689 357.396C159.438 357.396 158.526 357.396 158.178 357.396C158.028 357.392 157.885 357.332 157.778 357.226C157.672 357.12 157.612 356.976 157.609 356.826C157.608 356.676 157.666 356.532 157.771 356.424C157.875 356.316 158.018 356.254 158.168 356.25C158.485 356.25 159.452 356.218 160.748 356.25C166.247 356.158 175.339 355.636 177.168 353.826C177.235 353.774 177.29 353.71 177.329 353.636C177.369 353.56 177.392 353.478 177.397 353.394C177.393 353.316 177.371 353.24 177.334 353.17C177.297 353.102 177.245 353.042 177.181 352.996C175.554 351.488 168.103 351.41 162.847 351.622C160.625 351.772 159.099 351.822 159.071 351.828C158.919 351.836 158.77 351.782 158.657 351.68C158.544 351.578 158.477 351.436 158.469 351.284C158.461 351.132 158.514 350.984 158.615 350.87C158.717 350.758 158.86 350.69 159.012 350.682C159.511 350.646 161.207 350.526 163.402 350.452C171.384 349.852 180.091 348.422 180.091 346.268C180.09 346.178 180.067 346.088 180.024 346.01C179.981 345.93 179.919 345.862 179.844 345.81C177.653 343.918 165.954 345.04 160.102 345.81L158.65 346.012C158.505 346.024 158.361 345.978 158.247 345.888C158.134 345.796 158.06 345.666 158.039 345.522C158.019 345.378 158.054 345.23 158.138 345.112C158.221 344.992 158.347 344.91 158.489 344.88C158.737 344.844 159.232 344.77 159.914 344.678C165.212 343.882 175.527 341.93 177.241 339.578C177.311 339.504 177.363 339.416 177.394 339.32C177.425 339.222 177.434 339.12 177.42 339.02C177.346 338.594 176.544 337.616 170.697 337.694C166.692 337.746 161.747 338.258 157.408 338.712C153.151 339.17 149.787 339.5 148.536 339.286C148.216 339.236 147.912 339.11 147.649 338.922C147.386 338.732 147.172 338.482 147.024 338.194C145.988 336.242 147.331 332.068 148.243 329.708C140.929 333.768 129.115 334.67 126.476 334.812L124.913 361.148Z" fill="#1E1D25"/>
<path d="M98.3209 241.403L92.3271 249.881C92.3271 249.881 107.523 271.877 109.282 281.423L121.82 263.285L139.765 268.825L130.192 239.781L127.058 235.727L127.237 241.509L121.843 263.271L98.3209 241.403Z" fill="white"/>
<path d="M109.297 281.994C109.257 282 109.217 282 109.178 281.994C109.063 281.974 108.958 281.92 108.876 281.838C108.794 281.756 108.739 281.65 108.719 281.536C106.992 272.202 91.998 250.43 91.8468 250.214C91.7794 250.118 91.7432 250.002 91.7432 249.884C91.7432 249.766 91.7794 249.652 91.8468 249.554L97.8406 241.082C97.8876 241.014 97.949 240.958 98.0202 240.916C98.0914 240.876 98.171 240.85 98.253 240.844C98.3358 240.834 98.4198 240.842 98.4988 240.868C98.578 240.894 98.6506 240.938 98.7114 240.994L121.509 262.212L126.646 241.472L126.477 235.758C126.471 235.636 126.505 235.516 126.572 235.416C126.64 235.314 126.738 235.238 126.852 235.198C126.967 235.156 127.091 235.152 127.207 235.188C127.324 235.222 127.426 235.294 127.499 235.39L130.633 239.446C130.672 239.496 130.701 239.554 130.72 239.616L140.297 268.66C140.332 268.76 140.337 268.868 140.314 268.97C140.29 269.074 140.239 269.168 140.164 269.242C140.09 269.318 139.996 269.372 139.893 269.396C139.791 269.42 139.683 269.416 139.583 269.384L122.059 263.954L109.769 281.748C109.716 281.822 109.645 281.884 109.563 281.928C109.481 281.97 109.39 281.994 109.297 281.994ZM93.0244 249.884C94.9124 252.634 107.01 270.542 109.558 280.028L121.074 263.366L98.4088 242.288L93.0244 249.884ZM122.513 262.894L138.849 267.962L129.684 240.064L127.691 237.49L127.815 241.504C127.822 241.556 127.822 241.608 127.815 241.66L122.513 262.894Z" fill="#1E1D25"/>
<path d="M62.8301 362.628C71.2391 362.766 124.309 364.598 124.309 364.598C124.309 364.598 128.039 358.324 128.039 347.73C128.039 337.566 126.027 331.874 126.027 331.874L66.0745 329.396L62.8301 362.628Z" fill="white"/>
<path d="M124.309 365.159C123.777 365.159 71.1518 363.325 62.8436 363.201C62.6914 363.199 62.546 363.137 62.4396 363.029C62.3332 362.919 62.2742 362.773 62.2754 362.621C62.2754 362.545 62.2906 362.469 62.32 362.401C62.3494 362.331 62.3926 362.267 62.447 362.215C62.5012 362.163 62.5656 362.121 62.636 362.093C62.7066 362.067 62.7818 362.053 62.8574 362.057C70.8172 362.175 119.35 363.839 123.992 363.999C124.698 362.657 127.484 356.759 127.484 347.717C127.484 339.209 126.045 333.819 125.619 332.417L66.0468 329.951C65.9036 329.933 65.7724 329.863 65.6792 329.753C65.5862 329.643 65.5378 329.501 65.5442 329.357C65.5506 329.213 65.611 329.077 65.7136 328.975C65.816 328.875 65.953 328.815 66.0972 328.811L126.05 331.289C126.164 331.293 126.275 331.333 126.367 331.401C126.46 331.469 126.529 331.561 126.568 331.669C126.65 331.909 128.612 337.573 128.612 347.709C128.612 358.339 124.946 364.609 124.799 364.871C124.75 364.957 124.679 365.031 124.593 365.081C124.507 365.131 124.409 365.159 124.309 365.159Z" fill="#1E1D25"/>
<path d="M69.3132 329.956C69.2556 329.956 69.1982 329.946 69.1436 329.928C69.0716 329.906 69.0048 329.868 68.9468 329.82C68.889 329.772 68.8412 329.712 68.8062 329.646C68.7714 329.58 68.75 329.506 68.7434 329.43C68.7368 329.356 68.745 329.28 68.7678 329.208L76.613 304.004C76.6354 303.932 76.6716 303.866 76.7196 303.808C76.7678 303.75 76.8268 303.702 76.8934 303.666C76.96 303.632 77.0328 303.61 77.1078 303.604C77.1828 303.596 77.2582 303.604 77.3302 303.626C77.4022 303.648 77.469 303.684 77.5268 303.734C77.5848 303.782 77.6326 303.84 77.6678 303.906C77.7028 303.974 77.7246 304.046 77.7314 304.122C77.7384 304.196 77.7306 304.272 77.7082 304.344L69.8584 329.548C69.8232 329.664 69.7512 329.768 69.653 329.842C69.5548 329.914 69.4356 329.954 69.3132 329.956Z" fill="#1E1D25"/>
<path d="M96.2985 286.292L90.6885 287.908L98.0419 313.436L103.652 311.82L96.2985 286.292Z" fill="#FFCB3D"/>
<path d="M98.0648 314.004C97.9406 314.002 97.8198 313.962 97.7208 313.886C97.6216 313.81 97.5494 313.706 97.515 313.586L90.183 288.062C90.1416 287.916 90.1594 287.76 90.2322 287.626C90.3052 287.494 90.4274 287.396 90.5724 287.352L96.186 285.738C96.258 285.716 96.3336 285.71 96.4084 285.716C96.4832 285.724 96.5556 285.748 96.6214 285.784C96.687 285.82 96.7448 285.87 96.7912 285.928C96.8376 285.988 96.8718 286.056 96.8918 286.128L104.224 311.652C104.265 311.798 104.246 311.956 104.173 312.088C104.099 312.222 103.976 312.32 103.83 312.362L98.2206 313.98C98.1698 313.994 98.1176 314.002 98.0648 314.004ZM91.4248 288.296L98.459 312.72L102.968 311.418L95.911 286.998L91.4248 288.296Z" fill="#1E1D25"/>
<path d="M95.3663 283.062L89.7563 284.678L90.6875 287.91L96.2973 286.294L95.3663 283.062ZM93.1351 279.234L89.6211 280.246L90.8097 284.372L94.3237 283.36L93.1351 279.234Z" fill="white"/>
<path d="M90.6904 288.478C90.5926 288.478 90.4966 288.452 90.4108 288.406C90.3452 288.368 90.2874 288.32 90.241 288.26C90.1946 288.202 90.1604 288.134 90.1404 288.062L89.224 284.83C89.203 284.76 89.1964 284.684 89.2046 284.61C89.2128 284.534 89.2358 284.462 89.272 284.398C89.3082 284.332 89.357 284.274 89.4156 284.228C89.4742 284.18 89.5414 284.146 89.6134 284.126L95.227 282.508C95.3722 282.466 95.5278 282.484 95.66 282.558C95.7922 282.63 95.8902 282.752 95.9328 282.898L96.8492 286.104C96.8918 286.25 96.8746 286.408 96.8016 286.54C96.7286 286.674 96.6056 286.772 96.4596 286.816L90.8462 288.432C90.7964 288.454 90.744 288.47 90.6904 288.478ZM90.4658 285.064L91.0798 287.196L95.589 285.894L94.9796 283.768L90.4658 285.064Z" fill="#1E1D25"/>
<path d="M90.8106 284.945C90.7128 284.943 90.6168 284.917 90.531 284.871C90.4654 284.835 90.4076 284.786 90.3612 284.728C90.3148 284.668 90.2806 284.6 90.2606 284.528L89.0692 280.404C89.0282 280.258 89.0466 280.101 89.1206 279.969C89.1944 279.837 89.3176 279.739 89.4632 279.697L92.9734 278.686C93.0458 278.664 93.1214 278.657 93.1962 278.665C93.271 278.673 93.3434 278.698 93.4092 278.734C93.4752 278.77 93.5334 278.818 93.5806 278.878C93.6276 278.936 93.6628 279.003 93.6838 279.075L94.8706 283.199C94.8956 283.275 94.904 283.356 94.8954 283.434C94.8866 283.514 94.861 283.59 94.8202 283.658C94.7848 283.724 94.7366 283.782 94.6784 283.83C94.6202 283.876 94.553 283.912 94.4812 283.932L90.9664 284.945C90.9146 284.951 90.8622 284.951 90.8106 284.945ZM90.3522 280.637L91.223 283.662L93.6334 282.965L92.7626 279.945L90.3522 280.637ZM101.029 293.523C100.905 293.523 100.785 293.484 100.686 293.41C100.586 293.336 100.514 293.23 100.479 293.112L98.0368 284.634L95.993 285.219C95.8498 285.253 95.699 285.232 95.5718 285.158C95.4446 285.084 95.351 284.963 95.3104 284.821C95.2696 284.679 95.285 284.527 95.3534 284.397C95.4216 284.267 95.5374 284.167 95.6768 284.119L98.2706 283.373C98.343 283.351 98.419 283.346 98.494 283.354C98.569 283.364 98.6416 283.385 98.7076 283.423C98.7736 283.459 98.8318 283.509 98.8786 283.567C98.9254 283.627 98.9602 283.695 98.9808 283.767L101.584 292.795C101.625 292.941 101.606 293.098 101.532 293.23C101.458 293.362 101.335 293.46 101.19 293.502C101.138 293.518 101.084 293.525 101.029 293.523Z" fill="#1E1D25"/>
<path d="M86.0957 296.016H112.353V315.232L99.2245 327.842L86.0957 316.29V296.016Z" fill="white"/>
<path d="M99.2243 328.395C99.0837 328.395 98.9483 328.343 98.8439 328.249L85.7151 316.697C85.6543 316.643 85.6057 316.579 85.5725 316.505C85.5393 316.431 85.5223 316.351 85.5225 316.271V296.015C85.5225 295.865 85.5829 295.719 85.6903 295.611C85.7977 295.503 85.9435 295.443 86.0953 295.443H112.353C112.505 295.443 112.651 295.503 112.758 295.611C112.865 295.719 112.926 295.865 112.926 296.015V315.231C112.926 315.307 112.91 315.385 112.879 315.455C112.849 315.527 112.804 315.589 112.747 315.643L99.6183 328.253C99.5099 328.349 99.3689 328.401 99.2243 328.395ZM86.6681 316.023L99.2059 327.057L111.78 314.983V296.589H86.6681V316.023Z" fill="#1E1D25"/>
<path d="M112.353 302.062H86.0953C85.9435 302.062 85.7977 302.002 85.6903 301.894C85.5829 301.786 85.5225 301.64 85.5225 301.488C85.5225 301.336 85.5829 301.192 85.6903 301.084C85.7977 300.976 85.9435 300.916 86.0953 300.916H112.353C112.505 300.916 112.651 300.976 112.758 301.084C112.865 301.192 112.926 301.336 112.926 301.488C112.926 301.64 112.865 301.786 112.758 301.894C112.651 302.002 112.505 302.062 112.353 302.062ZM113.902 364.8C113.819 364.802 113.738 364.784 113.663 364.75C113.526 364.688 113.419 364.572 113.365 364.43C113.312 364.288 113.317 364.132 113.379 363.994C113.407 363.93 116.184 357.702 116.628 347.822C116.963 340.294 115.492 331.632 115.478 331.546C115.451 331.396 115.485 331.244 115.57 331.12C115.656 330.996 115.788 330.912 115.936 330.886C116.085 330.86 116.238 330.894 116.362 330.98C116.486 331.064 116.572 331.196 116.601 331.344C116.601 331.43 118.104 340.216 117.76 347.84C117.302 357.958 114.552 364.172 114.415 364.434C114.374 364.538 114.304 364.628 114.213 364.694C114.122 364.758 114.013 364.796 113.902 364.8ZM120.748 362.418C120.285 362.418 119.832 362.28 119.447 362.022C119.062 361.766 118.762 361.4 118.585 360.972C118.407 360.544 118.361 360.074 118.451 359.62C118.542 359.164 118.765 358.748 119.092 358.42C119.42 358.092 119.837 357.87 120.291 357.78C120.745 357.688 121.216 357.736 121.644 357.912C122.072 358.09 122.438 358.39 122.695 358.774C122.952 359.16 123.09 359.612 123.09 360.076C123.089 360.696 122.841 361.292 122.403 361.73C121.964 362.17 121.369 362.416 120.748 362.418ZM120.748 358.884C120.511 358.884 120.28 358.954 120.083 359.086C119.886 359.218 119.733 359.404 119.643 359.624C119.552 359.842 119.529 360.084 119.575 360.316C119.622 360.548 119.736 360.76 119.904 360.928C120.072 361.094 120.285 361.208 120.518 361.254C120.75 361.3 120.991 361.276 121.209 361.184C121.427 361.092 121.614 360.938 121.745 360.742C121.876 360.544 121.945 360.312 121.944 360.076C121.943 359.76 121.816 359.456 121.592 359.234C121.368 359.01 121.065 358.884 120.748 358.884ZM118.979 272.788C118.872 272.786 118.768 272.756 118.677 272.702C118.611 272.66 118.555 272.606 118.511 272.542C118.466 272.478 118.436 272.406 118.42 272.33L117.65 268.636C117.631 268.558 117.63 268.476 117.646 268.398C117.662 268.318 117.694 268.244 117.742 268.178L121.362 262.94C121.431 262.84 121.531 262.764 121.646 262.724C121.762 262.684 121.887 262.684 122.004 262.72L127.393 264.406C127.494 264.438 127.585 264.498 127.655 264.58C127.725 264.66 127.77 264.76 127.787 264.866L128.602 269.934C128.625 270.076 128.593 270.22 128.513 270.34C128.433 270.46 128.311 270.546 128.172 270.58L119.112 272.77C119.069 272.782 119.024 272.788 118.979 272.788ZM118.823 268.664L119.424 271.538L127.393 269.59L126.719 265.396L122.063 263.954L118.823 268.664Z" fill="#1E1D25"/>
<path d="M326.126 365.056V251.736L309.63 244.982L286.212 276.94L287.39 240.71C287.39 240.71 278.056 243.722 270.664 237.962C263.272 232.202 255.836 220.63 255.836 220.63C255.836 220.63 257.526 226.376 255.836 229.338C254.144 232.298 250.662 234.772 249.938 238.718C249.214 242.662 252.65 245.132 249.938 249.07C247.224 253.006 244.974 254.284 244.246 258.582C243.518 262.88 245.478 269.346 237.372 271.01C237.372 271.01 244.53 273.54 246.46 286.288C248.388 299.036 246.94 365.056 246.94 365.056H326.126Z" fill="white"/>
<path d="M246.94 365.644C246.866 365.642 246.792 365.624 246.722 365.594C246.654 365.564 246.592 365.52 246.54 365.466C246.488 365.412 246.448 365.348 246.42 365.278C246.392 365.206 246.38 365.132 246.382 365.056C246.382 364.396 247.806 298.926 245.924 286.376C244.09 274.168 237.276 271.574 237.216 271.55C237.098 271.508 236.998 271.428 236.93 271.324C236.86 271.218 236.828 271.094 236.836 270.968C236.846 270.844 236.894 270.726 236.978 270.632C237.06 270.538 237.172 270.476 237.294 270.452C243.252 269.228 243.376 265.31 243.5 261.52C243.51 260.504 243.586 259.492 243.728 258.486C244.256 255.338 245.562 253.734 247.234 251.704C247.922 250.866 248.7 249.916 249.526 248.748C250.964 246.654 250.492 245.06 249.946 243.212C249.552 241.88 249.104 240.376 249.434 238.63C249.938 235.94 251.582 233.966 253.174 232.054C253.992 231.13 254.732 230.136 255.382 229.084C256.93 226.376 255.346 220.882 255.326 220.836C255.298 220.706 255.314 220.569 255.374 220.45C255.434 220.331 255.534 220.236 255.656 220.182C255.778 220.128 255.916 220.118 256.044 220.154C256.174 220.189 256.286 220.269 256.362 220.378C256.436 220.492 263.822 231.954 271.054 237.568C278.116 243.066 287.166 240.238 287.254 240.206C287.342 240.178 287.434 240.172 287.526 240.188C287.616 240.204 287.702 240.24 287.776 240.296C287.85 240.352 287.908 240.424 287.948 240.508C287.988 240.592 288.008 240.682 288.004 240.774L286.886 275.144L309.208 244.68C309.284 244.576 309.392 244.502 309.514 244.468C309.636 244.432 309.768 244.44 309.886 244.486L326.382 251.242C326.488 251.284 326.578 251.358 326.64 251.454C326.704 251.548 326.736 251.66 326.736 251.772V365.056C326.736 365.208 326.676 365.354 326.568 365.462C326.46 365.57 326.314 365.63 326.164 365.63C326.012 365.63 325.866 365.57 325.758 365.462C325.65 365.354 325.59 365.208 325.59 365.056V252.122L309.844 245.706L286.694 277.324C286.622 277.422 286.52 277.494 286.404 277.53C286.288 277.564 286.162 277.562 286.048 277.522C285.934 277.482 285.834 277.408 285.764 277.308C285.696 277.208 285.66 277.088 285.662 276.968L286.808 241.518C284.37 242.118 276.728 243.438 270.312 238.48C264.914 234.286 259.584 227.146 256.986 223.421C257.256 225.386 257.33 227.94 256.334 229.68C255.652 230.79 254.874 231.838 254.012 232.816C252.518 234.616 250.968 236.482 250.52 238.868C250.24 240.358 250.612 241.618 251 242.934C251.578 244.88 252.178 246.898 250.428 249.44C249.594 250.65 248.802 251.622 248.1 252.478C246.482 254.45 245.314 255.874 244.832 258.72C244.7 259.676 244.63 260.638 244.622 261.602C244.508 265.144 244.366 269.484 238.962 271.226C241.226 272.664 245.584 276.614 247.042 286.238C248.958 298.886 247.586 362.422 247.532 365.12C247.518 365.266 247.45 365.402 247.34 365.498C247.23 365.596 247.088 365.648 246.94 365.644ZM135.641 333.712C135.565 333.714 135.489 333.698 135.419 333.668C135.349 333.638 135.286 333.594 135.233 333.538L117.82 315.722C117.767 315.668 117.726 315.604 117.699 315.534C117.671 315.464 117.658 315.39 117.659 315.314L118.425 272.206C118.43 272.078 118.477 271.954 118.56 271.854C118.643 271.754 118.756 271.684 118.883 271.656L127.942 269.466C128.063 269.436 128.191 269.448 128.305 269.496C128.419 269.546 128.514 269.632 128.575 269.742L149.141 306.076C149.205 306.19 149.228 306.322 149.205 306.452L145.127 330.872C145.112 330.966 145.073 331.054 145.015 331.13C144.956 331.204 144.88 331.264 144.792 331.302C142.29 332.38 136.003 333.648 135.737 333.704L135.641 333.712ZM118.791 315.108L135.815 332.522C137.062 332.26 141.814 331.248 144.064 330.372L148.014 306.466L127.764 270.68L119.556 272.67L118.791 315.108Z" fill="#1E1D25"/>
<path d="M118.439 303.286C118.352 303.286 118.268 303.266 118.191 303.226C118.123 303.194 118.062 303.148 118.011 303.092C117.961 303.036 117.922 302.97 117.897 302.9C117.872 302.828 117.861 302.752 117.865 302.678C117.869 302.602 117.888 302.528 117.921 302.46L130.848 275.648C130.914 275.512 131.032 275.406 131.176 275.356C131.319 275.306 131.476 275.316 131.613 275.382C131.75 275.448 131.855 275.566 131.905 275.71C131.954 275.854 131.945 276.01 131.879 276.148L118.952 302.96C118.905 303.056 118.833 303.138 118.742 303.196C118.651 303.254 118.546 303.284 118.439 303.286ZM122.517 320.3C122.431 320.298 122.347 320.28 122.269 320.244C122.201 320.212 122.14 320.168 122.09 320.112C122.04 320.056 122.001 319.992 121.976 319.92C121.95 319.85 121.94 319.774 121.944 319.7C121.948 319.624 121.966 319.552 121.999 319.484L137.286 287.03C137.351 286.894 137.468 286.788 137.611 286.736C137.754 286.686 137.912 286.692 138.049 286.758C138.187 286.822 138.292 286.94 138.344 287.082C138.395 287.226 138.387 287.384 138.322 287.52L123.035 319.97C122.989 320.068 122.915 320.152 122.824 320.21C122.732 320.268 122.626 320.3 122.517 320.3ZM130.445 328.396C130.361 328.396 130.278 328.378 130.202 328.342C130.064 328.276 129.958 328.16 129.907 328.016C129.855 327.872 129.863 327.714 129.927 327.576L143.674 298.326C143.707 298.258 143.752 298.196 143.808 298.146C143.864 298.096 143.929 298.056 144 298.03C144.071 298.006 144.147 297.994 144.222 297.998C144.297 298 144.371 298.02 144.44 298.052C144.508 298.084 144.569 298.13 144.62 298.184C144.671 298.24 144.71 298.306 144.736 298.378C144.761 298.448 144.773 298.524 144.769 298.6C144.765 298.674 144.747 298.748 144.715 298.816L130.967 328.066C130.921 328.166 130.847 328.25 130.754 328.308C130.662 328.366 130.554 328.398 130.445 328.396ZM139.183 332.924C139.091 332.926 138.999 332.904 138.918 332.86C138.851 332.826 138.791 332.778 138.743 332.72C138.695 332.662 138.658 332.596 138.635 332.524C138.613 332.452 138.605 332.376 138.611 332.3C138.618 332.226 138.64 332.152 138.675 332.086L145.883 318.384C145.954 318.25 146.076 318.148 146.222 318.104C146.367 318.058 146.525 318.072 146.66 318.144C146.795 318.214 146.896 318.336 146.941 318.482C146.986 318.628 146.972 318.786 146.9 318.92L139.688 332.622C139.639 332.714 139.567 332.79 139.478 332.844C139.389 332.896 139.287 332.924 139.183 332.924Z" fill="#1E1D25"/>
<path d="M309.61 244.996C309.61 244.996 339.804 256.648 344.978 261.41C354.034 269.746 370.232 317.968 370.232 317.968C368.562 316.716 366.582 315.944 364.506 315.736C362.43 315.528 360.336 315.89 358.452 316.784C351.714 319.846 352.86 322.124 348.054 322.82C342.046 323.69 337.6 318.632 333.752 322.128C329.902 325.624 326.126 323.69 326.126 323.69L309.61 244.996Z" fill="white"/>
<path d="M328.72 324.789C327.738 324.801 326.764 324.597 325.87 324.189C325.802 324.155 325.742 324.109 325.692 324.051C325.644 323.995 325.606 323.929 325.582 323.857C325.558 323.785 325.548 323.709 325.554 323.633C325.56 323.559 325.58 323.485 325.614 323.417C325.648 323.351 325.696 323.291 325.754 323.241C325.81 323.193 325.878 323.155 325.95 323.131C326.02 323.109 326.096 323.099 326.172 323.105C326.248 323.111 326.32 323.133 326.388 323.167C326.53 323.237 329.87 324.859 333.366 321.687C335.832 319.451 338.806 320.381 341.684 321.279C343.742 321.921 345.868 322.585 347.962 322.241C350.56 321.811 351.33 321.097 352.49 320.019C354.148 318.419 356.088 317.139 358.214 316.247C359.93 315.425 361.818 315.025 363.72 315.079C365.622 315.133 367.484 315.641 369.152 316.559C366.256 308.201 352.484 269.255 344.604 261.813C339.346 256.859 309.726 245.631 309.424 245.517C309.352 245.491 309.288 245.449 309.234 245.399C309.178 245.347 309.134 245.285 309.104 245.215C309.072 245.147 309.056 245.073 309.054 244.997C309.052 244.923 309.064 244.847 309.09 244.777C309.118 244.707 309.158 244.643 309.21 244.587C309.262 244.533 309.324 244.489 309.392 244.457C309.46 244.427 309.536 244.409 309.61 244.407C309.686 244.405 309.76 244.417 309.832 244.445C311.06 244.903 339.966 255.869 345.386 260.979C354.41 269.479 370.132 315.799 370.796 317.769C370.838 317.889 370.838 318.017 370.798 318.137C370.758 318.255 370.68 318.359 370.574 318.429C370.47 318.499 370.346 318.533 370.22 318.527C370.094 318.519 369.976 318.471 369.88 318.387C368.296 317.199 366.416 316.467 364.446 316.275C362.474 316.081 360.488 316.433 358.704 317.293C356.692 318.133 354.854 319.343 353.286 320.857C352.064 321.989 351.102 322.883 348.164 323.369C345.804 323.763 343.54 323.057 341.354 322.375C338.55 321.495 336.13 320.739 334.15 322.535C332.696 323.953 330.752 324.761 328.72 324.789Z" fill="#1E1D25"/>
<path d="M326.126 326.077C325.978 326.075 325.834 326.017 325.728 325.913C325.622 325.809 325.558 325.667 325.554 325.517L324.684 291.983C324.682 291.907 324.694 291.833 324.722 291.763C324.748 291.693 324.79 291.629 324.842 291.575C324.894 291.519 324.956 291.475 325.024 291.445C325.094 291.415 325.168 291.399 325.242 291.397C325.392 291.397 325.536 291.455 325.642 291.559C325.75 291.663 325.812 291.807 325.816 291.955L326.686 325.485C326.688 325.561 326.676 325.635 326.65 325.705C326.622 325.775 326.582 325.841 326.53 325.895C326.48 325.949 326.418 325.993 326.348 326.023C326.28 326.055 326.206 326.071 326.132 326.073L326.126 326.077Z" fill="#1E1D25"/>
<path d="M287.414 238.122C287.414 238.122 276.604 242.246 276.8 246.328C276.998 250.412 280.466 253.56 280.284 257.272C280.1 260.984 274.844 264.892 275.242 268.604C275.642 272.316 279.366 272.93 279.542 276.926C279.716 280.922 279.114 291.032 281.754 291.956C284.394 292.882 291.264 284.436 293.21 282.48C295.158 280.524 302.202 278.334 305.326 273.374C308.452 268.416 304.594 264.324 306.62 261.382C308.644 258.44 316.136 257.662 317.864 254.34C319.592 251.016 309.616 239.098 309.616 239.098L286.172 276.926L287.414 238.122Z" fill="white"/>
<path d="M282.166 292.612C281.96 292.614 281.752 292.58 281.558 292.512C279.266 291.71 279.05 286.38 279.014 280.024C279.014 278.814 279.014 277.77 278.964 276.968C278.872 275.102 277.928 274.052 276.928 272.94C275.93 271.826 274.876 270.648 274.666 268.682C274.44 266.52 275.884 264.388 277.282 262.33C278.442 260.622 279.642 258.858 279.71 257.262C279.784 255.512 278.968 253.854 278.106 252.098C277.244 250.344 276.328 248.496 276.228 246.37C276.016 241.966 285.934 238.282 287.066 237.878C287.154 237.846 287.248 237.836 287.34 237.85C287.434 237.862 287.522 237.898 287.598 237.952C287.674 238.006 287.734 238.078 287.776 238.162C287.818 238.246 287.838 238.34 287.836 238.434L286.826 274.832L309.148 238.81C309.198 238.73 309.266 238.666 309.344 238.618C309.424 238.572 309.514 238.544 309.606 238.538C309.694 238.534 309.78 238.552 309.86 238.588C309.94 238.624 310.01 238.678 310.064 238.744C311.11 239.996 320.22 251.058 318.368 254.618C317.36 256.552 314.73 257.648 312.192 258.706C310.106 259.572 307.952 260.47 307.086 261.722C306.32 262.836 306.546 264.174 306.834 265.846C307.206 268.018 307.664 270.726 305.808 273.668C303.672 277.06 299.764 279.208 296.914 280.78C295.47 281.578 294.224 282.264 293.61 282.878C293.256 283.232 292.692 283.828 292.092 284.514C288.372 288.648 284.572 292.612 282.166 292.612ZM286.662 239.254C283.454 240.522 277.24 243.548 277.374 246.316C277.46 248.204 278.312 249.926 279.132 251.594C280.022 253.4 280.966 255.26 280.856 257.308C280.774 259.234 279.482 261.134 278.23 262.978C276.98 264.82 275.622 266.812 275.806 268.558C275.976 270.168 276.85 271.144 277.776 272.174C278.816 273.328 279.994 274.64 280.11 276.912C280.146 277.738 280.154 278.796 280.16 280.014C280.16 283.796 280.218 290.83 281.938 291.43C283.656 292.03 289 286.248 291.254 283.768C291.904 283.03 292.436 282.462 292.82 282.114C293.55 281.386 294.864 280.66 296.386 279.822C299.278 278.224 302.884 276.238 304.86 273.1C306.482 270.524 306.082 268.164 305.73 266.08C305.422 264.284 305.134 262.588 306.188 261.09C307.242 259.59 309.456 258.642 311.796 257.666C314.138 256.69 316.582 255.672 317.396 254.11C318.478 252.03 313.464 244.68 309.74 240.11L286.722 277.26C286.654 277.366 286.554 277.446 286.436 277.49C286.318 277.534 286.19 277.538 286.068 277.502C285.948 277.466 285.844 277.39 285.77 277.29C285.696 277.188 285.656 277.066 285.658 276.94L286.662 239.254Z" fill="#1E1D25"/>
<path d="M269.45 312.084C264.46 312.084 261.93 305.98 261.926 293.936C261.926 288.35 266.966 283.804 273.19 283.804C279.412 283.804 284.452 288.346 284.458 293.932C284.444 301.732 275.888 312.084 269.45 312.084ZM273.19 287.962C269.272 287.962 266.086 290.642 266.086 293.918C266.086 304.184 268.098 307.908 269.45 307.908C273.28 307.908 280.296 299.66 280.296 293.918C280.282 290.638 277.094 287.962 273.176 287.962H273.19ZM219.076 312.092C214.74 312.092 210.648 307.596 209.09 305.676C205.942 301.778 204.05 297.396 204.05 293.96C204.05 288.374 209.09 283.828 215.312 283.828C221.536 283.828 226.576 288.368 226.582 293.954C226.596 305.984 224.084 312.092 219.076 312.092ZM215.326 287.974C211.408 287.974 208.224 290.65 208.224 293.932C208.224 299.43 215.432 307.918 219.076 307.918C220.428 307.918 222.434 304.192 222.434 293.928C222.434 290.65 219.244 287.974 215.326 287.974Z" fill="#FFCB3D"/>
<path d="M269.45 312.656C266.7 312.656 264.638 311.006 263.286 307.744C262.004 304.65 261.352 300.004 261.352 293.936C261.352 288.034 266.66 283.232 273.19 283.232C279.72 283.232 285.026 288.03 285.03 293.932C285.03 301.98 276.15 312.652 269.45 312.656ZM273.19 284.378C267.292 284.378 262.498 288.666 262.498 293.936C262.498 299.852 263.122 304.352 264.332 307.308C265.504 310.136 267.178 311.51 269.436 311.51C275.508 311.51 283.872 301.324 283.872 293.932C283.866 288.662 279.074 284.378 273.176 284.378H273.19ZM269.45 308.496C267.616 308.496 265.514 304.682 265.514 293.932C265.526 293.034 265.738 292.152 266.134 291.346C266.53 290.54 267.102 289.834 267.804 289.276C269.324 288.034 271.232 287.366 273.194 287.388C275.156 287.364 277.064 288.03 278.582 289.272C279.286 289.83 279.856 290.538 280.252 291.344C280.648 292.15 280.86 293.034 280.874 293.932C280.874 296.682 279.334 300.242 276.75 303.45C274.78 305.888 271.832 308.496 269.45 308.496ZM273.176 288.53C271.486 288.51 269.844 289.084 268.534 290.152C267.96 290.604 267.494 291.176 267.17 291.83C266.844 292.484 266.668 293.202 266.654 293.932C266.654 304.17 268.698 307.35 269.446 307.35C271.058 307.35 273.638 305.494 275.86 302.73C278.276 299.724 279.72 296.434 279.72 293.932C279.706 293.202 279.53 292.484 279.204 291.83C278.88 291.178 278.414 290.604 277.84 290.152C276.524 289.08 274.872 288.506 273.176 288.53ZM219.074 312.666C214.492 312.666 210.254 308.018 208.64 306.026C205.432 302.02 203.49 297.506 203.49 293.946C203.5 292.506 203.818 291.086 204.42 289.778C205.022 288.47 205.896 287.306 206.982 286.362C209.282 284.326 212.254 283.214 215.326 283.24C218.396 283.212 221.368 284.322 223.666 286.358C224.754 287.3 225.628 288.464 226.232 289.772C226.834 291.08 227.152 292.502 227.164 293.942C227.164 306.364 224.442 312.666 219.07 312.666H219.074ZM215.332 284.404C212.542 284.378 209.842 285.382 207.752 287.228C206.784 288.066 206.006 289.1 205.47 290.26C204.934 291.422 204.65 292.684 204.64 293.964C204.64 297.272 206.474 301.52 209.538 305.324C211.046 307.194 214.992 311.538 219.08 311.538C223.69 311.538 226.026 305.622 226.026 293.96C226.014 292.68 225.73 291.418 225.194 290.258C224.656 289.098 223.878 288.064 222.91 287.228C220.82 285.382 218.12 284.378 215.332 284.404ZM219.074 308.522C216.784 308.522 213.838 305.864 211.84 303.376C209.218 300.11 207.65 296.59 207.65 293.964C207.65 290.352 211.092 287.42 215.326 287.42C217.288 287.398 219.196 288.064 220.716 289.304C221.418 289.862 221.988 290.568 222.384 291.374C222.78 292.18 222.994 293.062 223.006 293.96C223.006 298.578 222.594 302.386 221.81 304.958C221.114 307.248 220.142 308.508 219.062 308.508L219.074 308.522ZM215.326 287.994V288.53C211.724 288.53 208.796 290.948 208.796 293.928C208.796 296.27 210.304 299.6 212.732 302.634C214.996 305.456 217.548 307.354 219.074 307.354C219.3 307.354 220.032 306.864 220.716 304.604C221.238 302.876 221.862 299.618 221.862 293.928C221.848 293.198 221.672 292.48 221.346 291.826C221.022 291.172 220.556 290.598 219.982 290.146C218.67 289.08 217.024 288.506 215.332 288.53L215.326 287.994Z" fill="#1E1D25"/>
<path d="M259.928 366.162V368.32H228.19V366.162C228.19 364.808 228.728 363.508 229.684 362.552C230.642 361.594 231.94 361.056 233.294 361.056H240.86V329.584C227.306 326.294 215.34 310.016 215.34 290.436C215.324 285.522 215.992 280.632 217.328 275.904H271.188C272.526 280.632 273.198 285.522 273.186 290.436C273.186 310.016 260.812 326.294 247.258 329.588V361.066H254.822C255.492 361.064 256.156 361.196 256.776 361.452C257.394 361.708 257.956 362.084 258.43 362.556C258.904 363.03 259.28 363.592 259.538 364.21C259.794 364.828 259.928 365.492 259.928 366.162Z" fill="#FFCB3D"/>
<path d="M228.208 368.902C228.056 368.902 227.91 368.842 227.802 368.734C227.696 368.626 227.636 368.48 227.636 368.328V366.17C227.632 364.666 228.228 363.22 229.288 362.152C230.348 361.086 231.79 360.482 233.294 360.474H240.288V330.024C233.574 328.254 227.286 323.444 222.544 316.432C217.438 308.722 214.728 299.674 214.754 290.426C214.738 285.46 215.418 280.514 216.77 275.734C216.804 275.616 216.878 275.512 216.976 275.436C217.076 275.362 217.196 275.322 217.32 275.322H271.178C271.302 275.32 271.424 275.36 271.524 275.434C271.624 275.508 271.696 275.614 271.728 275.734C273.082 280.514 273.762 285.458 273.748 290.426C273.748 311.048 260.648 326.628 247.822 330.024V360.484H254.814C255.56 360.482 256.298 360.63 256.986 360.914C257.676 361.198 258.302 361.616 258.828 362.144C259.356 362.67 259.774 363.296 260.06 363.984C260.344 364.674 260.492 365.412 260.492 366.156V368.314C260.492 368.466 260.432 368.612 260.324 368.72C260.216 368.828 260.07 368.888 259.918 368.888L228.208 368.902ZM217.75 276.482C216.514 281.03 215.898 285.726 215.918 290.44C215.918 308.664 226.944 325.62 241.006 329.034C241.136 329.06 241.252 329.128 241.334 329.23C241.418 329.33 241.464 329.458 241.466 329.588V361.06C241.466 361.212 241.404 361.358 241.298 361.466C241.19 361.574 241.044 361.634 240.892 361.634H233.294C232.092 361.634 230.94 362.112 230.092 362.962C229.242 363.812 228.764 364.964 228.762 366.166V367.752H259.368V366.162C259.368 365.566 259.252 364.978 259.024 364.428C258.796 363.878 258.462 363.378 258.042 362.958C257.62 362.538 257.12 362.204 256.57 361.976C256.022 361.75 255.432 361.634 254.836 361.634H247.258C247.106 361.634 246.96 361.574 246.852 361.466C246.744 361.358 246.684 361.212 246.684 361.06V329.584C246.686 329.452 246.732 329.326 246.814 329.224C246.898 329.124 247.014 329.054 247.142 329.03C259.672 325.982 272.636 310.7 272.63 290.43C272.65 285.716 272.034 281.022 270.798 276.472L217.75 276.482Z" fill="#1E1D25"/>
<path d="M244.249 277.48C259.103 277.48 271.145 276.774 271.145 275.904C271.145 275.034 259.103 274.328 244.249 274.328C229.397 274.328 217.355 275.034 217.355 275.904C217.355 276.774 229.397 277.48 244.249 277.48Z" fill="#FFCB3D"/>
<path d="M244.164 278.05C237.002 278.05 230.27 277.888 225.196 277.59C216.778 277.1 216.778 276.524 216.778 275.91C216.778 275.296 216.778 274.714 225.196 274.222C230.288 273.92 237.052 273.764 244.25 273.764H244.334C251.5 273.764 258.232 273.924 263.3 274.222C271.742 274.704 271.742 275.286 271.742 275.896C271.742 276.504 271.742 277.086 263.324 277.582C258.232 277.88 251.468 278.04 244.274 278.04L244.164 278.05ZM219.212 275.91C222.548 276.4 231.32 276.904 244.16 276.904H244.25C257.142 276.904 265.94 276.39 269.286 275.9C265.95 275.41 257.178 274.9 244.338 274.9H244.246C231.36 274.906 222.558 275.414 219.212 275.91Z" fill="#1E1D25"/>
<path d="M364.01 315.42C363.056 325.784 359.744 346.814 348.428 352.08C336.812 357.51 270.824 358.756 264.914 358.994C261.838 359.122 254.786 360.396 248.53 361.06C244.356 361.52 240.538 361.68 238.504 361.06C237.738 360.828 237.226 360.484 237.042 360.002C235.952 357.152 237.286 355.778 237.286 355.778C237.286 355.778 234.288 356.694 233.262 354.174C232.368 351.964 234.958 349.66 234.958 349.66C234.958 349.66 231.91 349.344 232.244 346.218C232.514 343.712 235.204 342.456 235.204 342.456C234.786 342.374 234.39 342.208 234.038 341.966C233.688 341.724 233.392 341.412 233.168 341.048C232.944 340.686 232.798 340.282 232.738 339.86C232.678 339.438 232.708 339.008 232.822 338.598C233.206 336.672 237.106 335.848 240.854 335.458C243.38 335.216 245.832 335.184 247.106 335.184L247.252 330.6C247.252 330.6 255.798 337.15 264.396 338.354C276.424 340.032 326.158 326.802 326.158 326.802L326.13 323.654C326.13 323.654 329.902 325.578 333.752 322.082C337.6 318.586 342.784 323.654 348.054 322.778C353.324 321.904 351.72 319.804 358.45 316.744C360.198 315.94 362.088 315.49 364.01 315.42Z" fill="white"/>
<path d="M242.28 362.038C240.952 362.082 239.624 361.938 238.334 361.61C237.35 361.314 236.75 360.854 236.502 360.208C235.992 359.054 235.902 357.758 236.246 356.542C234.99 356.588 233.436 356.162 232.726 354.408C232.016 352.652 233.096 350.924 233.886 349.98C233.296 349.758 232.772 349.388 232.368 348.904C232.07 348.518 231.854 348.074 231.734 347.602C231.614 347.128 231.59 346.636 231.668 346.154C231.78 345.43 232.04 344.736 232.436 344.118C232.83 343.498 233.348 342.968 233.958 342.562C233.474 342.29 233.058 341.91 232.744 341.452C232.47 341.014 232.288 340.524 232.208 340.012C232.13 339.502 232.156 338.98 232.286 338.478C232.666 336.59 235.456 335.418 240.824 334.886C242.95 334.68 245.044 334.616 246.578 334.606L246.706 330.606C246.71 330.5 246.742 330.398 246.798 330.31C246.856 330.222 246.938 330.152 247.032 330.106C247.128 330.062 247.234 330.044 247.338 330.054C247.444 330.064 247.544 330.102 247.628 330.166C247.71 330.23 256.16 336.636 264.506 337.804C275.696 339.368 320.71 327.668 325.608 326.38V323.678C325.606 323.578 325.63 323.48 325.676 323.394C325.724 323.308 325.792 323.234 325.876 323.182C325.96 323.13 326.056 323.1 326.154 323.096C326.252 323.092 326.35 323.114 326.438 323.16C326.58 323.228 329.926 324.85 333.416 321.68C335.878 319.442 338.852 320.374 341.73 321.272C343.788 321.912 345.914 322.578 348.012 322.234C350.61 321.802 351.376 321.088 352.54 320.012C354.196 318.41 356.138 317.13 358.264 316.24C360.076 315.396 362.038 314.92 364.038 314.838C364.122 314.832 364.208 314.844 364.286 314.876C364.366 314.906 364.438 314.954 364.496 315.016C364.552 315.078 364.594 315.15 364.62 315.228C364.646 315.308 364.656 315.392 364.646 315.474C363.584 327.072 360.1 347.314 348.76 352.592C341.802 355.838 314.926 358.142 268.872 359.444C266.98 359.494 265.642 359.536 265.004 359.558C263.374 359.626 260.578 360.016 257.342 360.474C254.626 360.86 251.542 361.3 248.66 361.606C246.542 361.86 244.412 362.004 242.28 362.038ZM237.28 355.21C237.392 355.21 237.502 355.244 237.596 355.306C237.688 355.368 237.762 355.456 237.806 355.558C237.85 355.662 237.864 355.776 237.844 355.886C237.826 355.996 237.774 356.098 237.698 356.18C237.656 356.222 236.648 357.368 237.578 359.8C237.712 360.158 238.248 360.388 238.67 360.516C240.346 361.024 243.554 361.016 248.472 360.488C251.336 360.186 254.406 359.746 257.114 359.36C260.376 358.902 263.2 358.494 264.904 358.444C265.542 358.416 266.884 358.38 268.786 358.326C314.684 357.028 341.408 354.76 348.222 351.584C359.184 346.466 362.46 325.538 363.392 316.048C361.768 316.198 360.182 316.626 358.704 317.312C356.692 318.154 354.852 319.364 353.282 320.878C352.064 322.01 351.1 322.902 348.164 323.388C345.804 323.782 343.54 323.076 341.354 322.39C338.55 321.514 336.126 320.758 334.15 322.554C331.116 325.304 328.138 324.938 326.722 324.524V326.844C326.722 326.97 326.68 327.094 326.604 327.196C326.526 327.296 326.418 327.37 326.296 327.402C324.384 327.906 282.07 339.12 266.93 339.12C266.054 339.128 265.178 339.076 264.308 338.964C257.178 337.97 250.204 333.466 247.78 331.746L247.67 335.224C247.664 335.374 247.6 335.514 247.494 335.616C247.388 335.72 247.244 335.778 247.096 335.78C245.566 335.78 243.248 335.826 240.9 336.054C234.486 336.686 233.492 338.14 233.372 338.73C232.85 341.342 235.054 341.864 235.306 341.938C235.424 341.96 235.534 342.02 235.618 342.108C235.7 342.196 235.754 342.308 235.768 342.428C235.784 342.548 235.76 342.67 235.7 342.776C235.64 342.882 235.55 342.966 235.438 343.016C235.438 343.016 233.032 344.174 232.804 346.32C232.748 346.652 232.76 346.992 232.844 347.318C232.926 347.644 233.076 347.95 233.284 348.216C233.492 348.48 233.754 348.698 234.052 348.856C234.35 349.014 234.676 349.108 235.012 349.132C235.118 349.15 235.218 349.196 235.298 349.268C235.38 349.338 235.438 349.43 235.47 349.532C235.504 349.636 235.506 349.75 235.476 349.856C235.448 349.962 235.388 350.058 235.306 350.132C235.306 350.132 233.014 352.198 233.762 354C234.572 356.016 236.97 355.3 237.084 355.268C237.146 355.24 237.212 355.218 237.28 355.21Z" fill="#1E1D25"/>
<path d="M370.233 318.526C370.143 318.522 370.053 318.498 369.973 318.452C369.895 318.408 369.827 318.346 369.775 318.27C368.741 316.72 365.193 315.846 364.103 315.978C363.951 315.998 363.799 315.958 363.679 315.866C363.557 315.772 363.479 315.636 363.459 315.486C363.439 315.334 363.479 315.182 363.571 315.062C363.665 314.94 363.801 314.862 363.951 314.842C365.257 314.672 369.373 315.594 370.729 317.624C370.813 317.75 370.843 317.904 370.815 318.052C370.785 318.2 370.699 318.332 370.573 318.416C370.475 318.488 370.355 318.528 370.233 318.526ZM215.125 94.9092C214.973 94.9092 214.829 94.8488 214.721 94.7414C214.613 94.634 214.553 94.4884 214.553 94.3364V75.1724C214.553 75.0204 214.613 74.8748 214.721 74.7674C214.829 74.66 214.973 74.5996 215.125 74.5996C215.277 74.5996 215.423 74.66 215.531 74.7674C215.639 74.8748 215.699 75.0204 215.699 75.1724V94.3364C215.699 94.4884 215.639 94.634 215.531 94.7414C215.423 94.8488 215.277 94.9092 215.125 94.9092ZM222.059 99.5054C221.927 99.5062 221.799 99.4608 221.697 99.377C221.639 99.3296 221.591 99.271 221.555 99.2048C221.519 99.1384 221.497 99.0658 221.489 98.9908C221.481 98.916 221.489 98.8402 221.509 98.7682C221.531 98.696 221.567 98.6288 221.615 98.5706L230.747 87.261C230.795 87.2008 230.853 87.1504 230.921 87.113C230.987 87.0754 231.061 87.0514 231.137 87.0422C231.213 87.0332 231.289 87.039 231.363 87.0596C231.437 87.0802 231.505 87.1152 231.565 87.1624C231.625 87.2096 231.677 87.2682 231.713 87.335C231.751 87.4016 231.775 87.475 231.785 87.551C231.793 87.627 231.787 87.704 231.767 87.7776C231.747 87.8514 231.711 87.9202 231.665 87.9804L222.503 99.2716C222.453 99.3418 222.385 99.3994 222.309 99.4398C222.231 99.4804 222.147 99.5028 222.059 99.5054ZM208.193 101.847C208.103 101.847 208.015 101.826 207.935 101.785C207.855 101.745 207.787 101.686 207.735 101.613L199.027 89.7722C198.974 89.7128 198.933 89.643 198.908 89.567C198.883 89.491 198.874 89.4108 198.882 89.3312C198.89 89.2516 198.915 89.1746 198.954 89.1052C198.994 89.0356 199.047 88.9752 199.111 88.9276C199.176 88.88 199.249 88.8464 199.327 88.829C199.405 88.8116 199.486 88.8106 199.564 88.8264C199.643 88.842 199.717 88.8738 199.782 88.92C199.848 88.966 199.903 89.0252 199.944 89.0938L208.651 100.935C208.717 101.02 208.757 101.121 208.767 101.228C208.777 101.334 208.757 101.442 208.709 101.538C208.661 101.633 208.587 101.714 208.497 101.769C208.405 101.825 208.299 101.853 208.193 101.852V101.847ZM76.9491 304.856L72.2383 329.602L69.3145 329.382L76.9491 304.856ZM118.66 270.672L109.298 281.422L118.215 268.522L118.66 270.672ZM127.229 264.958L127.545 266.942L139.757 268.838L127.229 264.958Z" fill="#1E1D25"/>
<path d="M118.215 268.522L118.98 272.216L118.215 315.322L117.692 272.67L117.174 270.024L118.215 268.522ZM118.214 315.322L133.41 333.506L135.623 333.14L118.214 315.322ZM109.151 364.03L62.8308 362.628L62.29 365.286L109.151 364.03ZM326.126 355.952V359.21L272.534 358.77L302.756 357.578L326.126 355.952ZM325.256 292.86L322.804 327.7L326.16 326.83L325.256 292.86ZM315.66 247.456C315.66 247.456 318.988 252.956 317.868 254.33C315.244 257.684 308.544 258.866 306.624 261.374C305.02 263.476 307.498 270.236 305.61 272.89C300.896 279.516 296.286 279.14 293.238 282.472C290.19 285.802 284.468 291.086 284.468 291.086C284.468 291.086 292.198 284.272 294.664 282.618C297.128 280.964 303.43 278.622 306.908 273.366C309.012 270.186 306.376 264.238 307.852 262.226C309.73 259.66 317.474 259.072 318.946 255.31C319.466 254.106 319.61 252.772 319.356 251.486C319.102 250.198 318.464 249.018 317.526 248.102L315.66 247.456Z" fill="#1E1D25"/>
</svg>
