<svg width="400" height="450" viewBox="0 0 400 450" fill="none" xmlns="http://www.w3.org/2000/svg">
<path d="M241.998 230.916C242.678 232.818 235.944 236.97 226.958 240.19C217.972 243.408 210.13 244.476 209.47 242.574C208.812 240.674 215.914 237.328 224.904 234.11C233.894 230.89 241.316 229.01 241.998 230.916Z" fill="#1E1D25"/>
<path d="M212.354 244.076C210.386 244.076 209.214 243.628 208.918 242.764C208.622 241.898 207.798 239.624 224.694 233.58C228.528 232.142 232.452 230.96 236.442 230.042C240.2 229.266 242.078 229.478 242.526 230.724C243.572 233.638 233.9 238.298 227.146 240.718C223.266 242.156 219.252 243.208 215.166 243.858C214.234 243.994 213.294 244.068 212.354 244.076ZM239.98 230.714C238.862 230.754 237.752 230.904 236.666 231.164C232.728 232.07 228.854 233.236 225.07 234.656C212.542 239.14 209.718 241.688 209.978 242.408C210.098 242.754 211.322 243.274 215.012 242.768C219.024 242.132 222.962 241.098 226.77 239.682C237.082 235.978 241.836 232.146 241.468 231.128C241.46 231.078 241.306 230.714 239.98 230.714Z" fill="#1E1D25"/>
<path d="M313.89 198.592L342.632 195.256L336.624 143.481L307.882 146.817L313.89 198.592Z" fill="white"/>
<path d="M313.89 199.151C313.764 199.152 313.642 199.109 313.544 199.03C313.428 198.937 313.352 198.802 313.334 198.654L307.316 146.881C307.308 146.808 307.312 146.734 307.334 146.663C307.354 146.592 307.388 146.526 307.434 146.469C307.48 146.411 307.536 146.363 307.6 146.328C307.664 146.292 307.736 146.27 307.81 146.262L336.552 142.926C336.698 142.91 336.846 142.953 336.962 143.045C337.078 143.138 337.154 143.272 337.17 143.42L343.188 195.192C343.204 195.339 343.162 195.487 343.07 195.603C342.976 195.719 342.842 195.794 342.694 195.811L313.956 199.147L313.89 199.151ZM308.508 147.312L314.388 197.981L342.018 194.775L336.134 144.106L308.508 147.312Z" fill="#1E1D25"/>
<path d="M320.35 157.002C318.17 156.973 316.024 157.557 314.158 158.69C312.294 159.822 310.784 161.456 309.804 163.405L308.46 151.747L323.75 153.823L320.35 157.002Z" fill="#1E1D25"/>
<path d="M309.804 163.947H309.706C309.59 163.924 309.482 163.864 309.402 163.776C309.322 163.688 309.272 163.577 309.258 163.459L307.912 151.8C307.904 151.718 307.916 151.636 307.944 151.558C307.972 151.481 308.016 151.41 308.074 151.352C308.136 151.292 308.21 151.247 308.292 151.22C308.372 151.194 308.46 151.187 308.544 151.199L323.834 153.28C323.94 153.295 324.038 153.339 324.118 153.407C324.2 153.475 324.26 153.565 324.292 153.666C324.322 153.767 324.326 153.875 324.298 153.977C324.272 154.079 324.218 154.172 324.14 154.244L320.746 157.405C320.69 157.457 320.624 157.497 320.552 157.523C320.48 157.548 320.404 157.559 320.328 157.553C318.254 157.521 316.212 158.077 314.44 159.157C312.668 160.237 311.238 161.797 310.316 163.656C310.266 163.748 310.192 163.823 310.102 163.875C310.012 163.926 309.908 163.952 309.804 163.947ZM309.11 152.41L310.186 161.701C311.308 160.095 312.796 158.78 314.528 157.865C316.26 156.949 318.186 156.46 320.144 156.437L322.512 154.235L309.11 152.41Z" fill="#1E1D25"/>
<path d="M302.576 146.263C302.24 148.659 302.868 151.091 304.324 153.025C305.778 154.959 307.942 156.236 310.338 156.576C310.338 156.576 318.754 159.786 324.736 155.065C328.7 151.926 333.234 155.688 333.942 150.693L337.53 125.511C337.864 123.114 337.234 120.682 335.778 118.748C334.322 116.815 332.16 115.538 329.762 115.198L316.49 113.314C314.092 112.978 311.66 113.607 309.726 115.063C307.792 116.519 306.516 118.684 306.176 121.081L305.468 125.834L300.196 135.115L303.948 136.55L302.576 146.263Z" fill="white"/>
<path d="M316.866 157.984C314.628 157.968 312.398 157.685 310.226 157.141C307.688 156.77 305.398 155.409 303.862 153.356C302.324 151.302 301.662 148.723 302.02 146.182L303.33 136.932L299.994 135.658C299.918 135.629 299.85 135.584 299.794 135.526C299.738 135.468 299.694 135.398 299.668 135.322C299.64 135.246 299.63 135.165 299.636 135.085C299.644 135.004 299.668 134.926 299.706 134.856L304.926 125.668L305.594 120.996C305.958 118.45 307.316 116.153 309.372 114.609C311.428 113.064 314.012 112.399 316.558 112.759L329.826 114.624C332.372 114.985 334.672 116.343 336.218 118.399C337.764 120.454 338.432 123.04 338.072 125.587L335.328 144.913C335.322 144.99 335.3 145.064 335.264 145.132C335.228 145.2 335.18 145.26 335.12 145.308C335.06 145.356 334.992 145.391 334.918 145.412C334.844 145.432 334.766 145.437 334.69 145.426C334.614 145.415 334.542 145.389 334.476 145.349C334.41 145.309 334.354 145.256 334.31 145.193C334.266 145.13 334.236 145.059 334.22 144.984C334.204 144.909 334.204 144.831 334.22 144.756L336.96 125.43C337.118 124.315 337.056 123.179 336.774 122.088C336.494 120.997 336 119.972 335.324 119.072C334.646 118.172 333.798 117.414 332.828 116.841C331.858 116.269 330.784 115.893 329.668 115.736L316.4 113.853C314.148 113.535 311.862 114.124 310.044 115.49C308.226 116.856 307.024 118.888 306.702 121.139L306.024 125.919C306.012 125.988 305.99 126.054 305.958 126.116L301.002 134.829L304.142 136.031C304.26 136.077 304.36 136.162 304.424 136.272C304.488 136.381 304.514 136.51 304.496 136.636L303.124 146.326C302.964 147.441 303.026 148.577 303.306 149.668C303.586 150.759 304.078 151.784 304.756 152.685C305.432 153.585 306.28 154.344 307.25 154.916C308.22 155.488 309.294 155.863 310.41 156.02H310.478C310.572 156.043 319.956 158.522 324.378 154.626C324.49 154.54 324.632 154.499 324.772 154.513C324.914 154.527 325.044 154.594 325.138 154.7C325.232 154.806 325.282 154.944 325.278 155.086C325.274 155.228 325.218 155.363 325.118 155.464C322.912 157.442 319.728 157.984 316.866 157.984Z" fill="#1E1D25"/>
<path d="M323.592 137.757C321.556 137.698 321.494 135.142 321.826 131.726C322.274 127.291 321.1 126.466 308.4 123.735C294.214 120.682 307.002 107.449 307.002 107.449C307.002 107.449 305.624 113.408 314.432 113.278C322.548 113.162 335.058 113.426 337.838 118.431C339.386 121.202 338.224 125.125 337.838 131.434C337.178 141.958 336.942 147.29 336.942 147.29L329.668 142.438L323.592 137.757Z" fill="#1E1D25"/>
<path d="M336.95 147.805C336.838 147.806 336.73 147.773 336.636 147.711L329.368 142.873L323.386 138.313C322.832 138.276 322.314 138.021 321.948 137.604C321.01 136.542 320.996 134.466 321.27 131.681C321.638 127.892 321.296 127.089 308.266 124.291C304.438 123.466 302.124 121.825 301.384 119.404C299.788 114.166 306.316 107.333 306.58 107.046C306.666 106.959 306.778 106.903 306.898 106.885C307.018 106.867 307.14 106.889 307.248 106.947C307.354 107.006 307.44 107.097 307.49 107.208C307.54 107.319 307.554 107.443 307.526 107.562C307.428 108.121 307.446 108.694 307.58 109.245C307.714 109.797 307.96 110.315 308.302 110.768C309.382 112.113 311.442 112.741 314.404 112.705C323.288 112.57 335.434 112.987 338.31 118.139C339.506 120.278 339.206 122.951 338.812 126.659C338.658 128.076 338.484 129.677 338.364 131.452C337.712 141.846 337.466 147.245 337.466 147.299C337.462 147.398 337.43 147.494 337.378 147.577C337.324 147.661 337.25 147.729 337.162 147.774C337.094 147.798 337.022 147.808 336.95 147.805ZM306.418 108.961C304.692 111.059 301.442 115.619 302.496 119.067C303.106 121.072 305.136 122.457 308.54 123.188C320.764 125.816 322.888 126.69 322.404 131.78C322.202 133.838 322.096 136.044 322.804 136.851C322.908 136.965 323.034 137.055 323.176 137.114C323.318 137.174 323.47 137.202 323.624 137.196C323.742 137.2 323.858 137.241 323.952 137.313L330.036 141.949L336.452 146.236C336.548 144.232 336.798 139.223 337.292 131.358C337.404 129.565 337.578 127.941 337.74 126.515C338.116 123.027 338.39 120.507 337.372 118.677C334.488 113.516 319.414 113.745 314.464 113.812C311.122 113.866 308.768 113.068 307.464 111.454C306.888 110.737 306.526 109.873 306.418 108.961Z" fill="#1E1D25"/>
<path d="M313.056 132.286C312.932 132.286 312.81 132.244 312.712 132.168C312.614 132.092 312.544 131.985 312.512 131.864C311.666 128.551 307.872 128.237 307.832 128.232C307.758 128.227 307.686 128.207 307.62 128.174C307.554 128.141 307.494 128.094 307.446 128.038C307.398 127.982 307.362 127.916 307.34 127.846C307.318 127.775 307.31 127.701 307.316 127.627C307.326 127.479 307.394 127.341 307.506 127.244C307.618 127.146 307.764 127.097 307.912 127.107C307.962 127.107 312.554 127.492 313.598 131.591C313.634 131.735 313.612 131.887 313.538 132.015C313.462 132.143 313.338 132.235 313.194 132.272C313.148 132.281 313.102 132.286 313.056 132.286ZM308.594 132.766C309.034 132.766 309.392 132.408 309.392 131.968C309.392 131.527 309.034 131.17 308.594 131.17C308.154 131.17 307.796 131.527 307.796 131.968C307.796 132.408 308.154 132.766 308.594 132.766Z" fill="#1E1D25"/>
<path d="M331.022 139.949C331.684 136.966 330.638 134.196 328.684 133.762C326.73 133.329 324.61 135.396 323.948 138.38C323.286 141.363 324.334 144.133 326.288 144.566C328.24 145 330.36 142.933 331.022 139.949Z" fill="white"/>
<path d="M328.17 144.806C328.07 144.807 327.97 144.78 327.884 144.729C327.796 144.677 327.726 144.603 327.678 144.514C327.608 144.383 327.592 144.23 327.634 144.087C327.676 143.944 327.772 143.824 327.902 143.752C329.086 143.115 330.068 141.608 330.466 139.819C331.05 137.192 330.17 134.663 328.552 134.304C326.934 133.945 325.068 135.864 324.486 138.492C324.47 138.566 324.442 138.636 324.4 138.698C324.358 138.76 324.306 138.813 324.242 138.855C324.18 138.896 324.11 138.924 324.036 138.937C323.962 138.951 323.886 138.95 323.814 138.933C323.74 138.917 323.672 138.887 323.61 138.843C323.55 138.8 323.498 138.745 323.458 138.681C323.418 138.617 323.392 138.546 323.38 138.472C323.37 138.398 323.372 138.323 323.392 138.25C324.13 134.914 326.502 132.703 328.772 133.21C331.04 133.717 332.278 136.73 331.538 140.061C331.09 142.164 329.874 143.954 328.4 144.743C328.328 144.78 328.25 144.801 328.17 144.806Z" fill="#1E1D25"/>
<path d="M326.934 139.411C326.838 139.412 326.746 139.388 326.662 139.342C326.578 139.296 326.508 139.23 326.458 139.15C326.408 139.07 326.378 138.978 326.372 138.883C326.366 138.789 326.386 138.694 326.426 138.609L327.378 136.649C327.41 136.583 327.454 136.524 327.51 136.475C327.564 136.426 327.628 136.388 327.698 136.364C327.768 136.34 327.84 136.33 327.914 136.334C327.988 136.338 328.06 136.357 328.126 136.389C328.192 136.421 328.252 136.466 328.3 136.521C328.35 136.576 328.386 136.64 328.412 136.71C328.436 136.779 328.446 136.853 328.442 136.926C328.436 137 328.418 137.072 328.386 137.138L327.838 138.268H328.014C328.162 138.265 328.306 138.321 328.414 138.424C328.522 138.526 328.586 138.666 328.592 138.815C328.594 138.889 328.582 138.962 328.554 139.03C328.528 139.099 328.488 139.162 328.438 139.215C328.386 139.269 328.326 139.311 328.258 139.341C328.192 139.371 328.118 139.387 328.046 139.389L326.946 139.416L326.934 139.411ZM308.576 142.873C307.96 142.876 307.346 142.792 306.756 142.622C306.686 142.598 306.622 142.561 306.566 142.512C306.51 142.464 306.464 142.405 306.432 142.339C306.366 142.206 306.356 142.052 306.404 141.911C306.45 141.77 306.552 141.654 306.686 141.588C306.82 141.522 306.974 141.511 307.114 141.559C307.262 141.608 310.612 142.671 312.572 139.492C312.61 139.429 312.66 139.375 312.72 139.331C312.78 139.288 312.846 139.257 312.918 139.24C312.99 139.223 313.064 139.22 313.138 139.232C313.21 139.243 313.28 139.269 313.342 139.308C313.404 139.346 313.46 139.397 313.502 139.457C313.546 139.516 313.576 139.584 313.594 139.655C313.61 139.727 313.614 139.801 313.602 139.874C313.59 139.947 313.564 140.016 313.526 140.079C313.028 140.946 312.304 141.662 311.434 142.154C310.562 142.645 309.576 142.894 308.576 142.873Z" fill="#1E1D25"/>
<path d="M313.992 140.559H313.908C313.468 140.494 313.066 140.272 312.776 139.934C312.486 139.597 312.33 139.165 312.334 138.721C312.334 138.572 312.392 138.429 312.498 138.324C312.602 138.219 312.746 138.16 312.894 138.16C313.042 138.16 313.184 138.219 313.29 138.324C313.396 138.429 313.454 138.572 313.454 138.721C313.448 138.899 313.51 139.074 313.626 139.21C313.742 139.346 313.904 139.434 314.082 139.456C314.22 139.481 314.342 139.555 314.426 139.666C314.512 139.776 314.552 139.914 314.542 140.053C314.53 140.191 314.468 140.321 314.366 140.416C314.264 140.512 314.132 140.566 313.992 140.568V140.559Z" fill="#1E1D25"/>
<path d="M255.136 340.062H25.7607V345.998H255.136V340.062Z" fill="white"/>
<path d="M255.13 346.558H25.7608C25.612 346.558 25.4694 346.5 25.3644 346.394C25.2592 346.29 25.2002 346.146 25.2002 345.998V340.062C25.2002 339.912 25.2592 339.77 25.3644 339.664C25.4694 339.56 25.612 339.5 25.7608 339.5H255.13C255.28 339.5 255.422 339.56 255.528 339.664C255.632 339.77 255.692 339.912 255.692 340.062V345.998C255.692 346.146 255.632 346.29 255.528 346.394C255.422 346.5 255.28 346.558 255.13 346.558ZM26.3212 345.438H254.556V340.618H26.3212V345.438Z" fill="#1E1D25"/>
<path d="M225.132 295.064H138.569V340.066H225.132V295.064Z" fill="#FFCB3D"/>
<path d="M225.132 340.618H138.592C138.443 340.618 138.301 340.558 138.195 340.454C138.09 340.348 138.031 340.206 138.031 340.056V295.064C138.031 294.916 138.09 294.774 138.195 294.668C138.301 294.562 138.443 294.504 138.592 294.504H225.132C225.282 294.504 225.424 294.562 225.53 294.668C225.634 294.774 225.694 294.916 225.694 295.064V340.062C225.692 340.21 225.632 340.35 225.528 340.454C225.422 340.56 225.28 340.618 225.132 340.618ZM139.13 339.496H224.572V295.624H139.13V339.496Z" fill="#1E1D25"/>
<path d="M215.152 335.08H147.963C147.814 335.08 147.672 335.02 147.567 334.916C147.461 334.81 147.402 334.668 147.402 334.52V304.476C147.402 304.328 147.461 304.186 147.567 304.08C147.672 303.976 147.814 303.916 147.963 303.916H215.152C215.3 303.916 215.442 303.976 215.548 304.08C215.654 304.186 215.712 304.328 215.712 304.476V334.52C215.712 334.668 215.654 334.81 215.548 334.916C215.442 335.02 215.3 335.08 215.152 335.08ZM148.523 333.958H214.592V305.028H148.523V333.958Z" fill="#1E1D25"/>
<path d="M157.187 314.436C158.715 314.436 159.953 313.196 159.953 311.668C159.953 310.14 158.715 308.902 157.187 308.902C155.659 308.902 154.42 310.14 154.42 311.668C154.42 313.196 155.659 314.436 157.187 314.436ZM170.975 314.436C172.503 314.436 173.741 313.196 173.741 311.668C173.741 310.14 172.503 308.902 170.975 308.902C169.447 308.902 168.208 310.14 168.208 311.668C168.208 313.196 169.447 314.436 170.975 314.436Z" fill="white"/>
<path d="M157.187 314.996C156.528 314.996 155.885 314.8 155.338 314.436C154.791 314.07 154.364 313.55 154.113 312.942C153.861 312.334 153.795 311.666 153.923 311.02C154.052 310.374 154.369 309.782 154.834 309.316C155.299 308.85 155.892 308.534 156.537 308.406C157.183 308.278 157.852 308.344 158.46 308.596C159.068 308.846 159.587 309.274 159.953 309.82C160.319 310.368 160.514 311.01 160.514 311.668C160.512 312.55 160.162 313.396 159.538 314.02C158.914 314.644 158.069 314.994 157.187 314.996ZM157.187 309.462C156.75 309.462 156.324 309.592 155.961 309.834C155.598 310.078 155.315 310.422 155.148 310.824C154.981 311.228 154.938 311.672 155.023 312.1C155.108 312.528 155.318 312.92 155.627 313.228C155.935 313.538 156.328 313.748 156.756 313.832C157.184 313.918 157.628 313.874 158.031 313.708C158.434 313.54 158.778 313.258 159.021 312.894C159.263 312.532 159.393 312.106 159.393 311.668C159.391 311.084 159.159 310.524 158.745 310.11C158.332 309.696 157.771 309.464 157.187 309.462ZM170.975 314.996C170.317 314.996 169.673 314.802 169.125 314.438C168.578 314.072 168.15 313.554 167.898 312.946C167.645 312.338 167.579 311.668 167.707 311.022C167.835 310.376 168.151 309.784 168.616 309.318C169.081 308.852 169.674 308.534 170.32 308.406C170.965 308.278 171.634 308.342 172.243 308.594C172.851 308.846 173.371 309.272 173.737 309.82C174.102 310.368 174.298 311.01 174.298 311.668C174.296 312.55 173.946 313.396 173.323 314.018C172.701 314.642 171.856 314.994 170.975 314.996ZM170.975 309.462C170.538 309.462 170.111 309.59 169.748 309.832C169.385 310.074 169.101 310.418 168.934 310.822C168.766 311.224 168.722 311.668 168.806 312.096C168.891 312.524 169.101 312.918 169.409 313.228C169.717 313.536 170.11 313.746 170.538 313.832C170.967 313.918 171.41 313.874 171.814 313.708C172.217 313.54 172.562 313.258 172.805 312.896C173.047 312.532 173.177 312.106 173.177 311.668C173.177 311.084 172.945 310.524 172.532 310.11C172.119 309.696 171.559 309.464 170.975 309.462Z" fill="#1E1D25"/>
<path d="M184.759 314.436C186.287 314.436 187.525 313.196 187.525 311.668C187.525 310.14 186.287 308.902 184.759 308.902C183.231 308.902 181.992 310.14 181.992 311.668C181.992 313.196 183.231 314.436 184.759 314.436Z" fill="#FFCB3D"/>
<path d="M184.759 314.996C184.101 314.996 183.457 314.8 182.91 314.436C182.363 314.07 181.937 313.55 181.685 312.942C181.433 312.334 181.367 311.666 181.496 311.02C181.624 310.374 181.941 309.782 182.406 309.316C182.871 308.85 183.464 308.534 184.11 308.406C184.755 308.278 185.424 308.344 186.032 308.596C186.64 308.846 187.16 309.274 187.525 309.82C187.891 310.368 188.086 311.01 188.086 311.668C188.085 312.55 187.734 313.396 187.11 314.02C186.486 314.644 185.641 314.994 184.759 314.996ZM184.759 309.462C184.322 309.462 183.896 309.592 183.533 309.834C183.17 310.078 182.888 310.422 182.721 310.824C182.554 311.228 182.51 311.672 182.595 312.1C182.68 312.528 182.89 312.92 183.199 313.228C183.507 313.538 183.9 313.748 184.328 313.832C184.756 313.918 185.2 313.874 185.603 313.708C186.006 313.54 186.351 313.258 186.593 312.894C186.836 312.532 186.965 312.106 186.965 311.668C186.964 311.084 186.731 310.524 186.317 310.11C185.904 309.696 185.344 309.464 184.759 309.462ZM205.394 325.498H154.335C154.186 325.498 154.044 325.438 153.939 325.334C153.833 325.228 153.774 325.086 153.774 324.938V319.852C153.774 319.704 153.833 319.562 153.939 319.456C154.044 319.35 154.186 319.292 154.335 319.292H205.394C205.542 319.292 205.686 319.35 205.79 319.456C205.896 319.562 205.954 319.704 205.954 319.852V324.924C205.956 324.998 205.944 325.072 205.916 325.142C205.888 325.212 205.848 325.276 205.796 325.328C205.744 325.382 205.68 325.424 205.612 325.454C205.544 325.482 205.47 325.498 205.394 325.498ZM154.895 324.376H204.834V320.412H154.895V324.376Z" fill="#1E1D25"/>
<path d="M36.7696 204.397L30.1484 207.461L68.0354 289.342L74.6564 286.28L36.7696 204.397Z" fill="#FFCB3D"/>
<path d="M102.896 168.481L98.9289 162.358L30.6953 206.568L34.6623 212.691L102.896 168.481Z" fill="#FFCB3D"/>
<path d="M140.336 226.19L146.067 221.675L99.0619 162.007L93.3311 166.521L140.336 226.19Z" fill="#FFCB3D"/>
<path d="M190.624 241.214L192.794 234.248L141.762 218.354L139.593 225.318L190.624 241.214Z" fill="#FFCB3D"/>
<path d="M68.0396 289.904C67.932 289.904 67.8266 289.874 67.736 289.814C67.6454 289.756 67.5732 289.674 67.5286 289.576L29.6432 207.693C29.6144 207.626 29.5996 207.554 29.5996 207.48C29.5996 207.407 29.6144 207.335 29.6432 207.267C29.6672 207.198 29.7056 207.134 29.7558 207.08C29.8058 207.026 29.8668 206.983 29.9346 206.953L36.553 203.886C36.6882 203.825 36.842 203.819 36.9812 203.871C37.1206 203.922 37.234 204.026 37.2974 204.16L75.1828 286.042C75.2444 286.178 75.2506 286.33 75.2004 286.47C75.15 286.61 75.047 286.722 74.9136 286.788L68.2908 289.85C68.2124 289.888 68.1264 289.906 68.0396 289.904ZM30.8942 207.734L68.3178 288.604L73.9182 286.006L36.4812 205.142L30.8942 207.734Z" fill="#1E1D25"/>
<path d="M34.6521 213.24C34.5625 213.237 34.4749 213.212 34.3969 213.167C34.3187 213.123 34.2525 213.06 34.2037 212.985L30.2041 206.864C30.1239 206.739 30.0965 206.588 30.1279 206.443C30.1425 206.37 30.1715 206.302 30.2131 206.241C30.2547 206.18 30.3079 206.128 30.3699 206.088L98.6075 161.881C98.7327 161.801 98.8843 161.773 99.0295 161.804C99.1745 161.836 99.3017 161.922 99.3833 162.046L103.347 168.172C103.387 168.233 103.415 168.302 103.428 168.374C103.441 168.446 103.44 168.52 103.425 168.592C103.409 168.663 103.38 168.731 103.338 168.792C103.296 168.852 103.243 168.903 103.181 168.943L34.9571 213.151C34.8665 213.21 34.7605 213.241 34.6521 213.24ZM31.4595 206.725L34.8181 211.927L102.11 168.333L98.7555 163.15L31.4595 206.725Z" fill="#1E1D25"/>
<path d="M140.332 226.768C140.245 226.77 140.16 226.75 140.082 226.714C140.005 226.676 139.937 226.622 139.883 226.554L92.8818 166.889C92.7906 166.772 92.7488 166.624 92.7652 166.477C92.7838 166.328 92.8594 166.193 92.976 166.1L98.7066 161.589C98.7638 161.543 98.8296 161.509 98.9002 161.489C98.9708 161.468 99.0446 161.462 99.1176 161.47C99.1906 161.479 99.261 161.501 99.3252 161.537C99.3894 161.573 99.4458 161.621 99.4912 161.679L146.502 221.343C146.548 221.4 146.582 221.466 146.602 221.537C146.622 221.608 146.627 221.682 146.618 221.755C146.6 221.904 146.524 222.039 146.407 222.132L140.681 226.648C140.581 226.726 140.458 226.768 140.332 226.768ZM94.1104 166.638L140.426 225.424L145.277 221.603L98.9576 162.818L94.1104 166.638Z" fill="#1E1D25"/>
<path d="M190.633 241.786C190.575 241.786 190.518 241.776 190.463 241.758L139.435 225.868C139.364 225.846 139.299 225.81 139.242 225.764C139.186 225.716 139.139 225.66 139.105 225.594C139.071 225.53 139.05 225.458 139.043 225.384C139.037 225.312 139.045 225.238 139.067 225.168L141.233 218.204C141.277 218.062 141.376 217.943 141.508 217.873C141.64 217.803 141.794 217.789 141.937 217.832L192.974 233.724C193.115 233.768 193.234 233.868 193.303 234C193.373 234.13 193.388 234.284 193.346 234.428L191.18 241.39C191.135 241.532 191.037 241.652 190.907 241.722C190.822 241.766 190.728 241.788 190.633 241.786ZM140.3 224.966L190.283 240.526L192.122 234.63L142.161 219.07L140.3 224.966Z" fill="#1E1D25"/>
<path d="M194.493 261.344L193.682 257.624C194.626 257.438 195.523 257.066 196.322 256.528C197.12 255.992 197.803 255.302 198.331 254.496C198.859 253.692 199.221 252.792 199.396 251.846C199.571 250.9 199.555 249.928 199.35 248.988C199.145 248.048 198.754 247.158 198.2 246.372C197.647 245.584 196.941 244.916 196.126 244.406C195.311 243.894 194.402 243.552 193.452 243.396C192.503 243.242 191.532 243.278 190.597 243.504L189.785 239.782C192.645 239.158 195.635 239.694 198.099 241.274C200.562 242.856 202.296 245.35 202.922 248.21C203.546 251.068 203.008 254.06 201.428 256.522C199.847 258.986 197.353 260.72 194.493 261.344Z" fill="#FFCB3D"/>
<path d="M183.799 261.066C182.421 260.548 181.161 259.758 180.093 258.744C179.025 257.73 178.171 256.512 177.581 255.162C176.991 253.814 176.677 252.36 176.657 250.888C176.638 249.416 176.913 247.954 177.467 246.59C178.021 245.224 178.842 243.986 179.883 242.944C180.923 241.902 182.162 241.078 183.525 240.522C184.889 239.966 186.35 239.688 187.823 239.706C189.295 239.724 190.749 240.036 192.099 240.624L190.664 244.148C188.896 243.466 186.93 243.506 185.19 244.258C183.451 245.012 182.077 246.418 181.364 248.174C180.651 249.93 180.657 251.896 181.38 253.65C182.103 255.402 183.486 256.8 185.23 257.542L183.799 261.066Z" fill="#FFCB3D"/>
<path d="M194.493 261.906C194.364 261.906 194.239 261.862 194.139 261.78C194.04 261.698 193.971 261.584 193.946 261.456L193.135 257.736C193.118 257.664 193.116 257.59 193.129 257.518C193.141 257.444 193.167 257.376 193.207 257.314C193.288 257.188 193.415 257.1 193.561 257.068C195.286 256.69 196.791 255.644 197.746 254.158C198.701 252.674 199.028 250.87 198.655 249.144C198.274 247.42 197.228 245.918 195.743 244.964C194.259 244.008 192.457 243.68 190.731 244.05C190.586 244.082 190.434 244.056 190.309 243.976C190.184 243.896 190.095 243.77 190.063 243.624L189.252 239.902C189.237 239.828 189.236 239.754 189.251 239.68C189.265 239.606 189.294 239.536 189.336 239.474C189.378 239.412 189.431 239.36 189.494 239.318C189.556 239.276 189.626 239.248 189.7 239.234C192.684 238.634 195.784 239.232 198.331 240.896C200.878 242.562 202.67 245.162 203.316 248.136C203.964 251.11 203.416 254.218 201.792 256.792C200.168 259.366 197.596 261.198 194.632 261.892L194.493 261.906ZM194.345 258.036L194.919 260.664C197.505 259.952 199.719 258.278 201.106 255.982C202.494 253.688 202.948 250.95 202.376 248.33C201.804 245.71 200.25 243.41 198.032 241.902C195.815 240.394 193.104 239.794 190.458 240.226L191.032 242.858C192.979 242.58 194.96 243.048 196.576 244.17C198.192 245.292 199.323 246.984 199.743 248.906C200.162 250.828 199.839 252.838 198.838 254.532C197.837 256.224 196.232 257.476 194.345 258.036Z" fill="#1E1D25"/>
<path d="M183.799 261.628C183.727 261.628 183.656 261.614 183.589 261.586C182.161 261.026 180.859 260.188 179.758 259.12C178.657 258.052 177.779 256.778 177.174 255.368C176.569 253.958 176.25 252.444 176.235 250.91C176.22 249.376 176.509 247.854 177.086 246.434C177.662 245.012 178.515 243.72 179.595 242.632C180.675 241.542 181.96 240.678 183.376 240.088C184.792 239.5 186.31 239.198 187.844 239.2C189.377 239.202 190.895 239.508 192.31 240.1C192.378 240.128 192.441 240.168 192.493 240.22C192.546 240.272 192.588 240.332 192.616 240.4C192.645 240.468 192.66 240.542 192.661 240.616C192.661 240.69 192.647 240.762 192.619 240.83L191.184 244.354C191.157 244.424 191.116 244.486 191.064 244.538C191.013 244.59 190.951 244.632 190.883 244.662C190.815 244.69 190.742 244.706 190.669 244.706C190.595 244.706 190.522 244.692 190.454 244.664C188.815 244 186.979 244.012 185.35 244.702C183.721 245.39 182.433 246.698 181.768 248.336C181.103 249.976 181.117 251.812 181.805 253.44C182.494 255.068 183.802 256.358 185.44 257.022C185.509 257.048 185.572 257.088 185.625 257.14C185.677 257.192 185.718 257.254 185.745 257.322C185.777 257.394 185.794 257.47 185.794 257.546C185.794 257.624 185.777 257.7 185.745 257.772L184.315 261.3C184.27 261.398 184.197 261.482 184.106 261.54C184.014 261.598 183.908 261.628 183.799 261.628ZM187.947 240.364C186.547 240.366 185.161 240.648 183.871 241.194C182.008 241.982 180.414 243.294 179.28 244.97C178.147 246.646 177.522 248.614 177.483 250.636C177.443 252.658 177.989 254.65 179.056 256.368C180.123 258.088 181.664 259.46 183.494 260.322L184.508 257.83C182.755 256.954 181.397 255.448 180.704 253.616C180.011 251.782 180.035 249.756 180.771 247.938C181.506 246.122 182.9 244.65 184.673 243.816C186.446 242.98 188.468 242.846 190.337 243.436L191.35 240.938C190.255 240.56 189.105 240.368 187.947 240.364Z" fill="#1E1D25"/>
<path d="M70.058 300.324C75.4468 300.324 79.8152 295.956 79.8152 290.566C79.8152 285.178 75.4468 280.81 70.058 280.81C64.6692 280.81 60.3008 285.178 60.3008 290.566C60.3008 295.956 64.6692 300.324 70.058 300.324Z" fill="white"/>
<path d="M70.0584 300.88C68.0186 300.88 66.0246 300.276 64.3286 299.142C62.6326 298.008 61.3108 296.398 60.5302 294.514C59.7496 292.63 59.5454 290.556 59.9432 288.556C60.3412 286.554 61.3234 284.716 62.7658 283.274C64.2082 281.832 66.0458 280.85 68.0464 280.452C70.047 280.054 72.1206 280.258 74.005 281.038C75.8896 281.82 77.5002 283.142 78.6334 284.838C79.7666 286.534 80.3716 288.528 80.3716 290.568C80.3716 293.302 79.285 295.926 77.3508 297.86C75.4168 299.794 72.7936 300.88 70.0584 300.88ZM70.0584 281.37C68.2392 281.37 66.461 281.91 64.9484 282.92C63.436 283.932 62.2572 285.368 61.5612 287.048C60.8654 288.73 60.6834 290.578 61.0386 292.362C61.394 294.148 62.2702 295.786 63.5568 297.072C64.8436 298.358 66.4826 299.234 68.267 299.588C70.0512 299.942 71.9004 299.76 73.5808 299.062C75.2612 298.366 76.6972 297.186 77.7072 295.674C78.7174 294.16 79.256 292.382 79.255 290.562C79.2514 288.126 78.2812 285.788 76.5572 284.066C74.8332 282.342 72.496 281.372 70.0584 281.37Z" fill="#1E1D25"/>
<path d="M103.105 330.788H37.0156V340.066H103.105V330.788Z" fill="#FFCB3D"/>
<path d="M103.105 340.618H37.0157C36.8671 340.618 36.7245 340.558 36.6193 340.454C36.5143 340.348 36.4551 340.206 36.4551 340.058V330.788C36.4551 330.64 36.5143 330.498 36.6193 330.392C36.7245 330.288 36.8671 330.228 37.0157 330.228H103.105C103.254 330.228 103.397 330.288 103.502 330.392C103.607 330.498 103.666 330.64 103.666 330.788V340.062C103.665 340.21 103.605 340.35 103.5 340.454C103.395 340.56 103.253 340.618 103.105 340.618ZM37.5761 339.496H102.545V331.35H37.5761V339.496Z" fill="#1E1D25"/>
<path d="M94.4285 290.566H45.6963V330.788H94.4285V290.566Z" fill="#FFCB3D"/>
<path d="M94.424 331.348H45.6962C45.6224 331.35 45.5494 331.336 45.481 331.308C45.4128 331.28 45.3508 331.238 45.2986 331.186C45.2464 331.134 45.2052 331.072 45.1772 331.004C45.1492 330.936 45.1352 330.862 45.1358 330.788V290.562C45.1352 290.488 45.1492 290.416 45.1772 290.348C45.2052 290.28 45.2464 290.216 45.2986 290.164C45.3508 290.112 45.4128 290.072 45.481 290.044C45.5494 290.016 45.6224 290.002 45.6962 290.002H94.424C94.5726 290.002 94.7152 290.062 94.8202 290.166C94.9254 290.272 94.9844 290.414 94.9844 290.562V330.788C94.9844 330.938 94.9254 331.08 94.8202 331.184C94.7152 331.29 94.5726 331.348 94.424 331.348ZM46.2568 330.228H93.8768V291.122H46.2568V330.228Z" fill="#1E1D25"/>
<path d="M59.3993 315.112H52.4041C52.3303 315.114 52.2573 315.1 52.1889 315.072C52.1207 315.044 52.0587 315.002 52.0065 314.95C51.9543 314.898 51.9131 314.836 51.8851 314.768C51.8571 314.698 51.8431 314.626 51.8437 314.552V307.556C51.8437 307.408 51.9027 307.266 52.0079 307.16C52.1129 307.056 52.2555 306.996 52.4041 306.996H59.3993C59.5479 306.996 59.6905 307.056 59.7955 307.16C59.9007 307.266 59.9597 307.408 59.9597 307.556V314.552C59.9603 314.626 59.9463 314.698 59.9183 314.768C59.8903 314.836 59.8491 314.898 59.7969 314.95C59.7447 315.002 59.6827 315.044 59.6145 315.072C59.5461 315.1 59.4729 315.114 59.3993 315.112ZM52.9647 313.992H58.8387V308.118H52.9647V313.992ZM73.5553 315.112H66.5603C66.4865 315.114 66.4133 315.1 66.3451 315.072C66.2767 315.044 66.2147 315.002 66.1625 314.95C66.1103 314.898 66.0691 314.836 66.0411 314.768C66.0133 314.698 65.9991 314.626 65.9997 314.552V307.558C65.9997 307.408 66.0587 307.266 66.1639 307.16C66.2691 307.056 66.4115 306.996 66.5603 306.996H73.5553C73.6291 306.996 73.7021 307.01 73.7705 307.038C73.8387 307.066 73.9007 307.108 73.9529 307.16C74.0051 307.212 74.0463 307.274 74.0743 307.342C74.1023 307.41 74.1163 307.484 74.1157 307.558V314.552C74.1163 314.626 74.1023 314.698 74.0743 314.768C74.0463 314.836 74.0051 314.898 73.9529 314.95C73.9007 315.002 73.8387 315.044 73.7705 315.072C73.7021 315.1 73.6291 315.114 73.5553 315.112ZM67.1207 313.992H72.9947V308.118H67.1207V313.992ZM87.7159 315.112H80.7207C80.6469 315.114 80.5739 315.1 80.5055 315.072C80.4373 315.044 80.3753 315.002 80.3231 314.95C80.2709 314.898 80.2297 314.836 80.2017 314.768C80.1737 314.698 80.1597 314.626 80.1603 314.552V307.556C80.1603 307.408 80.2193 307.266 80.3245 307.16C80.4295 307.056 80.5721 306.996 80.7207 306.996H87.7159C87.8645 306.996 88.0071 307.056 88.1121 307.16C88.2173 307.266 88.2763 307.408 88.2763 307.556V314.552C88.2769 314.626 88.2629 314.698 88.2349 314.768C88.2069 314.836 88.1657 314.898 88.1135 314.95C88.0613 315.002 87.9993 315.044 87.9311 315.072C87.8627 315.1 87.7895 315.114 87.7159 315.112ZM81.2813 313.992H87.1509V308.118H81.2767L81.2813 313.992ZM94.4239 322.104H45.6961C45.5475 322.104 45.4049 322.044 45.2999 321.938C45.1947 321.834 45.1357 321.692 45.1357 321.542C45.1357 321.394 45.1947 321.252 45.2999 321.146C45.4049 321.042 45.5475 320.982 45.6961 320.982H94.4239C94.5725 320.982 94.7151 321.042 94.8201 321.146C94.9253 321.252 94.9843 321.394 94.9843 321.542C94.9843 321.692 94.9253 321.834 94.8201 321.938C94.7151 322.044 94.5725 322.104 94.4239 322.104ZM94.4239 300.634H45.6961C45.5475 300.634 45.4049 300.574 45.2999 300.47C45.1947 300.364 45.1357 300.222 45.1357 300.074C45.1357 299.924 45.1947 299.782 45.2999 299.676C45.4049 299.572 45.5475 299.512 45.6961 299.512H94.4239C94.5725 299.512 94.7151 299.572 94.8201 299.676C94.9253 299.782 94.9843 299.924 94.9843 300.074C94.9843 300.222 94.9253 300.364 94.8201 300.47C94.7151 300.574 94.5725 300.634 94.4239 300.634Z" fill="#1E1D25"/>
<path d="M35.2354 214.706C38.9648 214.706 41.9882 211.683 41.9882 207.953C41.9882 204.224 38.9648 201.2 35.2354 201.2C31.5058 201.2 28.4824 204.224 28.4824 207.953C28.4824 211.683 31.5058 214.706 35.2354 214.706ZM98.37 173.808C102.1 173.808 105.123 170.784 105.123 167.055C105.123 163.325 102.1 160.302 98.37 160.302C94.6406 160.302 91.6172 163.325 91.6172 167.055C91.6172 170.784 94.6406 173.808 98.37 173.808ZM141.399 228.414C145.128 228.414 148.152 225.392 148.152 221.661C148.152 217.932 145.128 214.908 141.399 214.908C137.669 214.908 134.646 217.932 134.646 221.661C134.646 225.392 137.669 228.414 141.399 228.414ZM191.139 244.78C194.869 244.78 197.892 241.758 197.892 238.028C197.892 234.298 194.869 231.276 191.139 231.276C187.41 231.276 184.387 234.298 184.387 238.028C184.387 241.758 187.41 244.78 191.139 244.78Z" fill="white"/>
<path d="M35.2354 215.272C33.788 215.273 32.3726 214.844 31.1686 214.041C29.9646 213.237 29.026 212.094 28.4714 210.757C27.9168 209.42 27.7714 207.949 28.0532 206.529C28.335 205.109 29.0316 203.805 30.0548 202.781C31.0782 201.757 32.382 201.06 33.8016 200.777C35.2214 200.494 36.693 200.639 38.0304 201.193C39.3678 201.746 40.511 202.684 41.3152 203.888C42.1196 205.091 42.5488 206.506 42.5488 207.954C42.5478 209.894 41.777 211.753 40.4058 213.125C39.0346 214.497 37.1752 215.269 35.2354 215.272ZM35.2354 201.761C34.009 201.758 32.8088 202.118 31.7874 202.797C30.7658 203.476 29.9688 204.443 29.497 205.575C29.0254 206.708 28.9004 207.955 29.1378 209.158C29.3754 210.361 29.9646 211.467 30.831 212.335C31.6974 213.204 32.8018 213.795 34.0048 214.035C35.2076 214.275 36.4546 214.153 37.588 213.684C38.7212 213.215 39.6898 212.42 40.371 211.4C41.0522 210.38 41.4154 209.18 41.4144 207.954C41.412 206.315 40.7608 204.743 39.6028 203.583C38.445 202.422 36.8748 201.767 35.2354 201.761ZM98.3613 174.368C96.9137 174.369 95.4981 173.941 94.2941 173.137C93.0899 172.333 92.1514 171.19 91.597 169.853C91.0426 168.515 90.8971 167.044 91.1793 165.624C91.4615 164.204 92.1588 162.899 93.1824 161.876C94.2062 160.852 95.5103 160.155 96.9303 159.873C98.3503 159.591 99.8222 159.736 101.159 160.29C102.497 160.845 103.64 161.783 104.443 162.988C105.247 164.192 105.676 165.607 105.675 167.055C105.672 168.994 104.901 170.853 103.53 172.224C102.159 173.595 100.3 174.366 98.3613 174.368ZM98.3613 160.858C97.1355 160.857 95.9369 161.22 94.9173 161.9C93.8977 162.58 93.1027 163.548 92.6329 164.68C92.1633 165.813 92.0399 167.059 92.2785 168.261C92.5171 169.463 93.1069 170.568 93.9735 171.435C94.8399 172.302 95.9442 172.893 97.1464 173.132C98.3486 173.372 99.5948 173.249 100.727 172.78C101.86 172.312 102.828 171.517 103.509 170.498C104.19 169.479 104.554 168.281 104.554 167.055C104.553 165.412 103.9 163.838 102.739 162.676C101.578 161.514 100.004 160.86 98.3613 160.858ZM141.408 228.966C139.96 228.966 138.545 228.538 137.341 227.734C136.137 226.932 135.198 225.788 134.644 224.452C134.089 223.114 133.944 221.643 134.226 220.223C134.507 218.803 135.204 217.499 136.227 216.475C137.251 215.451 138.555 214.754 139.974 214.471C141.394 214.188 142.865 214.333 144.203 214.887C145.54 215.44 146.683 216.378 147.488 217.582C148.292 218.785 148.721 220.2 148.721 221.648C148.719 223.587 147.948 225.446 146.577 226.818C145.206 228.19 143.347 228.962 141.408 228.966ZM141.408 215.456C140.182 215.455 138.983 215.817 137.963 216.498C136.944 217.179 136.149 218.146 135.679 219.279C135.21 220.411 135.086 221.658 135.325 222.86C135.564 224.063 136.155 225.168 137.022 226.034C137.889 226.902 138.993 227.492 140.196 227.73C141.398 227.97 142.644 227.846 143.777 227.376C144.909 226.908 145.877 226.112 146.558 225.092C147.238 224.073 147.601 222.874 147.6 221.648C147.594 220.009 146.94 218.438 145.779 217.281C144.619 216.123 143.047 215.471 141.408 215.469V215.456ZM191.153 245.346C189.646 245.348 188.175 244.886 186.941 244.02C185.707 243.156 184.77 241.93 184.258 240.512C183.747 239.096 183.685 237.554 184.082 236.1C184.479 234.646 185.315 233.35 186.476 232.39C187.637 231.428 189.066 230.85 190.569 230.732C192.071 230.614 193.574 230.964 194.87 231.732C196.167 232.5 197.195 233.648 197.814 235.022C198.433 236.398 198.612 237.928 198.328 239.408C198.007 241.078 197.116 242.582 195.807 243.666C194.498 244.748 192.852 245.342 191.153 245.346ZM191.153 231.836C189.61 231.832 188.121 232.406 186.978 233.444C185.836 234.48 185.122 235.908 184.976 237.444C184.831 238.982 185.265 240.516 186.193 241.75C187.12 242.984 188.475 243.826 189.992 244.112C190.838 244.272 191.709 244.254 192.548 244.058C193.387 243.862 194.175 243.494 194.864 242.976C195.552 242.458 196.125 241.802 196.545 241.052C196.966 240.3 197.225 239.468 197.306 238.61C197.387 237.754 197.289 236.888 197.017 236.072C196.744 235.254 196.305 234.502 195.726 233.864C195.147 233.226 194.441 232.718 193.654 232.368C192.866 232.018 192.015 231.836 191.153 231.836Z" fill="#1E1D25"/>
<path d="M35.2354 210.958C34.641 210.959 34.0596 210.784 33.565 210.454C33.0704 210.125 32.6846 209.656 32.4566 209.107C32.2284 208.558 32.1684 207.954 32.2838 207.371C32.3992 206.788 32.685 206.252 33.105 205.831C33.5248 205.411 34.0602 205.124 34.643 205.008C35.226 204.892 35.8302 204.951 36.3796 205.178C36.9288 205.405 37.3982 205.79 37.7286 206.285C38.0588 206.779 38.2352 207.36 38.2352 207.954C38.2352 208.75 37.9192 209.514 37.3568 210.077C36.7944 210.64 36.0314 210.957 35.2354 210.958ZM35.2354 206.075C34.8624 206.074 34.4978 206.184 34.1874 206.391C33.877 206.597 33.6348 206.891 33.4918 207.236C33.3486 207.58 33.311 207.959 33.3836 208.325C33.456 208.691 33.6356 209.027 33.8992 209.29C34.1628 209.554 34.4988 209.733 34.8646 209.806C35.2302 209.878 35.6094 209.841 35.9536 209.698C36.298 209.555 36.592 209.312 36.7986 209.002C37.0052 208.692 37.115 208.327 37.1142 207.954C37.107 207.46 36.9062 206.989 36.5548 206.641C36.2032 206.294 35.7294 206.099 35.2354 206.098V206.075ZM98.3612 170.055C97.7678 170.055 97.1878 169.879 96.6946 169.55C96.2012 169.22 95.8168 168.752 95.5896 168.203C95.3626 167.655 95.3032 167.052 95.419 166.47C95.5348 165.888 95.8204 165.354 96.24 164.934C96.6594 164.515 97.194 164.229 97.776 164.113C98.3578 163.998 98.961 164.057 99.5092 164.284C100.057 164.511 100.526 164.896 100.855 165.389C101.185 165.882 101.361 166.462 101.361 167.055C101.36 167.851 101.043 168.613 100.481 169.175C99.9186 169.738 99.1564 170.054 98.3612 170.055ZM98.3612 165.177C97.9896 165.177 97.6262 165.287 97.3174 165.493C97.0084 165.7 96.7676 165.993 96.6254 166.336C96.4832 166.68 96.446 167.058 96.5184 167.422C96.591 167.786 96.7698 168.121 97.0326 168.384C97.2954 168.647 97.6302 168.826 97.9946 168.898C98.359 168.971 98.7368 168.933 99.0802 168.791C99.4234 168.649 99.7168 168.408 99.9234 168.099C100.13 167.79 100.24 167.427 100.24 167.055C100.239 166.558 100.04 166.08 99.6884 165.728C99.3362 165.376 98.859 165.178 98.3612 165.177ZM141.408 224.666C140.813 224.667 140.232 224.491 139.737 224.162C139.243 223.832 138.857 223.363 138.629 222.814C138.401 222.265 138.341 221.661 138.456 221.078C138.572 220.495 138.857 219.959 139.277 219.539C139.697 219.118 140.233 218.832 140.816 218.715C141.398 218.599 142.003 218.658 142.552 218.885C143.101 219.113 143.571 219.498 143.901 219.992C144.231 220.486 144.408 221.067 144.408 221.662C144.408 222.458 144.092 223.221 143.529 223.784C142.967 224.348 142.204 224.665 141.408 224.666ZM141.408 219.783C141.035 219.782 140.67 219.892 140.36 220.098C140.049 220.305 139.807 220.599 139.664 220.943C139.521 221.288 139.483 221.667 139.556 222.032C139.629 222.398 139.808 222.734 140.072 222.998C140.335 223.261 140.671 223.441 141.037 223.513C141.403 223.586 141.782 223.548 142.126 223.405C142.47 223.262 142.764 223.02 142.971 222.709C143.178 222.399 143.287 222.034 143.287 221.662C143.285 221.164 143.087 220.686 142.735 220.334C142.383 219.982 141.906 219.784 141.408 219.783ZM191.14 241.032C190.546 241.032 189.964 240.858 189.47 240.528C188.975 240.198 188.589 239.73 188.361 239.18C188.133 238.632 188.073 238.028 188.188 237.444C188.304 236.862 188.59 236.326 189.01 235.904C189.43 235.484 189.965 235.198 190.548 235.082C191.131 234.966 191.735 235.024 192.284 235.252C192.833 235.478 193.303 235.864 193.633 236.358C193.964 236.852 194.14 237.434 194.14 238.028C194.139 238.824 193.822 239.586 193.26 240.15C192.698 240.712 191.936 241.03 191.14 241.032ZM191.14 236.148C190.767 236.148 190.402 236.258 190.092 236.464C189.782 236.672 189.54 236.966 189.396 237.31C189.253 237.654 189.216 238.032 189.288 238.398C189.361 238.764 189.54 239.1 189.804 239.364C190.068 239.628 190.403 239.806 190.769 239.88C191.135 239.952 191.514 239.914 191.858 239.772C192.203 239.628 192.497 239.386 192.703 239.076C192.91 238.766 193.02 238.4 193.019 238.028C193.019 237.78 192.971 237.536 192.877 237.306C192.783 237.078 192.645 236.87 192.47 236.694C192.296 236.52 192.089 236.38 191.86 236.286C191.632 236.19 191.387 236.14 191.14 236.14V236.148Z" fill="#1E1D25"/>
<path d="M193.773 249.246L187.213 248.436L184.484 270.504L191.044 271.314L193.773 249.246Z" fill="white"/>
<path d="M191.068 271.864H191.001L184.454 271.052C184.307 271.032 184.173 270.956 184.082 270.838C183.991 270.72 183.949 270.572 183.965 270.424L186.696 248.354C186.705 248.282 186.728 248.212 186.764 248.148C186.8 248.084 186.849 248.028 186.907 247.982C186.965 247.936 187.031 247.904 187.102 247.884C187.173 247.866 187.247 247.86 187.32 247.87L193.871 248.696C194.018 248.716 194.151 248.792 194.241 248.91C194.332 249.028 194.373 249.176 194.355 249.324L191.629 271.376C191.611 271.512 191.544 271.636 191.441 271.726C191.338 271.816 191.205 271.866 191.068 271.864ZM185.131 270.008L190.579 270.68L193.171 249.722L187.723 249.05L185.131 270.008Z" fill="#1E1D25"/>
<path d="M184.903 294.88H184.835C184.688 294.862 184.554 294.788 184.462 294.67C184.37 294.554 184.329 294.404 184.347 294.258L187.136 270.85C187.155 270.704 187.231 270.57 187.347 270.478C187.464 270.388 187.612 270.346 187.759 270.362C187.832 270.37 187.903 270.394 187.967 270.43C188.032 270.466 188.088 270.514 188.134 270.572C188.179 270.63 188.213 270.696 188.232 270.768C188.252 270.838 188.257 270.912 188.248 270.986L185.459 294.392C185.441 294.528 185.375 294.652 185.273 294.742C185.17 294.832 185.039 294.88 184.903 294.88ZM193.395 253.036H193.333L186.759 252.314C186.611 252.298 186.476 252.222 186.383 252.106C186.29 251.99 186.247 251.842 186.264 251.694C186.28 251.546 186.355 251.41 186.472 251.316C186.588 251.224 186.737 251.182 186.885 251.198L193.458 251.924C193.599 251.942 193.728 252.012 193.819 252.122C193.909 252.23 193.956 252.37 193.948 252.512C193.94 252.654 193.878 252.786 193.776 252.884C193.673 252.984 193.537 253.038 193.395 253.04V253.036ZM108.32 162.392C107.929 162.392 107.546 162.276 107.221 162.058C106.896 161.841 106.642 161.532 106.493 161.17C106.343 160.809 106.304 160.411 106.381 160.027C106.458 159.643 106.647 159.291 106.924 159.015C107.201 158.738 107.553 158.55 107.937 158.475C108.321 158.399 108.719 158.439 109.08 158.589C109.441 158.739 109.75 158.993 109.967 159.319C110.183 159.645 110.299 160.028 110.298 160.419C110.296 160.943 110.088 161.445 109.717 161.814C109.346 162.184 108.844 162.392 108.32 162.392ZM108.32 159.563C108.151 159.563 107.985 159.613 107.844 159.707C107.704 159.801 107.594 159.935 107.529 160.091C107.464 160.248 107.447 160.42 107.48 160.586C107.513 160.752 107.595 160.905 107.715 161.025C107.834 161.144 107.987 161.226 108.153 161.259C108.319 161.292 108.491 161.275 108.648 161.21C108.804 161.145 108.938 161.036 109.032 160.895C109.126 160.754 109.177 160.588 109.177 160.419C109.177 160.306 109.156 160.195 109.113 160.091C109.07 159.986 109.007 159.892 108.927 159.812C108.847 159.732 108.753 159.669 108.649 159.627C108.544 159.584 108.433 159.562 108.32 159.563ZM118.817 162.392C118.744 162.391 118.671 162.376 118.604 162.348C118.536 162.319 118.475 162.277 118.424 162.224C118.373 162.172 118.332 162.11 118.305 162.042C118.278 161.973 118.265 161.9 118.266 161.827C118.4 151.321 108.706 150.577 108.293 150.554C108.147 150.542 108.011 150.472 107.914 150.361C107.818 150.249 107.769 150.105 107.778 149.958C107.782 149.884 107.8 149.812 107.832 149.746C107.864 149.68 107.909 149.621 107.964 149.572C108.019 149.523 108.083 149.486 108.153 149.462C108.223 149.438 108.296 149.428 108.37 149.433C108.482 149.433 119.544 150.254 119.396 161.84C119.395 161.915 119.379 161.988 119.349 162.056C119.319 162.125 119.276 162.186 119.222 162.237C119.168 162.289 119.105 162.329 119.035 162.355C118.966 162.382 118.892 162.394 118.817 162.392ZM131.915 159.563C131.767 159.558 131.626 159.495 131.523 159.388C131.419 159.281 131.362 159.137 131.364 158.989C131.489 152.375 129.732 147.164 126.14 143.496C120.683 137.927 112.76 137.851 112.688 137.851C112.539 137.851 112.397 137.792 112.292 137.687C112.186 137.582 112.127 137.439 112.127 137.291C112.127 137.142 112.186 136.999 112.292 136.894C112.397 136.789 112.539 136.73 112.688 136.73C113.029 136.73 121.149 136.797 126.942 142.703C130.758 146.59 132.624 152.079 132.494 159.011C132.493 159.085 132.477 159.159 132.447 159.227C132.417 159.295 132.374 159.357 132.32 159.408C132.266 159.459 132.203 159.5 132.133 159.526C132.064 159.553 131.99 159.565 131.915 159.563ZM229.536 152.765C229.316 152.764 229.098 152.728 228.89 152.657C228.394 152.486 227.986 152.125 227.758 151.653C227.528 151.181 227.494 150.638 227.666 150.142C227.838 149.646 228.198 149.238 228.67 149.009C229.142 148.779 229.686 148.746 230.182 148.918C230.624 149.07 230.998 149.374 231.238 149.777C231.478 150.179 231.566 150.653 231.488 151.115C231.41 151.576 231.172 151.995 230.814 152.298C230.458 152.6 230.004 152.765 229.536 152.765ZM229.536 149.931C229.322 149.93 229.114 150.01 228.956 150.154C228.796 150.299 228.698 150.498 228.678 150.711C228.66 150.925 228.722 151.138 228.852 151.309C228.984 151.479 229.174 151.594 229.384 151.631C229.596 151.668 229.814 151.624 229.994 151.508C230.176 151.392 230.306 151.213 230.36 151.005C230.414 150.797 230.39 150.577 230.29 150.387C230.188 150.197 230.02 150.052 229.818 149.98C229.728 149.946 229.632 149.93 229.536 149.931ZM219.684 147.936C219.612 147.935 219.538 147.922 219.47 147.895C219.402 147.867 219.34 147.825 219.288 147.773C219.236 147.72 219.194 147.658 219.166 147.59C219.138 147.522 219.124 147.448 219.126 147.375C219.126 147.301 219.14 147.228 219.17 147.16C219.21 147.057 223.6 136.869 234.5 140.806C234.572 140.829 234.636 140.867 234.694 140.916C234.75 140.966 234.796 141.026 234.828 141.093C234.862 141.161 234.88 141.234 234.884 141.309C234.888 141.384 234.876 141.458 234.852 141.529C234.826 141.599 234.786 141.664 234.736 141.719C234.684 141.774 234.624 141.818 234.556 141.849C234.486 141.88 234.412 141.897 234.338 141.899C234.264 141.9 234.188 141.887 234.118 141.86C224.254 138.273 220.362 147.209 220.218 147.595C220.174 147.698 220.098 147.786 220.004 147.847C219.908 147.908 219.798 147.939 219.684 147.936ZM209.116 139.672C209.054 139.67 208.992 139.659 208.932 139.64C208.792 139.592 208.676 139.489 208.612 139.355C208.548 139.222 208.538 139.068 208.586 138.927C208.7 138.605 211.416 130.955 218.9 127.412C223.832 125.076 229.622 125.108 236.128 127.502C236.202 127.523 236.27 127.559 236.33 127.609C236.39 127.658 236.438 127.718 236.474 127.787C236.508 127.856 236.53 127.931 236.534 128.008C236.538 128.085 236.526 128.162 236.5 128.235C236.474 128.307 236.432 128.373 236.38 128.429C236.326 128.484 236.262 128.529 236.19 128.558C236.12 128.588 236.042 128.603 235.966 128.602C235.888 128.6 235.812 128.583 235.742 128.551C229.532 126.269 224.03 126.224 219.394 128.421C212.344 131.753 209.682 139.219 209.654 139.295C209.614 139.406 209.542 139.502 209.446 139.57C209.35 139.637 209.234 139.673 209.116 139.672ZM192.144 133.798C192.081 133.798 192.019 133.787 191.96 133.766C191.82 133.717 191.705 133.615 191.64 133.481C191.575 133.348 191.566 133.194 191.615 133.053C191.664 132.91 196.727 118.673 210.206 112.288C219.084 108.077 229.55 108.14 241.316 112.463C241.456 112.514 241.568 112.618 241.632 112.753C241.694 112.888 241.7 113.043 241.65 113.182C241.598 113.322 241.494 113.436 241.358 113.499C241.224 113.561 241.07 113.568 240.93 113.517C229.46 109.302 219.29 109.225 210.694 113.292C197.641 119.476 192.722 133.282 192.678 133.421C192.639 133.531 192.566 133.627 192.471 133.694C192.375 133.762 192.261 133.798 192.144 133.798Z" fill="#1E1D25"/>
<path d="M271.936 210.227L232.75 228.356C232.672 228.392 232.588 228.41 232.5 228.408C232.414 228.408 232.33 228.388 232.252 228.352C232.174 228.316 232.104 228.262 232.05 228.196C231.994 228.13 231.954 228.054 231.93 227.97L211.264 166.683C211.198 166.505 211.202 166.309 211.276 166.134C211.35 165.96 211.488 165.821 211.662 165.745L253.18 150.347C253.26 150.324 253.344 150.317 253.428 150.327C253.512 150.337 253.592 150.363 253.664 150.405C253.736 150.447 253.8 150.503 253.85 150.571C253.9 150.638 253.936 150.714 253.956 150.796L272.278 209.339C272.334 209.503 272.332 209.683 272.27 209.845C272.208 210.008 272.09 210.143 271.936 210.227Z" fill="white"/>
<path d="M232.504 228.966C232.35 228.964 232.198 228.934 232.056 228.876C231.902 228.806 231.764 228.706 231.652 228.58C231.54 228.454 231.454 228.306 231.402 228.146L210.734 166.862C210.622 166.547 210.636 166.201 210.772 165.895C210.908 165.59 211.156 165.348 211.466 165.221L252.988 149.823C253.126 149.771 253.274 149.749 253.422 149.756C253.57 149.764 253.716 149.802 253.848 149.868C254.002 149.947 254.138 150.056 254.25 150.188C254.36 150.321 254.444 150.474 254.494 150.639L272.812 209.182C272.908 209.474 272.896 209.791 272.78 210.076C272.662 210.36 272.448 210.593 272.174 210.734L232.984 228.862C232.834 228.932 232.67 228.966 232.504 228.966ZM253.35 150.872L211.856 166.27C211.82 166.296 211.796 166.332 211.786 166.374C211.774 166.416 211.778 166.46 211.798 166.499L232.464 227.786C232.466 227.798 232.47 227.81 232.476 227.82C232.482 227.83 232.49 227.838 232.5 227.844L271.704 209.711C271.728 209.685 271.744 209.652 271.752 209.616C271.758 209.581 271.756 209.544 271.744 209.51L253.422 150.975C253.4 150.904 253.36 150.877 253.35 150.877V150.872Z" fill="#1E1D25"/>
<path d="M274.582 209.263L235.396 227.392C235.318 227.428 235.232 227.448 235.146 227.446C235.06 227.446 234.974 227.428 234.896 227.39C234.818 227.354 234.75 227.3 234.694 227.234C234.638 227.168 234.598 227.09 234.576 227.006L213.91 165.741C213.844 165.564 213.846 165.368 213.92 165.194C213.994 165.02 214.132 164.88 214.304 164.804L255.826 149.406C255.906 149.382 255.99 149.375 256.074 149.385C256.158 149.395 256.238 149.422 256.31 149.464C256.382 149.506 256.446 149.562 256.496 149.629C256.546 149.696 256.582 149.773 256.602 149.854L274.924 208.384C274.978 208.547 274.974 208.724 274.912 208.885C274.848 209.045 274.732 209.179 274.582 209.263Z" fill="white"/>
<path d="M235.146 228.006C234.992 228.006 234.84 227.976 234.698 227.916C234.542 227.846 234.404 227.742 234.292 227.614C234.18 227.486 234.096 227.336 234.048 227.172L213.38 165.898C213.268 165.583 213.28 165.237 213.416 164.931C213.554 164.625 213.802 164.384 214.112 164.257L255.628 148.859C255.768 148.807 255.918 148.785 256.066 148.792C256.214 148.8 256.36 148.838 256.494 148.904C256.648 148.983 256.784 149.092 256.894 149.224C257.004 149.357 257.086 149.51 257.136 149.675L275.48 208.218C275.576 208.51 275.564 208.827 275.448 209.111C275.33 209.396 275.116 209.629 274.842 209.77L235.652 227.898C235.494 227.972 235.32 228.01 235.146 228.006ZM255.996 149.913L214.498 165.293C214.462 165.318 214.436 165.354 214.426 165.396C214.414 165.438 214.416 165.482 214.434 165.522L235.124 226.826C235.124 226.838 235.128 226.85 235.134 226.86C235.14 226.87 235.15 226.878 235.16 226.886L274.362 208.752C274.386 208.724 274.402 208.691 274.408 208.656C274.416 208.621 274.414 208.584 274.404 208.55L256.068 150.011C256.046 149.94 256.006 149.913 255.996 149.913Z" fill="#1E1D25"/>
<path d="M231.568 163.011C231.436 163.011 231.31 162.964 231.208 162.88C231.108 162.796 231.04 162.679 231.016 162.55C230.992 162.421 231.016 162.288 231.08 162.174C231.144 162.059 231.248 161.972 231.37 161.925L241.76 158.015C241.898 157.963 242.054 157.968 242.188 158.03C242.324 158.091 242.43 158.204 242.482 158.343C242.534 158.482 242.528 158.636 242.468 158.771C242.406 158.907 242.294 159.012 242.154 159.065L231.764 162.975C231.702 162.998 231.634 163.01 231.568 163.011Z" fill="#1E1D25"/>
<path d="M254.61 186.52L237.958 193.511L234.594 183.31L251.404 176.503L254.61 186.52Z" fill="#FFCB3D"/>
<path d="M237.958 194.071C237.876 194.073 237.796 194.056 237.724 194.022C237.654 193.991 237.59 193.945 237.538 193.888C237.486 193.831 237.448 193.763 237.424 193.69L234.06 183.485C234.016 183.349 234.024 183.202 234.084 183.073C234.144 182.944 234.252 182.843 234.384 182.789L251.194 175.983C251.264 175.952 251.34 175.936 251.418 175.936C251.496 175.936 251.572 175.952 251.642 175.983C251.712 176.015 251.776 176.061 251.826 176.119C251.878 176.177 251.916 176.245 251.938 176.319L255.144 186.368C255.186 186.501 255.178 186.646 255.118 186.773C255.06 186.899 254.956 187 254.826 187.054L238.172 194.049C238.102 194.069 238.03 194.077 237.958 194.071ZM235.266 183.632L238.276 192.762L253.898 186.202L251.032 177.234L235.266 183.632ZM253.408 215.039C253.054 215.038 252.704 214.965 252.378 214.823C251.998 214.647 251.66 214.393 251.386 214.078C251.11 213.763 250.904 213.394 250.782 212.994C250.256 211.375 251.002 209.528 252.45 208.878C252.782 208.727 253.142 208.649 253.508 208.649C253.872 208.649 254.234 208.727 254.566 208.878C254.944 209.054 255.28 209.308 255.554 209.623C255.828 209.938 256.032 210.308 256.154 210.707C256.41 211.475 256.386 212.31 256.082 213.062C255.78 213.814 255.22 214.433 254.504 214.81C254.16 214.964 253.786 215.042 253.408 215.039ZM253.522 209.765C253.31 209.766 253.1 209.812 252.906 209.9C252.43 210.153 252.06 210.57 251.864 211.074C251.67 211.578 251.664 212.136 251.848 212.644C251.922 212.894 252.048 213.126 252.218 213.324C252.386 213.523 252.596 213.683 252.83 213.796C253.02 213.882 253.226 213.926 253.434 213.926C253.642 213.926 253.848 213.882 254.036 213.796C254.508 213.539 254.872 213.122 255.064 212.621C255.256 212.12 255.264 211.568 255.086 211.061C255.012 210.812 254.886 210.581 254.718 210.382C254.55 210.184 254.342 210.023 254.108 209.909C253.92 209.82 253.716 209.771 253.508 209.765H253.522Z" fill="#1E1D25"/>
<path d="M245.544 188.61C245.476 188.611 245.41 188.599 245.346 188.574L240.994 186.937C240.924 186.912 240.86 186.873 240.806 186.823C240.752 186.773 240.708 186.712 240.678 186.645C240.648 186.578 240.63 186.505 240.628 186.431C240.626 186.358 240.64 186.284 240.666 186.215C240.718 186.077 240.824 185.965 240.96 185.904C241.094 185.843 241.248 185.837 241.388 185.888L245.146 187.3L246.71 180.606C246.744 180.461 246.834 180.335 246.96 180.256C247.088 180.178 247.24 180.153 247.384 180.187C247.53 180.22 247.656 180.311 247.734 180.437C247.814 180.564 247.838 180.716 247.804 180.861L246.092 188.161C246.074 188.239 246.04 188.313 245.99 188.376C245.942 188.44 245.88 188.492 245.808 188.529C245.728 188.577 245.638 188.604 245.544 188.61Z" fill="#1E1D25"/>
<path d="M218.298 247.05C216.236 238.494 204.882 171.221 213.708 173.808C216.554 174.647 223.124 209.729 227.16 208.398C231.944 206.819 230.258 195.273 236.392 196.663C239.118 197.286 235.898 215.944 235.898 221.155C235.898 226.366 241.57 238.028 241.57 238.028L234.114 251.754L218.298 247.05Z" fill="white"/>
<path d="M234.118 252.314C234.064 252.314 234.01 252.304 233.958 252.288L218.138 247.588C218.044 247.558 217.958 247.506 217.892 247.434C217.824 247.364 217.776 247.276 217.752 247.18C216.774 243.144 213.78 226.244 211.77 209.778C209.166 188.403 209.188 176.283 211.838 173.758C212.098 173.497 212.424 173.314 212.782 173.227C213.14 173.141 213.514 173.156 213.864 173.269C215.264 173.682 216.608 177.96 219.568 188.372C221.9 196.573 224.802 206.756 226.778 207.828C226.908 207.895 226.966 207.877 226.99 207.868C228.854 207.249 229.68 204.675 230.442 202.187C231.464 198.927 232.626 195.232 236.518 196.12C238.562 196.568 238.366 201.617 237.11 213.482C236.764 216.751 236.464 219.571 236.464 221.154C236.464 226.194 242.024 237.67 242.082 237.786C242.124 237.864 242.146 237.952 242.146 238.042C242.146 238.13 242.124 238.218 242.082 238.296L234.622 252.018C234.572 252.108 234.5 252.184 234.412 252.236C234.322 252.288 234.222 252.316 234.118 252.314ZM218.77 246.606L233.84 251.09L240.952 238.014C240.092 236.22 235.348 226.074 235.348 221.154C235.348 219.513 235.652 216.67 235.998 213.361C236.384 209.774 236.814 205.666 236.894 202.46C237.046 197.452 236.284 197.219 236.254 197.21C233.562 196.6 232.666 198.81 231.496 202.519C230.63 205.281 229.734 208.133 227.326 208.931C227.146 208.988 226.956 209.007 226.77 208.988C226.582 208.968 226.4 208.911 226.236 208.819C223.994 207.63 221.712 200.075 218.47 188.681C216.72 182.52 214.538 174.852 213.538 174.332C213.378 174.276 213.206 174.268 213.042 174.309C212.878 174.35 212.728 174.437 212.614 174.561C207.322 179.596 216.124 235.244 218.77 246.606Z" fill="#1E1D25"/>
<path d="M215.362 206.995C215.228 206.994 215.096 206.945 214.994 206.856C214.892 206.767 214.826 206.644 214.806 206.51C214.806 206.362 212.726 191.516 212.384 185.884C212.156 182.171 212.99 179.44 214.556 178.768C215.33 178.432 216.174 178.669 216.868 179.409C216.962 179.519 217.01 179.661 217.002 179.805C216.994 179.95 216.93 180.085 216.824 180.184C216.718 180.282 216.578 180.336 216.434 180.333C216.29 180.331 216.152 180.273 216.048 180.171C215.68 179.781 215.33 179.656 215 179.799C214.102 180.176 213.282 182.22 213.502 185.817C213.842 191.404 215.896 206.205 215.918 206.358C215.938 206.506 215.9 206.656 215.81 206.775C215.72 206.895 215.586 206.974 215.438 206.995H215.362Z" fill="#1E1D25"/>
<path d="M298.94 228.288C295.914 220.024 268.09 157.732 262.17 164.777C260.266 167.05 274.224 199.909 270.134 201.03C265.278 202.375 260.27 191.82 255.952 196.376C254.024 198.402 267.032 212.137 269.928 216.491C272.824 220.845 274.582 233.682 274.582 233.682L288.398 240.97L298.94 228.288Z" fill="white"/>
<path d="M288.376 241.522C288.284 241.522 288.194 241.502 288.116 241.458L274.3 234.168C274.22 234.126 274.152 234.066 274.102 233.992C274.05 233.918 274.016 233.834 274.004 233.746C274.004 233.62 272.26 220.989 269.466 216.792C268.57 215.478 266.776 213.29 264.678 210.761C257.054 201.582 254.104 197.501 255.548 195.963C258.3 193.067 261.31 195.515 263.968 197.645C266 199.286 268.094 200.985 269.99 200.461C270.018 200.461 270.076 200.438 270.144 200.313C271.21 198.344 267.972 188.242 265.368 180.135C262.064 169.822 260.812 165.521 261.744 164.405C261.974 164.117 262.278 163.897 262.624 163.77C262.97 163.644 263.344 163.615 263.704 163.687C267.292 164.32 274.044 174.395 283.72 193.636C291.168 208.456 298.03 224.163 299.464 228.082C299.498 228.174 299.506 228.274 299.49 228.37C299.472 228.468 299.432 228.558 299.37 228.634L288.806 241.314C288.754 241.38 288.688 241.432 288.614 241.468C288.54 241.504 288.458 241.522 288.376 241.522ZM275.076 233.32L288.236 240.262L298.298 228.182C294.214 217.276 270.69 166.064 263.506 164.804C263.34 164.766 263.168 164.778 263.008 164.838C262.848 164.897 262.71 165.003 262.61 165.14C262.05 166.118 264.484 173.709 266.44 179.807C270.058 191.089 272.336 198.64 271.134 200.882C271.05 201.051 270.93 201.199 270.786 201.32C270.64 201.44 270.472 201.529 270.292 201.582C267.842 202.25 265.52 200.371 263.27 198.555C260.242 196.111 258.27 194.771 256.364 196.761C256.342 196.788 255.834 197.403 258.74 201.488C260.602 204.097 263.224 207.263 265.542 210.057C267.664 212.608 269.494 214.814 270.404 216.182C273.126 220.276 274.798 231.342 275.076 233.32Z" fill="#1E1D25"/>
<path d="M277.35 191.748C277.35 191.748 271.552 181.883 267.932 176.503C264.772 171.781 262.624 168.691 260.88 170.409C257.498 173.736 271.848 195.317 270.126 201.03L277.018 198.389L277.35 191.748Z" fill="white"/>
<path d="M270.138 201.614C270.014 201.613 269.892 201.571 269.794 201.494C269.696 201.418 269.626 201.31 269.596 201.19C269.566 201.069 269.576 200.941 269.628 200.827C269.678 200.713 269.764 200.619 269.874 200.56C271.668 199.596 267.892 191.592 265.126 185.763C261.05 177.158 258.7 171.804 260.498 170.037C260.704 169.814 260.96 169.641 261.244 169.532C261.526 169.422 261.832 169.379 262.134 169.405C263.888 169.584 265.664 172.095 268.412 176.221C272 181.557 277.774 191.381 277.828 191.466C277.904 191.595 277.926 191.748 277.888 191.892C277.85 192.036 277.758 192.16 277.63 192.235C277.5 192.311 277.348 192.332 277.204 192.295C277.058 192.257 276.936 192.164 276.86 192.036C276.802 191.937 271.03 182.14 267.476 176.83C265.44 173.786 263.336 170.643 262.018 170.508C261.88 170.497 261.74 170.52 261.612 170.574C261.484 170.629 261.37 170.714 261.282 170.822C259.938 172.167 263.368 179.427 266.134 185.269C269.896 193.211 273.142 200.067 270.398 201.537C270.32 201.584 270.23 201.61 270.138 201.614Z" fill="#1E1D25"/>
<path d="M310.454 111.767C310.454 111.767 328.314 135.084 342.816 140.465C342.816 140.465 353.946 120.502 339.578 108.53C325.212 96.5576 310.454 111.767 310.454 111.767Z" fill="#FFCB3D"/>
<path d="M342.824 141.021C342.758 141.02 342.694 141.008 342.632 140.985C328.14 135.605 310.75 113.064 310.02 112.108C309.938 112.002 309.896 111.87 309.904 111.736C309.912 111.601 309.966 111.474 310.06 111.378C310.212 111.221 325.356 95.9346 339.946 108.095C354.538 120.256 343.43 140.528 343.318 140.734C343.268 140.821 343.196 140.894 343.11 140.944C343.024 140.994 342.924 141.021 342.824 141.021ZM311.218 111.817C313.612 114.862 329.484 134.582 342.56 139.757C344.036 136.82 351.918 119.534 339.228 108.956C333.454 104.145 326.946 103.208 319.89 106.163C316.7 107.543 313.768 109.455 311.218 111.817Z" fill="#1E1D25"/>
<path d="M341.066 132.528C341.032 132.533 340.994 132.533 340.96 132.528C340.886 132.516 340.816 132.488 340.754 132.448C340.692 132.408 340.638 132.355 340.596 132.294C340.554 132.232 340.524 132.163 340.51 132.09C340.496 132.017 340.496 131.942 340.51 131.869C340.534 131.757 342.668 120.601 335.336 115.077C328.004 109.552 317.486 113.216 317.4 113.256C317.33 113.284 317.256 113.297 317.18 113.295C317.106 113.293 317.032 113.276 316.964 113.246C316.896 113.215 316.834 113.17 316.784 113.116C316.732 113.061 316.694 112.996 316.668 112.925C316.642 112.855 316.632 112.78 316.634 112.705C316.638 112.63 316.658 112.557 316.69 112.49C316.724 112.422 316.77 112.362 316.826 112.313C316.882 112.263 316.948 112.226 317.02 112.202C317.468 112.041 328.17 108.261 336.032 114.184C343.892 120.108 341.726 131.605 341.632 132.089C341.604 132.217 341.532 132.33 341.428 132.411C341.326 132.491 341.198 132.533 341.066 132.528Z" fill="#1E1D25"/>
<path d="M341.026 181.436C341.026 181.436 332.75 190.197 313.05 192.829C313.05 192.829 284.272 202.694 277.35 212.765C270.426 222.836 257.328 270.892 257.328 270.892L241.998 230.916C241.998 230.916 238.482 236.978 227.312 240.97C217.228 244.556 209.506 242.732 209.506 242.732C209.506 242.732 229.402 322.96 251.172 327.614C265.968 330.78 281.444 314.544 281.444 314.544V345.998H374.028C374.028 345.998 365.608 256.968 360.464 229.796C354.496 198.336 341.026 181.436 341.026 181.436Z" fill="white"/>
<path d="M374.028 346.558C373.888 346.56 373.754 346.508 373.65 346.414C373.546 346.32 373.482 346.192 373.468 346.052C373.388 345.156 365.002 256.74 359.912 229.916C354.59 201.859 343.188 185.269 340.946 182.26C338.928 184.13 330.444 191.031 313.168 193.353C311.79 193.833 284.402 203.442 277.798 213.06C271.008 222.952 257.982 270.56 257.852 271.04C257.822 271.152 257.756 271.254 257.664 271.328C257.572 271.402 257.46 271.446 257.342 271.452C257.224 271.456 257.106 271.426 257.008 271.36C256.91 271.296 256.832 271.202 256.79 271.092L241.85 232.104C240.4 233.978 236.284 238.382 227.5 241.52C219.236 244.472 212.6 243.84 210.268 243.466C212.484 252.072 231.298 322.834 251.288 327.094C265.596 330.156 280.882 314.35 281.034 314.188C281.112 314.108 281.212 314.052 281.322 314.028C281.43 314.004 281.546 314.012 281.65 314.054C281.754 314.096 281.842 314.168 281.906 314.26C281.968 314.352 282.002 314.462 282.004 314.574V345.998C282.004 346.146 281.944 346.29 281.84 346.394C281.734 346.5 281.592 346.558 281.442 346.558C281.294 346.558 281.152 346.5 281.046 346.394C280.942 346.29 280.882 346.146 280.882 345.998V315.902C277.228 319.408 264.028 330.946 251.054 328.17C241.85 326.192 231.934 311.206 221.672 283.626C214.048 263.192 209.036 243.068 208.986 242.866C208.962 242.774 208.962 242.676 208.988 242.582C209.012 242.49 209.062 242.404 209.13 242.336C209.198 242.268 209.282 242.218 209.374 242.192C209.466 242.166 209.564 242.162 209.658 242.184C209.734 242.184 217.354 243.938 227.146 240.444C237.962 236.58 241.494 230.692 241.54 230.634C241.592 230.542 241.67 230.466 241.764 230.418C241.858 230.368 241.964 230.346 242.068 230.356C242.174 230.364 242.276 230.402 242.36 230.466C242.446 230.53 242.51 230.616 242.548 230.714L257.266 269.098C259.664 260.438 270.658 221.535 276.914 212.428C283.864 202.308 311.71 192.699 312.894 192.277L313.002 192.25C332.242 189.676 340.564 181.112 340.646 181.04C340.702 180.98 340.772 180.934 340.85 180.903C340.928 180.873 341.01 180.86 341.094 180.865C341.174 180.87 341.252 180.891 341.324 180.927C341.396 180.963 341.46 181.014 341.51 181.076C341.646 181.246 355.134 198.47 361.056 229.706C366.16 256.61 374.544 345.07 374.63 345.962C374.644 346.11 374.598 346.256 374.504 346.37C374.41 346.486 374.274 346.558 374.128 346.572L374.028 346.558Z" fill="#1E1D25"/>
<path d="M254.686 280.846C254.636 280.844 254.584 280.838 254.534 280.824C254.392 280.782 254.272 280.688 254.198 280.558C254.126 280.428 254.108 280.276 254.148 280.132L256.786 270.716C256.826 270.574 256.924 270.452 257.054 270.38C257.184 270.308 257.336 270.29 257.48 270.33C257.552 270.35 257.618 270.384 257.676 270.43C257.734 270.474 257.782 270.532 257.818 270.596C257.854 270.66 257.876 270.73 257.884 270.804C257.892 270.876 257.886 270.95 257.866 271.022L255.224 280.41C255.196 280.534 255.128 280.642 255.03 280.722C254.934 280.8 254.812 280.844 254.686 280.846ZM281.442 315.112C281.332 315.112 281.222 315.08 281.128 315.018C281.036 314.954 280.964 314.866 280.922 314.762C280.88 314.658 280.87 314.544 280.894 314.436C280.916 314.326 280.972 314.226 281.052 314.148C286.59 308.834 317.018 270.922 317.324 270.542C317.368 270.48 317.424 270.428 317.49 270.39C317.556 270.35 317.628 270.326 317.702 270.316C317.778 270.306 317.854 270.31 317.928 270.33C318 270.35 318.068 270.386 318.128 270.432C318.186 270.48 318.236 270.54 318.272 270.606C318.308 270.672 318.33 270.746 318.336 270.822C318.342 270.898 318.334 270.974 318.31 271.046C318.286 271.118 318.248 271.184 318.198 271.242C316.948 272.806 287.42 309.592 281.828 314.96C281.724 315.06 281.586 315.114 281.442 315.112Z" fill="#1E1D25"/>
<path d="M281.438 330.178C281.296 330.176 281.16 330.12 281.058 330.022C280.956 329.924 280.894 329.792 280.886 329.65C280.878 329.508 280.924 329.368 281.016 329.26C281.106 329.15 281.234 329.08 281.376 329.062C281.604 329.036 304.468 326.098 317.526 307.136C327.332 292.89 329.242 273.442 323.202 249.336C317.244 225.572 309.472 213.832 304.002 208.182C298.11 202.102 293.572 201.591 293.522 201.586C293.384 201.561 293.262 201.485 293.176 201.374C293.092 201.262 293.052 201.122 293.064 200.983C293.078 200.843 293.142 200.713 293.246 200.619C293.35 200.525 293.486 200.473 293.626 200.474C293.824 200.474 298.532 200.981 304.692 207.285C310.294 213.02 318.238 224.921 324.288 249.062C330.412 273.506 328.444 293.262 318.458 307.78C305.074 327.166 281.756 330.148 281.506 330.178H281.438ZM351.608 264.354C349.966 264.37 348.336 264.046 346.824 263.404C339.852 260.404 335.202 249.862 329.054 231.45C318.472 199.77 306.086 195.995 305.966 195.959C305.83 195.914 305.716 195.819 305.648 195.693C305.58 195.566 305.564 195.419 305.6 195.281C305.638 195.142 305.726 195.024 305.848 194.949C305.972 194.874 306.118 194.849 306.258 194.878C306.786 195.022 319.306 198.726 330.116 231.096C336.162 249.194 340.686 259.542 347.268 262.372C351.304 264.116 356.38 263.242 364.724 259.358C364.792 259.32 364.866 259.296 364.944 259.288C365.02 259.28 365.098 259.288 365.172 259.312C365.246 259.336 365.314 259.374 365.372 259.426C365.43 259.478 365.476 259.54 365.508 259.61C365.542 259.68 365.558 259.756 365.56 259.834C365.562 259.912 365.548 259.988 365.518 260.06C365.49 260.132 365.446 260.196 365.39 260.25C365.334 260.304 365.268 260.344 365.196 260.372C359.416 263.066 355.124 264.354 351.608 264.354ZM302.384 200.071C302.256 200.07 302.132 200.026 302.034 199.945C300.746 198.905 299.94 198.344 299.93 198.34C299.87 198.298 299.818 198.245 299.778 198.183C299.738 198.121 299.71 198.052 299.698 197.979C299.684 197.907 299.686 197.833 299.7 197.761C299.716 197.689 299.746 197.62 299.788 197.56C299.828 197.499 299.882 197.447 299.944 197.407C300.006 197.367 300.076 197.34 300.148 197.326C300.22 197.313 300.294 197.314 300.366 197.329C300.438 197.345 300.506 197.374 300.568 197.416C300.604 197.439 301.414 198.003 302.738 199.075C302.796 199.121 302.842 199.178 302.878 199.243C302.914 199.308 302.936 199.379 302.944 199.452C302.952 199.525 302.946 199.6 302.924 199.67C302.904 199.741 302.87 199.807 302.822 199.864C302.77 199.929 302.702 199.981 302.626 200.017C302.55 200.052 302.468 200.071 302.384 200.071Z" fill="#1E1D25"/>
<path d="M352.72 270.152C352.578 270.15 352.442 270.094 352.34 269.996C352.238 269.898 352.176 269.764 352.168 269.622C352.16 269.48 352.206 269.342 352.298 269.232C352.388 269.124 352.518 269.052 352.658 269.034C354.41 268.816 356.14 268.438 357.824 267.904C357.894 267.882 357.968 267.874 358.042 267.882C358.114 267.888 358.186 267.908 358.252 267.942C358.318 267.976 358.376 268.024 358.422 268.08C358.47 268.136 358.506 268.202 358.528 268.272C358.57 268.416 358.554 268.568 358.484 268.7C358.416 268.832 358.298 268.932 358.156 268.976C356.4 269.528 354.6 269.92 352.774 270.146L352.72 270.152ZM347.34 270.106H347.26C345.424 269.836 343.644 269.268 341.99 268.426C341.858 268.358 341.758 268.24 341.712 268.098C341.666 267.956 341.678 267.802 341.746 267.67C341.814 267.536 341.932 267.436 342.074 267.39C342.214 267.346 342.37 267.358 342.502 267.426C344.048 268.22 345.714 268.752 347.434 269.004C347.57 269.028 347.694 269.102 347.778 269.212C347.864 269.322 347.904 269.46 347.894 269.598C347.884 269.736 347.822 269.866 347.722 269.962C347.62 270.058 347.488 270.112 347.348 270.116L347.34 270.106ZM337.924 265.318C337.852 265.318 337.78 265.304 337.712 265.276C337.646 265.248 337.584 265.208 337.534 265.156C336.222 263.864 335.052 262.438 334.04 260.9C333.958 260.778 333.928 260.626 333.956 260.48C333.986 260.334 334.072 260.206 334.196 260.122C334.318 260.04 334.47 260.01 334.616 260.04C334.762 260.068 334.89 260.154 334.972 260.278C335.94 261.75 337.06 263.116 338.314 264.354C338.418 264.46 338.476 264.602 338.476 264.75C338.476 264.898 338.418 265.042 338.314 265.148C338.262 265.202 338.198 265.244 338.13 265.274C338.06 265.304 337.986 265.318 337.91 265.318H337.924ZM331.848 256.458C331.742 256.458 331.638 256.428 331.548 256.372C331.458 256.314 331.386 256.234 331.34 256.138C330.602 254.614 329.892 252.978 329.184 251.134C329.158 251.066 329.144 250.992 329.146 250.918C329.148 250.844 329.166 250.772 329.196 250.704C329.226 250.638 329.268 250.576 329.322 250.526C329.376 250.474 329.438 250.434 329.506 250.408C329.576 250.382 329.65 250.37 329.724 250.372C329.796 250.372 329.87 250.39 329.938 250.42C330.004 250.45 330.066 250.492 330.116 250.546C330.168 250.6 330.206 250.662 330.234 250.732C330.928 252.524 331.624 254.152 332.35 255.664C332.382 255.73 332.4 255.802 332.404 255.876C332.41 255.948 332.4 256.022 332.374 256.092C332.35 256.162 332.314 256.226 332.264 256.28C332.216 256.336 332.156 256.38 332.09 256.412C332.01 256.448 331.922 256.464 331.834 256.458H331.848ZM327.916 246.396C327.796 246.396 327.682 246.36 327.586 246.29C327.49 246.22 327.418 246.122 327.382 246.01C326.884 244.48 326.378 242.834 325.79 240.826C325.748 240.684 325.764 240.53 325.834 240.398C325.906 240.268 326.026 240.17 326.168 240.128C326.312 240.086 326.464 240.102 326.596 240.174C326.726 240.244 326.824 240.364 326.866 240.508C327.454 242.508 327.956 244.144 328.448 245.66C328.494 245.802 328.482 245.956 328.414 246.088C328.348 246.22 328.232 246.322 328.09 246.368C328.03 246.388 327.966 246.396 327.902 246.396H327.916ZM324.804 236.038C324.682 236.038 324.562 235.998 324.466 235.924C324.368 235.85 324.298 235.746 324.266 235.63C323.7 233.67 323.224 232.042 322.74 230.45C322.716 230.378 322.708 230.304 322.712 230.23C322.718 230.154 322.74 230.082 322.774 230.014C322.808 229.948 322.854 229.89 322.912 229.842C322.97 229.794 323.036 229.758 323.108 229.736C323.18 229.714 323.256 229.706 323.33 229.714C323.404 229.722 323.476 229.744 323.542 229.78C323.608 229.816 323.666 229.866 323.712 229.924C323.758 229.982 323.792 230.05 323.812 230.122C324.302 231.714 324.776 233.352 325.342 235.32C325.362 235.39 325.368 235.464 325.36 235.538C325.352 235.612 325.328 235.682 325.294 235.748C325.258 235.812 325.208 235.868 325.152 235.914C325.094 235.96 325.026 235.994 324.956 236.014C324.906 236.028 324.854 236.036 324.804 236.038ZM321.574 225.724C321.46 225.724 321.348 225.688 321.254 225.622C321.158 225.556 321.086 225.464 321.046 225.356C320.57 224.061 320.114 222.931 319.642 221.899C319.418 221.41 319.194 220.926 318.948 220.446C318.88 220.313 318.87 220.159 318.916 220.018C318.964 219.876 319.066 219.76 319.198 219.693C319.332 219.626 319.486 219.616 319.626 219.663C319.768 219.71 319.884 219.811 319.952 219.944C320.194 220.437 320.432 220.931 320.66 221.437C321.144 222.491 321.616 223.648 322.1 224.971C322.15 225.11 322.144 225.264 322.082 225.398C322.02 225.532 321.906 225.636 321.768 225.688C321.71 225.708 321.65 225.718 321.588 225.72L321.574 225.724ZM316.804 216.052C316.714 216.049 316.626 216.023 316.548 215.978C316.468 215.933 316.404 215.869 316.356 215.792C315.422 214.326 314.392 212.85 313.284 211.416C313.238 211.357 313.206 211.29 313.186 211.218C313.168 211.146 313.162 211.072 313.172 210.998C313.182 210.925 313.206 210.854 313.244 210.79C313.28 210.725 313.33 210.669 313.39 210.624C313.448 210.579 313.516 210.546 313.586 210.527C313.658 210.508 313.734 210.503 313.806 210.513C313.88 210.523 313.952 210.547 314.016 210.584C314.08 210.621 314.136 210.671 314.18 210.73C315.306 212.196 316.36 213.693 317.32 215.191C317.36 215.253 317.386 215.323 317.398 215.396C317.412 215.469 317.41 215.543 317.394 215.615C317.378 215.687 317.346 215.756 317.304 215.816C317.262 215.876 317.208 215.928 317.144 215.967C317.044 216.031 316.924 216.061 316.804 216.052ZM310.24 207.492C310.16 207.492 310.084 207.475 310.012 207.444C309.94 207.412 309.876 207.366 309.822 207.308C308.634 205.999 307.374 204.712 306.074 203.479C305.974 203.375 305.92 203.236 305.918 203.093C305.918 202.949 305.974 202.81 306.074 202.706C306.172 202.602 306.308 202.54 306.452 202.533C306.594 202.525 306.736 202.574 306.844 202.667C308.168 203.918 309.446 205.223 310.652 206.555C310.702 206.609 310.74 206.673 310.766 206.742C310.79 206.812 310.802 206.885 310.798 206.959C310.796 207.033 310.778 207.105 310.746 207.172C310.714 207.239 310.67 207.299 310.616 207.349C310.512 207.44 310.378 207.491 310.24 207.492ZM363.056 267.054C362.93 267.052 362.808 267.008 362.708 266.928C362.61 266.848 362.542 266.736 362.516 266.612C362.488 266.488 362.504 266.358 362.56 266.246C362.616 266.132 362.708 266.04 362.824 265.986C363.604 265.632 364.41 265.242 365.226 264.824C365.292 264.79 365.364 264.77 365.438 264.764C365.512 264.758 365.586 264.768 365.656 264.79C365.726 264.812 365.792 264.85 365.848 264.898C365.904 264.946 365.95 265.004 365.982 265.07C366.016 265.136 366.036 265.208 366.042 265.282C366.048 265.354 366.038 265.428 366.016 265.498C365.992 265.57 365.956 265.634 365.906 265.69C365.858 265.746 365.8 265.792 365.734 265.824C364.904 266.246 364.084 266.644 363.286 267.004C363.214 267.038 363.136 267.054 363.056 267.054ZM281.438 335.986C281.296 335.988 281.158 335.934 281.052 335.836C280.948 335.74 280.884 335.606 280.874 335.464C280.864 335.32 280.91 335.18 281 335.07C281.09 334.958 281.22 334.888 281.362 334.87H281.438C282.528 334.838 283.614 334.736 284.69 334.568C284.838 334.548 284.986 334.586 285.106 334.676C285.224 334.766 285.304 334.898 285.324 335.046C285.344 335.194 285.306 335.344 285.216 335.462C285.128 335.582 284.994 335.66 284.846 335.68C283.722 335.854 282.588 335.958 281.452 335.99L281.438 335.986ZM290.038 334.592C289.902 334.592 289.77 334.542 289.668 334.452C289.564 334.362 289.498 334.238 289.48 334.102C289.462 333.968 289.496 333.83 289.572 333.716C289.648 333.604 289.764 333.522 289.896 333.488C291.578 333.04 293.28 332.492 294.966 331.864C295.036 331.838 295.11 331.826 295.182 331.83C295.256 331.832 295.328 331.848 295.396 331.878C295.532 331.94 295.636 332.054 295.688 332.192C295.74 332.332 295.734 332.486 295.672 332.622C295.61 332.756 295.496 332.862 295.358 332.914C293.64 333.556 291.9 334.116 290.182 334.568C290.136 334.582 290.088 334.59 290.038 334.592ZM300.106 330.834C300 330.834 299.898 330.804 299.808 330.748C299.72 330.69 299.648 330.61 299.604 330.516C299.572 330.448 299.552 330.376 299.548 330.304C299.544 330.23 299.554 330.156 299.578 330.086C299.602 330.018 299.64 329.954 299.688 329.898C299.738 329.844 299.798 329.798 299.864 329.766C301.446 329.004 303.002 328.152 304.558 327.242C304.622 327.204 304.692 327.18 304.764 327.168C304.838 327.158 304.912 327.162 304.984 327.18C305.054 327.198 305.122 327.23 305.18 327.274C305.24 327.318 305.29 327.374 305.328 327.436C305.364 327.5 305.39 327.57 305.4 327.644C305.41 327.716 305.408 327.79 305.388 327.862C305.37 327.934 305.338 328 305.294 328.06C305.25 328.118 305.196 328.168 305.132 328.206C303.568 329.134 301.962 330 300.352 330.776C300.276 330.814 300.192 330.834 300.106 330.834ZM309.352 325.372C309.232 325.372 309.118 325.334 309.022 325.264C308.926 325.194 308.854 325.094 308.818 324.98C308.782 324.868 308.784 324.746 308.822 324.634C308.86 324.52 308.932 324.422 309.028 324.354C310.46 323.336 311.88 322.242 313.252 321.094C313.368 321.004 313.512 320.96 313.658 320.976C313.804 320.99 313.938 321.062 314.032 321.174C314.126 321.286 314.172 321.432 314.16 321.578C314.148 321.724 314.08 321.858 313.97 321.956C312.576 323.122 311.132 324.234 309.678 325.268C309.582 325.336 309.468 325.37 309.352 325.372ZM317.63 318.466C317.518 318.466 317.408 318.434 317.316 318.372C317.222 318.308 317.15 318.22 317.108 318.116C317.066 318.012 317.056 317.898 317.08 317.79C317.102 317.68 317.158 317.58 317.238 317.502C318.534 316.248 319.776 314.952 320.93 313.65C320.978 313.596 321.038 313.55 321.104 313.518C321.17 313.486 321.242 313.468 321.316 313.464C321.388 313.458 321.462 313.47 321.532 313.494C321.602 313.518 321.666 313.554 321.72 313.604C321.776 313.652 321.82 313.712 321.852 313.778C321.884 313.844 321.904 313.916 321.908 313.99C321.912 314.064 321.902 314.136 321.878 314.206C321.854 314.276 321.816 314.34 321.768 314.396C320.598 315.74 319.338 317.032 318.02 318.31C317.914 318.41 317.774 318.466 317.63 318.466ZM324.736 310.396C324.632 310.394 324.532 310.364 324.444 310.308C324.356 310.254 324.286 310.176 324.24 310.084C324.194 309.99 324.174 309.888 324.182 309.784C324.19 309.682 324.228 309.582 324.288 309.498C325.354 308.06 326.35 306.57 327.248 305.078C327.324 304.95 327.448 304.858 327.592 304.82C327.736 304.784 327.888 304.806 328.016 304.882C328.144 304.958 328.236 305.082 328.274 305.226C328.31 305.37 328.288 305.524 328.212 305.652C327.314 307.176 326.278 308.696 325.19 310.166C325.136 310.244 325.066 310.306 324.984 310.348C324.902 310.39 324.81 310.41 324.718 310.408L324.736 310.396ZM330.248 301.176C330.152 301.178 330.058 301.154 329.976 301.11C329.892 301.064 329.822 300.998 329.772 300.918C329.72 300.838 329.692 300.746 329.686 300.652C329.68 300.558 329.7 300.464 329.74 300.378C330.488 298.77 331.148 297.124 331.718 295.446C331.766 295.304 331.866 295.188 332 295.122C332.134 295.056 332.288 295.046 332.428 295.094C332.57 295.142 332.686 295.242 332.752 295.376C332.818 295.51 332.828 295.664 332.78 295.804C332.196 297.522 331.522 299.208 330.758 300.854C330.714 300.956 330.638 301.042 330.544 301.102C330.45 301.162 330.34 301.192 330.23 301.19L330.248 301.176ZM333.69 291.006H333.57C333.496 290.994 333.424 290.966 333.362 290.926C333.298 290.884 333.244 290.83 333.202 290.768C333.16 290.706 333.132 290.636 333.118 290.562C333.104 290.488 333.106 290.412 333.122 290.338C333.498 288.606 333.786 286.854 333.982 285.092C333.99 285.018 334.012 284.948 334.048 284.884C334.084 284.818 334.132 284.762 334.188 284.716C334.246 284.668 334.312 284.634 334.382 284.614C334.454 284.594 334.528 284.586 334.602 284.594C334.674 284.602 334.746 284.624 334.81 284.66C334.874 284.696 334.932 284.744 334.978 284.8C335.024 284.858 335.058 284.924 335.08 284.994C335.1 285.066 335.106 285.14 335.098 285.214C334.892 287.02 334.592 288.816 334.202 290.594C334.172 290.712 334.104 290.818 334.008 290.896C333.914 290.972 333.796 291.016 333.672 291.02L333.69 291.006ZM334.896 280.33C334.824 280.328 334.75 280.314 334.684 280.284C334.616 280.254 334.554 280.212 334.504 280.16C334.452 280.106 334.412 280.044 334.384 279.976C334.358 279.908 334.344 279.834 334.346 279.76C334.346 279.442 334.346 279.12 334.346 278.806C334.346 277.384 334.296 275.954 334.202 274.43C334.192 274.354 334.198 274.276 334.22 274.202C334.24 274.13 334.276 274.06 334.326 274.002C334.374 273.942 334.434 273.894 334.502 273.86C334.572 273.824 334.646 273.804 334.722 273.8C334.798 273.794 334.876 273.804 334.948 273.83C335.02 273.856 335.086 273.896 335.142 273.95C335.196 274.002 335.242 274.064 335.272 274.134C335.302 274.206 335.318 274.28 335.318 274.358C335.418 275.904 335.466 277.362 335.466 278.806C335.466 279.128 335.466 279.452 335.466 279.778C335.468 279.854 335.452 279.93 335.422 280C335.394 280.072 335.35 280.134 335.294 280.188C335.24 280.24 335.174 280.282 335.102 280.308C335.032 280.336 334.956 280.348 334.88 280.344L334.896 280.33ZM334.26 269.596C334.124 269.596 333.99 269.546 333.888 269.456C333.786 269.364 333.72 269.238 333.704 269.102C333.602 268.232 333.498 267.408 333.4 266.614C333.27 265.592 333.152 264.636 333.058 263.752C333.046 263.678 333.048 263.6 333.066 263.526C333.084 263.45 333.116 263.38 333.162 263.32C333.208 263.258 333.266 263.206 333.334 263.168C333.4 263.13 333.474 263.106 333.55 263.098C333.626 263.09 333.704 263.098 333.776 263.12C333.85 263.144 333.918 263.18 333.976 263.23C334.034 263.28 334.082 263.342 334.114 263.41C334.148 263.48 334.168 263.556 334.17 263.632C334.264 264.528 334.386 265.462 334.512 266.474C334.61 267.27 334.712 268.102 334.816 268.972C334.832 269.12 334.79 269.268 334.698 269.384C334.606 269.5 334.47 269.574 334.324 269.59L334.26 269.596ZM314.14 275.586L281.438 319.852V314.556L314.14 275.586ZM255.704 266.668L257.328 270.892L254.686 280.286L255.704 266.668ZM60.3057 289.046V290.566H79.8157L79.6991 289.046H60.3057ZM239.352 225.558L236.988 226.652C236.988 226.652 235.814 223.155 235.904 221.155C235.994 219.155 237.248 206.434 237.248 206.434C237.248 206.434 237.294 220.262 237.638 221.733C237.99 223.096 238.568 224.389 239.352 225.558ZM258.4 201.981L266.888 212.564L265.09 213.407L258.4 201.981Z" fill="#1E1D25"/>
</svg>
