<svg width="387" height="314" viewBox="0 0 387 314" fill="none" xmlns="http://www.w3.org/2000/svg">
<path d="M16.3 1H303C311.4 1 318.3 7.8 318.3 16.3V297.3C318.3 305.7 311.5 312.6 303 312.6H16.3C7.89999 312.6 1 305.8 1 297.3V16.3C1 7.8 7.89999 1 16.3 1Z" fill="white" stroke="#C5C5C5" stroke-miterlimit="10" stroke-linecap="round" stroke-linejoin="round"/>
<path d="M16.6 1H302.8C311.4 1 318.4 8 318.4 16.6V21.7H1V16.6C1 8 7.99998 1 16.6 1Z" fill="white" stroke="#C5C5C5" stroke-miterlimit="10" stroke-linecap="round" stroke-linejoin="round"/>
<path d="M23.8 15.1001C25.7 15.1001 27.3 13.5001 27.3 11.6001C27.3 9.7001 25.7 8.1001 23.8 8.1001C21.9 8.1001 20.3 9.7001 20.3 11.6001C20.3 13.5001 21.9 15.1001 23.8 15.1001Z" fill="#DE5B39"/>
<path d="M35.5 15.1001C37.4 15.1001 39 13.5001 39 11.6001C39 9.7001 37.4 8.1001 35.5 8.1001C33.6 8.1001 32 9.7001 32 11.6001C32.1 13.5001 33.6 15.1001 35.5 15.1001Z" fill="#FBC83D"/>
<path d="M47.3 15.1001C49.2 15.1001 50.8 13.5001 50.8 11.6001C50.8 9.7001 49.2 8.1001 47.3 8.1001C45.4 8.1001 43.8 9.7001 43.8 11.6001C43.8 13.5001 45.3 15.1001 47.3 15.1001Z" fill="#7EA547"/>
<path d="M21.7 34.7H144C149.8 34.7 154.5 39.4 154.5 45.2V138.7C154.5 144.5 149.8 149.2 144 149.2H21.7C15.9 149.2 11.2 144.5 11.2 138.7V45.2C11.2 39.4 15.9 34.7 21.7 34.7Z" fill="#F7F7F7"/>
<path d="M21.7 159.7H144C149.8 159.7 154.5 164.4 154.5 170.2V190.5C154.5 196.3 149.8 201 144 201H21.7C15.9 201 11.2 196.3 11.2 190.5V170.2C11.2 164.3 15.9 159.7 21.7 159.7Z" fill="#F7F7F7"/>
<path d="M175.4 34.7H297.7C303.5 34.7 308.2 39.4 308.2 45.2V138.7C308.2 144.5 303.5 149.2 297.7 149.2H175.4C169.6 149.2 164.9 144.5 164.9 138.7V45.2C164.9 39.4 169.6 34.7 175.4 34.7Z" fill="#F7F7F7"/>
<path d="M175.4 159.7H297.7C303.5 159.7 308.2 164.4 308.2 170.2V190.5C308.2 196.3 303.5 201 297.7 201H175.4C169.6 201 164.9 196.3 164.9 190.5V170.2C164.9 164.3 169.6 159.7 175.4 159.7Z" fill="#F7F7F7"/>
<path d="M21.7 214.6H67.2C73 214.6 77.7 219.3 77.7 225.1V245.4C77.7 251.2 73 255.9 67.2 255.9H21.7C15.9 255.9 11.2 251.2 11.2 245.4V225.1C11.2 219.3 15.9 214.6 21.7 214.6Z" fill="#F7F7F7"/>
<path d="M16.0999 263.7H72.7C75.4 263.7 77.5999 265.9 77.5999 268.6C77.5999 271.3 75.4 273.5 72.7 273.5H16.0999C13.3999 273.5 11.2 271.3 11.2 268.6C11.2 265.8 13.3999 263.7 16.0999 263.7Z" fill="#F7F7F7"/>
<path d="M16.0999 279.3H72.7C75.4 279.3 77.5999 281.5 77.5999 284.2C77.5999 286.9 75.4 289.1 72.7 289.1H16.0999C13.3999 289.1 11.2 286.9 11.2 284.2C11.2 281.5 13.3999 279.3 16.0999 279.3Z" fill="#F7F7F7"/>
<path d="M98.5 214.6H144C149.8 214.6 154.5 219.3 154.5 225.1V245.4C154.5 251.2 149.8 255.9 144 255.9H98.5C92.7 255.9 88 251.2 88 245.4V225.1C88.1 219.3 92.7 214.6 98.5 214.6Z" fill="#F7F7F7"/>
<path d="M93.0001 263.7H149.6C152.3 263.7 154.5 265.9 154.5 268.6C154.5 271.3 152.3 273.5 149.6 273.5H93.0001C90.3001 273.5 88.1001 271.3 88.1001 268.6C88.1001 265.8 90.3001 263.7 93.0001 263.7Z" fill="#F7F7F7"/>
<path d="M93.0001 279.3H149.6C152.3 279.3 154.5 281.5 154.5 284.2C154.5 286.9 152.3 289.1 149.6 289.1H93.0001C90.3001 289.1 88.1001 286.9 88.1001 284.2C88.1001 281.5 90.3001 279.3 93.0001 279.3Z" fill="#F7F7F7"/>
<path d="M175.4 214.6H220.9C226.7 214.6 231.4 219.3 231.4 225.1V245.4C231.4 251.2 226.7 255.9 220.9 255.9H175.4C169.6 255.9 164.9 251.2 164.9 245.4V225.1C164.9 219.3 169.6 214.6 175.4 214.6Z" fill="#F7F7F7"/>
<path d="M169.8 263.7H226.4C229.1 263.7 231.3 265.9 231.3 268.6C231.3 271.3 229.1 273.5 226.4 273.5H169.8C167.1 273.5 164.9 271.3 164.9 268.6C164.9 265.8 167.1 263.7 169.8 263.7Z" fill="#F7F7F7"/>
<path d="M169.8 279.3H226.4C229.1 279.3 231.3 281.5 231.3 284.2C231.3 286.9 229.1 289.1 226.4 289.1H169.8C167.1 289.1 164.9 286.9 164.9 284.2C164.9 281.5 167.1 279.3 169.8 279.3Z" fill="#F7F7F7"/>
<path d="M252.2 214.6H297.7C303.5 214.6 308.2 219.3 308.2 225.1V245.4C308.2 251.2 303.5 255.9 297.7 255.9H252.2C246.4 255.9 241.7 251.2 241.7 245.4V225.1C241.8 219.3 246.5 214.6 252.2 214.6Z" fill="#F7F7F7"/>
<path d="M246.7 263.7H303.3C306 263.7 308.2 265.9 308.2 268.6C308.2 271.3 306 273.5 303.3 273.5H246.7C244 273.5 241.8 271.3 241.8 268.6C241.8 265.8 244 263.7 246.7 263.7Z" fill="#F7F7F7"/>
<path d="M246.7 279.3H303.3C306 279.3 308.2 281.5 308.2 284.2C308.2 286.9 306 289.1 303.3 289.1H246.7C244 289.1 241.8 286.9 241.8 284.2C241.8 281.5 244 279.3 246.7 279.3Z" fill="#F7F7F7"/>
<path d="M127.7 63H380.8C384 63 386.5 65.6 386.5 68.7V173.4C386.5 176.6 383.9 179.1 380.8 179.1H127.7C124.5 179.1 122 176.5 122 173.4V68.7C122 65.6 124.6 63 127.7 63Z" fill="white" stroke="#C5C5C5" stroke-miterlimit="10" stroke-linecap="round" stroke-linejoin="round"/>
<path d="M185.8 77.7H188.6C190.9 77.7 192.2 79.1 192.2 81.6C192.2 84.1 190.9 85.4999 188.6 85.4999H185.8V77.7ZM188.5 84.4C190.1 84.4 191.1 83.4 191.1 81.6C191.1 79.8 190.1 78.7999 188.5 78.7999H187V84.4999H188.5V84.4Z" fill="black"/>
<path d="M193.5 82.6001C193.5 80.7001 194.6 79.6001 196.3 79.6001C198 79.6001 199.1 80.7001 199.1 82.6001C199.1 84.5001 198.1 85.6001 196.3 85.6001C194.5 85.6001 193.5 84.4001 193.5 82.6001ZM197.8 82.6001C197.8 81.3001 197.2 80.5001 196.2 80.5001C195.2 80.5001 194.6 81.3001 194.6 82.6001C194.6 83.9001 195.2 84.7001 196.2 84.7001C197.2 84.6001 197.8 83.8001 197.8 82.6001Z" fill="black"/>
<path d="M200.4 79.6H201.6V80.5H201.7C202 79.9 202.5 79.5 203.4 79.5C204.7 79.5 205.4 80.3 205.4 81.7V85.5H204.2V82C204.2 81 203.8 80.6 202.9 80.6C202 80.6 201.5 81.2 201.5 82.1V85.5H200.3V79.6H200.4Z" fill="black"/>
<path d="M207.2 77.7H208.4L208.3 80.9H207.4L207.2 77.7Z" fill="black"/>
<path d="M210.8 83.9001V80.5001H209.9V79.6001H210.8V78.1001H212V79.6001H213.3V80.5001H212V83.6001C212 84.2001 212.2 84.5001 212.8 84.5001C213 84.5001 213.1 84.5001 213.2 84.5001V85.4001C213 85.4001 212.8 85.5001 212.6 85.5001C211.3 85.5001 210.8 85.1001 210.8 83.9001Z" fill="black"/>
<path d="M218 80.6002H217V79.7001H218V79.1002C218 77.9002 218.6 77.4001 219.8 77.4001C220.1 77.4001 220.3 77.4001 220.5 77.5001V78.4002C220.4 78.4002 220.2 78.4002 220.1 78.4002C219.5 78.4002 219.2 78.7001 219.2 79.3001V79.9002H220.5V80.8001H219.2V85.7001H218V80.6002Z" fill="black"/>
<path d="M221.2 82.6001C221.2 80.7001 222.3 79.6001 224 79.6001C225.7 79.6001 226.8 80.7001 226.8 82.6001C226.8 84.5001 225.8 85.6001 224 85.6001C222.3 85.6001 221.2 84.4001 221.2 82.6001ZM225.6 82.6001C225.6 81.3001 225 80.5001 224 80.5001C223 80.5001 222.4 81.3001 222.4 82.6001C222.4 83.9001 223 84.7001 224 84.7001C225 84.6001 225.6 83.8001 225.6 82.6001Z" fill="black"/>
<path d="M228.1 79.6H229.3V80.5H229.4C229.6 79.9 230.2 79.5 230.9 79.5C231.1 79.5 231.3 79.5 231.4 79.6V80.7C231.2 80.7 231 80.6 230.8 80.6C229.9 80.6 229.3 81.1 229.3 82V85.5H228.1V79.6Z" fill="black"/>
<path d="M232.3 85.9H233.5C233.6 86.3 234.1 86.6 234.9 86.6C235.9 86.6 236.4 86.1 236.4 85.4V84.3H236.3C235.9 84.9 235.3 85.3 234.5 85.3C233 85.3 232.1 84.1 232.1 82.5C232.1 80.8 233 79.7 234.5 79.7C235.3 79.7 236 80.1 236.3 80.8H236.4V79.8H237.6V85.5C237.6 86.8 236.6 87.7 234.9 87.7C233.4 87.5 232.4 86.9 232.3 85.9ZM236.4 82.4C236.4 81.3 235.8 80.5 234.8 80.5C233.8 80.5 233.2 81.3 233.2 82.3C233.2 83.4 233.8 84.1 234.8 84.1C235.8 84.2 236.4 83.5 236.4 82.4Z" fill="black"/>
<path d="M238.9 82.6001C238.9 80.8001 240 79.6001 241.6 79.6001C243.2 79.6001 244.2 80.8001 244.2 82.5001V82.9001H240.1C240.1 84.0001 240.7 84.7001 241.7 84.7001C242.4 84.7001 242.9 84.3001 243 84.0001H244.1C243.9 84.8001 243.1 85.6001 241.6 85.6001C240 85.6001 238.9 84.4001 238.9 82.6001ZM240.1 82.0001H243.1C243 81.0001 242.4 80.5001 241.6 80.5001C240.8 80.5001 240.2 81.0001 240.1 82.0001Z" fill="black"/>
<path d="M246 83.9001V80.5001H245.1V79.6001H246V78.1001H247.2V79.6001H248.5V80.5001H247.2V83.6001C247.2 84.2001 247.4 84.5001 248 84.5001C248.2 84.5001 248.3 84.5001 248.4 84.5001V85.4001C248.2 85.4001 248 85.5001 247.8 85.5001C246.5 85.5001 246 85.1001 246 83.9001Z" fill="black"/>
<path d="M253.2 83.9001V80.5001H252.3V79.6001H253.2V78.1001H254.4V79.6001H255.7V80.5001H254.4V83.6001C254.4 84.2001 254.6 84.5001 255.2 84.5001C255.4 84.5001 255.5 84.5001 255.6 84.5001V85.4001C255.4 85.4001 255.2 85.5001 255 85.5001C253.7 85.5001 253.2 85.1001 253.2 83.9001Z" fill="black"/>
<path d="M256.6 82.6001C256.6 80.7001 257.7 79.6001 259.4 79.6001C261.1 79.6001 262.2 80.7001 262.2 82.6001C262.2 84.5001 261.2 85.6001 259.4 85.6001C257.7 85.6001 256.6 84.4001 256.6 82.6001ZM261 82.6001C261 81.3001 260.4 80.5001 259.4 80.5001C258.4 80.5001 257.8 81.3001 257.8 82.6001C257.8 83.9001 258.4 84.7001 259.4 84.7001C260.4 84.6001 261 83.8001 261 82.6001Z" fill="black"/>
<path d="M267.8 84.5L267.7 85.4001H266.5V77.3H267.7V80.5H267.8C268.1 79.9 268.8 79.5 269.6 79.5C271.1 79.5 272 80.7 272 82.5C272 84.3 271.1 85.5 269.6 85.5C268.8 85.6 268.2 85.2 267.8 84.5ZM270.8 82.6001C270.8 81.3001 270.2 80.6001 269.2 80.6001C268.2 80.6001 267.6 81.4001 267.6 82.6001C267.6 83.8001 268.2 84.6001 269.2 84.6001C270.2 84.6001 270.8 83.8001 270.8 82.6001Z" fill="black"/>
<path d="M273.4 83.4001V79.6001H274.6V83.1001C274.6 84.1001 275 84.5001 275.8 84.5001C276.7 84.5001 277.2 83.9001 277.2 83.0001V79.6001H278.4V85.4001H277.2V84.5001H277.1C276.8 85.1001 276.2 85.5001 275.4 85.5001C274 85.6001 273.4 84.8001 273.4 83.4001Z" fill="black"/>
<path d="M280.1 87.5V86.6C280.2 86.6 280.4 86.6 280.5 86.6C281 86.6 281.4 86.4 281.5 85.8L281.6 85.5L279.5 79.7H280.8L282.3 84.4H282.4L283.9 79.7H285.1L282.9 85.8C282.4 87.2 281.8 87.6 280.6 87.6C280.4 87.5 280.2 87.5 280.1 87.5Z" fill="black"/>
<path d="M288.9 82.6001C288.9 80.7001 290 79.6001 291.7 79.6001C293.4 79.6001 294.5 80.7001 294.5 82.6001C294.5 84.5001 293.5 85.6001 291.7 85.6001C289.9 85.6001 288.9 84.4001 288.9 82.6001ZM293.2 82.6001C293.2 81.3001 292.6 80.5001 291.6 80.5001C290.6 80.5001 290 81.3001 290 82.6001C290 83.9001 290.6 84.7001 291.6 84.7001C292.6 84.6001 293.2 83.8001 293.2 82.6001Z" fill="black"/>
<path d="M295.7 83.4001V79.6001H296.9V83.1001C296.9 84.1001 297.3 84.5001 298.1 84.5001C299 84.5001 299.5 83.9001 299.5 83.0001V79.6001H300.7V85.4001H299.5V84.5001H299.4C299.1 85.1001 298.5 85.5001 297.7 85.5001C296.4 85.6001 295.7 84.8001 295.7 83.4001Z" fill="black"/>
<path d="M302.4 79.6H303.6V80.5H303.7C303.9 79.9 304.5 79.5 305.2 79.5C305.4 79.5 305.6 79.5 305.7 79.6V80.7C305.5 80.7 305.3 80.6 305.1 80.6C304.2 80.6 303.6 81.1 303.6 82V85.5H302.4V79.6Z" fill="black"/>
<path d="M309.5 83.9H310.7C310.8 84.3 311.3 84.6 312 84.6C312.7 84.6 313.2 84.3 313.2 83.8C313.2 83.4 312.9 83.2 312.2 83L311.3 82.8C310.2 82.5 309.7 82 309.7 81.2C309.7 80.2 310.6 79.5 312 79.5C313.3 79.5 314.2 80.2 314.3 81.1H313.2C313.1 80.7 312.7 80.4 312 80.4C311.4 80.4 310.9 80.7 310.9 81.2C310.9 81.6 311.2 81.8 311.8 81.9L312.7 82.1C313.8 82.4 314.4 82.8 314.4 83.7C314.4 84.8 313.4 85.5 312 85.5C310.5 85.6 309.6 84.9 309.5 83.9Z" fill="black"/>
<path d="M315.6 83.4001V79.6001H316.8V83.1001C316.8 84.1001 317.2 84.5001 318 84.5001C318.9 84.5001 319.4 83.9001 319.4 83.0001V79.6001H320.6V85.4001H319.4V84.5001H319.3C319 85.1001 318.4 85.5001 317.6 85.5001C316.3 85.6001 315.6 84.8001 315.6 83.4001Z" fill="black"/>
<path d="M322.3 79.6H323.5V80.5H323.6C323.9 79.9 324.6 79.5 325.4 79.5C326.9 79.5 327.8 80.7 327.8 82.5C327.8 84.3 326.9 85.5 325.4 85.5C324.6 85.5 323.9 85.1 323.6 84.5H323.5V87.4H322.3V79.6ZM326.5 82.6C326.5 81.3 325.9 80.6 324.9 80.6C323.9 80.6 323.3 81.4 323.3 82.6C323.3 83.8 323.9 84.6 324.9 84.6C325.9 84.6 326.5 83.8 326.5 82.6Z" fill="black"/>
<path d="M328.8 82.6001C328.8 80.8001 329.9 79.6001 331.5 79.6001C333.1 79.6001 334.1 80.8001 334.1 82.5001V82.9001H330C330 84.0001 330.6 84.7001 331.6 84.7001C332.3 84.7001 332.8 84.3001 332.9 84.0001H334C333.8 84.8001 333 85.6001 331.5 85.6001C329.9 85.6001 328.8 84.4001 328.8 82.6001ZM330 82.0001H333C332.9 81.0001 332.3 80.5001 331.5 80.5001C330.7 80.5001 330.1 81.0001 330 82.0001Z" fill="black"/>
<path d="M335.5 79.6H336.7V80.5H336.8C337 79.9 337.6 79.5 338.3 79.5C338.5 79.5 338.7 79.5 338.8 79.6V80.7C338.6 80.7 338.4 80.6 338.2 80.6C337.3 80.6 336.7 81.1 336.7 82V85.5H335.5V79.6Z" fill="black"/>
<path d="M185.7 92.8H186.9V93.7H187C187.3 93.1 187.8 92.7 188.7 92.7C190 92.7 190.7 93.5 190.7 94.9V98.7H189.5V95.2C189.5 94.2 189.1 93.8 188.2 93.8C187.3 93.8 186.8 94.4 186.8 95.3V98.7H185.6V92.8H185.7Z" fill="black"/>
<path d="M192 95.8C192 94 193.1 92.8 194.7 92.8C196.3 92.8 197.3 94 197.3 95.7V96.1001H193.2C193.2 97.2001 193.8 97.9001 194.8 97.9001C195.5 97.9001 196 97.5 196.1 97.2H197.2C197 98 196.2 98.8 194.7 98.8C193 98.8 192 97.6 192 95.8ZM193.2 95.2H196.2C196.1 94.2 195.5 93.7 194.7 93.7C193.9 93.7 193.3 94.2 193.2 95.2Z" fill="black"/>
<path d="M198.1 92.8H199.3L200.3 97.3H200.4L201.6 92.8H202.7L203.9 97.3H204L205 92.8H206.2L204.6 98.6001H203.4L202.2 94.2H202.1L200.9 98.6001H199.7L198.1 92.8Z" fill="black"/>
<path d="M210.1 95.7C210.1 93.8 211.1 92.7 212.8 92.7C214.3 92.7 215.1 93.5 215.3 94.7H214.2C214.1 94.1 213.6 93.7 212.8 93.7C211.8 93.7 211.2 94.5 211.2 95.7C211.2 97 211.8 97.8 212.8 97.8C213.5 97.8 214 97.5 214.2 96.8H215.3C215.1 97.9 214.3 98.7 212.8 98.7C211.2 98.8 210.1 97.6 210.1 95.7Z" fill="black"/>
<path d="M216.4 95.7C216.4 93.8 217.5 92.7 219.2 92.7C220.9 92.7 222 93.8 222 95.7C222 97.6 221 98.7 219.2 98.7C217.4 98.8 216.4 97.6 216.4 95.7ZM220.7 95.7C220.7 94.4 220.1 93.6 219.1 93.6C218.1 93.6 217.5 94.4 217.5 95.7C217.5 97 218.1 97.8 219.1 97.8C220.2 97.8 220.7 97 220.7 95.7Z" fill="black"/>
<path d="M223 95.7C223 93.8 224.1 92.7 225.8 92.7C227.5 92.7 228.6 93.8 228.6 95.7C228.6 97.6 227.6 98.7 225.8 98.7C224.1 98.8 223 97.6 223 95.7ZM227.3 95.7C227.3 94.4 226.7 93.6 225.7 93.6C224.7 93.6 224.1 94.4 224.1 95.7C224.1 97 224.7 97.8 225.7 97.8C226.8 97.8 227.3 97 227.3 95.7Z" fill="black"/>
<path d="M230 90.5H231.2V98.6H230V90.5Z" fill="black"/>
<path d="M235.8 92.8H237V93.7H237.1C237.4 93.1 238.1 92.7 238.9 92.7C240.4 92.7 241.3 93.9 241.3 95.7C241.3 97.5 240.4 98.7 238.9 98.7C238.1 98.7 237.4 98.3 237.1 97.7H237V100.6H235.8V92.8ZM240.1 95.7C240.1 94.4 239.5 93.7 238.5 93.7C237.5 93.7 236.9 94.5 236.9 95.7C236.9 96.9 237.5 97.7 238.5 97.7C239.5 97.7 240.1 97 240.1 95.7Z" fill="black"/>
<path d="M242.7 92.8H243.9V93.7H244C244.2 93.1 244.8 92.7 245.5 92.7C245.7 92.7 245.9 92.7 246 92.8V93.9C245.8 93.9 245.6 93.8 245.4 93.8C244.5 93.8 243.9 94.3 243.9 95.2V98.7H242.7V92.8Z" fill="black"/>
<path d="M246.7 95.7C246.7 93.8 247.8 92.7 249.5 92.7C251.2 92.7 252.3 93.8 252.3 95.7C252.3 97.6 251.3 98.7 249.5 98.7C247.7 98.8 246.7 97.6 246.7 95.7ZM251 95.7C251 94.4 250.4 93.6 249.4 93.6C248.4 93.6 247.8 94.4 247.8 95.7C247.8 97 248.4 97.8 249.4 97.8C250.4 97.8 251 97 251 95.7Z" fill="black"/>
<path d="M253.3 95.7C253.3 93.8 254.2 92.7 255.7 92.7C256.5 92.7 257.2 93.1 257.5 93.7H257.6V90.5H258.8V98.6H257.6V97.7H257.5C257.2 98.3 256.5 98.7 255.7 98.7C254.2 98.8 253.3 97.6 253.3 95.7ZM257.6 95.7C257.6 94.4 257 93.7 256 93.7C255 93.7 254.4 94.5 254.4 95.7C254.4 97 255 97.7 256 97.7C257 97.8 257.6 97 257.6 95.7Z" fill="black"/>
<path d="M260.4 96.6001V92.8H261.6V96.3C261.6 97.3 262 97.7 262.8 97.7C263.7 97.7 264.2 97.1 264.2 96.2V92.8H265.4V98.6001H264.2V97.8H264.1C263.8 98.4 263.2 98.8 262.4 98.8C261.1 98.8 260.4 98.0001 260.4 96.6001Z" fill="black"/>
<path d="M266.7 95.7C266.7 93.8 267.7 92.7 269.4 92.7C270.9 92.7 271.7 93.5 271.9 94.7H270.8C270.7 94.1 270.2 93.7 269.4 93.7C268.4 93.7 267.8 94.5 267.8 95.7C267.8 97 268.4 97.8 269.4 97.8C270.1 97.8 270.6 97.5 270.8 96.8H271.9C271.7 97.9 270.9 98.7 269.4 98.7C267.8 98.8 266.7 97.6 266.7 95.7Z" fill="black"/>
<path d="M273.8 97.1001V93.7H272.9V92.8H273.8V91.3H275V92.8H276.3V93.7H275V96.8C275 97.4 275.2 97.7 275.8 97.7C276 97.7 276.1 97.7 276.2 97.7V98.6001C276 98.6001 275.8 98.7 275.6 98.7C274.3 98.7 273.8 98.2001 273.8 97.1001Z" fill="black"/>
<path d="M277.7 98.0001C277.7 97.5001 278 97.2001 278.5 97.2001C279 97.2001 279.3 97.5001 279.3 98.0001C279.3 98.5001 279 98.8001 278.5 98.8001C278 98.8001 277.7 98.5001 277.7 98.0001ZM277.9 90.9001H279.2L279.1 96.1001H278L277.9 90.9001Z" fill="black"/>
<path d="M186.7 115.8C186.2 115.5 185.9 115.1 185.6 114.6C185.4 114.1 185.2 113.5 185.2 112.8C185.2 112.1 185.3 111.5 185.6 111C185.8 110.5 186.2 110.1 186.7 109.8C187.2 109.5 187.7 109.4 188.3 109.4C188.9 109.4 189.5 109.5 189.9 109.8C190.4 110.1 190.7 110.5 191 111C191.2 111.5 191.4 112.1 191.4 112.8C191.4 113.5 191.3 114.1 191 114.6C190.8 115.1 190.4 115.5 189.9 115.8C189.4 116.1 188.9 116.2 188.3 116.2C187.7 116.2 187.1 116 186.7 115.8ZM189.5 115.1C189.8 114.9 190.1 114.6 190.3 114.2C190.5 113.8 190.6 113.3 190.6 112.8C190.6 112.3 190.5 111.8 190.3 111.4C190.1 111 189.9 110.7 189.5 110.5C189.2 110.3 188.8 110.2 188.3 110.2C187.8 110.2 187.5 110.3 187.1 110.5C186.7 110.7 186.5 111 186.3 111.4C186.1 111.8 186 112.3 186 112.8C186 113.3 186.1 113.8 186.3 114.2C186.5 114.6 186.7 114.9 187.1 115.1C187.5 115.3 187.8 115.4 188.3 115.4C188.8 115.4 189.1 115.3 189.5 115.1Z" fill="#242424"/>
<path d="M193 116C192.8 115.9 192.6 115.7 192.4 115.4C192.3 115.1 192.2 114.8 192.2 114.5V111.4H193V114.4C193 114.8 193.1 115.1 193.3 115.3C193.5 115.5 193.8 115.6 194.1 115.6C194.3 115.6 194.5 115.6 194.6 115.5C194.7 115.4 194.9 115.3 195 115.2C195.1 115.1 195.2 114.9 195.3 114.8C195.4 114.6 195.4 114.4 195.4 114.2V111.4H196.2V116.2H195.4V115.5C195.3 115.6 195.2 115.8 195.1 115.9C195 116 194.8 116.1 194.6 116.2C194.4 116.3 194.2 116.3 194 116.3C193.5 116.2 193.2 116.1 193 116Z" fill="#242424"/>
<path d="M197.2 111.3H198V112.1C198.1 111.8 198.2 111.6 198.4 111.4C198.6 111.2 198.8 111.2 199.1 111.2C199.2 111.2 199.2 111.2 199.3 111.2C199.4 111.2 199.4 111.2 199.4 111.2V112C199.4 112 199.3 112 199.2 112C199.1 112 199 112 198.9 112C198.7 112 198.5 112 198.4 112.1C198.2 112.2 198.1 112.3 198 112.5C197.9 112.7 197.9 112.9 197.9 113.1V116.1H197.1V111.3H197.2Z" fill="#242424"/>
<path d="M202.1 111.3H202.9V112C203 111.8 203.2 111.6 203.5 111.4C203.7 111.3 204 111.2 204.4 111.2C204.9 111.2 205.3 111.4 205.6 111.7C205.9 112 206 112.4 206 113V116.1H205.2V113.1C205.2 112.7 205.1 112.4 204.9 112.2C204.7 112 204.4 111.9 204.1 111.9C203.8 111.9 203.6 112 203.4 112.1C203.2 112.2 203.1 112.4 203 112.6C202.9 112.8 202.8 113 202.8 113.3V116.1H202V111.3H202.1Z" fill="#242424"/>
<path d="M207.8 115.9C207.5 115.7 207.2 115.4 207 115C206.8 114.6 206.7 114.2 206.7 113.7C206.7 113.2 206.8 112.8 207 112.4C207.2 112 207.4 111.7 207.8 111.5C208.1 111.3 208.5 111.2 208.9 111.2C209.3 111.2 209.7 111.3 210 111.5C210.3 111.7 210.6 112 210.7 112.3C210.8 112.6 211 113.1 211 113.6V113.9H207.1V113.3H210.6L210.2 113.9V113.6C210.2 113.2 210.1 112.9 210 112.7C209.9 112.5 209.7 112.3 209.5 112.2C209.3 112.1 209.1 112 208.8 112C208.5 112 208.3 112.1 208.1 112.2C207.9 112.3 207.7 112.5 207.6 112.8C207.5 113 207.4 113.3 207.4 113.7V114C207.4 114.3 207.5 114.6 207.6 114.9C207.7 115.1 207.9 115.3 208.1 115.4C208.3 115.5 208.6 115.6 208.9 115.6C209.1 115.6 209.3 115.6 209.4 115.5C209.6 115.4 209.7 115.4 209.8 115.2C209.9 115.1 210 115 210 114.8H210.8C210.8 115 210.7 115.2 210.6 115.4C210.5 115.6 210.3 115.7 210.2 115.9C210.1 116.1 209.8 116.1 209.6 116.2C209.4 116.3 209.1 116.3 208.9 116.3C208.5 116.2 208.1 116.1 207.8 115.9Z" fill="#242424"/>
<path d="M211.4 111.3H212.2L213.2 115.2L214.3 111.3H215.1L216.2 115.2L217.2 111.3H218L216.7 116.1H215.9L214.8 112.4L213.7 116.1H212.9L211.4 111.3Z" fill="#242424"/>
<path d="M221.2 116C220.9 115.9 220.7 115.7 220.6 115.5C220.4 115.3 220.3 115 220.3 114.8H221.1C221.1 115 221.3 115.2 221.4 115.4C221.6 115.5 221.8 115.6 222.2 115.6C222.4 115.6 222.6 115.6 222.8 115.5C223 115.4 223.1 115.4 223.2 115.3C223.3 115.2 223.3 115.1 223.3 114.9C223.3 114.7 223.2 114.6 223.1 114.5C223 114.4 222.8 114.3 222.5 114.2L221.7 114C221.4 113.9 221.2 113.8 221 113.7C220.8 113.6 220.7 113.4 220.6 113.3C220.5 113.2 220.5 112.9 220.5 112.7C220.5 112.4 220.6 112.2 220.7 112C220.8 111.8 221.1 111.6 221.3 111.5C221.5 111.4 221.9 111.3 222.2 111.3C222.5 111.3 222.9 111.4 223.1 111.5C223.4 111.6 223.6 111.8 223.7 112C223.8 112.2 223.9 112.5 224 112.7V112.8H223.2C223.2 112.6 223.1 112.4 222.9 112.2C222.7 112.1 222.5 112 222.2 112C222 112 221.8 112 221.7 112.1C221.6 112.2 221.5 112.2 221.4 112.3C221.3 112.4 221.3 112.5 221.3 112.7C221.3 112.8 221.3 112.9 221.4 113C221.5 113.1 221.5 113.2 221.6 113.2C221.7 113.3 221.9 113.3 222 113.4L222.8 113.6C223.3 113.7 223.6 113.9 223.8 114.1C224 114.3 224.1 114.6 224.1 114.9C224.1 115.2 224 115.4 223.9 115.6C223.7 115.8 223.5 116 223.2 116.1C222.9 116.2 222.6 116.3 222.2 116.3C221.8 116.2 221.5 116.1 221.2 116Z" fill="#242424"/>
<path d="M225.6 116C225.4 115.9 225.2 115.7 225 115.4C224.9 115.1 224.8 114.8 224.8 114.5V111.4H225.6V114.4C225.6 114.8 225.7 115.1 225.9 115.3C226.1 115.5 226.4 115.6 226.7 115.6C226.9 115.6 227.1 115.6 227.2 115.5C227.3 115.4 227.5 115.3 227.6 115.2C227.7 115.1 227.8 114.9 227.9 114.8C228 114.6 228 114.4 228 114.2V111.4H228.8V116.2H228V115.5C227.9 115.6 227.8 115.8 227.7 115.9C227.6 116 227.4 116.1 227.2 116.2C227 116.3 226.8 116.3 226.6 116.3C226.2 116.2 225.9 116.1 225.6 116Z" fill="#242424"/>
<path d="M229.9 111.3H230.7V112.1C230.8 111.9 230.9 111.8 231.1 111.6C231.2 111.5 231.4 111.4 231.6 111.3C231.8 111.2 232 111.2 232.2 111.2C232.6 111.2 233 111.3 233.3 111.5C233.6 111.7 233.8 112 234 112.4C234.2 112.8 234.3 113.2 234.3 113.7C234.3 114.2 234.2 114.6 234 115C233.8 115.4 233.6 115.7 233.3 115.9C233 116.1 232.6 116.2 232.2 116.2C232 116.2 231.8 116.2 231.6 116.1C231.4 116 231.2 115.9 231.1 115.8C231 115.7 230.8 115.5 230.7 115.3V117.7H229.9V111.3ZM232.8 115.2C233 115.1 233.2 114.9 233.3 114.6C233.4 114.3 233.5 114 233.5 113.7C233.5 113.3 233.4 113 233.3 112.8C233.2 112.6 233 112.3 232.8 112.2C232.6 112.1 232.4 112 232.1 112C231.8 112 231.6 112.1 231.4 112.2C231.2 112.3 231 112.6 230.9 112.8C230.8 113.1 230.7 113.4 230.7 113.7C230.7 114.1 230.8 114.4 230.9 114.6C231 114.8 231.2 115.1 231.4 115.2C231.6 115.3 231.8 115.4 232.1 115.4C232.3 115.5 232.6 115.4 232.8 115.2Z" fill="#242424"/>
<path d="M235.8 115.9C235.5 115.7 235.2 115.4 235 115C234.8 114.6 234.7 114.2 234.7 113.7C234.7 113.2 234.8 112.8 235 112.4C235.2 112 235.4 111.7 235.8 111.5C236.1 111.3 236.5 111.2 236.9 111.2C237.3 111.2 237.7 111.3 238 111.5C238.3 111.7 238.6 112 238.7 112.3C238.8 112.6 239 113.1 239 113.6V113.9H235.1V113.3H238.6L238.2 113.9V113.6C238.2 113.2 238.1 112.9 238 112.7C237.9 112.5 237.7 112.3 237.5 112.2C237.3 112.1 237.1 112 236.8 112C236.5 112 236.3 112.1 236.1 112.2C235.9 112.3 235.7 112.5 235.6 112.8C235.5 113 235.4 113.3 235.4 113.7V114C235.4 114.3 235.5 114.6 235.6 114.9C235.7 115.1 235.9 115.3 236.1 115.4C236.3 115.5 236.6 115.6 236.9 115.6C237.1 115.6 237.3 115.6 237.4 115.5C237.6 115.4 237.7 115.4 237.8 115.2C237.9 115.1 238 115 238 114.8H238.8C238.8 115 238.7 115.2 238.6 115.4C238.5 115.6 238.3 115.7 238.2 115.9C238.1 116.1 237.8 116.1 237.6 116.2C237.4 116.3 237.1 116.3 236.9 116.3C236.5 116.2 236.1 116.1 235.8 115.9Z" fill="#242424"/>
<path d="M239.9 111.3H240.7V112.1C240.8 111.8 240.9 111.6 241.1 111.4C241.3 111.2 241.5 111.2 241.8 111.2C241.9 111.2 241.9 111.2 242 111.2C242.1 111.2 242.1 111.2 242.1 111.2V112C242.1 112 242 112 241.9 112C241.8 112 241.7 112 241.6 112C241.4 112 241.2 112 241.1 112.1C240.9 112.2 240.8 112.3 240.7 112.5C240.6 112.7 240.6 112.9 240.6 113.1V116.1H239.9V111.3Z" fill="#242424"/>
<path d="M245.4 115.9C245.1 115.7 244.9 115.4 244.7 115C244.5 114.6 244.4 114.2 244.4 113.7C244.4 113.2 244.5 112.8 244.7 112.4C244.9 112 245.1 111.7 245.4 111.5C245.7 111.3 246.1 111.2 246.5 111.2C246.7 111.2 246.9 111.2 247.1 111.3C247.3 111.4 247.5 111.5 247.6 111.6C247.8 111.7 247.9 111.9 248 112.1V109.4H248.8V116H248V115.2C247.9 115.4 247.8 115.5 247.6 115.7C247.4 115.8 247.3 115.9 247.1 116C246.9 116.1 246.7 116.1 246.5 116.1C246.1 116.2 245.7 116.1 245.4 115.9ZM247.4 115.2C247.6 115.1 247.8 114.8 247.9 114.6C248 114.3 248.1 114 248.1 113.7C248.1 113.3 248 113 247.9 112.8C247.8 112.6 247.6 112.3 247.4 112.2C247.2 112.1 247 112 246.7 112C246.4 112 246.2 112.1 246 112.2C245.8 112.3 245.6 112.5 245.5 112.8C245.4 113.1 245.3 113.4 245.3 113.7C245.3 114.1 245.4 114.4 245.5 114.6C245.6 114.9 245.8 115.1 246 115.2C246.2 115.3 246.4 115.4 246.7 115.4C246.9 115.5 247.2 115.4 247.4 115.2Z" fill="#242424"/>
<path d="M250.6 116C250.4 115.9 250.2 115.7 250 115.4C249.9 115.1 249.8 114.8 249.8 114.5V111.4H250.6V114.4C250.6 114.8 250.7 115.1 250.9 115.3C251.1 115.5 251.4 115.6 251.7 115.6C251.9 115.6 252.1 115.6 252.2 115.5C252.3 115.4 252.5 115.3 252.6 115.2C252.7 115.1 252.8 114.9 252.9 114.8C253 114.6 253 114.4 253 114.2V111.4H253.8V116.2H253V115.5C252.9 115.6 252.8 115.8 252.7 115.9C252.6 116 252.4 116.1 252.2 116.2C252 116.3 251.8 116.3 251.6 116.3C251.2 116.2 250.9 116.1 250.6 116Z" fill="#242424"/>
<path d="M254.9 111.3H255.7V112.1C255.8 111.9 255.9 111.8 256.1 111.6C256.2 111.5 256.4 111.4 256.6 111.3C256.8 111.2 257 111.2 257.2 111.2C257.6 111.2 258 111.3 258.3 111.5C258.6 111.7 258.8 112 259 112.4C259.2 112.8 259.3 113.2 259.3 113.7C259.3 114.2 259.2 114.6 259 115C258.8 115.4 258.6 115.7 258.3 115.9C258 116.1 257.6 116.2 257.2 116.2C257 116.2 256.8 116.2 256.6 116.1C256.4 116 256.2 115.9 256.1 115.8C256 115.7 255.8 115.5 255.7 115.3V117.7H254.9V111.3ZM257.8 115.2C258 115.1 258.2 114.9 258.3 114.6C258.4 114.3 258.5 114 258.5 113.7C258.5 113.3 258.4 113 258.3 112.8C258.2 112.6 258 112.3 257.8 112.2C257.6 112.1 257.4 112 257.1 112C256.8 112 256.6 112.1 256.4 112.2C256.2 112.3 256 112.6 255.9 112.8C255.8 113.1 255.7 113.4 255.7 113.7C255.7 114.1 255.8 114.4 255.9 114.6C256 114.8 256.2 115.1 256.4 115.2C256.6 115.3 256.8 115.4 257.1 115.4C257.3 115.5 257.6 115.4 257.8 115.2Z" fill="#242424"/>
<path d="M260.8 115.9C260.5 115.7 260.2 115.4 260 115C259.8 114.6 259.7 114.2 259.7 113.7C259.7 113.2 259.8 112.8 260 112.4C260.2 112 260.4 111.7 260.8 111.5C261.1 111.3 261.5 111.2 261.9 111.2C262.3 111.2 262.7 111.3 263 111.5C263.3 111.7 263.6 112 263.7 112.3C263.8 112.6 264 113.1 264 113.6V113.9H260.1V113.3H263.6L263.2 113.9V113.6C263.2 113.2 263.1 112.9 263 112.7C262.9 112.5 262.7 112.3 262.5 112.2C262.3 112.1 262.1 112 261.8 112C261.5 112 261.3 112.1 261.1 112.2C260.9 112.3 260.7 112.5 260.6 112.8C260.5 113 260.4 113.3 260.4 113.7V114C260.4 114.3 260.5 114.6 260.6 114.9C260.7 115.1 260.9 115.3 261.1 115.4C261.3 115.5 261.6 115.6 261.9 115.6C262.1 115.6 262.3 115.6 262.4 115.5C262.6 115.4 262.7 115.4 262.8 115.2C262.9 115.1 263 115 263 114.8H263.8C263.8 115 263.7 115.2 263.6 115.4C263.5 115.6 263.3 115.7 263.2 115.9C263.1 116.1 262.8 116.1 262.6 116.2C262.4 116.3 262.1 116.3 261.9 116.3C261.6 116.2 261.2 116.1 260.8 115.9Z" fill="#242424"/>
<path d="M264.9 111.3H265.7V112.1C265.8 111.8 265.9 111.6 266.1 111.4C266.3 111.2 266.5 111.2 266.8 111.2C266.9 111.2 266.9 111.2 267 111.2C267.1 111.2 267.1 111.2 267.1 111.2V112C267.1 112 267 112 266.9 112C266.8 112 266.7 112 266.6 112C266.4 112 266.2 112 266.1 112.1C265.9 112.2 265.8 112.3 265.7 112.5C265.6 112.7 265.6 112.9 265.6 113.1V116.1H264.9V111.3Z" fill="#242424"/>
<path d="M269.7 111.3H270.5V112.1C270.6 111.9 270.7 111.8 270.9 111.6C271 111.5 271.2 111.4 271.4 111.3C271.6 111.2 271.8 111.2 272 111.2C272.4 111.2 272.8 111.3 273.1 111.5C273.4 111.7 273.6 112 273.8 112.4C274 112.8 274.1 113.2 274.1 113.7C274.1 114.2 274 114.6 273.8 115C273.6 115.4 273.4 115.7 273.1 115.9C272.8 116.1 272.4 116.2 272 116.2C271.8 116.2 271.6 116.2 271.4 116.1C271.2 116 271 115.9 270.9 115.8C270.8 115.7 270.6 115.5 270.5 115.3V117.7H269.7V111.3ZM272.6 115.2C272.8 115.1 273 114.9 273.1 114.6C273.2 114.3 273.3 114 273.3 113.7C273.3 113.3 273.2 113 273.1 112.8C273 112.6 272.8 112.3 272.6 112.2C272.4 112.1 272.2 112 271.9 112C271.6 112 271.4 112.1 271.2 112.2C271 112.3 270.8 112.6 270.7 112.8C270.6 113.1 270.5 113.4 270.5 113.7C270.5 114.1 270.6 114.4 270.7 114.6C270.8 114.8 271 115.1 271.2 115.2C271.4 115.3 271.6 115.4 271.9 115.4C272.2 115.5 272.4 115.4 272.6 115.2Z" fill="#242424"/>
<path d="M274.9 111.3H275.7V112.1C275.8 111.8 275.9 111.6 276.1 111.4C276.3 111.2 276.5 111.2 276.8 111.2C276.9 111.2 276.9 111.2 277 111.2C277.1 111.2 277.1 111.2 277.1 111.2V112C277.1 112 277 112 276.9 112C276.8 112 276.7 112 276.6 112C276.4 112 276.2 112 276.1 112.1C275.9 112.2 275.8 112.3 275.7 112.5C275.6 112.7 275.6 112.9 275.6 113.1V116.1H274.9V111.3Z" fill="#242424"/>
<path d="M278.4 115.9C278.1 115.7 277.8 115.4 277.6 115C277.4 114.6 277.3 114.2 277.3 113.7C277.3 113.2 277.4 112.8 277.6 112.4C277.8 112 278 111.7 278.4 111.5C278.7 111.3 279.1 111.2 279.6 111.2C280 111.2 280.4 111.3 280.8 111.5C281.1 111.7 281.4 112 281.6 112.4C281.8 112.8 281.9 113.2 281.9 113.7C281.9 114.2 281.8 114.6 281.6 115C281.4 115.4 281.2 115.7 280.8 115.9C280.5 116.1 280.1 116.2 279.6 116.2C279.1 116.2 278.7 116.1 278.4 115.9ZM280.3 115.3C280.5 115.2 280.7 115 280.8 114.7C280.9 114.4 281 114.1 281 113.7C281 113.3 280.9 113 280.8 112.7C280.7 112.4 280.5 112.2 280.3 112.1C280.1 112 279.8 111.9 279.6 111.9C279.3 111.9 279.1 112 278.9 112.1C278.7 112.2 278.5 112.4 278.4 112.7C278.3 113 278.2 113.3 278.2 113.7C278.2 114.1 278.3 114.4 278.4 114.7C278.5 115 278.7 115.2 278.9 115.3C279.1 115.4 279.4 115.5 279.6 115.5C279.8 115.5 280.1 115.4 280.3 115.3Z" fill="#242424"/>
<path d="M283.3 115.9C283 115.7 282.8 115.4 282.6 115C282.4 114.6 282.3 114.2 282.3 113.7C282.3 113.2 282.4 112.8 282.6 112.4C282.8 112 283 111.7 283.3 111.5C283.6 111.3 284 111.2 284.4 111.2C284.6 111.2 284.8 111.2 285 111.3C285.2 111.4 285.4 111.5 285.5 111.6C285.7 111.7 285.8 111.9 285.9 112.1V109.4H286.7V116H285.9V115.2C285.8 115.4 285.7 115.5 285.5 115.7C285.3 115.8 285.2 115.9 285 116C284.8 116.1 284.6 116.1 284.4 116.1C283.9 116.2 283.6 116.1 283.3 115.9ZM285.2 115.2C285.4 115.1 285.6 114.8 285.7 114.6C285.8 114.3 285.9 114 285.9 113.7C285.9 113.3 285.8 113 285.7 112.8C285.6 112.6 285.4 112.3 285.2 112.2C285 112.1 284.8 112 284.5 112C284.2 112 284 112.1 283.8 112.2C283.6 112.3 283.4 112.5 283.3 112.8C283.2 113.1 283.1 113.4 283.1 113.7C283.1 114.1 283.2 114.4 283.3 114.6C283.4 114.9 283.6 115.1 283.8 115.2C284 115.3 284.2 115.4 284.5 115.4C284.8 115.5 285 115.4 285.2 115.2Z" fill="#242424"/>
<path d="M288.5 116C288.3 115.9 288.1 115.7 287.9 115.4C287.8 115.1 287.7 114.8 287.7 114.5V111.4H288.5V114.4C288.5 114.8 288.6 115.1 288.8 115.3C289 115.5 289.3 115.6 289.6 115.6C289.8 115.6 290 115.6 290.1 115.5C290.2 115.4 290.4 115.3 290.5 115.2C290.6 115.1 290.7 114.9 290.8 114.8C290.9 114.6 290.9 114.4 290.9 114.2V111.4H291.7V116.2H290.9V115.5C290.8 115.6 290.7 115.8 290.6 115.9C290.5 116 290.3 116.1 290.1 116.2C289.9 116.3 289.7 116.3 289.5 116.3C289 116.2 288.7 116.1 288.5 116Z" fill="#242424"/>
<path d="M293.5 115.9C293.2 115.7 292.9 115.4 292.7 115C292.5 114.6 292.4 114.2 292.4 113.7C292.4 113.2 292.5 112.8 292.7 112.4C292.9 112 293.1 111.7 293.5 111.5C293.8 111.3 294.2 111.2 294.7 111.2C295.1 111.2 295.4 111.3 295.7 111.4C296 111.5 296.2 111.8 296.4 112C296.6 112.2 296.7 112.5 296.7 112.8H295.9C295.8 112.6 295.7 112.4 295.5 112.2C295.3 112 295 111.9 294.7 111.9C294.4 111.9 294.2 112 294 112.1C293.8 112.2 293.6 112.5 293.5 112.7C293.4 113 293.3 113.3 293.3 113.6C293.3 114 293.4 114.3 293.5 114.6C293.6 114.9 293.8 115.1 294 115.2C294.2 115.3 294.5 115.4 294.7 115.4C295 115.4 295.3 115.3 295.5 115.1C295.7 114.9 295.8 114.7 295.9 114.4H296.7C296.7 114.7 296.5 115 296.4 115.2C296.2 115.4 296 115.6 295.7 115.8C295.4 116 295.1 116 294.7 116C294.3 116.2 293.9 116.1 293.5 115.9Z" fill="#242424"/>
<path d="M298 115.9C297.8 115.7 297.7 115.4 297.7 114.9V112H297V111.3H297.7V110H298.5V111.3H299.4V112H298.5V114.9C298.5 115.2 298.6 115.3 298.7 115.4C298.8 115.5 299 115.5 299.2 115.5H299.3H299.4V116.1C299.4 116.1 299.3 116.1 299.2 116.1C299.1 116.1 299 116.1 299 116.1C298.6 116.2 298.2 116.1 298 115.9Z" fill="#242424"/>
<path d="M302.3 110.3C302.2 110.2 302.2 110.1 302.2 109.9C302.2 109.8 302.2 109.6 302.3 109.5C302.4 109.4 302.5 109.4 302.7 109.4C302.8 109.4 303 109.4 303.1 109.5C303.2 109.6 303.2 109.7 303.2 109.9C303.2 110 303.2 110.2 303.1 110.3C303 110.4 302.9 110.4 302.7 110.4C302.5 110.5 302.4 110.4 302.3 110.3ZM302.3 111.3H303.1V116.1H302.3V111.3Z" fill="#242424"/>
<path d="M304.9 116C304.6 115.9 304.4 115.7 304.3 115.5C304.1 115.3 304 115 304 114.8H304.8C304.8 115 305 115.2 305.1 115.4C305.3 115.5 305.5 115.6 305.9 115.6C306.1 115.6 306.3 115.6 306.5 115.5C306.7 115.4 306.8 115.4 306.9 115.3C307 115.2 307 115.1 307 114.9C307 114.7 306.9 114.6 306.8 114.5C306.7 114.4 306.5 114.3 306.2 114.2L305.4 114C305.1 113.9 304.9 113.8 304.7 113.7C304.5 113.6 304.4 113.4 304.3 113.3C304.2 113.2 304.2 112.9 304.2 112.7C304.2 112.4 304.3 112.2 304.4 112C304.5 111.8 304.8 111.6 305 111.5C305.2 111.4 305.6 111.3 305.9 111.3C306.2 111.3 306.6 111.4 306.8 111.5C307.1 111.6 307.3 111.8 307.4 112C307.5 112.2 307.6 112.5 307.7 112.7V112.8H306.9C306.9 112.6 306.8 112.4 306.6 112.2C306.4 112.1 306.2 112 305.9 112C305.7 112 305.5 112 305.4 112.1C305.3 112.2 305.2 112.2 305.1 112.3C305 112.4 305 112.5 305 112.7C305 112.8 305 112.9 305.1 113C305.2 113.1 305.2 113.2 305.3 113.2C305.4 113.3 305.6 113.3 305.7 113.4L306.5 113.6C307 113.7 307.3 113.9 307.5 114.1C307.7 114.3 307.8 114.6 307.8 114.9C307.8 115.2 307.7 115.4 307.6 115.6C307.4 115.8 307.2 116 306.9 116.1C306.6 116.2 306.3 116.3 305.9 116.3C305.5 116.2 305.2 116.1 304.9 116Z" fill="#242424"/>
<path d="M185.9 127.3C185.7 127.2 185.5 127 185.3 126.8C185.2 126.6 185.1 126.3 185.1 126C185.1 125.7 185.2 125.5 185.3 125.3C185.4 125.1 185.6 124.9 185.9 124.8C186.2 124.7 186.5 124.6 186.8 124.6L188.6 124.5V125.1L186.9 125.2C186.6 125.2 186.3 125.3 186.2 125.4C186 125.5 185.9 125.7 185.9 125.9C185.9 126.1 186 126.3 186.2 126.4C186.4 126.5 186.6 126.6 186.9 126.6C187.2 126.6 187.4 126.5 187.6 126.4C187.8 126.3 188 126.1 188.1 126C188.2 125.8 188.3 125.6 188.3 125.4V124C188.3 123.7 188.2 123.5 188 123.3C187.8 123.1 187.6 123 187.2 123C186.9 123 186.6 123.1 186.5 123.2C186.3 123.3 186.2 123.5 186.1 123.7H185.3V123.6C185.3 123.3 185.4 123.1 185.6 122.9C185.8 122.7 186 122.5 186.2 122.4C186.5 122.3 186.8 122.2 187.2 122.2C187.6 122.2 187.9 122.3 188.2 122.4C188.5 122.5 188.7 122.7 188.8 122.9C189 123.1 189 123.4 189 123.7V127H188.2V126.2C188.1 126.4 188 126.5 187.8 126.7C187.6 126.9 187.5 126.9 187.3 127C187.1 127.1 186.9 127.1 186.7 127.1C186.4 127.5 186.2 127.4 185.9 127.3Z" fill="#242424"/>
<path d="M189.7 122.6H190.5L191.8 126.5L193.1 122.6H193.9L192.1 127.4H191.3L189.7 122.6Z" fill="#242424"/>
<path d="M195.1 127.3C194.9 127.2 194.7 127 194.5 126.8C194.4 126.6 194.3 126.3 194.3 126C194.3 125.7 194.4 125.5 194.5 125.3C194.6 125.1 194.8 124.9 195.1 124.8C195.4 124.7 195.7 124.6 196 124.6L197.8 124.5V125.1L196.1 125.2C195.8 125.2 195.5 125.3 195.4 125.4C195.2 125.5 195.1 125.7 195.1 125.9C195.1 126.1 195.2 126.3 195.4 126.4C195.6 126.5 195.8 126.6 196.1 126.6C196.4 126.6 196.6 126.5 196.8 126.4C197 126.3 197.2 126.1 197.3 126C197.4 125.8 197.5 125.6 197.5 125.4V124C197.5 123.7 197.4 123.5 197.2 123.3C197 123.1 196.8 123 196.4 123C196.1 123 195.8 123.1 195.7 123.2C195.5 123.3 195.4 123.5 195.3 123.7H194.5V123.6C194.5 123.3 194.6 123.1 194.8 122.9C195 122.7 195.2 122.5 195.4 122.4C195.7 122.3 196 122.2 196.4 122.2C196.8 122.2 197.1 122.3 197.4 122.4C197.7 122.5 197.9 122.7 198 122.9C198.2 123.1 198.2 123.4 198.2 123.7V127H197.4V126.2C197.3 126.4 197.2 126.5 197 126.7C196.8 126.9 196.7 126.9 196.5 127C196.3 127.1 196.1 127.1 195.9 127.1C195.6 127.5 195.4 127.4 195.1 127.3Z" fill="#242424"/>
<path d="M199.4 121.6C199.3 121.5 199.3 121.4 199.3 121.2C199.3 121.1 199.3 120.9 199.4 120.8C199.5 120.7 199.6 120.7 199.8 120.7C199.9 120.7 200.1 120.7 200.2 120.8C200.3 120.9 200.3 121 200.3 121.2C200.3 121.3 200.3 121.5 200.2 121.6C200.1 121.7 200 121.7 199.8 121.7C199.6 121.8 199.5 121.7 199.4 121.6ZM199.3 122.6H200.1V127.4H199.3V122.6Z" fill="#242424"/>
<path d="M201.3 120.7H202.1V127.3H201.3V120.7Z" fill="#242424"/>
<path d="M203.7 127.3C203.5 127.2 203.3 127 203.1 126.8C203 126.6 202.9 126.3 202.9 126C202.9 125.7 203 125.5 203.1 125.3C203.2 125.1 203.4 124.9 203.7 124.8C204 124.7 204.3 124.6 204.6 124.6L206.4 124.5V125.1L204.7 125.2C204.4 125.2 204.1 125.3 204 125.4C203.8 125.5 203.7 125.7 203.7 125.9C203.7 126.1 203.8 126.3 204 126.4C204.2 126.5 204.4 126.6 204.7 126.6C205 126.6 205.2 126.5 205.4 126.4C205.6 126.3 205.8 126.1 205.9 126C206 125.8 206.1 125.6 206.1 125.4V124C206.1 123.7 206 123.5 205.8 123.3C205.6 123.1 205.4 123 205 123C204.7 123 204.4 123.1 204.3 123.2C204.1 123.3 204 123.5 203.9 123.7H203.1V123.6C203.1 123.3 203.2 123.1 203.4 122.9C203.6 122.7 203.8 122.5 204 122.4C204.3 122.3 204.6 122.2 205 122.2C205.4 122.2 205.7 122.3 206 122.4C206.3 122.5 206.5 122.7 206.6 122.9C206.8 123.1 206.8 123.4 206.8 123.7V127H206V126.2C205.9 126.4 205.8 126.5 205.6 126.7C205.4 126.9 205.3 126.9 205.1 127C204.9 127.1 204.7 127.1 204.5 127.1C204.2 127.5 203.9 127.4 203.7 127.3Z" fill="#242424"/>
<path d="M209.6 127.4C209.4 127.3 209.2 127.2 209.1 127.1C209 127 208.8 126.8 208.7 126.6V127.4H207.9V120.8H208.7V123.5C208.8 123.3 208.9 123.2 209.1 123C209.3 122.8 209.4 122.8 209.6 122.7C209.8 122.6 210 122.6 210.2 122.6C210.6 122.6 211 122.7 211.3 122.9C211.6 123.1 211.8 123.4 212 123.8C212.2 124.2 212.3 124.6 212.3 125.1C212.3 125.6 212.2 126 212 126.4C211.8 126.8 211.6 127.1 211.3 127.3C211 127.5 210.6 127.6 210.2 127.6C210 127.5 209.8 127.4 209.6 127.4ZM210.8 126.6C211 126.5 211.2 126.3 211.3 126C211.4 125.7 211.5 125.4 211.5 125.1C211.5 124.7 211.4 124.4 211.3 124.2C211.2 123.9 211 123.7 210.8 123.6C210.6 123.5 210.4 123.4 210.1 123.4C209.8 123.4 209.6 123.5 209.4 123.6C209.2 123.7 209 124 208.9 124.2C208.8 124.4 208.7 124.8 208.7 125.1C208.7 125.5 208.8 125.8 208.9 126C209 126.3 209.2 126.5 209.4 126.6C209.6 126.7 209.8 126.8 210.1 126.8C210.4 126.8 210.6 126.7 210.8 126.6Z" fill="#242424"/>
<path d="M213.1 120.7H213.9V127.3H213.1V120.7Z" fill="#242424"/>
<path d="M215.8 127.2C215.5 127 215.2 126.7 215 126.3C214.8 125.9 214.7 125.5 214.7 125C214.7 124.5 214.8 124.1 215 123.7C215.2 123.3 215.4 123 215.8 122.8C216.1 122.6 216.5 122.5 216.9 122.5C217.3 122.5 217.7 122.6 218 122.8C218.3 123 218.6 123.3 218.7 123.6C218.8 123.9 219 124.4 219 124.9V125.2H215.1V124.6H218.6L218.2 125.2V124.9C218.2 124.5 218.1 124.2 218 124C217.9 123.8 217.7 123.6 217.5 123.5C217.3 123.4 217.1 123.3 216.8 123.3C216.5 123.3 216.3 123.4 216.1 123.5C215.9 123.6 215.7 123.8 215.6 124.1C215.5 124.3 215.4 124.6 215.4 125V125.3C215.4 125.6 215.5 125.9 215.6 126.2C215.7 126.4 215.9 126.6 216.1 126.7C216.3 126.8 216.6 126.9 216.9 126.9C217.1 126.9 217.3 126.9 217.4 126.8C217.6 126.7 217.7 126.7 217.8 126.5C217.9 126.4 218 126.3 218 126.1H218.8C218.8 126.3 218.7 126.5 218.6 126.7C218.5 126.9 218.3 127 218.2 127.2C218.1 127.4 217.8 127.4 217.6 127.5C217.4 127.6 217.1 127.6 216.9 127.6C216.5 127.5 216.1 127.4 215.8 127.2Z" fill="#242424"/>
<path d="M222.6 127.2C222.3 127 222 126.7 221.8 126.3C221.6 125.9 221.5 125.5 221.5 125C221.5 124.5 221.6 124.1 221.8 123.7C222 123.3 222.2 123 222.6 122.8C222.9 122.6 223.3 122.5 223.7 122.5C224.1 122.5 224.5 122.6 224.8 122.8C225.1 123 225.4 123.3 225.5 123.6C225.6 123.9 225.8 124.4 225.8 124.9V125.2H221.9V124.6H225.4L225 125.2V124.9C225 124.5 224.9 124.2 224.8 124C224.7 123.8 224.5 123.6 224.3 123.5C224.1 123.4 223.9 123.3 223.6 123.3C223.3 123.3 223.1 123.4 222.9 123.5C222.7 123.6 222.5 123.8 222.4 124.1C222.3 124.3 222.2 124.6 222.2 125V125.3C222.2 125.6 222.3 125.9 222.4 126.2C222.5 126.4 222.7 126.6 222.9 126.7C223.1 126.8 223.4 126.9 223.7 126.9C223.9 126.9 224.1 126.9 224.2 126.8C224.4 126.7 224.5 126.7 224.6 126.5C224.7 126.4 224.8 126.3 224.8 126.1H225.6C225.6 126.3 225.5 126.5 225.4 126.7C225.3 126.9 225.1 127 225 127.2C224.9 127.4 224.6 127.4 224.4 127.5C224.2 127.6 223.9 127.6 223.7 127.6C223.3 127.5 222.9 127.4 222.6 127.2Z" fill="#242424"/>
<path d="M227.8 125L226.2 122.6H227.1L228.2 124.4L229.3 122.6H230.2L228.6 125L230.2 127.4H229.3L228.2 125.6L227 127.4H226.1L227.8 125Z" fill="#242424"/>
<path d="M231.6 127.2C231.3 127 231 126.7 230.8 126.3C230.6 125.9 230.5 125.5 230.5 125C230.5 124.5 230.6 124.1 230.8 123.7C231 123.3 231.2 123 231.6 122.8C231.9 122.6 232.3 122.5 232.8 122.5C233.2 122.5 233.5 122.6 233.8 122.7C234.1 122.8 234.3 123.1 234.5 123.3C234.7 123.5 234.8 123.8 234.8 124.1H234C233.9 123.9 233.8 123.7 233.6 123.5C233.4 123.3 233.1 123.2 232.8 123.2C232.5 123.2 232.3 123.3 232.1 123.4C231.9 123.5 231.7 123.8 231.6 124C231.5 124.3 231.4 124.6 231.4 124.9C231.4 125.3 231.5 125.6 231.6 125.9C231.7 126.2 231.9 126.4 232.1 126.5C232.3 126.6 232.6 126.7 232.8 126.7C233.1 126.7 233.4 126.6 233.6 126.4C233.8 126.2 233.9 126 234 125.7H234.8C234.8 126 234.6 126.3 234.5 126.5C234.3 126.7 234.1 126.9 233.8 127.1C233.5 127.3 233.2 127.3 232.8 127.3C232.3 127.5 232 127.4 231.6 127.2Z" fill="#242424"/>
<path d="M235.6 120.7H236.4V127.3H235.6V120.7Z" fill="#242424"/>
<path d="M238.2 127.3C238 127.2 237.8 127 237.6 126.7C237.5 126.4 237.4 126.1 237.4 125.8V122.7H238.2V125.7C238.2 126.1 238.3 126.4 238.5 126.6C238.7 126.8 239 126.9 239.3 126.9C239.5 126.9 239.7 126.9 239.8 126.8C239.9 126.7 240.1 126.6 240.2 126.5C240.3 126.4 240.4 126.2 240.5 126.1C240.6 125.9 240.6 125.7 240.6 125.5V122.7H241.4V127.5H240.6V126.8C240.5 126.9 240.4 127.1 240.3 127.2C240.2 127.3 240 127.4 239.8 127.5C239.6 127.6 239.4 127.6 239.2 127.6C238.7 127.5 238.4 127.4 238.2 127.3Z" fill="#242424"/>
<path d="M243.1 127.3C242.8 127.2 242.6 127 242.5 126.8C242.3 126.6 242.2 126.3 242.2 126.1H243C243 126.3 243.2 126.5 243.3 126.7C243.5 126.8 243.7 126.9 244.1 126.9C244.3 126.9 244.5 126.9 244.7 126.8C244.9 126.7 245 126.7 245.1 126.6C245.2 126.5 245.2 126.4 245.2 126.2C245.2 126 245.1 125.9 245 125.8C244.9 125.7 244.7 125.6 244.4 125.5L243.6 125.3C243.3 125.2 243.1 125.1 242.9 125C242.7 124.9 242.6 124.7 242.5 124.6C242.4 124.5 242.4 124.2 242.4 124C242.4 123.7 242.5 123.5 242.6 123.3C242.7 123.1 243 122.9 243.2 122.8C243.4 122.7 243.8 122.6 244.1 122.6C244.4 122.6 244.8 122.7 245 122.8C245.3 122.9 245.5 123.1 245.6 123.3C245.7 123.5 245.8 123.8 245.9 124V124.1H245.1C245.1 123.9 245 123.7 244.8 123.5C244.6 123.4 244.4 123.3 244.1 123.3C243.9 123.3 243.7 123.3 243.6 123.4C243.5 123.5 243.4 123.5 243.3 123.6C243.2 123.7 243.2 123.8 243.2 124C243.2 124.1 243.2 124.2 243.3 124.3C243.4 124.4 243.4 124.5 243.5 124.5C243.6 124.6 243.8 124.6 243.9 124.7L244.7 124.9C245.2 125 245.5 125.2 245.7 125.4C245.9 125.6 246 125.9 246 126.2C246 126.5 245.9 126.7 245.8 126.9C245.6 127.1 245.4 127.3 245.1 127.4C244.8 127.5 244.5 127.6 244.1 127.6C243.7 127.5 243.4 127.4 243.1 127.3Z" fill="#242424"/>
<path d="M246.9 121.6C246.8 121.5 246.8 121.4 246.8 121.2C246.8 121.1 246.8 120.9 246.9 120.8C247 120.7 247.1 120.7 247.3 120.7C247.4 120.7 247.6 120.7 247.7 120.8C247.8 120.9 247.8 121 247.8 121.2C247.8 121.3 247.8 121.5 247.7 121.6C247.6 121.7 247.5 121.7 247.3 121.7C247.1 121.8 247 121.7 246.9 121.6ZM246.9 122.6H247.7V127.4H246.9V122.6Z" fill="#242424"/>
<path d="M248.3 122.6H249.1L250.4 126.5L251.7 122.6H252.5L250.7 127.4H249.9L248.3 122.6Z" fill="#242424"/>
<path d="M253.9 127.2C253.6 127 253.3 126.7 253.1 126.3C252.9 125.9 252.8 125.5 252.8 125C252.8 124.5 252.9 124.1 253.1 123.7C253.3 123.3 253.5 123 253.9 122.8C254.2 122.6 254.6 122.5 255 122.5C255.4 122.5 255.8 122.6 256.1 122.8C256.4 123 256.7 123.3 256.8 123.6C256.9 123.9 257.1 124.4 257.1 124.9V125.2H253.2V124.6H256.7L256.3 125.2V124.9C256.3 124.5 256.2 124.2 256.1 124C256 123.8 255.8 123.6 255.6 123.5C255.4 123.4 255.2 123.3 254.9 123.3C254.6 123.3 254.4 123.4 254.2 123.5C254 123.6 253.8 123.8 253.7 124.1C253.6 124.3 253.5 124.6 253.5 125V125.3C253.5 125.6 253.6 125.9 253.7 126.2C253.8 126.4 254 126.6 254.2 126.7C254.4 126.8 254.7 126.9 255 126.9C255.2 126.9 255.4 126.9 255.5 126.8C255.7 126.7 255.8 126.7 255.9 126.5C256 126.4 256.1 126.3 256.1 126.1H256.9C256.9 126.3 256.8 126.5 256.7 126.7C256.6 126.9 256.4 127 256.3 127.2C256.2 127.4 255.9 127.4 255.7 127.5C255.5 127.6 255.2 127.6 255 127.6C254.6 127.5 254.2 127.4 253.9 127.2Z" fill="#242424"/>
<path d="M258 120.7H258.8V127.3H258V120.7Z" fill="#242424"/>
<path d="M260.1 129C260 129 260 129 259.9 129V128.3H260H260.1C260.4 128.3 260.6 128.3 260.7 128.2C260.8 128.1 261 127.9 261.1 127.7L261.2 127.4L259.4 122.6H260.3L261.7 126.8L261.5 126.6H261.7L261.5 126.8L262.9 122.6H263.7L261.8 127.7C261.7 128 261.6 128.3 261.4 128.4C261.3 128.6 261.1 128.7 260.9 128.8C260.7 128.9 260.5 128.9 260.2 128.9C260.2 129 260.2 129 260.1 129Z" fill="#242424"/>
<path d="M267.2 127.2C266.9 127 266.6 126.7 266.4 126.3C266.2 125.9 266.1 125.5 266.1 125C266.1 124.5 266.2 124.1 266.4 123.7C266.6 123.3 266.8 123 267.2 122.8C267.5 122.6 267.9 122.5 268.4 122.5C268.8 122.5 269.2 122.6 269.6 122.8C269.9 123 270.2 123.3 270.4 123.7C270.6 124.1 270.7 124.5 270.7 125C270.7 125.5 270.6 125.9 270.4 126.3C270.2 126.7 270 127 269.6 127.2C269.3 127.4 268.9 127.5 268.4 127.5C267.9 127.5 267.5 127.4 267.2 127.2ZM269.1 126.6C269.3 126.5 269.5 126.3 269.6 126C269.7 125.7 269.8 125.4 269.8 125C269.8 124.6 269.7 124.3 269.6 124C269.5 123.7 269.3 123.5 269.1 123.4C268.9 123.3 268.6 123.2 268.4 123.2C268.1 123.2 267.9 123.3 267.7 123.4C267.5 123.5 267.3 123.7 267.2 124C267.1 124.3 267 124.6 267 125C267 125.4 267.1 125.7 267.2 126C267.3 126.3 267.5 126.5 267.7 126.6C267.9 126.7 268.2 126.8 268.4 126.8C268.6 126.8 268.9 126.7 269.1 126.6Z" fill="#242424"/>
<path d="M271.4 122.6H272.2V123.3C272.3 123.1 272.5 122.9 272.8 122.7C273 122.6 273.3 122.5 273.7 122.5C274.2 122.5 274.6 122.7 274.9 123C275.2 123.3 275.3 123.7 275.3 124.3V127.4H274.5V124.4C274.5 124 274.4 123.7 274.2 123.5C274 123.3 273.7 123.2 273.4 123.2C273.1 123.2 272.9 123.3 272.7 123.4C272.5 123.5 272.4 123.7 272.3 123.9C272.2 124.1 272.1 124.3 272.1 124.6V127.4H271.3V122.6H271.4Z" fill="#242424"/>
<path d="M276.4 120.7H277.2V127.3H276.4V120.7Z" fill="#242424"/>
<path d="M278.4 121.6C278.3 121.5 278.3 121.4 278.3 121.2C278.3 121.1 278.3 120.9 278.4 120.8C278.5 120.7 278.6 120.7 278.8 120.7C278.9 120.7 279.1 120.7 279.2 120.8C279.3 120.9 279.3 121 279.3 121.2C279.3 121.3 279.3 121.5 279.2 121.6C279.1 121.7 279 121.7 278.8 121.7C278.6 121.8 278.4 121.7 278.4 121.6ZM278.3 122.6H279.1V127.4H278.3V122.6Z" fill="#242424"/>
<path d="M280.2 122.6H281V123.3C281.1 123.1 281.3 122.9 281.6 122.7C281.8 122.6 282.1 122.5 282.5 122.5C283 122.5 283.4 122.7 283.7 123C284 123.3 284.1 123.7 284.1 124.3V127.4H283.3V124.4C283.3 124 283.2 123.7 283 123.5C282.8 123.3 282.5 123.2 282.2 123.2C281.9 123.2 281.7 123.3 281.5 123.4C281.3 123.5 281.2 123.7 281.1 123.9C281 124.1 280.9 124.3 280.9 124.6V127.4H280.1V122.6H280.2Z" fill="#242424"/>
<path d="M285.9 127.2C285.6 127 285.3 126.7 285.1 126.3C284.9 125.9 284.8 125.5 284.8 125C284.8 124.5 284.9 124.1 285.1 123.7C285.3 123.3 285.5 123 285.9 122.8C286.2 122.6 286.6 122.5 287 122.5C287.4 122.5 287.8 122.6 288.1 122.8C288.4 123 288.7 123.3 288.8 123.6C288.9 123.9 289.1 124.4 289.1 124.9V125.2H285.2V124.6H288.7L288.3 125.2V124.9C288.3 124.5 288.2 124.2 288.1 124C288 123.8 287.8 123.6 287.6 123.5C287.4 123.4 287.2 123.3 286.9 123.3C286.6 123.3 286.4 123.4 286.2 123.5C286 123.6 285.8 123.8 285.7 124.1C285.6 124.3 285.5 124.6 285.5 125V125.3C285.5 125.6 285.6 125.9 285.7 126.2C285.8 126.4 286 126.6 286.2 126.7C286.4 126.8 286.7 126.9 287 126.9C287.2 126.9 287.4 126.9 287.5 126.8C287.7 126.7 287.8 126.7 287.9 126.5C288 126.4 288.1 126.3 288.1 126.1H288.9C288.9 126.3 288.8 126.5 288.7 126.7C288.6 126.9 288.4 127 288.3 127.2C288.2 127.4 287.9 127.4 287.7 127.5C287.5 127.6 287.2 127.6 287 127.6C286.7 127.5 286.3 127.4 285.9 127.2Z" fill="#242424"/>
<path d="M291.9 122.6H292.7V123.3C292.8 123.1 293 122.9 293.3 122.7C293.5 122.6 293.8 122.5 294.2 122.5C294.7 122.5 295.1 122.7 295.4 123C295.7 123.3 295.8 123.7 295.8 124.3V127.4H295V124.4C295 124 294.9 123.7 294.7 123.5C294.5 123.3 294.2 123.2 293.9 123.2C293.6 123.2 293.4 123.3 293.2 123.4C293 123.5 292.9 123.7 292.8 123.9C292.7 124.1 292.6 124.3 292.6 124.6V127.4H291.9V122.6Z" fill="#242424"/>
<path d="M297.7 127.2C297.4 127 297.1 126.7 296.9 126.3C296.7 125.9 296.6 125.5 296.6 125C296.6 124.5 296.7 124.1 296.9 123.7C297.1 123.3 297.3 123 297.7 122.8C298 122.6 298.4 122.5 298.9 122.5C299.3 122.5 299.7 122.6 300.1 122.8C300.4 123 300.7 123.3 300.9 123.7C301.1 124.1 301.2 124.5 301.2 125C301.2 125.5 301.1 125.9 300.9 126.3C300.7 126.7 300.5 127 300.1 127.2C299.8 127.4 299.4 127.5 298.9 127.5C298.4 127.5 298 127.4 297.7 127.2ZM299.6 126.6C299.8 126.5 300 126.3 300.1 126C300.2 125.7 300.3 125.4 300.3 125C300.3 124.6 300.2 124.3 300.1 124C300 123.7 299.8 123.5 299.6 123.4C299.4 123.3 299.1 123.2 298.9 123.2C298.6 123.2 298.4 123.3 298.2 123.4C298 123.5 297.8 123.7 297.7 124C297.6 124.3 297.5 124.6 297.5 125C297.5 125.4 297.6 125.7 297.7 126C297.8 126.3 298 126.5 298.2 126.6C298.4 126.7 298.7 126.8 298.9 126.8C299.1 126.8 299.4 126.7 299.6 126.6Z" fill="#242424"/>
<path d="M301.5 122.6H302.3L303.3 126.5L304.4 122.6H305.2L306.3 126.5L307.3 122.6H308.1L306.8 127.4H306L304.9 123.7L303.8 127.4H303L301.5 122.6Z" fill="#242424"/>
<path d="M309 127.3C308.9 127.2 308.8 127.1 308.8 126.9C308.8 126.8 308.9 126.6 309 126.5C309.1 126.4 309.2 126.4 309.4 126.4C309.5 126.4 309.7 126.4 309.8 126.5C309.9 126.6 309.9 126.7 309.9 126.9C309.9 127 309.9 127.2 309.8 127.3C309.7 127.4 309.6 127.5 309.4 127.5C309.2 127.4 309.1 127.4 309 127.3ZM308.9 120.7H309.7L309.6 125.1H308.9V120.7Z" fill="#242424"/>
<path d="M186.7 138.4C186.2 138.1 185.9 137.7 185.6 137.2C185.4 136.7 185.2 136.1 185.2 135.4C185.2 134.7 185.3 134.1 185.6 133.6C185.8 133.1 186.2 132.7 186.7 132.4C187.2 132.1 187.7 132 188.3 132C188.8 132 189.2 132.1 189.6 132.3C190 132.5 190.3 132.7 190.5 133C190.8 133.3 190.9 133.7 191 134.1H190.2V134C190.1 133.7 190 133.5 189.8 133.3C189.6 133.1 189.4 133 189.2 132.9C189 132.8 188.7 132.7 188.4 132.7C188 132.7 187.6 132.8 187.2 133C186.8 133.2 186.6 133.5 186.4 133.9C186.2 134.3 186.1 134.8 186.1 135.3C186.1 135.8 186.2 136.3 186.4 136.7C186.6 137.1 186.8 137.4 187.2 137.6C187.6 137.8 187.9 137.9 188.3 137.9C188.6 137.9 188.9 137.8 189.1 137.7C189.3 137.6 189.6 137.4 189.7 137.3C189.8 137.2 190 136.9 190.1 136.6H190.9C190.8 137 190.7 137.4 190.4 137.7C190.1 138 189.8 138.3 189.5 138.4C189.1 138.6 188.7 138.7 188.2 138.7C187.7 138.8 187.1 138.7 186.7 138.4Z" fill="#242424"/>
<path d="M192.4 138.6C192.2 138.5 192 138.3 191.8 138.1C191.7 137.9 191.6 137.6 191.6 137.3C191.6 137 191.7 136.8 191.8 136.6C191.9 136.4 192.1 136.2 192.4 136.1C192.7 136 193 135.9 193.3 135.9L195.1 135.8V136.4L193.4 136.5C193.1 136.5 192.8 136.6 192.7 136.7C192.5 136.8 192.4 137 192.4 137.2C192.4 137.4 192.5 137.6 192.7 137.7C192.9 137.8 193.1 137.9 193.4 137.9C193.7 137.9 193.9 137.8 194.1 137.7C194.3 137.6 194.5 137.4 194.6 137.3C194.7 137.1 194.8 136.9 194.8 136.7V135.3C194.8 135 194.7 134.8 194.5 134.6C194.3 134.4 194.1 134.3 193.7 134.3C193.4 134.3 193.1 134.4 193 134.5C192.8 134.6 192.7 134.8 192.6 135H191.8V134.9C191.8 134.6 191.9 134.4 192.1 134.2C192.3 134 192.5 133.8 192.7 133.7C193 133.6 193.3 133.5 193.7 133.5C194.1 133.5 194.4 133.6 194.7 133.7C195 133.8 195.2 134 195.3 134.2C195.5 134.4 195.5 134.7 195.5 135V138.3H194.7V137.5C194.6 137.7 194.5 137.8 194.3 138C194.1 138.2 194 138.2 193.8 138.3C193.6 138.4 193.4 138.4 193.2 138.4C192.9 138.8 192.6 138.7 192.4 138.6Z" fill="#242424"/>
<path d="M197.1 138.5C196.9 138.3 196.8 138 196.8 137.5V134.6H196.1V133.9H196.8V132.6H197.6V133.9H198.5V134.6H197.6V137.5C197.6 137.8 197.7 137.9 197.8 138C197.9 138.1 198.1 138.1 198.3 138.1H198.4H198.5V138.7C198.5 138.7 198.4 138.7 198.3 138.7C198.2 138.7 198.1 138.7 198.1 138.7C197.7 138.8 197.3 138.7 197.1 138.5Z" fill="#242424"/>
<path d="M200.1 138.5C199.8 138.3 199.5 138 199.3 137.6C199.1 137.2 199 136.8 199 136.3C199 135.8 199.1 135.4 199.3 135C199.5 134.6 199.7 134.3 200.1 134.1C200.4 133.9 200.8 133.8 201.3 133.8C201.7 133.8 202 133.9 202.3 134C202.6 134.1 202.8 134.4 203 134.6C203.2 134.8 203.3 135.1 203.3 135.4H202.5C202.4 135.2 202.3 135 202.1 134.8C201.9 134.6 201.6 134.5 201.3 134.5C201 134.5 200.8 134.6 200.6 134.7C200.4 134.8 200.2 135.1 200.1 135.3C200 135.6 199.9 135.9 199.9 136.2C199.9 136.6 200 136.9 200.1 137.2C200.2 137.5 200.4 137.7 200.6 137.8C200.8 137.9 201.1 138 201.3 138C201.6 138 201.9 137.9 202.1 137.7C202.3 137.5 202.4 137.3 202.5 137H203.3C203.3 137.3 203.1 137.6 203 137.8C202.8 138 202.6 138.2 202.3 138.4C202 138.6 201.7 138.6 201.3 138.6C200.8 138.8 200.4 138.7 200.1 138.5Z" fill="#242424"/>
<path d="M204 132H204.8V134.6C204.9 134.3 205.1 134.1 205.4 134C205.7 133.9 206 133.8 206.3 133.8C206.6 133.8 206.9 133.9 207.2 134C207.5 134.1 207.7 134.4 207.8 134.7C207.9 135 208 135.3 208 135.7V138.6H207.2V135.8C207.2 135.4 207.1 135 206.9 134.8C206.7 134.6 206.4 134.4 206 134.4C205.8 134.4 205.5 134.5 205.4 134.6C205.3 134.7 205.1 134.9 205 135.1C204.9 135.3 204.8 135.5 204.8 135.8V138.6H204V132Z" fill="#242424"/>
<path d="M211.2 140.3C211.1 140.3 211.1 140.3 211 140.3V139.6H211.1H211.2C211.5 139.6 211.7 139.6 211.8 139.5C211.9 139.4 212.1 139.2 212.2 139L212.3 138.7L210.5 133.9H211.4L212.8 138.1L212.6 137.9H212.8L212.6 138.1L214 133.9H214.8L212.9 139C212.8 139.3 212.7 139.6 212.5 139.7C212.4 139.9 212.2 140 212 140.1C211.8 140.2 211.6 140.2 211.3 140.2C211.4 140.3 211.3 140.3 211.2 140.3Z" fill="#242424"/>
<path d="M216.2 138.5C215.9 138.3 215.6 138 215.4 137.6C215.2 137.2 215.1 136.8 215.1 136.3C215.1 135.8 215.2 135.4 215.4 135C215.6 134.6 215.8 134.3 216.2 134.1C216.5 133.9 216.9 133.8 217.4 133.8C217.8 133.8 218.2 133.9 218.6 134.1C218.9 134.3 219.2 134.6 219.4 135C219.6 135.4 219.7 135.8 219.7 136.3C219.7 136.8 219.6 137.2 219.4 137.6C219.2 138 219 138.3 218.6 138.5C218.3 138.7 217.9 138.8 217.4 138.8C216.9 138.8 216.5 138.7 216.2 138.5ZM218.1 137.9C218.3 137.8 218.5 137.6 218.6 137.3C218.7 137 218.8 136.7 218.8 136.3C218.8 135.9 218.7 135.6 218.6 135.3C218.5 135 218.3 134.8 218.1 134.7C217.9 134.6 217.6 134.5 217.4 134.5C217.1 134.5 216.9 134.6 216.7 134.7C216.5 134.8 216.3 135 216.2 135.3C216.1 135.6 216 135.9 216 136.3C216 136.7 216.1 137 216.2 137.3C216.3 137.6 216.5 137.8 216.7 137.9C216.9 138 217.2 138.1 217.4 138.1C217.7 138.1 217.9 138 218.1 137.9Z" fill="#242424"/>
<path d="M221.1 138.6C220.9 138.5 220.7 138.3 220.5 138C220.4 137.7 220.3 137.4 220.3 137.1V134H221.1V137C221.1 137.4 221.2 137.7 221.4 137.9C221.6 138.1 221.9 138.2 222.2 138.2C222.4 138.2 222.6 138.2 222.7 138.1C222.8 138 223 137.9 223.1 137.8C223.2 137.7 223.3 137.5 223.4 137.4C223.5 137.2 223.5 137 223.5 136.8V134H224.3V138.8H223.5V138.1C223.4 138.2 223.3 138.4 223.2 138.5C223.1 138.6 222.9 138.7 222.7 138.8C222.5 138.9 222.3 138.9 222.1 138.9C221.7 138.8 221.4 138.7 221.1 138.6Z" fill="#242424"/>
<path d="M225.3 133.9H226.1V134.7C226.2 134.4 226.3 134.2 226.5 134C226.7 133.8 226.9 133.8 227.2 133.8C227.3 133.8 227.3 133.8 227.4 133.8C227.5 133.8 227.5 133.8 227.5 133.8V134.6C227.5 134.6 227.4 134.6 227.3 134.6C227.2 134.6 227.1 134.6 227 134.6C226.8 134.6 226.6 134.6 226.5 134.7C226.3 134.8 226.2 134.9 226.1 135.1C226 135.3 226 135.5 226 135.7V138.7H225.2V133.9H225.3Z" fill="#242424"/>
<path d="M229 138.6C228.7 138.5 228.5 138.3 228.4 138.1C228.2 137.9 228.1 137.6 228.1 137.4H228.9C228.9 137.6 229.1 137.8 229.2 138C229.4 138.1 229.6 138.2 230 138.2C230.2 138.2 230.4 138.2 230.6 138.1C230.8 138 230.9 138 231 137.9C231.1 137.8 231.1 137.7 231.1 137.5C231.1 137.3 231 137.2 230.9 137.1C230.8 137 230.6 136.9 230.3 136.8L229.5 136.6C229.2 136.5 229 136.4 228.8 136.3C228.6 136.2 228.5 136 228.4 135.9C228.3 135.8 228.3 135.5 228.3 135.3C228.3 135 228.4 134.8 228.5 134.6C228.6 134.4 228.9 134.2 229.1 134.1C229.3 134 229.7 133.9 230 133.9C230.3 133.9 230.7 134 230.9 134.1C231.2 134.2 231.4 134.4 231.5 134.6C231.6 134.8 231.7 135.1 231.8 135.3V135.4H230.9C230.9 135.2 230.8 135 230.6 134.8C230.4 134.7 230.2 134.6 229.9 134.6C229.7 134.6 229.5 134.6 229.4 134.7C229.3 134.8 229.2 134.8 229.1 134.9C229 135 229 135.1 229 135.3C229 135.4 229 135.5 229.1 135.6C229.2 135.7 229.2 135.8 229.3 135.8C229.4 135.9 229.6 135.9 229.7 136L230.5 136.2C231 136.3 231.3 136.5 231.5 136.7C231.7 136.9 231.8 137.2 231.8 137.5C231.8 137.8 231.7 138 231.6 138.2C231.4 138.4 231.2 138.6 230.9 138.7C230.6 138.8 230.3 138.9 229.9 138.9C229.6 138.8 229.2 138.7 229 138.6Z" fill="#242424"/>
<path d="M236.3 138.7C236.1 138.6 235.9 138.5 235.8 138.4C235.7 138.3 235.5 138.1 235.4 137.9V138.7H234.6V132.1H235.4V134.8C235.5 134.6 235.6 134.5 235.8 134.3C236 134.1 236.1 134.1 236.3 134C236.5 133.9 236.7 133.9 236.9 133.9C237.3 133.9 237.7 134 238 134.2C238.3 134.4 238.5 134.7 238.7 135.1C238.9 135.5 239 135.9 239 136.4C239 136.9 238.9 137.3 238.7 137.7C238.5 138.1 238.3 138.4 238 138.6C237.7 138.8 237.3 138.9 236.9 138.9C236.7 138.8 236.5 138.7 236.3 138.7ZM237.5 137.9C237.7 137.8 237.9 137.6 238 137.3C238.1 137 238.2 136.7 238.2 136.4C238.2 136 238.1 135.7 238 135.5C237.9 135.2 237.7 135 237.5 134.9C237.3 134.8 237.1 134.7 236.8 134.7C236.5 134.7 236.3 134.8 236.1 134.9C235.9 135 235.7 135.3 235.6 135.5C235.5 135.7 235.4 136.1 235.4 136.4C235.4 136.8 235.5 137.1 235.6 137.3C235.7 137.6 235.9 137.8 236.1 137.9C236.3 138 236.5 138.1 236.8 138.1C237.1 138.1 237.3 138 237.5 137.9Z" fill="#242424"/>
<path d="M240.6 138.5C240.3 138.3 240 138 239.8 137.6C239.6 137.2 239.5 136.8 239.5 136.3C239.5 135.8 239.6 135.4 239.8 135C240 134.6 240.2 134.3 240.6 134.1C240.9 133.9 241.3 133.8 241.7 133.8C242.1 133.8 242.5 133.9 242.8 134.1C243.1 134.3 243.4 134.6 243.5 134.9C243.6 135.2 243.8 135.7 243.8 136.2V136.5H239.9V135.9H243.4L243 136.5V136.2C243 135.8 242.9 135.5 242.8 135.3C242.7 135.1 242.5 134.9 242.3 134.8C242.1 134.7 241.9 134.6 241.6 134.6C241.3 134.6 241.1 134.7 240.9 134.8C240.7 134.9 240.5 135.1 240.4 135.4C240.3 135.6 240.2 135.9 240.2 136.3V136.6C240.2 136.9 240.3 137.2 240.4 137.5C240.5 137.7 240.7 137.9 240.9 138C241.1 138.1 241.4 138.2 241.7 138.2C241.9 138.2 242.1 138.2 242.2 138.1C242.4 138 242.5 138 242.6 137.8C242.7 137.7 242.8 137.6 242.8 137.4H243.6C243.6 137.6 243.5 137.8 243.4 138C243.3 138.2 243.1 138.3 243 138.5C242.9 138.7 242.6 138.7 242.4 138.8C242.2 138.9 241.9 138.9 241.7 138.9C241.3 138.8 240.9 138.7 240.6 138.5Z" fill="#242424"/>
<path d="M244.9 134.6H244.2V133.9H244.9V133.3C244.9 133 244.9 132.7 245 132.5C245.1 132.3 245.2 132.1 245.4 132.1C245.6 132 245.8 132 246.1 132C246.2 132 246.3 132 246.4 132C246.5 132 246.6 132 246.6 132V132.6C246.6 132.6 246.5 132.6 246.4 132.6C246.3 132.6 246.3 132.6 246.2 132.6C246 132.6 245.8 132.7 245.7 132.8C245.6 132.9 245.5 133.1 245.5 133.3V133.9H246.5V134.6H245.5V138.7H244.9V134.6Z" fill="#242424"/>
<path d="M247.8 138.5C247.5 138.3 247.2 138 247 137.6C246.8 137.2 246.7 136.8 246.7 136.3C246.7 135.8 246.8 135.4 247 135C247.2 134.6 247.4 134.3 247.8 134.1C248.1 133.9 248.5 133.8 249 133.8C249.4 133.8 249.8 133.9 250.2 134.1C250.5 134.3 250.8 134.6 251 135C251.2 135.4 251.3 135.8 251.3 136.3C251.3 136.8 251.2 137.2 251 137.6C250.8 138 250.6 138.3 250.2 138.5C249.9 138.7 249.5 138.8 249 138.8C248.5 138.8 248.2 138.7 247.8 138.5ZM249.7 137.9C249.9 137.8 250.1 137.6 250.2 137.3C250.3 137 250.4 136.7 250.4 136.3C250.4 135.9 250.3 135.6 250.2 135.3C250.1 135 249.9 134.8 249.7 134.7C249.5 134.6 249.2 134.5 249 134.5C248.7 134.5 248.5 134.6 248.3 134.7C248.1 134.8 247.9 135 247.8 135.3C247.7 135.6 247.6 135.9 247.6 136.3C247.6 136.7 247.7 137 247.8 137.3C247.9 137.6 248.1 137.8 248.3 137.9C248.5 138 248.8 138.1 249 138.1C249.3 138.1 249.5 138 249.7 137.9Z" fill="#242424"/>
<path d="M252 133.9H252.8V134.7C252.9 134.4 253 134.2 253.2 134C253.4 133.8 253.6 133.8 253.9 133.8C254 133.8 254 133.8 254.1 133.8C254.2 133.8 254.2 133.8 254.2 133.8V134.6C254.2 134.6 254.1 134.6 254 134.6C253.9 134.6 253.8 134.6 253.7 134.6C253.5 134.6 253.3 134.6 253.2 134.7C253 134.8 252.9 134.9 252.8 135.1C252.7 135.3 252.7 135.5 252.7 135.7V138.7H251.9V133.9H252Z" fill="#242424"/>
<path d="M255.5 138.5C255.2 138.3 254.9 138 254.7 137.6C254.5 137.2 254.4 136.8 254.4 136.3C254.4 135.8 254.5 135.4 254.7 135C254.9 134.6 255.1 134.3 255.5 134.1C255.8 133.9 256.2 133.8 256.6 133.8C257 133.8 257.4 133.9 257.7 134.1C258 134.3 258.3 134.6 258.4 134.9C258.5 135.2 258.7 135.7 258.7 136.2V136.5H254.8V135.9H258.3L257.9 136.5V136.2C257.9 135.8 257.8 135.5 257.7 135.3C257.6 135.1 257.4 134.9 257.2 134.8C257 134.7 256.8 134.6 256.5 134.6C256.2 134.6 256 134.7 255.8 134.8C255.6 134.9 255.4 135.1 255.3 135.4C255.2 135.6 255.1 135.9 255.1 136.3V136.6C255.1 136.9 255.2 137.2 255.3 137.5C255.4 137.7 255.6 137.9 255.8 138C256 138.1 256.3 138.2 256.6 138.2C256.8 138.2 257 138.2 257.1 138.1C257.3 138 257.4 138 257.5 137.8C257.6 137.7 257.7 137.6 257.7 137.4H258.5C258.5 137.6 258.4 137.8 258.3 138C258.2 138.2 258 138.3 257.9 138.5C257.8 138.7 257.5 138.7 257.3 138.8C257.1 138.9 256.8 138.9 256.6 138.9C256.2 138.8 255.8 138.7 255.5 138.5Z" fill="#242424"/>
<path d="M261.5 132.9C261.4 132.8 261.4 132.7 261.4 132.5C261.4 132.4 261.4 132.2 261.5 132.1C261.6 132 261.7 132 261.9 132C262 132 262.2 132 262.3 132.1C262.4 132.2 262.4 132.3 262.4 132.5C262.4 132.6 262.4 132.8 262.3 132.9C262.2 133 262.1 133 261.9 133C261.7 133.1 261.6 133 261.5 132.9ZM261.5 133.9H262.3V138.7H261.5V133.9Z" fill="#242424"/>
<path d="M263.9 138.5C263.7 138.3 263.6 138 263.6 137.5V134.6H262.9V133.9H263.6V132.6H264.4V133.9H265.3V134.6H264.4V137.5C264.4 137.8 264.5 137.9 264.6 138C264.7 138.1 264.9 138.1 265.1 138.1H265.2H265.3V138.7C265.3 138.7 265.2 138.7 265.1 138.7C265 138.7 264.9 138.7 264.9 138.7C264.5 138.8 264.2 138.7 263.9 138.5Z" fill="#242424"/>
<path d="M268.1 133.9H268.9V134.7C269 134.4 269.1 134.2 269.3 134C269.5 133.8 269.7 133.8 270 133.8C270.1 133.8 270.1 133.8 270.2 133.8C270.3 133.8 270.3 133.8 270.3 133.8V134.6C270.3 134.6 270.2 134.6 270.1 134.6C270 134.6 269.9 134.6 269.8 134.6C269.6 134.6 269.4 134.6 269.3 134.7C269.1 134.8 269 134.9 268.9 135.1C268.8 135.3 268.8 135.5 268.8 135.7V138.7H268V133.9H268.1Z" fill="#242424"/>
<path d="M271.8 138.6C271.6 138.5 271.4 138.3 271.2 138C271.1 137.7 271 137.4 271 137.1V134H271.8V137C271.8 137.4 271.9 137.7 272.1 137.9C272.3 138.1 272.6 138.2 272.9 138.2C273.1 138.2 273.3 138.2 273.4 138.1C273.5 138 273.7 137.9 273.8 137.8C273.9 137.7 274 137.5 274.1 137.4C274.2 137.2 274.2 137 274.2 136.8V134H275V138.8H274.2V138.1C274.1 138.2 274 138.4 273.9 138.5C273.8 138.6 273.6 138.7 273.4 138.8C273.2 138.9 273 138.9 272.8 138.9C272.3 138.8 272 138.7 271.8 138.6Z" fill="#242424"/>
<path d="M276 133.9H276.8V134.6C276.9 134.4 277.1 134.2 277.4 134C277.6 133.9 277.9 133.8 278.3 133.8C278.8 133.8 279.2 134 279.5 134.3C279.8 134.6 279.9 135 279.9 135.6V138.7H279.1V135.7C279.1 135.3 279 135 278.8 134.8C278.6 134.6 278.3 134.5 278 134.5C277.7 134.5 277.5 134.6 277.3 134.7C277.1 134.8 277 135 276.9 135.2C276.8 135.4 276.7 135.6 276.7 135.9V138.7H275.9V133.9H276Z" fill="#242424"/>
<path d="M281.7 138.6C281.4 138.5 281.2 138.3 281.1 138.1C280.9 137.9 280.8 137.6 280.8 137.4H281.6C281.6 137.6 281.8 137.8 281.9 138C282.1 138.1 282.3 138.2 282.7 138.2C282.9 138.2 283.1 138.2 283.3 138.1C283.5 138 283.6 138 283.7 137.9C283.8 137.8 283.8 137.7 283.8 137.5C283.8 137.3 283.7 137.2 283.6 137.1C283.5 137 283.3 136.9 283 136.8L282.2 136.6C281.9 136.5 281.7 136.4 281.5 136.3C281.3 136.2 281.2 136 281.1 135.9C281 135.8 281 135.5 281 135.3C281 135 281.1 134.8 281.2 134.6C281.3 134.4 281.6 134.2 281.8 134.1C282 134 282.4 133.9 282.7 133.9C283 133.9 283.4 134 283.6 134.1C283.9 134.2 284.1 134.4 284.2 134.6C284.3 134.8 284.4 135.1 284.5 135.3V135.4H283.7C283.7 135.2 283.6 135 283.4 134.8C283.2 134.7 283 134.6 282.7 134.6C282.5 134.6 282.3 134.6 282.2 134.7C282.1 134.8 282 134.8 281.9 134.9C281.8 135 281.8 135.1 281.8 135.3C281.8 135.4 281.8 135.5 281.9 135.6C282 135.7 282 135.8 282.1 135.8C282.2 135.9 282.4 135.9 282.5 136L283.3 136.2C283.8 136.3 284.1 136.5 284.3 136.7C284.5 136.9 284.6 137.2 284.6 137.5C284.6 137.8 284.5 138 284.4 138.2C284.2 138.4 284 138.6 283.7 138.7C283.4 138.8 283.1 138.9 282.7 138.9C282.3 138.8 282 138.7 281.7 138.6Z" fill="#242424"/>
<path d="M288.1 138.5C287.8 138.3 287.5 138 287.3 137.6C287.1 137.2 287 136.8 287 136.3C287 135.8 287.1 135.4 287.3 135C287.5 134.6 287.7 134.3 288.1 134.1C288.4 133.9 288.8 133.8 289.3 133.8C289.7 133.8 290.1 133.9 290.5 134.1C290.8 134.3 291.1 134.6 291.3 135C291.5 135.4 291.6 135.8 291.6 136.3C291.6 136.8 291.5 137.2 291.3 137.6C291.1 138 290.9 138.3 290.5 138.5C290.2 138.7 289.8 138.8 289.3 138.8C288.8 138.8 288.4 138.7 288.1 138.5ZM290 137.9C290.2 137.8 290.4 137.6 290.5 137.3C290.6 137 290.7 136.7 290.7 136.3C290.7 135.9 290.6 135.6 290.5 135.3C290.4 135 290.2 134.8 290 134.7C289.8 134.6 289.5 134.5 289.3 134.5C289 134.5 288.8 134.6 288.6 134.7C288.4 134.8 288.2 135 288.1 135.3C288 135.6 287.9 135.9 287.9 136.3C287.9 136.7 288 137 288.1 137.3C288.2 137.6 288.4 137.8 288.6 137.9C288.8 138 289.1 138.1 289.3 138.1C289.6 138.1 289.8 138 290 137.9Z" fill="#242424"/>
<path d="M293 138.6C292.8 138.5 292.6 138.3 292.4 138C292.3 137.7 292.2 137.4 292.2 137.1V134H293V137C293 137.4 293.1 137.7 293.3 137.9C293.5 138.1 293.8 138.2 294.1 138.2C294.3 138.2 294.5 138.2 294.6 138.1C294.7 138 294.9 137.9 295 137.8C295.1 137.7 295.2 137.5 295.3 137.4C295.4 137.2 295.4 137 295.4 136.8V134H296.2V138.8H295.4V138.1C295.3 138.2 295.2 138.4 295.1 138.5C295 138.6 294.8 138.7 294.6 138.8C294.4 138.9 294.2 138.9 294 138.9C293.6 138.8 293.3 138.7 293 138.6Z" fill="#242424"/>
<path d="M297.8 138.5C297.6 138.3 297.5 138 297.5 137.5V134.6H296.8V133.9H297.5V132.6H298.3V133.9H299.2V134.6H298.3V137.5C298.3 137.8 298.4 137.9 298.5 138C298.6 138.1 298.8 138.1 299 138.1H299.1H299.2V138.7C299.2 138.7 299.1 138.7 299 138.7C298.9 138.7 298.8 138.7 298.8 138.7C298.4 138.8 298 138.7 297.8 138.5Z" fill="#242424"/>
<path d="M300.2 138.6C300.1 138.5 300 138.4 300 138.2C300 138 300.1 137.9 300.2 137.8C300.3 137.7 300.4 137.6 300.6 137.6C300.7 137.6 300.9 137.7 301 137.8C301.1 137.9 301.2 138 301.2 138.2C301.2 138.4 301.1 138.5 301 138.6C300.9 138.7 300.8 138.8 300.6 138.8C300.4 138.8 300.3 138.7 300.2 138.6Z" fill="#242424"/>
<path d="M187.7 150.1H236.4C238 150.1 239.3 151.4 239.3 153V165.9C239.3 167.5 238 168.8 236.4 168.8H187.7C186.1 168.8 184.8 167.5 184.8 165.9V153C184.8 151.4 186.1 150.1 187.7 150.1Z" fill="#DE5B37"/>
<path d="M195.4 156.8H196.4V162.3H195.4V156.8ZM195.8 161.5H197.4C197.8 161.5 198 161.4 198.2 161.3C198.4 161.2 198.5 160.9 198.5 160.7C198.5 160.5 198.5 160.4 198.4 160.2C198.3 160 198.2 160 198 159.9C197.8 159.8 197.6 159.8 197.4 159.8H195.9V159.1H197.3C197.7 159.1 197.9 159 198.1 158.9C198.3 158.8 198.4 158.6 198.4 158.3C198.4 158.1 198.3 157.9 198.2 157.7C198 157.6 197.8 157.5 197.5 157.5H195.9V156.8H197.7C198 156.8 198.3 156.9 198.6 157C198.8 157.1 199 157.3 199.2 157.5C199.4 157.7 199.4 158 199.4 158.2C199.4 158.4 199.4 158.6 199.3 158.8C199.2 159 199.1 159.1 198.9 159.2C198.7 159.3 198.6 159.4 198.4 159.4C198.7 159.4 198.9 159.5 199.1 159.6C199.3 159.7 199.5 159.9 199.6 160.1C199.7 160.3 199.8 160.5 199.8 160.8C199.8 161.1 199.7 161.4 199.6 161.6C199.5 161.8 199.2 162 198.9 162.1C198.6 162.2 198.3 162.3 197.9 162.3H196.1V161.5H195.8Z" fill="white"/>
<path d="M200.8 162.2C200.6 162.1 200.4 161.9 200.3 161.7C200.2 161.5 200.1 161.2 200.1 160.9V158.3H201.1V160.7C201.1 161 201.2 161.2 201.3 161.4C201.4 161.6 201.6 161.6 201.9 161.6C202 161.6 202.2 161.6 202.3 161.5C202.4 161.5 202.5 161.4 202.6 161.3C202.7 161.2 202.7 161.1 202.8 161C202.8 160.9 202.9 160.7 202.9 160.6V158.2H203.9V162.3H202.9V161.7C202.8 161.8 202.7 162 202.6 162.1C202.5 162.2 202.3 162.3 202.2 162.4C202 162.5 201.9 162.5 201.7 162.5C201.3 162.4 201 162.3 200.8 162.2Z" fill="white"/>
<path d="M204.9 163.6C204.8 163.6 204.7 163.6 204.7 163.6V162.9H204.8C204.9 162.9 204.9 162.9 205 162.9C205.2 162.9 205.3 162.9 205.4 162.8C205.5 162.7 205.6 162.6 205.7 162.4L205.8 162.2L204.3 158.1H205.3L206.3 161.6L206.2 161.4H206.4L206.3 161.6L207.3 158.1H208.3L206.8 162.3C206.7 162.6 206.6 162.8 206.4 163C206.3 163.2 206.1 163.3 205.9 163.4C205.7 163.5 205.4 163.5 205.2 163.5C205 163.7 204.9 163.7 204.9 163.6Z" fill="white"/>
<path d="M210.3 156.8H211.2L214.4 161.5L213.5 160.7H213.9V156.8H214.9V162.3H214L210.8 157.6L211.7 158.4H211.3V162.3H210.3V156.8Z" fill="white"/>
<path d="M216.6 162.1C216.3 161.9 216.1 161.7 215.9 161.4C215.7 161.1 215.7 160.7 215.7 160.3C215.7 159.9 215.8 159.5 215.9 159.2C216 158.9 216.3 158.6 216.6 158.5C216.9 158.4 217.2 158.2 217.6 158.2C218 158.2 218.3 158.3 218.6 158.5C218.9 158.7 219.1 158.9 219.3 159.2C219.5 159.5 219.5 159.9 219.5 160.3C219.5 160.7 219.4 161.1 219.3 161.4C219.2 161.7 218.9 162 218.6 162.1C218.3 162.2 218 162.4 217.6 162.4C217.2 162.4 216.9 162.3 216.6 162.1ZM218.2 161.5C218.3 161.4 218.5 161.2 218.5 161C218.6 160.8 218.6 160.6 218.6 160.3C218.6 160 218.6 159.8 218.5 159.6C218.4 159.4 218.3 159.2 218.2 159.1C218.1 159 217.9 158.9 217.7 158.9C217.5 158.9 217.3 159 217.2 159.1C217.1 159.2 216.9 159.4 216.9 159.6C216.8 159.8 216.8 160 216.8 160.3C216.8 160.6 216.8 160.8 216.9 161C217 161.2 217.1 161.4 217.2 161.5C217.3 161.6 217.5 161.7 217.7 161.7C217.8 161.6 218 161.6 218.2 161.5Z" fill="white"/>
<path d="M219.9 158.2H220.9L221.6 161.3L222.4 158.2H223.3L224.1 161.3L224.8 158.2H225.7L224.6 162.3H223.6L222.8 159.3L222 162.3H221L219.9 158.2Z" fill="white"/>
<path d="M373.2 77.3999L378.9 71.7" stroke="#191919" stroke-width="0.9115" stroke-linecap="round" stroke-linejoin="round"/>
<path d="M378.9 77.3999L373.2 71.7" stroke="#191919" stroke-width="0.9115" stroke-linecap="round" stroke-linejoin="round"/>
<path d="M138.4 74.2H170.3C172.2 74.2 173.8 75.8 173.8 77.7V109.6C173.8 111.5 172.2 113.1 170.3 113.1H138.4C136.5 113.1 134.9 111.5 134.9 109.6V77.7C135 75.8 136.5 74.2 138.4 74.2Z" fill="white"/>
<path d="M171.5 96.2999C167.8 90.3999 168.3 84.3999 166.5 81.5999C164.7 78.7999 159.3 73.7999 146.3 82.0999C133.3 90.2999 136.4 99.5999 138.4 102.7C147.5 117.3 178 106.8 171.5 96.2999Z" fill="#F0F0F0"/>
<path d="M164.9 88.9V91.1H145.8V85.2H164.9V86.9" fill="#FFCF48"/>
<path d="M164.9 88.9V91.1H145.8V85.2H164.9V86.9" stroke="#0F0F1C" stroke-miterlimit="10" stroke-linejoin="round"/>
<path d="M162.8 91.0999H147.9V101.8H162.7V91.0999H162.8Z" fill="#FFCF48" stroke="#0F0F1C" stroke-miterlimit="10" stroke-linejoin="round"/>
<path d="M155.4 85.5V101.5" stroke="#0F0F1C" stroke-miterlimit="10" stroke-linejoin="round"/>
<path d="M155.4 84.9C155.4 84.9 160.2 77.5 161.9 84.8" stroke="#0F0F1C" stroke-miterlimit="10" stroke-linejoin="round"/>
<path d="M155.3 84.9C155.3 84.9 150.5 77.5 148.8 84.8" stroke="#0F0F1C" stroke-miterlimit="10" stroke-linejoin="round"/>
<path d="M144.4 104.7V105.2C144.4 105.7 144 106.1 143.5 106.1H140.9C140.4 106.1 140 105.7 140 105.2V94.9998C140 94.4998 140.4 94.0999 140.9 94.0999H143.5C144 94.0999 144.4 94.4998 144.4 94.9998V96.0999V104.7Z" fill="#F0F0F0"/>
<path d="M151.4 107C147.6 106.5 145.6 105.5 144.4 104.7V96.0999C144.8 96.0999 149.2 96.4999 151.3 98.2999C153.5 100.2 158.9 96.4999 159.6 101.6L159.7 101.9L168.6 98.1998C168.8 98.0998 169 98.0999 169.2 98.0999C170 98.1999 170.5 98.7998 170.5 99.4998C170.5 99.6998 170.5 99.8998 170.4 99.9998C170.4 99.9998 170 100.7 169.4 101.2L161.2 106.1" fill="#F0F0F0"/>
<path d="M144.4 96.0999C144.8 96.0999 149.2 96.4999 151.3 98.2999C153.5 100.2 158.9 96.4999 159.6 101.6" stroke="#0F0F1C" stroke-miterlimit="10" stroke-linejoin="round"/>
<path d="M151.4 107C147.6 106.5 145.6 105.5 144.4 104.7" stroke="#0F0F1C" stroke-miterlimit="10" stroke-linejoin="round"/>
<path d="M154.2 101.9H159.7H159.8L168.7 98.1998C168.9 98.0998 169.1 98.0999 169.3 98.0999C170.1 98.1999 170.6 98.7998 170.6 99.4998C170.6 99.6998 170.6 99.8998 170.5 99.9998C170.5 99.9998 170.1 100.7 169.5 101.2L161.3 106.1C161.3 106.1 159.4 107.8 153.4 107.3" stroke="#0F0F1C" stroke-miterlimit="10" stroke-linejoin="round"/>
<path d="M144.4 104.7V105.2C144.4 105.7 144 106.1 143.5 106.1H140.9C140.4 106.1 140 105.7 140 105.2V101.5V98.7999V94.9998C140 94.4998 140.4 94.0999 140.9 94.0999H143.5C144 94.0999 144.4 94.4998 144.4 94.9998V96.0999V104.7Z" fill="#FFCF48" stroke="#0F0F1C" stroke-miterlimit="10" stroke-linejoin="round"/>
<path d="M166.1 77.7L167.1 79.6L168.9 80.6L167.1 81.6L166.1 83.4L165.1 81.6L163.3 80.6L165.1 79.6L166.1 77.7Z" fill="#FFCF48" stroke="#0F0F1C" stroke-miterlimit="10" stroke-linejoin="round"/>
<path d="M168 95.2C168.8 95.2 169.5 94.5 169.5 93.7C169.5 92.9 168.8 92.2 168 92.2C167.2 92.2 166.5 92.9 166.5 93.7C166.5 94.5 167.2 95.2 168 95.2Z" stroke="#0F0F1C" stroke-miterlimit="10" stroke-linejoin="round"/>
<path d="M167.2 108C167.8 108 168.3 107.5 168.3 106.9C168.3 106.3 167.8 105.8 167.2 105.8C166.6 105.8 166.1 106.3 166.1 106.9C166.1 107.5 166.6 108 167.2 108Z" stroke="#0F0F1C" stroke-miterlimit="10" stroke-linejoin="round"/>
<path d="M141.9 88.0999L140.1 89.8999L141.9 91.6998L143.7 89.8999L141.9 88.0999Z" stroke="#0F0F1C" stroke-miterlimit="10" stroke-linejoin="round"/>
<path d="M141.7 79.1999V77.2" stroke="#0F0F1C" stroke-miterlimit="10" stroke-linejoin="round"/>
<path d="M143.3 80.8999H145.3" stroke="#0F0F1C" stroke-miterlimit="10" stroke-linejoin="round"/>
<path d="M141.7 82.5V84.5" stroke="#0F0F1C" stroke-miterlimit="10" stroke-linejoin="round"/>
<path d="M140.1 80.8999H138.1" stroke="#0F0F1C" stroke-miterlimit="10" stroke-linejoin="round"/>
<path opacity="0.1" d="M147.6 85.1L149.2 91L150.2 97.4L147.8 96.5L148 91L145.9 90.9V85H147.6V85.1Z" fill="#0F0F1C"/>
<path opacity="0.1" d="M146.7 96.4C146.7 96.4 147.2 105.1 149.2 106.6L145 105.1L144.3 102.7L144.6 97L145.9 96.2L146.7 96.4Z" fill="#0F0F1C"/>
</svg>
