<svg width="188" height="32" viewBox="0 0 188 32" fill="none" xmlns="http://www.w3.org/2000/svg">
<rect width="32" height="32" rx="8" fill="#FFCF48"/>
<path fill-rule="evenodd" clip-rule="evenodd" d="M8.97471 13.3707C8.97471 13.1703 9.1459 12.9747 9.39838 12.9747H16.6398C16.9977 12.9747 17.3432 13.0913 17.6223 13.303L18.762 14.1675L19.2145 13.571L18.762 14.1675C19.079 14.408 19.2583 14.7731 19.2583 15.1531C19.2583 15.4916 19.1161 15.8196 18.8579 16.0584L15.2134 19.4284C14.9188 19.7009 14.5254 19.8555 14.113 19.8555H11.2471C10.9139 19.8555 10.6773 19.5958 10.6773 19.3162C10.6773 19.1981 10.7184 19.081 10.7978 18.9847L11.9022 17.6443C12.2098 17.271 12.3798 16.8025 12.3798 16.3168C12.3798 15.4143 11.8004 14.626 10.9589 14.3342L10.6355 15.2671L10.9589 14.3342L9.25136 13.7421C9.07547 13.6811 8.97471 13.5262 8.97471 13.3707ZM9.39838 11C8.09229 11 7 12.0431 7 13.3707C7 14.3877 7.65292 15.2779 8.60441 15.6078L10.312 16.2C10.3779 16.2228 10.4051 16.2757 10.4051 16.3168C10.4051 16.3403 10.397 16.3658 10.3782 16.3886L9.27375 17.729C8.90554 18.1759 8.70254 18.736 8.70254 19.3162C8.70254 20.723 9.86027 21.8303 11.2471 21.8303H14.113C15.0173 21.8303 15.8908 21.4916 16.554 20.8783L20.1986 17.5082C20.8561 16.9002 21.233 16.0488 21.233 15.1531C21.233 14.1462 20.7573 13.2025 19.9554 12.5942L18.8157 11.7297C18.1906 11.2555 17.4252 11 16.6398 11H9.39838ZM20.4557 11.3548L20.4555 11.3549L22.6714 14.0101C22.9397 14.3317 23.0619 14.7418 23.0159 15.1479L22.9081 16.0997C22.871 16.4263 22.7269 16.7353 22.4933 16.9796L18.2419 21.4256L18.294 21.4754H20.9265L23.9205 18.3443C24.4496 17.7911 24.7841 17.0819 24.8702 16.3221L24.9781 15.3703C25.0854 14.4234 24.7984 13.477 24.1875 12.7449L23.0274 11.3548H20.4557Z" fill="#1E1D25"/>
<path d="M47.584 24.812C46.64 24.812 45.736 24.664 44.872 24.368C44.008 24.064 43.252 23.632 42.604 23.072C41.956 22.504 41.488 21.828 41.2 21.044L44.584 19.796C44.664 20.028 44.84 20.252 45.112 20.468C45.392 20.684 45.744 20.864 46.168 21.008C46.592 21.144 47.064 21.212 47.584 21.212C48.064 21.212 48.516 21.144 48.94 21.008C49.364 20.864 49.708 20.668 49.972 20.42C50.236 20.172 50.368 19.884 50.368 19.556C50.368 19.22 50.228 18.944 49.948 18.728C49.676 18.504 49.324 18.328 48.892 18.2C48.468 18.064 48.032 17.964 47.584 17.9C46.368 17.724 45.276 17.436 44.308 17.036C43.348 16.628 42.588 16.068 42.028 15.356C41.476 14.644 41.2 13.74 41.2 12.644C41.2 11.596 41.496 10.68 42.088 9.896C42.68 9.104 43.46 8.488 44.428 8.048C45.404 7.608 46.456 7.388 47.584 7.388C48.528 7.388 49.432 7.54 50.296 7.844C51.168 8.14 51.928 8.572 52.576 9.14C53.224 9.708 53.688 10.388 53.968 11.18L50.584 12.404C50.504 12.172 50.324 11.952 50.044 11.744C49.772 11.528 49.424 11.352 49 11.216C48.576 11.08 48.104 11.012 47.584 11.012C47.12 11.004 46.676 11.072 46.252 11.216C45.828 11.36 45.48 11.556 45.208 11.804C44.936 12.052 44.8 12.332 44.8 12.644C44.8 13.076 44.928 13.4 45.184 13.616C45.44 13.824 45.776 13.972 46.192 14.06C46.616 14.148 47.08 14.228 47.584 14.3C48.736 14.468 49.796 14.768 50.764 15.2C51.732 15.632 52.508 16.208 53.092 16.928C53.676 17.648 53.968 18.524 53.968 19.556C53.968 20.604 53.672 21.524 53.08 22.316C52.496 23.1 51.72 23.712 50.752 24.152C49.784 24.592 48.728 24.812 47.584 24.812ZM55.8925 20.144V12.5H59.4925V19.136C59.4925 19.512 59.5845 19.856 59.7685 20.168C59.9525 20.472 60.1965 20.716 60.5005 20.9C60.8125 21.076 61.1525 21.164 61.5205 21.164C61.8965 21.164 62.2365 21.076 62.5405 20.9C62.8525 20.716 63.0965 20.472 63.2725 20.168C63.4565 19.856 63.5485 19.512 63.5485 19.136V12.5H67.1485L67.1605 24.5H63.5605L63.5485 23.72C63.1485 24.064 62.6925 24.332 62.1805 24.524C61.6685 24.716 61.1285 24.812 60.5605 24.812C59.7045 24.812 58.9205 24.604 58.2085 24.188C57.5045 23.764 56.9405 23.2 56.5165 22.496C56.1005 21.792 55.8925 21.008 55.8925 20.144ZM72.5847 30.5H68.9847V12.5H72.5847V13.628C72.9607 13.204 73.3967 12.86 73.8927 12.596C74.3887 12.324 74.9607 12.188 75.6087 12.188C76.4887 12.188 77.3087 12.352 78.0687 12.68C78.8287 13.008 79.4967 13.464 80.0727 14.048C80.6567 14.624 81.1087 15.292 81.4287 16.052C81.7567 16.812 81.9207 17.628 81.9207 18.5C81.9207 19.372 81.7567 20.192 81.4287 20.96C81.1087 21.728 80.6567 22.404 80.0727 22.988C79.4967 23.564 78.8287 24.016 78.0687 24.344C77.3087 24.672 76.4887 24.836 75.6087 24.836C74.9607 24.836 74.3887 24.7 73.8927 24.428C73.3967 24.156 72.9607 23.812 72.5847 23.396V30.5ZM75.5607 15.644C75.0727 15.644 74.6247 15.776 74.2167 16.04C73.8167 16.296 73.4967 16.64 73.2567 17.072C73.0167 17.504 72.8967 17.98 72.8967 18.5C72.8967 19.028 73.0167 19.508 73.2567 19.94C73.4967 20.372 73.8167 20.716 74.2167 20.972C74.6247 21.228 75.0727 21.356 75.5607 21.356C76.0567 21.356 76.5087 21.228 76.9167 20.972C77.3247 20.716 77.6487 20.372 77.8887 19.94C78.1287 19.508 78.2487 19.028 78.2487 18.5C78.2487 17.98 78.1287 17.504 77.8887 17.072C77.6487 16.64 77.3247 16.296 76.9167 16.04C76.5087 15.776 76.0567 15.644 75.5607 15.644ZM83.8589 24.5L83.8469 12.5H87.4469L87.4589 13.256C87.8589 12.912 88.3149 12.644 88.8269 12.452C89.3389 12.26 89.8789 12.164 90.4469 12.164C90.8789 12.164 91.3189 12.228 91.7669 12.356L90.3509 16.004C90.0709 15.876 89.7829 15.812 89.4869 15.812C89.1109 15.812 88.7669 15.904 88.4549 16.088C88.1509 16.264 87.9069 16.508 87.7229 16.82C87.5469 17.124 87.4589 17.464 87.4589 17.84V24.5H83.8589ZM93.2012 24.5V7.7H100.041C100.961 7.7 101.793 7.932 102.537 8.396C103.281 8.86 103.869 9.484 104.301 10.268C104.741 11.044 104.961 11.9 104.961 12.836C104.961 13.556 104.841 14.228 104.601 14.852C104.361 15.468 104.017 16.016 103.569 16.496C103.129 16.968 102.609 17.348 102.009 17.636L105.993 24.5H101.841L98.0493 17.972H96.8012V24.5H93.2012ZM96.8012 14.372H99.6093C99.9292 14.372 100.221 14.292 100.485 14.132C100.749 13.964 100.961 13.744 101.121 13.472C101.281 13.2 101.361 12.9 101.361 12.572C101.361 12.244 101.281 11.944 101.121 11.672C100.961 11.4 100.749 11.184 100.485 11.024C100.221 10.856 99.9292 10.772 99.6093 10.772H96.8012V14.372ZM112.476 24.812C111.372 24.812 110.364 24.528 109.452 23.96C108.548 23.392 107.824 22.628 107.28 21.668C106.744 20.708 106.476 19.648 106.476 18.488C106.476 17.616 106.632 16.8 106.944 16.04C107.256 15.272 107.684 14.6 108.228 14.024C108.78 13.44 109.42 12.984 110.148 12.656C110.876 12.328 111.652 12.164 112.476 12.164C113.436 12.164 114.312 12.376 115.104 12.8C115.904 13.216 116.576 13.784 117.12 14.504C117.672 15.216 118.064 16.02 118.296 16.916C118.528 17.812 118.552 18.736 118.368 19.688H110.364C110.476 19.968 110.624 20.224 110.808 20.456C111 20.68 111.232 20.86 111.504 20.996C111.784 21.132 112.108 21.204 112.476 21.212C112.828 21.22 113.152 21.144 113.448 20.984C113.752 20.824 114.016 20.608 114.24 20.336L117.912 21.188C117.424 22.252 116.696 23.124 115.728 23.804C114.76 24.476 113.676 24.812 112.476 24.812ZM110.232 17.048H114.732C114.62 16.704 114.452 16.4 114.228 16.136C114.004 15.872 113.74 15.664 113.436 15.512C113.14 15.36 112.82 15.284 112.476 15.284C112.14 15.284 111.82 15.36 111.516 15.512C111.22 15.664 110.96 15.872 110.736 16.136C110.52 16.4 110.352 16.704 110.232 17.048ZM126.601 24.5H123.073L119.065 12.5H122.593L124.849 19.244L127.081 12.5H130.585L132.817 19.244L135.073 12.5H138.601L134.593 24.5H131.065L128.833 17.756L126.601 24.5ZM148.537 12.5H152.137V24.5H148.525L148.357 23.42C148.061 23.836 147.685 24.172 147.229 24.428C146.781 24.684 146.257 24.812 145.657 24.812C144.761 24.812 143.921 24.644 143.137 24.308C142.361 23.972 141.677 23.508 141.085 22.916C140.493 22.316 140.029 21.628 139.693 20.852C139.365 20.068 139.201 19.228 139.201 18.332C139.201 17.476 139.357 16.676 139.669 15.932C139.981 15.188 140.417 14.536 140.977 13.976C141.545 13.408 142.197 12.964 142.933 12.644C143.677 12.324 144.473 12.164 145.321 12.164C146.009 12.164 146.633 12.308 147.193 12.596C147.761 12.876 148.265 13.228 148.705 13.652L148.537 12.5ZM145.561 21.356C146.057 21.356 146.509 21.228 146.917 20.972C147.325 20.716 147.649 20.372 147.889 19.94C148.129 19.508 148.249 19.028 148.249 18.5C148.249 17.972 148.129 17.492 147.889 17.06C147.649 16.628 147.325 16.284 146.917 16.028C146.509 15.772 146.057 15.644 145.561 15.644C145.065 15.644 144.613 15.772 144.205 16.028C143.805 16.284 143.485 16.628 143.245 17.06C143.013 17.492 142.897 17.972 142.897 18.5C142.897 19.028 143.017 19.508 143.257 19.94C143.497 20.372 143.817 20.716 144.217 20.972C144.625 21.228 145.073 21.356 145.561 21.356ZM154.678 24.5L154.666 12.5H158.266L158.278 13.256C158.678 12.912 159.134 12.644 159.646 12.452C160.158 12.26 160.698 12.164 161.266 12.164C161.698 12.164 162.138 12.228 162.586 12.356L161.17 16.004C160.89 15.876 160.602 15.812 160.306 15.812C159.93 15.812 159.586 15.904 159.274 16.088C158.97 16.264 158.726 16.508 158.542 16.82C158.366 17.124 158.278 17.464 158.278 17.84V24.5H154.678ZM172.074 6.5H175.674V24.5H172.074V23.396C171.706 23.812 171.266 24.152 170.754 24.416C170.25 24.68 169.674 24.812 169.026 24.812C168.154 24.812 167.338 24.648 166.578 24.32C165.818 23.992 165.146 23.54 164.562 22.964C163.986 22.38 163.534 21.708 163.206 20.948C162.878 20.188 162.714 19.372 162.714 18.5C162.714 17.628 162.878 16.812 163.206 16.052C163.534 15.292 163.986 14.624 164.562 14.048C165.146 13.464 165.818 13.008 166.578 12.68C167.338 12.352 168.154 12.188 169.026 12.188C169.674 12.188 170.25 12.32 170.754 12.584C171.266 12.84 171.706 13.18 172.074 13.604V6.5ZM169.074 21.356C169.57 21.356 170.022 21.228 170.43 20.972C170.838 20.716 171.162 20.372 171.402 19.94C171.642 19.508 171.762 19.028 171.762 18.5C171.762 17.972 171.642 17.492 171.402 17.06C171.162 16.628 170.838 16.284 170.43 16.028C170.022 15.772 169.57 15.644 169.074 15.644C168.578 15.644 168.126 15.772 167.718 16.028C167.318 16.284 166.998 16.628 166.758 17.06C166.526 17.492 166.41 17.972 166.41 18.5C166.41 19.028 166.53 19.508 166.77 19.94C167.01 20.372 167.33 20.716 167.73 20.972C168.138 21.228 168.586 21.356 169.074 21.356ZM182.127 24.716C181.519 24.66 180.935 24.528 180.375 24.32C179.815 24.112 179.315 23.828 178.875 23.468C178.435 23.108 178.087 22.668 177.831 22.148L180.855 20.852C180.935 20.94 181.047 21.052 181.191 21.188C181.335 21.316 181.515 21.432 181.731 21.536C181.955 21.64 182.223 21.692 182.535 21.692C182.743 21.692 182.943 21.672 183.135 21.632C183.335 21.584 183.495 21.504 183.615 21.392C183.743 21.28 183.807 21.124 183.807 20.924C183.807 20.7 183.723 20.532 183.555 20.42C183.395 20.3 183.199 20.216 182.967 20.168C182.735 20.112 182.519 20.068 182.319 20.036C181.607 19.924 180.923 19.7 180.267 19.364C179.619 19.02 179.087 18.576 178.671 18.032C178.255 17.48 178.047 16.836 178.047 16.1C178.047 15.276 178.259 14.564 178.683 13.964C179.107 13.364 179.659 12.904 180.339 12.584C181.027 12.256 181.767 12.092 182.559 12.092C183.495 12.092 184.359 12.284 185.151 12.668C185.951 13.052 186.607 13.604 187.119 14.324L184.287 16.004C184.191 15.884 184.071 15.764 183.927 15.644C183.791 15.516 183.631 15.408 183.447 15.32C183.271 15.224 183.079 15.164 182.871 15.14C182.591 15.116 182.339 15.128 182.115 15.176C181.899 15.216 181.727 15.304 181.599 15.44C181.471 15.568 181.407 15.756 181.407 16.004C181.407 16.236 181.519 16.404 181.743 16.508C181.967 16.612 182.219 16.688 182.499 16.736C182.779 16.784 183.007 16.836 183.183 16.892C183.871 17.116 184.519 17.408 185.127 17.768C185.735 18.128 186.223 18.564 186.591 19.076C186.967 19.588 187.143 20.188 187.119 20.876C187.119 21.676 186.879 22.38 186.399 22.988C185.919 23.596 185.299 24.056 184.539 24.368C183.779 24.68 182.975 24.796 182.127 24.716Z" fill="#1E1D25"/>
</svg>
