<svg width="576" height="576" viewBox="0 0 576 576" fill="none" xmlns="http://www.w3.org/2000/svg">
<path d="M433.6 457.2H528.5" stroke="black" stroke-width="2" stroke-miterlimit="10" stroke-linecap="round" stroke-linejoin="round"/>
<path d="M433.6 479.2H528.5" stroke="black" stroke-width="2" stroke-miterlimit="10" stroke-linecap="round" stroke-linejoin="round"/>
<path d="M433.6 501.3H528.5" stroke="black" stroke-width="2" stroke-miterlimit="10" stroke-linecap="round" stroke-linejoin="round"/>
<path d="M433.6 523.3H528.5" stroke="black" stroke-width="2" stroke-miterlimit="10" stroke-linecap="round" stroke-linejoin="round"/>
<path d="M448 536.3V444.1" stroke="black" stroke-width="2" stroke-miterlimit="10" stroke-linecap="round" stroke-linejoin="round"/>
<path d="M470.1 536.3V444.1" stroke="black" stroke-width="2" stroke-miterlimit="10" stroke-linecap="round" stroke-linejoin="round"/>
<path d="M492.1 536.3V444.1" stroke="black" stroke-width="2" stroke-miterlimit="10" stroke-linecap="round" stroke-linejoin="round"/>
<path d="M514.1 536.3V444.1" stroke="black" stroke-width="2" stroke-miterlimit="10" stroke-linecap="round" stroke-linejoin="round"/>
<path d="M344.7 525L340.7 529.4L338 523.3L336.3 531.7L333.4 525.7L329.6 529.7L326.9 527.5" stroke="black" stroke-width="2" stroke-miterlimit="10" stroke-linecap="round" stroke-linejoin="round"/>
<path d="M354 296L350.2 300.9L347.5 295.4L345.6 300.9L341.7 295.4L337.5 299.9" stroke="black" stroke-width="2" stroke-miterlimit="10" stroke-linecap="round" stroke-linejoin="round"/>
<path d="M403.3 333.1H563.4C568.1 333.1 571.9 336.9 571.9 341.6V478.5C571.9 483.2 568.1 487 563.4 487H403.3C398.6 487 394.8 483.2 394.8 478.5V341.6C394.7 336.9 398.6 333.1 403.3 333.1Z" fill="white" stroke="black" stroke-width="2" stroke-miterlimit="10" stroke-linecap="round" stroke-linejoin="round"/>
<path d="M403.4 333.1H563.2C568 333.1 571.9 337 571.9 341.8V344.6H394.7V341.8C394.7 337 398.6 333.1 403.4 333.1Z" fill="#FFCF48" stroke="black" stroke-width="2" stroke-miterlimit="10" stroke-linecap="round" stroke-linejoin="round"/>
<path d="M407.5 341C408.6 341 409.4 340.1 409.4 339C409.4 337.9 408.5 337 407.5 337C406.4 337 405.6 337.9 405.6 339C405.6 340.1 406.4 341 407.5 341Z" fill="#231F20"/>
<path d="M414 341C415.1 341 415.9 340.1 415.9 339C415.9 337.9 415 337 414 337C413 337 412.1 337.9 412.1 339C412.1 340.1 412.9 341 414 341Z" fill="#231F20"/>
<path d="M420.6 341C421.7 341 422.5 340.1 422.5 339C422.5 337.9 421.6 337 420.6 337C419.5 337 418.7 337.9 418.7 339C418.7 340.1 419.5 341 420.6 341Z" fill="#231F20"/>
<path d="M406.3 432.399H431.7C434.9 432.399 437.5 434.999 437.5 438.199V449.499C437.5 452.699 434.9 455.299 431.7 455.299H406.3C403.1 455.299 400.5 452.699 400.5 449.499V438.199C400.4 434.999 403 432.399 406.3 432.399Z" fill="#F7F7F7"/>
<path d="M403.2 459.8H434.8C436.3 459.8 437.5 461 437.5 462.5C437.5 464 436.3 465.2 434.8 465.2H403.2C401.7 465.2 400.5 464 400.5 462.5C400.4 461 401.6 459.8 403.2 459.8Z" fill="#F7F7F7"/>
<path d="M403.2 468.5H434.8C436.3 468.5 437.5 469.7 437.5 471.2C437.5 472.7 436.3 473.9 434.8 473.9H403.2C401.7 473.9 400.5 472.7 400.5 471.2C400.4 469.8 401.6 468.5 403.2 468.5Z" fill="#F7F7F7"/>
<path d="M449.2 432.399H474.6C477.8 432.399 480.4 434.999 480.4 438.199V449.499C480.4 452.699 477.8 455.299 474.6 455.299H449.2C446 455.299 443.4 452.699 443.4 449.499V438.199C443.3 434.999 446 432.399 449.2 432.399Z" fill="#F7F7F7"/>
<path d="M446.1 459.8H477.7C479.2 459.8 480.4 461 480.4 462.5C480.4 464 479.2 465.2 477.7 465.2H446.1C444.6 465.2 443.4 464 443.4 462.5C443.3 461 444.6 459.8 446.1 459.8Z" fill="#F7F7F7"/>
<path d="M446.1 468.5H477.7C479.2 468.5 480.4 469.7 480.4 471.2C480.4 472.7 479.2 473.9 477.7 473.9H446.1C444.6 473.9 443.4 472.7 443.4 471.2C443.3 469.8 444.6 468.5 446.1 468.5Z" fill="#F7F7F7"/>
<path d="M492.1 432.399H517.5C520.7 432.399 523.3 434.999 523.3 438.199V449.499C523.3 452.699 520.7 455.299 517.5 455.299H492.1C488.9 455.299 486.3 452.699 486.3 449.499V438.199C486.2 434.999 488.9 432.399 492.1 432.399Z" fill="#F7F7F7"/>
<path d="M489 459.8H520.6C522.1 459.8 523.3 461 523.3 462.5C523.3 464 522.1 465.2 520.6 465.2H489C487.5 465.2 486.3 464 486.3 462.5C486.2 461 487.5 459.8 489 459.8Z" fill="#F7F7F7"/>
<path d="M489 468.5H520.6C522.1 468.5 523.3 469.7 523.3 471.2C523.3 472.7 522.1 473.9 520.6 473.9H489C487.5 473.9 486.3 472.7 486.3 471.2C486.2 469.8 487.5 468.5 489 468.5Z" fill="#F7F7F7"/>
<path d="M535 432.399H560.4C563.6 432.399 566.2 434.999 566.2 438.199V449.499C566.2 452.699 563.6 455.299 560.4 455.299H535C531.8 455.299 529.2 452.699 529.2 449.499V438.199C529.2 434.999 531.8 432.399 535 432.399Z" fill="#F7F7F7"/>
<path d="M531.9 459.8H563.5C565 459.8 566.2 461 566.2 462.5C566.2 464 565 465.2 563.5 465.2H531.9C530.4 465.2 529.2 464 529.2 462.5C529.2 461 530.4 459.8 531.9 459.8Z" fill="#F7F7F7"/>
<path d="M531.9 468.5H563.5C565 468.5 566.2 469.7 566.2 471.2C566.2 472.7 565 473.9 563.5 473.9H531.9C530.4 473.9 529.2 472.7 529.2 471.2C529.2 469.8 530.4 468.5 531.9 468.5Z" fill="#F7F7F7"/>
<path d="M210.1 487.1V349.7C210.1 340.4 217.6 332.9 226.9 332.9H346.8C356.1 332.9 363.6 340.4 363.6 349.7V487.1H210.1Z" fill="#FFCF48" stroke="black" stroke-width="2" stroke-miterlimit="10" stroke-linecap="round" stroke-linejoin="round"/>
<path d="M355.2 487.1V358.7C355.2 349.1 347.4 341.3 337.9 341.3H326C326 347 321.4 351.7 315.6 351.7H258.1C252.4 351.7 247.7 347.1 247.7 341.3H236C226.4 341.3 218.7 349.1 218.7 358.7V487.1H355.2Z" fill="white" stroke="black" stroke-width="2" stroke-miterlimit="10" stroke-linecap="round" stroke-linejoin="round"/>
<path d="M291.2 347.7H275.8C275 347.7 274.3 347 274.3 346.2C274.3 345.4 275 344.7 275.8 344.7H291.2C292 344.7 292.7 345.4 292.7 346.2C292.7 347 292 347.7 291.2 347.7Z" fill="black" stroke="black" stroke-miterlimit="10" stroke-linecap="round" stroke-linejoin="round"/>
<path d="M297.1 348.1C298.149 348.1 299 347.249 299 346.2C299 345.15 298.149 344.3 297.1 344.3C296.051 344.3 295.2 345.15 295.2 346.2C295.2 347.249 296.051 348.1 297.1 348.1Z" fill="black" stroke="black" stroke-miterlimit="10" stroke-linecap="round" stroke-linejoin="round"/>
<path d="M210.1 387.6V373.9C208.9 373.9 207.9 374.9 207.9 376.1V385.4C207.9 386.6 208.9 387.6 210.1 387.6Z" fill="black" stroke="black" stroke-width="2" stroke-miterlimit="10" stroke-linecap="round" stroke-linejoin="round"/>
<path d="M210.1 419.8V397.1C208.9 397.1 207.9 398.1 207.9 399.3V417.6C207.9 418.8 208.9 419.8 210.1 419.8Z" fill="black" stroke="black" stroke-width="2" stroke-miterlimit="10" stroke-linecap="round" stroke-linejoin="round"/>
<path d="M210.1 448.7V426C208.9 426 207.9 427 207.9 428.2V446.5C207.9 447.7 208.9 448.7 210.1 448.7Z" fill="black" stroke="black" stroke-width="2" stroke-miterlimit="10" stroke-linecap="round" stroke-linejoin="round"/>
<path d="M363.8 405.4V441.4C365 441.4 366 440.4 366 439.2V407.6C366 406.4 365 405.4 363.8 405.4Z" fill="black" stroke="black" stroke-width="2" stroke-miterlimit="10" stroke-linecap="round" stroke-linejoin="round"/>
<path d="M12.1001 487.1V349.7C12.1001 340.4 19.6001 332.9 28.9001 332.9H148.8C158.1 332.9 165.6 340.4 165.6 349.7V487.1H12.1001Z" fill="#FFCF48" stroke="black" stroke-width="2" stroke-miterlimit="10" stroke-linecap="round" stroke-linejoin="round"/>
<path d="M157.2 487.1V358.7C157.2 349.1 149.4 341.3 139.9 341.3H128C128 347 123.4 351.7 117.6 351.7H60.1001C54.4001 351.7 49.7001 347.1 49.7001 341.3H38.0001C28.4001 341.3 20.7001 349.1 20.7001 358.7V487.1H157.2Z" fill="white" stroke="black" stroke-width="2" stroke-miterlimit="10" stroke-linecap="round" stroke-linejoin="round"/>
<path d="M93.2001 347.7H77.8C77 347.7 76.3 347 76.3 346.2C76.3 345.4 77 344.7 77.8 344.7H93.2001C94.0001 344.7 94.7001 345.4 94.7001 346.2C94.7001 347 94.0001 347.7 93.2001 347.7Z" fill="black" stroke="black" stroke-miterlimit="10" stroke-linecap="round" stroke-linejoin="round"/>
<path d="M99.1001 348.1C100.149 348.1 101 347.249 101 346.2C101 345.15 100.149 344.3 99.1001 344.3C98.0507 344.3 97.2001 345.15 97.2001 346.2C97.2001 347.249 98.0507 348.1 99.1001 348.1Z" fill="black" stroke="black" stroke-miterlimit="10" stroke-linecap="round" stroke-linejoin="round"/>
<path d="M12.1 387.6V373.9C10.9 373.9 9.90002 374.9 9.90002 376.1V385.4C9.90002 386.6 10.9 387.6 12.1 387.6Z" fill="black" stroke="black" stroke-width="2" stroke-miterlimit="10" stroke-linecap="round" stroke-linejoin="round"/>
<path d="M12.1 419.8V397.1C10.9 397.1 9.90002 398.1 9.90002 399.3V417.6C9.90002 418.8 10.9 419.8 12.1 419.8Z" fill="black" stroke="black" stroke-width="2" stroke-miterlimit="10" stroke-linecap="round" stroke-linejoin="round"/>
<path d="M12.1 448.7V426C10.9 426 9.90002 427 9.90002 428.2V446.5C9.90002 447.7 10.9 448.7 12.1 448.7Z" fill="black" stroke="black" stroke-width="2" stroke-miterlimit="10" stroke-linecap="round" stroke-linejoin="round"/>
<path d="M165.8 405.4V441.4C167 441.4 168 440.4 168 439.2V407.6C168 406.4 167 405.4 165.8 405.4Z" fill="black" stroke="black" stroke-width="2" stroke-miterlimit="10" stroke-linecap="round" stroke-linejoin="round"/>
<path d="M284.8 207.3V310.3" stroke="black" stroke-width="2" stroke-miterlimit="10" stroke-linecap="round" stroke-linejoin="round" stroke-dasharray="14 14"/>
<path d="M483.3 310.3V279C483.3 267.8 474.3 258.8 463.1 258.8H386.2C375 258.8 366 249.8 366 238.6V207.3" stroke="black" stroke-width="2" stroke-miterlimit="10" stroke-linecap="round" stroke-linejoin="round" stroke-dasharray="14 14"/>
<path d="M88.9 310.3V279C88.9 267.8 97.9 258.8 109.1 258.8H187.7C198.9 258.8 207.9 249.8 207.9 238.6V207.3" stroke="black" stroke-width="2" stroke-miterlimit="10" stroke-linecap="round" stroke-linejoin="round" stroke-dasharray="14 14"/>
<path d="M481.2 283.2L477.5 289.5C476.4 291.4 477.8 293.8 480 293.8H487.3C489.5 293.8 490.9 291.4 489.8 289.5L486.1 283.2C485 281.3 482.3 281.3 481.2 283.2Z" fill="#98D150" stroke="black" stroke-width="2" stroke-miterlimit="10" stroke-linecap="round" stroke-linejoin="round"/>
<path d="M206 225.4L202.3 231.7C201.2 233.6 202.6 236 204.8 236H212.1C214.3 236 215.7 233.6 214.6 231.7L210.9 225.4C209.8 223.5 207.1 223.5 206 225.4Z" fill="#98D150" stroke="black" stroke-width="2" stroke-miterlimit="10" stroke-linecap="round" stroke-linejoin="round"/>
<path d="M287.8 290.5L291.5 284.2C292.6 282.3 291.2 279.9 289 279.9H281.7C279.5 279.9 278.1 282.3 279.2 284.2L282.9 290.5C283.9 292.4 286.7 292.4 287.8 290.5Z" fill="#FFCF48" stroke="black" stroke-width="2" stroke-miterlimit="10" stroke-linecap="round" stroke-linejoin="round"/>
<path d="M341.2 497.7H234.8C230.6 497.7 227.1 494.3 227.1 490V474.7C227.1 470.5 230.5 467 234.8 467H341.2C345.4 467 348.9 470.4 348.9 474.7V490C348.9 494.3 345.4 497.7 341.2 497.7Z" fill="#FFCF48" stroke="black" stroke-width="2" stroke-miterlimit="10" stroke-linecap="round" stroke-linejoin="round"/>
<path d="M142.1 497.7H35.7C31.5 497.7 28 494.3 28 490V474.7C28 470.5 31.4 467 35.7 467H142.1C146.3 467 149.8 470.4 149.8 474.7V490C149.8 494.3 146.4 497.7 142.1 497.7Z" fill="#FFCF48" stroke="black" stroke-width="2" stroke-miterlimit="10" stroke-linecap="round" stroke-linejoin="round"/>
<path d="M48.3 488.2V476H50.7001V488.2H48.3ZM50 483.1V481.2H52.8C53.4 481.2 53.8001 481.1 54.2001 480.8C54.6001 480.5 54.7001 480.1 54.7001 479.6C54.7001 479.1 54.5001 478.7 54.2001 478.4C53.9001 478.1 53.4001 477.9 52.9001 477.9H50V476H53.1C53.9 476 54.6001 476.2 55.2001 476.5C55.8001 476.8 56.3 477.2 56.6 477.8C56.9 478.3 57.1 478.9 57.1 479.6C57.1 480.3 56.9 480.9 56.6 481.5C56.3 482 55.8001 482.4 55.2001 482.7C54.6001 483 53.9 483.2 53.1 483.2H50V483.1ZM55 488.2L50.9001 482.9L53.1 482.2L57.8 488.2H55Z" fill="black"/>
<path d="M63.2001 488.4C62.3001 488.4 61.5001 488.2 60.8001 487.8C60.1001 487.4 59.6001 486.9 59.2001 486.2C58.8001 485.5 58.6001 484.8 58.6001 483.9C58.6001 483.1 58.8001 482.3 59.2001 481.7C59.6001 481.1 60.1001 480.5 60.8001 480.1C61.5001 479.7 62.2001 479.5 63.1001 479.5C63.9001 479.5 64.6001 479.7 65.2001 480C65.8001 480.4 66.3001 480.9 66.7001 481.5C67.0001 482.1 67.2001 482.9 67.2001 483.7C67.2001 483.9 67.2001 484 67.2001 484.2C67.2001 484.4 67.2001 484.5 67.1001 484.7H60.0001V483H66.0001L65.1001 483.7C65.1001 483.2 65.0001 482.8 64.8001 482.4C64.6001 482.1 64.4001 481.8 64.1001 481.6C63.8001 481.4 63.5001 481.3 63.0001 481.3C62.5001 481.3 62.2001 481.4 61.8001 481.6C61.5001 481.8 61.2001 482.1 61.0001 482.4C60.8001 482.8 60.7001 483.2 60.7001 483.7C60.7001 484.2 60.8001 484.7 61.0001 485C61.2001 485.3 61.5001 485.7 61.8001 485.9C62.2001 486.1 62.6001 486.2 63.1001 486.2C63.5001 486.2 63.9001 486.1 64.3001 486C64.6001 485.9 64.9001 485.6 65.2001 485.3L66.6001 486.7C66.2001 487.2 65.7001 487.6 65.1001 487.8C64.5001 488.2 63.9001 488.4 63.2001 488.4Z" fill="black"/>
<path d="M72.1 488.3C71.3 488.3 70.6 488.1 70 487.7C69.4 487.3 68.9 486.8 68.5 486.1C68.1 485.4 68 484.8 68 484C68 483.2 68.2 482.4 68.5 481.8C68.8 481.2 69.3 480.6 70 480.2C70.7 479.8 71.3 479.6 72.1 479.6C72.7 479.6 73.2 479.7 73.7 480C74.2 480.2 74.6 480.6 74.9 481C75.2 481.4 75.4 481.9 75.4 482.5V485.5C75.4 486.1 75.2 486.6 74.9 487C74.6 487.4 74.2 487.8 73.7 488C73.3 488.2 72.7 488.3 72.1 488.3ZM72.5 486.2C72.9 486.2 73.3 486.1 73.6 485.9C73.9 485.7 74.2 485.4 74.4 485.1C74.6 484.8 74.7 484.4 74.7 483.9C74.7 483.4 74.6 483.1 74.4 482.7C74.2 482.4 74 482.1 73.7 481.9C73.4 481.7 73 481.6 72.6 481.6C72.2 481.6 71.8 481.7 71.5 481.9C71.2 482.1 70.9 482.4 70.8 482.7C70.7 483 70.5 483.4 70.5 483.9C70.5 484.4 70.6 484.7 70.8 485.1C71 485.4 71.2 485.7 71.6 485.9C71.7 486.1 72.1 486.2 72.5 486.2ZM76.8 488.2H74.5V485.9L74.9 483.8L74.5 481.8V475.6H76.8V488.2Z" fill="black"/>
<path d="M82.8001 488.4C81.9001 488.4 81.1001 488.2 80.4001 487.8C79.7001 487.4 79.2001 486.9 78.8001 486.2C78.4001 485.5 78.2001 484.8 78.2001 483.9C78.2001 483.1 78.4001 482.3 78.8001 481.7C79.2001 481.1 79.7001 480.5 80.4001 480.1C81.1001 479.7 81.8001 479.5 82.7001 479.5C83.5001 479.5 84.2001 479.7 84.8001 480C85.4001 480.4 85.9001 480.9 86.3001 481.5C86.6001 482.1 86.8001 482.9 86.8001 483.7C86.8001 483.9 86.8001 484 86.8001 484.2C86.8001 484.4 86.8001 484.5 86.7001 484.7H79.6001V483H85.6001L84.7001 483.7C84.7001 483.2 84.6001 482.8 84.4001 482.4C84.2001 482.1 84.0001 481.8 83.7001 481.6C83.4001 481.4 83.1001 481.3 82.6001 481.3C82.1001 481.3 81.8001 481.4 81.4001 481.6C81.1001 481.8 80.8001 482.1 80.6001 482.4C80.4001 482.8 80.3001 483.2 80.3001 483.7C80.3001 484.2 80.4001 484.7 80.6001 485C80.8001 485.3 81.1001 485.7 81.4001 485.9C81.8001 486.1 82.2001 486.2 82.7001 486.2C83.1001 486.2 83.5001 486.1 83.9001 486C84.2001 485.9 84.5001 485.6 84.8001 485.3L86.2001 486.7C85.8001 487.2 85.3001 487.6 84.7001 487.8C84.1001 488.2 83.5001 488.4 82.8001 488.4Z" fill="black"/>
<path d="M92.2001 488.4C91.3001 488.4 90.5001 488.2 89.8001 487.8C89.1001 487.4 88.6001 486.9 88.2001 486.2C87.8001 485.5 87.6001 484.8 87.6001 483.9C87.6001 483.1 87.8001 482.3 88.2001 481.7C88.6001 481.1 89.1001 480.5 89.8001 480.1C90.5001 479.7 91.2001 479.5 92.1001 479.5C92.9001 479.5 93.6001 479.7 94.2001 480C94.8001 480.4 95.3001 480.9 95.7001 481.5C96.0001 482.1 96.2001 482.9 96.2001 483.7C96.2001 483.9 96.2001 484 96.2001 484.2C96.2001 484.4 96.2001 484.5 96.1001 484.7H89.0001V483H95.0001L94.1001 483.7C94.1001 483.2 94.0001 482.8 93.8001 482.4C93.6001 482.1 93.4001 481.8 93.1001 481.6C92.8001 481.4 92.5001 481.3 92.0001 481.3C91.5001 481.3 91.2001 481.4 90.8001 481.6C90.5001 481.8 90.2001 482.1 90.0001 482.4C89.8001 482.8 89.7001 483.2 89.7001 483.7C89.7001 484.2 89.8001 484.7 90.0001 485C90.2001 485.3 90.5001 485.7 90.8001 485.9C91.2001 486.1 91.6001 486.2 92.1001 486.2C92.5001 486.2 92.9001 486.1 93.3001 486C93.6001 485.9 93.9001 485.6 94.2001 485.3L95.6001 486.7C95.2001 487.2 94.7001 487.6 94.1001 487.8C93.5001 488.2 92.9001 488.4 92.2001 488.4Z" fill="black"/>
<path d="M97.6001 488.2V479.8H99.9001V488.2H97.6001ZM103.1 488.2V483.2C103.1 482.7 102.9 482.3 102.6 482.1C102.3 481.9 101.9 481.7 101.5 481.7C101.2 481.7 100.9 481.8 100.7 481.9C100.5 482 100.3 482.2 100.1 482.4C100 482.6 99.9001 482.9 99.9001 483.3L99.0001 482.8C99.0001 482.2 99.1001 481.6 99.4001 481.1C99.7001 480.6 100.1 480.3 100.6 480C101.1 479.7 101.6 479.6 102.3 479.6C102.9 479.6 103.4 479.7 103.9 480C104.4 480.3 104.8 480.6 105 481.1C105.2 481.6 105.4 482.1 105.4 482.8V488.2H103.1ZM108.6 488.2V483.2C108.6 482.7 108.4 482.3 108.1 482.1C107.8 481.9 107.4 481.7 107 481.7C106.7 481.7 106.4 481.8 106.2 481.9C106 482 105.8 482.2 105.6 482.4C105.5 482.6 105.4 482.9 105.4 483.3L104.1 483C104.1 482.3 104.3 481.7 104.6 481.2C104.9 480.7 105.3 480.3 105.8 480.1C106.3 479.9 106.9 479.7 107.5 479.7C108.1 479.7 108.7 479.8 109.2 480.1C109.7 480.4 110.1 480.7 110.4 481.2C110.7 481.7 110.8 482.3 110.8 483V488.3H108.6V488.2Z" fill="black"/>
<path d="M116.7 488.4C115.8 488.4 115 488.2 114.3 487.8C113.6 487.4 113.1 486.9 112.7 486.2C112.3 485.5 112.1 484.8 112.1 483.9C112.1 483.1 112.3 482.3 112.7 481.7C113.1 481.1 113.6 480.5 114.3 480.1C115 479.7 115.7 479.5 116.6 479.5C117.4 479.5 118.1 479.7 118.7 480C119.3 480.4 119.8 480.9 120.2 481.5C120.5 482.1 120.7 482.9 120.7 483.7C120.7 483.9 120.7 484 120.7 484.2C120.7 484.4 120.7 484.5 120.6 484.7H113.5V483H119.5L118.6 483.7C118.6 483.2 118.5 482.8 118.3 482.4C118.1 482.1 117.9 481.8 117.6 481.6C117.3 481.4 117 481.3 116.5 481.3C116 481.3 115.7 481.4 115.3 481.6C115 481.8 114.7 482.1 114.5 482.4C114.3 482.8 114.2 483.2 114.2 483.7C114.2 484.2 114.3 484.7 114.5 485C114.7 485.3 115 485.7 115.3 485.9C115.7 486.1 116.1 486.2 116.6 486.2C117 486.2 117.4 486.1 117.8 486C118.1 485.9 118.4 485.6 118.7 485.3L120.1 486.7C119.7 487.2 119.2 487.6 118.6 487.8C118 488.2 117.4 488.4 116.7 488.4Z" fill="black"/>
<path d="M125.6 488.3C124.8 488.3 124.1 488.1 123.5 487.7C122.9 487.3 122.4 486.8 122 486.1C121.6 485.4 121.5 484.7 121.5 483.9C121.5 483.1 121.7 482.3 122 481.7C122.3 481.1 122.8 480.5 123.5 480.1C124.2 479.7 124.8 479.5 125.6 479.5C126.2 479.5 126.7 479.6 127.2 479.9C127.7 480.1 128.1 480.5 128.4 480.9C128.7 481.3 128.9 481.8 128.9 482.4V485.4C128.9 486 128.7 486.5 128.4 486.9C128.1 487.3 127.7 487.7 127.2 487.9C126.8 488.2 126.3 488.3 125.6 488.3ZM126 486.2C126.4 486.2 126.8 486.1 127.1 485.9C127.4 485.7 127.7 485.4 127.9 485.1C128.1 484.8 128.2 484.4 128.2 483.9C128.2 483.4 128.1 483.1 127.9 482.7C127.7 482.4 127.5 482.1 127.2 481.9C126.9 481.7 126.5 481.6 126.1 481.6C125.7 481.6 125.3 481.7 125 481.9C124.7 482.1 124.4 482.4 124.3 482.7C124.2 483 124 483.4 124 483.9C124 484.4 124.1 484.7 124.3 485.1C124.5 485.4 124.7 485.7 125.1 485.9C125.3 486.1 125.6 486.2 126 486.2ZM130.3 488.2H128V485.9L128.4 483.8L128 481.8V475.6H130.3V488.2Z" fill="black"/>
<path d="M536.5 497.7H430.1C425.9 497.7 422.4 494.3 422.4 490V474.7C422.4 470.5 425.8 467 430.1 467H536.5C540.7 467 544.2 470.4 544.2 474.7V490C544.2 494.3 540.8 497.7 536.5 497.7Z" fill="#98D150" stroke="black" stroke-width="2" stroke-miterlimit="10" stroke-linecap="round" stroke-linejoin="round"/>
<path d="M142.1 497.7H35.7C31.5 497.7 28 494.3 28 490V474.7C28 470.5 31.4 467 35.7 467H142.1C146.3 467 149.8 470.4 149.8 474.7V490C149.8 494.3 146.4 497.7 142.1 497.7Z" fill="#98D150" stroke="black" stroke-width="2" stroke-miterlimit="10" stroke-linecap="round" stroke-linejoin="round"/>
<path d="M69.4595 486.143C69.0268 486.143 68.6125 486.075 68.2165 485.939C67.8242 485.804 67.4795 485.608 67.1825 485.351C66.8892 485.094 66.6783 484.79 66.55 484.438L67.9745 483.91C68.0185 484.035 68.1102 484.152 68.2495 484.262C68.3888 484.368 68.563 484.456 68.772 484.526C68.981 484.592 69.2102 484.625 69.4595 484.625C69.6978 484.625 69.9215 484.59 70.1305 484.52C70.3432 484.447 70.5137 484.346 70.642 484.218C70.774 484.09 70.84 483.939 70.84 483.767C70.84 483.595 70.7722 483.452 70.6365 483.338C70.5008 483.224 70.3267 483.134 70.114 483.068C69.9013 482.999 69.6832 482.946 69.4595 482.909C68.9058 482.828 68.409 482.698 67.969 482.518C67.5327 482.335 67.188 482.084 66.935 481.765C66.682 481.442 66.5555 481.033 66.5555 480.538C66.5555 480.062 66.6893 479.646 66.957 479.29C67.2283 478.934 67.584 478.657 68.024 478.459C68.4677 478.261 68.9462 478.162 69.4595 478.162C69.8848 478.162 70.2955 478.23 70.6915 478.366C71.0875 478.502 71.4322 478.698 71.7255 478.954C72.0225 479.211 72.2352 479.519 72.3635 479.878L70.939 480.395C70.895 480.271 70.8033 480.155 70.664 480.049C70.5247 479.943 70.3505 479.856 70.1415 479.79C69.9325 479.724 69.7052 479.691 69.4595 479.691C69.2248 479.688 69.0012 479.723 68.7885 479.796C68.5795 479.869 68.4072 479.97 68.2715 480.098C68.1395 480.227 68.0735 480.373 68.0735 480.538C68.0735 480.755 68.1358 480.918 68.2605 481.028C68.3888 481.138 68.5575 481.217 68.7665 481.264C68.9755 481.312 69.2065 481.354 69.4595 481.391C69.9802 481.468 70.4605 481.605 70.9005 481.803C71.3405 481.998 71.6925 482.258 71.9565 482.584C72.2242 482.907 72.358 483.301 72.358 483.767C72.358 484.244 72.2242 484.66 71.9565 485.015C71.6888 485.371 71.335 485.648 70.895 485.846C70.455 486.044 69.9765 486.143 69.4595 486.143ZM78.2527 478.3H79.7707V486H78.2527V482.634H75.3267V486H73.8087V478.3H75.3267V481.116H78.2527V478.3ZM84.8869 486.143C84.3662 486.143 83.8767 486.04 83.4184 485.835C82.9601 485.626 82.5567 485.338 82.2084 484.971C81.8601 484.605 81.5869 484.181 81.3889 483.701C81.1909 483.217 81.0919 482.7 81.0919 482.15C81.0919 481.6 81.1909 481.085 81.3889 480.604C81.5869 480.12 81.8601 479.695 82.2084 479.328C82.5567 478.962 82.9601 478.676 83.4184 478.47C83.8767 478.261 84.3662 478.157 84.8869 478.157C85.4112 478.157 85.9026 478.261 86.3609 478.47C86.8192 478.676 87.2226 478.962 87.5709 479.328C87.9192 479.695 88.1906 480.12 88.3849 480.604C88.5829 481.085 88.6819 481.6 88.6819 482.15C88.6819 482.7 88.5829 483.217 88.3849 483.701C88.1906 484.181 87.9192 484.605 87.5709 484.971C87.2226 485.338 86.8192 485.626 86.3609 485.835C85.9026 486.04 85.4112 486.143 84.8869 486.143ZM84.8869 484.625C85.1986 484.625 85.4919 484.561 85.7669 484.432C86.0419 484.3 86.2839 484.121 86.4929 483.893C86.7019 483.666 86.8651 483.404 86.9824 483.107C87.1034 482.81 87.1639 482.491 87.1639 482.15C87.1639 481.809 87.1034 481.49 86.9824 481.193C86.8651 480.892 86.7019 480.63 86.4929 480.406C86.2839 480.179 86.0419 480.001 85.7669 479.873C85.4919 479.741 85.1986 479.675 84.8869 479.675C84.5752 479.675 84.2819 479.741 84.0069 479.873C83.7319 480.001 83.4899 480.179 83.2809 480.406C83.0719 480.634 82.9069 480.896 82.7859 481.193C82.6686 481.49 82.6099 481.809 82.6099 482.15C82.6099 482.491 82.6686 482.812 82.7859 483.112C82.9069 483.409 83.0719 483.672 83.2809 483.899C83.4899 484.123 83.7319 484.3 84.0069 484.432C84.2819 484.561 84.5752 484.625 84.8869 484.625ZM89.8679 486V478.3H92.7059C93.1275 478.3 93.507 478.406 93.8444 478.619C94.1854 478.832 94.4567 479.116 94.6584 479.471C94.86 479.823 94.9609 480.212 94.9609 480.637C94.9609 481.07 94.8582 481.464 94.6529 481.82C94.4475 482.172 94.1725 482.452 93.8279 482.661C93.4869 482.87 93.1129 482.975 92.7059 482.975H91.3859V486H89.8679ZM91.3859 481.457H92.5354C92.704 481.457 92.8562 481.417 92.9919 481.336C93.1275 481.252 93.2357 481.14 93.3164 481C93.4007 480.857 93.4429 480.7 93.4429 480.527C93.4429 480.359 93.4007 480.205 93.3164 480.066C93.2357 479.922 93.1275 479.809 92.9919 479.724C92.8562 479.64 92.704 479.598 92.5354 479.598H91.3859V481.457ZM96.3222 486V478.3H97.8402V486H96.3222ZM99.5461 486V478.3H104.111V479.818H101.064V481.116H103.583V482.634H101.064V486H99.5461ZM109.824 478.3H111.617L108.955 482.529V486H107.437V482.529L104.775 478.3H106.568L108.196 480.879L109.824 478.3Z" fill="#242424"/>
<path d="M242.475 487L240.506 479.3H242.074L243.328 484.223L244.582 479.3H245.973L247.227 484.223L248.481 479.3H250.049L248.091 487H246.375L245.28 482.721L244.191 487H242.475ZM254.617 487.143C254.096 487.143 253.607 487.04 253.149 486.835C252.69 486.626 252.287 486.338 251.939 485.971C251.59 485.605 251.317 485.181 251.119 484.701C250.921 484.217 250.822 483.7 250.822 483.15C250.822 482.6 250.921 482.085 251.119 481.604C251.317 481.12 251.59 480.695 251.939 480.328C252.287 479.962 252.69 479.676 253.149 479.47C253.607 479.261 254.096 479.157 254.617 479.157C255.141 479.157 255.633 479.261 256.091 479.47C256.549 479.676 256.953 479.962 257.301 480.328C257.649 480.695 257.921 481.12 258.115 481.604C258.313 482.085 258.412 482.6 258.412 483.15C258.412 483.7 258.313 484.217 258.115 484.701C257.921 485.181 257.649 485.605 257.301 485.971C256.953 486.338 256.549 486.626 256.091 486.835C255.633 487.04 255.141 487.143 254.617 487.143ZM254.617 485.625C254.929 485.625 255.222 485.561 255.497 485.432C255.772 485.3 256.014 485.121 256.223 484.893C256.432 484.666 256.595 484.404 256.713 484.107C256.834 483.81 256.894 483.491 256.894 483.15C256.894 482.809 256.834 482.49 256.713 482.193C256.595 481.892 256.432 481.63 256.223 481.406C256.014 481.179 255.772 481.001 255.497 480.873C255.222 480.741 254.929 480.675 254.617 480.675C254.305 480.675 254.012 480.741 253.737 480.873C253.462 481.001 253.22 481.179 253.011 481.406C252.802 481.634 252.637 481.896 252.516 482.193C252.399 482.49 252.34 482.809 252.34 483.15C252.34 483.491 252.399 483.812 252.516 484.112C252.637 484.409 252.802 484.672 253.011 484.899C253.22 485.123 253.462 485.3 253.737 485.432C254.012 485.561 254.305 485.625 254.617 485.625ZM263.195 487.143C262.674 487.143 262.184 487.04 261.726 486.835C261.268 486.626 260.864 486.338 260.516 485.971C260.168 485.605 259.895 485.181 259.697 484.701C259.499 484.217 259.4 483.7 259.4 483.15C259.4 482.6 259.499 482.085 259.697 481.604C259.895 481.12 260.168 480.695 260.516 480.328C260.864 479.962 261.268 479.676 261.726 479.47C262.184 479.261 262.674 479.157 263.195 479.157C263.719 479.157 264.21 479.261 264.669 479.47C265.127 479.676 265.53 479.962 265.879 480.328C266.227 480.695 266.498 481.12 266.693 481.604C266.891 482.085 266.99 482.6 266.99 483.15C266.99 483.7 266.891 484.217 266.693 484.701C266.498 485.181 266.227 485.605 265.879 485.971C265.53 486.338 265.127 486.626 264.669 486.835C264.21 487.04 263.719 487.143 263.195 487.143ZM263.195 485.625C263.506 485.625 263.8 485.561 264.075 485.432C264.35 485.3 264.592 485.121 264.801 484.893C265.01 484.666 265.173 484.404 265.29 484.107C265.411 483.81 265.472 483.491 265.472 483.15C265.472 482.809 265.411 482.49 265.29 482.193C265.173 481.892 265.01 481.63 264.801 481.406C264.592 481.179 264.35 481.001 264.075 480.873C263.8 480.741 263.506 480.675 263.195 480.675C262.883 480.675 262.59 480.741 262.315 480.873C262.04 481.001 261.798 481.179 261.589 481.406C261.38 481.634 261.215 481.896 261.094 482.193C260.976 482.49 260.918 482.809 260.918 483.15C260.918 483.491 260.976 483.812 261.094 484.112C261.215 484.409 261.38 484.672 261.589 484.899C261.798 485.123 262.04 485.3 262.315 485.432C262.59 485.561 262.883 485.625 263.195 485.625ZM271.761 487.143C271.24 487.143 270.751 487.04 270.292 486.835C269.834 486.626 269.431 486.338 269.082 485.971C268.738 485.605 268.466 485.181 268.268 484.701C268.074 484.217 267.977 483.7 267.977 483.15C267.977 482.596 268.074 482.079 268.268 481.599C268.466 481.115 268.738 480.691 269.082 480.328C269.431 479.962 269.834 479.676 270.292 479.47C270.751 479.261 271.24 479.157 271.761 479.157C272.384 479.157 272.958 479.302 273.482 479.591C274.007 479.877 274.441 480.261 274.786 480.741L273.433 481.473C273.228 481.23 272.98 481.038 272.69 480.895C272.401 480.748 272.091 480.675 271.761 480.675C271.449 480.675 271.156 480.739 270.881 480.867C270.606 480.996 270.364 481.174 270.155 481.401C269.95 481.628 269.788 481.89 269.671 482.187C269.554 482.484 269.495 482.805 269.495 483.15C269.495 483.491 269.554 483.812 269.671 484.112C269.788 484.409 269.95 484.672 270.155 484.899C270.364 485.123 270.606 485.3 270.881 485.432C271.156 485.561 271.449 485.625 271.761 485.625C272.095 485.625 272.404 485.552 272.69 485.405C272.98 485.258 273.228 485.064 273.433 484.822L274.786 485.559C274.441 486.036 274.007 486.419 273.482 486.708C272.958 486.998 272.384 487.143 271.761 487.143ZM279.544 487.143C279.023 487.143 278.534 487.04 278.075 486.835C277.617 486.626 277.214 486.338 276.865 485.971C276.517 485.605 276.244 485.181 276.046 484.701C275.848 484.217 275.749 483.7 275.749 483.15C275.749 482.6 275.848 482.085 276.046 481.604C276.244 481.12 276.517 480.695 276.865 480.328C277.214 479.962 277.617 479.676 278.075 479.47C278.534 479.261 279.023 479.157 279.544 479.157C280.068 479.157 280.559 479.261 281.018 479.47C281.476 479.676 281.879 479.962 282.228 480.328C282.576 480.695 282.847 481.12 283.042 481.604C283.24 482.085 283.339 482.6 283.339 483.15C283.339 483.7 283.24 484.217 283.042 484.701C282.847 485.181 282.576 485.605 282.228 485.971C281.879 486.338 281.476 486.626 281.018 486.835C280.559 487.04 280.068 487.143 279.544 487.143ZM279.544 485.625C279.855 485.625 280.149 485.561 280.424 485.432C280.699 485.3 280.941 485.121 281.15 484.893C281.359 484.666 281.522 484.404 281.639 484.107C281.76 483.81 281.821 483.491 281.821 483.15C281.821 482.809 281.76 482.49 281.639 482.193C281.522 481.892 281.359 481.63 281.15 481.406C280.941 481.179 280.699 481.001 280.424 480.873C280.149 480.741 279.855 480.675 279.544 480.675C279.232 480.675 278.939 480.741 278.664 480.873C278.389 481.001 278.147 481.179 277.938 481.406C277.729 481.634 277.564 481.896 277.443 482.193C277.325 482.49 277.267 482.809 277.267 483.15C277.267 483.491 277.325 483.812 277.443 484.112C277.564 484.409 277.729 484.672 277.938 484.899C278.147 485.123 278.389 485.3 278.664 485.432C278.939 485.561 279.232 485.625 279.544 485.625ZM284.213 487L285.709 479.3H286.991L288.778 484.013L290.571 479.3H291.853L293.349 487H291.798L290.945 482.583L289.301 486.923H288.256L286.617 482.583L285.759 487H284.213ZM294.885 487L296.381 479.3H297.663L299.45 484.013L301.243 479.3H302.525L304.021 487H302.47L301.617 482.583L299.973 486.923H298.928L297.289 482.583L296.431 487H294.885ZM305.343 487V479.3H310.216V480.818H306.861V482.116H309.479V483.634H306.861V485.482H310.216V487H305.343ZM311.653 487V479.3H314.711C315.129 479.3 315.507 479.406 315.844 479.619C316.185 479.828 316.455 480.11 316.653 480.466C316.855 480.818 316.955 481.208 316.955 481.637C316.955 481.975 316.897 482.288 316.779 482.578C316.662 482.864 316.497 483.115 316.284 483.331C316.072 483.548 315.824 483.716 315.542 483.837L317.373 487H315.624L313.87 483.975H313.171V487H311.653ZM313.171 482.457H314.53C314.695 482.457 314.845 482.417 314.981 482.336C315.12 482.252 315.23 482.14 315.311 482C315.395 481.857 315.437 481.7 315.437 481.527C315.437 481.359 315.395 481.205 315.311 481.066C315.23 480.922 315.12 480.809 314.981 480.724C314.845 480.64 314.695 480.598 314.53 480.598H313.171V482.457ZM321.872 487.143C321.351 487.143 320.862 487.04 320.403 486.835C319.945 486.626 319.542 486.338 319.193 485.971C318.849 485.605 318.577 485.181 318.379 484.701C318.185 484.217 318.088 483.7 318.088 483.15C318.088 482.596 318.185 482.079 318.379 481.599C318.577 481.115 318.849 480.691 319.193 480.328C319.542 479.962 319.945 479.676 320.403 479.47C320.862 479.261 321.351 479.157 321.872 479.157C322.495 479.157 323.069 479.302 323.593 479.591C324.118 479.877 324.552 480.261 324.897 480.741L323.544 481.473C323.339 481.23 323.091 481.038 322.801 480.895C322.512 480.748 322.202 480.675 321.872 480.675C321.56 480.675 321.267 480.739 320.992 480.867C320.717 480.996 320.475 481.174 320.266 481.401C320.061 481.628 319.899 481.89 319.782 482.187C319.665 482.484 319.606 482.805 319.606 483.15C319.606 483.491 319.665 483.812 319.782 484.112C319.899 484.409 320.061 484.672 320.266 484.899C320.475 485.123 320.717 485.3 320.992 485.432C321.267 485.561 321.56 485.625 321.872 485.625C322.206 485.625 322.515 485.552 322.801 485.405C323.091 485.258 323.339 485.064 323.544 484.822L324.897 485.559C324.552 486.036 324.118 486.419 323.593 486.708C323.069 486.998 322.495 487.143 321.872 487.143ZM326.123 487V479.3H330.996V480.818H327.641V482.116H330.259V483.634H327.641V485.482H330.996V487H326.123Z" fill="#242424"/>
<path d="M435.224 487.143C434.703 487.143 434.214 487.04 433.756 486.835C433.297 486.626 432.894 486.338 432.546 485.971C432.201 485.605 431.93 485.181 431.732 484.701C431.537 484.217 431.44 483.7 431.44 483.15C431.44 482.596 431.537 482.079 431.732 481.599C431.93 481.115 432.201 480.691 432.546 480.328C432.894 479.962 433.297 479.676 433.756 479.47C434.214 479.261 434.703 479.157 435.224 479.157C435.847 479.157 436.421 479.302 436.946 479.591C437.47 479.877 437.904 480.261 438.249 480.741L436.896 481.473C436.691 481.23 436.443 481.038 436.154 480.895C435.864 480.748 435.554 480.675 435.224 480.675C434.912 480.675 434.619 480.739 434.344 480.867C434.069 480.996 433.827 481.174 433.618 481.401C433.413 481.628 433.251 481.89 433.134 482.187C433.017 482.484 432.958 482.805 432.958 483.15C432.958 483.491 433.017 483.812 433.134 484.112C433.251 484.409 433.413 484.672 433.618 484.899C433.827 485.123 434.069 485.3 434.344 485.432C434.619 485.561 434.912 485.625 435.224 485.625C435.558 485.625 435.868 485.552 436.154 485.405C436.443 485.258 436.691 485.064 436.896 484.822L438.249 485.559C437.904 486.036 437.47 486.419 436.946 486.708C436.421 486.998 435.847 487.143 435.224 487.143ZM442.792 487.143C442.176 487.143 441.633 486.993 441.164 486.692C440.698 486.391 440.333 485.988 440.069 485.482C439.809 484.972 439.679 484.408 439.679 483.788V479.3H441.197V483.788C441.197 484.122 441.259 484.428 441.384 484.706C441.508 484.985 441.69 485.209 441.928 485.377C442.167 485.542 442.454 485.625 442.792 485.625C443.133 485.625 443.421 485.542 443.655 485.377C443.894 485.212 444.073 484.991 444.194 484.712C444.315 484.433 444.376 484.125 444.376 483.788V479.3H445.894V483.788C445.894 484.254 445.819 484.69 445.668 485.097C445.522 485.5 445.311 485.856 445.036 486.164C444.761 486.472 444.433 486.712 444.051 486.884C443.674 487.057 443.254 487.143 442.792 487.143ZM450.229 487.143C449.796 487.143 449.382 487.075 448.986 486.939C448.593 486.804 448.249 486.608 447.952 486.351C447.658 486.094 447.447 485.79 447.319 485.438L448.744 484.91C448.788 485.035 448.879 485.152 449.019 485.262C449.158 485.368 449.332 485.456 449.541 485.526C449.75 485.592 449.979 485.625 450.229 485.625C450.467 485.625 450.691 485.59 450.9 485.52C451.112 485.447 451.283 485.346 451.411 485.218C451.543 485.09 451.609 484.939 451.609 484.767C451.609 484.595 451.541 484.452 451.406 484.338C451.27 484.224 451.096 484.134 450.883 484.068C450.67 483.999 450.452 483.946 450.229 483.909C449.675 483.828 449.178 483.698 448.738 483.518C448.302 483.335 447.957 483.084 447.704 482.765C447.451 482.442 447.325 482.033 447.325 481.538C447.325 481.062 447.458 480.646 447.726 480.29C447.997 479.934 448.353 479.657 448.793 479.459C449.237 479.261 449.715 479.162 450.229 479.162C450.654 479.162 451.065 479.23 451.461 479.366C451.857 479.502 452.201 479.698 452.495 479.954C452.792 480.211 453.004 480.519 453.133 480.878L451.708 481.395C451.664 481.271 451.572 481.155 451.433 481.049C451.294 480.943 451.12 480.856 450.911 480.79C450.702 480.724 450.474 480.691 450.229 480.691C449.994 480.688 449.77 480.723 449.558 480.796C449.349 480.869 449.176 480.97 449.041 481.098C448.909 481.227 448.843 481.373 448.843 481.538C448.843 481.755 448.905 481.918 449.03 482.028C449.158 482.138 449.327 482.217 449.536 482.264C449.745 482.312 449.976 482.354 450.229 482.391C450.749 482.468 451.23 482.605 451.67 482.803C452.11 482.998 452.462 483.258 452.726 483.584C452.993 483.907 453.127 484.301 453.127 484.767C453.127 485.244 452.993 485.66 452.726 486.015C452.458 486.371 452.104 486.648 451.664 486.846C451.224 487.044 450.746 487.143 450.229 487.143ZM460.171 479.3V480.818H457.905V487H456.387V480.818H454.121V479.3H460.171ZM464.625 487.143C464.104 487.143 463.615 487.04 463.156 486.835C462.698 486.626 462.295 486.338 461.946 485.971C461.598 485.605 461.325 485.181 461.127 484.701C460.929 484.217 460.83 483.7 460.83 483.15C460.83 482.6 460.929 482.085 461.127 481.604C461.325 481.12 461.598 480.695 461.946 480.328C462.295 479.962 462.698 479.676 463.156 479.47C463.615 479.261 464.104 479.157 464.625 479.157C465.149 479.157 465.64 479.261 466.099 479.47C466.557 479.676 466.96 479.962 467.309 480.328C467.657 480.695 467.928 481.12 468.123 481.604C468.321 482.085 468.42 482.6 468.42 483.15C468.42 483.7 468.321 484.217 468.123 484.701C467.928 485.181 467.657 485.605 467.309 485.971C466.96 486.338 466.557 486.626 466.099 486.835C465.64 487.04 465.149 487.143 464.625 487.143ZM464.625 485.625C464.936 485.625 465.23 485.561 465.505 485.432C465.78 485.3 466.022 485.121 466.231 484.893C466.44 484.666 466.603 484.404 466.72 484.107C466.841 483.81 466.902 483.491 466.902 483.15C466.902 482.809 466.841 482.49 466.72 482.193C466.603 481.892 466.44 481.63 466.231 481.406C466.022 481.179 465.78 481.001 465.505 480.873C465.23 480.741 464.936 480.675 464.625 480.675C464.313 480.675 464.02 480.741 463.745 480.873C463.47 481.001 463.228 481.179 463.019 481.406C462.81 481.634 462.645 481.896 462.524 482.193C462.406 482.49 462.348 482.809 462.348 483.15C462.348 483.491 462.406 483.812 462.524 484.112C462.645 484.409 462.81 484.672 463.019 484.899C463.228 485.123 463.47 485.3 463.745 485.432C464.02 485.561 464.313 485.625 464.625 485.625ZM469.294 487L470.79 479.3H472.072L473.859 484.013L475.652 479.3H476.934L478.43 487H476.879L476.026 482.583L474.382 486.923H473.337L471.698 482.583L470.84 487H469.294ZM484.644 487L482.675 479.3H484.242L485.496 484.223L486.75 479.3H488.142L489.396 484.223L490.65 479.3H492.217L490.259 487H488.543L487.449 482.721L486.36 487H484.644ZM493.437 487V479.3H498.31V480.818H494.955V482.116H497.573V483.634H494.955V485.482H498.31V487H493.437ZM499.747 487V479.3H502.613C503.027 479.3 503.403 479.386 503.74 479.558C504.078 479.727 504.344 479.969 504.538 480.284C504.736 480.6 504.835 480.97 504.835 481.395C504.835 481.568 504.811 481.746 504.763 481.929C504.719 482.112 504.642 482.281 504.532 482.435C504.426 482.589 504.279 482.706 504.092 482.787C504.334 482.846 504.529 482.956 504.675 483.117C504.822 483.275 504.934 483.458 505.011 483.667C505.088 483.872 505.139 484.083 505.165 484.299C505.191 484.516 505.203 484.712 505.203 484.888C505.203 485.284 505.101 485.641 504.895 485.96C504.69 486.279 504.413 486.532 504.065 486.719C503.72 486.906 503.339 487 502.921 487H499.747ZM501.265 485.707H502.761C502.963 485.707 503.146 485.66 503.311 485.564C503.476 485.465 503.608 485.332 503.707 485.163C503.806 484.991 503.856 484.796 503.856 484.58C503.856 484.397 503.806 484.222 503.707 484.057C503.608 483.892 503.476 483.759 503.311 483.656C503.146 483.55 502.963 483.496 502.761 483.496H501.265V485.707ZM501.265 482.231H502.437C502.679 482.231 502.886 482.153 503.058 481.995C503.231 481.837 503.317 481.634 503.317 481.384C503.317 481.128 503.231 480.933 503.058 480.801C502.886 480.666 502.679 480.598 502.437 480.598H501.265V482.231ZM509.32 487.143C508.887 487.143 508.473 487.075 508.077 486.939C507.684 486.804 507.34 486.608 507.043 486.351C506.749 486.094 506.538 485.79 506.41 485.438L507.835 484.91C507.879 485.035 507.97 485.152 508.11 485.262C508.249 485.368 508.423 485.456 508.632 485.526C508.841 485.592 509.07 485.625 509.32 485.625C509.558 485.625 509.782 485.59 509.991 485.52C510.203 485.447 510.374 485.346 510.502 485.218C510.634 485.09 510.7 484.939 510.7 484.767C510.7 484.595 510.632 484.452 510.497 484.338C510.361 484.224 510.187 484.134 509.974 484.068C509.761 483.999 509.543 483.946 509.32 483.909C508.766 483.828 508.269 483.698 507.829 483.518C507.393 483.335 507.048 483.084 506.795 482.765C506.542 482.442 506.416 482.033 506.416 481.538C506.416 481.062 506.549 480.646 506.817 480.29C507.088 479.934 507.444 479.657 507.884 479.459C508.328 479.261 508.806 479.162 509.32 479.162C509.745 479.162 510.156 479.23 510.552 479.366C510.948 479.502 511.292 479.698 511.586 479.954C511.883 480.211 512.095 480.519 512.224 480.878L510.799 481.395C510.755 481.271 510.663 481.155 510.524 481.049C510.385 480.943 510.211 480.856 510.002 480.79C509.793 480.724 509.565 480.691 509.32 480.691C509.085 480.688 508.861 480.723 508.649 480.796C508.44 480.869 508.267 480.97 508.132 481.098C508 481.227 507.934 481.373 507.934 481.538C507.934 481.755 507.996 481.918 508.121 482.028C508.249 482.138 508.418 482.217 508.627 482.264C508.836 482.312 509.067 482.354 509.32 482.391C509.84 482.468 510.321 482.605 510.761 482.803C511.201 482.998 511.553 483.258 511.817 483.584C512.084 483.907 512.218 484.301 512.218 484.767C512.218 485.244 512.084 485.66 511.817 486.015C511.549 486.371 511.195 486.648 510.755 486.846C510.315 487.044 509.837 487.143 509.32 487.143ZM513.834 487V479.3H515.352V487H513.834ZM522.888 479.3V480.818H520.622V487H519.104V480.818H516.838V479.3H522.888ZM524.207 487V479.3H529.08V480.818H525.725V482.116H528.343V483.634H525.725V485.482H529.08V487H524.207ZM533.306 487.143C532.873 487.143 532.459 487.075 532.063 486.939C531.671 486.804 531.326 486.608 531.029 486.351C530.736 486.094 530.525 485.79 530.397 485.438L531.821 484.91C531.865 485.035 531.957 485.152 532.096 485.262C532.235 485.368 532.41 485.456 532.619 485.526C532.828 485.592 533.057 485.625 533.306 485.625C533.544 485.625 533.768 485.59 533.977 485.52C534.19 485.447 534.36 485.346 534.489 485.218C534.621 485.09 534.687 484.939 534.687 484.767C534.687 484.595 534.619 484.452 534.483 484.338C534.347 484.224 534.173 484.134 533.961 484.068C533.748 483.999 533.53 483.946 533.306 483.909C532.752 483.828 532.256 483.698 531.816 483.518C531.379 483.335 531.035 483.084 530.782 482.765C530.529 482.442 530.402 482.033 530.402 481.538C530.402 481.062 530.536 480.646 530.804 480.29C531.075 479.934 531.431 479.657 531.871 479.459C532.314 479.261 532.793 479.162 533.306 479.162C533.731 479.162 534.142 479.23 534.538 479.366C534.934 479.502 535.279 479.698 535.572 479.954C535.869 480.211 536.082 480.519 536.21 480.878L534.786 481.395C534.742 481.271 534.65 481.155 534.511 481.049C534.371 480.943 534.197 480.856 533.988 480.79C533.779 480.724 533.552 480.691 533.306 480.691C533.071 480.688 532.848 480.723 532.635 480.796C532.426 480.869 532.254 480.97 532.118 481.098C531.986 481.227 531.92 481.373 531.92 481.538C531.92 481.755 531.982 481.918 532.107 482.028C532.235 482.138 532.404 482.217 532.613 482.264C532.822 482.312 533.053 482.354 533.306 482.391C533.827 482.468 534.307 482.605 534.747 482.803C535.187 482.998 535.539 483.258 535.803 483.584C536.071 483.907 536.205 484.301 536.205 484.767C536.205 485.244 536.071 485.66 535.803 486.015C535.535 486.371 535.182 486.648 534.742 486.846C534.302 487.044 533.823 487.143 533.306 487.143Z" fill="#242424"/>
<rect x="182.986" y="12.9857" width="209.629" height="182.029" rx="25.3" fill="#FFCF48"/>
<rect x="273.064" y="62.9458" width="29.4721" height="29.4721" rx="7.36803" fill="#1E1D25"/>
<path fill-rule="evenodd" clip-rule="evenodd" d="M281.329 75.2601C281.329 75.0756 281.487 74.8954 281.72 74.8954H288.389C288.719 74.8954 289.037 75.0028 289.294 75.1977L290.344 75.9939C290.636 76.2154 290.801 76.5517 290.801 76.9017C290.801 77.2134 290.67 77.5155 290.432 77.7354L287.075 80.8393C286.804 81.0902 286.442 81.2326 286.062 81.2326H283.422C283.115 81.2326 282.898 80.9934 282.898 80.7359C282.898 80.6272 282.935 80.5193 283.009 80.4306L284.026 79.1961C284.309 78.8522 284.466 78.4208 284.466 77.9734C284.466 77.1422 283.932 76.4162 283.157 76.1475L281.584 75.6022C281.422 75.546 281.329 75.4033 281.329 75.2601ZM281.72 73.0767C280.517 73.0767 279.511 74.0374 279.511 75.2601C279.511 76.1967 280.112 77.0166 280.988 77.3205L282.561 77.8658C282.622 77.8869 282.647 77.9356 282.647 77.9734C282.647 77.9951 282.639 78.0186 282.622 78.0396L281.605 79.2741C281.266 79.6857 281.079 80.2015 281.079 80.7359C281.079 82.0316 282.145 83.0514 283.422 83.0514H286.062C286.895 83.0514 287.699 82.7395 288.31 82.1746L291.667 79.0708C292.272 78.5108 292.619 77.7266 292.619 76.9017C292.619 75.9743 292.181 75.1052 291.443 74.5449L290.393 73.7487C289.817 73.312 289.112 73.0767 288.389 73.0767H281.72ZM291.904 73.4039L291.903 73.4042L293.944 75.8497C294.191 76.1458 294.304 76.5235 294.262 76.8976L294.162 77.7742C294.128 78.075 293.995 78.3596 293.78 78.5845L289.865 82.6794L289.912 82.7251H292.337L295.095 79.8415C295.582 79.3319 295.89 78.6788 295.969 77.979L296.069 77.1024C296.168 76.2303 295.903 75.3586 295.341 74.6844L294.272 73.4039H291.904Z" fill="#FFCD08"/>
<path d="M227.035 116.652C226.166 116.652 225.333 116.515 224.537 116.243C223.742 115.963 223.045 115.565 222.449 115.049C221.852 114.526 221.421 113.903 221.156 113.181L224.272 112.032C224.346 112.245 224.508 112.452 224.758 112.651C225.016 112.85 225.341 113.015 225.731 113.148C226.122 113.273 226.556 113.336 227.035 113.336C227.477 113.336 227.894 113.273 228.284 113.148C228.675 113.015 228.991 112.835 229.235 112.607C229.478 112.378 229.599 112.113 229.599 111.811C229.599 111.501 229.47 111.247 229.212 111.048C228.962 110.842 228.638 110.68 228.24 110.562C227.849 110.437 227.448 110.345 227.035 110.286C225.915 110.123 224.91 109.858 224.018 109.49C223.134 109.114 222.434 108.598 221.918 107.943C221.41 107.287 221.156 106.454 221.156 105.445C221.156 104.48 221.428 103.636 221.973 102.914C222.519 102.184 223.237 101.617 224.129 101.212C225.027 100.807 225.996 100.604 227.035 100.604C227.905 100.604 228.737 100.744 229.533 101.024C230.336 101.297 231.036 101.694 231.633 102.218C232.23 102.741 232.657 103.367 232.915 104.096L229.798 105.224C229.725 105.01 229.559 104.807 229.301 104.616C229.05 104.417 228.73 104.255 228.339 104.13C227.949 104.004 227.514 103.942 227.035 103.942C226.608 103.934 226.199 103.997 225.808 104.13C225.418 104.262 225.097 104.443 224.847 104.671C224.596 104.9 224.471 105.157 224.471 105.445C224.471 105.843 224.589 106.141 224.825 106.34C225.061 106.532 225.37 106.668 225.753 106.749C226.144 106.83 226.571 106.904 227.035 106.97C228.096 107.125 229.072 107.401 229.964 107.799C230.856 108.197 231.57 108.727 232.108 109.39C232.646 110.053 232.915 110.86 232.915 111.811C232.915 112.776 232.642 113.623 232.097 114.353C231.559 115.075 230.844 115.638 229.953 116.044C229.061 116.449 228.089 116.652 227.035 116.652Z" fill="#1E1D25"/>
<path d="M234.577 112.352V105.312H237.892V111.424C237.892 111.77 237.977 112.087 238.147 112.374C238.316 112.654 238.541 112.879 238.821 113.049C239.108 113.211 239.421 113.292 239.76 113.292C240.107 113.292 240.42 113.211 240.7 113.049C240.987 112.879 241.212 112.654 241.374 112.374C241.543 112.087 241.628 111.77 241.628 111.424V105.312H244.944L244.955 116.364H241.639L241.628 115.646C241.26 115.963 240.84 116.209 240.368 116.386C239.897 116.563 239.399 116.652 238.876 116.652C238.088 116.652 237.366 116.46 236.71 116.077C236.062 115.686 235.542 115.167 235.152 114.519C234.768 113.87 234.577 113.148 234.577 112.352Z" fill="#1E1D25"/>
<path d="M249.84 121.89H246.524V105.312H249.84V106.351C250.186 105.961 250.588 105.644 251.045 105.401C251.501 105.15 252.028 105.025 252.625 105.025C253.436 105.025 254.191 105.176 254.891 105.478C255.591 105.78 256.206 106.2 256.736 106.738C257.274 107.268 257.691 107.884 257.985 108.584C258.287 109.284 258.438 110.035 258.438 110.838C258.438 111.641 258.287 112.397 257.985 113.104C257.691 113.811 257.274 114.434 256.736 114.972C256.206 115.502 255.591 115.918 254.891 116.221C254.191 116.523 253.436 116.674 252.625 116.674C252.028 116.674 251.501 116.548 251.045 116.298C250.588 116.047 250.186 115.731 249.84 115.347V121.89ZM252.581 108.208C252.131 108.208 251.719 108.329 251.343 108.573C250.975 108.808 250.68 109.125 250.459 109.523C250.238 109.921 250.127 110.359 250.127 110.838C250.127 111.324 250.238 111.767 250.459 112.164C250.68 112.562 250.975 112.879 251.343 113.115C251.719 113.351 252.131 113.469 252.581 113.469C253.038 113.469 253.454 113.351 253.83 113.115C254.205 112.879 254.504 112.562 254.725 112.164C254.946 111.767 255.056 111.324 255.056 110.838C255.056 110.359 254.946 109.921 254.725 109.523C254.504 109.125 254.205 108.808 253.83 108.573C253.454 108.329 253.038 108.208 252.581 108.208Z" fill="#1E1D25"/>
<path d="M260.113 116.364L260.102 105.312H263.418L263.429 106.008C263.797 105.692 264.217 105.445 264.689 105.268C265.16 105.091 265.657 105.003 266.181 105.003C266.578 105.003 266.984 105.062 267.396 105.18L266.092 108.539C265.834 108.421 265.569 108.363 265.296 108.363C264.95 108.363 264.633 108.447 264.346 108.617C264.066 108.779 263.841 109.004 263.672 109.291C263.51 109.571 263.429 109.884 263.429 110.23V116.364H260.113Z" fill="#1E1D25"/>
<path d="M268.607 116.364V100.891H274.906C275.754 100.891 276.52 101.105 277.205 101.532C277.891 101.96 278.432 102.534 278.83 103.256C279.235 103.971 279.438 104.76 279.438 105.622C279.438 106.285 279.327 106.904 279.106 107.478C278.885 108.046 278.568 108.55 278.156 108.992C277.751 109.427 277.272 109.777 276.719 110.042L280.388 116.364H276.564L273.072 110.352H271.922V116.364H268.607ZM271.922 107.036H274.509C274.803 107.036 275.072 106.963 275.315 106.815C275.559 106.661 275.754 106.458 275.901 106.207C276.049 105.957 276.122 105.681 276.122 105.378C276.122 105.076 276.049 104.8 275.901 104.55C275.754 104.299 275.559 104.1 275.315 103.953C275.072 103.798 274.803 103.721 274.509 103.721H271.922V107.036Z" fill="#1E1D25"/>
<path d="M286.249 116.652C285.232 116.652 284.303 116.39 283.464 115.867C282.631 115.344 281.964 114.64 281.463 113.756C280.969 112.872 280.723 111.895 280.723 110.827C280.723 110.024 280.866 109.272 281.154 108.573C281.441 107.865 281.835 107.246 282.336 106.716C282.845 106.178 283.434 105.758 284.105 105.456C284.775 105.154 285.49 105.003 286.249 105.003C287.133 105.003 287.94 105.198 288.669 105.588C289.406 105.972 290.025 106.495 290.526 107.158C291.034 107.814 291.395 108.554 291.609 109.379C291.823 110.205 291.845 111.056 291.675 111.932H284.303C284.407 112.19 284.543 112.426 284.712 112.64C284.889 112.846 285.103 113.012 285.353 113.137C285.611 113.262 285.91 113.329 286.249 113.336C286.573 113.343 286.871 113.273 287.144 113.126C287.424 112.979 287.667 112.78 287.873 112.529L291.255 113.314C290.806 114.294 290.135 115.097 289.244 115.723C288.352 116.342 287.354 116.652 286.249 116.652ZM284.182 109.501H288.326C288.223 109.184 288.069 108.904 287.862 108.661C287.656 108.418 287.413 108.226 287.133 108.086C286.86 107.946 286.565 107.876 286.249 107.876C285.939 107.876 285.644 107.946 285.364 108.086C285.092 108.226 284.852 108.418 284.646 108.661C284.447 108.904 284.292 109.184 284.182 109.501Z" fill="#1E1D25"/>
<path d="M299.147 116.364H295.898L292.206 105.312H295.456L297.533 111.523L299.589 105.312H302.816L304.872 111.523L306.95 105.312H310.199L306.508 116.364H303.258L301.203 110.153L299.147 116.364Z" fill="#1E1D25"/>
<path d="M319.239 105.312H322.555V116.364H319.228L319.074 115.37C318.801 115.753 318.455 116.062 318.035 116.298C317.622 116.534 317.139 116.652 316.587 116.652C315.762 116.652 314.988 116.497 314.266 116.187C313.551 115.878 312.921 115.451 312.376 114.905C311.831 114.353 311.403 113.719 311.094 113.004C310.792 112.282 310.641 111.509 310.641 110.683C310.641 109.895 310.785 109.158 311.072 108.473C311.359 107.788 311.761 107.187 312.277 106.672C312.8 106.148 313.4 105.74 314.078 105.445C314.763 105.15 315.496 105.003 316.277 105.003C316.911 105.003 317.486 105.135 318.002 105.401C318.525 105.658 318.989 105.983 319.394 106.373L319.239 105.312ZM316.498 113.469C316.955 113.469 317.372 113.351 317.747 113.115C318.123 112.879 318.422 112.562 318.643 112.164C318.864 111.767 318.974 111.324 318.974 110.838C318.974 110.352 318.864 109.91 318.643 109.512C318.422 109.114 318.123 108.797 317.747 108.561C317.372 108.326 316.955 108.208 316.498 108.208C316.042 108.208 315.625 108.326 315.25 108.561C314.881 108.797 314.586 109.114 314.365 109.512C314.152 109.91 314.045 110.352 314.045 110.838C314.045 111.324 314.155 111.767 314.376 112.164C314.598 112.562 314.892 112.879 315.261 113.115C315.636 113.351 316.049 113.469 316.498 113.469Z" fill="#1E1D25"/>
<path d="M324.785 116.364L324.774 105.312H328.089L328.1 106.008C328.469 105.692 328.889 105.445 329.36 105.268C329.832 105.091 330.329 105.003 330.852 105.003C331.25 105.003 331.655 105.062 332.068 105.18L330.764 108.539C330.506 108.421 330.241 108.363 329.968 108.363C329.622 108.363 329.305 108.447 329.018 108.617C328.738 108.779 328.513 109.004 328.344 109.291C328.181 109.571 328.1 109.884 328.1 110.23V116.364H324.785Z" fill="#1E1D25"/>
<path d="M340.696 99.7861H344.012V116.364H340.696V115.347C340.357 115.731 339.952 116.044 339.481 116.287C339.017 116.53 338.486 116.652 337.889 116.652C337.086 116.652 336.335 116.501 335.635 116.198C334.935 115.896 334.316 115.48 333.778 114.95C333.247 114.412 332.831 113.793 332.529 113.093C332.227 112.393 332.076 111.641 332.076 110.838C332.076 110.035 332.227 109.284 332.529 108.584C332.831 107.884 333.247 107.268 333.778 106.738C334.316 106.2 334.935 105.78 335.635 105.478C336.335 105.176 337.086 105.025 337.889 105.025C338.486 105.025 339.017 105.146 339.481 105.39C339.952 105.625 340.357 105.938 340.696 106.329V99.7861ZM337.933 113.469C338.39 113.469 338.807 113.351 339.182 113.115C339.558 112.879 339.856 112.562 340.078 112.164C340.299 111.767 340.409 111.324 340.409 110.838C340.409 110.352 340.299 109.91 340.078 109.512C339.856 109.114 339.558 108.797 339.182 108.561C338.807 108.326 338.39 108.208 337.933 108.208C337.477 108.208 337.06 108.326 336.685 108.561C336.316 108.797 336.021 109.114 335.8 109.512C335.587 109.91 335.48 110.352 335.48 110.838C335.48 111.324 335.59 111.767 335.811 112.164C336.032 112.562 336.327 112.879 336.696 113.115C337.071 113.351 337.484 113.469 337.933 113.469Z" fill="#1E1D25"/>
<path d="M349.845 116.563C349.285 116.512 348.747 116.39 348.231 116.198C347.716 116.007 347.255 115.745 346.85 115.414C346.445 115.082 346.124 114.677 345.888 114.198L348.673 113.004C348.747 113.085 348.85 113.189 348.983 113.314C349.115 113.432 349.281 113.539 349.48 113.634C349.687 113.73 349.933 113.778 350.221 113.778C350.412 113.778 350.596 113.76 350.773 113.723C350.958 113.679 351.105 113.605 351.215 113.502C351.333 113.399 351.392 113.255 351.392 113.071C351.392 112.864 351.315 112.71 351.16 112.607C351.013 112.496 350.832 112.419 350.619 112.374C350.405 112.323 350.206 112.282 350.022 112.253C349.366 112.15 348.736 111.943 348.132 111.634C347.535 111.317 347.045 110.908 346.662 110.407C346.279 109.899 346.087 109.306 346.087 108.628C346.087 107.869 346.282 107.213 346.673 106.661C347.063 106.108 347.572 105.684 348.198 105.39C348.832 105.087 349.513 104.936 350.243 104.936C351.105 104.936 351.901 105.113 352.63 105.467C353.367 105.821 353.971 106.329 354.443 106.992L351.834 108.539C351.746 108.429 351.635 108.318 351.503 108.208C351.377 108.09 351.23 107.99 351.061 107.909C350.899 107.821 350.722 107.766 350.53 107.744C350.272 107.722 350.04 107.733 349.834 107.777C349.635 107.814 349.477 107.895 349.359 108.02C349.241 108.138 349.182 108.311 349.182 108.539C349.182 108.753 349.285 108.908 349.491 109.004C349.698 109.099 349.93 109.169 350.188 109.214C350.445 109.258 350.655 109.306 350.818 109.357C351.451 109.564 352.048 109.832 352.608 110.164C353.168 110.496 353.617 110.897 353.956 111.369C354.303 111.84 354.465 112.393 354.443 113.026C354.443 113.763 354.222 114.412 353.779 114.972C353.337 115.532 352.766 115.955 352.066 116.243C351.366 116.53 350.626 116.637 349.845 116.563Z" fill="#1E1D25"/>
<path d="M235.63 144.233V133.193H237.271V144.233H235.63Z" fill="#1E1D25"/>
<path d="M246.495 139.289V144.233H244.855V139.691C244.855 139.338 244.768 139.018 244.595 138.729C244.427 138.439 244.198 138.211 243.909 138.043C243.625 137.869 243.304 137.782 242.947 137.782C242.6 137.782 242.282 137.869 241.993 138.043C241.704 138.211 241.472 138.439 241.299 138.729C241.125 139.018 241.038 139.338 241.038 139.691V144.233H239.398V136.347H241.038V137.183C241.312 136.857 241.648 136.599 242.048 136.41C242.447 136.221 242.878 136.126 243.341 136.126C243.925 136.126 244.456 136.268 244.934 136.552C245.412 136.836 245.791 137.217 246.07 137.696C246.353 138.174 246.495 138.705 246.495 139.289Z" fill="#1E1D25"/>
<path d="M252.233 137.987H250.577L250.569 144.233H248.929L248.937 137.987H247.683V136.347H248.937L248.929 133.871H250.569L250.577 136.347H252.233V137.987Z" fill="#1E1D25"/>
<path d="M256.93 144.438C256.204 144.438 255.542 144.251 254.943 143.878C254.349 143.505 253.873 143.005 253.515 142.38C253.163 141.749 252.987 141.052 252.987 140.29C252.987 139.712 253.089 139.173 253.294 138.673C253.5 138.169 253.781 137.727 254.138 137.349C254.501 136.965 254.922 136.665 255.4 136.45C255.878 136.234 256.388 136.126 256.93 136.126C257.534 136.126 258.089 136.253 258.594 136.505C259.098 136.752 259.529 137.096 259.887 137.538C260.244 137.974 260.507 138.479 260.676 139.052C260.844 139.62 260.894 140.224 260.825 140.866H254.745C254.814 141.228 254.945 141.557 255.14 141.851C255.34 142.141 255.592 142.369 255.897 142.537C256.207 142.706 256.551 142.792 256.93 142.798C257.329 142.798 257.692 142.698 258.018 142.498C258.349 142.298 258.62 142.022 258.83 141.67L260.494 142.056C260.179 142.756 259.703 143.329 259.067 143.775C258.431 144.217 257.718 144.438 256.93 144.438ZM254.69 139.612H259.169C259.117 139.233 258.983 138.892 258.767 138.587C258.557 138.277 258.291 138.032 257.971 137.853C257.655 137.669 257.308 137.577 256.93 137.577C256.557 137.577 256.21 137.667 255.889 137.845C255.573 138.024 255.311 138.269 255.1 138.579C254.895 138.884 254.759 139.228 254.69 139.612Z" fill="#1E1D25"/>
<path d="M269.228 139.289V144.233H267.588V139.691C267.588 139.338 267.501 139.018 267.328 138.729C267.16 138.439 266.931 138.211 266.642 138.043C266.358 137.869 266.037 137.782 265.68 137.782C265.333 137.782 265.015 137.869 264.726 138.043C264.437 138.211 264.205 138.439 264.032 138.729C263.858 139.018 263.772 139.338 263.772 139.691V144.233H262.131V136.347H263.772V137.183C264.045 136.857 264.381 136.599 264.781 136.41C265.18 136.221 265.612 136.126 266.074 136.126C266.658 136.126 267.189 136.268 267.667 136.552C268.145 136.836 268.524 137.217 268.803 137.696C269.087 138.174 269.228 138.705 269.228 139.289Z" fill="#1E1D25"/>
<path d="M274.966 137.987H273.31L273.302 144.233H271.662L271.67 137.987H270.416V136.347H271.67L271.662 133.871H273.302L273.31 136.347H274.966V137.987Z" fill="#1E1D25"/>
<path d="M280.167 144.233V133.193H284.086C284.654 133.193 285.166 133.309 285.624 133.54C286.086 133.771 286.452 134.105 286.72 134.541C286.993 134.972 287.13 135.49 287.13 136.095C287.13 136.389 287.083 136.678 286.988 136.962C286.893 137.246 286.759 137.496 286.586 137.711C286.412 137.927 286.202 138.079 285.955 138.169C286.291 138.253 286.57 138.405 286.791 138.626C287.017 138.842 287.196 139.094 287.327 139.383C287.458 139.672 287.55 139.972 287.603 140.282C287.661 140.592 287.69 140.887 287.69 141.165C287.69 141.754 287.548 142.28 287.264 142.742C286.98 143.205 286.599 143.57 286.121 143.839C285.647 144.101 285.124 144.233 284.551 144.233H280.167ZM281.807 142.813H284.394C284.73 142.813 285.035 142.729 285.308 142.561C285.587 142.393 285.808 142.162 285.971 141.867C286.134 141.567 286.215 141.231 286.215 140.858C286.215 140.532 286.134 140.224 285.971 139.935C285.808 139.641 285.587 139.404 285.308 139.225C285.035 139.047 284.73 138.957 284.394 138.957H281.807V142.813ZM281.807 137.562H283.913C284.344 137.562 284.714 137.43 285.024 137.167C285.335 136.904 285.49 136.544 285.49 136.087C285.49 135.598 285.335 135.233 285.024 134.991C284.714 134.744 284.344 134.62 283.913 134.62H281.807V137.562Z" fill="#1E1D25"/>
<path d="M295.035 136.347H296.675V144.233H295.027L294.964 143.089C294.732 143.494 294.42 143.82 294.025 144.067C293.631 144.314 293.166 144.438 292.63 144.438C292.051 144.438 291.507 144.33 290.997 144.115C290.487 143.894 290.038 143.589 289.649 143.2C289.265 142.811 288.965 142.364 288.75 141.859C288.534 141.349 288.426 140.803 288.426 140.219C288.426 139.657 288.532 139.128 288.742 138.634C288.952 138.135 289.244 137.698 289.617 137.325C289.99 136.952 290.422 136.66 290.91 136.45C291.405 136.234 291.933 136.126 292.495 136.126C293.069 136.126 293.573 136.258 294.01 136.521C294.451 136.778 294.817 137.109 295.106 137.514L295.035 136.347ZM292.59 142.853C293.053 142.853 293.458 142.74 293.805 142.514C294.151 142.282 294.42 141.972 294.609 141.583C294.803 141.194 294.901 140.763 294.901 140.29C294.901 139.812 294.803 139.378 294.609 138.989C294.414 138.6 294.144 138.292 293.797 138.066C293.455 137.835 293.053 137.719 292.59 137.719C292.133 137.719 291.715 137.835 291.336 138.066C290.958 138.298 290.658 138.608 290.437 138.997C290.217 139.386 290.106 139.817 290.106 140.29C290.106 140.768 290.219 141.202 290.445 141.591C290.677 141.975 290.979 142.282 291.352 142.514C291.731 142.74 292.143 142.853 292.59 142.853Z" fill="#1E1D25"/>
<path d="M300.614 144.383C300.199 144.356 299.794 144.272 299.4 144.13C299.006 143.988 298.659 143.797 298.359 143.555C298.064 143.308 297.844 143.018 297.696 142.687L299.092 142.088C299.161 142.23 299.279 142.369 299.447 142.506C299.621 142.643 299.823 142.756 300.054 142.845C300.286 142.929 300.527 142.971 300.78 142.971C301.027 142.971 301.256 142.937 301.466 142.869C301.681 142.795 301.858 142.685 301.994 142.537C302.131 142.39 302.199 142.214 302.199 142.009C302.199 141.778 302.12 141.599 301.963 141.473C301.81 141.341 301.618 141.242 301.387 141.173C301.156 141.105 300.924 141.039 300.693 140.976C300.178 140.86 299.705 140.703 299.274 140.503C298.848 140.298 298.509 140.038 298.256 139.722C298.004 139.402 297.878 139.01 297.878 138.547C297.878 138.043 298.015 137.606 298.288 137.238C298.561 136.865 298.919 136.578 299.36 136.379C299.807 136.179 300.283 136.079 300.788 136.079C301.419 136.079 301.997 136.213 302.523 136.481C303.048 136.749 303.45 137.117 303.729 137.585L302.428 138.358C302.349 138.2 302.231 138.058 302.073 137.932C301.915 137.806 301.737 137.706 301.537 137.633C301.337 137.554 301.129 137.509 300.914 137.498C300.646 137.488 300.396 137.519 300.165 137.593C299.939 137.661 299.757 137.772 299.621 137.924C299.484 138.077 299.416 138.271 299.416 138.508C299.416 138.739 299.497 138.913 299.66 139.028C299.823 139.139 300.028 139.228 300.275 139.296C300.527 139.365 300.785 139.441 301.048 139.525C301.516 139.672 301.955 139.854 302.365 140.069C302.775 140.279 303.106 140.54 303.358 140.85C303.611 141.16 303.732 141.539 303.721 141.985C303.721 142.48 303.571 142.913 303.272 143.287C302.977 143.66 302.594 143.944 302.12 144.138C301.647 144.333 301.145 144.414 300.614 144.383Z" fill="#1E1D25"/>
<path d="M308.433 144.438C307.708 144.438 307.045 144.251 306.446 143.878C305.852 143.505 305.376 143.005 305.019 142.38C304.667 141.749 304.491 141.052 304.491 140.29C304.491 139.712 304.593 139.173 304.798 138.673C305.003 138.169 305.284 137.727 305.642 137.349C306.005 136.965 306.425 136.665 306.904 136.45C307.382 136.234 307.892 136.126 308.433 136.126C309.038 136.126 309.593 136.253 310.097 136.505C310.602 136.752 311.033 137.096 311.391 137.538C311.748 137.974 312.011 138.479 312.179 139.052C312.347 139.62 312.397 140.224 312.329 140.866H306.249C306.317 141.228 306.449 141.557 306.643 141.851C306.843 142.141 307.095 142.369 307.4 142.537C307.711 142.706 308.055 142.792 308.433 142.798C308.833 142.798 309.196 142.698 309.522 142.498C309.853 142.298 310.124 142.022 310.334 141.67L311.998 142.056C311.682 142.756 311.207 143.329 310.57 143.775C309.934 144.217 309.222 144.438 308.433 144.438ZM306.194 139.612H310.673C310.62 139.233 310.486 138.892 310.271 138.587C310.06 138.277 309.795 138.032 309.474 137.853C309.159 137.669 308.812 137.577 308.433 137.577C308.06 137.577 307.713 137.667 307.392 137.845C307.077 138.024 306.814 138.269 306.604 138.579C306.399 138.884 306.262 139.228 306.194 139.612Z" fill="#1E1D25"/>
<path d="M319.762 132.404H321.403V144.233H319.762V143.074C319.505 143.484 319.168 143.815 318.753 144.067C318.338 144.314 317.851 144.438 317.294 144.438C316.721 144.438 316.185 144.33 315.686 144.115C315.186 143.899 314.744 143.602 314.361 143.223C313.982 142.84 313.685 142.398 313.47 141.899C313.254 141.399 313.146 140.863 313.146 140.29C313.146 139.717 313.254 139.181 313.47 138.681C313.685 138.177 313.982 137.735 314.361 137.357C314.744 136.973 315.186 136.673 315.686 136.458C316.185 136.242 316.721 136.134 317.294 136.134C317.851 136.134 318.338 136.26 318.753 136.513C319.168 136.76 319.505 137.086 319.762 137.491V132.404ZM317.31 142.853C317.773 142.853 318.177 142.74 318.524 142.514C318.871 142.282 319.139 141.972 319.329 141.583C319.523 141.194 319.621 140.763 319.621 140.29C319.621 139.812 319.523 139.378 319.329 138.989C319.134 138.6 318.863 138.292 318.516 138.066C318.175 137.835 317.773 137.719 317.31 137.719C316.853 137.719 316.435 137.835 316.056 138.066C315.683 138.298 315.383 138.608 315.157 138.997C314.936 139.386 314.826 139.817 314.826 140.29C314.826 140.768 314.939 141.202 315.165 141.591C315.396 141.975 315.699 142.282 316.072 142.514C316.45 142.74 316.863 142.853 317.31 142.853Z" fill="#1E1D25"/>
<path d="M330.779 133.193H332.695L336.709 144.233H334.974L334.209 142.135H329.265L328.508 144.233H326.765L330.779 133.193ZM329.872 140.495H333.602L331.733 135.369L329.872 140.495Z" fill="#1E1D25"/>
<path d="M338.329 144.233V133.193H339.97V144.233H338.329Z" fill="#1E1D25"/>
<rect x="182.986" y="12.9857" width="209.629" height="182.029" rx="25.3" stroke="#242424" stroke-width="1.97143"/>
</svg>
