<svg width="400" height="450" viewBox="0 0 400 450" fill="none" xmlns="http://www.w3.org/2000/svg">
<path d="M104.516 158.505C105.331 154.861 104.058 151.475 101.672 150.941C99.2858 150.406 96.6902 152.927 95.8746 156.57C95.059 160.213 96.332 163.6 98.7182 164.134C101.104 164.668 103.7 162.148 104.516 158.505Z" fill="white"/>
<path d="M99.3738 164.787C99.1104 164.788 98.848 164.759 98.5916 164.699C97.2368 164.396 96.1568 163.34 95.5468 161.719C94.996 160.013 94.9124 158.19 95.3046 156.441C95.6968 154.691 96.5504 153.078 97.7768 151.77C99.02 150.565 100.449 150.066 101.799 150.374C103.149 150.681 104.23 151.738 104.839 153.353C105.393 155.06 105.478 156.884 105.086 158.635C104.694 160.386 103.838 162 102.609 163.307C101.766 164.205 100.605 164.737 99.3738 164.787ZM101.022 151.449C100.091 151.503 99.2176 151.917 98.587 152.604C97.5236 153.754 96.7832 155.166 96.4408 156.694C96.0982 158.223 96.1656 159.815 96.6362 161.31C97.1018 162.553 97.8886 163.349 98.843 163.563C99.7974 163.777 100.85 163.391 101.799 162.469C102.891 161.337 103.637 159.918 103.95 158.377C104.325 156.85 104.255 155.247 103.75 153.758C103.284 152.52 102.502 151.719 101.543 151.505C101.372 151.468 101.197 151.449 101.022 151.449Z" fill="#1E1D25"/>
<path d="M98.14 202.541L105.864 220.688L67.413 205.59L65.4902 160.58L95.854 158.969L98.14 202.541Z" fill="white"/>
<path d="M105.864 221.284C105.792 221.284 105.721 221.27 105.655 221.242L67.1993 206.144C67.0943 206.103 67.0035 206.032 66.9381 205.941C66.8727 205.849 66.8357 205.74 66.8315 205.627L64.9089 160.621C64.9051 160.546 64.9163 160.47 64.9419 160.398C64.9675 160.327 65.0069 160.261 65.0579 160.205C65.1089 160.149 65.1705 160.103 65.2393 160.071C65.3079 160.038 65.3823 160.02 65.4581 160.016L95.8081 158.387C95.8843 158.382 95.9607 158.393 96.0327 158.419C96.1045 158.444 96.1707 158.484 96.2271 158.536C96.2851 158.586 96.3319 158.649 96.3649 158.718C96.3977 158.788 96.4157 158.864 96.4179 158.941L98.6991 202.405L106.381 220.46C106.427 220.565 106.44 220.681 106.419 220.794C106.399 220.907 106.345 221.011 106.265 221.093C106.16 221.205 106.017 221.274 105.864 221.284ZM67.9769 205.199L104.784 219.631L97.6051 202.764C97.5781 202.7 97.5623 202.633 97.5585 202.564L95.3053 159.579L66.0959 161.129L67.9769 205.199Z" fill="#1E1D25"/>
<path d="M97.0326 181.12C97.0326 181.12 92.0278 176.823 81.3292 177.615C75.426 178.048 84.0528 166.32 84.0528 166.32L96.2132 165.678L97.0326 181.12Z" fill="#1E1D25"/>
<path d="M97.032 181.71C96.8936 181.711 96.7596 181.661 96.655 181.571C96.6084 181.529 91.6688 177.446 81.3706 178.2C79.8948 178.312 79.2476 177.735 78.959 177.199C77.4786 174.518 82.5532 167.385 83.582 165.984C83.633 165.915 83.6986 165.858 83.7744 165.818C83.8502 165.777 83.934 165.755 84.0196 165.751L96.1802 165.104C96.2572 165.099 96.3344 165.109 96.4072 165.135C96.4802 165.16 96.547 165.201 96.6038 165.253C96.7166 165.357 96.785 165.5 96.7946 165.653L97.614 181.101C97.6204 181.214 97.5928 181.327 97.5348 181.425C97.4768 181.523 97.3908 181.601 97.2882 181.65C97.209 181.691 97.1212 181.711 97.032 181.71ZM83.9266 176.943C90.5514 176.943 94.6344 178.88 96.3896 179.969L95.6634 166.296L84.3596 166.896C82.0318 170.155 79.1732 175.179 79.9786 176.636C80.1556 176.957 80.5932 177.101 81.2868 177.041C82.2086 176.962 83.0886 176.934 83.9266 176.934V176.943Z" fill="#1E1D25"/>
<path d="M101.297 152.055V161.231C101.301 165.575 99.5793 169.743 96.5105 172.818C93.4417 175.893 89.2771 177.623 84.9329 177.628H81.9207C77.5809 177.627 73.4191 175.903 70.3491 172.836C67.2791 169.768 65.5519 165.608 65.5469 161.268V152.092C65.5421 147.502 67.3603 143.098 70.6021 139.848C73.8437 136.599 78.2433 134.77 82.8333 134.764H83.9925C88.5789 134.766 92.9769 136.588 96.2213 139.83C99.4655 143.072 101.291 147.468 101.297 152.055Z" fill="white"/>
<path d="M82.1578 178.215C78.9744 178.215 75.8538 177.33 73.1446 175.659C73.0794 175.619 73.0228 175.566 72.978 175.504C72.9332 175.443 72.901 175.372 72.8832 175.298C72.8654 175.224 72.8626 175.147 72.8746 175.071C72.8868 174.996 72.9136 174.923 72.9536 174.858C72.9936 174.793 73.0462 174.736 73.108 174.692C73.17 174.647 73.2402 174.615 73.3144 174.597C73.3888 174.579 73.466 174.576 73.5414 174.588C73.617 174.6 73.6892 174.627 73.7544 174.667C76.2812 176.222 79.1906 177.045 82.1578 177.042H84.695C88.9504 177.037 93.0296 175.342 96.0356 172.33C99.0414 169.318 100.728 165.235 100.724 160.98V152.05C100.719 147.617 98.9548 143.367 95.8184 140.234C92.6818 137.101 88.43 135.341 83.9968 135.341H82.8188C78.3834 135.356 74.1348 137.128 71.0038 140.27C67.8726 143.412 66.1146 147.666 66.1146 152.102V161.031C66.1174 164.884 67.5072 168.608 70.03 171.52C70.1202 171.638 70.162 171.786 70.1468 171.934C70.1316 172.081 70.0604 172.218 69.948 172.315C69.8356 172.412 69.6902 172.462 69.542 172.455C69.3936 172.449 69.2534 172.386 69.15 172.279C66.4484 169.156 64.9612 165.165 64.96 161.036V152.102C64.96 147.359 66.8412 142.81 70.1908 139.452C73.5406 136.094 78.0854 134.203 82.8282 134.191H84.006C88.7394 134.202 93.2758 136.088 96.622 139.436C99.9682 142.784 101.852 147.322 101.86 152.055V160.984C101.86 165.547 100.05 169.924 96.8264 173.153C93.603 176.383 89.23 178.202 84.6672 178.21H82.1298L82.1578 178.215Z" fill="#1E1D25"/>
<path d="M101.297 152.055C101.297 152.055 100.548 147.139 97.8242 144.69C95.259 142.362 77.6842 143.833 76.0406 144.667C74.6114 145.388 73.359 146.957 72.0416 150.319C70.589 154.01 65.5236 154.546 65.5236 154.546V152.092L65.2444 134.336C65.2418 134.223 65.262 134.111 65.3034 134.007C65.345 133.902 65.4072 133.807 65.4862 133.726C65.565 133.646 65.6594 133.582 65.7634 133.539C65.8674 133.496 65.979 133.474 66.0916 133.475L99.5608 133.633C99.7776 133.634 99.9858 133.718 100.143 133.868C100.299 134.018 100.393 134.222 100.403 134.438L101.297 152.055Z" fill="#1E1D25"/>
<path d="M65.5462 155.128C65.3922 155.127 65.2448 155.065 65.136 154.956C65.027 154.847 64.9654 154.7 64.9642 154.546V152.092L64.6848 134.345C64.6812 134.156 64.7152 133.967 64.7852 133.791C64.855 133.615 64.9594 133.455 65.092 133.32C65.2248 133.184 65.383 133.077 65.5578 133.004C65.7324 132.93 65.92 132.893 66.1094 132.893L99.5786 133.051C99.9434 133.053 100.294 133.194 100.558 133.446C100.822 133.698 100.98 134.041 100.999 134.406L101.86 152.022C101.868 152.172 101.818 152.318 101.721 152.432C101.624 152.545 101.487 152.617 101.338 152.632C101.19 152.646 101.042 152.603 100.924 152.511C100.807 152.419 100.728 152.286 100.705 152.139C100.705 152.092 99.951 147.264 97.4464 145.132C94.9416 143 77.9766 144.341 76.3006 145.188C74.9038 145.896 73.754 147.544 72.576 150.528C71.0118 154.504 65.8022 155.104 65.5926 155.128H65.5462ZM66.1094 134.056C66.0394 134.058 65.9726 134.086 65.9232 134.136C65.8986 134.161 65.8792 134.191 65.8664 134.223C65.8536 134.256 65.8476 134.291 65.8488 134.326L66.128 152.083V153.857C67.4642 153.577 70.509 152.674 71.5192 150.104C72.8088 146.845 74.1264 144.983 75.7978 144.15C77.4692 143.316 95.072 141.58 98.2238 144.243C99.1956 145.126 99.9712 146.203 100.5 147.404L99.844 134.466C99.8416 134.399 99.813 134.335 99.7644 134.288C99.7158 134.241 99.6508 134.215 99.5832 134.215L66.1142 134.056H66.1094Z" fill="#1E1D25"/>
<path d="M88.8526 158.433C88.7056 158.43 88.5652 158.372 88.4596 158.27C88.354 158.167 88.291 158.029 88.2834 157.882C88.2758 157.735 88.324 157.591 88.4184 157.478C88.5126 157.365 88.6462 157.293 88.792 157.274L93.35 156.809C93.0034 154.798 92.548 152.807 91.9858 150.845C91.9628 150.77 91.955 150.692 91.963 150.614C91.971 150.537 91.9944 150.462 92.0318 150.393C92.0694 150.325 92.1202 150.265 92.1816 150.216C92.2428 150.168 92.313 150.133 92.3882 150.112C92.4634 150.091 92.542 150.086 92.6194 150.097C92.6966 150.107 92.771 150.133 92.8382 150.172C92.9052 150.212 92.9638 150.265 93.01 150.328C93.0564 150.39 93.0896 150.462 93.1078 150.538C94.8118 156.776 94.537 157.377 94.4486 157.572C94.408 157.665 94.3436 157.745 94.2618 157.805C94.18 157.865 94.0838 157.902 93.983 157.912L88.9132 158.433H88.8526ZM83.038 152.409C82.968 152.411 82.8982 152.398 82.8332 152.372C82.7616 152.345 82.6962 152.304 82.6404 152.252C82.5846 152.2 82.5396 152.137 82.508 152.068C82.4764 151.998 82.4588 151.923 82.4564 151.846C82.4538 151.77 82.4664 151.694 82.4934 151.622C83.9692 147.754 88.4898 147.898 88.5456 147.898C88.622 147.901 88.6972 147.919 88.7666 147.951C88.836 147.983 88.8986 148.029 88.9504 148.085C89.0024 148.141 89.0426 148.207 89.069 148.279C89.0954 148.35 89.1074 148.427 89.1042 148.503C89.0958 148.657 89.028 148.801 88.915 148.905C88.802 149.01 88.6528 149.066 88.499 149.062C88.3454 149.062 84.7746 148.959 83.592 152.041C83.5488 152.152 83.4724 152.247 83.3732 152.313C83.2742 152.379 83.157 152.413 83.038 152.409ZM98.1782 150.984C98.0764 150.985 97.9762 150.958 97.8878 150.908C97.7996 150.857 97.7262 150.784 97.6754 150.696C96.4184 148.559 93.327 148.642 93.2944 148.642C93.1412 148.646 92.9926 148.59 92.8802 148.485C92.768 148.381 92.701 148.237 92.6938 148.084C92.6908 148.008 92.7028 147.931 92.7292 147.86C92.7556 147.788 92.796 147.723 92.848 147.667C92.9 147.611 92.9624 147.566 93.0318 147.535C93.1012 147.503 93.1762 147.486 93.2526 147.483C93.4014 147.483 97.0654 147.367 98.6762 150.104C98.7546 150.237 98.7768 150.395 98.7384 150.545C98.7 150.694 98.604 150.822 98.4714 150.9C98.383 150.954 98.2816 150.983 98.1782 150.984ZM87.2652 154.136C87.6946 154.136 88.0426 153.788 88.0426 153.359C88.0426 152.929 87.6946 152.581 87.2652 152.581C86.8358 152.581 86.4878 152.929 86.4878 153.359C86.4878 153.788 86.8358 154.136 87.2652 154.136ZM95.5008 153.629C95.9302 153.629 96.2782 153.281 96.2782 152.851C96.2782 152.422 95.9302 152.074 95.5008 152.074C95.0714 152.074 94.7232 152.422 94.7232 152.851C94.7232 153.281 95.0714 153.629 95.5008 153.629Z" fill="#1E1D25"/>
<path d="M68.6894 163.996C71.0744 163.457 72.3404 160.068 71.5172 156.426C70.6938 152.785 68.093 150.27 65.708 150.809C63.323 151.348 62.0568 154.738 62.8802 158.379C63.7036 162.021 66.3044 164.535 68.6894 163.996Z" fill="white"/>
<path d="M67.5715 164.607H67.4829C65.1785 164.253 63.0555 161.744 62.3199 158.508C61.8917 156.762 61.9741 154.929 62.5573 153.229C63.1625 151.609 64.2381 150.547 65.5881 150.24C67.5529 149.798 69.7037 151.096 71.0631 153.55C71.1379 153.685 71.1557 153.844 71.1129 153.993C71.0703 154.141 70.9703 154.267 70.8351 154.341C70.6999 154.416 70.5405 154.434 70.3921 154.391C70.2437 154.348 70.1183 154.248 70.0435 154.113C68.9401 152.125 67.2921 151.045 65.8535 151.376C64.8945 151.595 64.1123 152.395 63.6515 153.634C63.1469 155.123 63.0807 156.726 63.4605 158.252C64.0797 160.99 65.8489 163.178 67.6505 163.457C67.7991 163.475 67.9347 163.55 68.0295 163.666C68.1243 163.782 68.1707 163.93 68.1593 164.079C68.1479 164.228 68.0795 164.367 67.9683 164.467C67.8571 164.567 67.7117 164.621 67.5621 164.616L67.5715 164.607Z" fill="#1E1D25"/>
<path d="M67.4086 157.968H67.3294L66.091 157.805C65.9386 157.784 65.8002 157.704 65.7062 157.582C65.612 157.46 65.5698 157.306 65.5882 157.153C65.6058 157.004 65.681 156.868 65.7976 156.774C65.9142 156.68 66.063 156.636 66.2122 156.65L65.0342 154.881C64.9924 154.817 64.9636 154.745 64.9494 154.67C64.9354 154.594 64.9362 154.517 64.952 154.442C64.9678 154.367 64.9982 154.296 65.0414 154.233C65.0846 154.169 65.14 154.115 65.2042 154.073C65.2684 154.031 65.3402 154.003 65.4156 153.989C65.4908 153.974 65.5682 153.975 65.6432 153.991C65.7182 154.007 65.7894 154.037 65.8526 154.08C65.916 154.124 65.97 154.179 66.012 154.243L67.9022 157.079C67.9594 157.165 67.9924 157.265 67.9982 157.368C68.0038 157.472 67.9818 157.575 67.9344 157.667C67.887 157.759 67.8158 157.837 67.7282 157.892C67.6408 157.947 67.54 157.978 67.4366 157.982L67.4086 157.968ZM101.297 156.836C101.156 156.836 101.021 156.785 100.915 156.692C100.799 156.591 100.728 156.447 100.718 156.294C100.707 156.14 100.758 155.989 100.859 155.873L102.195 154.346C102.297 154.229 102.44 154.157 102.594 154.146C102.748 154.135 102.9 154.186 103.017 154.287C103.134 154.389 103.205 154.532 103.216 154.686C103.227 154.84 103.177 154.992 103.075 155.109L101.739 156.636C101.684 156.699 101.615 156.749 101.539 156.783C101.463 156.818 101.38 156.836 101.297 156.836ZM85.924 164.783C85.1472 164.776 84.4022 164.475 83.8382 163.94C81.5522 161.911 82.139 158.861 82.7674 157.534C82.8214 157.421 82.9108 157.327 83.0222 157.269C83.1336 157.21 83.261 157.189 83.3854 157.209C83.5098 157.229 83.6244 157.289 83.7118 157.379C83.7994 157.47 83.8552 157.586 83.8708 157.711C83.9872 158.601 85.0208 160.146 86.3756 161.035C86.7648 161.326 87.2122 161.528 87.6872 161.629C88.162 161.731 88.6532 161.728 89.127 161.622C89.245 161.59 89.3702 161.594 89.4852 161.636C89.6004 161.678 89.6996 161.754 89.7694 161.855C89.8418 161.954 89.8806 162.074 89.8806 162.197C89.8806 162.32 89.8418 162.44 89.7694 162.539C89.7042 162.623 88.168 164.588 86.2312 164.769L85.924 164.783ZM83.396 159.578C83.287 160.22 83.3436 160.88 83.5602 161.494C83.7768 162.108 84.1466 162.657 84.6344 163.089C84.8288 163.281 85.0626 163.429 85.3198 163.522C85.577 163.615 85.8514 163.652 86.124 163.629C86.748 163.535 87.3332 163.269 87.814 162.86C87.0776 162.734 86.3772 162.45 85.761 162.027C84.809 161.386 84.003 160.552 83.396 159.578Z" fill="#1E1D25"/>
<path d="M67.4094 205.59C67.4094 205.59 29.6292 219.771 22.9204 229.688C16.2117 239.604 20.0526 315.662 30.1274 332.468C42.055 352.344 134.078 352.572 134.078 352.572L132.62 329.908L183.944 323.116L175.168 305.318C175.168 305.318 191.314 316.448 204.34 307.864C218.418 298.552 244.186 220.688 244.186 220.688L212.808 206.605L187.668 261.96C187.668 261.96 146.233 205.185 134.562 201.125C122.89 197.065 98.127 202.522 98.127 202.522L105.851 220.678L67.4094 205.59Z" fill="white"/>
<path d="M297.33 103.073C300.264 103.073 302.642 100.695 302.642 97.7612C302.642 94.8276 300.264 92.4492 297.33 92.4492C294.396 92.4492 292.018 94.8276 292.018 97.7612C292.018 100.695 294.396 103.073 297.33 103.073ZM304.7 123.898C306.498 116.048 302.274 108.381 295.264 106.774C288.252 105.168 281.11 110.229 279.308 118.078L304.7 123.898Z" fill="#FFCB3D"/>
<path d="M297.33 103.655C296.108 103.655 294.916 103.275 293.918 102.568C292.922 101.86 292.17 100.86 291.766 99.7062C291.364 98.5524 291.328 97.3016 291.668 96.1272C292.006 94.9528 292.702 93.9128 293.658 93.1512C294.614 92.3896 295.784 91.944 297.004 91.8762C298.224 91.8086 299.436 92.122 300.47 92.773C301.504 93.4242 302.31 94.381 302.778 95.5106C303.244 96.6404 303.348 97.8874 303.076 99.0788C302.776 100.378 302.044 101.538 301.002 102.369C299.958 103.2 298.664 103.654 297.33 103.655ZM297.33 93.0312C296.44 93.0308 295.568 93.2818 294.814 93.7552C294.06 94.2284 293.454 94.905 293.068 95.7068C292.682 96.5088 292.528 97.4036 292.628 98.2882C292.728 99.173 293.074 100.012 293.628 100.708C294.184 101.404 294.924 101.93 295.764 102.225C296.604 102.519 297.51 102.571 298.378 102.374C299.246 102.176 300.04 101.738 300.67 101.109C301.3 100.48 301.74 99.6858 301.94 98.818C302.218 97.5958 302 96.3128 301.334 95.2508C300.668 94.1886 299.608 93.4338 298.386 93.1522C298.04 93.0708 297.686 93.0302 297.33 93.0312ZM304.7 124.48C304.658 124.485 304.614 124.485 304.57 124.48L279.184 118.66C279.108 118.643 279.038 118.612 278.976 118.567C278.912 118.523 278.86 118.467 278.82 118.402C278.778 118.337 278.752 118.265 278.738 118.189C278.726 118.114 278.728 118.037 278.746 117.962C279.586 114.12 281.812 110.722 284.998 108.418C286.468 107.319 288.16 106.553 289.954 106.174C291.75 105.794 293.608 105.81 295.396 106.22C297.184 106.631 298.862 107.425 300.314 108.549C301.764 109.673 302.954 111.099 303.798 112.729C305.66 116.191 306.184 120.218 305.268 124.042C305.25 124.117 305.22 124.187 305.174 124.25C305.13 124.312 305.072 124.365 305.008 124.405C304.914 124.459 304.808 124.485 304.7 124.48ZM280.026 117.641L304.262 123.2C304.944 119.819 304.418 116.307 302.778 113.274C302.012 111.788 300.932 110.487 299.612 109.461C298.292 108.436 296.764 107.711 295.134 107.337C293.506 106.964 291.814 106.95 290.18 107.298C288.544 107.645 287.004 108.345 285.668 109.349C282.876 111.371 280.878 114.303 280.016 117.641H280.026Z" fill="#1E1D25"/>
<path d="M317.982 186.422C320.458 186.422 322.466 184.415 322.466 181.939C322.466 179.463 320.458 177.455 317.982 177.455C315.506 177.455 313.5 179.463 313.5 181.939C313.5 184.415 315.506 186.422 317.982 186.422ZM334.664 166.222C328.086 167.94 323.998 174.094 325.534 179.965C327.07 185.836 333.644 189.206 340.228 187.488L334.664 166.222Z" fill="#FFCB3D"/>
<path d="M317.982 187.005C316.694 187.009 315.45 186.522 314.508 185.644C313.564 184.765 312.99 183.56 312.902 182.274C312.816 180.988 313.222 179.716 314.038 178.718C314.854 177.72 316.018 177.07 317.296 176.9C318.574 176.73 319.87 177.052 320.918 177.802C321.966 178.552 322.69 179.673 322.942 180.938C323.194 182.202 322.956 183.515 322.276 184.61C321.594 185.705 320.522 186.499 319.276 186.832C318.854 186.945 318.42 187.003 317.982 187.005ZM317.982 178.038C317.648 178.038 317.314 178.082 316.99 178.168C316.044 178.421 315.228 179.024 314.71 179.856C314.192 180.688 314.01 181.686 314.2 182.648C314.39 183.609 314.94 184.462 315.736 185.034C316.532 185.605 317.516 185.852 318.488 185.724C319.46 185.596 320.348 185.104 320.97 184.346C321.59 183.588 321.902 182.622 321.836 181.644C321.772 180.666 321.338 179.749 320.622 179.079C319.906 178.409 318.962 178.037 317.982 178.038ZM336.746 188.523C334.652 188.532 332.586 188.042 330.72 187.093C329.314 186.416 328.07 185.442 327.078 184.236C326.084 183.031 325.366 181.624 324.972 180.113C324.576 178.602 324.516 177.024 324.792 175.487C325.068 173.95 325.676 172.492 326.572 171.213C328.446 168.447 331.274 166.47 334.516 165.659C334.666 165.621 334.824 165.643 334.958 165.722C335.092 165.8 335.188 165.928 335.228 166.078L340.782 187.345C340.802 187.418 340.808 187.495 340.798 187.571C340.788 187.647 340.762 187.72 340.724 187.786C340.686 187.852 340.634 187.909 340.572 187.955C340.512 188.001 340.442 188.034 340.368 188.052C339.186 188.364 337.968 188.522 336.746 188.523ZM334.25 166.944C331.514 167.759 329.142 169.496 327.542 171.86C326.736 173.003 326.192 174.308 325.944 175.684C325.694 177.06 325.75 178.473 326.104 179.825C326.46 181.177 327.106 182.436 327.996 183.513C328.888 184.589 330.004 185.459 331.266 186.06C333.818 187.338 336.736 187.691 339.52 187.061L334.25 166.944Z" fill="#1E1D25"/>
<path d="M359.73 119.973C362.506 119.973 364.758 117.721 364.758 114.944C364.758 112.168 362.506 109.916 359.73 109.916C356.952 109.916 354.702 112.168 354.702 114.944C354.702 117.721 356.952 119.973 359.73 119.973ZM337.16 127.282C344.786 127.282 350.972 121.756 350.972 114.945C350.972 108.134 344.786 102.607 337.16 102.607V127.282Z" fill="#FFCB3D"/>
<path d="M359.73 120.554C358.62 120.553 357.534 120.223 356.612 119.605C355.69 118.987 354.972 118.109 354.548 117.082C354.124 116.056 354.016 114.927 354.234 113.838C354.454 112.75 354.99 111.75 355.778 110.967C356.564 110.184 357.566 109.652 358.656 109.439C359.746 109.225 360.874 109.34 361.898 109.768C362.922 110.196 363.798 110.919 364.41 111.845C365.024 112.77 365.348 113.857 365.344 114.967C365.336 116.452 364.742 117.872 363.69 118.919C362.638 119.966 361.214 120.554 359.73 120.554ZM359.73 110.498C358.85 110.499 357.992 110.76 357.26 111.249C356.53 111.739 355.962 112.433 355.626 113.246C355.29 114.058 355.202 114.952 355.374 115.814C355.546 116.676 355.97 117.468 356.592 118.089C357.214 118.711 358.006 119.134 358.868 119.305C359.732 119.476 360.624 119.388 361.436 119.051C362.25 118.715 362.944 118.145 363.432 117.414C363.92 116.683 364.18 115.823 364.18 114.944C364.182 114.358 364.068 113.778 363.846 113.236C363.622 112.695 363.296 112.203 362.882 111.788C362.468 111.373 361.978 111.044 361.436 110.819C360.896 110.595 360.316 110.479 359.73 110.479V110.498ZM337.16 127.864C337.004 127.864 336.856 127.803 336.748 127.694C336.638 127.584 336.578 127.436 336.578 127.282V102.607C336.578 102.453 336.638 102.305 336.748 102.196C336.856 102.087 337.004 102.025 337.16 102.025C345.096 102.025 351.554 107.822 351.554 114.945C351.554 122.068 345.096 127.864 337.16 127.864ZM337.742 103.189V126.672C344.766 126.402 350.39 121.239 350.39 114.931C350.39 108.622 344.766 103.497 337.742 103.203V103.189Z" fill="#1E1D25"/>
<path d="M376.718 167.009C378.672 167.009 380.256 165.425 380.256 163.471C380.256 161.517 378.672 159.933 376.718 159.933C374.764 159.933 373.18 161.517 373.18 163.471C373.18 165.425 374.764 167.009 376.718 167.009ZM360.996 154.49C363.79 159.062 369.404 160.733 373.486 158.215C377.57 155.696 378.608 149.956 375.786 145.384L360.996 154.49Z" fill="white"/>
<path d="M376.728 167.595C376.402 167.593 376.08 167.554 375.764 167.479C374.756 167.232 373.878 166.61 373.314 165.739C372.748 164.868 372.536 163.814 372.722 162.793C372.908 161.771 373.478 160.859 374.312 160.243C375.148 159.627 376.188 159.353 377.218 159.477C378.25 159.602 379.194 160.115 379.86 160.913C380.524 161.71 380.86 162.731 380.796 163.768C380.734 164.804 380.278 165.777 379.522 166.489C378.766 167.2 377.766 167.596 376.728 167.595ZM376.728 160.509C376.178 160.517 375.644 160.678 375.182 160.975C374.85 161.178 374.564 161.445 374.336 161.76C374.108 162.074 373.944 162.431 373.854 162.809C373.764 163.187 373.75 163.579 373.812 163.962C373.874 164.346 374.01 164.713 374.214 165.044C374.484 165.48 374.866 165.838 375.318 166.082C375.77 166.326 376.278 166.447 376.79 166.435C377.304 166.423 377.806 166.276 378.246 166.011C378.684 165.745 379.048 165.37 379.298 164.921C379.548 164.472 379.676 163.966 379.67 163.453C379.666 162.939 379.526 162.436 379.266 161.993C379.006 161.549 378.636 161.182 378.19 160.925C377.746 160.669 377.242 160.534 376.728 160.533V160.509ZM369.31 159.974C368.392 159.972 367.48 159.835 366.602 159.569C364.05 158.783 361.88 157.084 360.502 154.797C360.462 154.732 360.436 154.66 360.424 154.584C360.412 154.509 360.414 154.432 360.432 154.357C360.45 154.283 360.482 154.213 360.526 154.151C360.572 154.089 360.628 154.037 360.694 153.997L375.48 144.89C375.612 144.811 375.77 144.786 375.92 144.822C376.068 144.857 376.198 144.951 376.28 145.081C377.702 147.341 378.242 150.046 377.798 152.679C377.602 153.915 377.142 155.095 376.452 156.139C375.762 157.183 374.856 158.067 373.794 158.731C372.444 159.555 370.892 159.986 369.31 159.974ZM361.81 154.672C363.04 156.477 364.846 157.811 366.932 158.457C367.964 158.8 369.06 158.913 370.14 158.788C371.22 158.663 372.26 158.303 373.188 157.732C374.114 157.162 374.904 156.396 375.504 155.488C376.102 154.579 376.494 153.551 376.652 152.474C377.016 150.321 376.64 148.109 375.582 146.198L361.81 154.672Z" fill="#1E1D25"/>
<path d="M362.66 69.8588C364.616 69.8588 366.2 68.2746 366.2 66.3204C366.2 64.3664 364.616 62.7822 362.66 62.7822C360.706 62.7822 359.122 64.3664 359.122 66.3204C359.122 68.2746 360.706 69.8588 362.66 69.8588ZM358.774 84.0016C362.298 79.9512 362.228 74.113 358.61 70.966C354.994 67.8188 349.202 68.545 345.678 72.5954L358.774 84.0016Z" fill="white"/>
<path d="M362.656 70.4406C361.716 70.4364 360.804 70.11 360.074 69.5158C359.344 68.9218 358.84 68.0954 358.644 67.1746C358.448 66.2538 358.574 65.294 359.002 64.4548C359.428 63.6154 360.128 62.9474 360.986 62.5618C361.846 62.1762 362.81 62.0962 363.72 62.3352C364.632 62.5742 365.432 63.1176 365.99 63.8752C366.55 64.6328 366.832 65.5588 366.792 66.4992C366.75 67.4396 366.388 68.3376 365.766 69.0438C365.378 69.4854 364.9 69.8384 364.362 70.0794C363.826 70.3204 363.244 70.4434 362.656 70.4406ZM362.656 63.364C362.25 63.363 361.848 63.4458 361.476 63.607C361.104 63.7682 360.768 64.0046 360.492 64.3012C360.214 64.598 360.002 64.9486 359.866 65.3312C359.732 65.7138 359.676 66.1204 359.704 66.5252C359.746 67.1084 359.958 67.6662 360.316 68.1284C360.674 68.5908 361.162 68.9368 361.716 69.123C362.27 69.3092 362.866 69.3272 363.43 69.1748C363.994 69.0224 364.502 68.7062 364.886 68.2664C365.26 67.8386 365.504 67.3122 365.586 66.7498C365.668 66.1876 365.588 65.6136 365.352 65.0962C365.116 64.579 364.738 64.1406 364.26 63.8334C363.782 63.5262 363.224 63.3632 362.656 63.364ZM358.774 84.5886C358.634 84.589 358.498 84.5378 358.392 84.4444L345.296 73.0382C345.238 72.9882 345.19 72.9274 345.156 72.859C345.122 72.7908 345.102 72.7164 345.096 72.64C345.092 72.5638 345.102 72.4874 345.126 72.415C345.15 72.3428 345.19 72.276 345.24 72.2188C346.97 70.1826 349.39 68.8564 352.038 68.4942C353.274 68.3158 354.534 68.4042 355.734 68.7534C356.934 69.1028 358.044 69.705 358.992 70.5194C362.842 73.8714 362.94 80.0868 359.212 84.3746C359.16 84.4318 359.1 84.4786 359.03 84.5122C358.962 84.5456 358.888 84.5654 358.81 84.57L358.774 84.5886ZM346.51 72.554L358.704 83.1734C361.636 79.4024 361.464 74.23 358.238 71.4086C357.412 70.7042 356.444 70.184 355.4 69.883C354.356 69.5818 353.26 69.5068 352.186 69.6628C350.02 69.9522 348.018 70.9722 346.51 72.554ZM134.077 353.13C130.311 353.13 41.5936 352.698 29.6426 332.766C29.3354 332.25 29.0374 331.7 28.758 331.124C23.6368 320.518 20.6386 296.002 19.5446 276.596C18.525 258.314 18.6507 234.972 22.445 229.362C29.177 219.408 65.6584 205.618 67.2086 205.045C67.342 204.994 67.4896 204.994 67.623 205.045L104.784 219.631L97.6098 202.759C97.5762 202.681 97.5606 202.596 97.5636 202.51C97.5668 202.425 97.5886 202.341 97.6278 202.265C97.6668 202.189 97.7222 202.123 97.79 202.07C97.8576 202.018 97.936 201.982 98.0194 201.963C99.0344 201.74 123.081 196.507 134.771 200.566C145.846 204.421 182.258 253.598 187.561 260.806L212.282 206.335C212.346 206.194 212.462 206.084 212.606 206.029C212.75 205.974 212.91 205.979 213.05 206.041L244.424 220.125C244.556 220.184 244.66 220.29 244.718 220.423C244.776 220.556 244.782 220.705 244.736 220.842C243.684 224.077 218.744 299.06 204.66 308.344C193.953 315.402 181.178 309.456 176.583 306.858L184.465 322.836C184.506 322.92 184.526 323.014 184.523 323.108C184.52 323.202 184.495 323.292 184.449 323.374C184.404 323.456 184.339 323.526 184.26 323.578C184.182 323.628 184.092 323.66 183.999 323.67L133.234 330.398L134.654 352.512C134.662 352.59 134.652 352.672 134.625 352.746C134.599 352.822 134.556 352.892 134.501 352.948C134.446 353.006 134.38 353.052 134.308 353.082C134.235 353.114 134.156 353.13 134.077 353.13ZM67.4088 206.214C64.3828 207.368 29.6984 220.739 23.4088 230.012C17.119 239.286 20.3872 311.082 29.8008 330.616C30.0662 331.16 30.3456 331.686 30.6342 332.166C41.7472 350.69 125.366 351.892 133.453 351.962L132.057 329.926C132.043 329.78 132.085 329.632 132.175 329.516C132.264 329.398 132.395 329.318 132.541 329.294L183.063 322.608L174.655 305.564C174.598 305.45 174.581 305.318 174.606 305.192C174.631 305.066 174.697 304.952 174.794 304.868C174.891 304.784 175.013 304.734 175.141 304.726C175.269 304.718 175.396 304.752 175.503 304.824C176.154 305.266 191.63 315.532 204.018 307.356C217.184 298.674 241.226 227.662 243.466 220.981L213.102 207.35L188.212 262.202C188.17 262.294 188.105 262.372 188.023 262.432C187.942 262.492 187.847 262.53 187.747 262.542C187.645 262.552 187.543 262.534 187.45 262.494C187.357 262.452 187.276 262.386 187.216 262.304C186.802 261.736 145.749 205.632 134.394 201.675C124.091 198.09 103.029 202.14 98.9598 202.959L106.409 220.455C106.453 220.561 106.465 220.677 106.443 220.79C106.422 220.902 106.368 221.006 106.288 221.088C106.209 221.171 106.107 221.229 105.995 221.254C105.883 221.279 105.766 221.27 105.659 221.228L67.4088 206.214Z" fill="#1E1D25"/>
<path d="M227.226 187.023C224.224 184.873 220.242 177.093 217.412 177.079C214.582 177.065 215.624 186.018 218.92 190.525C222.216 195.031 227.226 187.023 227.226 187.023Z" fill="white"/>
<path d="M221.268 192.484C220.182 192.484 219.238 191.94 218.45 190.869C215.788 187.224 214.35 180.305 215.704 177.647C215.848 177.312 216.084 177.025 216.386 176.821C216.688 176.617 217.044 176.504 217.408 176.497C219.378 176.497 221.454 179.235 223.652 182.116C225.006 183.89 226.402 185.72 227.562 186.549C227.682 186.636 227.764 186.764 227.792 186.909C227.82 187.054 227.794 187.205 227.716 187.331C227.586 187.536 224.53 192.368 221.38 192.48L221.268 192.484ZM217.398 177.661C217.278 177.661 216.994 177.661 216.742 178.178C215.686 180.24 216.826 186.674 219.392 190.18C219.968 190.971 220.606 191.344 221.342 191.316C223.236 191.251 225.448 188.597 226.464 187.149C225.29 186.157 224.052 184.533 222.738 182.824C220.876 180.408 218.81 177.67 217.412 177.661H217.398Z" fill="#1E1D25"/>
<path d="M227.16 197.461C231.088 203.609 237.294 207.948 244.416 209.527C251.54 211.106 258.998 209.795 265.156 205.883L308.872 178.038L318.774 191.488L320.544 196.353L276.826 224.193C271.374 227.774 265.264 230.236 258.85 231.436C252.438 232.634 245.85 232.548 239.472 231.178C233.092 229.81 227.05 227.188 221.692 223.464C216.336 219.74 211.772 214.989 208.268 209.487C204.762 203.985 202.386 197.841 201.276 191.412C200.166 184.983 200.344 178.398 201.8 172.039C203.256 165.679 205.962 159.673 209.76 154.368C213.556 149.063 218.37 144.566 223.92 141.137L267.636 113.297L277.678 126.5L279.308 131.621L235.592 159.462C229.442 163.388 225.1 169.594 223.518 176.718C221.938 183.842 223.248 191.302 227.16 197.461Z" fill="#FFCB3D"/>
<path d="M208.836 209.133C201.842 198.114 199.5 184.771 202.328 172.029C205.156 159.287 212.92 148.186 223.922 141.161L267.638 113.32L277.68 126.524L279.308 131.645L235.592 159.485C229.442 163.411 225.1 169.617 223.518 176.741C221.938 183.865 223.248 191.325 227.162 197.484L208.836 209.133Z" fill="#FFCB3D"/>
<path d="M250.444 232.49C239.652 232.51 229.146 229.028 220.506 222.563C211.866 216.099 205.558 207.004 202.532 196.646C199.505 186.288 199.924 175.227 203.726 165.128C207.526 155.028 214.504 146.436 223.608 140.644L267.326 112.804C267.39 112.763 267.462 112.734 267.536 112.721C267.612 112.708 267.69 112.709 267.764 112.725C267.84 112.742 267.91 112.773 267.972 112.817C268.036 112.861 268.09 112.916 268.13 112.981C268.172 113.045 268.2 113.117 268.214 113.193C268.226 113.268 268.226 113.345 268.208 113.42C268.192 113.495 268.162 113.566 268.118 113.629C268.074 113.691 268.018 113.745 267.954 113.786L224.232 141.627C218.79 145.035 214.076 149.487 210.362 154.726C206.648 159.965 204.008 165.887 202.592 172.151C201.178 178.416 201.016 184.898 202.12 191.224C203.222 197.551 205.564 203.597 209.014 209.013C212.464 214.43 216.952 219.11 222.22 222.785C227.486 226.458 233.428 229.054 239.702 230.422C245.978 231.788 252.46 231.9 258.778 230.75C265.098 229.598 271.124 227.21 276.516 223.719L320.232 195.878C320.296 195.83 320.368 195.794 320.448 195.775C320.526 195.756 320.606 195.754 320.686 195.768C320.766 195.782 320.84 195.812 320.908 195.857C320.974 195.902 321.032 195.96 321.076 196.028C321.118 196.096 321.148 196.172 321.16 196.252C321.172 196.331 321.168 196.412 321.148 196.49C321.126 196.568 321.09 196.641 321.04 196.704C320.99 196.767 320.926 196.819 320.856 196.856L277.14 224.701C269.166 229.792 259.904 232.494 250.444 232.49Z" fill="#1E1D25"/>
<path d="M250.413 210.766C244.327 210.777 238.402 208.812 233.53 205.167C228.658 201.521 225.102 196.392 223.394 190.552C221.688 184.711 221.924 178.474 224.068 172.779C226.212 167.084 230.146 162.239 235.28 158.972L278.996 131.132C279.126 131.049 279.285 131.02 279.437 131.054C279.587 131.087 279.718 131.179 279.802 131.309C279.886 131.439 279.914 131.597 279.88 131.748C279.848 131.899 279.756 132.031 279.626 132.114L235.904 159.955C232.922 161.855 230.343 164.324 228.313 167.221C226.285 170.119 224.844 173.387 224.078 176.84C223.314 180.293 223.234 183.863 223.848 187.347C224.462 190.83 225.756 194.158 227.656 197.141C229.558 200.125 232.026 202.704 234.924 204.733C237.82 206.762 241.09 208.201 244.542 208.967C247.996 209.733 251.566 209.811 255.048 209.197C258.532 208.583 261.86 207.289 264.844 205.389L308.56 177.548C308.69 177.469 308.846 177.444 308.994 177.479C309.142 177.513 309.272 177.605 309.354 177.734C309.436 177.862 309.464 178.018 309.432 178.167C309.4 178.316 309.31 178.447 309.184 178.531L265.468 206.385C260.97 209.253 255.747 210.773 250.413 210.766Z" fill="#1E1D25"/>
<path d="M225.3 192.341C229.226 198.489 235.432 202.828 242.554 204.407C249.678 205.986 257.136 204.675 263.294 200.763L307.01 172.918L318.682 191.247L274.964 219.087C263.95 226.102 250.598 228.456 237.848 225.626C225.098 222.799 213.992 215.021 206.976 204.005C199.961 192.99 197.608 179.638 200.436 166.888C203.266 154.138 211.042 143.033 222.058 136.017L265.774 108.177L277.446 126.501L233.73 154.342C227.58 158.268 223.238 164.474 221.656 171.598C220.076 178.722 221.386 186.182 225.3 192.341Z" fill="#FFCB3D"/>
<path d="M248.582 227.368C237.79 227.39 227.284 223.906 218.644 217.442C210.004 210.978 203.696 201.883 200.67 191.525C197.643 181.167 198.061 170.106 201.862 160.007C205.664 149.907 212.642 141.315 221.746 135.523L265.462 107.683C265.528 107.642 265.6 107.614 265.676 107.6C265.75 107.587 265.828 107.589 265.904 107.606C265.978 107.623 266.048 107.654 266.112 107.699C266.174 107.743 266.228 107.799 266.268 107.864L277.94 126.189C277.982 126.253 278.01 126.325 278.022 126.4C278.036 126.475 278.032 126.552 278.014 126.626C278 126.701 277.968 126.773 277.926 126.836C277.882 126.899 277.828 126.953 277.762 126.994L234.042 154.835C228.018 158.672 223.764 164.746 222.216 171.72C220.67 178.694 221.958 185.996 225.794 192.021C229.632 198.046 235.706 202.3 242.68 203.847C249.654 205.393 256.956 204.106 262.982 200.269L306.698 172.428C306.828 172.346 306.984 172.319 307.134 172.352C307.284 172.385 307.416 172.476 307.498 172.605L319.17 190.934C319.254 191.064 319.282 191.221 319.248 191.372C319.232 191.447 319.202 191.517 319.158 191.58C319.114 191.642 319.058 191.695 318.992 191.735L275.276 219.58C267.302 224.669 258.04 227.37 248.582 227.368ZM265.598 108.977L222.37 136.506C216.928 139.914 212.214 144.366 208.5 149.605C204.786 154.844 202.144 160.766 200.73 167.03C199.315 173.294 199.154 179.777 200.256 186.103C201.36 192.43 203.702 198.476 207.152 203.892C210.602 209.309 215.09 213.989 220.356 217.664C225.624 221.338 231.566 223.933 237.84 225.3C244.116 226.666 250.598 226.778 256.916 225.628C263.234 224.478 269.262 222.089 274.652 218.598L317.88 191.069L306.838 173.723L263.606 201.265C257.32 205.268 249.702 206.61 242.426 204.996C235.152 203.383 228.816 198.945 224.812 192.659C220.81 186.374 219.468 178.756 221.082 171.48C222.694 164.205 227.132 157.869 233.418 153.866L276.646 126.31L265.598 108.977Z" fill="#1E1D25"/>
<path d="M307.01 172.916L318.682 191.245L274.966 219.086C263.948 226.082 250.606 228.424 237.864 225.6C225.122 222.773 214.02 215.009 206.994 204.011L225.318 192.339C229.246 198.487 235.452 202.827 242.574 204.405C249.696 205.984 257.154 204.674 263.312 200.761L307.01 172.916Z" fill="#FFCB3D"/>
<path d="M248.582 227.368C240.192 227.384 231.934 225.278 224.574 221.25C217.214 217.221 210.99 211.399 206.482 204.323C206.44 204.258 206.412 204.186 206.4 204.111C206.386 204.036 206.388 203.959 206.404 203.884C206.422 203.81 206.454 203.74 206.498 203.677C206.542 203.615 206.598 203.562 206.662 203.522L224.988 191.85C225.118 191.767 225.278 191.738 225.43 191.771C225.58 191.805 225.71 191.897 225.792 192.027C229.636 198.045 235.712 202.292 242.684 203.837C249.656 205.382 256.954 204.098 262.982 200.268L306.698 172.427C306.828 172.345 306.984 172.317 307.134 172.351C307.284 172.384 307.416 172.475 307.498 172.604L319.17 190.933C319.254 191.063 319.282 191.22 319.25 191.371C319.234 191.445 319.202 191.516 319.158 191.578C319.114 191.641 319.058 191.694 318.994 191.734L275.276 219.579C267.304 224.667 258.04 227.37 248.582 227.368ZM207.78 204.188C214.796 214.896 225.744 222.413 238.258 225.114C250.772 227.814 263.846 225.482 274.654 218.62L317.88 191.068L306.838 173.721L263.606 201.264C257.404 205.207 249.904 206.565 242.714 205.05C235.522 203.534 229.21 199.264 225.126 193.154L207.78 204.188Z" fill="#1E1D25"/>
<path d="M265.776 108.176L252.472 116.648L264.144 134.975L277.448 126.503L265.776 108.176ZM307.006 172.922L293.702 181.395L305.374 199.722L318.678 191.249L307.006 172.922Z" fill="white"/>
<path d="M264.146 135.555C264.048 135.556 263.95 135.532 263.864 135.486C263.778 135.439 263.706 135.372 263.652 135.29L251.98 116.961C251.896 116.831 251.868 116.674 251.902 116.523C251.936 116.372 252.028 116.24 252.158 116.155L265.462 107.687C265.528 107.646 265.6 107.618 265.676 107.604C265.75 107.591 265.828 107.593 265.904 107.61C265.978 107.627 266.048 107.658 266.112 107.703C266.174 107.747 266.228 107.803 266.268 107.868L277.94 126.193C277.982 126.257 278.01 126.329 278.022 126.404C278.036 126.479 278.032 126.556 278.014 126.63C278 126.705 277.97 126.777 277.926 126.84C277.882 126.903 277.828 126.957 277.762 126.998L264.458 135.471C264.364 135.528 264.256 135.557 264.146 135.555ZM253.274 116.826L264.34 134.172L276.646 126.309L265.598 108.976L253.274 116.826ZM305.376 200.301C305.278 200.3 305.18 200.276 305.094 200.228C305.008 200.181 304.936 200.113 304.882 200.031L293.206 181.711C293.124 181.58 293.096 181.422 293.13 181.271C293.164 181.12 293.256 180.989 293.388 180.906L306.706 172.428C306.836 172.345 306.994 172.316 307.144 172.349C307.294 172.383 307.424 172.475 307.508 172.605L319.18 190.934C319.262 191.064 319.292 191.221 319.258 191.372C319.242 191.446 319.212 191.517 319.168 191.579C319.124 191.642 319.068 191.694 319.002 191.735L305.696 200.212C305.6 200.271 305.488 200.301 305.376 200.301ZM294.504 181.571L305.552 198.937L317.88 191.069L306.838 173.722L294.504 181.571Z" fill="#1E1D25"/>
<path d="M279.308 132.203C279.19 132.204 279.072 132.167 278.976 132.099C278.878 132.03 278.803 131.933 278.763 131.821L276.902 126.7C276.874 126.627 276.86 126.55 276.862 126.472C276.864 126.394 276.88 126.318 276.912 126.247C276.944 126.176 276.99 126.112 277.048 126.059C277.106 126.006 277.172 125.965 277.246 125.939C277.318 125.913 277.396 125.901 277.474 125.905C277.552 125.909 277.628 125.929 277.698 125.963C277.768 125.997 277.83 126.045 277.882 126.103C277.932 126.162 277.972 126.23 277.996 126.304L279.858 131.425C279.89 131.513 279.901 131.607 279.889 131.7C279.875 131.793 279.841 131.882 279.787 131.958C279.733 132.035 279.662 132.097 279.578 132.14C279.496 132.182 279.402 132.204 279.308 132.203ZM320.544 196.949C320.424 196.949 320.306 196.912 320.208 196.844C320.11 196.776 320.036 196.679 319.994 196.567L318.132 191.446C318.08 191.301 318.086 191.141 318.152 191.001C318.218 190.861 318.336 190.753 318.48 190.701C318.552 190.674 318.628 190.662 318.704 190.665C318.78 190.668 318.856 190.686 318.924 190.718C318.994 190.75 319.056 190.795 319.108 190.852C319.16 190.908 319.2 190.974 319.226 191.045L321.087 196.167C321.113 196.238 321.126 196.315 321.124 196.391C321.122 196.468 321.104 196.543 321.072 196.613C321.04 196.683 320.993 196.745 320.937 196.797C320.881 196.849 320.816 196.89 320.744 196.916C320.678 196.938 320.612 196.949 320.544 196.949Z" fill="#1E1D25"/>
<path d="M264.14 134.973L266.542 139.754L279.308 131.621L277.68 126.5L264.14 134.973Z" fill="white"/>
<path d="M266.542 140.336C266.436 140.334 266.33 140.303 266.238 140.246C266.146 140.19 266.072 140.11 266.022 140.015L263.624 135.233C263.558 135.104 263.544 134.955 263.582 134.816C263.622 134.676 263.71 134.556 263.834 134.479L277.376 126.006C277.452 125.96 277.536 125.932 277.624 125.923C277.712 125.914 277.8 125.925 277.884 125.955C277.968 125.984 278.042 126.033 278.104 126.097C278.166 126.161 278.212 126.238 278.238 126.323L279.872 131.444C279.91 131.567 279.906 131.698 279.862 131.819C279.818 131.94 279.736 132.043 279.63 132.114L266.854 140.243C266.762 140.304 266.654 140.336 266.542 140.336ZM264.9 135.187L266.762 138.911L278.606 131.369L277.376 127.393L264.9 135.187Z" fill="#1E1D25"/>
<path d="M318.682 191.246L305.376 199.719L307.838 204.459L320.544 196.367L318.682 191.246Z" fill="white"/>
<path d="M307.838 205.04C307.732 205.042 307.626 205.014 307.534 204.959C307.444 204.904 307.37 204.824 307.322 204.728L304.844 199.989C304.776 199.86 304.76 199.71 304.798 199.569C304.836 199.429 304.926 199.307 305.05 199.23L318.356 190.757C318.428 190.71 318.51 190.68 318.598 190.669C318.684 190.659 318.772 190.668 318.854 190.696C318.936 190.724 319.01 190.77 319.072 190.831C319.134 190.891 319.182 190.964 319.212 191.046L321.074 196.167C321.12 196.291 321.12 196.427 321.078 196.552C321.036 196.677 320.952 196.784 320.842 196.856L308.15 204.952C308.056 205.01 307.948 205.041 307.838 205.04ZM306.138 199.919L308.062 203.62L319.836 196.143L318.384 192.144L306.138 199.919Z" fill="#1E1D25"/>
<path d="M245.998 196.79C243.088 196.394 241.45 201.417 240.994 205.337C240.69 207.949 239.778 214.756 242.198 215.351C245.058 216.054 246.854 208 247.32 205.007C247.786 202.013 248.834 197.171 245.998 196.79Z" fill="white"/>
<path d="M242.594 215.995C242.404 215.994 242.214 215.966 242.032 215.911C239.14 215.027 239.862 209.505 240.294 206.204C240.342 205.855 240.384 205.538 240.416 205.273C240.774 202.2 241.85 198.383 243.796 196.87C244.11 196.61 244.476 196.418 244.868 196.305C245.26 196.193 245.672 196.163 246.076 196.218C246.41 196.253 246.73 196.358 247.02 196.525C247.31 196.691 247.56 196.917 247.758 197.186C248.93 198.774 248.432 201.842 248.032 204.351C247.99 204.612 247.948 204.859 247.912 205.101C247.912 205.185 246.514 213.891 243.722 215.66C243.386 215.878 242.994 215.995 242.594 215.995ZM245.682 197.349C245.252 197.357 244.838 197.512 244.508 197.787C242.846 199.076 241.886 202.699 241.57 205.403C241.538 205.678 241.496 205.999 241.45 206.335C241.114 208.881 240.42 214.184 242.38 214.78C242.502 214.815 242.63 214.821 242.756 214.799C242.88 214.778 242.998 214.728 243.102 214.654C244.754 213.611 246.244 208.322 246.77 204.901C246.808 204.659 246.85 204.402 246.892 204.142C247.24 201.991 247.716 199.049 246.832 197.857C246.726 197.713 246.592 197.593 246.436 197.506C246.282 197.418 246.11 197.365 245.932 197.349C245.848 197.342 245.764 197.342 245.682 197.349Z" fill="#1E1D25"/>
<path d="M232.612 183.331C229.768 181.79 226.128 186.32 224.13 190.17C222.798 192.74 218.934 200.473 220.95 202.084C223.962 204.482 229.144 195.203 230.784 192.307C232.422 189.412 235.374 184.826 232.612 183.331Z" fill="white"/>
<path d="M222.082 203.048C221.548 203.049 221.03 202.874 220.606 202.549C218.278 200.846 220.518 195.78 223.27 190.566C223.4 190.319 223.516 190.1 223.614 189.9C225.174 186.893 227.758 183.382 230.332 182.605C230.75 182.463 231.192 182.409 231.632 182.446C232.072 182.483 232.5 182.61 232.888 182.819C233.208 182.981 233.492 183.209 233.72 183.487C233.948 183.765 234.114 184.088 234.21 184.435C234.792 186.497 233.084 189.472 231.706 191.883L231.29 192.605L231.044 193.043C228.464 197.633 225.458 202.405 222.664 203.006C222.472 203.04 222.276 203.054 222.082 203.048ZM231.394 183.601C231.146 183.605 230.9 183.644 230.662 183.718C228.432 184.402 226.006 187.768 224.638 190.436C224.54 190.631 224.418 190.859 224.288 191.106C223.092 193.373 219.46 200.268 221.286 201.614C221.442 201.735 221.626 201.82 221.82 201.86C222.014 201.9 222.216 201.896 222.408 201.846C225.062 201.278 228.664 194.863 230.02 192.456L230.272 192.014C230.402 191.781 230.542 191.548 230.69 191.283C231.886 189.197 233.53 186.343 233.078 184.765C233.026 184.565 232.932 184.379 232.802 184.218C232.672 184.058 232.508 183.927 232.324 183.834C232.042 183.68 231.724 183.6 231.402 183.601H231.394Z" fill="#1E1D25"/>
<path d="M241.816 191.953C238.698 191.129 236.23 196.385 235.21 200.585C234.526 203.378 232.626 211.125 235.146 212.019C238.404 213.164 241.258 204.281 242.162 201.083C243.064 197.885 244.848 192.763 241.816 191.953Z" fill="white"/>
<path d="M235.732 212.713C235.468 212.712 235.204 212.665 234.954 212.573C231.762 211.447 233.39 205.259 234.364 201.563L234.648 200.459C235.448 197.173 237.13 193.173 239.434 191.8C239.806 191.564 240.222 191.406 240.658 191.337C241.094 191.269 241.54 191.29 241.966 191.4C242.314 191.484 242.642 191.639 242.928 191.855C243.214 192.071 243.452 192.344 243.628 192.657C244.68 194.519 243.726 197.81 242.954 200.45C242.874 200.729 242.794 200.995 242.726 201.251C241.91 204.119 239.712 210.953 236.9 212.424C236.54 212.612 236.14 212.711 235.732 212.713ZM241.166 192.461C240.762 192.469 240.37 192.586 240.03 192.801C238.032 193.993 236.492 197.82 235.778 200.716C235.7 201.037 235.598 201.414 235.486 201.842C234.732 204.71 233.158 210.688 235.342 211.461C235.51 211.518 235.688 211.539 235.864 211.521C236.042 211.503 236.212 211.448 236.366 211.358C238.334 210.339 240.36 205.306 241.604 200.916L241.836 200.106C242.506 197.806 243.428 194.649 242.614 193.211C242.516 193.035 242.382 192.882 242.222 192.761C242.062 192.64 241.878 192.554 241.682 192.508C241.512 192.471 241.338 192.455 241.166 192.461Z" fill="#1E1D25"/>
<path d="M238.014 186.636C234.754 185.389 231.496 190.733 229.922 195.119C228.856 198.047 225.234 206.488 228.134 207.894C231.132 209.351 235.97 199.788 237.316 196.464C238.66 193.14 241.17 187.851 238.014 186.636Z" fill="white"/>
<path d="M228.852 208.657C228.506 208.656 228.166 208.572 227.86 208.411C224.736 206.758 227.3 200.226 228.832 196.306C229.046 195.766 229.232 195.291 229.372 194.909C230.616 191.492 232.874 187.409 235.5 186.217C235.92 186.009 236.378 185.89 236.848 185.867C237.316 185.845 237.784 185.92 238.222 186.087C238.58 186.215 238.908 186.415 239.184 186.676C239.46 186.936 239.68 187.251 239.83 187.6C240.732 189.704 239.326 193.108 238.194 195.845C238.074 196.129 237.962 196.409 237.856 196.674C237.814 196.776 233.54 207.093 229.726 208.485C229.446 208.593 229.15 208.651 228.852 208.657ZM237.036 187.037C236.67 187.044 236.31 187.128 235.978 187.284C233.684 188.331 231.574 192.265 230.466 195.314C230.322 195.71 230.132 196.194 229.918 196.748C228.712 199.821 226.192 206.213 228.404 207.382C228.55 207.451 228.708 207.487 228.87 207.487C229.03 207.487 229.19 207.451 229.336 207.382C231.924 206.451 235.472 199.467 236.784 196.208C236.892 195.943 237.008 195.659 237.128 195.37C238.12 192.973 239.48 189.686 238.772 188.033C238.684 187.826 238.552 187.64 238.388 187.486C238.222 187.333 238.026 187.217 237.814 187.144C237.564 187.06 237.3 187.023 237.036 187.037ZM144.087 244.072L162.947 277.268L159.464 277.532L144.087 244.072Z" fill="#1E1D25"/>
<path d="M159.464 278.114C159.352 278.116 159.243 278.084 159.149 278.022C159.055 277.962 158.98 277.876 158.933 277.774L142.997 243.09C142.932 242.95 142.926 242.79 142.979 242.646C143.032 242.5 143.141 242.382 143.281 242.318C143.421 242.254 143.581 242.246 143.726 242.3C143.871 242.354 143.989 242.462 144.054 242.602L159.99 277.29C160.022 277.36 160.04 277.436 160.043 277.512C160.047 277.588 160.035 277.664 160.008 277.736C159.982 277.808 159.942 277.874 159.89 277.93C159.838 277.986 159.776 278.032 159.706 278.064C159.629 278.096 159.547 278.114 159.464 278.114Z" fill="#1E1D25"/>
<path d="M172.714 276.512L87.377 283.072L89.2904 338.846L109.985 345.14L198.795 329.596L195.769 284.67L172.714 276.512Z" fill="white"/>
<path d="M109.985 345.722C109.928 345.722 109.871 345.714 109.817 345.696L89.123 339.406C89.007 339.37 88.905 339.3 88.8308 339.204C88.7566 339.108 88.7137 338.992 88.7085 338.87L86.7952 283.092C86.791 282.94 86.8448 282.794 86.9454 282.684C87.0458 282.572 87.1854 282.502 87.3352 282.49L172.668 275.936C172.748 275.928 172.829 275.938 172.905 275.964L195.964 284.134C196.072 284.172 196.166 284.24 196.235 284.332C196.303 284.424 196.344 284.532 196.351 284.646L199.377 329.568C199.388 329.71 199.346 329.85 199.261 329.964C199.175 330.076 199.051 330.154 198.911 330.182L110.087 345.714L109.985 345.722ZM89.8585 338.414L110.022 344.546L198.18 329.112L195.215 285.094L172.626 277.104L87.9683 283.622L89.8585 338.414Z" fill="#1E1D25"/>
<path d="M104.803 344.15C104.653 344.15 104.51 344.09 104.402 343.986C104.295 343.882 104.231 343.74 104.225 343.592L101.86 290.47L87.1346 283.6C87.0612 283.57 86.9948 283.526 86.939 283.47C86.8834 283.414 86.8398 283.346 86.8108 283.272C86.7818 283.198 86.7682 283.12 86.7708 283.04C86.7734 282.962 86.792 282.884 86.8256 282.812C86.8592 282.74 86.907 282.676 86.9662 282.624C87.0254 282.572 87.0946 282.532 87.1698 282.508C87.2448 282.482 87.3242 282.474 87.403 282.48C87.4818 282.486 87.5584 282.51 87.6282 282.548L102.526 289.502L195.736 284.088C195.89 284.078 196.042 284.132 196.158 284.234C196.273 284.336 196.343 284.48 196.353 284.636C196.362 284.79 196.31 284.942 196.207 285.056C196.104 285.172 195.96 285.242 195.806 285.252L103.029 290.652L105.385 343.554C105.388 343.63 105.377 343.706 105.351 343.778C105.325 343.85 105.285 343.916 105.234 343.972C105.182 344.028 105.12 344.074 105.051 344.106C104.982 344.138 104.907 344.156 104.831 344.16L104.803 344.15Z" fill="#1E1D25"/>
<path d="M119.077 270.102C122.975 270.102 126.135 266.942 126.135 263.044C126.135 259.146 122.975 255.986 119.077 255.986C115.179 255.986 112.019 259.146 112.019 263.044C112.019 266.942 115.179 270.102 119.077 270.102ZM121.088 299.078C125.688 289.414 122.424 278.25 113.793 274.142C105.161 270.036 94.4348 274.534 89.835 284.194L121.088 299.078Z" fill="#FFCB3D"/>
<path d="M119.086 270.688C117.429 270.69 115.817 270.152 114.492 269.156C113.167 268.16 112.202 266.762 111.741 265.17C111.28 263.578 111.349 261.88 111.937 260.33C112.525 258.782 113.601 257.466 115.002 256.58C116.403 255.696 118.054 255.29 119.705 255.424C121.357 255.56 122.92 256.228 124.159 257.328C125.398 258.428 126.246 259.9 126.576 261.524C126.906 263.148 126.698 264.834 125.986 266.33C125.556 267.238 124.951 268.05 124.206 268.722C123.46 269.394 122.589 269.912 121.642 270.246C120.821 270.538 119.957 270.686 119.086 270.688ZM119.086 256.572C118.14 256.568 117.205 256.77 116.345 257.166C115.486 257.56 114.723 258.14 114.112 258.862C113.5 259.582 113.054 260.43 112.805 261.342C112.555 262.254 112.509 263.21 112.669 264.144C112.829 265.076 113.191 265.962 113.73 266.74C114.269 267.516 114.972 268.166 115.789 268.642C116.606 269.12 117.518 269.412 118.46 269.498C119.402 269.584 120.352 269.462 121.242 269.142C122.045 268.862 122.783 268.424 123.415 267.854C124.046 267.284 124.558 266.594 124.92 265.824C125.389 264.838 125.6 263.75 125.536 262.66C125.471 261.57 125.132 260.516 124.55 259.592C123.968 258.67 123.161 257.908 122.206 257.38C121.251 256.852 120.178 256.574 119.086 256.572ZM121.088 299.66C121.001 299.66 120.916 299.642 120.837 299.604L89.5838 284.708C89.5144 284.676 89.452 284.63 89.4008 284.572C89.3496 284.516 89.3104 284.448 89.2858 284.376C89.2276 284.234 89.2276 284.076 89.2858 283.934C94.016 273.994 105.115 269.362 114.021 273.604C118.346 275.662 121.512 279.478 122.937 284.348C124.344 289.334 123.865 294.662 121.591 299.316C121.547 299.414 121.477 299.498 121.388 299.558C121.299 299.62 121.196 299.654 121.088 299.66ZM90.6174 283.924L120.804 298.302C122.75 294.032 123.118 289.21 121.842 284.694C120.511 280.144 117.564 276.582 113.542 274.67C105.371 270.778 95.2078 274.93 90.6174 283.924Z" fill="#1E1D25"/>
<path d="M113.607 306.84C117.505 306.84 120.665 303.68 120.665 299.782C120.665 295.884 117.505 292.724 113.607 292.724C109.709 292.724 106.549 295.884 106.549 299.782C106.549 303.68 109.709 306.84 113.607 306.84ZM131.377 268.37C122.285 274.018 119.002 285.178 124.045 293.296C129.087 301.416 140.549 303.422 149.65 297.776L131.377 268.37Z" fill="#FFCB3D"/>
<path d="M113.621 307.412C113.03 307.41 112.441 307.342 111.866 307.208C110.395 306.862 109.061 306.09 108.029 304.986C106.998 303.884 106.317 302.5 106.072 301.01C105.827 299.52 106.029 297.99 106.652 296.614C107.276 295.24 108.293 294.08 109.575 293.282C110.858 292.486 112.349 292.088 113.858 292.14C115.367 292.19 116.828 292.688 118.055 293.568C119.282 294.448 120.22 295.672 120.752 297.086C121.284 298.498 121.384 300.038 121.042 301.508C120.648 303.184 119.702 304.676 118.356 305.748C117.009 306.82 115.341 307.406 113.621 307.412ZM110.19 294.27C109.098 294.942 108.231 295.922 107.697 297.088C107.164 298.254 106.989 299.552 107.194 300.818C107.398 302.082 107.974 303.258 108.848 304.196C109.722 305.134 110.854 305.792 112.102 306.086C113.35 306.38 114.657 306.298 115.857 305.848C117.058 305.398 118.098 304.602 118.846 303.562C119.594 302.52 120.016 301.28 120.059 300C120.101 298.718 119.763 297.452 119.086 296.364C118.18 294.912 116.735 293.878 115.068 293.486C113.401 293.096 111.647 293.38 110.19 294.278V294.27ZM138.64 301.564C137.493 301.564 136.348 301.466 135.218 301.272C130.218 300.396 126.075 297.672 123.547 293.604C121.019 289.534 120.413 284.61 121.847 279.74C123.356 274.786 126.638 270.562 131.065 267.876C131.13 267.836 131.202 267.808 131.278 267.796C131.353 267.782 131.43 267.786 131.505 267.802C131.579 267.82 131.65 267.852 131.712 267.896C131.774 267.942 131.826 267.998 131.866 268.064L150.13 297.468C150.17 297.532 150.197 297.604 150.209 297.68C150.221 297.754 150.218 297.832 150.2 297.906C150.164 298.056 150.07 298.186 149.939 298.268C146.554 300.4 142.64 301.542 138.64 301.564ZM131.191 269.176C127.247 271.72 124.334 275.58 122.969 280.07C121.633 284.614 122.187 289.204 124.538 292.99C125.739 294.886 127.331 296.504 129.209 297.734C131.086 298.964 133.205 299.778 135.423 300.122C140.052 300.888 144.804 299.988 148.831 297.58L131.191 269.176Z" fill="#1E1D25"/>
<path d="M184.05 269.124C187.948 269.124 191.108 265.964 191.108 262.066C191.108 258.168 187.948 255.008 184.05 255.008C180.152 255.008 176.992 258.168 176.992 262.066C176.992 265.964 180.152 269.124 184.05 269.124ZM187.174 298.022C191.476 288.222 187.868 277.16 179.115 273.32C170.362 269.478 159.78 274.312 155.479 284.134L187.174 298.022Z" fill="#FFCB3D"/>
<path d="M184.05 269.702C182.403 269.706 180.798 269.178 179.476 268.196C178.153 267.214 177.183 265.83 176.709 264.252C176.236 262.674 176.286 260.986 176.85 259.438C177.415 257.89 178.464 256.566 179.842 255.664C181.22 254.76 182.853 254.326 184.497 254.428C186.141 254.528 187.709 255.156 188.967 256.22C190.225 257.284 191.106 258.724 191.479 260.33C191.851 261.934 191.695 263.616 191.034 265.126C190.633 266.046 190.054 266.878 189.33 267.572C188.606 268.268 187.752 268.812 186.816 269.176C185.934 269.52 184.997 269.698 184.05 269.702ZM184.05 255.582C182.883 255.58 181.737 255.894 180.734 256.49C179.73 257.086 178.907 257.944 178.35 258.97C177.793 259.996 177.524 261.154 177.572 262.32C177.619 263.486 177.981 264.618 178.618 265.596C179.256 266.574 180.146 267.36 181.195 267.874C182.243 268.386 183.411 268.608 184.574 268.512C185.738 268.416 186.853 268.008 187.804 267.33C188.754 266.652 189.503 265.728 189.972 264.66C190.403 263.674 190.583 262.598 190.494 261.526C190.405 260.454 190.051 259.422 189.463 258.522C188.876 257.62 188.073 256.88 187.128 256.368C186.183 255.854 185.126 255.584 184.05 255.582ZM187.174 298.604C187.094 298.604 187.014 298.586 186.941 298.552L155.246 284.642C155.176 284.612 155.112 284.568 155.059 284.514C155.005 284.46 154.963 284.394 154.935 284.324C154.907 284.252 154.893 284.176 154.895 284.1C154.896 284.024 154.913 283.948 154.943 283.878C159.366 273.8 170.307 268.822 179.348 272.788C188.389 276.756 192.132 288.152 187.728 298.256C187.663 298.394 187.549 298.504 187.407 298.562C187.333 298.592 187.254 298.606 187.174 298.604ZM156.252 283.814L186.867 297.25C190.675 287.896 187.165 277.492 178.878 273.854C170.591 270.218 160.563 274.68 156.252 283.814Z" fill="#1E1D25"/>
<path d="M150.609 267.904C155.075 267.904 158.696 264.284 158.696 259.818C158.696 255.352 155.075 251.732 150.609 251.732C146.143 251.732 142.522 255.352 142.522 259.818C142.522 264.284 146.143 267.904 150.609 267.904ZM170.437 296.104C170.437 283.84 161.559 273.902 150.609 273.902C139.659 273.902 130.776 283.84 130.776 296.104H170.437Z" fill="#FFCB3D"/>
<path d="M150.609 268.488C148.894 268.488 147.218 267.98 145.792 267.028C144.366 266.076 143.254 264.722 142.597 263.138C141.94 261.556 141.768 259.812 142.102 258.13C142.436 256.448 143.261 254.904 144.473 253.69C145.685 252.478 147.23 251.652 148.912 251.316C150.593 250.982 152.337 251.154 153.921 251.81C155.505 252.466 156.859 253.576 157.812 255.002C158.765 256.428 159.273 258.104 159.273 259.818C159.271 262.116 158.357 264.318 156.733 265.944C155.109 267.568 152.907 268.484 150.609 268.488ZM150.609 252.318C149.124 252.318 147.673 252.756 146.438 253.582C145.203 254.406 144.24 255.578 143.672 256.948C143.103 258.32 142.954 259.83 143.244 261.286C143.533 262.742 144.248 264.08 145.298 265.13C146.348 266.18 147.685 266.894 149.141 267.184C150.598 267.474 152.107 267.324 153.479 266.756C154.85 266.188 156.022 265.224 156.846 263.99C157.671 262.754 158.11 261.304 158.109 259.818C158.107 257.83 157.316 255.924 155.91 254.518C154.504 253.112 152.598 252.32 150.609 252.318ZM170.437 296.704H130.776C130.622 296.704 130.474 296.644 130.365 296.534C130.256 296.426 130.194 296.278 130.194 296.122C130.194 283.552 139.352 273.338 150.609 273.338C161.866 273.338 171.019 283.58 171.019 296.122C171.019 296.278 170.958 296.426 170.849 296.534C170.74 296.644 170.592 296.704 170.437 296.704ZM131.368 295.54H169.832C169.557 283.902 161.028 274.502 150.591 274.502C140.153 274.502 131.656 283.87 131.368 295.522V295.54Z" fill="#1E1D25"/>
<path d="M102.419 290.088L105.864 343.888L198.795 329.596L195.768 284.67L102.419 290.088Z" fill="white"/>
<path d="M105.864 344.472C105.731 344.47 105.603 344.424 105.501 344.34C105.438 344.29 105.387 344.226 105.349 344.156C105.312 344.084 105.289 344.006 105.282 343.926L101.86 290.126C101.854 290.05 101.864 289.972 101.889 289.9C101.914 289.826 101.953 289.76 102.004 289.702C102.108 289.59 102.252 289.522 102.405 289.512L195.736 284.088C195.889 284.08 196.039 284.132 196.154 284.234C196.269 284.336 196.339 284.48 196.35 284.632L199.376 329.554C199.385 329.7 199.339 329.844 199.248 329.956C199.157 330.07 199.027 330.146 198.883 330.168L105.952 344.462L105.864 344.472ZM103.038 290.652L106.404 343.228L198.18 329.116L195.228 285.298L103.038 290.652Z" fill="#1E1D25"/>
<path d="M127.932 347.738C130.834 347.994 133.802 348.198 136.838 348.354C185.773 350.774 201.086 341.09 201.91 337.208C202.142 336.072 200.554 335.382 200.554 335.382C200.554 335.382 206.234 331.566 205.056 329.126C204.126 327.204 201.332 327.948 201.332 327.948C201.332 327.948 207.058 322.798 205.644 320.434C204.404 318.362 199.549 320.964 199.549 320.964C199.549 320.964 202.57 317.944 200.886 316.308C199.2 314.674 187.244 320.462 177.663 321.43C168.519 322.334 161.522 322.454 161.522 322.454C161.522 322.454 177.467 313.082 172.649 308.05C171.052 306.384 154.413 316.332 145.539 316.462C142.126 316.514 137.345 316.328 129.808 314.34L113.122 329.926L127.932 347.738Z" fill="white"/>
<path d="M151.377 349.314C146.866 349.314 142.015 349.192 136.791 348.936C133.816 348.788 130.814 348.578 127.862 348.316C127.708 348.302 127.566 348.23 127.466 348.112L112.643 330.3C112.547 330.186 112.499 330.038 112.508 329.89C112.516 329.742 112.581 329.602 112.689 329.5L129.38 313.93C129.451 313.862 129.538 313.814 129.634 313.79C129.729 313.764 129.829 313.766 129.924 313.792C137.373 315.752 142.155 315.946 145.497 315.896C150.307 315.826 157.518 312.776 163.314 310.308C169.367 307.748 172.086 306.658 173.035 307.646C173.444 308.052 173.75 308.55 173.929 309.098C174.108 309.646 174.154 310.228 174.064 310.798C173.501 314.862 166.909 319.644 163.612 321.808C166.364 321.706 171.527 321.45 177.579 320.848C182.235 320.384 187.561 318.744 191.839 317.422C197.459 315.69 200.22 314.9 201.262 315.91C201.48 316.116 201.652 316.364 201.772 316.64C201.89 316.914 201.95 317.212 201.952 317.51C201.924 318.234 201.706 318.936 201.322 319.55C202.998 318.978 205.2 318.618 206.114 320.136C207.324 322.158 204.586 325.468 202.878 327.232C203.434 327.23 203.98 327.384 204.454 327.674C204.93 327.964 205.316 328.38 205.568 328.876C206.686 331.202 203.212 334.136 201.592 335.346C201.91 335.56 202.16 335.86 202.314 336.21C202.468 336.56 202.52 336.946 202.464 337.326C201.578 341.594 187.742 349.314 151.377 349.314ZM128.206 347.18C131.065 347.428 133.97 347.646 136.847 347.772C163.282 349.08 178.855 346.762 187.258 344.584C197.715 341.874 201.03 338.498 201.318 337.088C201.448 336.454 200.312 335.924 200.302 335.92C200.21 335.878 200.128 335.814 200.068 335.732C200.006 335.65 199.968 335.554 199.954 335.454C199.945 335.35 199.964 335.246 200.01 335.152C200.054 335.056 200.124 334.976 200.21 334.918C202.244 333.55 205.214 330.84 204.516 329.402C203.818 327.962 201.472 328.522 201.448 328.53C201.322 328.564 201.188 328.554 201.068 328.5C200.95 328.448 200.85 328.358 200.788 328.242C200.728 328.128 200.706 327.996 200.728 327.868C200.75 327.738 200.816 327.622 200.912 327.534C203.138 325.528 205.918 322.096 205.102 320.752C204.382 319.55 201.206 320.752 199.782 321.496C199.658 321.566 199.513 321.588 199.373 321.558C199.234 321.528 199.111 321.448 199.027 321.334C198.942 321.22 198.903 321.078 198.916 320.936C198.929 320.794 198.994 320.662 199.097 320.564C199.563 320.1 200.788 318.628 200.774 317.538C200.776 317.394 200.748 317.25 200.692 317.116C200.634 316.984 200.55 316.864 200.442 316.766C199.833 316.184 195.582 317.496 192.17 318.55C187.84 319.886 182.454 321.552 177.677 322.022C168.617 322.92 161.559 323.052 161.489 323.052C161.361 323.052 161.236 323.01 161.133 322.934C161.03 322.858 160.954 322.75 160.917 322.628C160.883 322.504 160.89 322.372 160.938 322.254C160.986 322.136 161.072 322.036 161.182 321.97C161.294 321.906 172.244 315.416 172.9 310.648C172.966 310.254 172.935 309.848 172.81 309.468C172.685 309.088 172.47 308.744 172.183 308.464C171.499 308.126 167.206 309.936 163.757 311.394C157.867 313.884 150.539 316.98 145.507 317.06C142.136 317.11 137.322 316.92 129.929 314.996L113.877 329.992L128.206 347.18Z" fill="#1E1D25"/>
<path d="M175.843 330.472C175.7 330.47 175.563 330.414 175.459 330.318C175.354 330.222 175.288 330.09 175.273 329.948C175.259 329.806 175.297 329.664 175.381 329.548C175.464 329.434 175.587 329.352 175.726 329.322C184.632 327.496 195.796 323.302 199.144 320.518C199.263 320.424 199.414 320.38 199.565 320.394C199.716 320.41 199.855 320.484 199.953 320.602C200.05 320.718 200.098 320.868 200.086 321.02C200.074 321.17 200.004 321.312 199.889 321.412C196.36 324.344 185.177 328.572 175.959 330.462L175.843 330.472ZM176.885 337.566C176.743 337.564 176.606 337.51 176.502 337.414C176.397 337.316 176.331 337.186 176.316 337.044C176.302 336.902 176.34 336.76 176.424 336.644C176.507 336.528 176.63 336.448 176.769 336.416C183.194 335.114 197.719 329.588 200.978 327.46C201.108 327.38 201.262 327.354 201.41 327.386C201.558 327.42 201.688 327.51 201.77 327.636C201.854 327.762 201.884 327.916 201.854 328.066C201.826 328.214 201.74 328.346 201.616 328.432C198.292 330.606 183.51 336.236 176.997 337.558C176.96 337.564 176.923 337.568 176.885 337.566ZM176.592 344.042C176.443 344.046 176.299 343.99 176.188 343.89C176.078 343.79 176.011 343.65 176 343.502C175.99 343.354 176.036 343.206 176.131 343.092C176.225 342.976 176.36 342.902 176.508 342.882C187.845 341.276 198.273 336.192 200.21 334.898C200.274 334.856 200.344 334.826 200.42 334.812C200.494 334.796 200.572 334.796 200.646 334.812C200.722 334.826 200.794 334.856 200.856 334.898C200.92 334.942 200.976 334.996 201.018 335.06C201.06 335.122 201.09 335.194 201.104 335.27C201.12 335.344 201.12 335.422 201.104 335.496C201.09 335.572 201.06 335.642 201.018 335.706C200.976 335.77 200.92 335.824 200.856 335.866C198.869 337.194 188.208 342.384 176.676 344.038L176.592 344.042Z" fill="#1E1D25"/>
<path d="M57.1153 300.164L135.516 313.316C135.516 313.316 130.394 320.936 130.162 332.464C129.901 345.988 134.077 352.548 134.077 352.548C134.077 352.548 42.0591 352.344 30.1361 332.464C29.8475 331.98 57.1153 300.164 57.1153 300.164Z" fill="white"/>
<path d="M134.077 353.13C130.311 353.13 41.594 352.698 29.643 332.766C29.3358 332.25 29.0378 331.7 28.7584 331.124C28.6912 330.984 28.6818 330.824 28.7324 330.678C28.783 330.532 28.8896 330.412 29.0284 330.346C29.1674 330.278 29.3274 330.268 29.4732 330.32C29.619 330.37 29.7386 330.476 29.806 330.616C30.0714 331.16 30.3506 331.686 30.6392 332.166C41.5986 350.444 123.132 351.854 133.095 351.962C131.973 349.722 129.371 343.33 129.585 332.454C129.673 325.902 131.386 319.474 134.571 313.748L60.6866 301.36C60.611 301.346 60.5388 301.32 60.474 301.278C60.4092 301.238 60.353 301.184 60.3086 301.122C60.2644 301.06 60.2328 300.99 60.2158 300.914C60.1986 300.84 60.1966 300.762 60.2094 300.688C60.2222 300.612 60.2498 300.54 60.2906 300.474C60.3312 300.41 60.3844 300.354 60.4468 300.31C60.5094 300.264 60.58 300.234 60.6546 300.216C60.7292 300.2 60.8066 300.196 60.882 300.21L135.609 312.748C135.706 312.762 135.797 312.802 135.874 312.862C135.952 312.922 136.012 313 136.051 313.09C136.09 313.18 136.105 313.278 136.095 313.374C136.085 313.472 136.051 313.566 135.996 313.646C135.949 313.72 130.958 321.276 130.744 332.482C130.488 345.64 134.529 352.176 134.566 352.24C134.622 352.328 134.653 352.43 134.657 352.534C134.66 352.638 134.636 352.74 134.586 352.832C134.536 352.924 134.462 353 134.373 353.052C134.284 353.106 134.182 353.134 134.077 353.134V353.13Z" fill="#1E1D25"/>
<path d="M72.4416 302.938C72.303 302.938 72.1692 302.888 72.0642 302.796C71.9592 302.706 71.89 302.582 71.8688 302.444L65.677 263.468C65.6536 263.318 65.689 263.166 65.7758 263.042C65.8626 262.918 65.994 262.832 66.1424 262.802C66.2924 262.776 66.4464 262.81 66.5712 262.898C66.6958 262.986 66.781 263.118 66.8082 263.268L73.0002 302.244C73.0248 302.394 72.9898 302.548 72.9028 302.672C72.8158 302.796 72.6838 302.882 72.5346 302.91L72.4416 302.938ZM136.954 315.866L134.337 315.4L135.515 313.316C135.515 313.316 136.856 313.748 136.954 315.866ZM135.99 348.306H132.266L134.077 352.572C134.077 352.572 135.902 351.594 135.99 348.306Z" fill="#1E1D25"/>
<path d="M136.954 316.448H136.852L134.235 315.984C134.144 315.966 134.058 315.928 133.984 315.87C133.911 315.814 133.852 315.74 133.812 315.656C133.773 315.572 133.754 315.48 133.757 315.386C133.76 315.294 133.785 315.204 133.83 315.122L135.008 313.04C135.074 312.924 135.178 312.834 135.302 312.784C135.427 312.734 135.565 312.73 135.693 312.77C135.762 312.77 137.42 313.358 137.532 315.848C137.536 315.926 137.524 316.006 137.497 316.08C137.47 316.152 137.429 316.22 137.374 316.278C137.32 316.334 137.255 316.38 137.183 316.412C137.111 316.442 137.033 316.458 136.954 316.458V316.448ZM135.246 314.972L136.265 315.15C136.18 314.768 135.99 314.418 135.716 314.14L135.246 314.972ZM134.077 353.13C134.011 353.132 133.945 353.12 133.882 353.098C133.807 353.072 133.738 353.03 133.679 352.976C133.621 352.92 133.574 352.854 133.542 352.782L131.717 348.54C131.68 348.452 131.665 348.354 131.673 348.258C131.682 348.162 131.714 348.07 131.767 347.99C131.82 347.91 131.892 347.844 131.977 347.796C132.061 347.75 132.156 347.726 132.252 347.726H135.977C136.055 347.726 136.132 347.74 136.204 347.772C136.276 347.802 136.341 347.846 136.395 347.902C136.449 347.958 136.492 348.024 136.52 348.098C136.548 348.17 136.561 348.248 136.559 348.326C136.466 351.91 134.417 353.018 134.334 353.066C134.255 353.108 134.167 353.13 134.077 353.13ZM133.146 348.89L134.315 351.608C134.953 350.84 135.326 349.886 135.381 348.89H133.146ZM113.406 231.284C113.326 231.282 113.247 231.266 113.174 231.232L60.891 208.61C60.749 208.549 60.6374 208.433 60.5806 208.289C60.524 208.145 60.5268 207.984 60.5884 207.842C60.6502 207.7 60.7658 207.588 60.9098 207.532C61.054 207.475 61.2146 207.478 61.3566 207.54L112.48 229.664L103.895 201.524C103.87 201.451 103.86 201.373 103.866 201.295C103.872 201.218 103.893 201.142 103.929 201.073C103.964 201.004 104.014 200.942 104.073 200.892C104.133 200.842 104.202 200.805 104.276 200.782C104.351 200.759 104.429 200.752 104.506 200.76C104.584 200.768 104.659 200.791 104.727 200.829C104.795 200.866 104.855 200.917 104.903 200.978C104.952 201.039 104.987 201.11 105.008 201.185L113.96 230.516C113.987 230.602 113.993 230.694 113.978 230.784C113.963 230.874 113.927 230.958 113.873 231.032C113.82 231.106 113.749 231.164 113.668 231.206C113.587 231.248 113.497 231.27 113.406 231.27V231.284ZM126.805 353.038C126.721 353.038 126.638 353.02 126.562 352.986C126.486 352.952 126.418 352.9 126.363 352.838C126.13 352.568 120.609 346.05 121.419 331.36C121.835 324.48 123.964 317.812 127.611 311.962C127.699 311.838 127.832 311.754 127.981 311.728C128.13 311.702 128.284 311.734 128.409 311.818C128.535 311.904 128.622 312.034 128.653 312.182C128.684 312.33 128.656 312.484 128.574 312.612C125.073 318.302 123.016 324.76 122.583 331.426C121.801 345.598 127.187 352.014 127.238 352.074C127.339 352.19 127.39 352.342 127.38 352.498C127.369 352.652 127.298 352.796 127.182 352.898C127.077 352.986 126.943 353.036 126.805 353.038ZM66.5619 265.302L77.0043 303.502L72.442 302.352L66.5619 265.302Z" fill="#1E1D25"/>
</svg>
