<svg width="400" height="450" viewBox="0 0 400 450" fill="none" xmlns="http://www.w3.org/2000/svg">
<path d="M187.751 187.607C190.148 187.07 191.428 183.67 190.609 180.012C189.79 176.354 187.183 173.824 184.785 174.361C182.388 174.897 181.108 178.298 181.927 181.956C182.746 185.614 185.354 188.144 187.751 187.607Z" fill="white"/>
<path d="M187.096 188.23C185.868 188.178 184.709 187.646 183.868 186.75C182.612 185.461 181.753 183.839 181.393 182.077C180.512 178.113 181.978 174.422 184.665 173.823C187.352 173.224 190.263 175.941 191.148 179.892C191.574 181.641 191.488 183.476 190.902 185.177C190.294 186.794 189.219 187.846 187.876 188.15C187.62 188.205 187.358 188.232 187.096 188.23ZM182.485 181.834C182.797 183.388 183.549 184.819 184.652 185.957C185.612 186.895 186.678 187.278 187.651 187.071C188.625 186.864 189.413 186.041 189.889 184.785C190.4 183.285 190.471 181.669 190.091 180.13C189.338 176.774 187.008 174.426 184.925 174.898C182.842 175.369 181.732 178.478 182.485 181.834Z" fill="#1E1D25"/>
<path d="M188.329 222.549L203.876 243.298L219.186 221.536L221.114 184.041L190.624 182.421L188.329 222.549Z" fill="white"/>
<path d="M203.876 243.848C203.79 243.848 203.706 243.828 203.63 243.79C203.554 243.752 203.488 243.696 203.436 243.628L187.888 222.874C187.811 222.77 187.774 222.642 187.783 222.513L190.077 182.39C190.081 182.318 190.098 182.247 190.129 182.182C190.16 182.117 190.204 182.059 190.257 182.011C190.311 181.963 190.374 181.926 190.442 181.903C190.51 181.879 190.582 181.869 190.654 181.874L221.146 183.491C221.29 183.5 221.426 183.565 221.524 183.673C221.62 183.781 221.672 183.923 221.666 184.068L219.732 221.588C219.726 221.691 219.694 221.79 219.636 221.874L204.326 243.61C204.276 243.68 204.21 243.738 204.132 243.778C204.056 243.818 203.972 243.84 203.886 243.842L203.876 243.848ZM188.901 222.377L203.876 242.358L218.662 221.35L220.556 184.561L191.161 183.002L188.901 222.377Z" fill="#1E1D25"/>
<path d="M189.443 204.662C189.443 204.662 194.469 200.35 205.21 201.139C211.14 201.579 202.476 189.802 202.476 189.802L190.267 189.154L189.443 204.662Z" fill="#1E1D25"/>
<path d="M189.444 205.213C189.36 205.214 189.276 205.194 189.202 205.156C189.105 205.108 189.024 205.033 188.969 204.94C188.914 204.847 188.888 204.739 188.893 204.632L189.717 189.128C189.725 188.982 189.79 188.845 189.899 188.746C190.008 188.648 190.152 188.597 190.298 188.604L202.506 189.256C202.588 189.259 202.668 189.28 202.738 189.319C202.81 189.357 202.872 189.411 202.92 189.476C203.956 190.881 209.038 198.029 207.562 200.699C207.276 201.209 206.634 201.8 205.172 201.69C194.817 200.928 189.849 205.041 189.8 205.081C189.701 205.167 189.575 205.214 189.444 205.213ZM190.787 189.736L190.056 203.561C192.011 202.337 196.953 199.981 205.25 200.593C206.316 200.668 206.528 200.289 206.598 200.152C207.48 198.593 204.396 193.396 202.194 190.326L190.787 189.736Z" fill="#1E1D25"/>
<path d="M185.167 175.479V184.693C185.163 189.055 186.893 193.24 189.974 196.327C193.056 199.415 197.237 201.152 201.6 201.156H204.62C206.78 201.159 208.92 200.736 210.916 199.911C212.912 199.087 214.726 197.878 216.254 196.352C217.784 194.827 218.996 193.015 219.826 191.02C220.654 189.026 221.082 186.888 221.084 184.728V175.514C221.088 170.906 219.262 166.484 216.008 163.222C212.752 159.959 208.336 158.123 203.726 158.117H202.56C200.278 158.114 198.017 158.561 195.907 159.432C193.798 160.303 191.881 161.582 190.266 163.194C188.65 164.806 187.369 166.721 186.494 168.829C185.619 170.937 185.168 173.197 185.167 175.479Z" fill="white"/>
<path d="M204.378 201.712H201.832C197.26 201.703 192.879 199.88 189.648 196.644C186.418 193.409 184.604 189.024 184.603 184.451V175.484C184.613 170.735 186.506 166.183 189.866 162.827C193.225 159.47 197.779 157.582 202.528 157.576H203.714C206.068 157.578 208.398 158.045 210.572 158.948C212.748 159.851 214.722 161.174 216.386 162.841C218.048 164.507 219.366 166.485 220.264 168.661C221.164 170.838 221.624 173.169 221.622 175.524V184.491C221.618 188.631 220.124 192.631 217.416 195.762C217.368 195.816 217.31 195.861 217.246 195.894C217.18 195.926 217.11 195.945 217.038 195.95C216.966 195.955 216.894 195.946 216.824 195.923C216.756 195.901 216.692 195.864 216.638 195.817C216.584 195.769 216.538 195.712 216.506 195.647C216.474 195.582 216.454 195.512 216.45 195.44C216.444 195.367 216.454 195.295 216.476 195.226C216.5 195.158 216.536 195.094 216.582 195.04C219.122 192.112 220.52 188.366 220.52 184.491V175.519C220.524 171.057 218.754 166.776 215.602 163.617C212.45 160.459 208.172 158.682 203.71 158.677H202.528C198.071 158.682 193.797 160.454 190.643 163.604C187.489 166.754 185.713 171.027 185.704 175.484V184.451C185.705 188.732 187.403 192.836 190.427 195.866C193.451 198.895 197.552 200.602 201.832 200.611H204.36C207.35 200.626 210.282 199.807 212.83 198.246C212.892 198.208 212.96 198.183 213.032 198.171C213.104 198.16 213.176 198.163 213.246 198.179C213.316 198.196 213.384 198.227 213.442 198.269C213.5 198.311 213.55 198.365 213.588 198.426C213.626 198.488 213.652 198.557 213.662 198.628C213.674 198.699 213.672 198.772 213.654 198.843C213.638 198.913 213.608 198.979 213.564 199.038C213.522 199.096 213.468 199.146 213.408 199.184C210.69 200.848 207.564 201.723 204.378 201.712Z" fill="#1E1D25"/>
<path d="M185.167 175.48C185.167 175.48 186.739 170.811 188.805 168.789C190.871 166.768 208.87 167.226 210.522 168.063C211.954 168.789 213.214 170.362 214.54 173.736C215.998 177.444 221.08 177.981 221.08 177.981V175.519L221.358 157.69C221.362 157.576 221.344 157.461 221.302 157.354C221.262 157.247 221.2 157.149 221.12 157.066C221.04 156.984 220.944 156.919 220.838 156.875C220.732 156.83 220.618 156.808 220.502 156.81L186.902 156.968C186.685 156.968 186.475 157.052 186.318 157.202C186.16 157.352 186.067 157.557 186.057 157.774L185.167 175.48Z" fill="#1E1D25"/>
<path d="M221.08 178.531H221.022C220.802 178.505 215.588 177.906 214.024 173.938C212.844 170.93 211.686 169.269 210.276 168.556C208.77 167.794 190.967 167.446 189.192 169.181C187.241 171.088 185.704 175.607 185.668 175.655C185.625 175.78 185.538 175.885 185.424 175.951C185.31 176.018 185.176 176.041 185.046 176.016C184.916 175.991 184.799 175.921 184.717 175.818C184.635 175.714 184.593 175.585 184.598 175.453L185.479 157.765C185.499 157.409 185.654 157.074 185.913 156.829C186.172 156.583 186.514 156.445 186.871 156.444L220.476 156.285C220.852 156.286 221.21 156.434 221.476 156.699C221.608 156.831 221.712 156.989 221.782 157.162C221.852 157.335 221.886 157.521 221.882 157.708L221.604 175.537V177.985C221.604 178.058 221.59 178.13 221.564 178.197C221.536 178.264 221.496 178.325 221.444 178.376C221.392 178.427 221.332 178.468 221.264 178.495C221.198 178.523 221.126 178.536 221.054 178.536L221.08 178.531ZM200.278 166.838C205.246 166.838 210.016 167.19 210.77 167.573C212.442 168.419 213.764 170.256 215.05 173.533C216.08 176.153 219.204 177.056 220.53 177.333V175.515L220.802 157.681C220.804 157.642 220.796 157.602 220.782 157.565C220.768 157.528 220.746 157.494 220.718 157.466C220.694 157.433 220.66 157.408 220.622 157.393C220.584 157.377 220.544 157.372 220.502 157.377L186.897 157.536C186.821 157.536 186.748 157.565 186.693 157.618C186.638 157.67 186.606 157.742 186.602 157.818L185.867 172.299C186.498 170.869 187.358 169.551 188.412 168.397C189.61 167.23 195.05 166.838 200.278 166.838Z" fill="#1E1D25"/>
<path d="M200.542 181.681H195.442C195.346 181.681 195.252 181.656 195.168 181.608C195.085 181.56 195.015 181.491 194.967 181.408C194.676 180.906 194.888 178.506 195.597 174.264C195.604 174.189 195.626 174.116 195.663 174.05C195.7 173.984 195.749 173.926 195.809 173.88C195.869 173.834 195.938 173.801 196.011 173.783C196.084 173.764 196.161 173.761 196.235 173.774C196.31 173.786 196.381 173.814 196.444 173.855C196.508 173.896 196.562 173.95 196.604 174.013C196.645 174.076 196.674 174.146 196.687 174.221C196.7 174.295 196.698 174.371 196.68 174.445C196.315 176.475 196.061 178.523 195.918 180.58H200.542C200.688 180.58 200.828 180.638 200.932 180.741C201.034 180.845 201.092 180.985 201.092 181.131C201.092 181.277 201.034 181.417 200.932 181.52C200.828 181.623 200.688 181.681 200.542 181.681ZM205.748 175.065C205.646 175.065 205.546 175.036 205.458 174.983C205.372 174.929 205.302 174.853 205.254 174.761C203.762 171.78 200.168 172.242 200.018 172.264C199.947 172.274 199.874 172.27 199.804 172.252C199.734 172.234 199.668 172.202 199.61 172.159C199.552 172.115 199.503 172.061 199.466 171.998C199.43 171.936 199.406 171.867 199.395 171.795C199.385 171.723 199.389 171.65 199.407 171.58C199.426 171.51 199.457 171.444 199.501 171.386C199.544 171.328 199.599 171.28 199.661 171.243C199.724 171.206 199.793 171.182 199.864 171.172C199.908 171.172 204.388 170.573 206.242 174.255C206.274 174.319 206.294 174.39 206.298 174.461C206.304 174.533 206.294 174.606 206.272 174.674C206.248 174.742 206.212 174.806 206.164 174.86C206.118 174.914 206.06 174.959 205.994 174.99C205.92 175.035 205.836 175.06 205.748 175.065ZM190.483 175.167C190.404 175.166 190.326 175.148 190.254 175.114C190.188 175.084 190.129 175.041 190.08 174.988C190.031 174.934 189.993 174.872 189.968 174.804C189.943 174.736 189.932 174.664 189.935 174.592C189.938 174.52 189.955 174.449 189.985 174.383C191.307 171.502 194.954 171.243 195.112 171.234C195.252 171.235 195.386 171.289 195.487 171.385C195.589 171.481 195.65 171.612 195.658 171.751C195.667 171.891 195.622 172.028 195.533 172.136C195.443 172.243 195.317 172.313 195.178 172.33C195.147 172.33 192.033 172.564 190.985 174.845C190.941 174.941 190.87 175.022 190.781 175.079C190.692 175.136 190.589 175.167 190.483 175.167ZM201.684 177.254C202.116 177.254 202.466 176.903 202.466 176.47C202.466 176.037 202.116 175.686 201.684 175.686C201.25 175.686 200.9 176.037 200.9 176.47C200.9 176.903 201.25 177.254 201.684 177.254ZM193.403 177.585C193.836 177.585 194.187 177.234 194.187 176.801C194.187 176.368 193.836 176.017 193.403 176.017C192.97 176.017 192.619 176.368 192.619 176.801C192.619 177.234 192.97 177.585 193.403 177.585Z" fill="#1E1D25"/>
<path d="M223.712 181.807C224.54 178.151 223.266 174.748 220.87 174.206C218.474 173.664 215.862 176.189 215.034 179.845C214.208 183.501 215.48 186.904 217.876 187.446C220.274 187.988 222.886 185.463 223.712 181.807Z" fill="white"/>
<path d="M219.04 188.049C218.9 188.053 218.762 188.003 218.656 187.908C218.552 187.813 218.486 187.682 218.476 187.541C218.464 187.399 218.508 187.26 218.598 187.15C218.688 187.041 218.816 186.97 218.956 186.952C220.794 186.67 222.582 184.459 223.208 181.698C223.588 180.16 223.522 178.544 223.014 177.043C222.546 175.787 221.754 174.977 220.78 174.757C219.314 174.422 217.644 175.51 216.53 177.518C216.496 177.582 216.448 177.637 216.392 177.683C216.334 177.728 216.27 177.761 216.2 177.781C216.13 177.801 216.058 177.807 215.986 177.799C215.914 177.791 215.844 177.769 215.782 177.734C215.718 177.699 215.662 177.652 215.618 177.595C215.572 177.539 215.538 177.474 215.518 177.404C215.498 177.335 215.492 177.262 215.5 177.19C215.508 177.118 215.53 177.049 215.566 176.985C216.926 174.537 219.066 173.237 221.022 173.682C222.37 173.986 223.44 175.043 224.048 176.659C224.632 178.362 224.71 180.197 224.278 181.945C223.546 185.182 221.428 187.67 219.124 188.045L219.04 188.049Z" fill="#1E1D25"/>
<path d="M219.186 181.381C219.088 181.379 218.992 181.349 218.908 181.297C218.824 181.244 218.756 181.17 218.712 181.082C218.666 180.995 218.646 180.896 218.652 180.798C218.658 180.699 218.69 180.604 218.746 180.523L220.64 177.677C220.68 177.617 220.732 177.566 220.792 177.525C220.852 177.485 220.918 177.457 220.99 177.443C221.06 177.429 221.134 177.429 221.204 177.443C221.276 177.457 221.344 177.485 221.404 177.525C221.464 177.566 221.516 177.617 221.556 177.678C221.596 177.738 221.624 177.805 221.638 177.876C221.652 177.947 221.652 178.02 221.638 178.091C221.624 178.162 221.596 178.229 221.556 178.29L220.332 180.126H220.376C220.52 180.107 220.666 180.146 220.782 180.235C220.898 180.324 220.974 180.455 220.994 180.6C221.014 180.745 220.974 180.891 220.886 181.007C220.796 181.123 220.666 181.199 220.52 181.219L219.274 181.386L219.186 181.381ZM185.162 180.245C185.084 180.246 185.006 180.23 184.935 180.198C184.863 180.166 184.8 180.119 184.748 180.06L183.405 178.528C183.309 178.417 183.261 178.273 183.271 178.127C183.281 177.981 183.348 177.845 183.458 177.748C183.568 177.653 183.711 177.604 183.856 177.614C184.001 177.624 184.137 177.691 184.233 177.801L185.554 179.334C185.65 179.444 185.698 179.587 185.688 179.732C185.678 179.877 185.611 180.013 185.501 180.109C185.407 180.192 185.287 180.24 185.162 180.245ZM203.868 187.728C201.938 187.728 200.23 185.945 200.154 185.87C200.074 185.786 200.024 185.679 200.008 185.564C199.993 185.449 200.016 185.333 200.072 185.231C200.126 185.129 200.212 185.047 200.316 184.997C200.42 184.946 200.538 184.93 200.652 184.949C201.142 185.007 201.638 184.958 202.108 184.806C202.576 184.654 203.008 184.402 203.37 184.068C204.642 183.038 205.524 181.373 205.572 180.466C205.576 180.347 205.618 180.232 205.692 180.139C205.766 180.046 205.868 179.979 205.982 179.949C206.098 179.919 206.22 179.926 206.33 179.971C206.44 180.016 206.532 180.095 206.594 180.197C207.352 181.452 208.242 184.416 206.154 186.663C205.872 186.989 205.526 187.253 205.136 187.435C204.746 187.617 204.32 187.714 203.89 187.72L203.868 187.728ZM202.036 185.967C202.576 186.357 203.22 186.58 203.886 186.61C204.164 186.606 204.438 186.541 204.69 186.421C204.942 186.301 205.164 186.128 205.344 185.914C205.794 185.416 206.108 184.811 206.256 184.157C206.404 183.503 206.38 182.822 206.188 182.179C205.686 183.234 204.962 184.169 204.066 184.918C203.476 185.42 202.784 185.784 202.036 185.984V185.967Z" fill="#1E1D25"/>
<path d="M188.329 222.549C188.329 222.549 148.69 232 141.542 236.846C134.394 241.69 106.527 281.356 106.527 281.356C106.527 281.356 115.776 278.978 134.143 291.952C151.83 304.456 152.311 305.782 152.311 305.782V354.23H257.922L254.126 299.95C254.126 299.95 290.162 294.326 299.49 304.236C299.49 304.236 284.146 245.926 273.504 236.89C267.198 231.52 219.178 221.549 219.178 221.549L203.868 243.31L188.329 222.549Z" fill="white"/>
<path d="M257.922 354.766H152.311C152.165 354.766 152.025 354.708 151.921 354.606C151.818 354.502 151.76 354.362 151.76 354.216V305.966C151.32 305.486 148.677 302.884 133.826 292.4C115.962 279.774 106.752 281.866 106.66 281.888C106.551 281.914 106.437 281.906 106.332 281.866C106.227 281.826 106.138 281.756 106.074 281.664C106.009 281.572 105.975 281.462 105.975 281.35C105.975 281.238 106.009 281.13 106.074 281.038C107.215 279.412 134.09 241.24 141.234 236.39C148.378 231.542 186.581 222.398 188.211 222.028C188.316 222.002 188.426 222.008 188.528 222.045C188.63 222.082 188.719 222.148 188.783 222.235L203.868 242.376L218.742 221.235C218.804 221.148 218.89 221.081 218.99 221.042C219.09 221.003 219.2 220.994 219.304 221.015C221.274 221.425 267.542 231.08 273.878 236.47C284.512 245.522 299.388 301.712 300.018 304.098C300.05 304.218 300.04 304.342 299.992 304.454C299.946 304.568 299.862 304.66 299.754 304.72C299.648 304.78 299.524 304.802 299.402 304.784C299.282 304.764 299.17 304.706 299.086 304.618C290.656 295.638 259.08 299.782 254.716 300.426L258.476 354.202C258.482 354.278 258.472 354.354 258.446 354.424C258.42 354.496 258.38 354.56 258.328 354.614C258.278 354.67 258.214 354.714 258.146 354.744C258.076 354.774 258.002 354.788 257.926 354.788L257.922 354.766ZM152.861 353.666H257.332L253.58 299.986C253.568 299.848 253.61 299.712 253.696 299.604C253.782 299.496 253.906 299.424 254.042 299.404C255.46 299.184 287.414 294.316 298.468 302.606C295.796 292.784 282.49 245.252 273.156 237.308C267.312 232.33 223.828 223.085 219.424 222.164L204.326 243.61C204.276 243.68 204.208 243.738 204.132 243.778C204.056 243.818 203.972 243.84 203.886 243.844C203.8 243.842 203.716 243.822 203.64 243.784C203.564 243.746 203.496 243.69 203.444 243.622L188.118 223.16C184.154 224.111 148.479 232.802 141.872 237.298C135.53 241.602 112.143 274.396 107.721 280.642C110.897 280.448 119.802 281.122 134.482 291.498C151.025 303.196 152.725 305.24 152.848 305.592C152.871 305.652 152.883 305.716 152.883 305.782L152.861 353.666Z" fill="#1E1D25"/>
<path d="M152.002 305.972C151.856 305.972 151.716 305.914 151.613 305.81C151.509 305.706 151.451 305.566 151.451 305.42V283.724C151.451 283.578 151.509 283.438 151.613 283.336C151.716 283.232 151.856 283.174 152.002 283.174C152.148 283.174 152.288 283.232 152.391 283.336C152.494 283.438 152.552 283.578 152.552 283.724V305.42C152.552 305.566 152.494 305.706 152.391 305.81C152.288 305.914 152.148 305.972 152.002 305.972ZM254.144 300.484C253.998 300.484 253.858 300.426 253.754 300.322C253.65 300.218 253.592 300.078 253.592 299.932C253.592 299.786 253.65 299.646 253.754 299.544C253.858 299.44 253.998 299.382 254.144 299.382C254.29 299.382 254.43 299.44 254.536 299.542C254.64 299.646 254.7 299.786 254.702 299.932C254.704 300.006 254.688 300.078 254.66 300.146C254.632 300.214 254.592 300.276 254.54 300.326C254.488 300.378 254.426 300.418 254.358 300.444C254.29 300.472 254.216 300.484 254.144 300.484Z" fill="#1E1D25"/>
<path d="M152.306 306.328C152.208 306.328 152.111 306.302 152.027 306.252C151.942 306.2 151.873 306.128 151.826 306.042C151.759 305.96 151.687 305.882 151.61 305.808C151.508 305.704 151.45 305.564 151.451 305.418C151.452 305.272 151.511 305.132 151.615 305.028C151.719 304.926 151.859 304.868 152.006 304.87C152.152 304.87 152.292 304.928 152.394 305.032C152.581 305.186 152.732 305.378 152.835 305.596C152.865 305.68 152.874 305.768 152.862 305.856C152.85 305.944 152.817 306.026 152.766 306.098C152.715 306.17 152.647 306.228 152.569 306.268C152.49 306.308 152.403 306.328 152.315 306.328H152.306Z" fill="#1E1D25"/>
<path d="M200.374 81.4199L207.928 96.7161L224.81 99.1693L212.592 111.079L215.478 127.895L200.374 119.958L185.272 127.895L188.157 111.079L175.939 99.1693L192.826 96.7161L200.374 81.4199ZM120.022 102.993L131.42 113.043L146.162 109.357L140.123 123.301L148.188 136.179L133.059 134.748L123.299 146.393L119.987 131.564L105.893 125.882L118.974 118.152L120.022 102.993ZM47.6013 142.173L59.8499 149.009L72.4287 142.794L69.7111 156.558L79.5109 166.595L65.5799 168.269L59.0571 180.689L53.1685 167.956L39.3389 165.595L49.6229 156.056L47.6013 142.173ZM280.728 102.993L269.334 113.043L254.592 109.357L260.63 123.301L252.566 136.179L267.696 134.748L277.45 146.393L280.762 131.564L294.856 125.882L281.776 118.152L280.728 102.993ZM352.39 142.173L340.138 149.009L327.564 142.794L330.276 156.558L320.482 166.595L334.408 168.269L340.93 180.689L346.824 167.956L360.648 165.595L350.364 156.056L352.39 142.173Z" fill="#FFCB3D"/>
<path d="M215.478 128.446C215.388 128.445 215.302 128.424 215.222 128.384L200.374 120.579L185.533 128.384C185.441 128.431 185.338 128.452 185.236 128.444C185.133 128.437 185.034 128.4 184.951 128.34C184.868 128.28 184.803 128.198 184.764 128.103C184.725 128.008 184.713 127.904 184.731 127.802L187.567 111.273L175.557 99.5883C175.484 99.5163 175.432 99.4257 175.407 99.3263C175.382 99.2267 175.385 99.1225 175.416 99.0247C175.446 98.9269 175.504 98.8401 175.582 98.7737C175.66 98.7075 175.755 98.6647 175.856 98.6503L192.456 96.2367L199.877 81.1958C199.923 81.1038 199.993 81.0264 200.08 80.9724C200.168 80.9184 200.268 80.8896 200.37 80.8896C200.474 80.8896 200.574 80.9184 200.66 80.9724C200.748 81.0264 200.818 81.1038 200.864 81.1958L208.29 96.2367L224.886 98.6503C224.986 98.6647 225.082 98.7075 225.16 98.7737C225.238 98.8401 225.294 98.9269 225.326 99.0247C225.36 99.1203 225.368 99.2238 225.346 99.3234C225.326 99.423 225.278 99.5149 225.206 99.5883L213.182 111.273L216.02 127.802C216.036 127.904 216.026 128.008 215.986 128.103C215.948 128.198 215.882 128.28 215.798 128.34C215.706 128.409 215.594 128.446 215.478 128.446ZM200.374 119.408C200.464 119.406 200.552 119.427 200.63 119.469L214.724 126.891L212.028 111.172C212.014 111.084 212.02 110.994 212.048 110.909C212.074 110.825 212.122 110.749 212.188 110.687L223.604 99.5575L207.828 97.2628C207.734 97.2526 207.646 97.2201 207.57 97.1679C207.492 97.1157 207.43 97.0455 207.386 96.9633L200.34 82.6625L193.319 96.9456C193.279 97.025 193.221 97.0938 193.149 97.1458C193.077 97.198 192.993 97.2321 192.905 97.2453L177.125 99.5399L188.545 110.67C188.608 110.732 188.655 110.808 188.682 110.893C188.709 110.977 188.715 111.067 188.699 111.154L186.008 126.895L200.102 119.474C200.186 119.427 200.28 119.404 200.374 119.408ZM123.299 146.948C123.257 146.953 123.214 146.953 123.171 146.948C123.071 146.925 122.979 146.873 122.907 146.8C122.834 146.727 122.784 146.635 122.762 146.534L119.516 132L105.686 126.424C105.592 126.385 105.51 126.32 105.45 126.237C105.39 126.154 105.355 126.056 105.348 125.955C105.34 125.853 105.361 125.751 105.409 125.66C105.456 125.569 105.528 125.494 105.616 125.442L118.446 117.857L119.472 102.984C119.481 102.882 119.517 102.783 119.578 102.7C119.638 102.617 119.721 102.552 119.815 102.513C119.91 102.474 120.014 102.463 120.115 102.48C120.216 102.497 120.311 102.542 120.388 102.61L131.566 112.471L146.026 108.837C146.126 108.813 146.231 108.817 146.329 108.849C146.427 108.881 146.514 108.939 146.58 109.018C146.647 109.096 146.69 109.191 146.705 109.292C146.72 109.393 146.706 109.497 146.664 109.59L140.74 123.27L148.668 135.906C148.723 135.993 148.753 136.094 148.753 136.197C148.753 136.3 148.723 136.401 148.668 136.488C148.614 136.575 148.536 136.645 148.445 136.69C148.353 136.736 148.251 136.756 148.148 136.748L133.306 135.338L123.735 146.767C123.681 146.828 123.613 146.876 123.538 146.907C123.462 146.939 123.381 146.952 123.299 146.948ZM107.135 125.807L120.194 131.07C120.276 131.105 120.349 131.158 120.407 131.226C120.464 131.295 120.505 131.375 120.524 131.462L123.607 145.204L132.636 134.382C132.693 134.314 132.766 134.261 132.848 134.227C132.93 134.193 133.019 134.18 133.108 134.189L147.127 135.51L139.639 123.574C139.592 123.499 139.564 123.413 139.557 123.324C139.55 123.235 139.565 123.145 139.6 123.063L145.211 110.159L131.557 113.576C131.471 113.599 131.38 113.6 131.294 113.579C131.207 113.559 131.126 113.517 131.06 113.457L120.489 104.142L119.52 118.188C119.516 118.278 119.489 118.365 119.442 118.442C119.395 118.519 119.329 118.583 119.252 118.628L107.135 125.807ZM59.0617 181.24C58.9589 181.238 58.8589 181.206 58.7731 181.149C58.6873 181.093 58.6195 181.013 58.5773 180.919L52.8075 168.454L39.2641 166.138C39.1619 166.121 39.0663 166.075 38.9885 166.007C38.9107 165.938 38.8537 165.85 38.8237 165.75C38.7943 165.652 38.7931 165.547 38.8203 165.448C38.8477 165.349 38.9023 165.26 38.9779 165.191L49.0329 155.849L47.0511 142.253C47.0353 142.151 47.0487 142.047 47.0901 141.953C47.1315 141.858 47.1989 141.778 47.2845 141.72C47.3695 141.662 47.4687 141.629 47.5715 141.625C47.6741 141.62 47.7759 141.644 47.8659 141.694L59.8633 148.388L72.1955 142.302C72.2875 142.256 72.3903 142.237 72.4923 142.247C72.5945 142.257 72.6917 142.295 72.7733 142.358C72.8547 142.42 72.9173 142.504 72.9537 142.6C72.9901 142.696 72.9991 142.8 72.9795 142.9L70.3369 156.382L79.9339 166.213C80.0053 166.286 80.0549 166.379 80.0767 166.479C80.0985 166.58 80.0917 166.684 80.0571 166.781C80.0247 166.877 79.9665 166.961 79.8887 167.026C79.8109 167.09 79.7167 167.132 79.6167 167.146L65.9633 168.78L59.5769 180.945C59.5287 181.039 59.4543 181.117 59.3629 181.169C59.2715 181.221 59.1669 181.246 59.0617 181.24ZM40.5327 165.239L53.2611 167.415C53.3489 167.431 53.4315 167.468 53.5019 167.522C53.5725 167.576 53.6289 167.647 53.6663 167.728L59.0925 179.448L65.0913 167.996C65.1341 167.915 65.1969 167.845 65.2741 167.794C65.3511 167.744 65.4397 167.713 65.5317 167.706L78.3527 166.169L69.3327 156.92C69.2711 156.856 69.2257 156.778 69.2005 156.693C69.1751 156.608 69.1707 156.518 69.1873 156.431L71.6889 143.759L60.1099 149.485C60.0317 149.528 59.9439 149.551 59.8545 149.551C59.7651 149.551 59.6773 149.528 59.5991 149.485L48.3063 143.191L50.1693 155.964C50.1829 156.052 50.1747 156.142 50.1455 156.227C50.1163 156.311 50.0671 156.387 50.0019 156.448L40.5327 165.239ZM277.45 146.948C277.368 146.95 277.284 146.933 277.208 146.898C277.132 146.864 277.064 146.813 277.01 146.749L267.44 135.32L252.602 136.73C252.5 136.738 252.398 136.718 252.306 136.672C252.214 136.626 252.138 136.555 252.084 136.468C252.03 136.381 252.002 136.281 252.002 136.178C252 136.076 252.028 135.976 252.082 135.888L260.01 123.252L254.086 109.572C254.05 109.48 254.04 109.379 254.058 109.281C254.074 109.184 254.118 109.092 254.182 109.017C254.246 108.942 254.33 108.885 254.424 108.853C254.518 108.822 254.618 108.816 254.716 108.837L269.176 112.457L280.358 102.596C280.434 102.528 280.53 102.484 280.63 102.467C280.732 102.45 280.834 102.462 280.93 102.501C281.024 102.54 281.106 102.604 281.166 102.687C281.226 102.77 281.262 102.868 281.27 102.97L282.296 117.844L295.13 125.428C295.218 125.48 295.29 125.556 295.336 125.647C295.384 125.738 295.404 125.84 295.396 125.942C295.388 126.044 295.352 126.142 295.292 126.225C295.232 126.307 295.15 126.372 295.056 126.41L281.23 131.986L277.98 146.52C277.958 146.62 277.908 146.712 277.836 146.786C277.764 146.859 277.674 146.91 277.574 146.934C277.534 146.943 277.492 146.947 277.45 146.948ZM267.696 134.197C267.778 134.194 267.862 134.21 267.938 134.244C268.014 134.277 268.082 134.328 268.136 134.391L277.178 145.186L280.26 131.444C280.28 131.357 280.322 131.276 280.378 131.208C280.436 131.14 280.508 131.087 280.592 131.052L293.654 125.789L281.494 118.623C281.416 118.578 281.35 118.514 281.304 118.437C281.258 118.36 281.23 118.273 281.226 118.183L280.26 104.142L269.69 113.457C269.624 113.517 269.544 113.559 269.456 113.579C269.37 113.6 269.28 113.599 269.192 113.576L255.54 110.158L261.138 123.08C261.172 123.163 261.186 123.252 261.18 123.341C261.174 123.43 261.144 123.516 261.098 123.591L253.61 135.527L267.63 134.206L267.696 134.197ZM340.93 181.241C340.83 181.241 340.732 181.213 340.646 181.161C340.56 181.109 340.488 181.035 340.442 180.946L334.056 168.781L320.402 167.147C320.302 167.132 320.208 167.09 320.132 167.025C320.054 166.961 319.994 166.877 319.962 166.781C319.928 166.685 319.92 166.58 319.942 166.48C319.964 166.379 320.014 166.287 320.084 166.213L329.682 156.405L327.04 142.923C327.016 142.821 327.022 142.714 327.058 142.615C327.092 142.517 327.156 142.43 327.238 142.366C327.322 142.301 327.42 142.262 327.526 142.252C327.63 142.243 327.734 142.263 327.828 142.311L340.16 148.398L352.158 141.703C352.246 141.652 352.348 141.627 352.452 141.632C352.554 141.636 352.654 141.669 352.738 141.728C352.824 141.786 352.89 141.867 352.93 141.962C352.97 142.057 352.984 142.161 352.968 142.262L350.986 155.859L361.024 165.213C361.098 165.283 361.154 165.373 361.18 165.472C361.208 165.571 361.206 165.676 361.178 165.775C361.148 165.873 361.092 165.962 361.014 166.03C360.938 166.098 360.842 166.143 360.742 166.16L347.206 168.455L341.432 180.919C341.39 181.013 341.322 181.093 341.236 181.15C341.152 181.207 341.052 181.238 340.948 181.241H340.93ZM321.662 166.187L334.482 167.724C334.574 167.731 334.664 167.762 334.74 167.812C334.818 167.863 334.88 167.933 334.924 168.015L340.926 179.466L346.326 167.728C346.364 167.647 346.422 167.577 346.494 167.522C346.564 167.468 346.648 167.431 346.736 167.416L359.464 165.24L349.994 156.462C349.93 156.401 349.88 156.325 349.85 156.241C349.82 156.156 349.81 156.066 349.824 155.977L351.686 143.205L340.412 149.494C340.332 149.537 340.244 149.56 340.156 149.56C340.066 149.56 339.978 149.537 339.9 149.494L328.322 143.769L330.822 156.44C330.84 156.527 330.836 156.617 330.812 156.703C330.786 156.788 330.74 156.866 330.678 156.929L321.662 166.187Z" fill="#1E1D25"/>
<path d="M152.002 305.42C145.263 314.388 122.242 343.298 104.955 344.346C57.8811 347.16 59.6913 248.102 54.6175 241.774C50.9619 237.21 50.4553 227.414 50.4553 227.414C50.4553 227.414 46.0775 228.494 44.2893 216.8C42.7301 206.516 48.6937 207.851 48.6937 207.851C50.2307 203.204 54.9611 204.957 54.9611 204.957C56.7537 199.914 61.0743 201.548 61.0743 201.548C63.1267 197.21 67.5047 200.487 67.6807 200.614C67.6103 200.275 63.3205 180.795 67.1391 179.416C72.1997 177.606 79.6297 212.779 79.6297 212.779C79.6297 212.779 83.1533 215.091 84.3733 218.562C85.8179 222.684 83.0519 226.608 84.4305 235.806C85.8091 245.002 102.109 296.056 102.109 296.056L113.525 281.79C118.137 282.83 125.016 285.486 134.142 291.92C147.628 301.488 151.112 304.522 152.002 305.42Z" fill="white"/>
<path d="M103.03 344.954C88.0864 344.954 76.5294 334.442 68.6544 313.684C61.8146 295.626 59.0222 273.406 57.1724 258.69C56.1064 250.186 55.2652 243.474 54.1862 242.13C50.9182 238.056 50.1078 230.15 49.9448 227.996C49.3386 227.934 48.758 227.72 48.258 227.372C46.7824 226.384 44.805 223.765 43.761 216.898C43.1268 212.723 43.6246 209.851 45.2366 208.336C45.6516 207.959 46.1388 207.67 46.6686 207.486C47.1986 207.302 47.76 207.227 48.3196 207.266C48.7394 206.099 49.5906 205.137 50.698 204.579C51.9374 204.047 53.3202 203.949 54.6222 204.302C55.113 202.961 56.0976 201.858 57.375 201.219C58.4472 200.746 59.6456 200.641 60.7838 200.919C61.0308 200.426 61.3788 199.99 61.8054 199.64C62.2318 199.291 62.7272 199.035 63.2592 198.889C64.5804 198.558 65.9326 199.025 66.8618 199.497C65.6682 193.692 63.3384 180.219 66.9368 178.924C67.1904 178.837 67.4602 178.807 67.7268 178.836C67.9934 178.866 68.2502 178.955 68.4782 179.096C73.42 181.853 79.2512 208.468 80.1058 212.485C80.8854 213.036 83.7658 215.242 84.8756 218.413C85.5936 220.461 85.3426 222.404 85.021 224.866C84.441 228.472 84.4202 232.146 84.9594 235.758C86.219 244.126 100.04 287.812 102.308 294.942L113.077 281.478C113.14 281.398 113.226 281.336 113.324 281.302C113.421 281.268 113.526 281.262 113.627 281.286C119.793 282.682 126.809 286.13 134.447 291.526C147.585 300.814 151.32 303.99 152.377 305.056C152.469 305.15 152.525 305.274 152.534 305.406C152.543 305.538 152.504 305.668 152.425 305.774C145.722 314.692 122.476 343.876 104.973 344.918C104.33 344.936 103.673 344.954 103.03 344.954ZM50.4468 226.874C50.569 226.872 50.6884 226.91 50.786 226.984C50.8498 227.032 50.9024 227.094 50.9404 227.164C50.9784 227.236 51.0008 227.314 51.0062 227.394C51.0062 227.486 51.5436 237.084 55.045 241.434C56.3178 243.016 57.093 249.194 58.2646 258.546C60.1056 273.208 62.8892 295.37 69.6806 313.282C77.7098 334.45 89.5662 344.716 104.915 343.8C121.718 342.8 144.268 314.732 151.262 305.482C149.972 304.298 145.977 301.012 133.817 292.406C124.704 285.962 117.913 283.412 113.728 282.422L102.533 296.414C102.471 296.492 102.388 296.552 102.295 296.586C102.201 296.622 102.1 296.63 102.002 296.612C101.904 296.594 101.812 296.55 101.737 296.484C101.663 296.418 101.607 296.332 101.577 296.238C100.912 294.15 85.2808 245.042 83.8802 235.898C83.324 232.186 83.3432 228.41 83.9376 224.703C84.237 222.386 84.4792 220.554 83.845 218.752C82.7132 215.506 79.3526 213.273 79.3174 213.251C79.197 213.17 79.1132 213.045 79.084 212.903C77.3222 204.5 71.8432 182.21 67.9498 180.034C67.8596 179.97 67.7558 179.927 67.6464 179.911C67.537 179.894 67.4252 179.903 67.32 179.937C65.1486 180.716 66.122 190.855 68.2008 200.466C68.2246 200.578 68.2148 200.694 68.1724 200.801C68.1302 200.908 68.0572 200.999 67.963 201.065C67.871 201.128 67.762 201.162 67.6502 201.162C67.5386 201.162 67.4294 201.128 67.3376 201.065C67.2538 200.998 65.2498 199.519 63.5322 199.946C62.713 200.148 62.0524 200.769 61.5678 201.791C61.5092 201.917 61.4054 202.015 61.2772 202.067C61.149 202.12 61.006 202.122 60.8764 202.073C59.8812 201.753 58.804 201.801 57.8418 202.21C56.8024 202.699 56.0096 203.685 55.4898 205.152C55.4652 205.22 55.4274 205.283 55.3784 205.337C55.3294 205.391 55.2702 205.434 55.2042 205.465C55.1382 205.496 55.0668 205.513 54.9942 205.516C54.9216 205.519 54.849 205.507 54.7808 205.482C54.7808 205.482 52.8164 204.782 51.1868 205.57C50.7082 205.824 50.2872 206.173 49.9498 206.597C49.6126 207.02 49.3664 207.509 49.2268 208.032C49.1802 208.156 49.0904 208.259 48.9738 208.322C48.8574 208.385 48.722 208.404 48.5926 208.376C48.1298 208.293 47.6542 208.318 47.2022 208.448C46.7502 208.578 46.334 208.809 45.9852 209.124C44.664 210.353 44.294 212.974 44.8578 216.709C45.8268 223.104 47.5488 225.518 48.8216 226.398C49.2504 226.752 49.8008 226.922 50.3544 226.874C50.3852 226.87 50.4162 226.87 50.4468 226.874Z" fill="#1E1D25"/>
<path d="M103.646 301.562C103.529 301.562 103.414 301.524 103.319 301.454C103.224 301.384 103.153 301.286 103.118 301.174L101.567 296.232C101.524 296.094 101.537 295.942 101.605 295.812C101.673 295.682 101.789 295.586 101.929 295.542C102.068 295.498 102.22 295.51 102.349 295.578C102.479 295.646 102.576 295.762 102.62 295.902L104.188 300.866C104.21 300.936 104.218 301.008 104.211 301.08C104.205 301.152 104.184 301.222 104.151 301.286C104.117 301.348 104.071 301.406 104.016 301.452C103.96 301.498 103.896 301.532 103.827 301.554C103.768 301.566 103.707 301.57 103.646 301.562ZM50.4553 227.966C50.3175 227.966 50.1843 227.916 50.0823 227.824C49.9801 227.73 49.9165 227.604 49.9037 227.466C49.8911 227.33 49.9303 227.192 50.0135 227.082C50.0969 226.972 50.2183 226.898 50.3539 226.874C50.4641 226.874 52.7543 226.434 52.6309 222.738C52.6285 222.665 52.6405 222.593 52.6661 222.526C52.6915 222.458 52.7301 222.396 52.7797 222.343C52.8291 222.29 52.8885 222.248 52.9545 222.218C53.0205 222.188 53.0915 222.172 53.1639 222.17C53.2361 222.166 53.3083 222.177 53.3763 222.202C53.4441 222.227 53.5065 222.265 53.5595 222.314C53.6123 222.363 53.6549 222.423 53.6845 222.489C53.7143 222.555 53.7303 222.626 53.7321 222.698C53.8905 227.406 50.5565 227.958 50.5213 227.984L50.4553 227.966Z" fill="#1E1D25"/>
<path d="M56.8065 225.75C55.7723 225.71 54.7925 225.278 54.0669 224.539C50.0281 220.848 47.9009 209.952 48.1563 207.803C48.1807 207.666 48.2561 207.543 48.3673 207.459C48.4785 207.376 48.6174 207.337 48.7558 207.352C48.8944 207.366 49.0221 207.433 49.1135 207.538C49.2049 207.642 49.2531 207.778 49.2487 207.917C49.0417 209.833 51.1646 220.404 54.8114 223.733C55.635 224.491 56.4365 224.777 57.2557 224.614C59.5239 224.174 59.5723 221.284 59.5723 221.166C59.5735 221.02 59.6321 220.881 59.7351 220.779C59.8383 220.677 59.9777 220.619 60.1229 220.619C60.1951 220.619 60.2666 220.634 60.333 220.661C60.3996 220.689 60.4599 220.73 60.5107 220.781C60.5615 220.832 60.6016 220.893 60.6288 220.96C60.656 221.026 60.6698 221.098 60.6692 221.17C60.6692 222.513 59.9909 225.186 57.4671 225.692C57.2493 225.734 57.0281 225.752 56.8065 225.75Z" fill="#1E1D25"/>
<path d="M63.325 223.874C62.2636 223.874 61.1844 223.248 60.1054 222.011C56.745 218.139 53.8072 208.357 54.4282 204.86C54.4392 204.787 54.4646 204.718 54.503 204.655C54.5414 204.592 54.592 204.538 54.6518 204.495C54.7116 204.452 54.7794 204.421 54.851 204.405C54.9228 204.389 54.9972 204.387 55.0696 204.4C55.142 204.413 55.2112 204.44 55.2728 204.481C55.3344 204.521 55.3876 204.573 55.4288 204.634C55.47 204.695 55.4986 204.763 55.5128 204.835C55.527 204.908 55.5266 204.982 55.5116 205.054C54.9964 207.952 57.5818 217.426 60.9378 221.288C61.5456 221.984 62.4618 222.808 63.3822 222.773C65.9808 222.676 66.0248 220.165 66.0248 220.06C66.0248 219.914 66.0828 219.774 66.1862 219.67C66.2894 219.567 66.4294 219.509 66.5754 219.509C66.7214 219.509 66.8614 219.567 66.9646 219.67C67.068 219.774 67.126 219.914 67.126 220.06C67.126 221.328 66.3156 223.755 63.413 223.861L63.325 223.874Z" fill="#1E1D25"/>
<path d="M68.7067 221.293C67.9205 221.271 67.1621 220.996 66.5443 220.509C62.2985 217.377 59.5899 205.851 60.5499 201.429C60.5621 201.356 60.5891 201.285 60.6293 201.223C60.6695 201.16 60.7221 201.106 60.7839 201.064C60.8455 201.022 60.9151 200.993 60.9885 200.979C61.0617 200.965 61.1371 200.965 61.2099 200.981C61.2829 200.997 61.3517 201.028 61.4125 201.071C61.4733 201.114 61.5247 201.169 61.5635 201.233C61.6023 201.297 61.6277 201.368 61.6381 201.442C61.6487 201.516 61.6441 201.591 61.6247 201.663C60.7437 205.71 63.4437 216.853 67.1961 219.619C68.0769 220.276 68.9227 220.364 69.7595 219.892C70.4509 219.505 70.8253 218.197 70.9133 217.725C70.9243 217.653 70.9497 217.583 70.9881 217.52C71.0265 217.457 71.0771 217.403 71.1369 217.36C71.1967 217.317 71.2645 217.287 71.3363 217.27C71.4079 217.254 71.4823 217.252 71.5547 217.265C71.6271 217.278 71.6963 217.306 71.7579 217.346C71.8197 217.386 71.8727 217.438 71.9139 217.499C71.9551 217.56 71.9837 217.628 71.9979 217.701C72.0121 217.773 72.0117 217.847 71.9969 217.919C71.9527 218.144 71.5565 220.121 70.3011 220.853C69.8173 221.136 69.2677 221.288 68.7067 221.293Z" fill="#1E1D25"/>
<path d="M75.5206 224.063C75.3848 224.062 75.2538 224.012 75.153 223.921C75.0522 223.83 74.9886 223.704 74.9744 223.569C74.8424 222.336 74.3622 220.742 70.3234 217.403C67.0686 214.712 66.3596 212.29 66.3024 210.731C66.2684 210.106 66.3688 209.481 66.5966 208.898C66.8246 208.316 67.1748 207.789 67.6236 207.353C68.5662 206.472 70.645 207.555 74.5428 209.674C76.246 210.655 78.0116 211.525 79.828 212.277C79.8962 212.302 79.9586 212.34 80.0118 212.389C80.065 212.438 80.108 212.498 80.1384 212.563C80.1686 212.629 80.1856 212.701 80.1884 212.773C80.191 212.846 80.1794 212.918 80.154 212.986C80.1294 213.054 80.0916 213.116 80.0428 213.169C79.994 213.222 79.9352 213.265 79.8696 213.296C79.8042 213.326 79.7332 213.343 79.661 213.346C79.589 213.349 79.517 213.337 79.4492 213.312C77.5842 212.541 75.7716 211.65 74.0232 210.643C72.0016 209.542 68.9406 207.881 68.3592 208.172C68.031 208.503 67.7768 208.9 67.6136 209.336C67.4502 209.773 67.3816 210.239 67.4122 210.704C67.443 212.026 68.0994 214.131 71.0326 216.558C74.9568 219.799 75.8774 221.658 76.0756 223.459C76.0834 223.531 76.0772 223.604 76.0568 223.673C76.0364 223.742 76.0026 223.807 75.957 223.863C75.9116 223.919 75.8554 223.966 75.7918 224C75.7282 224.034 75.6586 224.056 75.5866 224.063H75.5206Z" fill="#1E1D25"/>
<path d="M69.3677 208.235C69.2411 208.235 69.1187 208.191 69.0207 208.11C68.9229 208.03 68.8557 207.919 68.8303 207.795L68.3063 205.593C68.2729 205.45 68.2975 205.3 68.3749 205.176C68.4521 205.052 68.5755 204.963 68.7181 204.93C68.8605 204.896 69.0105 204.921 69.1347 204.998C69.2591 205.076 69.3475 205.199 69.3809 205.342L69.9005 207.544C69.9177 207.614 69.9207 207.687 69.9097 207.758C69.8985 207.83 69.8733 207.898 69.8357 207.96C69.7981 208.022 69.7487 208.076 69.6903 208.118C69.6319 208.161 69.5657 208.192 69.4953 208.209L69.3677 208.235ZM67.9715 202.342C67.8497 202.34 67.7317 202.299 67.6355 202.224C67.5393 202.15 67.4701 202.046 67.4385 201.928L67.1392 200.756C67.118 200.685 67.1113 200.611 67.1197 200.537C67.1281 200.464 67.1513 200.392 67.1877 200.328C67.2243 200.264 67.2733 200.207 67.3321 200.162C67.3911 200.117 67.4583 200.084 67.5301 200.066C67.6019 200.048 67.6765 200.044 67.7499 200.055C67.8231 200.066 67.8933 200.092 67.9563 200.131C68.0193 200.17 68.0737 200.221 68.1165 200.282C68.1593 200.342 68.1893 200.411 68.2049 200.483L68.5043 201.65C68.5407 201.792 68.5201 201.942 68.4467 202.068C68.3733 202.194 68.2533 202.286 68.1125 202.324C68.0661 202.335 68.0189 202.34 67.9715 202.342Z" fill="#1E1D25"/>
<path d="M194.482 258.016H248.198L259.802 345.614H178.564L194.482 258.016Z" fill="#FFCB3D"/>
<path d="M259.802 346.166H178.565C178.481 346.168 178.398 346.152 178.321 346.118C178.245 346.084 178.177 346.032 178.124 345.968C178.075 345.906 178.039 345.836 178.019 345.76C177.998 345.684 177.994 345.604 178.005 345.528L193.936 257.916C193.961 257.792 194.029 257.68 194.128 257.598C194.227 257.518 194.35 257.474 194.478 257.476H248.21C248.344 257.476 248.472 257.524 248.572 257.612C248.672 257.7 248.738 257.82 248.756 257.952L260.362 345.554C260.372 345.632 260.364 345.712 260.342 345.788C260.318 345.864 260.28 345.934 260.23 345.994C260.176 346.052 260.108 346.096 260.036 346.126C259.962 346.156 259.882 346.17 259.802 346.166ZM179.225 345.064H259.172L247.712 258.586H194.94L179.225 345.064Z" fill="#1E1D25"/>
<path d="M244.88 346.164C244.808 346.162 244.738 346.144 244.672 346.114C244.606 346.084 244.546 346.042 244.498 345.988C244.448 345.936 244.41 345.872 244.386 345.804C244.36 345.736 244.35 345.664 244.352 345.592L247.668 257.994C247.672 257.922 247.688 257.85 247.718 257.786C247.748 257.72 247.792 257.66 247.844 257.61C247.898 257.562 247.96 257.524 248.026 257.498C248.094 257.472 248.166 257.462 248.24 257.464C248.312 257.466 248.382 257.484 248.448 257.514C248.514 257.544 248.574 257.586 248.622 257.638C248.672 257.692 248.71 257.754 248.736 257.822C248.76 257.89 248.772 257.962 248.77 258.034L245.454 345.636C245.45 345.708 245.434 345.78 245.404 345.846C245.372 345.912 245.33 345.97 245.276 346.02C245.224 346.068 245.162 346.106 245.094 346.132C245.026 346.156 244.954 346.168 244.88 346.164ZM227.144 270.652H211.222C210.172 270.652 209.164 270.236 208.42 269.492C207.676 268.748 207.258 267.74 207.258 266.688C207.258 265.638 207.676 264.63 208.42 263.886C209.164 263.142 210.172 262.724 211.222 262.724H227.144C228.196 262.724 229.204 263.142 229.948 263.886C230.69 264.63 231.108 265.638 231.108 266.688C231.108 267.74 230.69 268.748 229.948 269.492C229.204 270.236 228.196 270.652 227.144 270.652ZM211.222 263.834C210.464 263.834 209.736 264.136 209.198 264.674C208.662 265.21 208.36 265.938 208.36 266.698C208.36 267.456 208.662 268.186 209.198 268.722C209.736 269.258 210.464 269.56 211.222 269.56H227.144C227.904 269.56 228.632 269.258 229.168 268.722C229.706 268.186 230.008 267.456 230.008 266.698C230.008 265.938 229.706 265.21 229.168 264.674C228.632 264.136 227.904 263.834 227.144 263.834H211.222Z" fill="#1E1D25"/>
<path d="M156.138 279.506H201.556L207.14 345.614H140.644L156.138 279.506Z" fill="#FFCB3D"/>
<path d="M207.148 346.166H140.643C140.559 346.168 140.475 346.15 140.399 346.114C140.322 346.078 140.255 346.024 140.203 345.958C140.15 345.894 140.114 345.818 140.095 345.738C140.077 345.656 140.078 345.572 140.097 345.492L155.618 279.382C155.642 279.258 155.709 279.146 155.807 279.066C155.905 278.986 156.028 278.942 156.155 278.942H201.556C201.694 278.942 201.826 278.994 201.928 279.088C202.03 279.182 202.092 279.31 202.102 279.448L207.69 345.558C207.7 345.638 207.692 345.718 207.666 345.794C207.642 345.87 207.6 345.94 207.546 345.998C207.494 346.052 207.432 346.094 207.364 346.124C207.296 346.152 207.222 346.166 207.148 346.166ZM141.343 345.064H206.542L201.048 280.056H156.565L141.343 345.064Z" fill="#1E1D25"/>
<path d="M207.148 346.166H192.614C192.536 346.166 192.458 346.148 192.387 346.116C192.315 346.084 192.252 346.036 192.2 345.976C192.149 345.916 192.111 345.846 192.089 345.77C192.067 345.694 192.061 345.614 192.073 345.536L201.01 279.43C201.028 279.286 201.104 279.154 201.22 279.066C201.336 278.976 201.484 278.938 201.628 278.958C201.772 278.976 201.904 279.052 201.992 279.168C202.082 279.284 202.12 279.432 202.102 279.576L193.244 345.064H207.148C207.294 345.064 207.434 345.122 207.538 345.226C207.642 345.328 207.7 345.468 207.7 345.614C207.7 345.76 207.642 345.9 207.538 346.004C207.434 346.108 207.294 346.166 207.148 346.166ZM167.219 284.042H167.157C167.085 284.034 167.016 284.012 166.952 283.978C166.889 283.942 166.833 283.896 166.788 283.838C166.743 283.782 166.71 283.718 166.69 283.648C166.67 283.578 166.664 283.506 166.673 283.434C166.77 282.552 169.175 261.922 179.08 261.518C179.91 261.466 180.741 261.604 181.509 261.924C182.277 262.242 182.962 262.734 183.511 263.358C188.21 268.526 186.316 282.958 186.233 283.57C186.223 283.642 186.199 283.712 186.162 283.774C186.126 283.836 186.077 283.89 186.02 283.934C185.962 283.978 185.896 284.01 185.826 284.028C185.756 284.046 185.683 284.052 185.612 284.042C185.54 284.032 185.471 284.008 185.408 283.972C185.346 283.934 185.291 283.886 185.247 283.828C185.204 283.77 185.172 283.706 185.153 283.636C185.135 283.566 185.13 283.492 185.14 283.42C185.162 283.28 187.052 268.886 182.696 264.098C182.255 263.592 181.703 263.196 181.084 262.94C180.464 262.682 179.793 262.572 179.124 262.618C170.157 262.984 167.792 283.35 167.765 283.558C167.749 283.69 167.685 283.814 167.584 283.902C167.483 283.992 167.354 284.042 167.219 284.042Z" fill="#1E1D25"/>
<path d="M196.988 296.066H235.134L243.374 345.614H185.687L196.988 296.066Z" fill="white"/>
<path d="M243.374 346.166H185.678C185.593 346.168 185.51 346.15 185.433 346.114C185.357 346.078 185.29 346.024 185.237 345.958C185.187 345.892 185.151 345.818 185.133 345.736C185.115 345.656 185.114 345.572 185.132 345.492L196.433 295.942C196.458 295.818 196.526 295.708 196.623 295.628C196.721 295.546 196.844 295.502 196.97 295.502H235.116C235.244 295.502 235.368 295.546 235.466 295.626C235.564 295.706 235.632 295.818 235.658 295.942L243.898 345.492C243.912 345.57 243.906 345.65 243.886 345.726C243.864 345.802 243.826 345.872 243.776 345.932C243.73 345.998 243.67 346.052 243.6 346.092C243.532 346.132 243.454 346.158 243.374 346.166ZM186.378 345.064H242.722L234.668 296.616H197.428L186.378 345.064Z" fill="#1E1D25"/>
<path d="M232.778 346.164H232.752C232.678 346.162 232.608 346.144 232.542 346.112C232.476 346.082 232.418 346.038 232.37 345.986C232.32 345.932 232.284 345.868 232.258 345.8C232.234 345.732 232.224 345.66 232.228 345.588L234.584 296.022C234.582 295.946 234.594 295.87 234.624 295.8C234.652 295.73 234.694 295.666 234.748 295.614C234.802 295.56 234.868 295.518 234.938 295.492C235.008 295.464 235.084 295.452 235.16 295.456C235.236 295.46 235.31 295.48 235.378 295.514C235.446 295.546 235.506 295.594 235.556 295.652C235.604 295.71 235.64 295.778 235.662 295.85C235.684 295.922 235.69 296 235.68 296.074L233.328 345.624C233.326 345.768 233.266 345.906 233.164 346.006C233.06 346.108 232.922 346.164 232.778 346.164ZM220.674 303.452H208.386C208.052 303.466 207.718 303.412 207.406 303.294C207.094 303.176 206.808 302.996 206.566 302.764C206.324 302.534 206.132 302.256 206.002 301.948C205.87 301.64 205.802 301.308 205.802 300.974C205.802 300.64 205.87 300.31 206.002 300.002C206.132 299.694 206.324 299.416 206.566 299.184C206.808 298.954 207.094 298.772 207.406 298.654C207.718 298.536 208.052 298.484 208.386 298.498H220.674C221.008 298.484 221.342 298.536 221.656 298.654C221.968 298.772 222.254 298.954 222.496 299.184C222.736 299.416 222.928 299.694 223.06 300.002C223.192 300.31 223.258 300.64 223.258 300.974C223.258 301.308 223.192 301.64 223.06 301.948C222.928 302.256 222.736 302.534 222.496 302.764C222.254 302.996 221.968 303.176 221.656 303.294C221.342 303.412 221.008 303.466 220.674 303.452ZM208.386 299.598C208.2 299.588 208.012 299.616 207.836 299.68C207.66 299.744 207.498 299.844 207.362 299.972C207.226 300.102 207.116 300.256 207.042 300.43C206.968 300.602 206.93 300.786 206.93 300.974C206.93 301.162 206.968 301.348 207.042 301.52C207.116 301.692 207.226 301.848 207.362 301.976C207.498 302.106 207.66 302.206 207.836 302.27C208.012 302.334 208.2 302.362 208.386 302.35H220.674C220.862 302.362 221.05 302.334 221.226 302.27C221.402 302.206 221.562 302.106 221.7 301.976C221.836 301.848 221.944 301.692 222.018 301.52C222.092 301.348 222.13 301.162 222.13 300.974C222.13 300.786 222.092 300.602 222.018 300.43C221.944 300.256 221.836 300.102 221.7 299.972C221.562 299.844 221.402 299.744 221.226 299.68C221.05 299.616 220.862 299.588 220.674 299.598H208.386Z" fill="#1E1D25"/>
<path d="M293.196 300.568C292.404 310.838 288.854 350.336 280.134 361.32C275.508 367.134 250.528 370.764 198.653 367.434C181.388 366.328 168.867 365.844 159.917 363.232C145.383 358.986 139.917 353.622 140.036 351.782C140.111 350.71 141.476 350.244 141.476 350.244C141.476 350.244 136.631 346.134 137.988 344.008C139.01 342.396 141.384 343.254 141.542 343.316C141.326 343.06 136.86 337.926 138.371 335.948C139.692 334.186 143.771 336.964 143.925 337.066C143.815 336.93 141.502 333.944 143.185 332.662C144.867 331.38 155.442 337.374 164.167 339.268C172.491 341.06 176.094 340.744 176.094 340.744C176.094 340.744 163.612 332.266 168.58 328.138C170.228 326.774 176.856 333.454 185.075 333.772C193.522 334.094 194.099 340.576 208.726 339.59C220.424 338.798 238.45 334.636 255.954 328.49L254.152 299.934C254.848 299.824 279.732 296.022 293.196 300.568Z" fill="white"/>
<path d="M234.342 369.256C223.92 369.256 211.95 368.838 198.609 367.98L192.443 367.596C178.045 366.716 167.646 366.068 159.736 363.76C145.642 359.646 139.3 354.162 139.476 351.758C139.512 351.428 139.624 351.108 139.802 350.828C139.981 350.546 140.222 350.31 140.507 350.138C139.146 348.86 136.225 345.734 137.507 343.724C137.796 343.3 138.194 342.964 138.659 342.746C139.125 342.53 139.639 342.444 140.15 342.496C138.665 340.562 136.626 337.334 137.926 335.626C138.921 334.304 140.89 334.872 142.392 335.582C142.107 334.976 141.984 334.306 142.035 333.638C142.068 333.364 142.156 333.098 142.295 332.858C142.433 332.618 142.619 332.408 142.841 332.242C143.946 331.402 146.554 332.388 151.874 334.52C155.578 336.004 160.19 337.85 164.272 338.726C167.602 339.498 170.991 339.986 174.402 340.188C171.936 338.308 167.038 334.158 166.871 330.684C166.838 330.116 166.945 329.548 167.183 329.03C167.42 328.512 167.78 328.062 168.232 327.714C169.218 326.896 170.874 327.798 173.376 329.16C176.38 330.798 180.498 333.044 185.1 333.22C188.681 333.356 190.901 334.542 193.253 335.836C196.508 337.598 200.204 339.61 208.694 339.038C220.476 338.242 238.332 334.058 255.38 328.112L253.62 299.968C253.61 299.83 253.654 299.696 253.74 299.588C253.826 299.482 253.95 299.412 254.086 299.39C254.342 299.35 279.742 295.448 293.394 300.042C293.512 300.08 293.612 300.158 293.68 300.26C293.748 300.362 293.78 300.484 293.77 300.606C292.888 312.158 289.308 350.706 280.592 361.664C276.592 366.654 260.26 369.256 234.342 369.256ZM139.978 343.588C139.682 343.564 139.384 343.618 139.115 343.744C138.846 343.87 138.613 344.064 138.441 344.306C137.622 345.628 140.366 348.588 141.823 349.83C141.897 349.892 141.953 349.974 141.985 350.064C142.017 350.156 142.026 350.254 142.008 350.348C141.994 350.448 141.952 350.542 141.888 350.62C141.823 350.698 141.739 350.756 141.643 350.79C141.643 350.79 140.625 351.164 140.577 351.842C140.476 353.34 145.941 358.598 160.062 362.716C167.853 364.988 178.203 365.628 192.526 366.512C194.508 366.63 196.564 366.758 198.692 366.896C266.078 371.22 277.746 363.47 279.732 360.99C288.154 350.42 291.708 312.938 292.642 300.968C280.208 297.004 258.328 299.906 254.764 300.416L256.526 328.472C256.532 328.592 256.5 328.71 256.434 328.81C256.366 328.908 256.27 328.984 256.156 329.022C238.904 335.078 220.754 339.342 208.788 340.152C199.978 340.748 196.133 338.66 192.742 336.818C190.412 335.554 188.399 334.458 185.074 334.334C180.229 334.146 175.966 331.832 172.865 330.142C171.227 329.26 169.364 328.234 168.954 328.574C168.636 328.812 168.381 329.126 168.213 329.488C168.044 329.85 167.968 330.246 167.99 330.644C168.148 333.974 174.156 338.744 176.424 340.298C176.518 340.362 176.59 340.454 176.63 340.56C176.67 340.666 176.677 340.782 176.648 340.892C176.62 341.002 176.558 341.1 176.471 341.174C176.385 341.248 176.277 341.292 176.164 341.302C176.014 341.302 172.381 341.61 164.07 339.818C159.894 338.938 155.239 337.052 151.495 335.554C148.245 334.234 144.197 332.63 143.537 333.132C143.43 333.21 143.342 333.308 143.277 333.422C143.211 333.536 143.171 333.662 143.158 333.792C143.035 334.736 143.902 336.144 144.378 336.756C144.456 336.86 144.495 336.988 144.488 337.118C144.481 337.246 144.429 337.37 144.341 337.464C144.252 337.558 144.133 337.62 144.005 337.634C143.876 337.65 143.747 337.62 143.638 337.55C142.11 336.52 139.568 335.348 138.828 336.308C138.027 337.36 139.802 340.462 141.978 342.972C142.057 343.066 142.104 343.184 142.11 343.306C142.117 343.43 142.082 343.552 142.013 343.654C141.944 343.754 141.843 343.83 141.726 343.866C141.609 343.902 141.484 343.896 141.37 343.852C140.923 343.69 140.453 343.6 139.978 343.588Z" fill="#1E1D25"/>
<path d="M164.779 348.346C164.72 348.346 164.662 348.336 164.607 348.314C156.318 345.61 146.461 340.54 143.519 337.466C143.418 337.36 143.363 337.22 143.366 337.072C143.37 336.926 143.431 336.788 143.537 336.686C143.642 336.586 143.784 336.53 143.93 336.534C144.076 336.538 144.215 336.598 144.316 336.704C147.104 339.62 156.944 344.632 164.951 347.274C165.076 347.316 165.182 347.398 165.251 347.51C165.32 347.622 165.347 347.756 165.326 347.886C165.305 348.016 165.238 348.134 165.138 348.218C165.038 348.304 164.91 348.35 164.779 348.35V348.346ZM163.074 354.766C163.018 354.766 162.961 354.756 162.907 354.74C157.045 352.842 144.021 346.104 141.189 343.73C141.132 343.684 141.084 343.626 141.049 343.562C141.013 343.498 140.991 343.428 140.984 343.354C140.976 343.282 140.983 343.208 141.005 343.138C141.026 343.066 141.061 343.002 141.108 342.946C141.155 342.888 141.213 342.842 141.278 342.808C141.344 342.776 141.415 342.754 141.488 342.748C141.561 342.744 141.635 342.752 141.705 342.776C141.774 342.798 141.839 342.836 141.894 342.884C144.664 345.182 157.468 351.798 163.246 353.67C163.371 353.71 163.478 353.794 163.547 353.906C163.616 354.018 163.642 354.15 163.621 354.28C163.6 354.41 163.534 354.528 163.434 354.614C163.333 354.698 163.206 354.746 163.074 354.744V354.766ZM162.665 360.766C162.619 360.772 162.573 360.772 162.528 360.766C152.077 358.048 142.806 352.134 141.11 350.702C141.055 350.654 141.009 350.598 140.976 350.534C140.943 350.468 140.923 350.398 140.917 350.326C140.911 350.254 140.919 350.182 140.942 350.112C140.964 350.044 140.999 349.98 141.046 349.924C141.093 349.87 141.15 349.824 141.215 349.79C141.279 349.758 141.349 349.738 141.421 349.732C141.494 349.726 141.566 349.734 141.635 349.756C141.704 349.778 141.768 349.814 141.823 349.86C143.471 351.256 152.539 357.026 162.806 359.7C162.923 359.742 163.023 359.824 163.088 359.932C163.153 360.038 163.18 360.166 163.163 360.29C163.147 360.414 163.088 360.528 162.998 360.616C162.907 360.702 162.79 360.754 162.665 360.766Z" fill="#1E1D25"/>
<path d="M188.611 217.687L182.92 223.875L179.317 253.124L203.876 243.298L227.7 253.336L223.978 222.562L219.186 217.687L203.876 243.298L188.611 217.687Z" fill="white"/>
<path d="M227.7 253.886C227.626 253.886 227.554 253.872 227.488 253.842L203.868 243.892L179.524 253.634C179.435 253.67 179.338 253.682 179.243 253.67C179.147 253.656 179.057 253.62 178.981 253.56C178.904 253.502 178.845 253.424 178.808 253.334C178.772 253.246 178.759 253.148 178.771 253.054L182.374 223.808C182.39 223.694 182.439 223.586 182.515 223.5L188.205 217.334C188.261 217.273 188.329 217.225 188.405 217.195C188.482 217.164 188.564 217.151 188.646 217.157C188.736 217.163 188.823 217.19 188.899 217.237C188.976 217.284 189.04 217.349 189.086 217.426L203.88 242.244L218.714 217.426C218.758 217.352 218.818 217.288 218.89 217.241C218.962 217.194 219.044 217.164 219.128 217.153C219.214 217.143 219.3 217.153 219.382 217.182C219.462 217.211 219.536 217.258 219.596 217.32L224.388 222.2C224.472 222.286 224.526 222.398 224.542 222.518L228.264 253.29C228.276 253.386 228.262 253.484 228.226 253.572C228.188 253.662 228.128 253.738 228.052 253.798C227.946 253.864 227.824 253.894 227.7 253.886ZM204.674 243.034L227.038 252.458L223.444 222.813L219.282 218.58L204.674 243.034ZM183.444 224.094L179.978 252.242L203.07 242.994L188.514 218.571L183.444 224.094Z" fill="#1E1D25"/>
<path d="M203.876 258.584C203.73 258.584 203.59 258.526 203.488 258.424C203.384 258.32 203.326 258.18 203.326 258.034V243.298C203.326 243.152 203.384 243.01 203.488 242.908C203.59 242.804 203.73 242.746 203.876 242.746C204.022 242.746 204.162 242.804 204.266 242.908C204.368 243.01 204.426 243.152 204.426 243.298V258.016C204.43 258.09 204.416 258.164 204.39 258.232C204.364 258.302 204.324 258.364 204.272 258.418C204.22 258.47 204.16 258.512 204.092 258.54C204.024 258.57 203.95 258.584 203.876 258.584ZM207.818 253.008C207.372 253.008 206.936 252.876 206.566 252.628C206.194 252.382 205.906 252.028 205.734 251.616C205.564 251.204 205.52 250.752 205.606 250.314C205.694 249.876 205.908 249.474 206.224 249.16C206.54 248.844 206.94 248.63 207.378 248.542C207.816 248.456 208.27 248.5 208.682 248.67C209.094 248.842 209.446 249.13 209.694 249.502C209.942 249.872 210.074 250.308 210.074 250.754C210.074 251.352 209.836 251.926 209.412 252.348C208.99 252.772 208.416 253.008 207.818 253.008ZM207.818 249.6C207.59 249.6 207.366 249.668 207.178 249.794C206.988 249.922 206.84 250.102 206.752 250.312C206.664 250.524 206.642 250.756 206.686 250.978C206.732 251.202 206.84 251.408 207.002 251.57C207.164 251.732 207.37 251.842 207.594 251.886C207.816 251.93 208.05 251.908 208.26 251.82C208.47 251.732 208.65 251.584 208.778 251.394C208.904 251.206 208.972 250.982 208.972 250.754C208.972 250.448 208.85 250.154 208.634 249.938C208.418 249.722 208.124 249.6 207.818 249.6ZM109.373 286.992L113.53 281.8C113.53 281.8 108.311 280.478 106.585 281.386C104.858 282.294 109.373 286.992 109.373 286.992Z" fill="#1E1D25"/>
<path d="M109.372 287.544C109.298 287.544 109.225 287.528 109.157 287.5C109.089 287.47 109.028 287.428 108.976 287.376C108.372 286.746 105.377 283.514 105.659 281.818C105.69 281.622 105.768 281.436 105.885 281.276C106.002 281.116 106.156 280.986 106.333 280.898C108.187 279.946 113.107 281.126 113.662 281.268C113.752 281.29 113.835 281.334 113.903 281.398C113.971 281.46 114.022 281.54 114.051 281.626C114.081 281.714 114.088 281.808 114.071 281.9C114.055 281.99 114.015 282.076 113.957 282.148L109.813 287.336C109.763 287.398 109.702 287.448 109.632 287.482C109.562 287.518 109.486 287.54 109.407 287.544H109.372ZM108.416 281.628C107.877 281.598 107.338 281.684 106.835 281.88C106.81 281.888 106.789 281.904 106.773 281.926C106.757 281.946 106.748 281.972 106.747 281.998C106.633 282.69 107.936 284.592 109.341 286.152L112.552 282.14C111.191 281.84 109.805 281.668 108.412 281.628H108.416ZM292.654 306.808L293.196 300.568C293.196 300.568 297.852 302.466 299.322 304.2C300.794 305.936 292.654 306.808 292.654 306.808Z" fill="#1E1D25"/>
<path d="M292.654 307.358C292.51 307.358 292.37 307.3 292.268 307.2C292.21 307.142 292.166 307.074 292.138 306.998C292.11 306.922 292.098 306.84 292.104 306.76L292.646 300.518C292.654 300.432 292.68 300.35 292.726 300.276C292.772 300.202 292.834 300.14 292.908 300.096C292.982 300.05 293.064 300.024 293.15 300.016C293.236 300.01 293.324 300.024 293.404 300.056C293.598 300.136 298.204 302.03 299.742 303.844C299.886 303.994 299.986 304.182 300.028 304.386C300.07 304.592 300.05 304.804 299.974 304.998C299.38 306.482 294.69 307.138 292.712 307.354L292.654 307.358ZM293.676 301.372L293.262 306.182C296.142 305.812 298.698 305.112 298.944 304.606L298.904 304.552C297.878 303.328 295.002 301.964 293.676 301.372ZM179.317 253.122L206.118 244.24L203.876 243.296L179.317 253.122Z" fill="#1E1D25"/>
<path d="M227.7 253.334L203.876 243.296L201.63 244.196L227.7 253.334ZM201.556 279.506L205.056 296.066H202.956L201.556 279.506ZM235.134 296.066L243.722 332.442L241.3 333.146L235.134 296.066Z" fill="#1E1D25"/>
</svg>
